<svg width="32" height="32" viewBox="0 0 32 32" fill="none" xmlns="http://www.w3.org/2000/svg">
<path fill-rule="evenodd" clip-rule="evenodd" d="M0 3.5C0 2.67158 0.671572 2 1.5 2H10.0057C12.4602 2 14.6396 3.17916 16.0079 5.00212C17.3761 3.17924 19.5553 2 22.01 2H30.5C31.3284 2 32 2.67158 32 3.5V24.5C32 25.3284 31.3284 26 30.5 26H21.4852C20.2918 26 19.1472 26.4742 18.3033 27.318L17.0607 28.5606C16.4749 29.1464 15.5251 29.1464 14.9393 28.5606L13.6967 27.318C12.8528 26.4742 11.7082 26 10.5147 26H1.5C0.671572 26 0 25.3284 0 24.5V3.5ZM17.51 9.5C17.51 7.01472 19.5247 5 22.01 5H29V23H21.4852C20.0652 23 18.6868 23.4028 17.5025 24.1448L17.51 9.5ZM14.5025 24.148L14.51 14.0014L14.5057 9.49572C14.5033 7.0121 12.4893 5 10.0057 5H3V23H10.5147C11.9367 23 13.3171 23.4038 14.5025 24.148Z" fill="#45C8F1"/>
</svg>
