<svg width="32" height="32" viewBox="0 0 32 32" fill="none" xmlns="http://www.w3.org/2000/svg">
<path fill-rule="evenodd" clip-rule="evenodd" d="M4 3.5C4 1.567 5.567 0 7.5 0H24.5C26.433 0 28 1.567 28 3.5V13.5C28 15.433 26.433 17 24.5 17H7.5C5.567 17 4 15.433 4 13.5V3.5ZM7.5 3C7.22386 3 7 3.22386 7 3.5V13.5C7 13.7761 7.22386 14 7.5 14H24.5C24.7761 14 25 13.7761 25 13.5V3.5C25 3.22386 24.7761 3 24.5 3H7.5Z" fill="#45C8F1"/>
<path fill-rule="evenodd" clip-rule="evenodd" d="M0 22.5C0 20.567 1.567 19 3.5 19H28.5C30.433 19 32 20.567 32 22.5V28.5C32 30.433 30.433 32 28.5 32H3.5C1.567 32 0 30.433 0 28.5V22.5ZM3.5 22C3.22386 22 3 22.2239 3 22.5V28.5C3 28.7761 3.22386 29 3.5 29H28.5C28.7761 29 29 28.7761 29 28.5V22.5C29 22.2239 28.7761 22 28.5 22H3.5Z" fill="#45C8F1"/>
<path fill-rule="evenodd" clip-rule="evenodd" d="M6 25.5C6 24.6716 6.67157 24 7.5 24H8.5C9.32843 24 10 24.6716 10 25.5C10 26.3284 9.32843 27 8.5 27H7.5C6.67157 27 6 26.3284 6 25.5ZM14 25.5C14 24.6716 14.6716 24 15.5 24H24.5C25.3284 24 26 24.6716 26 25.5C26 26.3284 25.3284 27 24.5 27H15.5C14.6716 27 14 26.3284 14 25.5Z" fill="#45C8F1"/>
</svg>
