<svg width="48" height="36" viewBox="0 0 48 36" fill="none" xmlns="http://www.w3.org/2000/svg">
<path fill-rule="evenodd" clip-rule="evenodd" d="M0 5.25C0 2.3505 2.35051 0 5.25 0H42.75C45.6495 0 48 2.3505 48 5.25V30.75C48 33.6495 45.6495 36 42.75 36H5.25C2.3505 36 0 33.6495 0 30.75V5.25ZM5.25 4.5C4.83579 4.5 4.5 4.83579 4.5 5.25V30.75C4.5 31.1643 4.83579 31.5 5.25 31.5H42.75C43.1643 31.5 43.5 31.1643 43.5 30.75V5.25C43.5 4.83579 43.1643 4.5 42.75 4.5H5.25ZM10.5 12.75C10.5 11.5074 11.5074 10.5 12.75 10.5H33.75C34.9926 10.5 36 11.5074 36 12.75C36 13.9926 34.9926 15 33.75 15H12.75C11.5074 15 10.5 13.9926 10.5 12.75ZM12.75 19.5C11.5074 19.5 10.5 20.5074 10.5 21.75C10.5 22.9926 11.5074 24 12.75 24H24.75C25.9926 24 27 22.9926 27 21.75C27 20.5074 25.9926 19.5 24.75 19.5H12.75Z" fill="#0075ff"/>
</svg>
