<svg width="64" height="65" viewBox="0 0 64 65" fill="none" xmlns="http://www.w3.org/2000/svg">
<path fill-rule="evenodd" clip-rule="evenodd" d="M17 10.6174C11.6568 10.6174 6 15.2742 6 22.6174C6 31.2161 12.3216 39.1924 19.4588 45.345C22.9413 48.3474 26.4385 50.7606 29.0718 52.4254C30.2563 53.1742 31.2597 53.7674 32 54.191C32.7403 53.7674 33.7437 53.1742 34.9282 52.4254C37.5616 50.7606 41.0588 48.3474 44.5412 45.345C51.6784 39.1924 58 31.2161 58 22.6174C58 15.2742 52.3432 10.6174 47 10.6174C41.5072 10.6174 36.5648 14.5606 34.8846 20.4415C34.5166 21.7295 33.3394 22.6174 32 22.6174C30.6606 22.6174 29.4834 21.7295 29.1154 20.4415C27.4352 14.5606 22.4928 10.6174 17 10.6174ZM32 57.6174C30.6217 60.2822 30.6209 60.2818 30.62 60.281L30.6108 60.2762L30.5892 60.265L30.5153 60.2262C30.4525 60.193 30.363 60.1454 30.2484 60.0834C30.0194 59.9598 29.6902 59.779 29.2752 59.5442C28.4456 59.0742 27.2708 58.3854 25.8657 57.497C23.0615 55.7242 19.3087 53.1374 15.5412 49.8898C8.17836 43.5422 0 34.0186 0 22.6174C0 11.9605 8.34316 4.61737 17 4.61737C23.1894 4.61737 28.6116 7.82341 32 12.6972C35.3884 7.82341 40.8104 4.61737 47 4.61737C55.6568 4.61737 64 11.9605 64 22.6174C64 34.0186 55.8216 43.5422 48.4588 49.8898C44.6912 53.1374 40.9384 55.7242 38.1343 57.497C36.7292 58.3854 35.5544 59.0742 34.7248 59.5442C34.3098 59.779 33.9807 59.9598 33.7516 60.0834C33.637 60.1454 33.5475 60.193 33.4847 60.2262L33.4108 60.265L33.3892 60.2762L33.38 60.281C33.3791 60.2818 33.3783 60.2822 32 57.6174ZM32 57.6174L33.38 60.281C32.5156 60.7282 31.4844 60.7282 30.62 60.281L32 57.6174Z" fill="#0075ff"/>
</svg>
