<svg width="32" height="32" viewBox="0 0 32 32" fill="none" xmlns="http://www.w3.org/2000/svg">
<path fill-rule="evenodd" clip-rule="evenodd" d="M8.5 5C5.82842 5 3 7.32842 3 11C3 15.2994 6.16082 19.2875 9.7294 22.3638C11.4707 23.865 13.2192 25.0716 14.5359 25.904C15.1281 26.2784 15.6298 26.575 16 26.7868C16.3702 26.575 16.8719 26.2784 17.4641 25.904C18.7808 25.0716 20.5294 23.865 22.2706 22.3638C25.8392 19.2875 29 15.2994 29 11C29 7.32842 26.1716 5 23.5 5C20.7536 5 18.2824 6.97162 17.4423 9.91208C17.2583 10.556 16.6697 11 16 11C15.3303 11 14.7417 10.556 14.5577 9.91208C13.7176 6.97162 11.2464 5 8.5 5ZM16 28.5C15.3109 29.8324 15.3105 29.8322 15.31 29.8318L15.3054 29.8294L15.2946 29.8238L15.2577 29.8044C15.2263 29.7878 15.1815 29.764 15.1242 29.733C15.0097 29.6712 14.8451 29.5808 14.6376 29.4634C14.2228 29.2284 13.6354 28.884 12.9328 28.4398C11.5308 27.5534 9.65434 26.26 7.7706 24.6362C4.08918 21.4624 0 16.7006 0 11C0 5.67158 4.17158 2 8.5 2C11.5947 2 14.3058 3.60302 16 6.0399C17.6942 3.60302 20.4052 2 23.5 2C27.8284 2 32 5.67158 32 11C32 16.7006 27.9108 21.4624 24.2294 24.6362C22.3456 26.26 20.4692 27.5534 19.0672 28.4398C18.3646 28.884 17.7772 29.2284 17.3624 29.4634C17.1549 29.5808 16.9903 29.6712 16.8758 29.733C16.8185 29.764 16.7737 29.7878 16.7423 29.8044L16.7054 29.8238L16.6946 29.8294L16.69 29.8318C16.6895 29.8322 16.6891 29.8324 16 28.5ZM16 28.5L16.69 29.8318C16.2578 30.0554 15.7422 30.0554 15.31 29.8318L16 28.5Z" fill="#45C8F1"/>
</svg>
