<svg width="64" height="65" viewBox="0 0 64 65" fill="none" xmlns="http://www.w3.org/2000/svg">
<g clip-path="url(#clip0)">
<path fill-rule="evenodd" clip-rule="evenodd" d="M35.0001 3.61737C35.0001 1.96051 33.657 0.617371 32.0001 0.617371C30.3433 0.617371 29.0001 1.96051 29.0001 3.61737V8.61737H25.0624C23.8442 8.61737 22.6471 8.93529 21.5894 9.53965L16.434 12.4856C16.2829 12.572 16.1119 12.6174 15.9379 12.6174H7.00012C5.34328 12.6174 4.00012 13.9605 4.00012 15.6174C4.00012 17.2742 5.34328 18.6174 7.00012 18.6174H8.71032L0.264322 37.3863C-0.247153 38.5229 -0.00256586 39.8574 0.878768 40.7386L3.00009 38.6174C0.878768 40.7386 0.879816 40.7398 0.880876 40.741L0.88306 40.743L0.887652 40.7474L0.897732 40.7574L0.921492 40.7806L0.98342 40.8398C1.03111 40.8846 1.0917 40.9398 1.1652 41.0042C1.31212 41.1326 1.51119 41.2974 1.76259 41.4862C2.26497 41.863 2.97992 42.3366 3.90845 42.8006C5.77532 43.7342 8.4818 44.6174 12.0001 44.6174C15.5184 44.6174 18.2249 43.7342 20.0917 42.8006C21.0202 42.3366 21.7352 41.863 22.2376 41.4862C22.489 41.2974 22.688 41.1326 22.835 41.0042C22.9085 40.9398 22.9691 40.8846 23.0168 40.8398L23.0787 40.7806L23.1024 40.7574L23.1125 40.7474L23.1171 40.743L23.1193 40.741C23.1204 40.7398 23.1214 40.7386 21.0001 38.6174L23.1214 40.7386C24.0028 39.8574 24.2473 38.5229 23.7358 37.3863L15.2898 18.6174H15.9379C17.156 18.6174 18.3532 18.2995 19.4108 17.6951L24.5662 14.7491C24.7173 14.6628 24.8884 14.6174 25.0624 14.6174H29.0001V52.6174H19.0001C17.3433 52.6174 16.0001 53.9606 16.0001 55.6174C16.0001 57.2742 17.3433 58.6174 19.0001 58.6174H45C46.6568 58.6174 48 57.2742 48 55.6174C48 53.9606 46.6568 52.6174 45 52.6174H35.0001V14.6174H38.9379C39.1119 14.6174 39.2829 14.6628 39.434 14.7491L44.5896 17.6951C45.6472 18.2995 46.844 18.6174 48.0624 18.6174H48.7104L40.2644 37.3863C39.7528 38.5229 39.9974 39.8574 40.8788 40.7386L43 38.6174C40.8788 40.7386 40.88 40.7398 40.8808 40.741L40.8832 40.743L40.8876 40.7474L40.8976 40.7574L40.9216 40.7806L40.9836 40.8398C41.0312 40.8846 41.0916 40.9398 41.1652 41.0042C41.312 41.1326 41.5112 41.2974 41.7624 41.4862C42.2648 41.863 42.98 42.3366 43.9084 42.8006C45.7752 43.7342 48.4816 44.6174 52 44.6174C55.5184 44.6174 58.2248 43.7342 60.0916 42.8006C61.0204 42.3366 61.7352 41.863 62.2376 41.4862C62.4888 41.2974 62.688 41.1326 62.8348 41.0042C62.9084 40.9398 62.9692 40.8846 63.0168 40.8398L63.0552 40.8034L63.0788 40.7806L63.1024 40.7574L63.1124 40.7474L63.1172 40.743L63.1192 40.741C63.1204 40.7398 63.1216 40.7386 61 38.6174L63.1216 40.7386C64.0028 39.8574 64.2472 38.5229 63.736 37.3863L55.29 18.6174H57C58.6568 18.6174 60 17.2742 60 15.6174C60 13.9605 58.6568 12.6174 57 12.6174H48.0624C47.8884 12.6174 47.7172 12.572 47.5664 12.4856L42.4108 9.53965C41.3532 8.93529 40.156 8.61737 38.9379 8.61737H35.0001V3.61737ZM6.78092 37.5261C7.9204 38.0654 9.65228 38.6174 12.0001 38.6174C14.3479 38.6174 16.0798 38.0654 17.2193 37.5261L12.0001 25.9279L6.78092 37.5261ZM46.7808 37.5261C47.9204 38.0654 49.6524 38.6174 52 38.6174C54.348 38.6174 56.0796 38.0654 57.2192 37.5261L52 25.9279L46.7808 37.5261Z" fill="#0075ff"/>
</g>
<defs>
<clipPath id="clip0">
<rect width="64" height="64" fill="white" transform="translate(0 0.617371)"/>
</clipPath>
</defs>
</svg>
