<svg width="40" height="38" viewBox="0 0 40 38" fill="none" xmlns="http://www.w3.org/2000/svg">
<path d="M10 14C11.3261 14 12.5979 13.4732 13.5355 12.5355C14.4732 11.5979 15 10.3261 15 9C15 7.67392 14.4732 6.40215 13.5355 5.46447C12.5979 4.52678 11.3261 4 10 4C8.67392 4 7.40215 4.52678 6.46447 5.46447C5.52678 6.40215 5 7.67392 5 9C5 10.3261 5.52678 11.5979 6.46447 12.5355C7.40215 13.4732 8.67392 14 10 14ZM10 18C8.8181 18 7.64778 17.7672 6.55585 17.3149C5.46392 16.8626 4.47177 16.1997 3.63604 15.364C2.80031 14.5282 2.13738 13.5361 1.68508 12.4442C1.23279 11.3522 1 10.1819 1 9C1 7.8181 1.23279 6.64778 1.68508 5.55585C2.13738 4.46392 2.80031 3.47177 3.63604 2.63604C4.47177 1.80031 5.46392 1.13738 6.55585 0.685084C7.64778 0.232792 8.8181 -1.76116e-08 10 0C12.3869 3.55683e-08 14.6761 0.948211 16.364 2.63604C18.0518 4.32387 19 6.61305 19 9C19 11.3869 18.0518 13.6761 16.364 15.364C14.6761 17.0518 12.3869 18 10 18ZM31 22C32.0609 22 33.0783 21.5786 33.8284 20.8284C34.5786 20.0783 35 19.0609 35 18C35 16.9391 34.5786 15.9217 33.8284 15.1716C33.0783 14.4214 32.0609 14 31 14C29.9391 14 28.9217 14.4214 28.1716 15.1716C27.4214 15.9217 27 16.9391 27 18C27 19.0609 27.4214 20.0783 28.1716 20.8284C28.9217 21.5786 29.9391 22 31 22ZM31 26C28.8783 26 26.8434 25.1571 25.3431 23.6569C23.8429 22.1566 23 20.1217 23 18C23 15.8783 23.8429 13.8434 25.3431 12.3431C26.8434 10.8429 28.8783 10 31 10C33.1217 10 35.1566 10.8429 36.6569 12.3431C38.1571 13.8434 39 15.8783 39 18C39 20.1217 38.1571 22.1566 36.6569 23.6569C35.1566 25.1571 33.1217 26 31 26ZM36 38V37C36 35.6739 35.4732 34.4021 34.5355 33.4645C33.5979 32.5268 32.3261 32 31 32C29.6739 32 28.4021 32.5268 27.4645 33.4645C26.5268 34.4021 26 35.6739 26 37V38H22V37C22 35.8181 22.2328 34.6478 22.6851 33.5558C23.1374 32.4639 23.8003 31.4718 24.636 30.636C25.4718 29.8003 26.4639 29.1374 27.5558 28.6851C28.6478 28.2328 29.8181 28 31 28C32.1819 28 33.3522 28.2328 34.4442 28.6851C35.5361 29.1374 36.5282 29.8003 37.364 30.636C38.1997 31.4718 38.8626 32.4639 39.3149 33.5558C39.7672 34.6478 40 35.8181 40 37V38H36ZM16 38V30C16 28.4087 15.3679 26.8826 14.2426 25.7574C13.1174 24.6321 11.5913 24 10 24C8.4087 24 6.88258 24.6321 5.75736 25.7574C4.63214 26.8826 4 28.4087 4 30V38H0V30C0 27.3478 1.05357 24.8043 2.92893 22.9289C4.8043 21.0536 7.34784 20 10 20C12.6522 20 15.1957 21.0536 17.0711 22.9289C18.9464 24.8043 20 27.3478 20 30V38H16Z" fill="#45C8F1"/>
</svg>
