<svg width="64" height="65" viewBox="0 0 64 65" fill="none" xmlns="http://www.w3.org/2000/svg">
<path fill-rule="evenodd" clip-rule="evenodd" d="M22 14.6174C19.8782 14.6174 17.8434 15.4602 16.3431 16.9605C14.8428 18.4608 14 20.4956 14 22.6174C14 24.7391 14.8428 26.7739 16.3431 28.2742C17.8434 29.7745 19.8782 30.6174 22 30.6174C24.1217 30.6174 26.1565 29.7745 27.6568 28.2742C29.1571 26.7739 30 24.7391 30 22.6174C30 20.4956 29.1571 18.4608 27.6568 16.9605C26.1565 15.4602 24.1217 14.6174 22 14.6174ZM7.99996 22.6174C7.99968 20.2969 8.5762 18.0127 9.67768 15.9702C10.7792 13.9278 12.371 12.1912 14.3102 10.9166C16.2493 9.64203 18.4748 8.86943 20.7866 8.66835C23.0984 8.46723 25.4239 8.84391 27.554 9.76447C29.6841 10.6851 31.552 12.1207 32.9896 13.9422C34.4272 15.7637 35.3895 17.9141 35.79 20.1997C36.1904 22.4855 36.0164 24.8349 35.2836 27.0366C34.5508 29.2384 33.2822 31.2235 31.592 32.8134C34.7794 34.3597 37.5468 36.6521 39.6595 39.4959C41.7724 42.3398 43.168 45.6514 43.728 49.1494C43.8528 49.9354 43.66 50.739 43.192 51.383C42.7244 52.027 42.02 52.4586 41.234 52.5834C40.448 52.7082 39.6444 52.5154 39.0004 52.0474C38.3564 51.5798 37.9246 50.8754 37.8 50.0894C37.1947 46.335 35.2722 42.9186 32.377 40.4527C29.4817 37.9868 25.803 36.6325 22 36.6325C18.197 36.6325 14.5182 37.9868 11.623 40.4527C8.72776 42.9186 6.80524 46.335 6.19996 50.0894C6.138 50.4786 5.99992 50.8518 5.79372 51.1878C5.58748 51.5238 5.31712 51.8158 4.99808 52.047C4.679 52.2786 4.31748 52.4446 3.93417 52.5362C3.55084 52.6282 3.1532 52.6434 2.76396 52.5814C2.37473 52.5194 2.00151 52.3814 1.66562 52.175C1.32973 51.969 1.03775 51.6986 0.806348 51.3794C0.574944 51.0606 0.408648 50.699 0.31696 50.3154C0.225271 49.9322 0.209982 49.5346 0.271966 49.1454C0.833304 45.6486 2.22946 42.339 4.34208 39.4964C6.45472 36.6541 9.22152 34.363 12.408 32.8174C11.0141 31.5095 9.9036 29.9294 9.1454 28.1749C8.38716 26.4203 7.99728 24.5287 7.99996 22.6174ZM44 16.6174C43.2044 16.6174 42.4412 16.9334 41.8788 17.4961C41.316 18.0587 41 18.8217 41 19.6174C41 20.413 41.316 21.1761 41.8788 21.7387C42.4412 22.3013 43.2044 22.6174 44 22.6174C45.3532 22.6175 46.6668 23.0751 47.7276 23.916C48.788 24.7569 49.5332 25.9315 49.8416 27.2493C50.15 28.5671 50.004 29.9505 49.4272 31.1747C48.8504 32.3991 47.8768 33.3924 46.664 33.9934C46.164 34.2421 45.7432 34.6255 45.4492 35.1004C45.1552 35.5753 44.9996 36.1228 45 36.6814V38.0894C44.9992 38.7632 45.2252 39.4177 45.6416 39.9475C46.058 40.4772 46.6408 40.8514 47.296 41.0094C52.096 42.1654 55.944 45.8094 57.384 50.4974C57.498 50.8754 57.686 51.2274 57.9364 51.533C58.1872 51.8382 58.4956 52.0914 58.8444 52.2774C59.1928 52.463 59.5748 52.5782 59.968 52.6162C60.3612 52.6542 60.758 52.6138 61.136 52.4982C61.5136 52.3822 61.8648 52.193 62.1688 51.941C62.4732 51.689 62.7248 51.3794 62.9092 51.0298C63.0936 50.6806 63.2072 50.2982 63.2432 49.9046C63.2796 49.5114 63.2376 49.1146 63.12 48.7374C62.3192 46.1398 60.9984 43.7322 59.238 41.6614C57.4776 39.5901 55.3144 37.8985 52.88 36.6894C54.4436 34.9691 55.4744 32.8317 55.846 30.5368C56.218 28.2419 55.9152 25.8884 54.9748 23.7624C54.034 21.6363 52.496 19.8293 50.548 18.5609C48.5996 17.2924 46.3248 16.6172 44 16.6174Z" fill="#45C8F1"/>
</svg>
