<svg width="64" height="65" viewBox="0 0 64 65" fill="none" xmlns="http://www.w3.org/2000/svg">
<g clip-path="url(#clip0)">
<path fill-rule="evenodd" clip-rule="evenodd" d="M14.548 9.78137C14.8283 9.41916 15.1878 9.12594 15.599 8.92417C16.0101 8.72241 16.462 8.61746 16.92 8.61737H47.08C47.538 8.61746 47.9899 8.72241 48.4011 8.92417C48.8122 9.12594 49.1717 9.41916 49.452 9.78137L63.372 27.7814C63.8249 28.3659 64.046 29.097 63.9928 29.8345C63.9397 30.572 63.616 31.2639 63.084 31.7774L34.084 59.7774C33.5247 60.3175 32.7775 60.6194 32 60.6194C31.2225 60.6194 30.4753 60.3175 29.916 59.7774L0.916015 31.7774C0.384005 31.2639 0.0603691 30.572 0.00721654 29.8345C-0.0459361 29.097 0.175139 28.3659 0.628015 27.7814L14.548 9.78137ZM18.392 14.6174L7.01602 29.3254L32 53.4454L56.984 29.3254L45.608 14.6174H18.392Z" fill="#45C8F1"/>
</g>
<defs>
<clipPath id="clip0">
<rect width="64" height="64" fill="white" transform="translate(0 0.617371)"/>
</clipPath>
</defs>
</svg>
