<svg width="64" height="65" viewBox="0 0 64 65" fill="none" xmlns="http://www.w3.org/2000/svg">
<path fill-rule="evenodd" clip-rule="evenodd" d="M46 28.6173C46 30.9811 45.5344 33.3218 44.6296 35.5056C43.7252 37.6895 42.3992 39.6738 40.728 41.3453C39.0564 43.0165 37.0721 44.3425 34.8882 45.2473C32.7044 46.1517 30.3638 46.6173 28 46.6173C25.6362 46.6173 23.2955 46.1517 21.1116 45.2473C18.9278 44.3425 16.9435 43.0165 15.272 41.3453C13.6006 39.6738 12.2747 37.6895 11.3701 35.5056C10.4655 33.3218 9.99996 30.9811 9.99996 28.6173C9.99996 23.8434 11.8964 19.2651 15.272 15.8894C18.6477 12.5137 23.226 10.6173 28 10.6173C32.7738 10.6173 37.3522 12.5137 40.728 15.8894C44.1036 19.2651 46 23.8434 46 28.6173ZM42.72 47.5773C37.8975 51.3213 31.8294 53.0865 25.7512 52.5137C19.6729 51.9413 14.0413 49.0737 10.003 44.4949C5.96456 39.9162 3.82296 33.9705 4.01408 27.8683C4.20524 21.7661 6.71476 15.9661 11.0318 11.6491C15.3488 7.33215 21.1488 4.82263 27.251 4.63147C33.3532 4.44033 39.2988 6.58195 43.8776 10.6203C48.4564 14.6587 51.324 20.2903 51.8964 26.3685C52.4692 32.4468 50.704 38.5148 46.96 43.3373L59.12 55.4973C59.4148 55.7721 59.6512 56.1033 59.8152 56.4713C59.9792 56.8393 60.0672 57.2365 60.0744 57.6393C60.0816 58.0421 60.0072 58.4421 59.8564 58.8157C59.7056 59.1893 59.4808 59.5285 59.196 59.8133C58.9112 60.0985 58.572 60.3229 58.1984 60.4737C57.8248 60.6245 57.4248 60.6989 57.022 60.6917C56.6192 60.6845 56.2216 60.5965 55.854 60.4325C55.486 60.2685 55.1548 60.0321 54.88 59.7373L42.72 47.5773Z" fill="#0075ff"/>
</svg>
