<svg width="64" height="65" viewBox="0 0 64 65" fill="none" xmlns="http://www.w3.org/2000/svg">
<g clip-path="url(#clip0)">
<path fill-rule="evenodd" clip-rule="evenodd" d="M34.1334 1.14962C32.7458 0.70558 31.2542 0.705578 29.8666 1.14962L8.86656 7.86961C5.96732 8.79737 4 11.4925 4 14.5366V28.6168C4 34.881 5.27692 41.3466 9.2128 47.3454C13.1452 53.3394 19.5534 58.5958 29.3403 62.7642C31.0364 63.4866 32.9636 63.4866 34.6597 62.7642C44.4464 58.5958 50.8548 53.3394 54.7872 47.3454C58.7232 41.3466 60 34.881 60 28.6168V14.5366C60 11.4925 58.0328 8.79737 55.1336 7.86961L34.1334 1.14962ZM31.6952 6.86417C31.8934 6.80073 32.1066 6.80073 32.3048 6.86417L53.3048 13.5842C53.7188 13.7167 54 14.1017 54 14.5366V28.6168C54 34.0501 52.9012 39.2821 49.7704 44.0542C46.6364 48.8314 41.2864 53.4202 32.3085 57.2442C32.1146 57.3266 31.8854 57.3266 31.6915 57.2442C22.7135 53.4202 17.3638 48.8314 14.2295 44.0542C11.0986 39.2821 10 34.0501 10 28.6168V14.5366C10 14.1017 10.281 13.7167 10.6952 13.5842L31.6952 6.86417ZM45.1212 25.7382C46.2928 24.5666 46.2928 22.6671 45.1212 21.4956C43.9496 20.324 42.0504 20.324 40.8788 21.4956L29 33.3743L25.1213 29.4956C23.9498 28.324 22.0502 28.324 20.8787 29.4956C19.7071 30.6671 19.7071 32.5666 20.8787 33.7382L26.8787 39.7382C28.0502 40.9098 29.9498 40.9098 31.1213 39.7382L45.1212 25.7382Z" fill="#45C8F1"/>
</g>
<defs>
<clipPath id="clip0">
<rect width="64" height="64" fill="white" transform="translate(0 0.617371)"/>
</clipPath>
</defs>
</svg>
