<svg width="32" height="32" viewBox="0 0 32 32" fill="none" xmlns="http://www.w3.org/2000/svg">
<path fill-rule="evenodd" clip-rule="evenodd" d="M3 16C3 12.5522 4.36964 9.24558 6.80762 6.80762C9.24558 4.36964 12.5522 3 16 3C19.4478 3 22.7544 4.36964 25.1924 6.80762C27.6304 9.24558 29 12.5522 29 16C29 19.4478 27.6304 22.7544 25.1924 25.1924C22.7544 27.6304 19.4478 29 16 29C12.5522 29 9.24558 27.6304 6.80762 25.1924C4.36964 22.7544 3 19.4478 3 16ZM16 0C11.7565 0 7.68688 1.68571 4.6863 4.6863C1.68571 7.68688 0 11.7565 0 16C0 20.2434 1.68571 24.3132 4.6863 27.3138C7.68688 30.3142 11.7565 32 16 32C20.2434 32 24.3132 30.3142 27.3138 27.3138C30.3142 24.3132 32 20.2434 32 16C32 11.7565 30.3142 7.68688 27.3138 4.6863C24.3132 1.68571 20.2434 0 16 0ZM10 16C10.5304 16 11.0391 15.7893 11.4142 15.4142C11.7893 15.0391 12 14.5304 12 14C12 13.4696 11.7893 12.9609 11.4142 12.5858C11.0391 12.2107 10.5304 12 10 12C9.46956 12 8.96086 12.2107 8.58578 12.5858C8.21072 12.9609 8 13.4696 8 14C8 14.5304 8.21072 15.0391 8.58578 15.4142C8.96086 15.7893 9.46956 16 10 16ZM24 14C24 14.5304 23.7892 15.0391 23.4142 15.4142C23.0392 15.7893 22.5304 16 22 16C21.4696 16 20.9608 15.7893 20.5858 15.4142C20.2108 15.0391 20 14.5304 20 14C20 13.4696 20.2108 12.9609 20.5858 12.5858C20.9608 12.2107 21.4696 12 22 12C22.5304 12 23.0392 12.2107 23.4142 12.5858C23.7892 12.9609 24 13.4696 24 14ZM10.64 19.272C10.9627 19.0461 11.3613 18.9561 11.7497 19.0216C12.1382 19.0871 12.4852 19.3028 12.716 19.622L12.73 19.64C12.9357 19.8759 13.171 20.0842 13.43 20.26C13.958 20.616 14.796 21 16 21C17.204 21 18.04 20.616 18.57 20.258C18.829 20.0822 19.0643 19.8739 19.27 19.638L19.284 19.622C19.5147 19.2979 19.8648 19.0787 20.257 19.0127C20.6494 18.9467 21.052 19.0393 21.376 19.27C21.7 19.5007 21.9192 19.8508 21.9852 20.243C22.0512 20.6354 21.9588 21.038 21.728 21.362L20.5 20.5C21.728 21.36 21.728 21.362 21.726 21.362V21.364L21.724 21.368L21.72 21.374L21.71 21.388L21.682 21.426C21.5696 21.5766 21.4466 21.7188 21.314 21.852C20.9926 22.1848 20.6374 22.483 20.254 22.742C18.9944 23.5788 17.5121 24.0172 16 24C14.108 24 12.696 23.384 11.748 22.74C11.2464 22.4006 10.7935 21.9942 10.402 21.532C10.3734 21.4972 10.3454 21.4618 10.318 21.426L10.29 21.386L10.28 21.374L10.276 21.368V21.364H10.274L11.5 20.5L10.272 21.36C10.0439 21.0344 9.95436 20.6318 10.023 20.2402C10.0916 19.8488 10.3128 19.5005 10.638 19.272H10.64Z" fill="#45C8F1"/>
</svg>
