<svg width="32" height="32" viewBox="0 0 32 32" fill="none" xmlns="http://www.w3.org/2000/svg">
<path fill-rule="evenodd" clip-rule="evenodd" d="M16 0.5C16.2801 0.49982 16.5545 0.578028 16.7924 0.725774C17.0303 0.87352 17.2221 1.0849 17.346 1.336L21.11 8.966L29.53 10.19C29.807 10.2302 30.0672 10.3471 30.281 10.5274C30.495 10.7078 30.6544 10.9444 30.7408 11.2105C30.8274 11.4766 30.8378 11.7616 30.7708 12.0333C30.704 12.305 30.5624 12.5526 30.362 12.748L24.27 18.688L25.708 27.072C25.7554 27.3478 25.7248 27.6314 25.6194 27.8908C25.514 28.1502 25.3382 28.3748 25.1118 28.5394C24.8854 28.704 24.6174 28.802 24.3382 28.8222C24.059 28.8424 23.7798 28.7842 23.532 28.654L16 24.694L8.46802 28.654C8.2204 28.784 7.94136 28.8422 7.6624 28.822C7.38346 28.8018 7.1157 28.704 6.88938 28.5398C6.66308 28.3754 6.4872 28.151 6.38166 27.892C6.2761 27.633 6.24504 27.3498 6.29202 27.074L7.73202 18.686L1.63602 12.748C1.43516 12.5526 1.29302 12.3049 1.22573 12.0329C1.15843 11.7609 1.16867 11.4755 1.25527 11.2091C1.34188 10.9426 1.50139 10.7057 1.71574 10.5252C1.93008 10.3448 2.19068 10.2279 2.46802 10.188L10.888 8.966L14.654 1.336C14.778 1.0849 14.9698 0.87352 15.2076 0.725774C15.4455 0.578028 15.72 0.49982 16 0.5ZM16 5.39L13.23 11C13.1225 11.2178 12.9636 11.4062 12.7671 11.5491C12.5706 11.6919 12.3424 11.7849 12.102 11.82L5.90802 12.72L10.388 17.088C10.5623 17.2577 10.6927 17.4673 10.768 17.6987C10.8433 17.93 10.8611 18.1762 10.82 18.416L9.76402 24.584L15.302 21.672C15.5173 21.5588 15.7568 21.4998 16 21.4998C16.2432 21.4998 16.4828 21.5588 16.698 21.672L22.238 24.584L21.178 18.416C21.137 18.1762 21.1548 17.93 21.23 17.6987C21.3054 17.4673 21.4358 17.2577 21.61 17.088L26.09 12.722L19.898 11.822C19.6577 11.7869 19.4294 11.6939 19.2329 11.5511C19.0364 11.4082 18.8776 11.2198 18.77 11.002L16 5.388V5.39Z" fill="#0075ff"/>
</svg>
