<svg width="32" height="32" viewBox="0 0 32 32" fill="none" xmlns="http://www.w3.org/2000/svg">
<g clip-path="url(#clip0)">
<path fill-rule="evenodd" clip-rule="evenodd" d="M16 21C18.7614 21 21 18.7614 21 16C21 13.2386 18.7614 11 16 11C13.2386 11 11 13.2386 11 16C11 18.7614 13.2386 21 16 21ZM16 24C20.4183 24 24 20.4183 24 16C24 11.5817 20.4183 8 16 8C11.5817 8 8 11.5817 8 16C8 20.4183 11.5817 24 16 24Z" fill="#45C8F1"/>
<path fill-rule="evenodd" clip-rule="evenodd" d="M16 0C16.8284 0 17.5 0.671573 17.5 1.5V4.5C17.5 5.32843 16.8284 6 16 6C15.1716 6 14.5 5.32843 14.5 4.5V1.5C14.5 0.671573 15.1716 0 16 0ZM16 26C16.8284 26 17.5 26.6716 17.5 27.5V30.5C17.5 31.3284 16.8284 32 16 32C15.1716 32 14.5 31.3284 14.5 30.5V27.5C14.5 26.6716 15.1716 26 16 26Z" fill="#45C8F1"/>
<path fill-rule="evenodd" clip-rule="evenodd" d="M4.68658 4.68658C5.27237 4.1008 6.22212 4.1008 6.8079 4.68658L8.92922 6.8079C9.51501 7.39369 9.51501 8.34344 8.92922 8.92922C8.34344 9.51501 7.39369 9.51501 6.8079 8.92922L4.68658 6.8079C4.1008 6.22212 4.1008 5.27237 4.68658 4.68658ZM23.0714 23.0714C23.6571 22.4856 24.6069 22.4856 25.1927 23.0714L27.314 25.1927C27.8998 25.7785 27.8998 26.7282 27.314 27.314C26.7282 27.8998 25.7785 27.8998 25.1927 27.314L23.0714 25.1927C22.4856 24.6069 22.4856 23.6571 23.0714 23.0714Z" fill="#45C8F1"/>
<path fill-rule="evenodd" clip-rule="evenodd" d="M32 16C32 16.8284 31.3284 17.5 30.5 17.5H27.5C26.6716 17.5 26 16.8284 26 16C26 15.1716 26.6716 14.5 27.5 14.5H30.5C31.3284 14.5 32 15.1716 32 16ZM6 16C6 16.8284 5.32843 17.5 4.5 17.5H1.5C0.671574 17.5 -3.62117e-08 16.8284 0 16C3.62117e-08 15.1716 0.671574 14.5 1.5 14.5H4.5C5.32843 14.5 6 15.1716 6 16Z" fill="#45C8F1"/>
<path fill-rule="evenodd" clip-rule="evenodd" d="M27.3134 4.68658C27.8992 5.27237 27.8992 6.22212 27.3134 6.8079L25.1921 8.92922C24.6063 9.51501 23.6566 9.51501 23.0708 8.92922C22.485 8.34344 22.485 7.39369 23.0708 6.8079L25.1921 4.68658C25.7779 4.1008 26.7276 4.1008 27.3134 4.68658ZM8.92864 23.0714C9.51443 23.6571 9.51443 24.6069 8.92864 25.1927L6.80732 27.314C6.22154 27.8998 5.27179 27.8998 4.686 27.314C4.10022 26.7282 4.10022 25.7785 4.686 25.1927L6.80732 23.0714C7.39311 22.4856 8.34286 22.4856 8.92864 23.0714Z" fill="#45C8F1"/>
</g>
<defs>
<clipPath id="clip0">
<rect width="32" height="32" fill="white"/>
</clipPath>
</defs>
</svg>
