<svg width="32" height="32" viewBox="0 0 32 32" fill="none" xmlns="http://www.w3.org/2000/svg">
<path fill-rule="evenodd" clip-rule="evenodd" d="M17.6675 0.132179C14.9887 -0.17311 13 2.09576 12.9999 4.4981V5.49928C12.9999 8.15584 11.7065 9.74532 10.3649 10.7257C9.70848 11.2054 9.0443 11.5326 8.52784 11.7428C7.92172 10.7003 6.7927 9.99952 5.5 9.99952H3.5C1.567 9.99952 0 11.5665 0 13.4995V28.4996C0 30.4326 1.567 31.9996 3.5 31.9996H5.5C7.0494 31.9996 8.36366 30.9928 8.82426 29.5976C9.87324 29.7474 10.9589 30.055 12.2747 30.4276L12.2751 30.4278C12.5782 30.5136 12.8936 30.603 13.2235 30.6946C15.5314 31.3356 18.3052 31.9992 22 31.9992C25.4114 31.9992 27.9392 31.6946 29.443 29.7208C30.1492 28.7942 30.517 27.6368 30.7806 26.3766C31.0152 25.2548 31.1962 23.8892 31.4056 22.3096L31.4868 21.6976C31.985 17.9608 32.0168 15.0617 31.1096 13.066C30.6216 11.9928 29.8656 11.1808 28.8366 10.6657C27.848 10.1709 26.7062 9.99928 25.5 9.99928H22.6554L22.6854 9.7746V9.77458C22.8248 8.73812 23 7.43578 23 6.49928C23 4.6562 22.6974 3.06204 21.6888 1.90043C20.6662 0.72242 19.1944 0.306184 17.6675 0.132179ZM9 26.597C10.4106 26.774 11.7811 27.1652 13.1442 27.5544H13.1442C13.4385 27.6384 13.7325 27.7224 14.0264 27.804C16.2185 28.413 18.6947 28.9992 22 28.9992C25.5884 28.9992 26.5606 28.554 27.0568 27.9028C27.3506 27.517 27.6078 26.893 27.8442 25.7626C28.0544 24.7578 28.2192 23.5144 28.4332 21.9026L28.513 21.301C29.015 17.5377 28.892 15.4369 28.3786 14.3076C28.156 13.8183 27.8696 13.5365 27.4938 13.3485C27.0776 13.1402 26.4526 12.9993 25.5 12.9993H21.9992C20.6288 12.9993 19.41 11.8453 19.5889 10.3274C19.6339 9.94476 19.687 9.54948 19.7397 9.15656C19.8708 8.17966 19.9999 7.2173 19.9999 6.49928C19.9999 4.8821 19.7112 4.19856 19.4235 3.8672C19.1501 3.55222 18.6207 3.26022 17.3278 3.11288C16.7144 3.04298 15.9999 3.58692 15.9999 4.49812V5.49928C15.9999 9.34272 14.0434 11.7532 12.135 13.1479C11.1949 13.8349 10.2632 14.2816 9.56962 14.5573C9.35764 14.6415 9.16576 14.7107 9 14.7664V26.597ZM5.5 12.9995C5.77614 12.9995 6 13.2234 6 13.4995V27.9992V28.4996C6 28.7756 5.77614 28.9996 5.5 28.9996H3.5C3.22386 28.9996 3 28.7756 3 28.4996V13.4995C3 13.2234 3.22386 12.9995 3.5 12.9995H5.5Z" fill="#45C8F1"/>
</svg>
