<svg xmlns="http://www.w3.org/2000/svg" xmlns:xlink="http://www.w3.org/1999/xlink" width="64" height="64" version="1.1" viewBox="0 0 64 64"><title>Slice 2</title><desc>Created with Sketch.</desc><g id="Page-1" fill="none" fill-rule="evenodd" stroke="none" stroke-width="1"><g id="Fat-Raccoon_Final" transform="translate(4.000000, 7.000000)"><path id="Fill-4" fill="#828D8C" d="M54.4045549,11.3692349 C54.2391365,11.0300336 53.9981128,10.7200973 53.6386914,10.5222584 C53.2430742,10.3057651 52.8107537,10.2691409 52.4058338,10.3411913 L52.3770801,10.3257886 C46.2902582,11.3767651 40.1488042,16.0105772 36.4441424,23.1130973 C32.4529585,30.7665201 32.3952819,39.1702248 35.6464807,44.9210738 C42.1778012,44.3900235 48.996997,39.5997886 52.988181,31.9463658 C56.7078961,24.8209128 57.0067656,17.050943 54.4045549,11.3692349"/><path id="Fill-5" fill="#121716" d="M52.3649021,11.1251879 C46.3675549,12.2192919 40.541546,16.9403859 37.1310178,23.4798523 C33.5203976,30.4030168 33.1261335,38.4245638 36.0801543,44.0893289 C42.3687596,43.3590705 48.6922077,38.5027752 52.3013056,31.5797819 C55.7525964,24.9682651 56.288092,17.3516376 53.6994125,11.6990235 C53.5901484,11.4765403 53.4462107,11.3108758 53.2672611,11.2126409 C53.060911,11.0976342 52.7940089,11.0668289 52.5408071,11.1145772 C52.4802552,11.1236477 52.4195341,11.131349 52.3649021,11.1251879 Z M35.6464807,45.7066107 C35.369092,45.7066107 35.1111543,45.556349 34.9731365,45.3107617 C31.4491157,39.078151 31.7491691,30.4321107 35.7572671,22.7465134 C39.4708932,15.6255101 45.6350119,10.6925436 52.2466736,9.55103356 C52.3089169,9.53871141 52.3740356,9.53717114 52.4378012,9.54333221 C52.9851365,9.47727181 53.5356855,9.57396644 54.0072463,9.8317047 C54.4742404,10.0879027 54.841273,10.4883725 55.1005638,11.0223322 C57.8967774,17.1260738 57.3479199,25.2782013 53.6750564,32.3132919 C49.6672967,39.9971779 42.7828131,45.1295235 35.708724,45.7035302 C35.6874125,45.7050705 35.6676231,45.7066107 35.6464807,45.7066107 L35.6464807,45.7066107 Z"/><path id="Fill-6" fill="#121716" d="M51.5552315,14.7034027 C53.2506855,15.6285906 54.756365,16.7471678 56.022543,17.9715101 C55.8437626,15.5964161 55.3128338,13.3515604 54.4045549,11.3692349 C54.2391365,11.0300336 53.9981128,10.7200973 53.6386914,10.5222584 C53.2430742,10.3057651 52.8107537,10.2691409 52.4058338,10.3411913 L52.3770801,10.3257886 C50.2783976,10.6894631 48.1797151,11.5058054 46.168816,12.6717886 C47.9507003,13.0678087 49.7824807,13.7366275 51.5552315,14.7034027"/><path id="Fill-7" fill="#121716" d="M42.0367389,16.434151 C40.4172285,18.0452718 38.8719703,19.8679228 37.4510297,21.8995369 C40.450549,21.690745 43.7639911,22.4257953 46.7663858,24.2070302 C49.7522047,25.974745 51.9949941,28.5279966 53.2807923,31.2621443 C54.3287804,28.9851141 55.1249199,26.702094 55.701178,24.4649396 C54.1406973,22.4134732 52.1237092,20.5921913 49.6930059,19.1499866 C47.2181573,17.680057 44.6130712,16.7961141 42.0367389,16.434151"/><path id="Fill-8" fill="#121716" d="M34.3013145,26.0822215 C33.2763294,28.0890201 32.4133798,30.0961611 31.711451,32.0846477 C34.5061424,32.017047 37.4525519,32.7457651 40.0987389,34.3828993 C42.7736795,36.027906 43.9686499,38.5305 45.1878071,41.1051443 C47.597368,39.9282081 48.7755935,37.6758221 50.0583472,35.8160336 C48.5163027,33.0988289 46.2948249,30.6944698 43.3954362,28.908443 C40.5034896,27.1224161 37.3843887,26.2311141 34.3013145,26.0822215"/><path id="Fill-9" fill="#828D8C" d="M12.299822,4.10241946 C14.8397893,6.67090268 15.5205757,10.1493423 13.8192018,11.8693087 C12.1193501,13.5892752 8.6815905,12.9019732 6.1431454,10.3319497 C3.6047003,7.76346644 2.92374481,4.28502685 4.62359644,2.5650604 C6.32361721,0.84509396 9.76120772,1.53393624 12.299822,4.10241946"/><path id="Fill-10" fill="#121716" d="M10.616546,5.80715436 C11.8918576,7.09293624 12.2981306,8.77302685 11.5293917,9.54949329 C10.7560861,10.3304094 9.09851929,9.91915772 7.82489911,8.6302953 C6.55263205,7.34143289 6.14618991,5.66596309 6.91645104,4.88641611 C7.68840356,4.1055 9.34275668,4.51829195 10.616546,5.80715436"/><path id="Fill-11" fill="#121716" d="M7.10757864,2.40401678 C6.54789614,2.40401678 5.7578457,2.5282651 5.17262315,3.12041275 C3.80174777,4.50751007 4.49775668,7.55638591 6.69200297,9.77659732 C8.08706528,11.1881678 9.82192878,12.0305235 11.3338665,12.0305235 C11.8933798,12.0305235 12.6849525,11.9062752 13.2703442,11.3139564 C13.9041098,10.6726913 14.1239911,9.65833893 13.8890564,8.45692953 C13.6311187,7.14051342 12.8715134,5.79175168 11.7507953,4.65777181 C10.3557329,3.24620134 8.62086944,2.40401678 7.10757864,2.40401678 Z M11.3338665,13.6015973 C9.41853116,13.6015973 7.27282789,12.5874161 5.59411869,10.887302 C2.70843027,7.96746644 2.04117507,4.06716443 4.07473887,2.00953691 C4.83603561,1.23923154 5.8838546,0.832771812 7.10757864,0.832771812 C9.02274481,0.832771812 11.1684481,1.84695302 12.8486795,3.54706711 C14.1847122,4.89719799 15.0945134,6.53296309 15.4114807,8.15161409 C15.7511128,9.88390268 15.3796825,11.4014094 14.3682285,12.4248322 C13.6069318,13.1951376 12.5575905,13.6015973 11.3338665,13.6015973 L11.3338665,13.6015973 Z"/><path id="Fill-12" fill="#828D8C" d="M35.6464807,4.10241946 C33.1065134,6.67090268 32.4255579,10.1493423 34.1271009,11.8693087 C35.8269525,13.5892752 39.2647122,12.9019732 41.8031573,10.3319497 C44.3416024,7.76346644 45.0223887,4.28502685 43.3225371,2.5650604 C41.6226855,0.84509396 38.1849258,1.53393624 35.6464807,4.10241946"/><path id="Fill-13" fill="#121716" d="M37.3297567,5.80715436 C36.0544451,7.09293624 35.648003,8.77302685 36.4167418,9.54949329 C37.1900475,10.3304094 38.8476142,9.91915772 40.1214036,8.6302953 C41.3936706,7.34143289 41.8001128,5.66596309 41.0298516,4.88641611 C40.2578991,4.1055 38.603546,4.51829195 37.3297567,5.80715436"/><path id="Fill-14" fill="#121716" d="M36.1955074,4.65777181 C35.0747893,5.79175168 34.3150148,7.14051342 34.0572463,8.45692953 C33.8221424,9.65833893 34.0420237,10.6726913 34.6759585,11.3139564 C35.2613501,11.9062752 36.0529228,12.0305235 36.6124362,12.0305235 C38.1243739,12.0305235 39.8590682,11.1881678 41.2542997,9.77659732 C43.4483769,7.55638591 44.1445549,4.50751007 42.7736795,3.12041275 C42.1882878,2.5282651 41.3982374,2.40401678 40.838724,2.40401678 C39.3252641,2.40401678 37.5905697,3.24620134 36.1955074,4.65777181 Z M33.5780742,12.4248322 C32.5666202,11.4014094 32.1950208,9.88390268 32.534822,8.15161409 C32.8517893,6.53296309 33.7615905,4.89719799 35.097454,3.54706711 C36.7776855,1.84695302 38.9233887,0.832771812 40.838724,0.832771812 C42.0624481,0.832771812 43.1102671,1.23923154 43.8713947,2.00953691 C45.9051276,4.06716443 45.2377033,7.96746644 42.3520148,10.887302 C40.6733056,12.5874161 38.5277715,13.6015973 36.6124362,13.6015973 C35.3887122,13.6015973 34.3393709,13.1951376 33.5780742,12.4248322 L33.5780742,12.4248322 Z"/><path id="Fill-15" fill="#828D8C" d="M41.117635,10.4900839 C37.114273,4.90335906 30.948632,0.832771812 23.9731513,0.832771812 C16.9976706,0.832771812 10.8318605,4.90335906 6.82849852,10.4900839 C1.95778932,17.2840369 -0.864133531,26.9153356 2.0335638,35.0626711 C4.48727003,41.9642718 10.3783976,47.2087148 17.3053353,49.206443 C19.4708279,49.8324765 21.7212285,50.143953 23.9731513,50.143953 C26.224905,50.143953 28.4753056,49.8324765 30.6407982,49.206443 C37.5677359,47.2087148 43.4590326,41.9642718 45.9127389,35.0626711 C48.8106053,26.9153356 45.9885134,17.2840369 41.117635,10.4900839"/><path id="Fill-16" fill="#EDEDEA" d="M42.7719881,13.581745 C42.4945994,12.4662483 41.789457,11.4075705 41.1328576,10.4900839 C40.2957864,9.32084899 39.3587537,8.2252047 38.3442552,7.21256376 C34.7245015,5.45426174 30.5876884,5.45734228 27.4335757,7.60995302 C25.7897092,8.73315101 24.637362,10.3013154 23.9731513,12.0887114 C23.3089407,10.3013154 22.1564243,8.73315101 20.512727,7.60995302 C17.3584451,5.45734228 13.221632,5.45426174 9.60204748,7.21256376 C8.58754896,8.2252047 7.65034718,9.32084899 6.8134451,10.4900839 C6.15667656,11.4075705 5.45153412,12.4662483 5.1741454,13.581745 C4.8844095,14.7432785 4.46748071,16.3022013 4.52211276,17.4774262 C4.61158754,19.3892416 5.78067953,20.7979027 7.32441543,21.8090034 C7.70193472,22.0575 11.7403086,25.1845872 11.3641424,25.4070705 C11.6493116,25.2381544 12.0087329,25.0326141 12.4089169,24.8193725 L12.4089169,25.1768859 C13.8738338,24.3129664 16.0027923,23.2542886 17.4282997,23.419953 L17.4463976,23.4230336 C17.4874985,23.4276544 17.520819,23.4461376 17.5602285,23.4538389 C17.9529703,23.5580638 18.2971691,23.751453 18.5610267,24.0767919 C19.1706053,24.8270738 19.2252374,25.6939027 19.0129674,26.5362584 C19.1706053,26.4197114 19.3116677,26.2723591 19.464908,26.1481107 C19.4481632,26.7281074 19.3177567,27.168453 19.3177567,27.168453 L19.0523769,27.5458188 C20.6157329,27.8451443 22.2580772,28.0092685 23.9579288,28.0092685 L23.9670623,28.0092685 C23.9790712,28.0092685 23.9822849,28.0092685 23.9822849,28.0092685 C25.6880564,28.0092685 27.3304006,27.8451443 28.8939258,27.5458188 L28.628546,27.168453 C28.628546,27.168453 28.4981395,26.7281074 28.4813947,26.1481107 C28.6344659,26.2723591 28.7755282,26.4197114 28.9333353,26.5362584 C28.7210653,25.6939027 28.7755282,24.8270738 29.385276,24.0767919 C29.6489644,23.751453 29.9933323,23.5580638 30.3860742,23.4538389 C30.4254837,23.4461376 30.4589733,23.4276544 30.499905,23.4230336 L30.518003,23.419953 C31.9433412,23.2542886 34.0724688,24.3129664 35.5373858,25.1768859 L35.5373858,24.8193725 C35.9375697,25.0326141 36.2969911,25.2381544 36.5821602,25.4070705 C36.2059941,25.1845872 40.2441988,22.0575 40.6217181,21.8090034 C42.165454,20.7979027 43.3347151,19.3892416 43.4241899,17.4774262 C43.478822,16.3022013 43.061724,14.7432785 42.7719881,13.581745"/><path id="Fill-17" fill="#EDEDEA" d="M23.9731513,31.2114866 C18.0940326,31.2114866 13.3308961,37.1464832 13.3308961,44.468406 C13.3308961,45.9306342 13.5281128,47.331594 13.8784006,48.6464698 C14.5212997,48.8412282 15.1582789,49.0513893 15.8179228,49.206443 C18.4669852,49.8324765 21.2193917,50.143953 23.9731513,50.143953 C26.726911,50.143953 29.4793175,49.8324765 32.128549,49.206443 C32.7880237,49.0513893 33.425003,48.8412282 34.0679021,48.6464698 C34.4181899,47.331594 34.6154065,45.9306342 34.6154065,44.468406 C34.6154065,37.1464832 29.85227,31.2114866 23.9731513,31.2114866"/><path id="Fill-18" fill="#121716" d="M25.1740415,19.1958523 C24.9118754,19.2819362 24.637362,19.3248926 24.3628487,19.3478255 C24.3841602,19.3002483 24.4234006,19.263453 24.4234006,19.2097148 L24.4234006,18.1448758 C24.4721128,18.1065403 24.5252226,18.0805268 24.5675074,18.0283289 L25.3924006,17.0187685 C25.7185015,16.6198389 25.5654303,16.2929597 25.0527685,16.2929597 L22.8935341,16.2929597 C22.3808724,16.2929597 22.2278012,16.6198389 22.5537329,17.0187685 L23.3786261,18.0283289 C23.4515252,18.1188624 23.5394777,18.1816711 23.6289525,18.2307886 L23.6289525,19.2097148 C23.6289525,19.263453 23.6668398,19.3002483 23.6866291,19.3478255 C23.4119466,19.3231812 23.1391246,19.2802248 22.8783116,19.1958523 C22.5415549,19.0870067 21.845546,18.6788356 21.7499822,19.3125705 C21.7499822,19.350906 21.7499822,19.3892416 21.7499822,19.4275772 C21.7499822,20.6965872 22.7631276,21.7246309 24.0232166,21.7277114 L24.0291365,21.7277114 C25.2893947,21.7246309 26.3022018,20.6965872 26.3022018,19.4275772 C26.3022018,19.3892416 26.3022018,19.350906 26.3022018,19.3125705 C26.2068071,18.6788356 25.5107982,19.0870067 25.1740415,19.1958523"/><path id="Fill-19" fill="#121716" d="M23.9731513,1.61830872 C17.727,1.61830872 11.706819,5.02007718 7.45786647,10.9518221 C2.10798516,18.413396 0.265548961,27.7729228 2.76458457,34.7972315 C5.06031454,41.2569463 10.713632,46.4892383 17.5177745,48.4517114 C21.6848635,49.6544899 26.2629614,49.6544899 30.4270059,48.4517114 C37.2326706,46.4892383 42.885819,41.2569463 45.181549,34.7972315 C47.6807537,27.7729228 45.8383175,18.413396 40.4899585,10.9518221 C36.2393145,5.02007718 30.2193027,1.61830872 23.9731513,1.61830872 Z M23.9731513,50.9294899 C21.6287092,50.9294899 19.3131899,50.6043221 17.091543,49.9613456 C9.70522255,47.8316678 3.80327003,42.3618322 1.30271217,35.3282819 C-1.93478635,26.2263221 1.71067656,16.2914195 6.20082196,10.0281745 C10.7454303,3.68500671 17.2236409,0.0472348993 23.9731513,0.0472348993 C30.7226617,0.0472348993 37.2008724,3.68500671 41.747003,10.0281745 C46.2356261,16.2914195 49.881089,26.2263221 46.6435905,35.3282819 C44.1430326,42.3618322 38.2410801,47.8316678 30.8532374,49.9613456 C28.6331128,50.6043221 26.3174243,50.9294899 23.9731513,50.9294899 L23.9731513,50.9294899 Z"/><path id="Fill-20" fill="#121716" d="M17.7346113,10.0971443 C17.0795341,9.73963087 16.3486825,9.55856376 15.5615074,9.55856376 C13.3657389,9.55856376 11.1791039,11.4245134 10.1069288,12.6794899 C8.30407122,14.7893154 6.6360178,19.0332685 10.0842641,20.4893356 C11.330822,21.0157651 12.7045727,21.1752685 14.0451721,21.1997416 C15.7572018,21.2334564 17.5874599,21.1937517 18.9387151,19.9723188 C20.3094214,18.7325738 20.5308249,16.7072919 20.4034629,14.9488188 C20.2382136,12.6656275 19.2903561,10.9410403 17.7346113,10.0971443"/><path id="Fill-21" fill="#FFFFFE" d="M17.8164748,13.7643523 C17.7921187,13.4636577 17.4661869,13.1321577 17.2750593,12.9603322 C16.848997,12.5843356 16.3045371,12.3757148 15.7389347,12.3757148 C15.5601543,12.3757148 15.376638,12.3955671 15.1900772,12.4356141 C14.4683591,12.5889564 13.8616558,13.029302 13.5265905,13.6445537 C13.3992285,13.8778188 13.1823917,14.3428087 13.2383769,14.6082483 C13.2853976,14.8291913 13.4917478,14.9809933 13.7024955,15.0193289 C13.9829288,15.0715268 14.0921929,14.9380369 14.2256439,14.7080235 C14.2513531,14.6633557 14.2785846,14.6173188 14.3090297,14.5683725 C14.7153027,13.931557 15.2886855,13.581745 15.9239733,13.581745 C16.2803501,13.581745 16.4971869,13.6859698 16.8202433,13.9024631 C17.0325134,14.0451946 17.2645727,14.3320268 17.5526172,14.1785134 C17.7603205,14.0665872 17.8286528,13.9207752 17.8164748,13.7643523"/><path id="Fill-22" fill="#121716" d="M30.2116914,10.0971443 C30.8667685,9.73963087 31.5976202,9.55856376 32.3846261,9.55856376 C34.5805638,9.55856376 36.7670297,11.4245134 37.8392047,12.6794899 C39.6422315,14.7893154 41.3102849,19.0332685 37.8620386,20.4893356 C36.6154807,21.0157651 35.2415608,21.1752685 33.9011306,21.1997416 C32.1891009,21.2334564 30.3588427,21.1937517 29.0075875,19.9723188 C27.6367122,18.7325738 27.4153086,16.7072919 27.5426706,14.9488188 C27.708089,12.6656275 28.6557774,10.9410403 30.2116914,10.0971443"/><path id="Fill-23" fill="#FFFFFE" d="M30.1296588,13.7643523 C30.1540148,13.4636577 30.4801157,13.1321577 30.6710742,12.9603322 C31.0973056,12.5843356 31.6415964,12.3757148 32.2071988,12.3757148 C32.3861484,12.3757148 32.5696647,12.3955671 32.7562255,12.4356141 C33.4779436,12.5889564 34.0846469,13.029302 34.4197122,13.6445537 C34.5470742,13.8778188 34.763911,14.3428087 34.7079258,14.6082483 C34.6607359,14.8291913 34.454724,14.9809933 34.243638,15.0193289 C33.9632047,15.0715268 33.8541098,14.9380369 33.7206588,14.7080235 C33.6947804,14.6633557 33.667549,14.6173188 33.637273,14.5683725 C33.2308309,13.931557 32.6577864,13.581745 32.0223294,13.581745 C31.6657834,13.581745 31.4491157,13.6859698 31.1260593,13.9024631 C30.9137893,14.0451946 30.68173,14.3320268 30.3936855,14.1785134 C30.1858131,14.0665872 30.1176499,13.9207752 30.1296588,13.7643523"/><path id="Fill-24" fill="#121716" d="M8.56336202,28.0691678 C8.35718101,28.0691678 8.15083086,27.9863356 7.99775964,27.8222114 C7.70345697,27.5061141 7.71867953,27.0089497 8.03108012,26.7111644 C8.20850742,26.5424195 9.80078635,25.0418557 10.9304688,24.490953 C11.3140772,24.3054362 11.7797181,24.4664799 11.9661098,24.8577081 C12.1526706,25.247396 11.9904659,25.7170067 11.6036439,25.905604 C10.8303383,26.2831409 9.53083976,27.441594 9.09564392,27.8559262 C8.94544807,27.9986577 8.75432047,28.0691678 8.56336202,28.0691678"/><path id="Fill-25" fill="#121716" d="M17.8393086,23.0824631 C15.6964807,21.7783691 12.3588516,23.5948591 11.2034599,24.3083456 C10.2510356,23.8358255 9.41108902,23.1452718 8.64218101,22.4134732 C7.71563501,21.5327819 7.13328783,20.9787987 6.51474481,19.8218859 C6.36911573,19.607104 6.14162315,19.4476007 5.86406528,19.4476007 C4.95578635,19.4476007 4.9710089,20.4203658 5.33178338,20.9942013 C6.44489021,22.761745 7.71563501,23.9065067 9.43375371,25.0755705 C9.91749258,25.4039899 10.4284629,25.7077651 10.9729228,25.9256275 C11.2093798,26.0207819 11.4838932,25.9963087 11.6976855,25.8520369 C12.6440208,25.2152215 15.6450623,23.5857886 17.0416469,24.4296846 C17.720911,24.8423054 18.0833769,25.410151 18.1182196,26.1174765 C18.1804629,27.3924765 17.1705312,28.9421577 15.4160475,30.2647349 C13.614543,31.6227383 10.4345519,32.0047248 7.68535905,31.1960839 C5.72756973,30.6207081 3.12096142,29.206057 1.816727,25.7430201 C1.66517804,25.334849 1.21171513,25.1323893 0.815928783,25.2888121 C0.414053412,25.4423255 0.213961424,25.8965336 0.367032641,26.3016242 C1.56200297,29.4762886 4.00657567,31.7500671 7.25168546,32.7045201 C8.36462315,33.0327685 9.52779525,33.1922718 10.665089,33.1922718 C12.8304125,33.1922718 14.9003412,32.6139866 16.3439466,31.5260436 C18.5473264,29.8642651 19.7590415,27.8651678 19.6680445,26.0392651 C19.6073234,24.8116711 18.9583353,23.7622349 17.8393086,23.0824631"/><path id="Fill-26" fill="#121716" d="M39.3829407,28.0691678 C39.5891217,28.0691678 39.7954718,27.9863356 39.948543,27.8222114 C40.2426766,27.5061141 40.227454,27.0089497 39.9152226,26.7111644 C39.7377953,26.5424195 38.1455163,25.0418557 37.0158338,24.490953 C36.6322255,24.3054362 36.1667537,24.4664799 35.9800237,24.8577081 C35.793632,25.247396 35.9558368,25.7170067 36.3424896,25.905604 C37.1159644,26.2831409 38.4154629,27.441594 38.8506588,27.8559262 C39.0006855,27.9986577 39.1918131,28.0691678 39.3829407,28.0691678"/><path id="Fill-27" fill="#121716" d="M30.1069941,23.0824631 C32.2496528,21.7783691 35.587451,23.5948591 36.7428427,24.3083456 C37.6952671,23.8358255 38.5353828,23.1452718 39.3039525,22.4134732 C40.2306677,21.5327819 40.8128457,20.9787987 41.431727,19.8218859 C41.5771869,19.607104 41.8046795,19.4476007 42.0820682,19.4476007 C42.9903472,19.4476007 42.9754629,20.4203658 42.6145193,20.9942013 C41.5014125,22.761745 40.2306677,23.9065067 38.512549,25.0755705 C38.0286409,25.4039899 37.5178398,25.7077651 36.9733798,25.9256275 C36.7367537,26.0207819 36.4624095,25.9963087 36.2484481,25.8520369 C35.3022819,25.2152215 32.3012404,23.5857886 30.9046558,24.4296846 C30.2253917,24.8423054 29.8629258,25.410151 29.8279139,26.1174765 C29.7658398,27.3924765 30.7757715,28.9421577 32.5302552,30.2647349 C34.3317596,31.6227383 37.5117507,32.0047248 40.2609436,31.1960839 C42.2187329,30.6207081 44.8253412,29.206057 46.1294065,25.7430201 C46.2809555,25.334849 46.7344184,25.1323893 47.1303739,25.2888121 C47.5320801,25.4423255 47.7323412,25.8965336 47.5791009,26.3016242 C46.3842997,29.4762886 43.9398961,31.7500671 40.6946172,32.7045201 C39.5815104,33.0327685 38.4185074,33.1922718 37.2812136,33.1922718 C35.1157211,33.1922718 33.0457923,32.6139866 31.6021869,31.5260436 C29.3988071,29.8642651 28.1872611,27.8651678 28.2782582,26.0392651 C28.3388101,24.8116711 28.9877982,23.7622349 30.1069941,23.0824631"/><path id="Fill-28" fill="#828D8C" d="M12.3436291,39.0827718 C14.8883323,41.6574161 15.4524125,45.2662651 13.5993205,47.139745 C11.7462285,49.0147651 8.17958457,48.4484597 5.63505045,45.8722752 C3.09051632,43.2945503 2.5264362,39.6887819 4.3825727,37.8137617 C6.23262018,35.9373725 9.79926409,36.5065872 12.3436291,39.0827718"/><path id="Fill-29" fill="#EDEDEA" d="M11.4869377,42.0686678 C12.8850445,43.4863993 13.1155816,45.551557 11.9980772,46.6838255 C10.8788813,47.8164362 8.83466172,47.5862517 7.43503264,46.1685201 C6.03388131,44.7492483 5.80351335,42.6823792 6.92254006,41.5499396 C8.04156677,40.4176711 10.0857864,40.6507651 11.4869377,42.0686678"/><path id="Fill-30" fill="#121716" d="M7.2334184,37.4930436 C6.29164985,37.4930436 5.49703264,37.7954497 4.93143027,38.3692852 C4.21427893,39.0935537 3.92758754,40.1905671 4.12632641,41.4578658 C4.33707418,42.8158691 5.06792582,44.1860235 6.18407715,45.3169228 C8.32521365,47.4864765 11.5657567,48.089406 13.0504629,46.5842215 C13.766092,45.859953 14.0512611,44.7644799 13.8540445,43.4970101 C13.6417745,42.1376376 12.9109228,40.7674832 11.7947715,39.6382953 C10.4678724,38.2956946 8.76345401,37.4930436 7.2334184,37.4930436 Z M10.7454303,49.0315369 C8.78324332,49.0315369 6.72092582,48.0817047 5.08619288,46.4276275 C3.73950445,45.0651745 2.85405935,43.3850839 2.59172404,41.7019128 C2.31416617,39.9251275 2.75545104,38.3463523 3.83371513,37.2584094 C4.69497329,36.3838792 5.8701543,35.9219698 7.2334184,35.9219698 C9.19408309,35.9219698 11.258092,36.8716309 12.8926558,38.5272483 C14.2393442,39.8898725 15.1247893,41.5668826 15.3871246,43.251594 C15.6646825,45.0285503 15.2249199,46.6071544 14.148178,47.6952685 C13.2838754,48.5696275 12.1071721,49.0315369 10.7454303,49.0315369 L10.7454303,49.0315369 Z"/><path id="Fill-31" fill="#828D8C" d="M35.6025045,39.0827718 C33.0579703,41.6574161 32.4938902,45.2662651 34.3469822,47.139745 C36.2000742,49.0147651 39.766549,48.4484597 42.3112522,45.8722752 C44.8557864,43.2945503 45.4198665,39.6887819 43.56373,37.8137617 C41.7136825,35.9373725 38.1470386,36.5065872 35.6025045,39.0827718"/><path id="Fill-32" fill="#EDEDEA" d="M36.4591958,42.0686678 C35.0612582,43.4863993 34.8305519,45.551557 35.9483947,46.6838255 C37.0674214,47.8164362 39.1114718,47.5862517 40.5111009,46.1685201 C41.9122522,44.7492483 42.1427893,42.6823792 41.0235935,41.5499396 C39.9045668,40.4176711 37.8603472,40.6507651 36.4591958,42.0686678"/><path id="Fill-33" fill="#121716" d="M36.1515312,39.6382953 C35.0353798,40.7674832 34.3045282,42.1376376 34.092089,43.4970101 C33.8950415,44.7644799 34.1802107,45.859953 34.8958398,46.5842215 C36.3803769,48.089406 39.6209199,47.4864765 41.7622255,45.3169228 C42.8782077,44.1860235 43.6092285,42.8158691 43.8199763,41.4578658 C44.018546,40.1905671 43.7320237,39.0935537 43.0147033,38.3692852 C42.4491009,37.7954497 41.6544837,37.4930436 40.7128843,37.4930436 C39.1828487,37.4930436 37.4784303,38.2956946 36.1515312,39.6382953 Z M33.7979555,47.6952685 C32.7213828,46.6071544 32.2816202,45.0285503 32.559178,43.251594 C32.8213442,41.5668826 33.7071276,39.8898725 35.0536469,38.5272483 C36.6883798,36.8716309 38.7522196,35.9219698 40.7128843,35.9219698 C42.0759792,35.9219698 43.2513294,36.3838792 44.1125875,37.2584094 C45.1908516,38.3463523 45.6321365,39.9251275 45.3545786,41.7019128 C45.0922433,43.3850839 44.2066291,45.0651745 42.8601098,46.4276275 C41.2253769,48.0817047 39.1628902,49.0315369 37.2008724,49.0315369 C35.8391306,49.0315369 34.6622582,48.5696275 33.7979555,47.6952685 L33.7979555,47.6952685 Z"/><path id="Fill-34" fill="#121716" d="M28.8453828,1.73793624 C28.8817478,1.62138926 28.919635,1.50792282 28.9529555,1.38504362 C27.3395341,1.02770134 25.6760475,0.832771812 23.9731513,0.832771812 C22.2700861,0.832771812 20.6067685,1.02770134 18.993178,1.38504362 C19.0266677,1.50792282 19.0645549,1.62138926 19.1009199,1.73793624 L18.2531929,1.88836913 L18.3714214,2.25358389 L18.4093086,2.53887584 C18.6565905,2.45142282 18.9189258,2.39460403 19.1995282,2.39460403 C19.6497774,2.39460403 20.125905,2.58200336 20.4975045,2.8305 C21.8956113,3.78170134 22.9192433,5.06440268 23.6106855,6.5175604 C23.6879822,6.62948658 23.8002908,6.71847987 23.959451,6.71847987 C24.1353561,6.71847987 24.2611958,6.61425503 24.3371395,6.48538591 L24.3491484,6.48538591 C25.0422819,5.0460906 26.0598249,3.77571141 27.4487982,2.8305 C27.8202285,2.58200336 28.2963561,2.39460403 28.7467745,2.39460403 C29.0273769,2.39460403 29.289543,2.45142282 29.5368249,2.53887584 L29.5747122,2.25358389 L29.6929407,1.88836913 L28.8453828,1.73793624"/></g></g></svg>