<svg fill="none" height="14" viewBox="0 0 10 14" width="10" xmlns="http://www.w3.org/2000/svg"><path clip-rule="evenodd" d="m4.46967 9.7803c.29289.2929.76777.2929 1.06066 0l3.74997-3.74997c.2929-.29289.2929-.76777 0-1.06066s-.7677-.29289-1.0606 0l-2.4697 2.46967v-6.68934c0-.41421-.33579-.75-.75-.75s-.75.33579-.75.75v6.68934l-2.46967-2.46967c-.29289-.29289-.76777-.29289-1.06066 0s-.29289.76777 0 1.06066zm-3.71967 2.2198c-.41421 0-.75.3358-.75.75s.33579.75.75.75h8.5c.4142 0 .75-.3358.75-.75s-.3358-.75-.75-.75z" fill="#0075ff" fill-rule="evenodd"/></svg>