<svg fill="none" height="13" viewBox="0 0 13 13" width="13" xmlns="http://www.w3.org/2000/svg"><path clip-rule="evenodd" d="m8.6036 0h4.1464c.1381 0 .25.11193.25.25v4.14645c0 .22272-.2693.33427-.4268.17677l-1.5429-1.54289-3.74997 3.75c-.29289.29289-.76777.29289-1.06066 0s-.29289-.76777 0-1.06066l3.75003-3.75-1.5429-1.54289c-.1575-.15749-.046-.42678.1768-.42678zm-6.8536 1c-.9665 0-1.75.7835-1.75 1.75v8.5c0 .9665.7835 1.75 1.75 1.75h8.5c.9665 0 1.75-.7835 1.75-1.75v-3.5c0-.41421-.3358-.75-.75-.75s-.75.33579-.75.75v3.5c0 .1381-.1119.25-.25.25h-8.5c-.13807 0-.25-.1119-.25-.25v-8.5c0-.13807.11193-.25.25-.25h3.5c.41421 0 .75-.33579.75-.75s-.33579-.75-.75-.75z" fill="#0075ff" fill-rule="evenodd"/></svg>