<svg xmlns="http://www.w3.org/2000/svg" xmlns:xlink="http://www.w3.org/1999/xlink" width="222" height="158" version="1.1" viewBox="0 0 222 158"><title>browser</title><desc>Created with Sketch.</desc><g id="icons" fill="none" fill-rule="evenodd" stroke="none" stroke-width="1" transform="translate(-637.000000, -518.000000)"><g id="browser" transform="translate(641.000000, 522.000000)"><rect id="Rectangle-2" width="214" height="150" x="0" y="0" fill="#8492A6" stroke="#8492A6" stroke-width="7" rx="7"/><path id="Rectangle-2" fill="#EFF2F7" d="M2,20 L212,20 L212,142 C212,145.313708 209.313708,148 206,148 L8,148 C4.6862915,148 2,145.313708 2,142 L2,20 Z"/><rect id="Rectangle" width="187" height="26" x="14" y="31" fill="#E0E6ED" rx="2"/><rect id="Rectangle" width="52" height="72" x="14" y="66" fill="#E0E6ED" rx="2"/><rect id="Rectangle" width="52" height="72" x="82" y="67" fill="#E0E6ED" rx="2"/><rect id="Rectangle" width="52" height="72" x="149" y="66" fill="#E0E6ED" rx="2"/><circle id="Oval-2" cx="8" cy="8" r="3" fill="#FF4949"/><circle id="Oval-2" cx="19" cy="8" r="3" fill="#FFC82C"/><circle id="Oval-2" cx="30" cy="8" r="3" fill="#13CE66"/><rect id="Rectangle-3" width="9" height="9" x="38" y="5" fill="#EFF2F7" rx="4.5"/><rect id="Rectangle-3" width="9" height="9" x="52" y="5" fill="#EFF2F7" rx="4.5"/><rect id="Rectangle-3" width="14" height="9" x="191" y="5" fill="#EFF2F7" rx="4.5"/><rect id="Rectangle-3" width="120" height="9" x="66" y="5" fill="#EFF2F7" rx="4.5"/><path id="mousepath" stroke="#979797" stroke-opacity="0" d="M36.7149942,100.722355 L106.520079,116.399253 L172.533514,106.968843 L106.4736,48.4538197 L36.7149942,100.722355 Z"/></g></g><g id="icons" fill="none" fill-rule="evenodd" stroke="none" stroke-width="1" transform="translate(-691.000000, -692.000000)"><polygon id="mousepointer" fill="#3C4858" points="699.031 690.488 707.824 709.084 705.937 708.722 700.55 707.688 700.55 719.073 697.213 719.073 697.213 707.688 690.238 709.084" transform="translate(699.030906, 704.780294) rotate(-32.000000) translate(-699.030906, -704.780294)"/><animateMotion calcMode="linear" dur="3s" repeatCount="indefinite"><mpath xlink:href="#mousepath"/></animateMotion></g></svg>