<svg fill="none" height="47" viewBox="0 0 52 47" width="52" xmlns="http://www.w3.org/2000/svg"><g clip-rule="evenodd" fill-rule="evenodd"><path d="m49.7428 10.3674c-.1515-.3106-.3721-.59443-.7011-.77559-.3622-.19824-.758-.23177-1.1286-.1658l-.0264-.0141c-5.572.96239-11.1941 5.20549-14.5855 11.70909-3.6537 7.0081-3.7065 14.7032-.7302 19.9692 5.979-.4863 12.2215-4.8726 15.8752-11.8807 3.4051-6.5247 3.6787-13.6395 1.2966-18.8421z" fill="#828d8c"/><g fill="#121716"><path d="m47.8758 10.1439c-5.4902 1.0019-10.8235 5.3249-13.9456 11.3129-3.3053 6.3395-3.6662 13.6846-.962 18.8718 5.7568-.6687 11.5455-5.1155 14.8494-11.4548 3.1594-6.054 3.6497-13.0284 1.2799-18.2044-.1-.2038-.2318-.3555-.3956-.4454-.1889-.1053-.4333-.1335-.6651-.0898-.0554.0083-.111.0153-.161.0097zm-15.3046 31.6656c-.254 0-.4901-.1376-.6164-.3625-3.226-5.7071-2.9514-13.6241.7178-20.6617 3.3996-6.5205 9.0424-11.03756 15.095-12.08282.057-.01128.1166-.01269.175-.00705.501-.06049 1.005.02805 1.4367.26406.4275.23459.7635.6013 1.0008 1.09021 2.5598 5.5891 2.0574 13.0539-1.3049 19.4958-3.6689 7.036-9.9712 11.7356-16.447 12.2612-.0196.0014-.0377.0028-.057.0028z"/><path d="m47.1345 13.4204c1.5521.8472 2.9305 1.8715 4.0896 2.9926-.1637-2.1749-.6497-4.2304-1.4812-6.0456-.1514-.3106-.3721-.59443-.7011-.77559-.3622-.19824-.7579-.23177-1.1286-.1658l-.0263-.0141c-1.9212.33301-3.8424 1.08049-5.6833 2.14819 1.6312.3626 3.3081.9751 4.9309 1.8603z"/><path d="m38.4211 15.0051c-1.4826 1.4753-2.8972 3.1443-4.198 5.0046 2.7459-.1912 5.7792.4819 8.5277 2.1129 2.7333 1.6187 4.7864 3.9566 5.9635 6.4602.9594-2.085 1.6882-4.1755 2.2157-6.224-1.4285-1.8785-3.2749-3.5462-5.5001-4.8668-2.2656-1.346-4.6504-2.1554-7.0088-2.4869z"/><path d="m31.3396 23.8398c-.9383 1.8376-1.7283 3.6755-2.3708 5.4964 2.5583-.0619 5.2556.6053 7.678 2.1044 2.4487 1.5063 3.5426 3.7979 4.6587 6.1555 2.2058-1.0777 3.2844-3.1402 4.4587-4.8432-1.4117-2.4881-3.4453-4.6897-6.0995-6.3251-2.6474-1.6355-5.5027-2.4516-8.3251-2.588z"/></g><path d="m11.1985 3.71308c2.3252 2.35192 2.9484 5.53706 1.3909 7.11202-1.5561 1.5749-4.70316.9456-7.02695-1.40775-2.32378-2.35191-2.94715-5.53706-1.39105-7.112 1.55626-1.574937 4.70316-.94418 7.0271 1.40773z" fill="#828d8c"/><path d="m9.65764 5.27419c1.16746 1.17737 1.53936 2.7158.83566 3.42679-.70792.71508-2.22532.3385-3.39124-.84169-1.16467-1.18019-1.53675-2.71438-.83162-3.4282.70667-.71507 2.22113-.33708 3.3872.8431z" fill="#121716"/><path d="m6.44548 2.15873c-.51235 0-1.23559.11377-1.77132.65599-1.25495 1.27014-.6178 4.06194 1.39089 6.09495 1.27709 1.29253 2.86525 2.06383 4.24935 2.06383.5122 0 1.2368-.1137 1.7727-.6561.5802-.5872.7815-1.51602.5664-2.61613-.2361-1.20542-.9315-2.44045-1.9574-3.47882-1.27714-1.29255-2.86529-2.06372-4.25062-2.06372zm3.86892 10.25337c-1.75339 0-3.71764-.9286-5.25439-2.48538-2.64166-2.67364-3.25249-6.24508-1.3909-8.12921.69692-.70535 1.65613-1.077539 2.77637-1.077539 1.75322 0 3.71752.928669 5.25562 2.485429 1.223 1.23629 2.0559 2.73413 2.3461 4.2163.3109 1.58622-.0291 2.9758-.9551 3.9129-.6969.7054-1.6575 1.0775-2.7777 1.0775z" fill="#121716"/><path d="m32.571 3.71333c-2.3252 2.35191-2.9486 5.53705-1.3909 7.11197 1.5561 1.575 4.7031.9456 7.0269-1.40771 2.3238-2.35191 2.947-5.53705 1.3909-7.11199-1.5561-1.574943-4.7032-.94418-7.0269 1.40773z" fill="#828d8c"/><path d="m34.112 5.27419c-1.1675 1.17737-1.5396 2.7158-.8358 3.42679.7079.71508 2.2253.3385 3.3913-.84169 1.1647-1.18019 1.5368-2.71438.8317-3.4282-.7067-.71507-2.2212-.33708-3.3872.8431z" fill="#121716"/><path d="m33.0736 4.22245c-1.026 1.03837-1.7215 2.2734-1.9575 3.47882-.2152 1.10011-.0139 2.02893.5664 2.61613.5359.5424 1.2605.6561 1.7727.6561 1.3841 0 2.9721-.7713 4.2494-2.06384 2.0085-2.033 2.6458-4.8248 1.3909-6.09494-.5359-.54222-1.2592-.65599-1.7714-.65599-1.3854 0-2.9734.77117-4.2505 2.06372zm-2.3961 7.11215c-.9259-.9371-1.2661-2.32668-.955-3.9129.2901-1.48217 1.123-2.98001 2.3459-4.2163 1.5381-1.55676 3.5024-2.485429 5.2557-2.485429 1.1203 0 2.0795.372189 2.7763 1.077539 1.8617 1.88413 1.2507 5.45557-1.3909 8.12921-1.5368 1.55678-3.5009 2.48538-5.2543 2.48538-1.1202 0-2.0808-.3721-2.7777-1.0775z" fill="#121716"/><path d="m37.5795 9.56301c-3.6648-5.11567-9.3091-8.843039-15.6947-8.843039s-12.03 3.727369-15.69482 8.843039c-4.45882 6.22109-7.042106 15.04029-4.38945 22.50069 2.24621 6.3197 7.63916 11.1219 13.98027 12.9512 1.9824.5733 4.0425.8585 6.104.8585 2.0613 0 4.1214-.2852 6.1038-.8585 6.3412-1.8293 11.7343-6.6315 13.9805-12.9512 2.6528-7.4604.0693-16.2796-4.3896-22.50069z" fill="#828d8c"/><path d="m39.094 12.3934c-.254-1.0215-.8995-1.9909-1.5006-2.83099-.7662-1.07065-1.624-2.07391-2.5527-3.00116-3.3137-1.61005-7.1007-1.60723-9.9881.36388-1.5048 1.02849-2.5597 2.46443-3.1678 4.10107-.608-1.63664-1.663-3.07258-3.1677-4.10107-2.8876-1.97111-6.6746-1.97393-9.98807-.36388-.92871.92725-1.78666 1.93051-2.55279 3.00116-.60123.84009-1.24674 1.80949-1.50067 2.83099-.26523 1.0636-.6469 2.4911-.59689 3.5672.08191 1.7506 1.15213 3.0405 2.56532 3.9663.3456.2276 4.0425 3.091 3.6981 3.2947.2611-.1546.5901-.3429.9564-.5381v.3273c1.3411-.791 3.29-1.7604 4.595-1.6087l.0165.0028c.0376.0042.0682.0211.1042.0282.3596.0954.6747.2725.9162.5704.558.687.608 1.4808.4137 2.2521.1443-.1067.2735-.2416.4137-.3554-.0153.5311-.1347.9343-.1347.9343l-.2429.3455c1.4311.2741 2.9346.4244 4.4907.4244h.0084.0139c1.5615 0 3.065-.1503 4.4963-.4244l-.2429-.3455s-.1194-.4032-.1347-.9343c.1401.1138.2692.2487.4137.3554-.1943-.7713-.1445-1.5651.4137-2.2521.2414-.2979.5566-.475.9162-.5704.036-.0071.0667-.024.1042-.0282l.0165-.0028c1.3048-.1517 3.2539.8177 4.595 1.6087v-.3273c.3663.1952.6953.3835.9564.5381-.3444-.2037 3.3523-3.0671 3.6979-3.2947 1.4132-.9258 2.4836-2.2157 2.5655-3.9663.05-1.0761-.3318-2.5036-.597-3.5672z" fill="#ededea"/><path d="m21.8849 28.5366c-5.382 0-9.7423 5.4346-9.7423 12.1391 0 1.339.1805 2.6218.5012 3.8258.5885.1784 1.1716.3708 1.7755.5128 2.425.5732 4.9447.8584 7.4656.8584s5.0405-.2852 7.4657-.8584c.6037-.142 1.1868-.3344 1.7754-.5128.3206-1.204.5012-2.4868.5012-3.8258 0-6.7045-4.3604-12.1391-9.7423-12.1391z" fill="#ededea"/><path d="m22.9844 17.5341c-.24.0788-.4913.1182-.7426.1392.0195-.0436.0554-.0773.0554-.1265v-.9751c.0446-.0351.0932-.0589.1319-.1067l.7551-.9244c.2986-.3653.1584-.6646-.3109-.6646h-1.9766c-.4693 0-.6094.2993-.3111.6646l.7552.9244c.0667.0829.1472.1404.2291.1854v.8964c0 .0492.0347.0829.0528.1265-.2514-.0226-.5012-.0619-.7399-.1392-.3083-.0997-.9455-.4734-1.0329.1069v.1053c0 1.162.9274 2.1034 2.081 2.1062h.0054c1.1537-.0028 2.0808-.9442 2.0808-2.1062 0-.0351 0-.0702 0-.1053-.0873-.5803-.7245-.2066-1.0327-.1069z" fill="#121716"/><path d="m21.8849 1.43861c-5.7179 0-11.229 3.11494-15.11864 8.54653-4.89748 6.83246-6.58411 15.40276-4.2964 21.83486 2.10159 5.915 7.27684 10.7061 13.50564 12.5031 3.8147 1.1014 8.0056 1.1014 11.8175 0 6.2302-1.797 11.4053-6.5881 13.5069-12.5031 2.2878-6.4321.6012-15.0024-4.2949-21.83486-3.8912-5.43159-9.4021-8.54653-15.1201-8.54653zm0 45.15339c-2.1461 0-4.2659-.2977-6.2996-.8865-6.76173-1.9501-12.16459-6.9588-14.45369-13.3993-2.96373-8.3345.37346-17.4317 4.4839-23.16683 4.1603-5.80833 10.09069-9.13937 16.26939-9.13937 6.1788 0 12.1092 3.33104 16.2709 9.13937 4.109 5.73513 7.4462 14.83233 4.4825 23.16683-2.2891 6.4405-7.692 11.4492-14.4551 13.3993-2.0324.5888-4.1522.8865-6.2983.8865z" fill="#121716"/><path d="m16.174 9.2024c-.5997-.32737-1.2687-.49317-1.9893-.49317-2.0101 0-4.0119 1.70857-4.99336 2.85777-1.65041 1.9319-3.1774 5.818-.02075 7.1513 1.14111.4821 2.39871.6281 3.62591.6505 1.5673.0309 3.2428-.0054 4.4798-1.1239 1.2548-1.1352 1.4574-2.9897 1.3409-4.5999-.1513-2.0907-1.019-3.66986-2.4432-4.4426z" fill="#121716"/><path d="m16.2485 12.5605c-.0223-.2753-.3207-.5788-.4956-.7362-.39-.3442-.8884-.5352-1.4061-.5352-.1637 0-.3317.0181-.5024.0548-.6607.1404-1.216.5436-1.5227 1.1069-.1166.2136-.3151.6393-.2639.8824.0431.2023.232.3413.4249.3764.2567.0478.3567-.0745.4789-.2851.0235-.0409.0484-.083.0763-.1278.3719-.5831.8967-.9034 1.4782-.9034.3262 0 .5247.0954.8204.2937.1943.1306.4068.3933.6704.2527.1902-.1025.2527-.236.2416-.3792z" fill="#fffffe"/><path d="m27.5961 9.2024c.5996-.32737 1.2687-.49317 1.9891-.49317 2.0103 0 4.0119 1.70857 4.9934 2.85777 1.6505 1.9319 3.1775 5.818.0209 7.1513-1.1412.4821-2.3989.6281-3.626.6505-1.5672.0309-3.2427-.0054-4.4797-1.1239-1.255-1.1352-1.4577-2.9897-1.3411-4.5999.1515-2.0907 1.019-3.66986 2.4434-4.4426z" fill="#121716"/><path d="m27.521 12.5605c.0223-.2753.3208-.5788.4956-.7362.3901-.3442.8884-.5352 1.4061-.5352.1638 0 .3318.0181.5025.0548.6607.1404 1.216.5436 1.5227 1.1069.1166.2136.3151.6393.2638.8824-.0431.2023-.2317.3413-.4249.3764-.2567.0478-.3566-.0745-.4788-.2851-.0236-.0409-.0486-.083-.0763-.1278-.372-.5831-.8966-.9034-1.4782-.9034-.3264 0-.5247.0954-.8204.2937-.1944.1306-.4068.3933-.6704.2527-.1903-.1025-.2527-.236-.2417-.3792z" fill="#fffffe"/><g fill="#121716"><path d="m7.77821 25.6589c-.18873 0-.37762-.0759-.51773-.2261-.26939-.2895-.25546-.7447.0305-1.0173.16241-.1545 1.61992-1.5284 2.65399-2.0329.35113-.1698.77733-.0224.94803.3358.1707.3569.0222.7868-.3318.9595-.70789.3457-1.8974 1.4064-2.29576 1.7857-.13748.1307-.31243.1953-.48723.1953z"/><path d="m16.2698 21.093c-1.9616-1.1941-5.017.4692-6.0746 1.1225-.87193-.4326-1.64085-1.065-2.34474-1.7351-.84819-.8064-1.38129-1.3137-1.94753-2.373-.13331-.1967-.34157-.3428-.59565-.3428-.83147 0-.81754.8908-.48727 1.4162 1.01898 1.6186 2.18226 2.6668 3.75509 3.7373.44283.3007.91059.5789 1.40901.7784.21649.0871.46779.0647.66349-.0674.8663-.5831 3.6136-2.0752 4.892-1.3024.6219.3778.9537.8978.9856 1.5454.0569 1.1675-.8676 2.5865-2.4737 3.7976-1.6492 1.2435-4.56023 1.5933-7.07694.8528-1.79223-.5268-4.17842-1.8222-5.37236-4.9932-.13873-.3738-.55385-.5592-.916167-.416-.367891.1406-.551062.5565-.410935.9275 1.093922 2.9069 3.331772 4.989 6.302452 5.863 1.01883.3006 2.08364.4466 3.12476.4466 1.98219 0 3.87709-.5295 5.19859-1.5257 2.0171-1.5217 3.1263-3.3522 3.043-5.0242-.0556-1.1241-.6497-2.085-1.6741-2.7075z"/><path d="m35.9913 25.6589c.1888 0 .3776-.0759.5178-.2261.2692-.2895.2553-.7447-.0305-1.0173-.1625-.1545-1.62-1.5284-2.654-2.0329-.3512-.1698-.7772-.0224-.9482.3358-.1706.3569-.0221.7868.3318.9595.708.3457 1.8975 1.4064 2.2959 1.7857.1373.1307.3123.1953.4872.1953z"/><path d="m27.5 21.093c1.9615-1.1941 5.017.4692 6.0747 1.1225.8719-.4326 1.641-1.065 2.3445-1.7351.8484-.8064 1.3813-1.3137 1.9479-2.373.1331-.1967.3414-.3428.5953-.3428.8315 0 .8179.8908.4874 1.4162-1.0189 1.6186-2.1822 2.6668-3.755 3.7373-.443.3007-.9106.5789-1.4091.7784-.2166.0871-.4677.0647-.6636-.0674-.8661-.5831-3.6134-2.0752-4.8919-1.3024-.6218.3778-.9536.8978-.9857 1.5454-.0568 1.1675.8677 2.5865 2.4738 3.7976 1.6492 1.2435 4.5603 1.5933 7.077.8528 1.7922-.5268 4.1784-1.8222 5.3722-4.9932.1387-.3738.5539-.5592.9163-.416.3678.1406.5511.5565.4108.9275-1.0938 2.9069-3.3315 4.989-6.3023 5.863-1.019.3006-2.0836.4466-3.1248.4466-1.9823 0-3.8772-.5295-5.1987-1.5257-2.0171-1.5217-3.1262-3.3522-3.0429-5.0242.0554-1.1241.6495-2.085 1.6741-2.7075z"/></g><path d="m11.2386 35.7442c2.3296 2.3576 2.8459 5.6621 1.1495 7.3777-1.6963 1.7169-4.96138 1.1983-7.29074-1.1606-2.32936-2.3604-2.84573-5.6622-1.14656-7.3791 1.6936-1.7182 4.95864-1.1969 7.2878 1.162z" fill="#828d8c"/><path d="m10.4547 38.4783c1.2798 1.2982 1.4909 3.1892.4679 4.226-1.02457 1.0372-2.89592.8264-4.17719-.4718-1.28267-1.2996-1.49356-3.1922-.46916-4.2292 1.0244-1.0368 2.89575-.8233 4.17845.475z" fill="#ededea"/><path d="m6.56085 34.2885c-.86213 0-1.58955.2769-2.10732.8023-.65651.6632-.91895 1.6677-.73702 2.8282.19292 1.2435.86197 2.4981 1.88374 3.5337 1.96007 1.9866 4.92655 2.5387 6.28575 1.1604.6551-.6632.9162-1.6663.7356-2.8269-.1943-1.2448-.8634-2.4994-1.8851-3.5334-1.21471-1.2294-2.775-1.9643-4.17565-1.9643zm3.21503 10.5656c-1.79626 0-3.68418-.8698-5.18068-2.3844-1.2328-1.2476-2.04337-2.786-2.28352-4.3273-.25409-1.6269.14988-3.0726 1.13696-4.0688.78843-.8008 1.86423-1.2237 3.11221-1.2237 1.79487 0 3.68435.8695 5.18065 2.3856 1.2328 1.2477 2.0434 2.7833 2.2836 4.326.254 1.6271-.1485 3.0726-1.1342 4.069-.7912.8006-1.8684 1.2236-3.11502 1.2236z" fill="#121716"/><path d="m32.5311 35.7442c-2.3294 2.3576-2.8458 5.6621-1.1494 7.3777 1.6964 1.7169 4.9613 1.1983 7.2908-1.1606 2.3294-2.3604 2.8457-5.6622 1.1466-7.3791-1.6936-1.7182-4.9587-1.1969-7.288 1.162z" fill="#828d8c"/><path d="m33.3151 38.4783c-1.2797 1.2982-1.4909 3.1892-.4676 4.226 1.0244 1.0372 2.8956.8264 4.1769-.4718 1.2826-1.2996 1.4937-3.1922.4691-4.2292-1.0244-1.0368-2.8957-.8233-4.1784.475z" fill="#ededea"/><path d="m33.0335 36.2528c-1.0218 1.034-1.6908 2.2886-1.8853 3.5334-.1804 1.1606.0807 2.1637.7358 2.8269 1.359 1.3783 4.3255.8262 6.2857-1.1604 1.0216-1.0356 1.6908-2.2902 1.8838-3.5337.1817-1.1605-.0805-2.165-.7372-2.8282-.5178-.5254-1.2452-.8023-2.1072-.8023-1.4006 0-2.9609.7349-4.1756 1.9643zm-2.1545 7.3777c-.9856-.9964-1.3882-2.4419-1.1341-4.069.24-1.5427 1.0509-3.0783 2.2836-4.326 1.4965-1.5161 3.3858-2.3856 5.1806-2.3856 1.2479 0 2.3238.4229 3.1122 1.2237.9871.9962 1.3911 2.4419 1.137 4.0688-.2401 1.5413-1.0509 3.0797-2.2835 4.3273-1.4965 1.5146-3.3846 2.3844-5.1807 2.3844-1.2466 0-2.3239-.423-3.1151-1.2236z" fill="#121716"/><path d="m26.3449 1.54881c.0333-.10672.068-.21062.0985-.32313-1.477-.327216-2.9998-.505709-4.5587-.505709-1.5591 0-3.0817.178493-4.5589.505709.0307.11251.0654.21641.0987.32313l-.7761.13775.1083.33442.0347.26124c.2263-.08008.4665-.13211.7233-.13211.4122 0 .8481.1716 1.1883.39915 1.2798.87099 2.2169 2.04554 2.8499 3.37617.0707.10249.1736.18398.3193.18398.161 0 .2762-.09543.3457-.21344h.011c.6345-1.31794 1.566-2.4812 2.8375-3.34671.34-.22755.7759-.39915 1.1882-.39915.2569 0 .4969.05203.7233.13211l.0347-.26124.1082-.33442z" fill="#121716"/></g></svg>