<svg fill="none" height="15" viewBox="0 0 16 15" width="16" xmlns="http://www.w3.org/2000/svg"><path clip-rule="evenodd" d="m8.0009.25c.14001-.00009.27725.039014.39619.112887s.21483.179565.27681.305113l1.882 3.815 4.21.612c.1385.02011.2685.07855.3755.16872.107.09016.1866.20846.2299.34151.0433.13306.0485.27557.015.41142s-.1043.25963-.2044.35735l-3.046 2.97.719 4.192c.0237.1379.0084.2797-.0443.4094s-.1406.242-.2538.3243-.2472.1313-.3868.1414-.2792-.019-.4031-.0841l-3.766-1.98-3.766 1.98c-.12382.065-.26334.0941-.40281.084-.13948-.0101-.27335-.059-.38651-.1411-.11316-.0822-.20109-.1944-.25387-.3239s-.0683-.2711-.04481-.409l.72-4.194-3.048003-2.969c-.100434-.09768-.171501-.22153-.205149-.35753-.033647-.136-.02853-.2787.014773-.41194s.123059-.25169.230231-.34192c.107173-.09023.237478-.14864.376148-.16861l4.21-.611 1.883-3.815c.06198-.125548.15786-.23124.2768-.305113s.25618-.112977.3962-.112887z" fill="#ffc82c" fill-rule="evenodd"/></svg>