<svg fill="none" height="61" viewBox="0 0 202 61" width="202" xmlns="http://www.w3.org/2000/svg"><g fill="#ff659d"><path d="m75.8116 22.3732c-.091.0244-.1682.0436-.2314.0577-.0633.0142-.1163.0236-.1591.0283-.2436.0122-.4218-.0367-.5347-.1468-.1137-.1173-.1865-.3218-.2185-.6137-.0631-.5766.1748-.9701.7137-1.1804.4787-.1676.9966-.3072 1.5535-.4186.5562-.1185 1.1795-.2155 1.8701-.2911.9254-.1013 1.8535-.1128 2.7842-.0346.9378.0774 1.8368.2276 2.6969.4504.8664.2149 1.6789.497 2.4376.8462.7579.3421 1.4239.7339 1.9981 1.1753.5806.4336 1.0468.9084 1.3987 1.4247.3582.5083.5673 1.0365.6273 1.5847.0608.5552-.0698 1.1062-.3917 1.653-.3157.5388-.7692 1.0351-1.3608 1.4889-.5915.4538-1.2912.8402-2.0992 1.1592-.808.3189-1.6676.5283-2.5788.628-.7261.0795-1.4917.0949-2.2967.0461-.805-.0487-1.7008-.1704-2.6875-.365-.4546-.0727-.7049-.319-.7509-.7391-.0101-.0925.0019-.1803.036-.2633.0342-.0829.0687-.1624.1036-.2382.0421-.0767.0809-.1494.1166-.2181.0349-.0759.0485-.1494.0407-.2206-.0444-.4058-.1133-.8377-.2067-1.2957-.0862-.4589-.1903-.9158-.3121-1.3707-.1147-.4557-.2413-.8885-.3799-1.2984-.1321-.4178-.2624-.7854-.3908-1.1027s-.253-.5667-.3737-.748c-.1143-.1892-.2107-.2795-.289-.2709-.121.0132-.2689.0438-.4438.0918-.1677.0472-.3916.1077-.6717.1816zm4.0925-.6209c-.2065.0226-.3019.1051-.2863.2475.0039.0356.0212.0949.0519.178s.0775.2149.1405.3953c.0968.292.1924.6057.2867.9412.0944.3354.1934.7136.2971 1.1345.1029.4138.2082.8814.3157 1.4027.1138.5135.235 1.0945.3637 1.7432.0188.1061.1262.1988.3222.2782.1952.0722.4502.1308.7649.1756.3139.0377.6693.06 1.0663.067.4033-.001.815-.0244 1.235-.0704.5553-.0608 1.0787-.1829 1.5701-.3664.4977-.1913.9268-.4184 1.287-.6812.3674-.2635.649-.5537.8449-.8705.203-.3176.2873-.633.253-.9462-.0569-.5197-.3187-1.0026-.7853-1.4486-.4596-.4468-1.0707-.8301-1.8333-1.1501-.7634-.3271-1.6484-.5796-2.6549-.7576-1.0072-.1851-2.087-.2758-3.2392-.2722z"/><path d="m92.5414 26.1396c-.0213.0023-.0565.0098-.1056.0223-.0419.0118-.091.0244-.1471.0378-.0491.0125-.0981.0251-.1472.0377-.049.0126-.0878.0204-.1163.0235-.1993.0218-.3827-.0409-.5501-.1883-.1682-.1545-.2675-.3706-.2979-.6482-.0203-.1851.0208-.3697.1231-.5538s.2754-.3471.5192-.4891c.0744-.0441.1306-.0899.1687-.1373.0443-.0553.0619-.1257.0525-.2111-.0249-.2278-.0585-.469-.1008-.7238-.036-.2626-.0837-.5671-.1433-.9136-.0149-.0704-.0472-.1354-.0969-.1947-.0426-.0602-.0931-.1267-.1515-.1996-.0521-.0807-.1014-.169-.1479-.2648-.0465-.0957-.0779-.2184-.0943-.3679-.0148-.1352-.0138-.2902.0031-.465.0233-.1826.0872-.3553.1919-.5181.111-.1706.2713-.3178.4811-.4417.2161-.1317.5057-.2174.8688-.2572.1495-.0163.2756-.0157.3784.0018.1028.0176.1921.0438.268.0788.0822.027.1533.0516.2134.0739.0672.0214.1328.0287.1969.0216.1139-.0124.3394-.0587.6764-.1388.337-.0802.7397-.1855 1.2081-.316.4755-.1313.9962-.2783 1.5619-.4411.5728-.1636 1.152-.3351 1.7375-.5144.5848-.1865 1.1555-.3714 1.7115-.5548.556-.1833 1.06-.3573 1.51-.5219.138-.0511.261-.0826.368-.0943.149-.0163.271.0064.364.0683.099.0539.176.1284.23.2233.053.095.091.2062.112.3336.027.1194.047.2326.059.3393.02.1851-.025.3666-.135.5443-.104.1699-.294.3167-.568.4404-.682.2836-1.374.5431-2.076.7784-.6958.2274-1.3996.4449-2.1117.6526-.7129.2005-1.4305.3907-2.1528.5706-.7224.1799-1.4412.3595-2.1564.5386-.0981.0252-.1685.0725-.2114.142-.0436.0624-.0599.1435-.049.2431l.0479.4379c.0133.121.0305.2452.0516.3725.0212.1274.0483.2433.0813.3477.0402.1037.0855.1888.136.2553.0497.0594.1102.0852.1814.0774.1708-.0187.4303-.0831.7785-.1933.3553-.1109.7517-.2407 1.1893-.3895.4439-.1567.9048-.3224 1.3828-.4972.4843-.1827.9417-.348 1.3721-.496.4297-.1551.8084-.2865 1.1344-.3943.327-.1079.558-.1692.693-.184.2-.0218.357.0366.473.1752.123.1307.214.3044.274.5212.004.0356.011.0672.021.0949s.017.0594.021.095c.023.2064-.02.4056-.129.5976-.102.1841-.309.3364-.62.4569-.082.0379-.248.1028-.497.195-.25.085-.545.1893-.8846.3129-.3403.1165-.7083.2432-1.1039.3802-.3957.1369-.7842.2731-1.1656.4085-.3822.1283-.7395.2539-1.0718.3767-.326.1149-.5931.209-.8012.2822-.1868.0709-.2999.1229-.3395.1561-.0325.0323-.0464.0699-.0417.1126.0313.155.1256.2924.2828.4121.1643.1189.363.2232.5962.3129.2403.089.5043.1646.7921.2267.2948.0614.5953.1078.9013.1391.3123.0234.6164.037.9122.0406.2958.0037.5682-.0081.8174-.0354.1068-.0117.2598-.0285.4592-.0503.1991-.0218.4161-.0491.6501-.082.241-.0407.484-.0854.731-.134.254-.0494.479-.1028.674-.1602.202-.0653.364-.1335.486-.2045.128-.0788.187-.161.178-.2464-.009-.0783-.046-.1571-.112-.2363-.06-.0799-.095-.1698-.105-.2694-.016-.1424.008-.2855.071-.4293.063-.151.149-.2865.258-.4065.116-.128.249-.2325.398-.3137.156-.0892.316-.1427.48-.1606.206-.0226.4-.0005.58.0662.179.0596.337.1504.473.2724.142.1141.254.2531.337.417.09.163.145.3335.164.5115.052.4699-.078.8947-.39 1.2746-.304.3791-.722.7094-1.253.9909-.53.2886-1.138.5245-1.824.7076-.686.1903-1.381.324-2.0853.4011-.8258.0904-1.5866.1161-2.2825.077-.6951-.032-1.3264-.1394-1.894-.3222-.5675-.1828-1.0681-.445-1.5017-.7866-.4344-.3487-.8066-.787-1.1165-1.315-.1034-.1544-.2049-.2261-.3046-.2152z"/><path d="m106.381 23.1442c-.395-.4467-.769-.8668-1.122-1.2604-.346-.4016-.654-.775-.922-1.1202-.269-.3524-.485-.6782-.647-.9774-.17-.2984-.269-.5757-.297-.832-.014-.1282.028-.2732.126-.4352.089-.1683.202-.3247.337-.4692.135-.1516.276-.2787.423-.3813.154-.1105.284-.1715.391-.1832.256-.0281.494.1079.714.408.095.1409.237.3488.425.6235.195.2668.42.5737.674.9205.253.3397.531.7055.833 1.0974.309.3841.621.7678.937 1.1511.322.3825.64.7511.953 1.106.319.3469.619.6526.9.9172.288.2638.549.4731.782.6277.239.1466.437.2114.594.1943.206-.0226.379-.1856.519-.4891s.255-.6944.347-1.1727c.099-.4791.173-1.0167.223-1.6129.05-.6034.084-1.2123.103-1.8267.026-.6153.041-1.2076.043-1.777.002-.5765.001-1.0807-.003-1.5125-.004-.2302.042-.408.136-.5336.093-.1327.226-.2084.396-.2272.15-.0163.317-.0022.502.0424s.362.1152.531.212c.169.0896.311.2038.427.3423.122.1307.193.2815.211.4524.029.2634.038.5758.027.9372-.003.3606-.019.7441-.047 1.1506-.021.3985-.052.8089-.092 1.2312-.041.4151-.084.8089-.13 1.1813-.029.2625-.072.5914-.13.9868-.051.3874-.124.8025-.22 1.2452-.096.4356-.217.8775-.363 1.3257-.146.441-.325.8461-.537 1.215-.212.3619-.464.6632-.754.9039-.283.2471-.617.3917-1.001.4338-.278.0304-.575-.0164-.891-.1403-.315-.1167-.636-.2833-.962-.4998-.326-.2164-.653-.4653-.979-.7465-.327-.2884-.64-.582-.939-.8806s-.58-.5886-.841-.8697c-.262-.2883-.488-.541-.677-.758z"/><path d="m118.34 23.3155c-.021.0024-.056.0098-.105.0224-.042.0118-.091.0244-.147.0377-.049.0126-.098.0252-.147.0377-.05.0126-.088.0205-.117.0236-.199.0218-.382-.041-.55-.1883-.168-.1545-.267-.3706-.298-.6482-.02-.1851.021-.3697.123-.5538.103-.1841.276-.3472.52-.4891.074-.0442.13-.09.168-.1374.045-.0552.062-.1256.053-.211-.025-.2278-.059-.4691-.101-.7238-.036-.2626-.084-.5672-.143-.9137-.015-.0704-.048-.1353-.097-.1947-.043-.0602-.093-.1267-.152-.1995-.052-.0808-.101-.169-.148-.2648-.046-.0958-.078-.2184-.094-.3679-.015-.1353-.014-.2903.003-.465.023-.1827.087-.3554.192-.5181.111-.1707.271-.3179.481-.4417.216-.1317.506-.2175.869-.2572.149-.0164.276-.0158.378.0018.103.0176.192.0438.268.0787.083.027.154.0517.214.0739.067.0215.133.0287.197.0217.114-.0125.339-.0588.676-.1389s.74-.1854 1.208-.3159c.476-.1313.996-.2784 1.562-.4412.573-.1635 1.152-.335 1.738-.5144.584-.1864 1.155-.3714 1.711-.5547.556-.1834 1.06-.3573 1.51-.5219.138-.0512.261-.0826.368-.0943.149-.0164.271.0064.364.0682.099.0539.176.1284.23.2234.053.095.091.2062.112.3335.027.1195.047.2326.059.3394.02.1851-.025.3665-.135.5443-.104.1698-.294.3166-.568.4404-.682.2836-1.374.543-2.076.7783-.696.2275-1.4.445-2.112.6526-.713.2005-1.43.3907-2.153.5707-.722.1799-1.441.3594-2.156.5386-.098.0251-.168.0725-.211.142-.044.0624-.06.1434-.049.2431l.048.4378c.013.121.03.2452.051.3726.021.1273.048.2432.082.3477.04.1037.085.1888.136.2553.049.0594.11.0852.181.0774.171-.0187.43-.0832.778-.1933.356-.1109.752-.2408 1.19-.3895.444-.1567.905-.3224 1.383-.4972.484-.1827.941-.348 1.372-.496.429-.1551.808-.2866 1.134-.3944.327-.1078.558-.1691.693-.1839.2-.0218.357.0365.474.1751.122.1307.213.3045.273.5213.004.0355.011.0672.021.0949s.017.0593.021.0949c.023.2065-.02.4057-.129.5977-.102.1841-.309.3364-.62.4569-.082.0378-.248.1028-.497.1949-.25.085-.545.1893-.885.3129-.34.1165-.708.2433-1.103.3802-.396.137-.785.2732-1.166.4086-.382.1283-.74.2538-1.072.3767-.326.1149-.593.209-.801.2822-.187.0708-.3.1229-.34.156-.032.0324-.046.0699-.041.1126.031.1551.125.2925.283.4121.164.1189.363.2233.596.313.24.089.504.1645.792.2267.295.0614.595.1077.901.1391.312.0234.617.0369.912.0406.296.0036.569-.0082.818-.0355.106-.0116.26-.0284.459-.0502s.416-.0492.65-.082c.241-.0407.484-.0854.731-.134.254-.0495.479-.1029.674-.1603.202-.0653.364-.1334.486-.2044.128-.0789.187-.161.178-.2465-.009-.0783-.046-.157-.112-.2362-.06-.08-.095-.1698-.105-.2695-.016-.1424.008-.2855.071-.4293.063-.1509.149-.2864.258-.4065.116-.1279.249-.2325.398-.3137.156-.0891.316-.1426.48-.1605.206-.0226.4-.0006.58.0662.179.0596.337.1504.473.2724.142.1141.254.2531.337.4169.09.1631.145.3336.164.5116.052.4698-.078.8947-.39 1.2746-.304.3791-.722.7094-1.253.9909-.53.2885-1.138.5244-1.824.7076-.686.1902-1.38.3239-2.085.4011-.826.0904-1.587.116-2.283.0769-.695-.0319-1.326-.1393-1.894-.3222-.567-.1828-1.068-.445-1.501-.7865-.435-.3487-.807-.787-1.117-1.3151-.103-.1543-.205-.2261-.305-.2152z"/><path d="m134.277 24.9643c-.203.0582-.384.1176-.543.1783-.158.0677-.358.1148-.6.1413-.264.0289-.475-.0237-.634-.1576-.158-.1339-.248-.2934-.268-.4785-.016-.1495-.013-.3444.012-.5848.023-.2475.021-.4923-.005-.7343-.15-.9129-.317-1.8132-.501-2.7008-.177-.8955-.346-1.7128-.506-2.4517s-.298-1.3686-.412-1.8892c-.116-.5277-.184-.8876-.205-1.0799-.014-.1281.005-.2491.058-.3629.051-.1209.129-.2303.234-.3282.104-.0979.229-.1764.374-.2354.151-.067.312-.1099.483-.1286.334-.0366.586-.0101.754.0796.168.0825.282.2357.342.4596.367 1.5088.663 2.8992.889 4.1712.232 1.2642.427 2.4531.585 3.5669.018.1638.074.2837.169.3597.102.0753.224.1052.367.0896.284-.0312.571-.077.86-.1374.288-.0675.576-.1351.864-.2026.288-.0676.573-.1312.854-.1908.288-.0675.567-.1161.838-.1457.178-.0195.323-.0137.434.0173.119.0302.21.0778.275.1428.072.0642.12.1417.144.2327.031.0831.051.1674.061.2528.014.1353.015.2721.001.4105-.013.1383-.05.2684-.108.3901-.06.1145-.146.214-.259.2985-.113.0915-.261.1546-.444.1891-.867.1812-1.661.333-2.382.4552-.714.1214-1.291.2458-1.731.3732z"/><path d="m144.627 24.4473c-.776.085-1.506.0316-2.19-.1601-.677-.1925-1.276-.498-1.797-.9164-.522-.4255-.951-.9513-1.286-1.5774-.335-.6262-.546-1.3343-.632-2.1245-.047-.4272-.056-.8404-.028-1.2397.035-.4073.098-.7887.188-1.1445.043-.1415.06-.2407.054-.2976-.008-.0712-.033-.1369-.075-.1971-.043-.0602-.09-.1235-.14-.19-.051-.0665-.098-.137-.142-.2114s-.072-.1615-.083-.2611c-.032-.299.107-.6096.417-.9318.31-.3292.734-.635 1.272-.9173.538-.2893 1.155-.5406 1.852-.7538.696-.2203 1.418-.3714 2.166-.4532.918-.1005 1.757-.0734 2.516.0812.766.1539 1.429.4235 1.99.8088.567.3773 1.024.864 1.37 1.4601s.562 1.2857.648 2.0688c.096.8756.011 1.7134-.254 2.5133-.267.7928-.675 1.5003-1.227 2.1226-.544.6215-1.212 1.1376-2.002 1.5484-.791.4107-1.664.6683-2.617.7727zm3.999-6.3056c-.061-.5553-.211-1.0431-.452-1.4635-.24-.4203-.558-.7601-.954-1.0193-.397-.2664-.871-.4487-1.422-.5469-.544-.106-1.151-.1224-1.82-.0492-1.175.1286-2.029.5246-2.561 1.1881-.526.6555-.725 1.5706-.597 2.7452.063.5695.209 1.083.439 1.5405.23.4504.523.8289.881 1.1355.357.2996.767.5213 1.229.6652.469.136.97.1747 1.504.1163.612-.067 1.164-.2211 1.657-.4623.491-.2483.9-.5632 1.226-.9447.332-.3822.576-.8195.731-1.312.154-.4996.201-1.0305.139-1.5929z"/><path d="m155.432 23.1565c-.026-.235-.07-.5399-.132-.9149-.056-.3757-.123-.7898-.201-1.2423-.079-.4525-.164-.9331-.255-1.4418-.092-.5086-.187-1.0134-.285-1.5141-.098-.5008-.194-.9838-.288-1.4489-.088-.4731-.171-.8999-.249-1.2804-.116-.542-.239-.9356-.367-1.181-.127-.2454-.305-.3556-.533-.3306-.213.0233-.349.0994-.407.2282-.051.1281-.074.2819-.068.4614.012.1788.03.3749.053.5885.03.2056.019.4014-.033.5871-.044.185-.153.3482-.324.4894-.172.1413-.45.233-.835.2751-.27.0296-.514-.0554-.73-.2551-.217-.2067-.349-.5237-.396-.9508-.066-.598.053-1.1585.356-1.6816.295-.5294.744-1 1.348-1.4118.602-.419 1.345-.7741 2.228-1.0652.883-.2912 1.876-.4972 2.98-.618.79-.0865 1.529-.0774 2.218.0273.688.0977 1.291.2766 1.81.5368.524.2524.949.5769 1.273.9737.324.3896.513.8336.567 1.3319.062.5624-.043 1.1178-.314 1.6662-.272.5484-.672 1.0677-1.202 1.558-.523.4895-1.155.9369-1.896 1.3421-.741.3982-1.547.735-2.418 1.0104-.244.07-.352.2367-.323.5001.019.1779.055.401.106.6692.057.2603.112.5352.165.8247.061.2888.117.5744.17.8568.059.2816.101.5328.126.7535.043.3986-.018.6935-.185.8846-.166.1912-.431.3066-.794.3463-.341.0374-.615.0061-.821-.0938-.204-.0929-.319-.2532-.344-.481zm5.554-9.2855c-.027-.242-.155-.4621-.386-.6602-.23-.1981-.529-.3634-.897-.4961-.367-.1327-.788-.2235-1.262-.2725-.466-.0498-.952-.0471-1.458.0083-.249.0272-.458.0609-.626.101-.162.0321-.291.075-.386.1286-.095.0537-.16.1184-.195.1943-.028.0679-.037.1553-.025.2621.008.0712.037.2373.087.4984.049.2539.11.5498.183.8876s.148.6934.225 1.0668c.084.3655.163.6955.238.9898.046.2183.09.3611.134.4284.05.0666.118.0951.204.0858.242-.0265.515-.0961.82-.2087.304-.1197.612-.2651.924-.4362.319-.179.626-.3746.92-.5869.3-.2201.563-.4435.791-.6701.233-.2345.414-.4632.541-.686.133-.2307.189-.4422.168-.6344z"/><path d="m165.219 18.1841c-.022.0023-.057.0098-.106.0224-.042.0118-.091.0243-.147.0377-.049.0126-.098.0251-.147.0377s-.088.0204-.117.0235c-.199.0219-.382-.0409-.55-.1883-.168-.1545-.267-.3705-.298-.6482-.02-.1851.021-.3697.124-.5538.102-.1841.275-.3471.519-.4891.074-.0441.13-.0899.168-.1373.045-.0553.062-.1256.053-.2111-.025-.2278-.059-.469-.101-.7238-.036-.2626-.084-.5671-.143-.9136-.015-.0704-.047-.1353-.097-.1947-.043-.0602-.093-.1267-.152-.1996-.052-.0807-.101-.169-.147-.2648-.047-.0957-.078-.2184-.095-.3679-.015-.1352-.014-.2902.003-.465.024-.1826.088-.3553.192-.5181.111-.1706.272-.3178.481-.4417.216-.1317.506-.2174.869-.2572.15-.0163.276-.0157.379.0019.102.0175.192.0438.267.0787.083.027.154.0516.214.0739.067.0214.133.0287.197.0217.114-.0125.339-.0588.676-.1389s.74-.1855 1.208-.316c.476-.1313.996-.2783 1.562-.4411.573-.1636 1.152-.335 1.738-.5144.584-.1865 1.155-.3714 1.711-.55476.557-.18336 1.06-.35732 1.51-.52188.139-.05118.261-.08261.368-.0943.149-.01636.271.00637.364.06821.1.05394.176.12841.23.22339.053.09499.091.20617.112.33353.027.11951.047.23261.059.33941.02.1851-.025.3665-.135.5442-.104.1699-.293.3167-.568.4404-.682.2836-1.374.5431-2.076.7784-.696.2274-1.399.4449-2.111.6526-.713.2005-1.431.3907-2.153.5706-.723.1799-1.441.3595-2.157.5386-.098.0252-.168.0725-.211.142-.044.0625-.06.1435-.049.2432l.048.4378c.013.121.03.2452.051.3725.022.1274.049.2433.082.3478.04.1036.085.1887.136.2552.049.0594.11.0852.181.0774.171-.0187.43-.0831.779-.1933.355-.1109.751-.2407 1.189-.3895.444-.1566.905-.3224 1.383-.4972.484-.1826.941-.348 1.372-.496.43-.1551.808-.2865 1.135-.3943.326-.1078.557-.1692.693-.184.199-.0218.357.0366.473.1752.122.1307.213.3044.273.5212.004.0356.011.0673.021.0949.01.0277.017.0594.021.095.023.2064-.02.4057-.129.5977-.102.1841-.309.3364-.62.4569-.082.0378-.248.1028-.497.1949-.25.085-.545.1893-.884.3129-.341.1165-.709.2432-1.104.3802-.396.137-.784.2731-1.166.4085-.382.1283-.739.2539-1.072.3767-.326.115-.593.209-.801.2822-.187.0709-.3.1229-.339.1561-.033.0323-.047.0699-.042.1126.031.1551.126.2924.283.4121.164.1189.363.2232.596.313.24.0889.504.1645.792.2266.295.0614.595.1078.901.1391.313.0235.617.037.912.0407.296.0036.569-.0082.818-.0355.107-.0117.26-.0284.459-.0503.199-.0218.416-.0491.65-.0819.241-.0408.484-.0855.731-.1341.254-.0494.479-.1028.674-.1602.202-.0653.364-.1335.486-.2045.128-.0788.188-.161.178-.2464-.008-.0783-.046-.1571-.112-.2363-.059-.0799-.094-.1698-.105-.2694-.016-.1424.008-.2855.072-.4293.062-.151.148-.2865.258-.4065.115-.1279.248-.2325.398-.3137.156-.0891.315-.1427.479-.1606.207-.0226.4-.0005.58.0662.18.0596.337.1504.473.2724.142.1142.255.2531.337.417.09.163.145.3336.164.5115.052.4699-.078.8947-.39 1.2746-.304.3792-.722.7094-1.253.9909-.53.2886-1.138.5245-1.824.7076-.685.1903-1.38.324-2.085.4012-.826.0903-1.587.116-2.283.0769-.695-.032-1.326-.1394-1.894-.3222-.567-.1828-1.068-.445-1.501-.7866-.435-.3486-.807-.787-1.117-1.315-.103-.1544-.205-.2261-.304-.2152z"/><path d="m180.456 10.9833c-.136.0725-.272.1162-.407.131-.342.0374-.599-.1398-.771-.5315-.048-.1029-.082-.1892-.104-.2588-.015-.0704-.026-.1341-.032-.191-.037-.33463.125-.60445.484-.80948.715-.38082 1.45-.70624 2.206-.97628.756-.27003 1.529-.44829 2.319-.53479.37-.04052.737-.04111 1.102-.00177.371.03857.71.13837 1.016.29941.306.16105.565.392.778.69287s.346.69335.399 1.17744c.038.3417.002.677-.106 1.0058-.101.328-.25.6469-.446.9566-.197.3097-.427.6086-.691.8969-.264.2882-.537.5559-.82.8029-.282.2471-.564.476-.843.6867-.28.2036-.535.3827-.763.5373-.193.1437-.282.2795-.268.4077.016.1495.139.2549.369.3161.792.1872 1.599.3546 2.422.5022.823.1477 1.66.3226 2.51.5249.4.1003.617.2999.649.5989.016.1424-.011.293-.08.4519-.062.1509-.137.2923-.223.4243-.173.3287-.413.5098-.719.5433-.107.0117-.241.0048-.402-.0208-.482-.1273-1.001-.2579-1.556-.3916-.548-.1346-1.109-.264-1.685-.3883-.569-.1322-1.13-.2545-1.683-.367-.553-.1195-1.065-.2255-1.537-.318-.168-.0248-.281-.0341-.338-.0278-.057.0062-.101.0255-.134.0579-.026.0244-.035.0758-.026.1541.002.0214.009.0495.02.0843.01.0277.017.0593.021.0949.033.1045.074.2441.122.419.054.1669.105.3414.154.5234.056.1812.104.356.144.5246.039.1614.065.2954.076.4022.044.3987-.143.7001-.56.9042l-.464.2021c-.069.0292-.131.0504-.187.0638-.056.0205-.116.0342-.18.0412-.391.0429-.646-.1742-.763-.6513-.312-1.2769-.673-2.5306-1.081-3.7611-.402-1.2312-.842-2.4546-1.321-3.6701-.029-.0688-.05-.1278-.062-.1768-.006-.057-.012-.1068-.016-.1495-.042-.3773.133-.6558.524-.8355.144-.0662.261-.1186.35-.1572.097-.0394.173-.0693.228-.0898.062-.0284.107-.0477.134-.0579.035-.011.067-.0181.095-.0212.385-.0421.658.1478.819.5695.21.539.408 1.0612.593 1.5669.192.5049.369 1.0042.531 1.4979.085.243.201.3563.351.3399.043-.0047.092-.0173.147-.0377.055-.0276.119-.0635.194-.1077.214-.1459.472-.3254.773-.5385.308-.2138.624-.4466.95-.6983.332-.2597.655-.5292.97-.8087.323-.2802.606-.5561.85-.8278.251-.2724.449-.5355.594-.7891.146-.2536.207-.4837.184-.6901-.014-.1281-.048-.2433-.102-.3454-.048-.1029-.129-.18762-.244-.25424-.116-.06662-.268-.11115-.458-.1336-.183-.02324-.413-.01966-.691.01073-.27.02962-.552.0857-.846.16826-.287.07465-.572.16715-.855.27735-.284.1103-.562.2308-.836.3617-.274.1308-.533.2636-.778.3985z"/><path d="m191.435 13.5422c.046.4271.193.8145.44 1.162.254.3397.566.6297.938.8699.372.2331.787.4039 1.245.5122.458.1011.918.1264 1.381.0758.142-.0156.287-.0423.434-.08.147-.0448.277-.1059.391-.1832.114-.0774.204-.1701.272-.2784.066-.1153.091-.2513.074-.4079-.033-.299-.172-.5828-.417-.8513-.239-.2693-.544-.5276-.917-.7749-.374-.2545-.797-.4999-1.27-.7364-.473-.2436-.953-.4828-1.44-.7177-.487-.2348-.966-.4705-1.439-.707-.473-.2435-.896-.489-1.269-.7363-.374-.2545-.683-.516-.929-.78448-.239-.2764-.375-.56409-.408-.86309-.031-.28476.012-.55595.127-.81358.123-.26553.294-.5112.514-.73703.22-.22582.482-.43458.785-.62626s.624-.36001.961-.50498c.337-.14496.677-.26146 1.021-.34947.349-.09592.684-.16141 1.005-.19648.235-.02571.492-.04665.771-.0628.285-.02405.552-.02085.801.00961.254.02256.469.07827.645.16713.175.08886.274.23295.295.43228.007.06408.006.14711-.005.24911-.011.09489-.054.25813-.13.48973-.077.21735-.177.38683-.301.50842-.117.11369-.279.18184-.485.20443-.292.03195-.605.03382-.94.00559-.328-.03612-.656-.03626-.983-.00041-.178.01948-.359.05003-.541.09165-.177.03372-.337.08367-.481.14987-.145.05908-.258.13996-.341.24263-.083.09556-.117.21097-.102.34623.014.13526.127.2778.338.42761.218.14904.499.30924.842.48063.35.1706.745.35788 1.185.56186.439.1968.888.4143 1.347.6523.464.2301.92.4827 1.368.7578.448.2681.851.5625 1.21.8834.366.313.666.6547.901 1.0252.242.3698.387.7646.433 1.1847.056.5125-.012.9774-.204 1.3947-.192.4172-.459.7778-.801 1.0818-.341.3039-.729.5445-1.163.7217-.434.1843-.864.2999-1.291.3467-.435.0475-.882.0424-1.342-.0153-.452-.0513-.896-.1505-1.329-.2975-.434-.1399-.846-.3217-1.238-.5454-.386-.2315-.728-.4966-1.027-.7952-.3-.3058-.55-.6423-.748-1.0096-.192-.3681-.311-.7621-.357-1.1821-.019-.178-.028-.3571-.026-.5374.008-.1883.037-.3535.086-.4958.049-.1494.125-.273.23-.3709.103-.105.244-.1673.422-.1867.057-.0063.122-.0062.195.0003.072-.0007.2.0177.384.0552.214.0414.406.1248.579.25.178.1174.279.2864.304.5071z"/></g><g stroke="#ff659d" stroke-width="2"><path d="m64.5001 16.9998c-4.8-2.4001-6 6-6 10.5-2.8742-6.1397-6.9577-6.4137-9.3976-5.5345-.7406.2668-1.2387.9653-1.2475 1.7525-.0681 6.0884 9.3949 12.0946 13.1451 16.7822 3.1666-6.8334 8.2999-21.1001 3.5-23.5002z"/><path d="m4.6615 60.7681c.41145-13.458 2.86655-25.4631 34.06-28.8777"/></g></svg>