<svg width="202" height="61" viewBox="0 0 202 61" fill="none" xmlns="http://www.w3.org/2000/svg">
<path d="M75.8116 22.3732C75.7206 22.3976 75.6434 22.4168 75.5802 22.4309C75.5169 22.4451 75.4639 22.4545 75.4211 22.4592C75.1775 22.4714 74.9993 22.4225 74.8864 22.3124C74.7727 22.1951 74.6999 21.9906 74.6679 21.6987C74.6048 21.1221 74.8427 20.7286 75.3816 20.5183C75.8603 20.3507 76.3782 20.2111 76.9351 20.0997C77.4913 19.9812 78.1146 19.8842 78.8052 19.8086C79.7306 19.7073 80.6587 19.6958 81.5894 19.774C82.5272 19.8514 83.4262 20.0016 84.2863 20.2244C85.1527 20.4393 85.9652 20.7214 86.7239 21.0706C87.4818 21.4127 88.1478 21.8045 88.722 22.2459C89.3026 22.6795 89.7688 23.1543 90.1207 23.6706C90.4789 24.1789 90.688 24.7071 90.748 25.2553C90.8088 25.8105 90.6782 26.3615 90.3563 26.9083C90.0406 27.4471 89.5871 27.9434 88.9955 28.3972C88.404 28.851 87.7043 29.2374 86.8963 29.5564C86.0883 29.8753 85.2287 30.0847 84.3175 30.1844C83.5914 30.2639 82.8258 30.2793 82.0208 30.2305C81.2158 30.1818 80.32 30.0601 79.3333 29.8655C78.8787 29.7928 78.6284 29.5465 78.5824 29.1264C78.5723 29.0339 78.5843 28.9461 78.6184 28.8631C78.6526 28.7802 78.6871 28.7007 78.722 28.6249C78.7641 28.5482 78.8029 28.4755 78.8386 28.4068C78.8735 28.3309 78.8871 28.2574 78.8793 28.1862C78.8349 27.7804 78.766 27.3485 78.6726 26.8905C78.5864 26.4316 78.4823 25.9747 78.3605 25.5198C78.2458 25.0641 78.1192 24.6313 77.9806 24.2214C77.8485 23.8036 77.7182 23.436 77.5898 23.1187C77.4614 22.8014 77.3368 22.552 77.2161 22.3707C77.1018 22.1815 77.0054 22.0912 76.9271 22.0998C76.8061 22.113 76.6582 22.1436 76.4833 22.1916C76.3156 22.2388 76.0917 22.2993 75.8116 22.3732ZM79.9041 21.7523C79.6976 21.7749 79.6022 21.8574 79.6178 21.9998C79.6217 22.0354 79.639 22.0947 79.6697 22.1778C79.7004 22.2609 79.7472 22.3927 79.8102 22.5731C79.907 22.8651 80.0026 23.1788 80.0969 23.5143C80.1913 23.8497 80.2903 24.2279 80.394 24.6488C80.4969 25.0626 80.6022 25.5302 80.7097 26.0515C80.8235 26.565 80.9447 27.146 81.0734 27.7947C81.0922 27.9008 81.1996 27.9935 81.3956 28.0729C81.5908 28.1451 81.8458 28.2037 82.1605 28.2485C82.4744 28.2862 82.8298 28.3085 83.2268 28.3155C83.6301 28.3145 84.0418 28.2911 84.4618 28.2451C85.0171 28.1843 85.5405 28.0622 86.0319 27.8787C86.5296 27.6874 86.9587 27.4603 87.3189 27.1975C87.6863 26.934 87.9679 26.6438 88.1638 26.327C88.3668 26.0094 88.4511 25.694 88.4168 25.3808C88.3599 24.8611 88.0981 24.3782 87.6315 23.9322C87.1719 23.4854 86.5608 23.1021 85.7982 22.7821C85.0348 22.455 84.1498 22.2025 83.1433 22.0245C82.1361 21.8394 81.0563 21.7487 79.9041 21.7523Z" fill="#FF659D"/>
<path d="M92.5414 26.1396C92.5201 26.1419 92.4849 26.1494 92.4358 26.1619C92.3939 26.1737 92.3448 26.1863 92.2887 26.1997C92.2396 26.2122 92.1906 26.2248 92.1415 26.2374C92.0925 26.25 92.0537 26.2578 92.0252 26.2609C91.8259 26.2827 91.6425 26.22 91.4751 26.0726C91.3069 25.9181 91.2076 25.702 91.1772 25.4244C91.1569 25.2393 91.198 25.0547 91.3003 24.8706C91.4026 24.6865 91.5757 24.5235 91.8195 24.3815C91.8939 24.3374 91.9501 24.2916 91.9882 24.2442C92.0325 24.1889 92.0501 24.1185 92.0407 24.0331C92.0158 23.8053 91.9822 23.5641 91.9399 23.3093C91.9039 23.0467 91.8562 22.7422 91.7966 22.3957C91.7817 22.3253 91.7494 22.2603 91.6997 22.201C91.6571 22.1408 91.6066 22.0743 91.5482 22.0014C91.4961 21.9207 91.4468 21.8324 91.4003 21.7366C91.3538 21.6409 91.3224 21.5182 91.306 21.3687C91.2912 21.2335 91.2922 21.0785 91.3091 20.9037C91.3324 20.7211 91.3963 20.5484 91.501 20.3856C91.612 20.215 91.7723 20.0678 91.9821 19.9439C92.1982 19.8122 92.4878 19.7265 92.8509 19.6867C93.0004 19.6704 93.1265 19.671 93.2293 19.6885C93.3321 19.7061 93.4214 19.7323 93.4973 19.7673C93.5795 19.7943 93.6506 19.8189 93.7107 19.8412C93.7779 19.8626 93.8435 19.8699 93.9076 19.8628C94.0215 19.8504 94.247 19.8041 94.584 19.724C94.921 19.6438 95.3237 19.5385 95.7921 19.408C96.2676 19.2767 96.7883 19.1297 97.354 18.9669C97.9268 18.8033 98.506 18.6318 99.0915 18.4525C99.6763 18.266 100.247 18.0811 100.803 17.8977C101.359 17.7144 101.863 17.5404 102.313 17.3758C102.451 17.3247 102.574 17.2932 102.681 17.2815C102.83 17.2652 102.952 17.2879 103.045 17.3498C103.144 17.4037 103.221 17.4782 103.275 17.5731C103.328 17.6681 103.366 17.7793 103.387 17.9067C103.414 18.0261 103.434 18.1393 103.446 18.246C103.466 18.4311 103.421 18.6126 103.311 18.7903C103.207 18.9602 103.017 19.107 102.743 19.2307C102.061 19.5143 101.369 19.7738 100.667 20.0091C99.9712 20.2365 99.2674 20.454 98.5553 20.6617C97.8424 20.8622 97.1248 21.0524 96.4025 21.2323C95.6801 21.4122 94.9613 21.5918 94.2461 21.7709C94.148 21.7961 94.0776 21.8434 94.0347 21.9129C93.9911 21.9753 93.9748 22.0564 93.9857 22.156L94.0336 22.5939C94.0469 22.7149 94.0641 22.8391 94.0852 22.9664C94.1064 23.0938 94.1335 23.2097 94.1665 23.3141C94.2067 23.4178 94.252 23.5029 94.3025 23.5694C94.3522 23.6288 94.4127 23.6546 94.4839 23.6468C94.6547 23.6281 94.9142 23.5637 95.2624 23.4535C95.6177 23.3426 96.0141 23.2128 96.4517 23.064C96.8956 22.9073 97.3565 22.7416 97.8345 22.5668C98.3188 22.3841 98.7762 22.2188 99.2066 22.0708C99.6363 21.9157 100.015 21.7843 100.341 21.6765C100.668 21.5686 100.899 21.5073 101.034 21.4925C101.234 21.4707 101.391 21.5291 101.507 21.6677C101.63 21.7984 101.721 21.9721 101.781 22.1889C101.785 22.2245 101.792 22.2561 101.802 22.2838C101.812 22.3115 101.819 22.3432 101.823 22.3788C101.846 22.5852 101.803 22.7844 101.694 22.9764C101.592 23.1605 101.385 23.3128 101.074 23.4333C100.992 23.4712 100.826 23.5361 100.577 23.6283C100.327 23.7133 100.032 23.8176 99.6924 23.9412C99.3521 24.0577 98.9841 24.1844 98.5885 24.3214C98.1928 24.4583 97.8043 24.5945 97.4229 24.7299C97.0407 24.8582 96.6834 24.9838 96.3511 25.1066C96.0251 25.2215 95.758 25.3156 95.5499 25.3888C95.3631 25.4597 95.25 25.5117 95.2104 25.5449C95.1779 25.5772 95.164 25.6148 95.1687 25.6575C95.2 25.8125 95.2943 25.9499 95.4515 26.0696C95.6158 26.1885 95.8145 26.2928 96.0477 26.3825C96.288 26.4715 96.552 26.5471 96.8398 26.6092C97.1346 26.6706 97.4351 26.717 97.7411 26.7483C98.0534 26.7717 98.3575 26.7853 98.6533 26.7889C98.9491 26.7926 99.2215 26.7808 99.4707 26.7535C99.5775 26.7418 99.7305 26.725 99.9299 26.7032C100.129 26.6814 100.346 26.6541 100.58 26.6212C100.821 26.5805 101.064 26.5358 101.311 26.4872C101.565 26.4378 101.79 26.3844 101.985 26.327C102.187 26.2617 102.349 26.1935 102.471 26.1225C102.599 26.0437 102.658 25.9615 102.649 25.8761C102.64 25.7978 102.603 25.719 102.537 25.6398C102.477 25.5599 102.442 25.47 102.432 25.3704C102.416 25.228 102.44 25.0849 102.503 24.9411C102.566 24.7901 102.652 24.6546 102.761 24.5346C102.877 24.4066 103.01 24.3021 103.159 24.2209C103.315 24.1317 103.475 24.0782 103.639 24.0603C103.845 24.0377 104.039 24.0598 104.219 24.1265C104.398 24.1861 104.556 24.2769 104.692 24.3989C104.834 24.513 104.946 24.652 105.029 24.8159C105.119 24.9789 105.174 25.1494 105.193 25.3274C105.245 25.7973 105.115 26.2221 104.803 26.602C104.499 26.9811 104.081 27.3114 103.55 27.5929C103.02 27.8815 102.412 28.1174 101.726 28.3005C101.04 28.4908 100.345 28.6245 99.6407 28.7016C98.8149 28.792 98.0541 28.8177 97.3582 28.7786C96.6631 28.7466 96.0318 28.6392 95.4642 28.4564C94.8967 28.2736 94.3961 28.0114 93.9625 27.6698C93.5281 27.3211 93.1559 26.8828 92.846 26.3548C92.7426 26.2004 92.6411 26.1287 92.5414 26.1396Z" fill="#FF659D"/>
<path d="M106.381 23.1442C105.986 22.6975 105.612 22.2774 105.259 21.8838C104.913 21.4822 104.605 21.1088 104.337 20.7636C104.068 20.4112 103.852 20.0854 103.69 19.7862C103.52 19.4878 103.421 19.2105 103.393 18.9542C103.379 18.826 103.421 18.681 103.519 18.519C103.608 18.3507 103.721 18.1943 103.856 18.0498C103.991 17.8982 104.132 17.7711 104.279 17.6685C104.433 17.558 104.563 17.497 104.67 17.4853C104.926 17.4572 105.164 17.5932 105.384 17.8933C105.479 18.0342 105.621 18.2421 105.809 18.5168C106.004 18.7836 106.229 19.0905 106.483 19.4373C106.736 19.777 107.014 20.1428 107.316 20.5347C107.625 20.9188 107.937 21.3025 108.253 21.6858C108.575 22.0683 108.893 22.4369 109.206 22.7918C109.525 23.1387 109.825 23.4444 110.106 23.709C110.394 23.9728 110.655 24.1821 110.888 24.3367C111.127 24.4833 111.325 24.5481 111.482 24.531C111.688 24.5084 111.861 24.3454 112.001 24.0419C112.141 23.7384 112.256 23.3475 112.348 22.8692C112.447 22.3901 112.521 21.8525 112.571 21.2563C112.621 20.6529 112.655 20.044 112.674 19.4296C112.7 18.8143 112.715 18.222 112.717 17.6526C112.719 17.0761 112.718 16.5719 112.714 16.1401C112.71 15.9099 112.756 15.7321 112.85 15.6065C112.943 15.4738 113.076 15.3981 113.246 15.3793C113.396 15.363 113.563 15.3771 113.748 15.4217C113.933 15.4663 114.11 15.5369 114.279 15.6337C114.448 15.7233 114.59 15.8375 114.706 15.976C114.828 16.1067 114.899 16.2575 114.917 16.4284C114.946 16.6918 114.955 17.0042 114.944 17.3656C114.941 17.7262 114.925 18.1097 114.897 18.5162C114.876 18.9147 114.845 19.3251 114.805 19.7474C114.764 20.1625 114.721 20.5563 114.675 20.9287C114.646 21.1912 114.603 21.5201 114.545 21.9155C114.494 22.3029 114.421 22.718 114.325 23.1607C114.229 23.5963 114.108 24.0382 113.962 24.4864C113.816 24.9274 113.637 25.3325 113.425 25.7014C113.213 26.0633 112.961 26.3646 112.671 26.6053C112.388 26.8524 112.054 26.997 111.67 27.0391C111.392 27.0695 111.095 27.0227 110.779 26.8988C110.464 26.7821 110.143 26.6155 109.817 26.399C109.491 26.1826 109.164 25.9337 108.838 25.6525C108.511 25.3641 108.198 25.0705 107.899 24.7719C107.6 24.4733 107.319 24.1833 107.058 23.9022C106.796 23.6139 106.57 23.3612 106.381 23.1442Z" fill="#FF659D"/>
<path d="M118.34 23.3155C118.319 23.3179 118.284 23.3253 118.235 23.3379C118.193 23.3497 118.144 23.3623 118.088 23.3756C118.039 23.3882 117.99 23.4008 117.941 23.4133C117.891 23.4259 117.853 23.4338 117.824 23.4369C117.625 23.4587 117.442 23.3959 117.274 23.2486C117.106 23.0941 117.007 22.878 116.976 22.6004C116.956 22.4153 116.997 22.2307 117.099 22.0466C117.202 21.8625 117.375 21.6994 117.619 21.5575C117.693 21.5133 117.749 21.4675 117.787 21.4201C117.832 21.3649 117.849 21.2945 117.84 21.2091C117.815 20.9813 117.781 20.74 117.739 20.4853C117.703 20.2227 117.655 19.9181 117.596 19.5716C117.581 19.5012 117.548 19.4363 117.499 19.3769C117.456 19.3167 117.406 19.2502 117.347 19.1774C117.295 19.0966 117.246 19.0084 117.199 18.9126C117.153 18.8168 117.121 18.6942 117.105 18.5447C117.09 18.4094 117.091 18.2544 117.108 18.0797C117.131 17.897 117.195 17.7243 117.3 17.5616C117.411 17.3909 117.571 17.2437 117.781 17.1199C117.997 16.9882 118.287 16.9024 118.65 16.8627C118.799 16.8463 118.926 16.8469 119.028 16.8645C119.131 16.8821 119.22 16.9083 119.296 16.9432C119.379 16.9702 119.45 16.9949 119.51 17.0171C119.577 17.0386 119.643 17.0458 119.707 17.0388C119.821 17.0263 120.046 16.98 120.383 16.8999C120.72 16.8198 121.123 16.7145 121.591 16.584C122.067 16.4527 122.587 16.3056 123.153 16.1428C123.726 15.9793 124.305 15.8078 124.891 15.6284C125.475 15.442 126.046 15.257 126.602 15.0737C127.158 14.8903 127.662 14.7164 128.112 14.5518C128.25 14.5006 128.373 14.4692 128.48 14.4575C128.629 14.4411 128.751 14.4639 128.844 14.5257C128.943 14.5796 129.02 14.6541 129.074 14.7491C129.127 14.8441 129.165 14.9553 129.186 15.0826C129.213 15.2021 129.233 15.3152 129.245 15.422C129.265 15.6071 129.22 15.7885 129.11 15.9663C129.006 16.1361 128.816 16.2829 128.542 16.4067C127.86 16.6903 127.168 16.9497 126.466 17.185C125.77 17.4125 125.066 17.63 124.354 17.8376C123.641 18.0381 122.924 18.2283 122.201 18.4083C121.479 18.5882 120.76 18.7677 120.045 18.9469C119.947 18.972 119.877 19.0194 119.834 19.0889C119.79 19.1513 119.774 19.2323 119.785 19.332L119.833 19.7698C119.846 19.8908 119.863 20.015 119.884 20.1424C119.905 20.2697 119.932 20.3856 119.966 20.4901C120.006 20.5938 120.051 20.6789 120.102 20.7454C120.151 20.8048 120.212 20.8306 120.283 20.8228C120.454 20.8041 120.713 20.7396 121.061 20.6295C121.417 20.5186 121.813 20.3887 122.251 20.24C122.695 20.0833 123.156 19.9176 123.634 19.7428C124.118 19.5601 124.575 19.3948 125.006 19.2468C125.435 19.0917 125.814 18.9602 126.14 18.8524C126.467 18.7446 126.698 18.6833 126.833 18.6685C127.033 18.6467 127.19 18.705 127.307 18.8436C127.429 18.9743 127.52 19.1481 127.58 19.3649C127.584 19.4004 127.591 19.4321 127.601 19.4598C127.611 19.4875 127.618 19.5191 127.622 19.5547C127.645 19.7612 127.602 19.9604 127.493 20.1524C127.391 20.3365 127.184 20.4888 126.873 20.6093C126.791 20.6471 126.625 20.7121 126.376 20.8042C126.126 20.8892 125.831 20.9935 125.491 21.1171C125.151 21.2336 124.783 21.3604 124.388 21.4973C123.992 21.6343 123.603 21.7705 123.222 21.9059C122.84 22.0342 122.482 22.1597 122.15 22.2826C121.824 22.3975 121.557 22.4916 121.349 22.5648C121.162 22.6356 121.049 22.6877 121.009 22.7208C120.977 22.7532 120.963 22.7907 120.968 22.8334C120.999 22.9885 121.093 23.1259 121.251 23.2455C121.415 23.3644 121.614 23.4688 121.847 23.5585C122.087 23.6475 122.351 23.723 122.639 23.7852C122.934 23.8466 123.234 23.8929 123.54 23.9243C123.852 23.9477 124.157 23.9612 124.452 23.9649C124.748 23.9685 125.021 23.9567 125.27 23.9294C125.376 23.9178 125.53 23.901 125.729 23.8792C125.928 23.8574 126.145 23.83 126.379 23.7972C126.62 23.7565 126.863 23.7118 127.11 23.6632C127.364 23.6137 127.589 23.5603 127.784 23.5029C127.986 23.4376 128.148 23.3695 128.27 23.2985C128.398 23.2196 128.457 23.1375 128.448 23.052C128.439 22.9737 128.402 22.895 128.336 22.8158C128.276 22.7358 128.241 22.646 128.231 22.5463C128.215 22.4039 128.239 22.2608 128.302 22.117C128.365 21.9661 128.451 21.8306 128.56 21.7105C128.676 21.5826 128.809 21.478 128.958 21.3968C129.114 21.3077 129.274 21.2542 129.438 21.2363C129.644 21.2137 129.838 21.2357 130.018 21.3025C130.197 21.3621 130.355 21.4529 130.491 21.5749C130.633 21.689 130.745 21.828 130.828 21.9918C130.918 22.1549 130.973 22.3254 130.992 22.5034C131.044 22.9732 130.914 23.3981 130.602 23.778C130.298 24.1571 129.88 24.4874 129.349 24.7689C128.819 25.0574 128.211 25.2933 127.525 25.4765C126.839 25.6667 126.145 25.8004 125.44 25.8776C124.614 25.968 123.853 25.9936 123.157 25.9545C122.462 25.9226 121.831 25.8152 121.263 25.6323C120.696 25.4495 120.195 25.1873 119.762 24.8458C119.327 24.4971 118.955 24.0588 118.645 23.5307C118.542 23.3764 118.44 23.3046 118.34 23.3155Z" fill="#FF659D"/>
<path d="M134.277 24.9643C134.074 25.0225 133.893 25.0819 133.734 25.1426C133.576 25.2103 133.376 25.2574 133.134 25.2839C132.87 25.3128 132.659 25.2602 132.5 25.1263C132.342 24.9924 132.252 24.8329 132.232 24.6478C132.216 24.4983 132.219 24.3034 132.244 24.063C132.267 23.8155 132.265 23.5707 132.239 23.3287C132.089 22.4158 131.922 21.5155 131.738 20.6279C131.561 19.7324 131.392 18.9151 131.232 18.1762C131.072 17.4373 130.934 16.8076 130.82 16.287C130.704 15.7593 130.636 15.3994 130.615 15.2071C130.601 15.079 130.62 14.958 130.673 14.8442C130.724 14.7233 130.802 14.6139 130.907 14.516C131.011 14.4181 131.136 14.3396 131.281 14.2806C131.432 14.2136 131.593 14.1707 131.764 14.152C132.098 14.1154 132.35 14.1419 132.518 14.2316C132.686 14.3141 132.8 14.4673 132.86 14.6912C133.227 16.2 133.523 17.5904 133.749 18.8624C133.981 20.1266 134.176 21.3155 134.334 22.4293C134.352 22.5931 134.408 22.713 134.503 22.789C134.605 22.8643 134.727 22.8942 134.87 22.8786C135.154 22.8474 135.441 22.8016 135.73 22.7412C136.018 22.6737 136.306 22.6061 136.594 22.5386C136.882 22.471 137.167 22.4074 137.448 22.3478C137.736 22.2803 138.015 22.2317 138.286 22.2021C138.464 22.1826 138.609 22.1884 138.72 22.2194C138.839 22.2496 138.93 22.2972 138.995 22.3622C139.067 22.4264 139.115 22.5039 139.139 22.5949C139.17 22.678 139.19 22.7623 139.2 22.8477C139.214 22.983 139.215 23.1198 139.201 23.2582C139.188 23.3965 139.151 23.5266 139.093 23.6483C139.033 23.7628 138.947 23.8623 138.834 23.9468C138.721 24.0383 138.573 24.1014 138.39 24.1359C137.523 24.3171 136.729 24.4689 136.008 24.5911C135.294 24.7125 134.717 24.8369 134.277 24.9643Z" fill="#FF659D"/>
<path d="M144.627 24.4473C143.851 24.5323 143.121 24.4789 142.437 24.2872C141.76 24.0947 141.161 23.7892 140.64 23.3708C140.118 22.9453 139.689 22.4195 139.354 21.7934C139.019 21.1672 138.808 20.4591 138.722 19.6689C138.675 19.2417 138.666 18.8285 138.694 18.4292C138.729 18.0219 138.792 17.6405 138.882 17.2847C138.925 17.1432 138.942 17.044 138.936 16.9871C138.928 16.9159 138.903 16.8502 138.861 16.79C138.818 16.7298 138.771 16.6665 138.721 16.6C138.67 16.5335 138.623 16.463 138.579 16.3886C138.535 16.3142 138.507 16.2271 138.496 16.1275C138.464 15.8285 138.603 15.5179 138.913 15.1957C139.223 14.8665 139.647 14.5607 140.185 14.2784C140.723 13.9891 141.34 13.7378 142.037 13.5246C142.733 13.3043 143.455 13.1532 144.203 13.0714C145.121 12.9709 145.96 12.998 146.719 13.1526C147.485 13.3065 148.148 13.5761 148.709 13.9614C149.276 14.3387 149.733 14.8254 150.079 15.4215C150.425 16.0176 150.641 16.7072 150.727 17.4903C150.823 18.3659 150.738 19.2037 150.473 20.0036C150.206 20.7964 149.798 21.5039 149.246 22.1262C148.702 22.7477 148.034 23.2638 147.244 23.6746C146.453 24.0853 145.58 24.3429 144.627 24.4473ZM148.626 18.1417C148.565 17.5864 148.415 17.0986 148.174 16.6782C147.934 16.2579 147.616 15.9181 147.22 15.6589C146.823 15.3925 146.349 15.2102 145.798 15.112C145.254 15.006 144.647 14.9896 143.978 15.0628C142.803 15.1914 141.949 15.5874 141.417 16.2509C140.891 16.9064 140.692 17.8215 140.82 18.9961C140.883 19.5656 141.029 20.0791 141.259 20.5366C141.489 20.987 141.782 21.3655 142.14 21.6721C142.497 21.9717 142.907 22.1934 143.369 22.3373C143.838 22.4733 144.339 22.512 144.873 22.4536C145.485 22.3866 146.037 22.2325 146.53 21.9913C147.021 21.743 147.43 21.4281 147.756 21.0466C148.088 20.6644 148.332 20.2271 148.487 19.7346C148.641 19.235 148.688 18.7041 148.626 18.1417Z" fill="#FF659D"/>
<path d="M155.432 23.1565C155.406 22.9215 155.362 22.6166 155.3 22.2416C155.244 21.8659 155.177 21.4518 155.099 20.9993C155.02 20.5468 154.935 20.0662 154.844 19.5575C154.752 19.0489 154.657 18.5441 154.559 18.0434C154.461 17.5426 154.365 17.0596 154.271 16.5945C154.183 16.1214 154.1 15.6946 154.022 15.3141C153.906 14.7721 153.783 14.3785 153.655 14.1331C153.528 13.8877 153.35 13.7775 153.122 13.8025C152.909 13.8258 152.773 13.9019 152.715 14.0307C152.664 14.1588 152.641 14.3126 152.647 14.4921C152.659 14.6709 152.677 14.867 152.7 15.0806C152.73 15.2862 152.719 15.482 152.667 15.6677C152.623 15.8527 152.514 16.0159 152.343 16.1571C152.171 16.2984 151.893 16.3901 151.508 16.4322C151.238 16.4618 150.994 16.3768 150.778 16.1771C150.561 15.9704 150.429 15.6534 150.382 15.2263C150.316 14.6283 150.435 14.0678 150.738 13.5447C151.033 13.0153 151.482 12.5447 152.086 12.1329C152.688 11.7139 153.431 11.3588 154.314 11.0677C155.197 10.7765 156.19 10.5705 157.294 10.4497C158.084 10.3632 158.823 10.3723 159.512 10.477C160.2 10.5747 160.803 10.7536 161.322 11.0138C161.846 11.2662 162.271 11.5907 162.595 11.9875C162.919 12.3771 163.108 12.8211 163.162 13.3194C163.224 13.8818 163.119 14.4372 162.848 14.9856C162.576 15.534 162.176 16.0533 161.646 16.5436C161.123 17.0331 160.491 17.4805 159.75 17.8857C159.009 18.2839 158.203 18.6207 157.332 18.8961C157.088 18.9661 156.98 19.1328 157.009 19.3962C157.028 19.5741 157.064 19.7972 157.115 20.0654C157.172 20.3257 157.227 20.6006 157.28 20.8901C157.341 21.1789 157.397 21.4645 157.45 21.7469C157.509 22.0285 157.551 22.2797 157.576 22.5004C157.619 22.899 157.558 23.1939 157.391 23.385C157.225 23.5762 156.96 23.6916 156.597 23.7313C156.256 23.7687 155.982 23.7374 155.776 23.6375C155.572 23.5446 155.457 23.3843 155.432 23.1565ZM160.986 13.871C160.959 13.629 160.831 13.4089 160.6 13.2108C160.37 13.0127 160.071 12.8474 159.703 12.7147C159.336 12.582 158.915 12.4912 158.441 12.4422C157.975 12.3924 157.489 12.3951 156.983 12.4505C156.734 12.4777 156.525 12.5114 156.357 12.5515C156.195 12.5836 156.066 12.6265 155.971 12.6801C155.876 12.7338 155.811 12.7985 155.776 12.8744C155.748 12.9423 155.739 13.0297 155.751 13.1365C155.759 13.2077 155.788 13.3738 155.838 13.6349C155.887 13.8888 155.948 14.1847 156.021 14.5225C156.094 14.8603 156.169 15.2159 156.246 15.5893C156.33 15.9548 156.409 16.2848 156.484 16.5791C156.53 16.7974 156.574 16.9402 156.618 17.0075C156.668 17.0741 156.736 17.1026 156.822 17.0933C157.064 17.0668 157.337 16.9972 157.642 16.8846C157.946 16.7649 158.254 16.6195 158.566 16.4484C158.885 16.2694 159.192 16.0738 159.486 15.8615C159.786 15.6414 160.049 15.418 160.277 15.1914C160.51 14.9569 160.691 14.7282 160.818 14.5054C160.951 14.2747 161.007 14.0632 160.986 13.871Z" fill="#FF659D"/>
<path d="M165.219 18.1841C165.197 18.1864 165.162 18.1939 165.113 18.2065C165.071 18.2183 165.022 18.2308 164.966 18.2442C164.917 18.2568 164.868 18.2693 164.819 18.2819C164.77 18.2945 164.731 18.3023 164.702 18.3054C164.503 18.3273 164.32 18.2645 164.152 18.1171C163.984 17.9626 163.885 17.7466 163.854 17.4689C163.834 17.2838 163.875 17.0992 163.978 16.9151C164.08 16.731 164.253 16.568 164.497 16.426C164.571 16.3819 164.627 16.3361 164.665 16.2887C164.71 16.2334 164.727 16.1631 164.718 16.0776C164.693 15.8498 164.659 15.6086 164.617 15.3538C164.581 15.0912 164.533 14.7867 164.474 14.4402C164.459 14.3698 164.427 14.3049 164.377 14.2455C164.334 14.1853 164.284 14.1188 164.225 14.0459C164.173 13.9652 164.124 13.8769 164.078 13.7811C164.031 13.6854 164 13.5627 163.983 13.4132C163.968 13.278 163.969 13.123 163.986 12.9482C164.01 12.7656 164.074 12.5929 164.178 12.4301C164.289 12.2595 164.45 12.1123 164.659 11.9884C164.875 11.8567 165.165 11.771 165.528 11.7312C165.678 11.7149 165.804 11.7155 165.907 11.7331C166.009 11.7506 166.099 11.7769 166.174 11.8118C166.257 11.8388 166.328 11.8634 166.388 11.8857C166.455 11.9071 166.521 11.9144 166.585 11.9074C166.699 11.8949 166.924 11.8486 167.261 11.7685C167.598 11.6884 168.001 11.583 168.469 11.4525C168.945 11.3212 169.465 11.1742 170.031 11.0114C170.604 10.8478 171.183 10.6764 171.769 10.497C172.353 10.3105 172.924 10.1256 173.48 9.94224C174.037 9.75888 174.54 9.58492 174.99 9.42036C175.129 9.36918 175.251 9.33775 175.358 9.32606C175.507 9.3097 175.629 9.33243 175.722 9.39427C175.822 9.44821 175.898 9.52268 175.952 9.61766C176.005 9.71265 176.043 9.82383 176.064 9.95119C176.091 10.0707 176.111 10.1838 176.123 10.2906C176.143 10.4757 176.098 10.6571 175.988 10.8348C175.884 11.0047 175.695 11.1515 175.42 11.2752C174.738 11.5588 174.046 11.8183 173.344 12.0536C172.648 12.281 171.945 12.4985 171.233 12.7062C170.52 12.9067 169.802 13.0969 169.08 13.2768C168.357 13.4567 167.639 13.6363 166.923 13.8154C166.825 13.8406 166.755 13.8879 166.712 13.9574C166.668 14.0199 166.652 14.1009 166.663 14.2006L166.711 14.6384C166.724 14.7594 166.741 14.8836 166.762 15.0109C166.784 15.1383 166.811 15.2542 166.844 15.3587C166.884 15.4623 166.929 15.5474 166.98 15.6139C167.029 15.6733 167.09 15.6991 167.161 15.6913C167.332 15.6726 167.591 15.6082 167.94 15.498C168.295 15.3871 168.691 15.2573 169.129 15.1085C169.573 14.9519 170.034 14.7861 170.512 14.6113C170.996 14.4287 171.453 14.2633 171.884 14.1153C172.314 13.9602 172.692 13.8288 173.019 13.721C173.345 13.6132 173.576 13.5518 173.712 13.537C173.911 13.5152 174.069 13.5736 174.185 13.7122C174.307 13.8429 174.398 14.0166 174.458 14.2334C174.462 14.269 174.469 14.3007 174.479 14.3283C174.489 14.356 174.496 14.3877 174.5 14.4233C174.523 14.6297 174.48 14.829 174.371 15.021C174.269 15.2051 174.062 15.3574 173.751 15.4779C173.669 15.5157 173.503 15.5807 173.254 15.6728C173.004 15.7578 172.709 15.8621 172.37 15.9857C172.029 16.1022 171.661 16.2289 171.266 16.3659C170.87 16.5029 170.482 16.639 170.1 16.7744C169.718 16.9027 169.361 17.0283 169.028 17.1511C168.702 17.2661 168.435 17.3601 168.227 17.4333C168.04 17.5042 167.927 17.5562 167.888 17.5894C167.855 17.6217 167.841 17.6593 167.846 17.702C167.877 17.8571 167.972 17.9944 168.129 18.1141C168.293 18.233 168.492 18.3373 168.725 18.4271C168.965 18.516 169.229 18.5916 169.517 18.6537C169.812 18.7151 170.112 18.7615 170.418 18.7928C170.731 18.8163 171.035 18.8298 171.33 18.8335C171.626 18.8371 171.899 18.8253 172.148 18.798C172.255 18.7863 172.408 18.7696 172.607 18.7477C172.806 18.7259 173.023 18.6986 173.257 18.6658C173.498 18.625 173.741 18.5803 173.988 18.5317C174.242 18.4823 174.467 18.4289 174.662 18.3715C174.864 18.3062 175.026 18.238 175.148 18.167C175.276 18.0882 175.336 18.006 175.326 17.9206C175.318 17.8423 175.28 17.7635 175.214 17.6843C175.155 17.6044 175.12 17.5145 175.109 17.4149C175.093 17.2725 175.117 17.1294 175.181 16.9856C175.243 16.8346 175.329 16.6991 175.439 16.5791C175.554 16.4512 175.687 16.3466 175.837 16.2654C175.993 16.1763 176.152 16.1227 176.316 16.1048C176.523 16.0822 176.716 16.1043 176.896 16.171C177.076 16.2306 177.233 16.3214 177.369 16.4434C177.511 16.5576 177.624 16.6965 177.706 16.8604C177.796 17.0234 177.851 17.194 177.87 17.3719C177.922 17.8418 177.792 18.2666 177.48 18.6465C177.176 19.0257 176.758 19.3559 176.227 19.6374C175.697 19.926 175.089 20.1619 174.403 20.345C173.718 20.5353 173.023 20.669 172.318 20.7462C171.492 20.8365 170.731 20.8622 170.035 20.8231C169.34 20.7911 168.709 20.6837 168.141 20.5009C167.574 20.3181 167.073 20.0559 166.64 19.7143C166.205 19.3657 165.833 18.9273 165.523 18.3993C165.42 18.2449 165.318 18.1732 165.219 18.1841Z" fill="#FF659D"/>
<path d="M180.456 10.9833C180.32 11.0558 180.184 11.0995 180.049 11.1143C179.707 11.1517 179.45 10.9745 179.278 10.5828C179.23 10.4799 179.196 10.3936 179.174 10.324C179.159 10.2536 179.148 10.1899 179.142 10.133C179.105 9.79837 179.267 9.52855 179.626 9.32352C180.341 8.9427 181.076 8.61728 181.832 8.34724C182.588 8.07721 183.361 7.89895 184.151 7.81245C184.521 7.77193 184.888 7.77134 185.253 7.81068C185.624 7.84925 185.963 7.94905 186.269 8.11009C186.575 8.27114 186.834 8.50209 187.047 8.80296C187.26 9.10383 187.393 9.49631 187.446 9.9804C187.484 10.3221 187.448 10.6574 187.34 10.9862C187.239 11.3142 187.09 11.6331 186.894 11.9428C186.697 12.2525 186.467 12.5514 186.203 12.8397C185.939 13.1279 185.666 13.3956 185.383 13.6426C185.101 13.8897 184.819 14.1186 184.54 14.3293C184.26 14.5329 184.005 14.712 183.777 14.8666C183.584 15.0103 183.495 15.1461 183.509 15.2743C183.525 15.4238 183.648 15.5292 183.878 15.5904C184.67 15.7776 185.477 15.945 186.3 16.0926C187.123 16.2403 187.96 16.4152 188.81 16.6175C189.21 16.7178 189.427 16.9174 189.459 17.2164C189.475 17.3588 189.448 17.5094 189.379 17.6683C189.317 17.8192 189.242 17.9606 189.156 18.0926C188.983 18.4213 188.743 18.6024 188.437 18.6359C188.33 18.6476 188.196 18.6407 188.035 18.6151C187.553 18.4878 187.034 18.3572 186.479 18.2235C185.931 18.0889 185.37 17.9595 184.794 17.8352C184.225 17.703 183.664 17.5807 183.111 17.4682C182.558 17.3487 182.046 17.2427 181.574 17.1502C181.406 17.1254 181.293 17.1161 181.236 17.1224C181.179 17.1286 181.135 17.1479 181.102 17.1803C181.076 17.2047 181.067 17.2561 181.076 17.3344C181.078 17.3558 181.085 17.3839 181.096 17.4187C181.106 17.4464 181.113 17.478 181.117 17.5136C181.15 17.6181 181.191 17.7577 181.239 17.9326C181.293 18.0995 181.344 18.274 181.393 18.456C181.449 18.6372 181.497 18.812 181.537 18.9806C181.576 19.142 181.602 19.276 181.613 19.3828C181.657 19.7815 181.47 20.0829 181.053 20.287L180.589 20.4891C180.52 20.5183 180.458 20.5395 180.402 20.5529C180.346 20.5734 180.286 20.5871 180.222 20.5941C179.831 20.637 179.576 20.4199 179.459 19.9428C179.147 18.6659 178.786 17.4122 178.378 16.1817C177.976 14.9505 177.536 13.7271 177.057 12.5116C177.028 12.4428 177.007 12.3838 176.995 12.3348C176.989 12.2778 176.983 12.228 176.979 12.1853C176.937 11.808 177.112 11.5295 177.503 11.3498C177.647 11.2836 177.764 11.2312 177.853 11.1926C177.95 11.1532 178.026 11.1233 178.081 11.1028C178.143 11.0744 178.188 11.0551 178.215 11.0449C178.25 11.0339 178.282 11.0268 178.31 11.0237C178.695 10.9816 178.968 11.1715 179.129 11.5932C179.339 12.1322 179.537 12.6544 179.722 13.1601C179.914 13.665 180.091 14.1643 180.253 14.658C180.338 14.901 180.454 15.0143 180.604 14.9979C180.647 14.9932 180.696 14.9806 180.751 14.9602C180.806 14.9326 180.87 14.8967 180.945 14.8525C181.159 14.7066 181.417 14.5271 181.718 14.314C182.026 14.1002 182.342 13.8674 182.668 13.6157C183 13.356 183.323 13.0865 183.638 12.807C183.961 12.5268 184.244 12.2509 184.488 11.9792C184.739 11.7068 184.937 11.4437 185.082 11.1901C185.228 10.9365 185.289 10.7064 185.266 10.5C185.252 10.3719 185.218 10.2567 185.164 10.1546C185.116 10.0517 185.035 9.96698 184.92 9.90036C184.804 9.83374 184.652 9.78921 184.462 9.76676C184.279 9.74352 184.049 9.7471 183.771 9.77749C183.501 9.80711 183.219 9.86319 182.925 9.94575C182.638 10.0204 182.353 10.1129 182.07 10.2231C181.786 10.3334 181.508 10.4539 181.234 10.5848C180.96 10.7156 180.701 10.8484 180.456 10.9833Z" fill="#FF659D"/>
<path d="M191.435 13.5422C191.481 13.9693 191.628 14.3567 191.875 14.7042C192.129 15.0439 192.441 15.3339 192.813 15.5741C193.185 15.8072 193.6 15.978 194.058 16.0863C194.516 16.1874 194.976 16.2127 195.439 16.1621C195.581 16.1465 195.726 16.1198 195.873 16.0821C196.02 16.0373 196.15 15.9762 196.264 15.8989C196.378 15.8215 196.468 15.7288 196.536 15.6205C196.602 15.5052 196.627 15.3692 196.61 15.2126C196.577 14.9136 196.438 14.6298 196.193 14.3613C195.954 14.092 195.649 13.8337 195.276 13.5864C194.902 13.3319 194.479 13.0865 194.006 12.85C193.533 12.6064 193.053 12.3672 192.566 12.1323C192.079 11.8975 191.6 11.6618 191.127 11.4253C190.654 11.1818 190.231 10.9363 189.858 10.689C189.484 10.4345 189.175 10.173 188.929 9.90452C188.69 9.62812 188.554 9.34043 188.521 9.04143C188.49 8.75667 188.533 8.48548 188.648 8.22785C188.771 7.96232 188.942 7.71665 189.162 7.49082C189.382 7.265 189.644 7.05624 189.947 6.86456C190.25 6.67288 190.571 6.50455 190.908 6.35958C191.245 6.21462 191.585 6.09812 191.929 6.01011C192.278 5.91419 192.613 5.8487 192.934 5.81363C193.169 5.78792 193.426 5.76698 193.705 5.75083C193.99 5.72678 194.257 5.72998 194.506 5.76044C194.76 5.783 194.975 5.83871 195.151 5.92757C195.326 6.01643 195.425 6.16052 195.446 6.35985C195.453 6.42393 195.452 6.50696 195.441 6.60896C195.43 6.70385 195.387 6.86709 195.311 7.09869C195.234 7.31604 195.134 7.48552 195.01 7.60711C194.893 7.7208 194.731 7.78895 194.525 7.81154C194.233 7.84349 193.92 7.84536 193.585 7.81713C193.257 7.78101 192.929 7.78087 192.602 7.81672C192.424 7.8362 192.243 7.86675 192.061 7.90837C191.884 7.94209 191.724 7.99204 191.58 8.05824C191.435 8.11732 191.322 8.1982 191.239 8.30087C191.156 8.39643 191.122 8.51184 191.137 8.6471C191.151 8.78236 191.264 8.9249 191.475 9.07471C191.693 9.22375 191.974 9.38395 192.317 9.55534C192.667 9.72594 193.062 9.91322 193.502 10.1172C193.941 10.314 194.39 10.5315 194.849 10.7695C195.313 10.9996 195.769 11.2522 196.217 11.5273C196.665 11.7954 197.068 12.0898 197.427 12.4107C197.793 12.7237 198.093 13.0654 198.328 13.4359C198.57 13.8057 198.715 14.2005 198.761 14.6206C198.817 15.1331 198.749 15.598 198.557 16.0153C198.365 16.4325 198.098 16.7931 197.756 17.0971C197.415 17.401 197.027 17.6416 196.593 17.8188C196.159 18.0031 195.729 18.1187 195.302 18.1655C194.867 18.213 194.42 18.2079 193.96 18.1502C193.508 18.0989 193.064 17.9997 192.631 17.8527C192.197 17.7128 191.785 17.531 191.393 17.3073C191.007 17.0758 190.665 16.8107 190.366 16.5121C190.066 16.2063 189.816 15.8698 189.618 15.5025C189.426 15.1344 189.307 14.7404 189.261 14.3204C189.242 14.1424 189.233 13.9633 189.235 13.783C189.243 13.5947 189.272 13.4295 189.321 13.2872C189.37 13.1378 189.446 13.0142 189.551 12.9163C189.654 12.8113 189.795 12.749 189.973 12.7296C190.03 12.7233 190.095 12.7234 190.168 12.7299C190.24 12.7292 190.368 12.7476 190.552 12.7851C190.766 12.8265 190.958 12.9099 191.131 13.0351C191.309 13.1525 191.41 13.3215 191.435 13.5422Z" fill="#FF659D"/>
<path d="M64.5001 16.9998C59.7001 14.5997 58.5001 22.9998 58.5001 27.4998C55.6259 21.3601 51.5424 21.0861 49.1025 21.9653C48.3619 22.2321 47.8638 22.9306 47.855 23.7178C47.7869 29.8062 57.2499 35.8124 61.0001 40.5C64.1667 33.6666 69.3 19.3999 64.5001 16.9998Z" stroke="#FF659D" stroke-width="2"/>
<path d="M4.6615 60.7681C5.07295 47.3101 7.52805 35.305 38.7215 31.8904" stroke="#FF659D" stroke-width="2"/>
</svg>
