<svg fill="none" height="38" viewBox="0 0 151 38" width="151" xmlns="http://www.w3.org/2000/svg"><path clip-rule="evenodd" d="m139.919 37.7472h-5.062l-7.834-7.1505h6.651l3.238 2.8192 8.047-22.9506h5.361l-10.405 27.2862z" fill="#0075ff" fill-rule="evenodd"/><g fill="#002652"><path d="m46.1215 9.64514c.8884-.59373 1.9307-.89274 3.1267-.89274.6621 0 1.2772.09397 1.841.28192.5724.18795 1.0764.45705 1.5121.81158.4357.3545.7945.7817 1.0722 1.2857.2776.4955.4613 1.0636.551 1.7043h4.9421c-.1581-1.3412-.5211-2.5287-1.085-3.56665-.5553-1.03797-1.2772-1.91362-2.1656-2.63123-.8885-.72188-1.9094-1.2729-3.0584-1.64879-1.1448-.37589-2.3835-.56384-3.7247-.56384-2.0333 0-3.8615.46559-5.4846 1.40105-1.6232.92691-2.9132 2.27243-3.8614 4.04082-.9483 1.76844-1.4224 3.91264-1.4224 6.43284s.4655 4.6517 1.401 6.42c.9397 1.7684 2.2212 3.1182 3.8358 4.0494 1.6232.9312 3.4684 1.4011 5.5316 1.4011 1.4822 0 2.8106-.2222 3.9853-.6664 1.1832-.4528 2.1955-1.0593 3.0455-1.8282.8586-.7731 1.5378-1.653 2.0418-2.6312.5126-.9867.8329-2.0076.9611-3.0712l-4.9421-.0214c-.1111.6151-.3161 1.1661-.6109 1.6488-.2861.4827-.6449.8928-1.0849 1.2302-.4357.3332-.9355.5852-1.4993.7561-.5553.1751-1.1618.2605-1.8154.2605-1.1661 0-2.1912-.2862-3.0797-.8585-.8885-.5724-1.5805-1.4182-2.076-2.5373-.4869-1.1191-.7347-2.5074-.7347-4.1519s.2435-2.9644.7347-4.0835c.4913-1.1277 1.179-1.9863 2.0674-2.57146z"/><path d="m73.5615 11.0889c-.8971-.5254-1.9436-.7902-3.1481-.7902-1.3156 0-2.4134.2947-3.2848.8799-.8714.5809-1.5036 1.3797-1.8965 2.4048h-.2051v-8.83339h-4.673v23.11299h4.8097v-10.0209c.0086-.7432.1495-1.3797.4272-1.9051.2862-.5339.6791-.9397 1.1746-1.2173.5041-.2777 1.085-.4187 1.7385-.4187.9782 0 1.7385.2991 2.281.8928.551.5937.8201 1.4267.8116 2.4945v10.179h4.8097v-11.0375c.0085-1.3541-.2392-2.5159-.7433-3.4856-.4955-.9781-1.196-1.7256-2.0973-2.2468z"/><path d="m91.1514 12.49c-.7389-.7305-1.6018-1.2772-2.597-1.636-.9867-.3674-2.0503-.551-3.1951-.551-1.7001 0-3.1823.3758-4.4466 1.1276-1.2558.7518-2.2297 1.8026-2.9217 3.1481s-1.038 2.9132-1.038 4.6944.346 3.4129 1.038 4.7499c.692 1.3327 1.6787 2.3621 2.9559 3.0925 1.2857.7219 2.8234 1.085 4.6046 1.085 1.431 0 2.691-.2179 3.7803-.6536 1.0977-.4442 1.9948-1.0593 2.6867-1.8495.7006-.7988 1.1619-1.73 1.3883-2.7978l-4.4466-.2948c-.1666.4357-.4058.8031-.7219 1.1063-.3161.299-.6963.5254-1.1405.6792-.4442.1495-.9312.2264-1.4651.2264-.8031 0-1.4993-.1709-2.0888-.5083-.5894-.3375-1.0422-.8201-1.3669-1.4438-.316-.6236-.4741-1.3668-.4741-2.2211v-.0129h11.8064v-1.3198c0-1.4737-.205-2.7594-.6194-3.8615-.4143-1.1063-.991-2.0247-1.7385-2.7551zm-9.1281 4.9549c.0299-.6237.1879-1.1918.4784-1.7043.3161-.5639.7518-1.0124 1.3113-1.3413.5639-.3374 1.2131-.5083 1.9393-.5083.7261 0 1.3113.1538 1.841.4613.5339.299.9525.7176 1.2515 1.2516.299.5339.4528 1.149.4528 1.841z"/><path d="m100.668 14.6556c.556-.4058 1.209-.6108 1.952-.6108.88 0 1.594.2691 2.132.803.551.5254.888 1.2216 1.016 2.0888h4.537c-.069-1.3413-.432-2.5074-1.094-3.4984-.662-.9952-1.563-1.7641-2.695-2.3151-1.136-.5511-2.46-.8244-3.973-.8244-1.751 0-3.263.3801-4.5359 1.1405-1.2729.7517-2.2553 1.8025-2.9473 3.148-.6834 1.3413-1.0251 2.8961-1.0251 4.673 0 1.777.3374 3.3019 1.0166 4.6517.6834 1.3455 1.6616 2.4006 2.9345 3.1609 1.2772.7518 2.8062 1.1277 4.5832 1.1277 1.542 0 2.879-.282 4.007-.8458 1.127-.5638 2.012-1.3455 2.652-2.3493.65-1.0081 1.008-2.1742 1.085-3.4984h-4.536c-.09.6109-.282 1.132-.577 1.5677-.286.4271-.649.756-1.093.9824-.436.2264-.931.3375-1.478.3375-.743 0-1.397-.2051-1.952-.6109-.555-.4057-.9912-.9952-1.2987-1.7726-.299-.7732-.4528-1.7172-.4528-2.8192s.1538-2.0204.4613-2.7893c.3076-.7688.7392-1.3498 1.2862-1.7513z"/><path d="m127.433 10.5251h-5.651l-5.553 6.578h-.26v-12.35309h-4.81v23.11299h4.81v-5.5017l1.303-1.4864 4.724 6.9924h10.247v-23.11729h-4.81v5.77929zm-6.565 7.5092 6.565-7.4879v17.0347z"/><path d="m137.651 10.5251h-5.053l5.053 15.9582 2.567-7.2444z"/><path d="m6.97759 15.4415c-.12387.0257-.24347.0598-.35026.1282-.34172.2178-.26056.7219-.23066 1.0679.05553.6535.19649 1.3113.37162 1.952.1196.4443.26483.8885.45278 1.3114.21357-.3289.44423-.6322.69198-.9056.20076-.2264.40579-.4357.61082-.6236 1.1234-1.038 2.24253-1.5591 2.24253-1.5591-1.08069-.7774-2.39631-1.6702-3.78881-1.3712z"/><path d="m26.8357 15.4415c.1239.0257.2435.0598.3503.1282.3417.2178.2605.7219.2306 1.0679-.0555.6535-.1965 1.3113-.3716 1.952-.1196.4443-.2648.8885-.4528 1.3114-.2135-.3289-.4442-.6322-.6919-.9056-.2008-.2264-.4058-.4357-.6109-.6236-1.1234-1.038-2.2425-1.5591-2.2425-1.5591 1.0807-.7774 2.3963-1.6702 3.7888-1.3712z"/></g><path d="m30.9022 2.11024c-2.0888-2.0887556-5.4547-2.0887556-12.178-2.0887556h-3.6351c-6.72327 0-10.0892 0-12.17796 2.0887556-2.088752 2.08875-2.088752 5.45468-2.088752 12.17796v2.3664c0 6.7276 0 10.0893 2.088752 12.178.36308.3631.77314.6749 1.22165.9227.48267.2691 1.00807.4656 1.542.6151.27338.0769.55102.1409.83294.1922.04699.0085.49122.0854.68771.1239l.09397.017s0-.0042 0-.0128c0-.0213.00855-.064.00855-.0726 0-.0128 0-.0256.00427-.0342.00854-.0683.02135-.1366.02563-.1623.01281-.0769.02562-.1495.03844-.2221 0-.0213.00854-.0427.01281-.0641l-.01281-.0128c-2.3664-1.9307-3.45136-5.2795-3.45136-5.2795.90128-.0342 1.888-.4784 1.888-.4784.56383-.1965 1.22591-.6109 1.34124-1.243.06407-.3503-.08116-.6664-.24774-.9654-.52112-.9312-.8842-1.9478-1.16185-2.9729-.27764-1.0337-.5083-2.0931-.598-3.1524-.04699-.5553-.17514-1.3669.37589-1.7214.17085-.1111.36734-.1666.56383-.2093 2.2468-.4827 4.37399.9568 6.11679 2.2083.0213-.0085.0384-.017.0598-.0256.1196-.0598.2477-.1153.3759-.158.2093-.0726.4228-.1324.6364-.1752 1.0038-.2605 2.2425-.4143 3.5838-.4143h.0555.0555c1.3456 0 2.5843.1495 3.5838.4143.2136.047.4272.1026.6365.1752.1281.047.252.0982.3759.158.0213.0086.0427.0171.0598.0256 1.7427-1.2515 3.8699-2.6953 6.1167-2.2083.1965.0427.3973.0982.5639.2093.5467.3545.4186 1.1661.3759 1.7214-.0855 1.0593-.3204 2.1187-.5981 3.1524-.2776 1.0294-.6407 2.0417-1.1618 2.9729-.1666.299-.3118.6151-.2477.9654.1153.6321.7774 1.0465 1.3412 1.243 0 0 .9867.4442 1.888.4784 0 0-1.085 3.3488-3.4514 5.2795l-.0128.0128s.0086.0428.0128.0641c.0129.0726.0257.1452.0385.2221 0 .0257.0128.094.0256.1623 0 .0129 0 .0257.0043.0342 0 0 .0085.0555.0085.0726v.0128l.094-.017c.1922-.0342.6365-.1154.6877-.1239.2819-.0513.5596-.1153.8329-.1922.534-.1495 1.0551-.346 1.5421-.6151.4485-.2478.8585-.5596 1.2216-.9227 2.0888-2.0887 2.0888-5.4504 2.0888-12.178v-2.3664c0-6.72755 0-10.08921-2.0888-12.17796z" fill="#0075ff"/><g fill="#002652"><path d="m12.7654 31.3485c.0043-.0299.0129-.0512.0171-.0768l.1068-.4699c.047-.1837.094-.3674.1495-.5468.1367-.4527.3033-.9098.6279-1.2515.3674-.3844.8842-.5809 1.3712-.7902.4869-.2136.991-.4784 1.2515-.9398.2563-.4527.2307-1.0294.0171-1.4992-.141-.3033-.3503-.5681-.5937-.7945-.1367-.1282-.2862-.2392-.44-.346-1.2345-.833-2.9003-.9739-4.2629-.3716-1.17042.5211-2.07171 1.542-2.64836 2.6824-.19648.393-.36307.7988-.49976 1.2174s-.24775.8458-.34172 1.2729v.0214l-.00854.047-.01282.0555s-.00854.0427-.01281.0641l-.00854.0512v.0086c-.00855.0512-.02136.1025-.0299.1537l-.02563.1282s-.00427.0299-.00854.0427v.0171.0128c0 .0128-.00428.0256-.00855.0342 0 .0128-.00427.0299-.00854.0427 0 .0213-.00854.0427-.01282.0641-.01281.0726-.02562.1452-.03844.2221 0 .0256-.01281.0939-.02563.1623 0 .0128 0 .0256-.00427.0342 0 0-.00854.0555-.00854.0726v.0128c.04271.0085.0897.0128.13241.0171.04272.0043.08543.0085.12815.0171.05553.0085.11533.0128.17086.0213.06834.0086.14096.0171.2093.0257.08116.0085.16232.0213.24347.0299.08971.0128.18368.0213.27338.0341.10252.0128.20076.0257.30328.0385.10678.0128.21784.0299.32463.0427.11533.0171.23066.0299.34599.047.1196.0171.2392.0341.3588.047.12388.017.24774.0341.37164.0512.1281.0171.252.0342.3801.0555.1282.0171.2563.0385.3845.0556.1281.0213.2563.0384.3844.0598.1282.0213.252.0384.3802.0598.1238.0213.2477.0427.3716.064.1196.0214.2392.0428.3588.0641.0769.0128.1538.0299.2264.0427l.0982.0128.0299-.1409zm-.1324-4.673c0-.4228.346-.7688.7689-.7688s.7689.346.7689.7688c0 .4229-.346.7689-.7689.7689s-.7689-.346-.7689-.7689z"/><path d="m26.5153 30.6224c0-.0128 0-.0256-.0042-.0342-.0086-.0683-.0214-.1367-.0257-.1623-.0128-.0769-.0256-.1495-.0384-.2221 0-.0214-.0085-.0427-.0128-.0641 0-.0128-.0043-.0299-.0086-.0427 0-.0128-.0042-.0256-.0085-.0342v-.0128s-.0043-.0085-.0043-.0171c0-.0128-.0042-.0256-.0085-.0427l-.0256-.1281c-.0086-.047-.0214-.1026-.0299-.1538v-.0086l-.0086-.0512c-.0043-.0214-.0085-.047-.0128-.0641l-.0128-.0555-.0086-.047v-.0214c-.0939-.4314-.205-.8585-.3417-1.2729-.1367-.4186-.3033-.8244-.4997-1.2173-.5767-1.1448-1.478-2.1614-2.6484-2.6825-1.3583-.6066-3.0284-.4613-4.2629.3716-.1538.1025-.3033.2178-.44.346-.2477.2264-.457.4912-.5937.7945-.2178.4741-.2392 1.0508.0171 1.4993.2605.4613.7646.7304 1.2515.9397.487.2136 1.0038.4058 1.3712.7902.3246.3417.4912.8031.6279 1.2516.0555.1794.1025.363.1495.5467l.1068.4699c.0042.0256.0128.047.0171.0726l.0299.1452.0982-.0128c.0769-.0128.1538-.0299.2264-.0427.1196-.0214.2392-.0427.3588-.0641.1239-.0213.2477-.0427.3716-.064.1282-.0214.252-.0428.3802-.0598.1281-.0214.2563-.0385.3844-.0599.1282-.0213.2563-.0384.3844-.0555.1282-.0171.2521-.0384.3802-.0555.1239-.0171.2478-.0342.3716-.0513.1196-.0171.2392-.0341.3588-.047.1154-.017.2307-.0299.346-.0469.1068-.0129.2179-.0299.3247-.0428.1025-.0128.2007-.0256.3032-.0384.0897-.0128.1837-.0214.2734-.0342.0812-.0085.1623-.0213.2435-.0299.0683-.0085.1409-.0171.2093-.0256.0555-.0085.1153-.0128.1708-.0214.0428-.0042.0855-.0085.1282-.017.0427-.0043.0897-.0086.1324-.0171 0 0 0-.0043 0-.0128 0-.0214-.0085-.0641-.0085-.0727zm-6.1039-3.178c-.4229 0-.7689-.346-.7689-.7689 0-.4228.346-.7688.7689-.7688s.7689.346.7689.7688c0 .4229-.346.7689-.7689.7689z"/><path d="m18.8865 31.9423c-.0299-.0513-.0641-.1025-.0983-.1495-.0341-.047-.0683-.0897-.1025-.1367-.0341-.0427-.0726-.0812-.111-.1196-.0385-.0385-.0769-.0726-.1154-.1068-.0384-.0342-.0768-.0641-.1196-.094-.0384-.0299-.0811-.0555-.1196-.0811-.0384-.0257-.0811-.047-.1238-.0684-.0385-.0213-.0812-.0427-.1239-.0598-.0385-.0171-.0812-.0342-.1196-.0512-.0385-.0129-.0769-.0299-.1196-.0428-.0385-.0128-.0769-.0213-.1153-.0341-.0385-.0086-.0727-.0171-.1111-.0257-.0342-.0085-.0683-.0128-.1025-.0213-.0342-.0043-.0641-.0086-.0983-.0128-.0299 0-.0598-.0086-.0897-.0086-.0939-.0085-.1879-.0128-.2862-.0128h-.0683c-.094 0-.1879 0-.2862.0128-.0299 0-.0598.0043-.0897.0086-.0342 0-.0641.0085-.0982.0128-.0342.0043-.0684.0128-.1025.0213-.0385.0086-.0727.0171-.1111.0257-.0384.0085-.0769.0213-.1153.0341-.0385.0129-.0812.0257-.1196.0428-.0427.017-.0812.0299-.1196.0512-.0428.0171-.0812.0385-.1239.0598-.0427.0214-.0812.047-.1239.0684-.0427.0256-.0811.0512-.1196.0811-.0427.0299-.0811.0598-.1196.094-.0384.0342-.0769.0683-.1153.1068-.0385.0384-.0769.0769-.1111.1196-.0384.0427-.0726.0897-.1025.1367-.0342.047-.0683.0982-.0982.1495-.0299.0555-.0598.111-.0897.1666 0 0 0 .0085.0042.0085.0855.1452.188.2776.299.4015.2136.2392.4614.4528.7433.6066.3118.1708.6663.252 1.0209.2605.3545-.0042.709-.0897 1.0208-.2605.282-.1538.5297-.3674.7433-.6066.111-.1239.2136-.2563.299-.4015l.0043-.0085c-.0257-.0556-.0556-.1111-.0897-.1666z"/></g></svg>