<svg width="666" height="583" viewBox="0 0 666 583" fill="none" xmlns="http://www.w3.org/2000/svg">
<path d="M273 455C271.895 455 271 455.895 271 457C271 458.105 271.895 459 273 459V455ZM498 459C499.105 459 500 458.105 500 457C500 455.895 499.105 455 498 455V459ZM273 459H276.516V455H273V459ZM283.547 459H290.578V455H283.547V459ZM297.609 459H304.641V455H297.609V459ZM311.672 459H318.703V455H311.672V459ZM325.734 459H332.766V455H325.734V459ZM339.797 459H346.828V455H339.797V459ZM353.859 459H360.891V455H353.859V459ZM367.922 459H374.953V455H367.922V459ZM381.984 459H389.016V455H381.984V459ZM396.047 459H403.078V455H396.047V459ZM410.109 459H417.141V455H410.109V459ZM424.172 459H431.203V455H424.172V459ZM438.234 459H445.266V455H438.234V459ZM452.297 459H459.328V455H452.297V459ZM466.359 459H473.391V455H466.359V459ZM480.422 459H487.453V455H480.422V459ZM494.484 459H498V455H494.484V459Z" fill="#45C8F1"/>
<path d="M502.5 450.5C502.5 451.605 503.395 452.5 504.5 452.5C505.605 452.5 506.5 451.605 506.5 450.5H502.5ZM506.5 410.5C506.5 409.395 505.605 408.5 504.5 408.5C503.395 408.5 502.5 409.395 502.5 410.5H506.5ZM502.5 410.5V413.833H506.5V410.5H502.5ZM502.5 420.5V427.167H506.5V420.5H502.5ZM502.5 433.833V440.5H506.5V433.833H502.5ZM502.5 447.167V450.5H506.5V447.167H502.5Z" fill="#45C8F1"/>
<path d="M159 333C159 292.776 159 230 159 230" stroke="#5C4EE5" stroke-width="4" stroke-miterlimit="3.8637" stroke-dasharray="7 7"/>
<g filter="url(#filter0_d_1_870)">
<rect x="87" y="71" width="145" height="145" rx="72.5" fill="white"/>
<path fill-rule="evenodd" clip-rule="evenodd" d="M171.458 184V157.49L148.487 144.23V170.74L171.458 184ZM171.458 154.593L148.487 141.333V114.812L171.458 128.072V154.593Z" fill="#5C4EE5"/>
<path fill-rule="evenodd" clip-rule="evenodd" d="M196.967 141.322V114.802L173.985 128.062V154.583L196.967 141.322Z" fill="#4040B2"/>
<path fill-rule="evenodd" clip-rule="evenodd" d="M145.971 139.781V113.26L123 100V126.521L145.971 139.781Z" fill="#5C4EE5"/>
<rect x="87" y="170" width="54" height="54" rx="27" fill="#1F2D3D"/>
<path fill-rule="evenodd" clip-rule="evenodd" d="M121.031 186.688C120.255 186.688 119.625 187.317 119.625 188.094C119.625 188.87 120.255 189.5 121.031 189.5C121.808 189.5 122.438 188.87 122.438 188.094C122.438 187.317 121.808 186.688 121.031 186.688ZM116.812 188.094C116.812 185.764 118.701 183.875 121.031 183.875C123.361 183.875 125.25 185.764 125.25 188.094C125.25 189.931 124.076 191.493 122.438 192.072V193.25C122.438 195.839 120.339 197.938 117.75 197.938H110.25C109.214 197.938 108.375 198.777 108.375 199.812V201.928C110.014 202.507 111.188 204.069 111.188 205.906C111.188 208.236 109.299 210.125 106.969 210.125C104.639 210.125 102.75 208.236 102.75 205.906C102.75 204.069 103.924 202.507 105.562 201.928V199.812V192.072C103.924 191.493 102.75 189.931 102.75 188.094C102.75 185.764 104.639 183.875 106.969 183.875C109.299 183.875 111.188 185.764 111.188 188.094C111.188 189.931 110.014 191.493 108.375 192.072V195.515C108.949 195.264 109.583 195.125 110.25 195.125H117.75C118.786 195.125 119.625 194.286 119.625 193.25V192.072C117.986 191.493 116.812 189.931 116.812 188.094ZM106.969 204.5C106.192 204.5 105.562 205.13 105.562 205.906C105.562 206.683 106.192 207.312 106.969 207.312C107.745 207.312 108.375 206.683 108.375 205.906C108.375 205.13 107.745 204.5 106.969 204.5ZM105.562 188.094C105.562 187.317 106.192 186.688 106.969 186.688C107.745 186.688 108.375 187.317 108.375 188.094C108.375 188.87 107.745 189.5 106.969 189.5C106.192 189.5 105.562 188.87 105.562 188.094Z" fill="white"/>
</g>
<g filter="url(#filter1_d_1_870)">
<rect x="59" y="347" width="200" height="200" rx="100" fill="white"/>
<path fill-rule="evenodd" clip-rule="evenodd" d="M226.42 412.564C226.029 411.746 225.458 410.998 224.607 410.521C223.67 409.998 222.646 409.91 221.687 410.084L221.619 410.047C207.205 412.582 192.661 423.761 183.888 440.895C174.436 459.358 174.3 479.632 181.999 493.505C197.466 492.224 213.615 480.668 223.066 462.205C231.875 445.015 232.583 426.271 226.42 412.564Z" fill="#828D8C"/>
<path fill-rule="evenodd" clip-rule="evenodd" d="M221.59 411.976C207.388 414.615 193.591 426.004 185.515 441.78C176.964 458.482 176.03 477.833 183.026 491.499C197.918 489.737 212.893 478.022 221.44 461.321C229.613 445.371 230.881 426.996 224.751 413.36C224.492 412.823 224.151 412.424 223.727 412.187C223.239 411.909 222.607 411.835 222.007 411.95C221.864 411.972 221.72 411.99 221.59 411.976ZM181.999 495.4C181.342 495.4 180.731 495.038 180.404 494.445C172.059 479.41 172.77 458.552 182.261 440.011C191.056 422.832 205.653 410.932 221.31 408.178C221.458 408.148 221.612 408.145 221.763 408.16C223.059 408 224.363 408.233 225.48 408.855C226.586 409.473 227.455 410.439 228.069 411.727C234.691 426.452 233.391 446.119 224.693 463.09C215.202 481.627 198.899 494.008 182.146 495.393C182.096 495.397 182.049 495.4 181.999 495.4Z" fill="#121716"/>
<path fill-rule="evenodd" clip-rule="evenodd" d="M219.673 420.607C223.688 422.839 227.254 425.538 230.252 428.491C229.829 422.762 228.572 417.346 226.421 412.564C226.029 411.746 225.458 410.998 224.607 410.521C223.67 409.998 222.646 409.91 221.687 410.084L221.619 410.047C216.649 410.924 211.679 412.893 206.917 415.706C211.137 416.662 215.475 418.275 219.673 420.607Z" fill="#121716"/>
<path fill-rule="evenodd" clip-rule="evenodd" d="M197.132 424.783C193.296 428.67 189.637 433.067 186.272 437.968C193.375 437.464 201.222 439.237 208.332 443.534C215.403 447.799 220.714 453.958 223.759 460.554C226.241 455.061 228.126 449.554 229.491 444.157C225.795 439.208 221.019 434.814 215.263 431.335C209.402 427.789 203.233 425.656 197.132 424.783Z" fill="#121716"/>
<path fill-rule="evenodd" clip-rule="evenodd" d="M178.813 448.058C176.385 452.899 174.342 457.742 172.68 462.539C179.298 462.375 186.275 464.133 192.542 468.083C198.876 472.051 201.706 478.089 204.593 484.3C210.3 481.46 213.09 476.027 216.127 471.54C212.476 464.985 207.215 459.185 200.349 454.876C193.5 450.568 186.114 448.417 178.813 448.058Z" fill="#121716"/>
<path fill-rule="evenodd" clip-rule="evenodd" d="M126.71 395.034C132.725 401.23 134.338 409.621 130.308 413.771C126.283 417.92 118.142 416.262 112.131 410.062C106.119 403.866 104.507 395.474 108.532 391.325C112.558 387.176 120.699 388.837 126.71 395.034Z" fill="#828D8C"/>
<path fill-rule="evenodd" clip-rule="evenodd" d="M122.725 399.146C125.745 402.248 126.707 406.301 124.887 408.174C123.056 410.058 119.13 409.066 116.114 405.957C113.101 402.848 112.139 398.806 113.963 396.925C115.791 395.041 119.709 396.037 122.725 399.146Z" fill="#121716"/>
<path fill-rule="evenodd" clip-rule="evenodd" d="M114.414 390.937C113.089 390.937 111.218 391.237 109.832 392.665C106.586 396.012 108.234 403.367 113.43 408.723C116.734 412.128 120.842 414.16 124.423 414.16C125.748 414.16 127.622 413.86 129.009 412.432C130.509 410.885 131.03 408.438 130.474 405.539C129.863 402.363 128.064 399.11 125.41 396.374C122.106 392.969 117.998 390.937 114.414 390.937ZM124.423 417.95C119.887 417.95 114.806 415.504 110.83 411.402C103.997 404.358 102.416 394.949 107.232 389.985C109.035 388.127 111.516 387.147 114.414 387.147C118.95 387.147 124.031 389.593 128.01 393.695C131.174 396.952 133.328 400.898 134.079 404.803C134.883 408.982 134.004 412.643 131.609 415.111C129.806 416.97 127.321 417.95 124.423 417.95Z" fill="#121716"/>
<path fill-rule="evenodd" clip-rule="evenodd" d="M181.998 395.034C175.983 401.23 174.371 409.621 178.4 413.771C182.426 417.92 190.567 416.262 196.578 410.062C202.589 403.866 204.202 395.474 200.176 391.325C196.151 387.176 188.01 388.837 181.998 395.034Z" fill="#828D8C"/>
<path fill-rule="evenodd" clip-rule="evenodd" d="M185.985 399.146C182.965 402.248 182.002 406.301 183.823 408.174C185.654 410.058 189.579 409.066 192.596 405.957C195.609 402.848 196.571 398.806 194.747 396.925C192.919 395.041 189.001 396.037 185.985 399.146Z" fill="#121716"/>
<path fill-rule="evenodd" clip-rule="evenodd" d="M183.298 396.374C180.644 399.11 178.845 402.363 178.235 405.539C177.678 408.438 178.199 410.885 179.7 412.432C181.086 413.86 182.961 414.16 184.286 414.16C187.866 414.16 191.974 412.128 195.278 408.723C200.474 403.367 202.123 396.012 198.876 392.665C197.49 391.237 195.619 390.937 194.294 390.937C190.71 390.937 186.602 392.969 183.298 396.374ZM177.1 415.111C174.705 412.643 173.825 408.982 174.629 404.803C175.38 400.898 177.535 396.952 180.698 393.695C184.677 389.593 189.758 387.147 194.294 387.147C197.192 387.147 199.673 388.127 201.476 389.985C206.292 394.949 204.711 404.358 197.878 411.402C193.902 415.504 188.821 417.95 184.286 417.95C181.388 417.95 178.903 416.97 177.1 415.111Z" fill="#121716"/>
<path fill-rule="evenodd" clip-rule="evenodd" d="M194.956 410.444C185.475 396.967 170.874 387.147 154.355 387.147C137.836 387.147 123.235 396.967 113.754 410.444C102.22 426.834 95.5373 450.069 102.399 469.723C108.21 486.373 122.161 499.025 138.565 503.844C143.693 505.354 149.022 506.106 154.355 506.106C159.688 506.106 165.017 505.354 170.145 503.844C186.549 499.025 200.5 486.373 206.311 469.723C213.173 450.069 206.49 426.834 194.956 410.444Z" fill="#828D8C"/>
<path fill-rule="evenodd" clip-rule="evenodd" d="M198.873 417.902C198.216 415.211 196.546 412.657 194.991 410.443C193.009 407.623 190.79 404.98 188.387 402.537C179.815 398.295 170.019 398.302 162.549 403.495C158.656 406.205 155.927 409.988 154.354 414.3C152.782 409.988 150.052 406.205 146.16 403.495C138.69 398.302 128.894 398.295 120.322 402.537C117.919 404.98 115.7 407.623 113.718 410.443C112.163 412.657 110.493 415.211 109.836 417.902C109.15 420.704 108.163 424.465 108.292 427.3C108.504 431.912 111.272 435.31 114.928 437.749C115.822 438.349 125.386 445.893 124.495 446.429C125.17 446.022 126.021 445.526 126.969 445.012V445.874C130.438 443.79 135.48 441.236 138.855 441.636L138.898 441.643C138.996 441.654 139.075 441.699 139.168 441.717C140.098 441.969 140.913 442.435 141.538 443.22C142.981 445.03 143.111 447.121 142.608 449.153C142.981 448.872 143.315 448.517 143.678 448.217C143.639 449.616 143.33 450.678 143.33 450.678L142.701 451.589C146.404 452.311 150.293 452.707 154.318 452.707H154.34C154.369 452.707 154.376 452.707 154.376 452.707C158.416 452.707 162.305 452.311 166.008 451.589L165.379 450.678C165.379 450.678 165.07 449.616 165.031 448.217C165.393 448.517 165.727 448.872 166.101 449.153C165.598 447.121 165.727 445.03 167.171 443.22C167.796 442.435 168.611 441.969 169.541 441.717C169.634 441.699 169.714 441.654 169.811 441.643L169.854 441.636C173.229 441.236 178.271 443.79 181.74 445.874V445.012C182.688 445.526 183.539 446.022 184.214 446.429C183.323 445.893 192.886 438.349 193.78 437.749C197.436 435.31 200.205 431.912 200.417 427.3C200.546 424.465 199.559 420.704 198.873 417.902Z" fill="#EDEDEA"/>
<path fill-rule="evenodd" clip-rule="evenodd" d="M154.355 460.432C140.433 460.432 129.153 474.75 129.153 492.413C129.153 495.941 129.62 499.32 130.45 502.492C131.972 502.962 133.481 503.469 135.043 503.843C141.316 505.354 147.834 506.105 154.355 506.105C160.877 506.105 167.395 505.354 173.668 503.843C175.23 503.469 176.739 502.962 178.261 502.492C179.09 499.32 179.558 495.941 179.558 492.413C179.558 474.75 168.278 460.432 154.355 460.432Z" fill="#EDEDEA"/>
<path fill-rule="evenodd" clip-rule="evenodd" d="M157.199 431.445C156.578 431.653 155.928 431.757 155.278 431.812C155.328 431.697 155.421 431.608 155.421 431.479V428.91C155.537 428.817 155.662 428.755 155.763 428.629L157.716 426.193C158.488 425.231 158.126 424.442 156.912 424.442H151.798C150.584 424.442 150.222 425.231 150.994 426.193L152.947 428.629C153.12 428.847 153.328 428.999 153.54 429.117V431.479C153.54 431.608 153.63 431.697 153.677 431.812C153.026 431.753 152.38 431.649 151.762 431.445C150.965 431.183 149.317 430.198 149.09 431.727C149.09 431.819 149.09 431.912 149.09 432.004C149.09 435.066 151.49 437.546 154.474 437.553H154.488C157.472 437.546 159.871 435.066 159.871 432.004C159.871 431.912 159.871 431.819 159.871 431.727C159.645 430.198 157.996 431.183 157.199 431.445Z" fill="#121716"/>
<path fill-rule="evenodd" clip-rule="evenodd" d="M154.355 389.041C139.563 389.041 125.307 397.248 115.245 411.557C102.575 429.558 98.2122 452.137 104.13 469.082C109.567 484.666 122.955 497.288 139.068 502.023C148.936 504.924 159.777 504.924 169.638 502.023C185.755 497.288 199.142 484.666 204.579 469.082C210.497 452.137 206.134 429.558 193.469 411.557C183.403 397.248 169.147 389.041 154.355 389.041ZM154.355 508C148.803 508 143.319 507.216 138.058 505.664C120.567 500.527 106.59 487.331 100.668 470.363C93.0015 448.406 101.634 424.439 112.268 409.329C123.03 394.027 138.371 385.251 154.355 385.251C170.339 385.251 185.68 394.027 196.446 409.329C207.075 424.439 215.708 448.406 208.041 470.363C202.12 487.331 188.143 500.527 170.648 505.664C165.39 507.216 159.906 508 154.355 508Z" fill="#121716"/>
<path fill-rule="evenodd" clip-rule="evenodd" d="M139.581 409.496C138.03 408.633 136.299 408.196 134.435 408.196C129.235 408.196 124.057 412.698 121.518 415.725C117.249 420.815 113.299 431.053 121.464 434.566C124.416 435.836 127.67 436.221 130.844 436.28C134.899 436.361 139.233 436.265 142.433 433.319C145.679 430.328 146.203 425.442 145.902 421.2C145.51 415.692 143.266 411.532 139.581 409.496Z" fill="#121716"/>
<path fill-rule="evenodd" clip-rule="evenodd" d="M139.774 418.342C139.717 417.617 138.945 416.817 138.492 416.403C137.483 415.496 136.194 414.992 134.854 414.992C134.431 414.992 133.996 415.04 133.555 415.137C131.846 415.507 130.409 416.569 129.615 418.053C129.314 418.616 128.8 419.738 128.933 420.378C129.044 420.911 129.533 421.277 130.032 421.37C130.696 421.496 130.955 421.174 131.271 420.619C131.332 420.511 131.396 420.4 131.468 420.282C132.43 418.746 133.788 417.902 135.293 417.902C136.137 417.902 136.65 418.153 137.415 418.676C137.918 419.02 138.467 419.712 139.149 419.342C139.641 419.072 139.803 418.72 139.774 418.342Z" fill="#FFFFFE"/>
<path fill-rule="evenodd" clip-rule="evenodd" d="M169.128 409.496C170.679 408.633 172.41 408.196 174.274 408.196C179.474 408.196 184.652 412.698 187.191 415.725C191.461 420.815 195.411 431.053 187.245 434.566C184.293 435.836 181.04 436.221 177.865 436.28C173.811 436.361 169.477 436.265 166.277 433.319C163.03 430.328 162.506 425.442 162.808 421.2C163.199 415.692 165.444 411.532 169.128 409.496Z" fill="#121716"/>
<path fill-rule="evenodd" clip-rule="evenodd" d="M168.934 418.342C168.991 417.617 169.763 416.817 170.216 416.403C171.225 415.496 172.514 414.992 173.853 414.992C174.277 414.992 174.712 415.04 175.154 415.137C176.863 415.507 178.299 416.569 179.093 418.053C179.395 418.616 179.908 419.738 179.775 420.378C179.664 420.911 179.176 421.277 178.676 421.37C178.012 421.496 177.754 421.174 177.438 420.619C177.376 420.511 177.312 420.4 177.24 420.282C176.278 418.746 174.92 417.902 173.416 417.902C172.571 417.902 172.058 418.153 171.293 418.676C170.79 419.02 170.241 419.712 169.559 419.342C169.067 419.072 168.905 418.72 168.934 418.342Z" fill="#FFFFFE"/>
<path fill-rule="evenodd" clip-rule="evenodd" d="M117.863 452.852C117.374 452.852 116.886 452.652 116.523 452.256C115.826 451.493 115.862 450.294 116.602 449.575C117.022 449.168 120.793 445.548 123.468 444.219C124.377 443.772 125.479 444.16 125.921 445.104C126.363 446.044 125.979 447.177 125.062 447.632C123.231 448.543 120.154 451.338 119.123 452.337C118.768 452.681 118.315 452.852 117.863 452.852Z" fill="#121716"/>
<path fill-rule="evenodd" clip-rule="evenodd" d="M139.829 440.821C134.755 437.675 126.851 442.058 124.115 443.779C121.859 442.639 119.87 440.973 118.049 439.208C115.855 437.083 114.476 435.746 113.011 432.956C112.666 432.437 112.128 432.053 111.47 432.053C109.319 432.053 109.355 434.399 110.21 435.784C112.846 440.048 115.855 442.809 119.924 445.63C121.069 446.422 122.279 447.155 123.569 447.68C124.129 447.91 124.779 447.851 125.285 447.503C127.526 445.967 134.633 442.036 137.94 444.071C139.549 445.067 140.407 446.437 140.49 448.143C140.637 451.219 138.245 454.957 134.091 458.148C129.824 461.424 122.294 462.346 115.783 460.395C111.147 459.007 104.974 455.594 101.886 447.24C101.527 446.255 100.453 445.767 99.5156 446.144C98.5639 446.514 98.0901 447.61 98.4526 448.587C101.282 456.246 107.071 461.731 114.756 464.034C117.392 464.826 120.146 465.21 122.84 465.21C127.967 465.21 132.869 463.815 136.288 461.191C141.506 457.182 144.375 452.359 144.16 447.954C144.016 444.993 142.479 442.461 139.829 440.821Z" fill="#121716"/>
<path fill-rule="evenodd" clip-rule="evenodd" d="M190.847 452.852C191.335 452.852 191.824 452.652 192.187 452.256C192.883 451.493 192.847 450.294 192.108 449.575C191.688 449.168 187.917 445.548 185.242 444.219C184.333 443.772 183.231 444.16 182.789 445.104C182.347 446.044 182.731 447.177 183.647 447.632C185.479 448.543 188.556 451.338 189.587 452.337C189.942 452.681 190.395 452.852 190.847 452.852Z" fill="#121716"/>
<path fill-rule="evenodd" clip-rule="evenodd" d="M168.881 440.821C173.955 437.675 181.859 442.058 184.595 443.779C186.851 442.639 188.84 440.973 190.66 439.208C192.855 437.083 194.234 435.746 195.699 432.956C196.044 432.437 196.583 432.053 197.239 432.053C199.39 432.053 199.355 434.399 198.5 435.784C195.864 440.048 192.855 442.809 188.786 445.63C187.64 446.422 186.431 447.155 185.141 447.68C184.581 447.91 183.931 447.851 183.425 447.503C181.184 445.967 174.077 442.036 170.77 444.071C169.161 445.067 168.303 446.437 168.22 448.143C168.073 451.219 170.465 454.957 174.619 458.148C178.886 461.424 186.416 462.346 192.927 460.395C197.563 459.007 203.736 455.594 206.824 447.24C207.183 446.255 208.257 445.767 209.194 446.144C210.146 446.514 210.62 447.61 210.257 448.587C207.428 456.246 201.639 461.731 193.954 464.034C191.318 464.826 188.564 465.21 185.87 465.21C180.742 465.21 175.84 463.815 172.422 461.191C167.204 457.182 164.335 452.359 164.55 447.954C164.694 444.993 166.23 442.461 168.881 440.821Z" fill="#121716"/>
<path fill-rule="evenodd" clip-rule="evenodd" d="M126.814 479.421C132.84 485.632 134.176 494.338 129.787 498.858C125.399 503.381 116.953 502.015 110.927 495.8C104.901 489.581 103.565 480.883 107.961 476.359C112.342 471.833 120.788 473.206 126.814 479.421Z" fill="#828D8C"/>
<path fill-rule="evenodd" clip-rule="evenodd" d="M124.786 486.624C128.097 490.044 128.643 495.026 125.997 497.758C123.346 500.49 118.505 499.935 115.191 496.515C111.873 493.091 111.327 488.105 113.977 485.373C116.627 482.641 121.468 483.204 124.786 486.624Z" fill="#EDEDEA"/>
<path fill-rule="evenodd" clip-rule="evenodd" d="M114.713 475.585C112.483 475.585 110.601 476.315 109.261 477.699C107.563 479.447 106.884 482.093 107.355 485.15C107.854 488.426 109.585 491.732 112.228 494.46C117.298 499.694 124.972 501.148 128.488 497.517C130.183 495.77 130.858 493.127 130.391 490.07C129.889 486.79 128.158 483.485 125.515 480.761C122.372 477.522 118.336 475.585 114.713 475.585ZM123.03 503.421C118.383 503.421 113.499 501.13 109.628 497.139C106.439 493.853 104.342 489.8 103.721 485.739C103.063 481.453 104.108 477.644 106.662 475.019C108.701 472.91 111.484 471.795 114.713 471.795C119.356 471.795 124.244 474.086 128.115 478.08C131.304 481.368 133.401 485.413 134.022 489.477C134.679 493.764 133.638 497.572 131.088 500.197C129.041 502.307 126.254 503.421 123.03 503.421Z" fill="#121716"/>
<path fill-rule="evenodd" clip-rule="evenodd" d="M181.895 479.421C175.869 485.632 174.533 494.338 178.922 498.858C183.31 503.381 191.756 502.015 197.782 495.8C203.808 489.581 205.144 480.883 200.748 476.359C196.367 471.833 187.921 473.206 181.895 479.421Z" fill="#828D8C"/>
<path fill-rule="evenodd" clip-rule="evenodd" d="M183.923 486.624C180.613 490.044 180.066 495.026 182.713 497.758C185.363 500.49 190.204 499.935 193.518 496.515C196.837 493.091 197.383 488.105 194.732 485.373C192.082 482.641 187.241 483.204 183.923 486.624Z" fill="#EDEDEA"/>
<path fill-rule="evenodd" clip-rule="evenodd" d="M183.194 480.761C180.551 483.485 178.82 486.79 178.317 490.07C177.851 493.127 178.526 495.77 180.221 497.517C183.736 501.148 191.41 499.694 196.481 494.46C199.124 491.732 200.855 488.426 201.354 485.15C201.824 482.093 201.146 479.447 199.447 477.699C198.108 476.315 196.226 475.585 193.996 475.585C190.373 475.585 186.337 477.522 183.194 480.761ZM177.621 500.197C175.071 497.572 174.03 493.764 174.687 489.477C175.308 485.413 177.406 481.368 180.594 478.08C184.466 474.086 189.353 471.795 193.996 471.795C197.224 471.795 200.008 472.91 202.047 475.019C204.601 477.644 205.646 481.453 204.988 485.739C204.367 489.8 202.27 493.853 199.081 497.139C195.21 501.13 190.326 503.421 185.679 503.421C182.455 503.421 179.668 502.307 177.621 500.197Z" fill="#121716"/>
<path fill-rule="evenodd" clip-rule="evenodd" d="M165.893 389.33C165.979 389.049 166.069 388.775 166.148 388.479C162.327 387.617 158.387 387.147 154.355 387.147C150.322 387.147 146.383 387.617 142.561 388.479C142.641 388.775 142.73 389.049 142.817 389.33L140.809 389.693L141.089 390.574L141.179 391.262C141.764 391.051 142.386 390.914 143.05 390.914C144.116 390.914 145.244 391.366 146.124 391.966C149.435 394.261 151.859 397.355 153.496 400.861C153.679 401.131 153.945 401.345 154.322 401.345C154.739 401.345 155.037 401.094 155.217 400.783H155.245C156.887 397.311 159.296 394.246 162.585 391.966C163.465 391.366 164.593 390.914 165.659 390.914C166.324 390.914 166.945 391.051 167.53 391.262L167.62 390.574L167.9 389.693L165.893 389.33Z" fill="#121716"/>
</g>
<g filter="url(#filter2_d_1_870)">
<rect x="406.706" y="214.5" width="136.685" height="56" rx="4" fill="white"/>
<g clip-path="url(#clip0_1_870)">
<path fill-rule="evenodd" clip-rule="evenodd" d="M425.331 232C424.635 232 423.967 232.277 423.475 232.769C422.982 233.261 422.706 233.929 422.706 234.625V250.375C422.706 251.824 423.882 253 425.331 253H444.081C444.777 253 445.445 252.723 445.937 252.231C446.429 251.739 446.706 251.071 446.706 250.375V237.625C446.706 236.929 446.429 236.261 445.937 235.769C445.445 235.277 444.777 235 444.081 235H434.331C434.273 235 434.215 234.986 434.163 234.96C434.111 234.934 434.066 234.897 434.031 234.85L432.681 233.05C432.186 232.39 431.406 232 430.581 232H425.331Z" fill="#45C8F1"/>
</g>
<path d="M456.706 248.23V236.594H461.07C461.964 236.594 462.714 236.76 463.32 237.094C463.929 237.427 464.39 237.885 464.7 238.469C465.015 239.048 465.172 239.707 465.172 240.446C465.172 241.192 465.015 241.855 464.7 242.435C464.386 243.014 463.922 243.471 463.308 243.804C462.695 244.134 461.939 244.298 461.041 244.298H458.149V242.565H460.757C461.28 242.565 461.708 242.474 462.041 242.293C462.374 242.111 462.621 241.861 462.78 241.543C462.943 241.224 463.024 240.859 463.024 240.446C463.024 240.033 462.943 239.67 462.78 239.355C462.621 239.041 462.373 238.796 462.035 238.622C461.702 238.444 461.272 238.355 460.746 238.355H458.814V248.23H456.706Z" fill="#3C4858"/>
<path d="M472.474 244.56V239.503H474.531V248.23H472.537V246.679H472.446C472.249 247.168 471.925 247.567 471.474 247.878C471.027 248.188 470.476 248.344 469.821 248.344C469.249 248.344 468.743 248.217 468.304 247.963C467.868 247.705 467.527 247.332 467.281 246.844C467.035 246.351 466.912 245.757 466.912 245.06V239.503H468.969V244.741C468.969 245.295 469.12 245.734 469.423 246.06C469.726 246.385 470.124 246.548 470.616 246.548C470.919 246.548 471.213 246.474 471.497 246.327C471.781 246.179 472.014 245.959 472.196 245.668C472.382 245.372 472.474 245.003 472.474 244.56Z" fill="#3C4858"/>
<path d="M476.646 248.23V239.503H478.641V240.957H478.732C478.891 240.454 479.163 240.065 479.55 239.793C479.94 239.516 480.385 239.378 480.885 239.378C480.999 239.378 481.125 239.384 481.266 239.395C481.41 239.402 481.529 239.416 481.624 239.435V241.327C481.536 241.296 481.398 241.27 481.209 241.247C481.023 241.221 480.843 241.207 480.669 241.207C480.294 241.207 479.957 241.289 479.658 241.452C479.362 241.611 479.129 241.832 478.959 242.116C478.788 242.401 478.703 242.728 478.703 243.099V248.23H476.646Z" fill="#3C4858"/>
<path d="M486.437 248.401C485.566 248.401 484.818 248.209 484.193 247.827C483.572 247.444 483.093 246.916 482.756 246.241C482.422 245.563 482.256 244.783 482.256 243.901C482.256 243.014 482.426 242.232 482.767 241.554C483.108 240.872 483.589 240.342 484.21 239.963C484.835 239.58 485.574 239.389 486.426 239.389C487.134 239.389 487.761 239.52 488.307 239.781C488.856 240.039 489.294 240.404 489.619 240.878C489.945 241.348 490.131 241.897 490.176 242.526H488.21C488.131 242.105 487.941 241.755 487.642 241.474C487.347 241.19 486.951 241.048 486.455 241.048C486.034 241.048 485.665 241.162 485.347 241.389C485.028 241.613 484.78 241.935 484.602 242.355C484.428 242.776 484.341 243.279 484.341 243.866C484.341 244.461 484.428 244.973 484.602 245.401C484.776 245.825 485.021 246.152 485.335 246.384C485.653 246.611 486.026 246.724 486.455 246.724C486.758 246.724 487.028 246.668 487.267 246.554C487.509 246.437 487.712 246.268 487.875 246.048C488.038 245.829 488.15 245.562 488.21 245.247H490.176C490.127 245.865 489.945 246.412 489.631 246.889C489.316 247.363 488.888 247.734 488.347 248.003C487.805 248.268 487.169 248.401 486.437 248.401Z" fill="#3C4858"/>
<path d="M493.922 243.116V248.23H491.865V236.594H493.876V240.986H493.979C494.183 240.493 494.499 240.105 494.928 239.821C495.359 239.533 495.909 239.389 496.575 239.389C497.181 239.389 497.71 239.516 498.16 239.77C498.611 240.024 498.96 240.395 499.206 240.884C499.456 241.372 499.581 241.969 499.581 242.673V248.23H497.524V242.991C497.524 242.404 497.373 241.948 497.07 241.622C496.77 241.293 496.35 241.128 495.808 241.128C495.445 241.128 495.119 241.207 494.831 241.366C494.547 241.522 494.323 241.747 494.16 242.043C494.001 242.338 493.922 242.696 493.922 243.116Z" fill="#3C4858"/>
<path d="M504.189 248.406C503.636 248.406 503.138 248.308 502.695 248.111C502.255 247.91 501.907 247.615 501.649 247.224C501.395 246.834 501.268 246.353 501.268 245.781C501.268 245.289 501.359 244.882 501.541 244.56C501.723 244.238 501.971 243.98 502.285 243.787C502.6 243.594 502.954 243.448 503.348 243.349C503.746 243.247 504.157 243.173 504.581 243.128C505.092 243.075 505.507 243.027 505.825 242.986C506.143 242.94 506.374 242.872 506.518 242.781C506.666 242.687 506.74 242.541 506.74 242.344V242.31C506.74 241.882 506.613 241.55 506.359 241.315C506.106 241.08 505.74 240.963 505.263 240.963C504.759 240.963 504.359 241.073 504.064 241.293C503.772 241.512 503.575 241.772 503.473 242.071L501.553 241.798C501.704 241.268 501.954 240.825 502.303 240.469C502.651 240.109 503.077 239.84 503.581 239.662C504.085 239.48 504.642 239.389 505.251 239.389C505.672 239.389 506.09 239.438 506.507 239.537C506.924 239.635 507.304 239.798 507.649 240.026C507.994 240.249 508.27 240.554 508.479 240.94C508.691 241.327 508.797 241.81 508.797 242.389V248.23H506.82V247.031H506.751C506.626 247.274 506.45 247.501 506.223 247.713C505.999 247.921 505.717 248.09 505.376 248.219C505.039 248.344 504.643 248.406 504.189 248.406ZM504.723 246.895C505.136 246.895 505.494 246.813 505.797 246.651C506.1 246.484 506.333 246.264 506.496 245.991C506.662 245.719 506.746 245.421 506.746 245.099V244.071C506.681 244.124 506.571 244.173 506.416 244.219C506.265 244.264 506.094 244.304 505.905 244.338C505.715 244.372 505.528 244.402 505.342 244.429C505.157 244.455 504.996 244.478 504.859 244.497C504.553 244.539 504.278 244.607 504.035 244.702C503.793 244.796 503.602 244.929 503.462 245.099C503.321 245.266 503.251 245.482 503.251 245.747C503.251 246.126 503.39 246.412 503.666 246.605C503.943 246.798 504.295 246.895 504.723 246.895Z" fill="#3C4858"/>
<path d="M517.763 241.81L515.888 242.014C515.835 241.825 515.742 241.647 515.609 241.48C515.481 241.313 515.306 241.179 515.087 241.077C514.867 240.974 514.598 240.923 514.28 240.923C513.852 240.923 513.492 241.016 513.2 241.202C512.912 241.387 512.77 241.628 512.774 241.923C512.77 242.177 512.863 242.384 513.053 242.543C513.246 242.702 513.564 242.832 514.007 242.935L515.496 243.253C516.321 243.431 516.935 243.713 517.337 244.099C517.742 244.486 517.946 244.991 517.95 245.616C517.946 246.166 517.785 246.651 517.467 247.071C517.153 247.488 516.715 247.813 516.155 248.048C515.594 248.283 514.95 248.401 514.223 248.401C513.155 248.401 512.295 248.177 511.643 247.73C510.992 247.279 510.604 246.652 510.479 245.849L512.484 245.656C512.575 246.05 512.768 246.348 513.064 246.548C513.359 246.749 513.744 246.849 514.217 246.849C514.706 246.849 515.098 246.749 515.393 246.548C515.693 246.348 515.842 246.099 515.842 245.804C515.842 245.554 515.746 245.348 515.553 245.185C515.363 245.022 515.068 244.897 514.666 244.81L513.178 244.497C512.34 244.323 511.721 244.029 511.32 243.616C510.918 243.2 510.719 242.673 510.723 242.037C510.719 241.499 510.865 241.033 511.16 240.639C511.46 240.241 511.874 239.935 512.405 239.719C512.939 239.499 513.554 239.389 514.251 239.389C515.274 239.389 516.079 239.607 516.666 240.043C517.257 240.478 517.623 241.067 517.763 241.81Z" fill="#3C4858"/>
<path d="M523.51 248.401C522.635 248.401 521.879 248.219 521.243 247.855C520.61 247.488 520.124 246.969 519.783 246.298C519.442 245.624 519.271 244.83 519.271 243.918C519.271 243.02 519.442 242.232 519.783 241.554C520.127 240.872 520.608 240.342 521.226 239.963C521.843 239.58 522.569 239.389 523.402 239.389C523.94 239.389 524.447 239.476 524.925 239.651C525.406 239.821 525.83 240.086 526.197 240.446C526.569 240.806 526.86 241.264 527.072 241.821C527.285 242.374 527.391 243.033 527.391 243.798V244.429H520.237V243.043H525.419C525.415 242.649 525.33 242.298 525.163 241.991C524.997 241.681 524.764 241.437 524.464 241.259C524.169 241.08 523.824 240.991 523.43 240.991C523.01 240.991 522.641 241.094 522.322 241.298C522.004 241.499 521.756 241.764 521.578 242.094C521.404 242.42 521.315 242.777 521.311 243.168V244.378C521.311 244.885 521.404 245.321 521.589 245.685C521.775 246.045 522.035 246.321 522.368 246.514C522.701 246.704 523.091 246.798 523.538 246.798C523.838 246.798 524.108 246.757 524.351 246.673C524.593 246.586 524.803 246.459 524.981 246.293C525.16 246.126 525.294 245.92 525.385 245.673L527.305 245.889C527.184 246.397 526.953 246.84 526.612 247.219C526.275 247.594 525.843 247.885 525.317 248.094C524.79 248.298 524.188 248.401 523.51 248.401Z" fill="#3C4858"/>
</g>
<g filter="url(#filter3_d_1_870)">
<rect x="406.706" y="342.5" width="138.527" height="56" rx="4" fill="white"/>
<path d="M427.706 365.5C427.706 362.065 431.024 359.5 434.706 359.5C438.387 359.5 441.706 362.065 441.706 365.5V370.039C441.706 370.681 441.896 371.308 442.252 371.842L444.451 375.141C444.617 375.39 444.706 375.683 444.706 375.982C444.706 376.821 444.026 377.5 443.188 377.5H426.224C425.385 377.5 424.706 376.821 424.706 375.982C424.706 375.683 424.795 375.39 424.961 375.141L427.16 371.842C427.516 371.308 427.706 370.681 427.706 370.039V365.5Z" fill="#EBAE00"/>
<path d="M434.706 381C433.121 381 431.781 379.946 431.351 378.5H438.061C437.631 379.946 436.292 381 434.706 381Z" fill="#EBAE00"/>
<path d="M467.399 369.054C467.399 370.308 467.164 371.382 466.695 372.276C466.229 373.166 465.592 373.848 464.785 374.321C463.982 374.795 463.071 375.031 462.053 375.031C461.034 375.031 460.121 374.795 459.314 374.321C458.511 373.844 457.874 373.16 457.405 372.27C456.939 371.376 456.706 370.304 456.706 369.054C456.706 367.8 456.939 366.728 457.405 365.838C457.874 364.944 458.511 364.26 459.314 363.787C460.121 363.313 461.034 363.077 462.053 363.077C463.071 363.077 463.982 363.313 464.785 363.787C465.592 364.26 466.229 364.944 466.695 365.838C467.164 366.728 467.399 367.8 467.399 369.054ZM465.28 369.054C465.28 368.171 465.142 367.427 464.865 366.821C464.592 366.211 464.214 365.751 463.729 365.44C463.244 365.126 462.685 364.969 462.053 364.969C461.42 364.969 460.861 365.126 460.376 365.44C459.892 365.751 459.511 366.211 459.234 366.821C458.962 367.427 458.825 368.171 458.825 369.054C458.825 369.937 458.962 370.683 459.234 371.293C459.511 371.899 459.892 372.359 460.376 372.673C460.861 372.984 461.42 373.139 462.053 373.139C462.685 373.139 463.244 372.984 463.729 372.673C464.214 372.359 464.592 371.899 464.865 371.293C465.142 370.683 465.28 369.937 465.28 369.054Z" fill="#3C4858"/>
<path d="M469.301 378.145V366.145H471.324V367.588H471.443C471.549 367.376 471.699 367.151 471.892 366.912C472.085 366.67 472.347 366.463 472.676 366.293C473.006 366.118 473.426 366.031 473.937 366.031C474.612 366.031 475.22 366.204 475.761 366.548C476.307 366.889 476.739 367.395 477.057 368.065C477.379 368.732 477.54 369.55 477.54 370.52C477.54 371.478 477.383 372.293 477.068 372.963C476.754 373.634 476.326 374.145 475.784 374.497C475.242 374.849 474.629 375.026 473.943 375.026C473.443 375.026 473.028 374.942 472.699 374.776C472.369 374.609 472.104 374.408 471.903 374.173C471.706 373.935 471.553 373.709 471.443 373.497H471.358V378.145H469.301ZM471.318 370.509C471.318 371.073 471.398 371.567 471.557 371.992C471.72 372.416 471.953 372.747 472.256 372.986C472.562 373.221 472.934 373.338 473.369 373.338C473.824 373.338 474.205 373.217 474.511 372.974C474.818 372.728 475.049 372.393 475.205 371.969C475.364 371.541 475.443 371.054 475.443 370.509C475.443 369.967 475.365 369.486 475.21 369.065C475.055 368.645 474.824 368.315 474.517 368.077C474.21 367.838 473.828 367.719 473.369 367.719C472.93 367.719 472.557 367.834 472.25 368.065C471.943 368.296 471.71 368.62 471.551 369.037C471.396 369.454 471.318 369.944 471.318 370.509Z" fill="#3C4858"/>
<path d="M486.199 368.452L484.324 368.656C484.271 368.467 484.178 368.289 484.045 368.122C483.917 367.956 483.742 367.821 483.523 367.719C483.303 367.617 483.034 367.565 482.716 367.565C482.288 367.565 481.928 367.658 481.636 367.844C481.348 368.029 481.206 368.27 481.21 368.565C481.206 368.819 481.299 369.026 481.489 369.185C481.682 369.344 482 369.474 482.443 369.577L483.932 369.895C484.758 370.073 485.371 370.355 485.773 370.742C486.178 371.128 486.383 371.634 486.386 372.259C486.383 372.808 486.222 373.293 485.903 373.713C485.589 374.13 485.151 374.456 484.591 374.69C484.03 374.925 483.386 375.043 482.659 375.043C481.591 375.043 480.731 374.819 480.08 374.372C479.428 373.921 479.04 373.295 478.915 372.492L480.92 372.298C481.011 372.692 481.205 372.99 481.5 373.19C481.795 373.391 482.18 373.492 482.653 373.492C483.142 373.492 483.534 373.391 483.83 373.19C484.129 372.99 484.278 372.742 484.278 372.446C484.278 372.196 484.182 371.99 483.989 371.827C483.799 371.664 483.504 371.539 483.102 371.452L481.614 371.139C480.776 370.965 480.157 370.671 479.756 370.259C479.354 369.842 479.155 369.315 479.159 368.679C479.155 368.141 479.301 367.675 479.597 367.281C479.896 366.884 480.311 366.577 480.841 366.361C481.375 366.141 481.99 366.031 482.687 366.031C483.71 366.031 484.515 366.249 485.102 366.685C485.693 367.12 486.059 367.709 486.199 368.452Z" fill="#3C4858"/>
<path d="M491.878 378.327C491.139 378.327 490.505 378.226 489.974 378.026C489.444 377.829 489.018 377.563 488.696 377.23C488.374 376.897 488.151 376.528 488.026 376.122L489.878 375.673C489.961 375.844 490.082 376.012 490.241 376.179C490.401 376.349 490.615 376.49 490.883 376.599C491.156 376.713 491.499 376.77 491.912 376.77C492.495 376.77 492.978 376.628 493.361 376.344C493.743 376.063 493.935 375.601 493.935 374.957V373.304H493.832C493.726 373.516 493.571 373.734 493.366 373.957C493.166 374.181 492.899 374.368 492.565 374.52C492.236 374.671 491.821 374.747 491.321 374.747C490.651 374.747 490.043 374.59 489.497 374.276C488.955 373.957 488.524 373.484 488.202 372.855C487.883 372.223 487.724 371.431 487.724 370.48C487.724 369.522 487.883 368.713 488.202 368.054C488.524 367.391 488.957 366.889 489.503 366.548C490.048 366.204 490.656 366.031 491.327 366.031C491.838 366.031 492.258 366.118 492.588 366.293C492.921 366.463 493.187 366.67 493.383 366.912C493.58 367.151 493.73 367.376 493.832 367.588H493.946V366.145H495.974V375.014C495.974 375.76 495.796 376.378 495.44 376.867C495.084 377.355 494.598 377.721 493.98 377.963C493.363 378.206 492.662 378.327 491.878 378.327ZM491.895 373.134C492.33 373.134 492.702 373.028 493.008 372.815C493.315 372.603 493.548 372.298 493.707 371.901C493.866 371.503 493.946 371.026 493.946 370.469C493.946 369.92 493.866 369.438 493.707 369.026C493.552 368.613 493.321 368.293 493.014 368.065C492.711 367.834 492.338 367.719 491.895 367.719C491.437 367.719 491.054 367.838 490.747 368.077C490.44 368.315 490.209 368.643 490.054 369.06C489.899 369.473 489.821 369.942 489.821 370.469C489.821 371.003 489.899 371.471 490.054 371.872C490.213 372.27 490.446 372.581 490.753 372.804C491.063 373.024 491.444 373.134 491.895 373.134Z" fill="#3C4858"/>
<path d="M501.946 375.043C501.071 375.043 500.315 374.861 499.679 374.497C499.046 374.13 498.56 373.611 498.219 372.94C497.878 372.266 497.707 371.473 497.707 370.56C497.707 369.662 497.878 368.874 498.219 368.196C498.563 367.514 499.044 366.984 499.662 366.605C500.279 366.223 501.005 366.031 501.838 366.031C502.376 366.031 502.883 366.118 503.361 366.293C503.842 366.463 504.266 366.728 504.633 367.088C505.005 367.448 505.296 367.906 505.508 368.463C505.721 369.016 505.827 369.675 505.827 370.44V371.071H498.673V369.685H503.855C503.851 369.291 503.766 368.94 503.599 368.634C503.433 368.323 503.2 368.079 502.901 367.901C502.605 367.723 502.26 367.634 501.866 367.634C501.446 367.634 501.077 367.736 500.758 367.94C500.44 368.141 500.192 368.406 500.014 368.736C499.84 369.062 499.751 369.42 499.747 369.81V371.02C499.747 371.528 499.84 371.963 500.026 372.327C500.211 372.687 500.471 372.963 500.804 373.156C501.137 373.346 501.527 373.44 501.974 373.44C502.274 373.44 502.544 373.399 502.787 373.315C503.029 373.228 503.24 373.101 503.418 372.935C503.596 372.768 503.73 372.562 503.821 372.315L505.741 372.531C505.62 373.039 505.389 373.482 505.048 373.861C504.711 374.236 504.279 374.528 503.753 374.736C503.226 374.94 502.624 375.043 501.946 375.043Z" fill="#3C4858"/>
<path d="M509.624 369.759V374.872H507.567V366.145H509.533V367.628H509.635C509.836 367.139 510.156 366.751 510.595 366.463C511.038 366.175 511.586 366.031 512.237 366.031C512.839 366.031 513.364 366.16 513.811 366.418C514.262 366.675 514.61 367.048 514.857 367.537C515.107 368.026 515.23 368.618 515.226 369.315V374.872H513.169V369.634C513.169 369.05 513.017 368.594 512.714 368.264C512.415 367.935 512 367.77 511.47 367.77C511.11 367.77 510.79 367.849 510.51 368.009C510.233 368.164 510.016 368.389 509.857 368.685C509.701 368.98 509.624 369.338 509.624 369.759Z" fill="#3C4858"/>
<path d="M517.317 374.872V366.145H519.374V374.872H517.317ZM518.351 364.906C518.025 364.906 517.745 364.798 517.51 364.582C517.275 364.363 517.158 364.099 517.158 363.793C517.158 363.482 517.275 363.219 517.51 363.003C517.745 362.783 518.025 362.673 518.351 362.673C518.68 362.673 518.961 362.783 519.192 363.003C519.427 363.219 519.544 363.482 519.544 363.793C519.544 364.099 519.427 364.363 519.192 364.582C518.961 364.798 518.68 364.906 518.351 364.906Z" fill="#3C4858"/>
<path d="M525.352 375.043C524.477 375.043 523.722 374.861 523.085 374.497C522.453 374.13 521.966 373.611 521.625 372.94C521.284 372.266 521.114 371.473 521.114 370.56C521.114 369.662 521.284 368.874 521.625 368.196C521.97 367.514 522.451 366.984 523.068 366.605C523.686 366.223 524.411 366.031 525.244 366.031C525.782 366.031 526.29 366.118 526.767 366.293C527.248 366.463 527.672 366.728 528.04 367.088C528.411 367.448 528.703 367.906 528.915 368.463C529.127 369.016 529.233 369.675 529.233 370.44V371.071H522.08V369.685H527.261C527.258 369.291 527.172 368.94 527.006 368.634C526.839 368.323 526.606 368.079 526.307 367.901C526.011 367.723 525.667 367.634 525.273 367.634C524.852 367.634 524.483 367.736 524.165 367.94C523.847 368.141 523.598 368.406 523.42 368.736C523.246 369.062 523.157 369.42 523.153 369.81V371.02C523.153 371.528 523.246 371.963 523.432 372.327C523.617 372.687 523.877 372.963 524.21 373.156C524.544 373.346 524.934 373.44 525.381 373.44C525.68 373.44 525.951 373.399 526.193 373.315C526.436 373.228 526.646 373.101 526.824 372.935C527.002 372.768 527.136 372.562 527.227 372.315L529.148 372.531C529.026 373.039 528.795 373.482 528.455 373.861C528.117 374.236 527.686 374.528 527.159 374.736C526.633 374.94 526.03 375.043 525.352 375.043Z" fill="#3C4858"/>
</g>
<g filter="url(#filter4_d_1_870)">
<rect x="406.706" y="86.5" width="132.254" height="56" rx="4" fill="white"/>
<g clip-path="url(#clip1_1_870)">
<rect width="24" height="24" transform="translate(422.706 102.5)" fill="white"/>
<path fill-rule="evenodd" clip-rule="evenodd" d="M424.706 106.5C423.601 106.5 422.706 107.395 422.706 108.5V120.5C422.706 121.605 423.601 122.5 424.706 122.5H444.706C445.811 122.5 446.706 121.605 446.706 120.5V108.5C446.706 107.395 445.811 106.5 444.706 106.5H424.706ZM428.171 114.463L428.013 115.015H429.45L429.293 114.463C429.202 114.163 429.108 113.847 429.01 113.515C428.912 113.178 428.824 112.85 428.748 112.531H428.706C428.622 112.85 428.534 113.178 428.443 113.515C428.352 113.847 428.262 114.163 428.171 114.463ZM425.706 117.5L427.835 111.5H429.681L431.81 117.5H430.174L429.765 116.074H427.699L427.279 117.5H425.706ZM432.687 117.5V111.5H435.11C435.48 111.5 435.826 111.534 436.148 111.601C436.477 111.663 436.76 111.77 436.998 111.923C437.242 112.071 437.435 112.27 437.574 112.521C437.714 112.767 437.784 113.071 437.784 113.433C437.784 113.782 437.711 114.086 437.564 114.344C437.424 114.601 437.232 114.813 436.987 114.979C436.742 115.144 436.459 115.267 436.138 115.347C435.816 115.426 435.473 115.466 435.11 115.466H434.229V117.5H432.687ZM434.229 114.39H435.015C435.854 114.39 436.274 114.071 436.274 113.433C436.274 113.12 436.166 112.899 435.949 112.77C435.739 112.641 435.428 112.577 435.015 112.577H434.229V114.39ZM438.965 116.359V117.5H443.706V116.359H442.112V112.641H443.706V111.5H438.965V112.641H440.559V116.359H438.965Z" fill="#3C4858"/>
</g>
<path d="M456.706 118.682V107.045H461.07C461.964 107.045 462.714 107.212 463.32 107.545C463.929 107.879 464.39 108.337 464.7 108.92C465.015 109.5 465.172 110.159 465.172 110.898C465.172 111.644 465.015 112.307 464.7 112.886C464.386 113.466 463.922 113.922 463.308 114.256C462.695 114.585 461.939 114.75 461.041 114.75H458.149V113.017H460.757C461.28 113.017 461.708 112.926 462.041 112.744C462.374 112.562 462.621 112.312 462.78 111.994C462.943 111.676 463.024 111.311 463.024 110.898C463.024 110.485 462.943 110.121 462.78 109.807C462.621 109.492 462.373 109.248 462.035 109.074C461.702 108.896 461.272 108.807 460.746 108.807H458.814V118.682H456.706Z" fill="#3C4858"/>
<path d="M469.267 118.858C468.714 118.858 468.216 118.759 467.773 118.562C467.333 118.362 466.985 118.066 466.727 117.676C466.473 117.286 466.347 116.805 466.347 116.233C466.347 115.74 466.437 115.333 466.619 115.011C466.801 114.689 467.049 114.432 467.364 114.239C467.678 114.045 468.032 113.9 468.426 113.801C468.824 113.699 469.235 113.625 469.659 113.58C470.17 113.526 470.585 113.479 470.903 113.437C471.222 113.392 471.453 113.324 471.597 113.233C471.744 113.138 471.818 112.992 471.818 112.795V112.761C471.818 112.333 471.691 112.002 471.437 111.767C471.184 111.532 470.818 111.415 470.341 111.415C469.837 111.415 469.437 111.525 469.142 111.744C468.85 111.964 468.653 112.223 468.551 112.523L466.631 112.25C466.782 111.72 467.032 111.276 467.381 110.92C467.729 110.561 468.155 110.292 468.659 110.114C469.163 109.932 469.72 109.841 470.33 109.841C470.75 109.841 471.169 109.89 471.585 109.989C472.002 110.087 472.383 110.25 472.727 110.477C473.072 110.701 473.348 111.006 473.557 111.392C473.769 111.778 473.875 112.261 473.875 112.841V118.682H471.898V117.483H471.83C471.705 117.725 471.528 117.953 471.301 118.165C471.078 118.373 470.795 118.542 470.455 118.67C470.117 118.795 469.722 118.858 469.267 118.858ZM469.801 117.347C470.214 117.347 470.572 117.265 470.875 117.102C471.178 116.936 471.411 116.716 471.574 116.443C471.74 116.17 471.824 115.873 471.824 115.551V114.523C471.759 114.576 471.65 114.625 471.494 114.67C471.343 114.716 471.172 114.756 470.983 114.79C470.794 114.824 470.606 114.854 470.42 114.881C470.235 114.907 470.074 114.93 469.937 114.949C469.631 114.99 469.356 115.059 469.114 115.153C468.871 115.248 468.68 115.381 468.54 115.551C468.4 115.718 468.33 115.934 468.33 116.199C468.33 116.578 468.468 116.864 468.744 117.057C469.021 117.25 469.373 117.347 469.801 117.347Z" fill="#3C4858"/>
<path d="M476.909 121.955C476.629 121.955 476.369 121.932 476.131 121.886C475.896 121.845 475.708 121.795 475.568 121.739L476.045 120.136C476.345 120.223 476.612 120.265 476.847 120.261C477.081 120.258 477.288 120.184 477.466 120.04C477.648 119.9 477.801 119.665 477.926 119.335L478.102 118.864L474.937 109.955H477.119L479.131 116.545H479.222L481.239 109.955H483.426L479.932 119.739C479.769 120.201 479.553 120.597 479.284 120.926C479.015 121.259 478.686 121.513 478.295 121.687C477.909 121.865 477.447 121.955 476.909 121.955Z" fill="#3C4858"/>
<path d="M484.849 118.682V109.955H486.815V111.437H486.918C487.099 110.937 487.401 110.547 487.821 110.267C488.241 109.983 488.743 109.841 489.327 109.841C489.918 109.841 490.416 109.985 490.821 110.273C491.23 110.557 491.518 110.945 491.685 111.437H491.776C491.969 110.953 492.294 110.566 492.753 110.278C493.215 109.987 493.762 109.841 494.395 109.841C495.198 109.841 495.853 110.095 496.361 110.602C496.868 111.11 497.122 111.85 497.122 112.824V118.682H495.06V113.142C495.06 112.6 494.916 112.205 494.628 111.955C494.34 111.701 493.988 111.574 493.571 111.574C493.075 111.574 492.687 111.729 492.406 112.04C492.13 112.347 491.991 112.746 491.991 113.239V118.682H489.974V113.057C489.974 112.606 489.838 112.246 489.565 111.977C489.296 111.708 488.944 111.574 488.508 111.574C488.213 111.574 487.944 111.65 487.702 111.801C487.459 111.949 487.266 112.159 487.122 112.432C486.978 112.701 486.906 113.015 486.906 113.375V118.682H484.849Z" fill="#3C4858"/>
<path d="M503.072 118.852C502.197 118.852 501.442 118.67 500.805 118.307C500.173 117.939 499.686 117.42 499.345 116.75C499.004 116.076 498.834 115.282 498.834 114.369C498.834 113.472 499.004 112.684 499.345 112.006C499.69 111.324 500.171 110.794 500.788 110.415C501.406 110.032 502.131 109.841 502.964 109.841C503.502 109.841 504.01 109.928 504.487 110.102C504.968 110.273 505.392 110.538 505.76 110.898C506.131 111.258 506.423 111.716 506.635 112.273C506.847 112.826 506.953 113.485 506.953 114.25V114.881H499.8V113.494H504.981C504.978 113.1 504.892 112.75 504.726 112.443C504.559 112.133 504.326 111.888 504.027 111.71C503.732 111.532 503.387 111.443 502.993 111.443C502.572 111.443 502.203 111.545 501.885 111.75C501.567 111.951 501.319 112.216 501.141 112.545C500.966 112.871 500.877 113.229 500.874 113.619V114.83C500.874 115.337 500.966 115.773 501.152 116.136C501.338 116.496 501.597 116.773 501.93 116.966C502.264 117.155 502.654 117.25 503.101 117.25C503.4 117.25 503.671 117.208 503.913 117.125C504.156 117.038 504.366 116.911 504.544 116.744C504.722 116.578 504.857 116.371 504.947 116.125L506.868 116.341C506.747 116.848 506.516 117.292 506.175 117.67C505.838 118.045 505.406 118.337 504.879 118.545C504.353 118.75 503.75 118.852 503.072 118.852Z" fill="#3C4858"/>
<path d="M510.75 113.568V118.682H508.693V109.955H510.659V111.437H510.761C510.962 110.949 511.282 110.561 511.722 110.273C512.165 109.985 512.712 109.841 513.364 109.841C513.966 109.841 514.49 109.97 514.937 110.227C515.388 110.485 515.737 110.858 515.983 111.347C516.233 111.835 516.356 112.428 516.352 113.125V118.682H514.295V113.443C514.295 112.86 514.144 112.403 513.841 112.074C513.542 111.744 513.127 111.58 512.597 111.58C512.237 111.58 511.917 111.659 511.636 111.818C511.36 111.973 511.142 112.199 510.983 112.494C510.828 112.79 510.75 113.148 510.75 113.568Z" fill="#3C4858"/>
<path d="M522.801 109.955V111.545H517.784V109.955H522.801ZM519.023 107.864H521.08V116.057C521.08 116.333 521.121 116.545 521.205 116.693C521.292 116.837 521.405 116.936 521.545 116.989C521.686 117.042 521.841 117.068 522.011 117.068C522.14 117.068 522.258 117.059 522.364 117.04C522.473 117.021 522.557 117.004 522.614 116.989L522.96 118.597C522.85 118.634 522.693 118.676 522.489 118.722C522.288 118.767 522.042 118.794 521.75 118.801C521.235 118.816 520.771 118.739 520.358 118.568C519.945 118.394 519.617 118.125 519.375 117.761C519.136 117.398 519.019 116.943 519.023 116.398V107.864Z" fill="#3C4858"/>
</g>
<g filter="url(#filter5_d_1_870)">
<rect x="430.706" y="150.5" width="172.588" height="56" rx="4" fill="white"/>
<path d="M468.706 178.5C468.706 184.022 464.228 188.5 458.706 188.5C453.184 188.5 448.706 184.022 448.706 178.5C448.706 172.978 453.184 168.5 458.706 168.5C464.228 168.5 468.706 172.978 468.706 178.5Z" fill="#4CAF50"/>
<path d="M458.706 168.5V178.5L462.706 180.5L458.284 188.5C458.443 188.5 458.547 188.5 458.706 188.5C464.232 188.5 468.706 184.027 468.706 178.5C468.706 172.973 464.232 168.5 458.706 168.5Z" fill="#FFC107"/>
<path d="M468.706 178.5C468.706 184.022 464.228 188.5 458.706 188.5C453.184 188.5 448.706 184.022 448.706 178.5C448.706 172.978 453.184 168.5 458.706 168.5C464.228 168.5 468.706 172.978 468.706 178.5Z" fill="#4CAF50"/>
<path d="M458.706 168.5V178.5L462.706 180.5L458.284 188.5C458.443 188.5 458.547 188.5 458.706 188.5C464.232 188.5 468.706 184.027 468.706 178.5C468.706 172.973 464.232 168.5 458.706 168.5Z" fill="#FFC107"/>
<path d="M467.626 174H458.706V180.5L457.206 180L450.286 173.13H450.276C452.046 170.345 455.161 168.5 458.706 168.5C462.606 168.5 465.981 170.74 467.626 174Z" fill="#F44336"/>
<path d="M450.285 173.132L454.706 180.563L457.206 180L450.285 173.132Z" fill="#DD2C00"/>
<path d="M458.284 188.5L462.751 180.471L460.706 179L458.284 188.5Z" fill="#558B2F"/>
<path d="M467.638 174H458.706L457.916 176.29L467.638 174Z" fill="#F9A825"/>
<path d="M463.206 178.5C463.206 180.984 461.19 183 458.706 183C456.221 183 454.206 180.984 454.206 178.5C454.206 176.016 456.221 174 458.706 174C461.19 174 463.206 176.016 463.206 178.5Z" fill="white"/>
<path d="M462.206 178.5C462.206 180.433 460.639 182 458.706 182C456.772 182 455.206 180.433 455.206 178.5C455.206 176.566 456.772 175 458.706 175C460.639 175 462.206 176.566 462.206 178.5Z" fill="#2196F3"/>
<path d="M482.956 184.23H480.706L484.803 172.594H487.405L491.507 184.23H489.257L486.149 174.98H486.058L482.956 184.23ZM483.03 179.668H489.166V181.361H483.03V179.668Z" fill="#3C4858"/>
<path d="M495.922 184.384C495.236 184.384 494.623 184.207 494.081 183.855C493.539 183.503 493.111 182.991 492.797 182.321C492.482 181.651 492.325 180.836 492.325 179.878C492.325 178.908 492.484 178.09 492.803 177.423C493.124 176.753 493.558 176.247 494.104 175.906C494.649 175.562 495.257 175.389 495.928 175.389C496.439 175.389 496.859 175.476 497.189 175.651C497.518 175.821 497.78 176.027 497.973 176.27C498.166 176.509 498.316 176.734 498.422 176.946H498.507V172.594H500.57V184.23H498.547V182.855H498.422C498.316 183.067 498.162 183.293 497.962 183.531C497.761 183.766 497.496 183.967 497.166 184.134C496.837 184.3 496.422 184.384 495.922 184.384ZM496.496 182.696C496.931 182.696 497.303 182.579 497.609 182.344C497.916 182.105 498.149 181.774 498.308 181.349C498.467 180.925 498.547 180.431 498.547 179.866C498.547 179.302 498.467 178.812 498.308 178.395C498.153 177.978 497.922 177.654 497.615 177.423C497.312 177.192 496.939 177.077 496.496 177.077C496.037 177.077 495.655 177.196 495.348 177.435C495.041 177.673 494.81 178.003 494.655 178.423C494.499 178.844 494.422 179.325 494.422 179.866C494.422 180.412 494.499 180.899 494.655 181.327C494.814 181.751 495.047 182.086 495.354 182.332C495.664 182.575 496.045 182.696 496.496 182.696Z" fill="#3C4858"/>
<path d="M506 184.384C505.314 184.384 504.701 184.207 504.159 183.855C503.617 183.503 503.189 182.991 502.875 182.321C502.561 181.651 502.403 180.836 502.403 179.878C502.403 178.908 502.562 178.09 502.881 177.423C503.203 176.753 503.636 176.247 504.182 175.906C504.727 175.562 505.335 175.389 506.006 175.389C506.517 175.389 506.937 175.476 507.267 175.651C507.597 175.821 507.858 176.027 508.051 176.27C508.244 176.509 508.394 176.734 508.5 176.946H508.585V172.594H510.648V184.23H508.625V182.855H508.5C508.394 183.067 508.24 183.293 508.04 183.531C507.839 183.766 507.574 183.967 507.244 184.134C506.915 184.3 506.5 184.384 506 184.384ZM506.574 182.696C507.009 182.696 507.381 182.579 507.687 182.344C507.994 182.105 508.227 181.774 508.386 181.349C508.545 180.925 508.625 180.431 508.625 179.866C508.625 179.302 508.545 178.812 508.386 178.395C508.231 177.978 508 177.654 507.693 177.423C507.39 177.192 507.017 177.077 506.574 177.077C506.115 177.077 505.733 177.196 505.426 177.435C505.119 177.673 504.888 178.003 504.733 178.423C504.578 178.844 504.5 179.325 504.5 179.866C504.5 180.412 504.578 180.899 504.733 181.327C504.892 181.751 505.125 182.086 505.432 182.332C505.742 182.575 506.123 182.696 506.574 182.696Z" fill="#3C4858"/>
<path d="M521.166 175.503V177.094H516.149V175.503H521.166ZM517.388 173.412H519.445V181.605C519.445 181.882 519.486 182.094 519.57 182.241C519.657 182.385 519.77 182.484 519.91 182.537C520.051 182.59 520.206 182.616 520.376 182.616C520.505 182.616 520.623 182.607 520.729 182.588C520.839 182.569 520.922 182.552 520.979 182.537L521.325 184.145C521.215 184.183 521.058 184.224 520.854 184.27C520.653 184.315 520.407 184.342 520.115 184.349C519.6 184.365 519.136 184.287 518.723 184.116C518.31 183.942 517.982 183.673 517.74 183.31C517.501 182.946 517.384 182.491 517.388 181.946V173.412Z" fill="#3C4858"/>
<path d="M526.599 184.401C525.747 184.401 525.008 184.213 524.383 183.838C523.758 183.463 523.274 182.938 522.929 182.264C522.588 181.59 522.418 180.802 522.418 179.901C522.418 178.999 522.588 178.209 522.929 177.531C523.274 176.853 523.758 176.327 524.383 175.952C525.008 175.577 525.747 175.389 526.599 175.389C527.452 175.389 528.19 175.577 528.815 175.952C529.44 176.327 529.923 176.853 530.264 177.531C530.609 178.209 530.781 178.999 530.781 179.901C530.781 180.802 530.609 181.59 530.264 182.264C529.923 182.938 529.44 183.463 528.815 183.838C528.19 184.213 527.452 184.401 526.599 184.401ZM526.611 182.753C527.073 182.753 527.459 182.626 527.77 182.372C528.08 182.115 528.312 181.77 528.463 181.338C528.618 180.906 528.696 180.425 528.696 179.895C528.696 179.361 528.618 178.878 528.463 178.446C528.312 178.01 528.08 177.664 527.77 177.406C527.459 177.149 527.073 177.02 526.611 177.02C526.137 177.02 525.743 177.149 525.429 177.406C525.118 177.664 524.885 178.01 524.73 178.446C524.579 178.878 524.503 179.361 524.503 179.895C524.503 180.425 524.579 180.906 524.73 181.338C524.885 181.77 525.118 182.115 525.429 182.372C525.743 182.626 526.137 182.753 526.611 182.753Z" fill="#3C4858"/>
<path d="M536.587 184.23V172.594H538.643V176.946H538.729C538.835 176.734 538.984 176.509 539.178 176.27C539.371 176.027 539.632 175.821 539.962 175.651C540.291 175.476 540.712 175.389 541.223 175.389C541.897 175.389 542.505 175.562 543.047 175.906C543.592 176.247 544.024 176.753 544.342 177.423C544.664 178.09 544.825 178.908 544.825 179.878C544.825 180.836 544.668 181.651 544.354 182.321C544.039 182.991 543.611 183.503 543.07 183.855C542.528 184.207 541.914 184.384 541.229 184.384C540.729 184.384 540.314 184.3 539.984 184.134C539.655 183.967 539.39 183.766 539.189 183.531C538.992 183.293 538.839 183.067 538.729 182.855H538.609V184.23H536.587ZM538.604 179.866C538.604 180.431 538.683 180.925 538.842 181.349C539.005 181.774 539.238 182.105 539.541 182.344C539.848 182.579 540.219 182.696 540.655 182.696C541.109 182.696 541.49 182.575 541.797 182.332C542.104 182.086 542.335 181.751 542.49 181.327C542.649 180.899 542.729 180.412 542.729 179.866C542.729 179.325 542.651 178.844 542.496 178.423C542.34 178.003 542.109 177.673 541.803 177.435C541.496 177.196 541.113 177.077 540.655 177.077C540.215 177.077 539.842 177.192 539.535 177.423C539.229 177.654 538.996 177.978 538.837 178.395C538.681 178.812 538.604 179.302 538.604 179.866Z" fill="#3C4858"/>
<path d="M549.085 184.406C548.532 184.406 548.034 184.308 547.591 184.111C547.151 183.91 546.803 183.615 546.545 183.224C546.292 182.834 546.165 182.353 546.165 181.781C546.165 181.289 546.256 180.882 546.437 180.56C546.619 180.238 546.867 179.98 547.182 179.787C547.496 179.594 547.85 179.448 548.244 179.349C548.642 179.247 549.053 179.173 549.477 179.128C549.989 179.075 550.403 179.027 550.722 178.986C551.04 178.94 551.271 178.872 551.415 178.781C551.562 178.687 551.636 178.541 551.636 178.344V178.31C551.636 177.882 551.509 177.55 551.256 177.315C551.002 177.08 550.636 176.963 550.159 176.963C549.655 176.963 549.256 177.073 548.96 177.293C548.669 177.512 548.472 177.772 548.369 178.071L546.449 177.798C546.6 177.268 546.85 176.825 547.199 176.469C547.547 176.109 547.973 175.84 548.477 175.662C548.981 175.48 549.538 175.389 550.148 175.389C550.568 175.389 550.987 175.438 551.403 175.537C551.82 175.635 552.201 175.798 552.545 176.026C552.89 176.249 553.167 176.554 553.375 176.94C553.587 177.327 553.693 177.81 553.693 178.389V184.23H551.716V183.031H551.648C551.523 183.274 551.347 183.501 551.119 183.713C550.896 183.921 550.614 184.09 550.273 184.219C549.936 184.344 549.54 184.406 549.085 184.406ZM549.619 182.895C550.032 182.895 550.39 182.813 550.693 182.651C550.996 182.484 551.229 182.264 551.392 181.991C551.559 181.719 551.642 181.421 551.642 181.099V180.071C551.578 180.124 551.468 180.173 551.312 180.219C551.161 180.264 550.99 180.304 550.801 180.338C550.612 180.372 550.424 180.402 550.239 180.429C550.053 180.455 549.892 180.478 549.756 180.497C549.449 180.539 549.174 180.607 548.932 180.702C548.689 180.796 548.498 180.929 548.358 181.099C548.218 181.266 548.148 181.482 548.148 181.747C548.148 182.126 548.286 182.412 548.562 182.605C548.839 182.798 549.191 182.895 549.619 182.895Z" fill="#3C4858"/>
<path d="M562.659 177.81L560.784 178.014C560.731 177.825 560.638 177.647 560.506 177.48C560.377 177.313 560.203 177.179 559.983 177.077C559.763 176.974 559.494 176.923 559.176 176.923C558.748 176.923 558.388 177.016 558.097 177.202C557.809 177.387 557.667 177.628 557.67 177.923C557.667 178.177 557.759 178.384 557.949 178.543C558.142 178.702 558.46 178.832 558.903 178.935L560.392 179.253C561.218 179.431 561.831 179.713 562.233 180.099C562.638 180.486 562.843 180.991 562.847 181.616C562.843 182.166 562.682 182.651 562.364 183.071C562.049 183.488 561.612 183.813 561.051 184.048C560.49 184.283 559.847 184.401 559.119 184.401C558.051 184.401 557.191 184.177 556.54 183.73C555.888 183.279 555.5 182.652 555.375 181.849L557.381 181.656C557.472 182.05 557.665 182.348 557.96 182.548C558.256 182.749 558.64 182.849 559.114 182.849C559.602 182.849 559.994 182.749 560.29 182.548C560.589 182.348 560.739 182.099 560.739 181.804C560.739 181.554 560.642 181.348 560.449 181.185C560.259 181.022 559.964 180.897 559.562 180.81L558.074 180.497C557.237 180.323 556.617 180.029 556.216 179.616C555.814 179.2 555.615 178.673 555.619 178.037C555.615 177.499 555.761 177.033 556.057 176.639C556.356 176.241 556.771 175.935 557.301 175.719C557.835 175.499 558.451 175.389 559.148 175.389C560.17 175.389 560.975 175.607 561.562 176.043C562.153 176.478 562.519 177.067 562.659 177.81Z" fill="#3C4858"/>
<path d="M566.418 181.491L566.412 179.009H566.741L569.878 175.503H572.281L568.423 179.798H567.997L566.418 181.491ZM564.543 184.23V172.594H566.599V184.23H564.543ZM570.02 184.23L567.179 180.259L568.565 178.81L572.48 184.23H570.02Z" fill="#3C4858"/>
<path d="M577.156 184.401C576.281 184.401 575.526 184.219 574.889 183.855C574.257 183.488 573.77 182.969 573.429 182.298C573.088 181.624 572.918 180.83 572.918 179.918C572.918 179.02 573.088 178.232 573.429 177.554C573.774 176.872 574.255 176.342 574.872 175.963C575.49 175.58 576.215 175.389 577.048 175.389C577.586 175.389 578.094 175.476 578.571 175.651C579.052 175.821 579.476 176.086 579.844 176.446C580.215 176.806 580.507 177.264 580.719 177.821C580.931 178.374 581.037 179.033 581.037 179.798V180.429H573.883V179.043H579.065C579.062 178.649 578.976 178.298 578.81 177.991C578.643 177.681 578.41 177.437 578.111 177.259C577.815 177.08 577.471 176.991 577.077 176.991C576.656 176.991 576.287 177.094 575.969 177.298C575.651 177.499 575.402 177.764 575.224 178.094C575.05 178.42 574.961 178.777 574.957 179.168V180.378C574.957 180.885 575.05 181.321 575.236 181.685C575.421 182.045 575.681 182.321 576.014 182.514C576.348 182.704 576.738 182.798 577.185 182.798C577.484 182.798 577.755 182.757 577.997 182.673C578.24 182.586 578.45 182.459 578.628 182.293C578.806 182.126 578.94 181.92 579.031 181.673L580.952 181.889C580.83 182.397 580.599 182.84 580.258 183.219C579.921 183.594 579.49 183.885 578.963 184.094C578.437 184.298 577.834 184.401 577.156 184.401Z" fill="#3C4858"/>
<path d="M587.135 175.503V177.094H582.118V175.503H587.135ZM583.356 173.412H585.413V181.605C585.413 181.882 585.455 182.094 585.538 182.241C585.625 182.385 585.739 182.484 585.879 182.537C586.019 182.59 586.175 182.616 586.345 182.616C586.474 182.616 586.591 182.607 586.697 182.588C586.807 182.569 586.891 182.552 586.947 182.537L587.294 184.145C587.184 184.183 587.027 184.224 586.822 184.27C586.622 184.315 586.375 184.342 586.084 184.349C585.569 184.365 585.105 184.287 584.692 184.116C584.279 183.942 583.951 183.673 583.709 183.31C583.47 182.946 583.353 182.491 583.356 181.946V173.412Z" fill="#3C4858"/>
</g>
<g filter="url(#filter6_d_1_870)">
<rect x="478.706" y="278.5" width="107.251" height="56" rx="4" fill="white"/>
<path d="M499.706 301.5C499.706 298.065 503.024 295.5 506.706 295.5C510.387 295.5 513.706 298.065 513.706 301.5V306.039C513.706 306.681 513.896 307.308 514.252 307.842L516.451 311.141C516.617 311.39 516.706 311.683 516.706 311.982C516.706 312.821 516.026 313.5 515.188 313.5H498.224C497.385 313.5 496.706 312.821 496.706 311.982C496.706 311.683 496.795 311.39 496.961 311.141L499.16 307.842C499.516 307.308 499.706 306.681 499.706 306.039V301.5Z" fill="#FFC82C"/>
<path d="M506.706 317C505.121 317 503.781 315.946 503.351 314.5H510.061C509.631 315.946 508.292 317 506.706 317Z" fill="#FFC82C"/>
<path d="M535.45 303.872C535.397 303.376 535.174 302.99 534.78 302.713C534.39 302.437 533.882 302.298 533.257 302.298C532.818 302.298 532.441 302.365 532.126 302.497C531.812 302.63 531.571 302.81 531.405 303.037C531.238 303.264 531.153 303.524 531.149 303.815C531.149 304.058 531.204 304.268 531.314 304.446C531.428 304.624 531.581 304.776 531.774 304.901C531.967 305.022 532.181 305.124 532.416 305.207C532.651 305.291 532.888 305.361 533.126 305.418L534.217 305.69C534.657 305.793 535.079 305.931 535.484 306.105C535.893 306.279 536.259 306.499 536.581 306.764C536.907 307.029 537.164 307.349 537.354 307.724C537.543 308.099 537.638 308.539 537.638 309.043C537.638 309.724 537.464 310.325 537.115 310.844C536.767 311.359 536.263 311.762 535.604 312.054C534.948 312.342 534.155 312.486 533.223 312.486C532.318 312.486 531.532 312.346 530.865 312.065C530.202 311.785 529.683 311.376 529.308 310.838C528.937 310.3 528.736 309.645 528.706 308.872H530.78C530.81 309.277 530.935 309.615 531.155 309.883C531.374 310.152 531.66 310.353 532.013 310.486C532.369 310.618 532.767 310.685 533.206 310.685C533.664 310.685 534.066 310.616 534.41 310.48C534.759 310.34 535.032 310.147 535.229 309.901C535.426 309.651 535.526 309.359 535.53 309.026C535.526 308.722 535.437 308.472 535.263 308.276C535.089 308.075 534.844 307.908 534.53 307.776C534.219 307.639 533.856 307.518 533.439 307.412L532.115 307.071C531.157 306.825 530.399 306.452 529.842 305.952C529.289 305.448 529.013 304.779 529.013 303.946C529.013 303.26 529.198 302.66 529.57 302.145C529.945 301.63 530.454 301.23 531.098 300.946C531.742 300.658 532.471 300.514 533.285 300.514C534.111 300.514 534.835 300.658 535.456 300.946C536.081 301.23 536.571 301.626 536.928 302.133C537.284 302.637 537.467 303.217 537.479 303.872H535.45Z" fill="#3C4858"/>
<path d="M541.483 300.673V312.31H539.426V300.673H541.483Z" fill="#3C4858"/>
<path d="M546.109 312.486C545.556 312.486 545.058 312.387 544.615 312.19C544.176 311.99 543.827 311.694 543.57 311.304C543.316 310.914 543.189 310.433 543.189 309.861C543.189 309.368 543.28 308.961 543.462 308.639C543.643 308.317 543.892 308.06 544.206 307.866C544.52 307.673 544.874 307.527 545.268 307.429C545.666 307.327 546.077 307.253 546.501 307.207C547.013 307.154 547.428 307.107 547.746 307.065C548.064 307.02 548.295 306.952 548.439 306.861C548.587 306.766 548.66 306.62 548.66 306.423V306.389C548.66 305.961 548.534 305.63 548.28 305.395C548.026 305.16 547.66 305.043 547.183 305.043C546.679 305.043 546.28 305.152 545.984 305.372C545.693 305.592 545.496 305.851 545.393 306.151L543.473 305.878C543.624 305.347 543.874 304.904 544.223 304.548C544.571 304.188 544.998 303.919 545.501 303.741C546.005 303.56 546.562 303.469 547.172 303.469C547.592 303.469 548.011 303.518 548.428 303.616C548.844 303.715 549.225 303.878 549.57 304.105C549.914 304.329 550.191 304.633 550.399 305.02C550.611 305.406 550.717 305.889 550.717 306.469V312.31H548.74V311.111H548.672C548.547 311.353 548.371 311.58 548.143 311.793C547.92 312.001 547.638 312.169 547.297 312.298C546.96 312.423 546.564 312.486 546.109 312.486ZM546.643 310.974C547.056 310.974 547.414 310.893 547.717 310.73C548.02 310.563 548.253 310.344 548.416 310.071C548.583 309.798 548.666 309.501 548.666 309.179V308.151C548.602 308.204 548.492 308.253 548.337 308.298C548.185 308.344 548.015 308.383 547.825 308.418C547.636 308.452 547.448 308.482 547.263 308.508C547.077 308.535 546.916 308.558 546.78 308.577C546.473 308.618 546.198 308.687 545.956 308.781C545.714 308.876 545.522 309.008 545.382 309.179C545.242 309.346 545.172 309.562 545.172 309.827C545.172 310.205 545.31 310.491 545.587 310.685C545.863 310.878 546.215 310.974 546.643 310.974Z" fill="#3C4858"/>
<path d="M556.592 312.48C555.721 312.48 554.973 312.289 554.348 311.906C553.727 311.524 553.248 310.995 552.91 310.321C552.577 309.643 552.41 308.863 552.41 307.98C552.41 307.094 552.581 306.312 552.922 305.633C553.263 304.952 553.744 304.421 554.365 304.043C554.99 303.66 555.729 303.469 556.581 303.469C557.289 303.469 557.916 303.599 558.462 303.861C559.011 304.118 559.448 304.484 559.774 304.957C560.1 305.427 560.285 305.976 560.331 306.605H558.365C558.285 306.185 558.096 305.834 557.797 305.554C557.501 305.27 557.106 305.128 556.609 305.128C556.189 305.128 555.82 305.241 555.501 305.469C555.183 305.692 554.935 306.014 554.757 306.435C554.583 306.855 554.496 307.359 554.496 307.946C554.496 308.541 554.583 309.052 554.757 309.48C554.931 309.904 555.176 310.232 555.49 310.463C555.808 310.69 556.181 310.804 556.609 310.804C556.912 310.804 557.183 310.747 557.422 310.633C557.664 310.516 557.867 310.347 558.03 310.128C558.193 309.908 558.304 309.641 558.365 309.327H560.331C560.282 309.944 560.1 310.491 559.785 310.969C559.471 311.442 559.043 311.813 558.501 312.082C557.96 312.347 557.323 312.48 556.592 312.48Z" fill="#3C4858"/>
<path d="M563.895 309.571L563.889 307.088H564.219L567.355 303.582H569.758L565.901 307.878H565.474L563.895 309.571ZM562.02 312.31V300.673H564.077V312.31H562.02ZM567.497 312.31L564.656 308.338L566.043 306.889L569.957 312.31H567.497Z" fill="#3C4858"/>
</g>
<defs>
<filter id="filter0_d_1_870" x="67" y="51" width="185" height="193" filterUnits="userSpaceOnUse" color-interpolation-filters="sRGB">
<feFlood flood-opacity="0" result="BackgroundImageFix"/>
<feColorMatrix in="SourceAlpha" type="matrix" values="0 0 0 0 0 0 0 0 0 0 0 0 0 0 0 0 0 0 127 0" result="hardAlpha"/>
<feOffset/>
<feGaussianBlur stdDeviation="10"/>
<feColorMatrix type="matrix" values="0 0 0 0 0 0 0 0 0 0 0 0 0 0 0 0 0 0 0.15 0"/>
<feBlend mode="normal" in2="BackgroundImageFix" result="effect1_dropShadow_1_870"/>
<feBlend mode="normal" in="SourceGraphic" in2="effect1_dropShadow_1_870" result="shape"/>
</filter>
<filter id="filter1_d_1_870" x="39" y="327" width="240" height="240" filterUnits="userSpaceOnUse" color-interpolation-filters="sRGB">
<feFlood flood-opacity="0" result="BackgroundImageFix"/>
<feColorMatrix in="SourceAlpha" type="matrix" values="0 0 0 0 0 0 0 0 0 0 0 0 0 0 0 0 0 0 127 0" result="hardAlpha"/>
<feOffset/>
<feGaussianBlur stdDeviation="10"/>
<feColorMatrix type="matrix" values="0 0 0 0 0 0 0 0 0 0 0 0 0 0 0 0 0 0 0.15 0"/>
<feBlend mode="normal" in2="BackgroundImageFix" result="effect1_dropShadow_1_870"/>
<feBlend mode="normal" in="SourceGraphic" in2="effect1_dropShadow_1_870" result="shape"/>
</filter>
<filter id="filter2_d_1_870" x="386.706" y="194.5" width="176.685" height="96" filterUnits="userSpaceOnUse" color-interpolation-filters="sRGB">
<feFlood flood-opacity="0" result="BackgroundImageFix"/>
<feColorMatrix in="SourceAlpha" type="matrix" values="0 0 0 0 0 0 0 0 0 0 0 0 0 0 0 0 0 0 127 0" result="hardAlpha"/>
<feOffset/>
<feGaussianBlur stdDeviation="10"/>
<feColorMatrix type="matrix" values="0 0 0 0 0 0 0 0 0 0 0 0 0 0 0 0 0 0 0.15 0"/>
<feBlend mode="normal" in2="BackgroundImageFix" result="effect1_dropShadow_1_870"/>
<feBlend mode="normal" in="SourceGraphic" in2="effect1_dropShadow_1_870" result="shape"/>
</filter>
<filter id="filter3_d_1_870" x="386.706" y="322.5" width="178.527" height="96" filterUnits="userSpaceOnUse" color-interpolation-filters="sRGB">
<feFlood flood-opacity="0" result="BackgroundImageFix"/>
<feColorMatrix in="SourceAlpha" type="matrix" values="0 0 0 0 0 0 0 0 0 0 0 0 0 0 0 0 0 0 127 0" result="hardAlpha"/>
<feOffset/>
<feGaussianBlur stdDeviation="10"/>
<feColorMatrix type="matrix" values="0 0 0 0 0 0 0 0 0 0 0 0 0 0 0 0 0 0 0.15 0"/>
<feBlend mode="normal" in2="BackgroundImageFix" result="effect1_dropShadow_1_870"/>
<feBlend mode="normal" in="SourceGraphic" in2="effect1_dropShadow_1_870" result="shape"/>
</filter>
<filter id="filter4_d_1_870" x="386.706" y="66.5" width="172.254" height="96" filterUnits="userSpaceOnUse" color-interpolation-filters="sRGB">
<feFlood flood-opacity="0" result="BackgroundImageFix"/>
<feColorMatrix in="SourceAlpha" type="matrix" values="0 0 0 0 0 0 0 0 0 0 0 0 0 0 0 0 0 0 127 0" result="hardAlpha"/>
<feOffset/>
<feGaussianBlur stdDeviation="10"/>
<feColorMatrix type="matrix" values="0 0 0 0 0 0 0 0 0 0 0 0 0 0 0 0 0 0 0.15 0"/>
<feBlend mode="normal" in2="BackgroundImageFix" result="effect1_dropShadow_1_870"/>
<feBlend mode="normal" in="SourceGraphic" in2="effect1_dropShadow_1_870" result="shape"/>
</filter>
<filter id="filter5_d_1_870" x="410.706" y="130.5" width="212.588" height="96" filterUnits="userSpaceOnUse" color-interpolation-filters="sRGB">
<feFlood flood-opacity="0" result="BackgroundImageFix"/>
<feColorMatrix in="SourceAlpha" type="matrix" values="0 0 0 0 0 0 0 0 0 0 0 0 0 0 0 0 0 0 127 0" result="hardAlpha"/>
<feOffset/>
<feGaussianBlur stdDeviation="10"/>
<feColorMatrix type="matrix" values="0 0 0 0 0 0 0 0 0 0 0 0 0 0 0 0 0 0 0.15 0"/>
<feBlend mode="normal" in2="BackgroundImageFix" result="effect1_dropShadow_1_870"/>
<feBlend mode="normal" in="SourceGraphic" in2="effect1_dropShadow_1_870" result="shape"/>
</filter>
<filter id="filter6_d_1_870" x="458.706" y="258.5" width="147.251" height="96" filterUnits="userSpaceOnUse" color-interpolation-filters="sRGB">
<feFlood flood-opacity="0" result="BackgroundImageFix"/>
<feColorMatrix in="SourceAlpha" type="matrix" values="0 0 0 0 0 0 0 0 0 0 0 0 0 0 0 0 0 0 127 0" result="hardAlpha"/>
<feOffset/>
<feGaussianBlur stdDeviation="10"/>
<feColorMatrix type="matrix" values="0 0 0 0 0 0 0 0 0 0 0 0 0 0 0 0 0 0 0.15 0"/>
<feBlend mode="normal" in2="BackgroundImageFix" result="effect1_dropShadow_1_870"/>
<feBlend mode="normal" in="SourceGraphic" in2="effect1_dropShadow_1_870" result="shape"/>
</filter>
<clipPath id="clip0_1_870">
<rect width="24" height="24" fill="white" transform="translate(422.706 230.5)"/>
</clipPath>
<clipPath id="clip1_1_870">
<rect width="24" height="24" fill="white" transform="translate(422.706 102.5)"/>
</clipPath>
</defs>
</svg>
