<svg xmlns="http://www.w3.org/2000/svg" width="26" height="21" viewBox="0 0 26 21"><path fill="#8492a6" d="m25.8556252 2.57423402c-.9414118.41797155-1.953137.69922326-3.0156434.82813005 1.0820376-.65234798 1.9179807-1.67969825 2.308608-2.90626773-1.0156312.60156567-2.140638 1.03906834-3.3359583 1.27344477-.9570369-1.01953722-2.3203262-1.65626011-3.8320544-1.65626011-2.8984557 0-5.250032 2.35157735-5.250032 5.25003204 0 .4101595.0468752.81250495.1367198 1.19532029-4.36330863-.21875133-8.23051923-2.31251411-10.82037903-5.48831449-.45312777.77734774-.71094134 1.67969725-.71094134 2.64454714 0 1.8203231.92578665 3.4258019 2.33595126 4.36721365-.86328627-.02734317-1.67188521-.2617196-2.37892052-.65625401v.06640741c0 2.54298347 1.80860504 4.66409047 4.21096269 5.14846837-.44140869.1210948-.9023485.1835952-1.38282043.1835952-.33984608 0-.66797308-.0312502-.98828703-.0937506.66797207 2.0820437 2.60548389 3.605491 4.90237291 3.6445532-1.79297894 1.4101646-4.05861777 2.2461077-6.51957078 2.2461077-.4257836 0-.83984913-.0234381-1.25000763-.0703134 2.32032716 1.4882911 5.08206201 2.3554834 8.0469241 2.3554834 9.6563089 0 14.9375912-8.0000488 14.9375912-14.93368515 0-.2304694-.0039061-.45703378-.0156251-.68359717 1.0273502-.73437948 1.9179807-1.66016713 2.62111-2.71486056"/></svg>