<svg width="108" height="21" viewBox="0 0 108 21" fill="none" xmlns="http://www.w3.org/2000/svg">
<path fill-rule="evenodd" clip-rule="evenodd" d="M46.2097 5.49522C47.5932 5.49522 48.9475 5.74482 49.7634 5.97051L49.8332 5.99007L49.8989 5.65651H55.5394V7.51203L54.2909 7.64617L56.0744 13.9281H56.2305L58.2147 5.94713H61.5812L63.4985 13.9281H63.6322L65.3043 7.64617L64.0335 7.51203L64.3234 5.65651H69.0052L69.0049 6.90782C68.9037 7.1084 68.8098 7.31329 68.7234 7.52212L68.2026 7.62381C67.9025 7.6668 67.7673 7.7718 67.678 8.03818L67.6675 8.07092L64.9253 17.3038H61.4028L59.6638 9.81467H59.5301L57.7688 17.3038H53.7558L50.9467 8.04857C50.8613 7.79148 50.7553 7.7397 50.5112 7.67681L50.4786 7.66852L50.2819 7.62623L50.2946 7.67678V9.37167L47.9192 9.21586L47.6971 8.05725C47.6752 7.87902 47.6305 7.79002 47.4755 7.7454L47.4046 7.7249C47.1045 7.6432 46.6079 7.56717 46.0547 7.56717C44.9446 7.56717 44.3229 7.99044 44.3229 8.70336C44.3229 9.48239 45.2112 9.74293 46.3127 9.99622L47.0564 10.1659L47.1593 10.1905C48.8421 10.5965 50.6277 11.2827 50.6277 13.7604C50.6277 16.4785 48.4301 17.5922 45.6105 17.5922C43.6439 17.5922 41.7193 17.0855 41.25 16.8121L41.2149 16.7903V13.56L43.5903 13.7382L43.8126 15.008L43.8196 15.0623C43.8442 15.225 43.8982 15.3019 44.0789 15.342L44.131 15.3587L44.1903 15.3761L44.2567 15.394L44.333 15.4129C44.6533 15.4887 45.1511 15.5649 45.7884 15.5649C46.9646 15.5649 47.6305 15.2309 47.6305 14.4065C47.6305 13.53 46.7714 13.2571 45.666 13.0574L45.1605 12.9661L44.9451 12.9251C43.2137 12.587 41.3041 11.9751 41.3041 9.39409C41.3041 6.63163 43.6569 5.49522 46.2097 5.49522ZM25.7368 5.49522C29.0591 5.49522 30.4124 6.39083 30.4391 9.43481L30.4396 9.52771L30.4396 14.9737L30.4404 15.0335L30.4423 15.0866L30.4459 15.1354C30.463 15.3024 30.5238 15.3453 30.7332 15.378L30.7928 15.3867L31.691 15.5377V13.56L34.0535 13.7382L34.2746 15.008C34.2961 15.2084 34.3408 15.2977 34.5394 15.342L34.5912 15.3587L34.6502 15.3761L34.7162 15.394L34.7921 15.4129C35.1106 15.4887 35.6058 15.5649 36.2396 15.5649C37.4093 15.5649 38.0717 15.2309 38.0717 14.4065C38.0717 13.5592 37.2732 13.2759 36.227 13.0776L35.6082 12.9648L35.3942 12.9238L35.239 12.8925L35.0878 12.8606C33.4568 12.506 31.7797 11.8194 31.7797 9.39409C31.7797 6.63163 34.1197 5.49522 36.6586 5.49522C38.3441 5.49522 39.9885 5.86999 40.6552 6.11613L40.7212 6.14133V9.37167L38.3587 9.21586L38.1379 8.05725C38.1161 7.87902 38.0717 7.79002 37.9175 7.7454C37.6304 7.6564 37.1005 7.56717 36.5044 7.56717C35.4004 7.56717 34.782 7.99044 34.782 8.70336C34.782 9.49582 35.6963 9.75159 36.8179 10.0092L37.3431 10.1292C39.0873 10.5301 41.0525 11.154 41.0525 13.7604C41.0525 16.4782 38.8669 17.5922 36.0627 17.5922C34.2765 17.5922 32.5291 17.1702 31.8835 16.8885L31.8526 16.8748V17.3248H27.79L27.569 16.1218L27.4588 16.0996C26.62 16.9239 25.516 17.5922 23.7496 17.5922C20.9682 17.5922 20.5262 15.6765 20.5262 14.2951C20.5262 12.0896 21.8681 11.0632 24.5727 10.8699L27.1939 10.6863L27.1938 9.41805L27.1927 9.29183L27.191 9.20848L27.1866 9.08665L27.1822 9.00763C27.1313 8.2134 26.8755 7.70102 25.7146 7.70102L25.5793 7.70198L25.4922 7.70386C24.592 7.72941 24.1177 7.94687 24.1033 9.13709L24.1029 9.19367L20.9897 8.92598C20.9897 5.94878 23.6516 5.50394 25.6757 5.49535L25.7368 5.49522ZM105.732 0.495117L105.733 14.9309L105.735 14.9825C105.746 15.1763 105.796 15.223 106.021 15.2584L107.127 15.4216V17.166H103.074L102.856 15.9295L102.703 15.9074C101.788 16.8127 100.72 17.4309 99.1297 17.4309C96.5583 17.4309 94.9022 15.7749 94.9022 11.5575C94.9022 7.1193 97.1031 5.44117 99.5219 5.44117C100.756 5.44117 101.72 5.86201 102.535 6.45718L102.594 6.50104V3.14479C102.594 2.9356 102.516 2.78587 102.341 2.71437L102.311 2.70318L101.113 2.28365L101.352 0.495117H105.732ZM93.057 5.33392C93.5554 5.33392 94.5356 5.41794 94.9648 5.52506L95.0072 5.53622V9.62719L92.3173 9.53728L92.0931 8.34595C92.0483 8.14365 91.981 8.09869 91.8017 8.09869C91.2532 8.09869 90.6054 8.53674 90.2507 8.83189L90.1878 8.88542L90.1879 14.8808C90.1898 15.1961 90.2205 15.2656 90.516 15.2894L92.7656 15.4714V17.2696H85.4355V15.4489L86.4443 15.3141C86.748 15.2706 86.7997 15.206 86.8028 14.8963L86.8029 8.27852C86.8029 8.0425 86.7416 7.88841 86.5411 7.81624L86.5115 7.80648L85.3134 7.38342L85.3037 7.36121L85.5476 5.5587H89.4929L89.7619 7.35693H89.8963C90.6361 6.21056 91.6224 5.33392 93.057 5.33392ZM15.5641 1.14029C19.6843 1.14029 20.931 3.32371 20.931 5.88556C20.931 9.7231 18.6397 11.2899 14.9418 11.3209L14.8293 11.3214H13.2036L13.2039 14.9491L13.2052 15.0055L13.208 15.0574C13.2222 15.2438 13.2796 15.2888 13.5011 15.3231L13.5602 15.3315L16.7445 15.5097V17.2696H8.01509L8.01506 17.2645L8.00536 17.2696H0.258552V15.5174L2.15632 15.3618C2.4449 15.3412 2.50245 15.2626 2.50884 14.9818L2.50949 14.9185V7.25857C2.50949 6.94085 2.27129 6.99327 0.612195 7.55703L0 5.73805L3.79186 3.55969H5.84215L5.84222 14.9509L5.84297 15.0109L5.84487 15.0646C5.8562 15.2845 5.91177 15.3392 6.16539 15.3596L6.19554 15.3618L8.00536 15.5174L8.01506 15.5222L8.01509 15.5097L9.418 15.3537C9.70874 15.3123 9.76717 15.2513 9.77367 14.9716L9.77433 14.9082V3.52414C9.77433 3.20123 9.73244 3.10687 9.44827 3.08089L9.418 3.07844L8.01509 2.92263V1.14029H15.5641ZM27.1315 12.4187L25.6305 12.5291C24.3286 12.6173 23.8651 12.9484 23.8651 13.8317C23.8651 14.7152 24.3948 15.0462 25.1232 15.0462C25.8509 15.0462 26.5787 14.6516 27.0848 14.2856L27.1315 14.2514V12.4187ZM100.486 8.0044C98.887 8.0044 98.25 9.5057 98.2365 11.4536L98.2363 11.5173C98.2363 13.674 98.8478 14.8746 100.224 14.8746C100.945 14.8746 101.728 14.455 102.313 13.9622L102.364 13.9185V8.67141C101.818 8.29343 101.119 8.0044 100.486 8.0044ZM14.4601 3.58657H13.1576V8.90769L14.305 8.90759L14.3919 8.90676L14.5199 8.90387L14.6029 8.90082L14.7249 8.89451C16.0397 8.81386 17.3292 8.31363 17.3292 6.08148C17.3292 3.96165 16.0267 3.58657 14.4601 3.58657Z" fill="#051627"/>
<path fill-rule="evenodd" clip-rule="evenodd" d="M68.0396 11.1396C68.0396 16.1283 72.0724 20.172 77.0472 20.172C82.022 20.172 86.0549 16.1283 86.0549 11.1396C86.0549 6.15113 82.022 2.10718 77.0472 2.10718C72.0724 2.10718 68.0396 6.15113 68.0396 11.1396Z" fill="white"/>
<path fill-rule="evenodd" clip-rule="evenodd" d="M77.0482 4.04248C80.9569 4.04248 84.1256 7.21991 84.1256 11.1394C84.1256 15.059 80.9569 18.2363 77.0482 18.2363C73.1394 18.2363 69.9707 15.059 69.9707 11.1394C69.9707 7.21991 73.1394 4.04248 77.0482 4.04248Z" fill="#1A8CFF"/>
<path opacity="0.5" d="M67.7188 11.1402C67.7188 16.307 71.8956 20.4952 77.0481 20.4952C82.2006 20.4952 86.3775 16.307 86.3775 11.1402C86.3775 5.97354 82.2006 1.78516 77.0481 1.78516C71.8956 1.78516 67.7188 5.97354 67.7188 11.1402ZM68.0405 11.1402C68.0405 6.15224 72.0728 2.10774 77.0481 2.10774C82.0235 2.10774 86.0558 6.15224 86.0558 11.1402C86.0558 16.1282 82.0235 20.1726 77.0481 20.1726C72.0727 20.1726 68.0405 16.1282 68.0405 11.1402Z" fill="black"/>
<path fill-rule="evenodd" clip-rule="evenodd" d="M86.0422 10.6555C86.0506 10.8157 86.0549 10.9771 86.0549 11.1394C86.0549 16.1279 82.022 20.1718 77.0472 20.1718C72.0724 20.1718 68.0396 16.1279 68.0396 11.1394C68.0396 10.9771 68.0438 10.8157 68.0523 10.6555C68.303 15.419 72.2343 19.2041 77.0472 19.2041C81.823 19.2041 85.7308 15.4771 86.0357 10.7655L86.0422 10.6555ZM77.0472 3.07471C81.4002 3.07471 84.9289 6.61317 84.9289 10.9781C84.9289 13.4183 83.826 15.6003 82.0928 17.0501C83.541 15.6957 84.4464 13.7655 84.4464 11.6233C84.4464 7.52559 81.1337 4.20376 77.0472 4.20376C72.9608 4.20376 69.6481 7.52559 69.6481 11.6233C69.6481 13.7655 70.5535 15.6957 72.0015 17.0501C70.2684 15.6003 69.1655 13.4183 69.1655 10.9781C69.1655 6.61317 72.6943 3.07471 77.0472 3.07471Z" fill="black" fill-opacity="0.0524476"/>
<path opacity="0.256138" d="M77.0482 4.04248C80.9574 4.04248 84.1256 7.22042 84.1256 11.1394C84.1256 15.0585 80.9575 18.2363 77.0482 18.2363C73.1779 18.2363 70.0341 15.1217 69.9717 11.2567L69.9707 11.1394C69.9707 7.22042 73.1389 4.04248 77.0482 4.04248ZM77.0482 4.36507C73.3171 4.36507 70.2924 7.39807 70.2924 11.1394C70.2924 14.8809 73.3171 17.9137 77.0482 17.9137C80.7792 17.9137 83.8039 14.8809 83.8039 11.1394C83.8039 7.39807 80.7792 4.36507 77.0482 4.36507Z" fill="black"/>
<path d="M77.0834 5.49487C73.9383 5.49487 71.4177 8.02238 71.4177 11.1761C71.4177 14.2697 73.95 16.7854 77.0834 16.7854C80.1568 16.7854 82.6773 14.258 82.6773 11.1761C82.6773 8.03415 80.1684 5.49487 77.0834 5.49487ZM77.0831 5.81746C79.9791 5.81746 82.3556 8.20054 82.3556 11.1759C82.3556 14.0799 79.9791 16.4628 77.0831 16.4628C74.116 16.4628 71.7394 14.0799 71.7394 11.1759C71.7394 8.20054 74.116 5.81746 77.0831 5.81746Z" fill="black" fill-opacity="0.25"/>
<path fill-rule="evenodd" clip-rule="evenodd" d="M77.0832 5.81738C79.9791 5.81738 82.3557 8.20047 82.3557 11.1758C82.3557 14.0798 79.9791 16.4628 77.0832 16.4628C74.1161 16.4628 71.7395 14.0798 71.7395 11.1758C71.7395 8.20047 74.1161 5.81738 77.0832 5.81738Z" fill="#F7F7F7"/>
<path fill-rule="evenodd" clip-rule="evenodd" d="M79.4603 11.1408C79.4603 12.477 78.3801 13.5602 77.0475 13.5602C75.715 13.5602 74.6348 12.477 74.6348 11.1408C74.6348 9.80465 75.715 8.72144 77.0475 8.72144C78.3801 8.72144 79.4603 9.80465 79.4603 11.1408Z" fill="black" fill-opacity="0.05"/>
<path d="M77.0475 8.39771C75.5373 8.39771 74.313 9.62535 74.313 11.1397C74.313 12.654 75.5373 13.8817 77.0475 13.8817C78.5577 13.8817 79.7819 12.654 79.7819 11.1397C79.7819 9.62535 78.5577 8.39771 77.0475 8.39771ZM77.0475 8.72029C78.38 8.72029 79.4602 9.80351 79.4602 11.1397C79.4602 12.4759 78.38 13.5591 77.0475 13.5591C75.7149 13.5591 74.6347 12.4759 74.6347 11.1397C74.6347 9.80351 75.7149 8.72029 77.0475 8.72029Z" fill="white"/>
<path d="M77.0475 8.72144C78.3801 8.72144 79.4603 9.80465 79.4603 11.1408C79.4603 12.477 78.3801 13.5602 77.0475 13.5602C75.715 13.5602 74.6348 12.477 74.6348 11.1408C74.6348 9.80465 75.715 8.72144 77.0475 8.72144ZM77.0475 9.04402C75.8927 9.04402 74.9565 9.98281 74.9565 11.1408C74.9565 12.2989 75.8927 13.2377 77.0475 13.2377C78.2024 13.2377 79.1386 12.2989 79.1386 11.1408C79.1386 9.98281 78.2024 9.04402 77.0475 9.04402Z" fill="black" fill-opacity="0.15"/>
<path d="M77.9448 6.94751H76.1507C75.753 6.94751 75.4392 7.29664 75.4392 7.71724V9.4579C75.4392 9.61621 75.4962 9.76918 75.5994 9.88399L75.8631 10.1774C75.8692 10.1842 75.8692 10.2034 75.8631 10.2103L75.5994 10.5036C75.4962 10.6184 75.4392 10.7714 75.4392 10.9297V14.565C75.4392 14.9856 75.753 15.3348 76.1507 15.3348H77.9448C78.3424 15.3348 78.6562 14.9856 78.6562 14.565V12.8244C78.6562 12.6661 78.5993 12.5131 78.4961 12.3983L78.2324 12.1049C78.2262 12.0981 78.2262 12.0789 78.2324 12.072L78.4961 11.7787C78.5993 11.6638 78.6562 11.5109 78.6562 11.3526V7.71724C78.6562 7.29664 78.3424 6.94751 77.9448 6.94751ZM77.9243 7.27618C78.1509 7.27618 78.3345 7.48487 78.3345 7.74229V11.3511C78.3345 11.4335 78.3057 11.5125 78.2544 11.5708L77.998 11.8621C77.8912 11.9835 77.8912 12.1802 77.998 12.3016L78.2544 12.5929C78.3057 12.6512 78.3345 12.7302 78.3345 12.8126V14.54C78.3345 14.7974 78.1509 15.0061 77.9243 15.0061H76.1711C75.9446 15.0061 75.7609 14.7974 75.7609 14.54V10.9312C75.7609 10.8488 75.7897 10.7697 75.841 10.7115L76.0974 10.4202C76.2042 10.2988 76.2042 10.1021 76.0974 9.9807L75.841 9.68938C75.7897 9.63111 75.7609 9.55207 75.7609 9.46966V7.74229C75.7609 7.48487 75.9446 7.27618 76.1711 7.27618H77.9243Z" fill="white"/>
<path fill-rule="evenodd" clip-rule="evenodd" d="M75.761 9.46719V7.73711C75.761 7.47928 75.9446 7.27026 76.1712 7.27026H77.9244C78.1509 7.27026 78.3346 7.47928 78.3346 7.73711V11.3516C78.3346 11.4341 78.3058 11.5133 78.2545 11.5717L77.9981 11.8634C77.8913 11.985 77.8913 12.182 77.9981 12.3036L78.2545 12.5953C78.3058 12.6537 78.3346 12.7329 78.3346 12.8154V14.5455C78.3346 14.8033 78.1509 15.0124 77.9244 15.0124H76.1712C75.9446 15.0124 75.761 14.8033 75.761 14.5455V10.931C75.761 10.8485 75.7898 10.7693 75.8411 10.711L76.0975 10.4192C76.2043 10.2976 76.2043 10.1006 76.0975 9.97904L75.8411 9.68727C75.7898 9.6289 75.761 9.54974 75.761 9.46719Z" fill="#0A2D4D"/>
<path d="M77.9244 7.27026C78.1509 7.27026 78.3346 7.47928 78.3346 7.73711V11.3516C78.3346 11.4341 78.3058 11.5133 78.2545 11.5717L77.9981 11.8634C77.8913 11.985 77.8913 12.182 77.9981 12.3036L78.2545 12.5953C78.3058 12.6537 78.3346 12.7329 78.3346 12.8154V14.5455C78.3346 14.8033 78.1509 15.0124 77.9244 15.0124H76.1712C75.9446 15.0124 75.761 14.8033 75.761 14.5455V10.931C75.761 10.8485 75.7898 10.7693 75.8411 10.711L76.0975 10.4192C76.2043 10.2976 76.2043 10.1006 76.0975 9.97904L75.8411 9.68727C75.7898 9.6289 75.761 9.54974 75.761 9.46719V7.73711C75.761 7.47928 75.9446 7.27026 76.1712 7.27026H77.9244ZM77.878 7.60162L76.2175 7.59945C76.1525 7.59945 76.0914 7.66062 76.0835 7.74727L76.0827 7.76621V9.48086C76.0827 9.4859 76.0837 9.49031 76.0851 9.49344L76.0874 9.49708L76.356 9.78648C76.566 10.0127 76.5732 10.3673 76.3777 10.6024L76.356 10.6271L76.0874 10.9165C76.0858 10.9182 76.0843 10.9215 76.0834 10.9257L76.0827 10.9327V14.5164C76.0827 14.6065 76.1395 14.6737 76.2037 14.6822L76.2175 14.6832L77.878 14.6853C77.9431 14.6853 78.0042 14.6242 78.0121 14.5375L78.0129 14.5186V12.8039C78.0129 12.7989 78.0119 12.7945 78.0105 12.7913L78.0082 12.7877L77.7396 12.4983C77.5296 12.272 77.5224 11.9175 77.7179 11.6824L77.7396 11.6576L78.0082 11.3683C78.0098 11.3666 78.0113 11.3633 78.0122 11.359L78.0129 11.352V7.76838C78.0129 7.67827 77.9561 7.6111 77.8919 7.60254L77.878 7.60162Z" fill="black" fill-opacity="0.4"/>
</svg>
