<svg width="52" height="52" viewBox="0 0 52 52" fill="none" xmlns="http://www.w3.org/2000/svg">
<circle cx="26" cy="26" r="26" fill="#F0F8FF"/>
<path fill-rule="evenodd" clip-rule="evenodd" d="M26 12.0972C21.3469 12.0972 17.1528 15.3397 17.1528 19.6806V25.4172C17.1528 26.2282 16.9127 27.021 16.4629 27.6957L13.6832 31.8652C13.4732 32.1803 13.3611 32.5505 13.3611 32.9292C13.3611 33.9885 14.2198 34.8472 15.2792 34.8472H21.5764C21.5764 37.2903 23.5569 39.2708 26 39.2708C28.4431 39.2708 30.4236 37.2903 30.4236 34.8472H36.7208C37.7801 34.8472 38.6389 33.9885 38.6389 32.9292C38.6389 32.5505 38.5268 32.1803 38.3167 31.8652L35.5371 27.6957C35.0872 27.021 34.8472 26.2282 34.8472 25.4172V19.6806C34.8472 15.3397 30.653 12.0972 26 12.0972ZM19.0486 19.6806C19.0486 16.6922 22.0599 13.9931 26 13.9931C29.9401 13.9931 32.9514 16.6922 32.9514 19.6806V25.4172C32.9514 26.6025 33.3022 27.7612 33.9596 28.7474L36.7393 32.9168C36.7417 32.9205 36.743 32.9248 36.743 32.9292C36.743 32.934 36.7417 32.9375 36.7417 32.9375C36.7417 32.9375 36.7392 32.9422 36.7365 32.9449C36.7338 32.9476 36.7292 32.95 36.7292 32.95C36.7292 32.95 36.7256 32.9514 36.7208 32.9514H15.2792C15.2743 32.9514 15.2708 32.95 15.2708 32.95C15.2708 32.95 15.2661 32.9476 15.2634 32.9449C15.2607 32.9422 15.2583 32.9375 15.2583 32.9375C15.2583 32.9375 15.2569 32.934 15.2569 32.9292C15.2569 32.9248 15.2582 32.9205 15.2607 32.9168L18.0403 28.7474C18.6978 27.7612 19.0486 26.6025 19.0486 25.4172V19.6806ZM28.5278 34.8472H23.4722C23.4722 36.2433 24.6039 37.375 26 37.375C27.396 37.375 28.5278 36.2433 28.5278 34.8472Z" fill="#45C8F1"/>
</svg>
