<svg width="52" height="52" viewBox="0 0 52 52" fill="none" xmlns="http://www.w3.org/2000/svg">
<circle cx="26" cy="26" r="26" fill="#F0F8FF"/>
<path fill-rule="evenodd" clip-rule="evenodd" d="M22.3677 11.641C23.052 11.246 23.895 11.246 24.5793 11.641L35.0064 17.6603C35.1367 17.7356 35.2576 17.823 35.3678 17.9206C35.6189 17.9758 35.8468 18.1324 35.9854 18.3726C36.1242 18.6129 36.1457 18.8887 36.0678 19.1338C36.0972 19.2777 36.1124 19.4257 36.1124 19.5759V23.7884C36.1124 24.3119 35.688 24.7363 35.1645 24.7363C34.641 24.7363 34.2166 24.3119 34.2166 23.7884V20.4882L24.4214 26.1427V39.0927C24.4214 39.4314 24.2408 39.7443 23.9475 39.9136C23.6542 40.083 23.2929 40.083 22.9996 39.9137L11.9406 33.5297C11.2562 33.1346 10.8346 32.4044 10.8346 31.6141V19.5759C10.8346 19.4257 10.8499 19.2777 10.8792 19.1338C10.8013 18.8887 10.8229 18.6129 10.9616 18.3726C11.1003 18.1324 11.3282 17.9758 11.5793 17.9206C11.6895 17.823 11.8103 17.7356 11.9406 17.6603L22.3677 11.641ZM12.7305 20.4882V31.6141C12.7305 31.727 12.7907 31.8313 12.8885 31.8878L22.5256 37.451V26.1427L12.7305 20.4882ZM23.4735 24.5009L13.6782 18.8463L23.3155 13.2829C23.4133 13.2265 23.5337 13.2265 23.6315 13.2829L33.2688 18.8463L23.4735 24.5009Z" fill="#45C8F1"/>
<path d="M37.8138 32.9514L34.1552 29.5367C33.7725 29.1795 33.7518 28.5797 34.109 28.197C34.4662 27.8143 35.0661 27.7936 35.4488 28.1508L40.8654 33.2063C41.0575 33.3856 41.1666 33.6366 41.1666 33.8993C41.1666 34.1621 41.0575 34.413 40.8654 34.5923L35.4488 39.6478C35.0661 40.0051 34.4662 39.9844 34.109 39.6017C33.7518 39.2189 33.7725 38.6191 34.1552 38.2619L37.8138 34.8472H29.4305C28.9069 34.8472 28.4826 34.4228 28.4826 33.8993C28.4826 33.3758 28.9069 32.9514 29.4305 32.9514H37.8138Z" fill="#45C8F1"/>
</svg>
