<svg width="52" height="52" viewBox="0 0 52 52" fill="none" xmlns="http://www.w3.org/2000/svg">
<circle cx="26" cy="26" r="26" fill="#F0F8FF"/>
<path d="M22.8435 29.3355C22.5283 28.9219 21.9378 28.8393 21.521 29.1519C21.111 29.4594 21.0276 30.0788 21.3367 30.486C21.3674 30.5252 21.3987 30.564 21.4311 30.6018C21.4863 30.6662 21.5638 30.752 21.6638 30.8521C21.8634 31.0516 22.1555 31.3106 22.5414 31.5679C23.317 32.0849 24.4744 32.596 25.9999 32.596C27.5254 32.596 28.6828 32.0849 29.4583 31.5679C29.8442 31.3106 30.1364 31.0516 30.3359 30.8521C30.4359 30.752 30.5135 30.6662 30.5686 30.6018L30.6684 30.479C30.9825 30.0602 30.8976 29.466 30.4788 29.1519C30.062 28.8393 29.4715 28.9219 29.1562 29.3355L29.1546 29.3376C29.1432 29.3518 29.0897 29.4172 28.9954 29.5115C28.8691 29.6378 28.6724 29.8133 28.4067 29.9904C27.8788 30.3424 27.0812 30.7002 25.9999 30.7002C24.9186 30.7002 24.1209 30.3424 23.5931 29.9904C23.3273 29.8133 23.1307 29.6378 23.0044 29.5115C22.9483 29.4554 22.893 29.3976 22.8435 29.3355Z" fill="#45C8F1"/>
<path d="M31.0555 25.6841C31.928 25.6841 32.6354 24.9768 32.6354 24.1042C32.6354 23.2317 31.928 22.5244 31.0555 22.5244C30.183 22.5244 29.4756 23.2317 29.4756 24.1042C29.4756 24.9768 30.183 25.6841 31.0555 25.6841Z" fill="#45C8F1"/>
<path d="M22.2083 24.1042C22.2083 24.9768 21.501 25.6841 20.6284 25.6841C19.7559 25.6841 19.0486 24.9768 19.0486 24.1042C19.0486 23.2317 19.7559 22.5244 20.6284 22.5244C21.501 22.5244 22.2083 23.2317 22.2083 24.1042Z" fill="#45C8F1"/>
<path fill-rule="evenodd" clip-rule="evenodd" d="M25.9999 12.0973C18.3217 12.0973 12.0972 18.3218 12.0972 26.0001C12.0972 33.6784 18.3217 39.9028 25.9999 39.9028C33.6782 39.9028 39.9027 33.6784 39.9027 26.0001C39.9027 18.3218 33.6782 12.0973 25.9999 12.0973ZM25.9999 14.3486C19.565 14.3486 14.3485 19.5651 14.3485 26.0001C14.3485 32.435 19.565 37.6515 25.9999 37.6515C32.4349 37.6515 37.6514 32.435 37.6514 26.0001C37.6514 19.5651 32.4349 14.3486 25.9999 14.3486Z" fill="#45C8F1"/>
</svg>
