<svg width="93" height="21" viewBox="0 0 93 21" fill="none" xmlns="http://www.w3.org/2000/svg">
<g opacity="0.7" clip-path="url(#clip0)">
<path d="M12.0886 0L24.1772 20.91H0L12.0886 0ZM52.1443 11.1084C52.1443 7.74323 49.6612 5.39086 46.1 5.39086C42.5388 5.39086 40.0557 7.74323 40.0557 11.1084C40.0557 14.4083 42.7348 16.826 46.4267 16.826C48.4524 16.826 50.282 16.0746 51.4582 14.7023L49.2365 13.4281C48.5504 14.1142 47.5376 14.539 46.4267 14.539C44.7931 14.539 43.3882 13.6568 42.8982 12.3173L42.8002 12.0886H52.0463C52.1116 11.7619 52.1443 11.4352 52.1443 11.1084ZM42.7675 10.1283L42.8328 9.93225C43.2576 8.52736 44.4991 7.67789 46.0673 7.67789C47.6683 7.67789 48.8771 8.52736 49.3019 9.93225L49.3672 10.1283H42.7675ZM87.3319 11.1084C87.3319 7.74323 84.8489 5.39086 81.2876 5.39086C77.7264 5.39086 75.2433 7.74323 75.2433 11.1084C75.2433 14.4083 77.9224 16.826 81.6143 16.826C83.64 16.826 85.4696 16.0746 86.6458 14.7023L84.4241 13.4281C83.738 14.1142 82.7252 14.539 81.6143 14.539C79.9807 14.539 78.5759 13.6568 78.0858 12.3173L77.9878 12.0886H87.2339C87.2992 11.7619 87.3319 11.4352 87.3319 11.1084ZM77.9551 10.1283L78.0204 9.93225C78.4452 8.52736 79.6867 7.67789 81.2549 7.67789C82.8559 7.67789 84.0647 8.52736 84.4895 9.93225L84.5548 10.1283H77.9551ZM71.6494 9.24614L73.8711 7.97194C72.8256 6.33834 70.9633 5.42353 68.7089 5.42353C65.1477 5.42353 62.6646 7.77591 62.6646 11.1411C62.6646 14.5063 65.1477 16.8587 68.7089 16.8587C70.9633 16.8587 72.8256 15.9439 73.8711 14.3103L71.6494 13.0361C71.0613 14.0162 70.0158 14.5717 68.7089 14.5717C66.6506 14.5717 65.2784 13.1994 65.2784 11.1411C65.2784 9.08278 66.6506 7.71056 68.7089 7.71056C69.9831 7.71056 71.0613 8.26598 71.6494 9.24614ZM92.2327 1.82963H89.6189V16.532H92.2327V1.82963ZM41.9834 1.82963H38.9775L33.2273 11.7619L27.477 1.82963H24.4386L33.2273 16.9894L41.9834 1.82963ZM60.4756 8.42934C60.7697 8.42934 61.0637 8.46202 61.3578 8.52736V5.75025C59.1361 5.81559 57.0451 7.05712 57.0451 8.5927V5.75025H54.4313V16.532H57.0451V11.8599C57.0451 9.83423 58.45 8.42934 60.4756 8.42934Z" fill="black"/>
</g>
<defs>
<clipPath id="clip0">
<rect width="92.4614" height="20.91" fill="white"/>
</clipPath>
</defs>
</svg>
