<svg width="45" height="45" viewBox="0 0 45 45" fill="none" xmlns="http://www.w3.org/2000/svg">
<rect width="45" height="45" rx="22.5" fill="#EBFAFF"/>
<path fill-rule="evenodd" clip-rule="evenodd" d="M19.7803 15.9697C20.0732 16.2626 20.0732 16.7374 19.7803 17.0303L13.8107 23L19.7803 28.9697C20.0732 29.2626 20.0732 29.7374 19.7803 30.0303C19.4874 30.3232 19.0126 30.3232 18.7197 30.0303L12.2197 23.5303C11.9268 23.2374 11.9268 22.7626 12.2197 22.4697L18.7197 15.9697C19.0126 15.6768 19.4874 15.6768 19.7803 15.9697Z" fill="#45C8F1"/>
<path fill-rule="evenodd" clip-rule="evenodd" d="M26.2197 15.9697C25.9268 16.2626 25.9268 16.7374 26.2197 17.0303L32.1893 23L26.2197 28.9697C25.9268 29.2626 25.9268 29.7374 26.2197 30.0303C26.5126 30.3232 26.9874 30.3232 27.2803 30.0303L33.7803 23.5303C34.0732 23.2374 34.0732 22.7626 33.7803 22.4697L27.2803 15.9697C26.9874 15.6768 26.5126 15.6768 26.2197 15.9697Z" fill="#45C8F1"/>
</svg>
