<svg width="112" height="112" viewBox="0 0 112 112" fill="none" xmlns="http://www.w3.org/2000/svg">
<g filter="url(#filter0_d)">
<circle cx="56" cy="56" r="36" fill="#F9FAFC"/>
</g>
<path fill-rule="evenodd" clip-rule="evenodd" d="M56.4173 37.087C45.7414 37.087 37.0868 45.7415 37.0868 56.4174C37.0868 67.0933 45.7414 75.7478 56.4173 75.7478C67.0932 75.7478 75.7477 67.0933 75.7477 56.4174C75.7477 45.7415 67.0932 37.087 56.4173 37.087ZM34.0347 56.4174C34.0347 44.0558 44.0557 34.0348 56.4173 34.0348C68.7789 34.0348 78.7999 44.0558 78.7999 56.4174C78.7999 68.779 68.7789 78.8 56.4173 78.8C44.0557 78.8 34.0347 68.779 34.0347 56.4174Z" fill="#1F2D3D"/>
<rect x="49" y="49" width="5" height="16" fill="#1F2D3D"/>
<rect x="59" y="49" width="5" height="16" fill="#1F2D3D"/>
<defs>
<filter id="filter0_d" x="0" y="0" width="112" height="112" filterUnits="userSpaceOnUse" color-interpolation-filters="sRGB">
<feFlood flood-opacity="0" result="BackgroundImageFix"/>
<feColorMatrix in="SourceAlpha" type="matrix" values="0 0 0 0 0 0 0 0 0 0 0 0 0 0 0 0 0 0 127 0"/>
<feOffset/>
<feGaussianBlur stdDeviation="10"/>
<feColorMatrix type="matrix" values="0 0 0 0 0 0 0 0 0 0 0 0 0 0 0 0 0 0 0.15 0"/>
<feBlend mode="normal" in2="BackgroundImageFix" result="effect1_dropShadow"/>
<feBlend mode="normal" in="SourceGraphic" in2="effect1_dropShadow" result="shape"/>
</filter>
</defs>
</svg>
