<svg width="48" height="48" viewBox="0 0 48 48" fill="none" xmlns="http://www.w3.org/2000/svg">
<circle cx="24" cy="24" r="24" fill="#F9FAFC"/>
<path fill-rule="evenodd" clip-rule="evenodd" d="M22.5594 15.3781L26.7532 11.1843C27.0288 10.9087 27.5 11.1039 27.5 11.4937V19.8812C27.5 20.271 27.0288 20.4662 26.7532 20.1906L22.5594 15.9968C22.3885 15.826 22.3885 15.549 22.5594 15.3781ZM15.6875 14.375C14.9626 14.375 14.375 14.9626 14.375 15.6875C14.375 16.4124 14.9626 17 15.6875 17C16.4124 17 17 16.4124 17 15.6875C17 14.9626 16.4124 14.375 15.6875 14.375ZM11.75 15.6875C11.75 13.5129 13.5129 11.75 15.6875 11.75C17.8621 11.75 19.625 13.5129 19.625 15.6875C19.625 17.4019 18.5293 18.8604 17 19.4009V28.599C18.5293 29.1396 19.625 30.598 19.625 32.3125C19.625 34.487 17.8621 36.25 15.6875 36.25C13.5129 36.25 11.75 34.487 11.75 32.3125C11.75 30.598 12.8457 29.1396 14.375 28.599V19.4009C12.8457 18.8604 11.75 17.4019 11.75 15.6875ZM29.25 14.375H27.5V17H29.25C30.2165 17 31 17.7835 31 18.75V28.599C29.4707 29.1396 28.375 30.598 28.375 32.3125C28.375 34.487 30.138 36.25 32.3125 36.25C34.4871 36.25 36.25 34.487 36.25 32.3125C36.25 30.598 35.1543 29.1396 33.625 28.599V18.75C33.625 16.3338 31.6662 14.375 29.25 14.375ZM14.375 32.3125C14.375 31.5877 14.9626 31 15.6875 31C16.4124 31 17 31.5877 17 32.3125C17 33.0373 16.4124 33.625 15.6875 33.625C14.9626 33.625 14.375 33.0373 14.375 32.3125ZM31 32.3125C31 31.5877 31.5877 31 32.3125 31C33.0374 31 33.625 31.5877 33.625 32.3125C33.625 33.0373 33.0374 33.625 32.3125 33.625C31.5877 33.625 31 33.0373 31 32.3125Z" fill="#45C8F1"/>
</svg>
