<svg width="28" height="28" viewBox="0 0 28 28" fill="none" xmlns="http://www.w3.org/2000/svg">
<path fill-rule="evenodd" clip-rule="evenodd" d="M12.5592 5.37814L16.753 1.18432C17.0286 0.908705 17.4999 1.1039 17.4999 1.49368V9.88124C17.4999 10.271 17.0286 10.4662 16.753 10.1906L12.5592 5.99685C12.3884 5.82599 12.3884 5.54899 12.5592 5.37814ZM5.68738 4.375C4.96251 4.375 4.37488 4.96263 4.37488 5.6875C4.37488 6.41237 4.96251 7 5.68738 7C6.41225 7 6.99988 6.41237 6.99988 5.6875C6.99988 4.96263 6.41225 4.375 5.68738 4.375ZM1.74988 5.6875C1.74988 3.51288 3.51276 1.75 5.68738 1.75C7.862 1.75 9.62488 3.51288 9.62488 5.6875C9.62488 7.40191 8.52919 8.86041 6.99988 9.40095V18.599C8.52919 19.1396 9.62488 20.598 9.62488 22.3125C9.62488 24.487 7.862 26.25 5.68738 26.25C3.51276 26.25 1.74988 24.487 1.74988 22.3125C1.74988 20.598 2.84557 19.1396 4.37488 18.599V9.40095C2.84557 8.86041 1.74988 7.40191 1.74988 5.6875ZM19.2499 4.375H17.4999V7H19.2499C20.2164 7 20.9999 7.78351 20.9999 8.75V18.599C19.4706 19.1396 18.3749 20.598 18.3749 22.3125C18.3749 24.487 20.1378 26.25 22.3124 26.25C24.4869 26.25 26.2499 24.487 26.2499 22.3125C26.2499 20.598 25.1542 19.1396 23.6249 18.599V8.75C23.6249 6.33376 21.6661 4.375 19.2499 4.375ZM4.37488 22.3125C4.37488 21.5877 4.96251 21 5.68738 21C6.41225 21 6.99988 21.5877 6.99988 22.3125C6.99988 23.0373 6.41225 23.625 5.68738 23.625C4.96251 23.625 4.37488 23.0373 4.37488 22.3125ZM20.9999 22.3125C20.9999 21.5877 21.5875 21 22.3124 21C23.0372 21 23.6249 21.5877 23.6249 22.3125C23.6249 23.0373 23.0372 23.625 22.3124 23.625C21.5875 23.625 20.9999 23.0373 20.9999 22.3125Z" fill="#45C8F1"/>
</svg>
