<svg width="222" height="273" viewBox="0 0 222 273" fill="none" xmlns="http://www.w3.org/2000/svg">
<path d="M0 0.575867H222V272.424H0V0.575867Z" fill="white"/>
<path d="M22.1204 169.871H102.584V250.307H22.1204V169.871Z" fill="#00396B"/>
<path d="M22.1204 72.7929H102.584V153.235H22.1204V72.7929Z" fill="#005BA2"/>
<path d="M62.4517 74.7551C41.5042 74.7551 24.2742 91.782 24.2742 112.918C24.2742 133.855 41.3052 151.081 62.4517 151.081C83.3993 151.081 100.622 134.054 100.622 112.918C100.43 91.974 83.3993 74.7551 62.4517 74.7551Z" fill="#ED1C24"/>
<path d="M62.4517 77.3002C42.677 77.3002 26.8188 93.3461 26.8188 112.918C26.8188 132.682 42.876 148.536 62.4517 148.536C82.2193 148.536 98.0775 132.49 98.0775 112.918C98.0775 93.147 82.2193 77.3002 62.4517 77.3002Z" fill="#FFF200"/>
<path d="M78.1108 106.264V108.809H80.0656V117.027H78.1108V119.573H93.969V112.918L87.5077 116.636V108.809H89.2706V106.264H78.1108Z" fill="#005BA2"/>
<path d="M70.2777 115.463H69.6948V110.373H70.0858C72.6305 110.373 72.6305 115.463 70.2777 115.463ZM71.8486 106.264H61.0798V108.61H63.0346V117.027H61.0798V119.374H71.8486C79.6746 119.573 79.8736 106.264 71.8486 106.264Z" fill="#005BA2"/>
<path d="M60.2979 113.892L53.8367 107.636L46.5935 114.873V117.418L48.5482 115.463L53.6376 120.547L51.6829 122.509L52.8557 123.682L63.0345 113.501V111.155L60.2979 113.892Z" fill="#ED1C24"/>
<path d="M53.0548 98.8274C55.2086 98.8274 56.9714 100.591 56.9714 102.738C56.9714 104.892 55.2086 106.655 53.0548 106.655C50.9011 106.655 49.1383 104.892 49.1383 102.738C48.9392 100.591 50.702 98.8274 53.0548 98.8274Z" fill="#ED1C24"/>
<path d="M30.7354 106.264H42.087V108.809H40.1323V116.636L46.5935 112.918V119.573H30.7354V117.027H32.6901V108.809H30.7354V106.264Z" fill="#005BA2"/>
<path d="M196.553 149.908H122.551V75.9281H196.354V149.908H196.553ZM119.224 72.7929V153.235H199.681V72.7929H119.224Z" fill="#ED1C24"/>
<path d="M159.356 104.309H144.671V118.982H159.356V104.309Z" fill="#ED1C24"/>
<path d="M161.51 104.309V118.982H176.387L161.51 104.309Z" fill="#ED1C24"/>
<path d="M159.356 87.2818H144.671V101.956H159.356V87.2818Z" fill="#ED1C24"/>
<path d="M161.51 87.2818V102.155L176.387 87.2818H161.51Z" fill="#ED1C24"/>
<path d="M137.819 127.592H135.082L131.557 132.49V127.592H129.204V138.363H131.557V133.464L135.082 138.363H137.819L133.71 132.881L137.819 127.592Z" fill="#ED1C24"/>
<path d="M151.523 135.818C151.331 136.209 150.741 136.6 149.959 136.6C149.178 136.6 148.588 136.009 148.588 135.035V131.118H146.434V135.618C146.434 137.382 147.415 138.555 149.178 138.555C150.35 138.555 151.132 137.965 151.523 137.574V138.363H153.677V131.31H151.523V135.818Z" fill="#ED1C24"/>
<path d="M170.516 136.009C170.317 136.401 169.727 136.6 168.945 136.6C167.772 136.6 166.99 135.818 166.99 134.637C166.99 133.464 167.772 132.682 168.945 132.682C169.727 132.682 170.125 133.073 170.516 133.272V136.009ZM170.516 131.9C170.125 131.509 169.336 130.919 168.362 130.919C166.4 130.919 165.029 132.49 165.029 134.637C165.029 136.792 166.4 138.363 168.362 138.363C169.535 138.363 170.125 137.773 170.516 137.382V138.164H172.67V131.118H170.516V131.9Z" fill="#ED1C24"/>
<path d="M143.107 136.009C142.908 136.401 142.325 136.6 141.536 136.6C140.364 136.6 139.582 135.818 139.582 134.637C139.582 133.464 140.364 132.682 141.536 132.682C142.325 132.682 142.716 133.073 143.107 133.272V136.009ZM143.107 131.9C142.716 131.509 141.934 130.919 140.954 130.919C138.992 130.919 137.627 132.49 137.627 134.637C137.627 136.792 138.992 138.363 140.954 138.363C142.126 138.363 142.716 137.773 143.107 137.382V138.164H145.261V131.118H143.107V131.9Z" fill="#ED1C24"/>
<path d="M187.938 136.009C187.739 136.4 187.156 136.792 186.367 136.792C185.194 136.792 184.412 136.009 184.412 134.836C184.412 133.663 185.194 132.881 186.367 132.881C187.156 132.881 187.739 133.272 187.938 133.663V136.009ZM187.938 127.592V131.9C187.547 131.509 186.765 130.919 185.585 130.919C183.631 130.919 182.259 132.49 182.259 134.637C182.259 136.792 183.631 138.363 185.585 138.363C186.765 138.363 187.547 137.773 187.938 137.382V138.164H189.893V127.4H187.938V127.592Z" fill="#ED1C24"/>
<path d="M178.342 131.118C177.169 131.118 176.387 131.708 175.996 132.099V131.31H173.843V138.363H176.188V133.663C176.387 133.272 176.97 132.881 177.759 132.881C178.541 132.881 179.124 133.464 179.124 134.445V138.363H181.278V134.054C181.086 132.291 180.105 131.118 178.342 131.118Z" fill="#ED1C24"/>
<path d="M159.157 129.163C159.939 129.163 160.33 129.554 160.33 129.554L160.728 127.99C160.728 127.99 160.138 127.592 158.766 127.592C157.004 127.592 156.03 128.573 156.03 130.528V131.31H155.049V133.073H156.03V138.555H158.176V133.073H160.529V131.31H158.176V130.727C157.984 129.746 158.375 129.163 159.157 129.163Z" fill="#ED1C24"/>
<path d="M161.51 138.363H163.664V127.592H161.51V138.363Z" fill="#ED1C24"/>
<path d="M119.224 169.871H199.681V250.307H119.224V169.871Z" fill="#004550"/>
<path d="M169.535 198.444C165.228 198.444 161.901 201.963 161.901 206.072V209.599C161.901 209.99 162.292 210.381 162.683 210.381C163.074 210.381 163.465 209.99 163.465 209.599V206.072C163.465 202.745 166.209 200.207 169.336 200.207H187.156V214.099C187.156 217.426 184.412 219.971 181.278 219.971H175.407C175.016 219.971 174.625 220.362 174.625 220.753C174.625 221.144 175.016 221.734 175.407 221.734H181.278C185.585 221.734 188.912 218.208 188.912 214.099V198.444H169.535Z" fill="#9CCB3B"/>
<path d="M169.926 212.926H164.446C163.074 212.926 161.901 214.099 161.901 215.471V219.189C161.901 220.554 163.074 221.734 164.446 221.734H169.926C171.298 221.734 172.471 220.554 172.471 219.189V215.471C172.471 213.907 171.298 212.926 169.926 212.926ZM170.708 218.99C170.708 219.381 170.317 219.772 169.926 219.772H164.446C164.055 219.772 163.664 219.381 163.664 218.99V215.272C163.664 214.881 164.055 214.49 164.446 214.49H169.926C170.317 214.49 170.708 214.881 170.708 215.272V218.99ZM160.728 213.708C160.728 214.099 160.33 214.49 159.939 214.49H157.004C156.613 214.49 156.222 214.881 156.222 215.272V220.554C156.222 220.952 155.831 221.343 155.44 221.343C155.049 221.343 154.658 220.952 154.658 220.554V215.272C154.658 213.907 155.831 212.727 157.203 212.727H160.138C160.33 212.926 160.728 213.118 160.728 213.708ZM149.76 212.926H144.479C143.107 212.926 141.934 214.099 141.934 215.471V219.189C141.934 220.554 143.107 221.734 144.479 221.734H149.76C150.151 221.734 150.542 221.343 150.542 220.952C150.542 220.554 150.151 220.163 149.76 220.163H144.479C144.088 220.163 143.69 219.772 143.69 219.381V218.407H149.76C151.132 218.407 152.305 217.227 152.305 215.862C152.305 213.907 151.132 212.926 149.76 212.926ZM149.76 216.253H143.69V215.471C143.69 215.08 144.088 214.689 144.479 214.689H149.76C150.151 214.689 150.542 215.08 150.542 215.471C150.542 215.862 150.151 216.253 149.76 216.253ZM140.364 220.753C140.364 221.144 139.973 221.535 139.582 221.535H130.967C130.576 221.535 130.185 221.343 130.185 220.952C129.993 220.554 130.185 220.163 130.384 219.971L137.236 214.49H130.967C130.576 214.49 130.185 214.099 130.185 213.708C130.185 213.317 130.576 212.926 130.967 212.926H139.582C139.973 212.926 140.364 213.118 140.364 213.509C140.563 213.907 140.364 214.298 140.172 214.49L133.12 219.971H139.582C139.973 219.971 140.364 220.362 140.364 220.753ZM157.985 198.444H152.696C151.331 198.444 150.151 199.617 150.151 200.989V204.707C150.151 206.072 151.331 207.253 152.696 207.253H157.985C158.375 207.253 158.766 206.854 158.766 206.463C158.766 206.072 158.375 205.681 157.985 205.681H152.696C152.305 205.681 151.914 205.29 151.914 204.899V203.925H157.985C159.356 203.925 160.529 202.745 160.529 201.38C160.728 199.617 159.548 198.444 157.985 198.444ZM157.985 201.771H151.914V200.989C151.914 200.598 152.305 200.207 152.696 200.207H157.985C158.375 200.207 158.766 200.598 158.766 200.989C158.965 201.38 158.574 201.771 157.985 201.771ZM148.979 199.226C148.979 199.617 148.588 200.008 148.197 200.008H145.261C144.87 200.008 144.479 200.399 144.479 200.79V206.072C144.479 206.463 144.088 206.854 143.69 206.854C143.299 206.854 142.908 206.463 142.908 206.072V200.79C142.908 199.418 144.088 198.245 145.453 198.245H148.389C148.588 198.444 148.979 198.835 148.979 199.226ZM130.775 210.381C131.166 210.381 131.557 209.99 131.557 209.599V207.253H137.627C138.992 207.253 140.172 206.072 140.172 204.707V200.989C140.172 199.617 138.992 198.444 137.627 198.444H132.339C130.967 198.444 129.794 199.617 129.794 200.989V209.599C129.794 209.99 130.185 210.381 130.775 210.381ZM131.557 200.989C131.557 200.598 131.948 200.207 132.339 200.207H137.627C138.018 200.207 138.409 200.598 138.409 200.989V204.707C138.409 205.098 138.018 205.489 137.627 205.489H131.557V200.989Z" fill="white"/>
<path d="M29.7545 208.227H95.1419V209.599H29.7545V208.227Z" fill="white"/>
<path d="M61.6699 206.271L62.6437 200.79L63.6246 206.271H66.3683L68.913 197.271H66.1693L64.9965 202.944L64.0155 197.271H61.4708L60.4899 202.944L59.3171 197.271H56.5734L59.1252 206.271H61.6699Z" fill="white"/>
<path d="M72.2396 200.399L73.0215 203.136H71.2586L72.2396 200.399ZM70.4768 206.271L70.8677 204.899H73.8033L74.1943 206.271H77.1299L73.8033 197.271H71.0667L67.733 206.271H70.4768Z" fill="white"/>
<path d="M80.4636 199.418H81.8284C82.8093 199.418 83.2002 199.809 83.2002 200.399C83.2002 201.181 82.4184 201.38 82.0274 201.38H80.6555V199.418H80.4636ZM80.4636 203.136H82.0274C83.2002 203.136 83.2002 204.117 83.2002 204.899C83.2002 205.29 83.2002 205.88 83.3993 206.271H86.1359C85.944 205.88 85.944 204.707 85.7449 204.316C85.553 203.136 85.1621 202.354 84.3731 201.963C85.354 201.572 85.7449 200.598 85.7449 199.617C85.7449 197.854 84.3731 197.072 82.8093 197.072H77.5209V206.072H80.2646V203.136H80.4636Z" fill="white"/>
<path d="M90.6424 204.117L94.9499 199.418V197.271H87.3087V199.617H91.2253L87.1168 204.117V206.271H95.1419V204.117H90.6424Z" fill="white"/>
<path d="M33.8701 204.508C33.2802 204.508 32.6902 204.316 32.4983 203.925C32.4983 203.726 32.2992 203.527 32.2992 203.335H29.5626C29.5626 206.271 32.4983 206.662 33.4792 206.662C35.4339 206.662 37.5877 205.88 37.5877 203.527C37.5877 201.963 36.4148 201.181 35.043 200.989C33.6711 200.598 32.4983 200.399 32.4983 199.809C32.4983 199.226 33.0882 199.226 33.4792 199.226C33.6711 199.226 34.062 199.226 34.2611 199.418C34.453 199.617 34.652 199.809 34.652 200.207H37.1967C37.1967 198.053 35.4339 197.271 33.4792 197.271C31.5173 197.271 29.7545 198.245 29.7545 200.207C29.7545 201.963 31.3254 202.354 32.8892 202.745C34.453 203.136 34.8439 203.335 34.8439 203.726C35.043 204.316 34.453 204.508 33.8701 204.508Z" fill="white"/>
<path d="M50.5101 202.745H53.0548V206.271H55.9904V197.271H53.0548V200.399H50.5101V197.271H47.7664V206.271H50.5101V202.745Z" fill="white"/>
<path d="M42.876 206.463C45.6126 206.463 46.9845 204.508 46.9845 202.745H44.2408C44.0489 203.527 43.6579 204.316 42.677 204.316C41.3051 204.316 40.9142 203.136 40.9142 201.771C40.9142 200.598 41.3051 199.226 42.677 199.226C43.8498 199.226 44.0489 200.207 44.0489 200.598H46.9845C46.7855 198.245 45.4207 197.072 42.876 197.072C40.1323 197.072 38.3695 199.027 38.3695 201.771C38.1776 204.508 39.9333 206.463 42.876 206.463Z" fill="white"/>
<path d="M33.8701 213.907C34.8439 213.907 35.6329 214.099 36.2158 214.689C36.8058 215.272 36.9977 215.862 36.9977 216.836C36.9977 218.798 36.0239 219.971 33.8701 219.971H31.9083V222.907H29.5626V213.907H33.8701ZM33.6711 218.016C34.453 218.016 34.8439 217.625 34.8439 216.836C34.8439 216.445 34.652 216.054 34.453 215.862C34.2611 215.663 33.8701 215.663 33.6711 215.663H32.1073V218.016H33.6711Z" fill="white"/>
<path d="M41.8951 216.253C42.087 216.253 42.286 216.253 42.4779 216.253V218.208C42.087 218.208 41.8951 218.016 41.6961 218.016C41.3051 218.016 40.9142 218.208 40.5232 218.407C40.1323 218.599 40.1323 218.99 40.1323 219.381V222.516H37.9785V216.054H39.9332V217.227C40.1323 216.836 40.3313 216.445 40.7222 216.253C41.1132 216.253 41.5041 216.253 41.8951 216.253Z" fill="white"/>
<path d="M46.0036 216.054C46.9846 216.054 47.7664 216.445 48.3564 217.035C48.9393 217.625 49.3302 218.407 49.3302 219.58C49.3302 220.554 48.9393 221.343 48.3564 221.926C47.7664 222.516 46.9846 222.907 45.8117 222.907C44.8308 222.907 44.0489 222.516 43.4589 221.926C42.8761 221.343 42.478 220.554 42.478 219.58C42.478 218.599 42.8761 217.817 43.4589 217.227C44.2408 216.445 45.0298 216.054 46.0036 216.054ZM44.8308 219.58C44.8308 220.163 45.0298 220.554 45.2218 220.952C45.4208 221.343 45.8117 221.343 46.2027 221.343C46.5936 221.343 46.9846 221.144 47.1765 220.753C47.3755 220.362 47.5745 219.971 47.5745 219.381C47.5745 218.798 47.3755 218.407 47.1765 218.016C46.9846 217.625 46.5936 217.625 46.2027 217.625C45.8117 217.625 45.4208 217.817 45.2218 218.016C44.8308 218.599 44.8308 218.99 44.8308 219.58Z" fill="white"/>
<path d="M56.7723 213.907V222.708H54.8176V221.926C54.4266 222.516 53.8367 222.907 53.0548 222.907C52.2729 222.907 51.4839 222.516 50.901 221.926C50.3111 221.343 50.1191 220.362 50.1191 219.381C50.1191 218.407 50.3111 217.625 50.901 217.035C51.4839 216.445 52.0739 216.054 52.8558 216.054C53.6376 216.054 54.2276 216.445 54.6186 217.035V213.907H56.7723ZM52.2729 219.381C52.2729 219.971 52.4648 220.362 52.6638 220.753C52.8558 221.144 53.2467 221.343 53.6376 221.343C54.4266 221.343 54.8176 220.753 54.8176 219.58C54.8176 218.99 54.6186 218.599 54.4266 218.208C54.2276 217.817 53.8367 217.625 53.4457 217.625C53.0548 217.625 52.6638 217.817 52.4648 218.016C52.2729 218.599 52.2729 218.99 52.2729 219.381Z" fill="white"/>
<path d="M60.0989 216.253V219.971C60.0989 220.753 60.4898 221.144 61.0798 221.144C61.4708 221.144 61.6698 220.952 61.8617 220.753C62.0607 220.554 62.2526 220.163 62.2526 219.772V216.253H64.4064V222.708H62.4517V221.734C62.2526 222.125 61.8617 222.317 61.6698 222.516C61.2717 222.708 60.8808 222.708 60.4898 222.708C59.7079 222.708 59.1251 222.516 58.727 222.125C58.3361 221.734 58.1442 220.952 58.1442 220.163V216.253H60.0989Z" fill="white"/>
<path d="M67.733 213.907V218.407L69.6948 216.253H72.0405L69.6948 218.599L72.4314 222.516H69.8867L68.3229 219.971L67.733 220.554V222.708H65.5792V213.907H67.733Z" fill="white"/>
<path d="M75.7652 214.298V216.253H77.13V217.625H75.7652V220.554C75.7652 220.753 75.7652 220.952 75.9571 220.952C76.1562 220.952 76.3481 221.144 76.5471 221.144C76.739 221.144 76.938 221.144 77.13 221.144V222.708C76.739 222.708 76.3481 222.708 75.9571 222.708C75.3672 222.708 74.9762 222.708 74.5853 222.516C74.1943 222.317 74.0024 222.125 74.0024 221.734C73.8034 221.343 73.8034 220.952 73.8034 220.554V217.625H72.4315V216.253H73.4124V214.298H75.7652Z" fill="white"/>
<path d="M80.0656 213.907V215.471H77.9119V213.907H80.0656ZM80.0656 216.253V222.708H77.9119V216.253H80.0656Z" fill="white"/>
<path d="M84.3731 216.054C85.354 216.054 86.1359 216.445 86.7259 217.035C87.3088 217.625 87.7068 218.407 87.7068 219.58C87.7068 220.554 87.3088 221.343 86.7259 221.926C86.1359 222.516 85.354 222.907 84.1812 222.907C83.2003 222.907 82.4184 222.516 81.8284 221.926C81.2456 221.343 80.8546 220.554 80.8546 219.58C80.8546 218.599 81.2456 217.817 81.8284 217.227C82.6103 216.445 83.3993 216.054 84.3731 216.054ZM83.2003 219.58C83.2003 220.163 83.3993 220.554 83.5912 220.952C83.7903 221.343 84.1812 221.343 84.5721 221.343C84.9631 221.343 85.354 221.144 85.5531 220.753C85.745 220.362 85.944 219.971 85.944 219.381C85.944 218.798 85.745 218.407 85.5531 218.016C85.354 217.625 84.9631 217.625 84.5721 217.625C84.1812 217.625 83.7903 217.817 83.5912 218.016C83.2003 218.599 83.2003 218.99 83.2003 219.58Z" fill="white"/>
<path d="M92.7962 216.054C94.36 216.054 95.1419 216.836 95.1419 218.407V222.516H92.9881V218.798C92.9881 218.016 92.5972 217.625 92.0072 217.625C91.6163 217.625 91.4243 217.817 91.2253 218.016C91.0334 218.208 91.0334 218.599 91.0334 218.99V222.516H88.8796V216.054H90.8344V217.035C91.0334 216.644 91.4243 216.445 91.8153 216.253C92.0072 216.253 92.4052 216.054 92.7962 216.054Z" fill="white"/>
<path d="M22.1204 52.2468H199.681V56.1641H22.1204V52.2468Z" fill="#939598"/>
<path d="M109.237 47.3555L111.782 32.2837L114.526 47.3555H121.769L128.621 22.6931H121.179L118.243 38.156H118.044L115.108 22.6931H108.455L105.52 37.9569L102.584 22.6931H95.1418L101.802 47.3555H109.237Z" fill="#939598"/>
<path d="M132.538 47.3555L133.71 43.8293H141.536L142.517 47.3555H150.35L141.344 22.8922H133.902L124.896 47.3555H132.538ZM137.627 30.9116L139.973 38.547H135.274L137.627 30.9116Z" fill="#939598"/>
<path d="M160.138 38.7461H164.247C167.182 38.7461 167.381 41.0922 167.573 43.4383C167.772 44.6113 167.772 45.9834 168.163 47.1565H175.797C175.015 45.9834 175.015 43.0473 175.015 41.8742C174.824 38.7461 173.452 36.5919 171.49 35.8099C174.035 34.8288 175.214 32.2837 175.214 29.7385C175.214 25.0463 171.49 22.6931 167.182 22.6931H152.696V47.1565H160.33V38.7461H160.138ZM160.138 28.5655H163.664C166.599 28.5655 167.381 29.5466 167.381 30.9116C167.381 33.0657 165.427 33.2648 164.055 33.2648H160.138V28.5655Z" fill="#939598"/>
<path d="M187.739 41.0922L199.29 28.1744V22.6931H178.541V29.1555H189.31L177.951 41.4832V47.3555H199.681V41.0922H187.739Z" fill="#939598"/>
<path d="M33.6711 42.4643C32.2992 42.4643 30.5364 42.0733 30.1455 40.7012C29.9536 40.3102 29.9536 39.7201 29.9536 39.1371H22.3195C22.3195 46.9645 30.3445 47.9385 33.0882 47.9385C38.5686 47.9385 44.4398 45.7915 44.4398 39.5281C44.4398 35.0208 40.9142 33.4567 37.5876 32.4827C34.062 31.5017 30.5364 31.1106 30.5364 29.3475C30.5364 27.9754 32.2992 27.7834 33.2801 27.7834C34.062 27.7834 34.8439 27.9754 35.4339 28.3735C36.0239 28.7645 36.4148 29.3475 36.4148 30.3286H43.658C43.068 24.2572 38.3695 22.1102 33.0882 22.1102C27.9917 22.1102 23.1013 24.4563 23.1013 30.1295C23.1013 35.0208 27.6008 36.2009 31.3254 37.1749C35.6329 38.348 36.6067 38.7461 36.6067 39.9192C36.8058 42.0733 34.8439 42.4643 33.6711 42.4643Z" fill="#939598"/>
<path d="M78.7009 37.5659H85.745V47.3555H93.3791V22.6931H85.745V31.3026H78.7009V22.6931H71.0668V47.3555H78.7009V37.5659Z" fill="#939598"/>
<path d="M57.9452 47.9385C65.1884 47.9385 69.1049 42.6563 69.1049 37.765H61.6699C61.2718 40.1111 60.298 41.8742 57.7533 41.8742C54.2277 41.8742 53.0549 38.348 53.0549 35.2199C53.0549 31.8927 54.2277 28.5655 57.7533 28.5655C60.8809 28.5655 61.4709 31.3026 61.6699 32.0917H69.1049C68.5221 26.0203 64.7974 22.5012 57.9452 22.3021C50.3111 22.3021 45.4208 27.3924 45.4208 35.2199C45.4208 42.2653 49.9202 47.9385 57.9452 47.9385Z" fill="#939598"/>
</svg>
