<svg width="15" height="15" viewBox="0 0 15 15" fill="none" xmlns="http://www.w3.org/2000/svg">
<path fill-rule="evenodd" clip-rule="evenodd" d="M9.92905 0.125H14.5938C14.7491 0.125 14.875 0.250921 14.875 0.40625V5.07101C14.875 5.32157 14.572 5.44706 14.3948 5.26987L12.6591 3.53412L8.44037 7.75287C8.11087 8.08237 7.57663 8.08237 7.24713 7.75287C6.91763 7.42337 6.91763 6.88913 7.24713 6.55963L11.4659 2.34088L9.73015 0.605127C9.55296 0.427951 9.6784 0.125 9.92905 0.125ZM2.21875 1.25C1.13144 1.25 0.25 2.13144 0.25 3.21875V12.7812C0.25 13.8686 1.13144 14.75 2.21875 14.75H11.7812C12.8686 14.75 13.75 13.8686 13.75 12.7812V8.84375C13.75 8.37776 13.3722 8 12.9062 8C12.4403 8 12.0625 8.37776 12.0625 8.84375V12.7812C12.0625 12.9366 11.9366 13.0625 11.7812 13.0625H2.21875C2.06342 13.0625 1.9375 12.9366 1.9375 12.7812V3.21875C1.9375 3.06342 2.06342 2.9375 2.21875 2.9375H6.15625C6.62224 2.9375 7 2.55974 7 2.09375C7 1.62776 6.62224 1.25 6.15625 1.25H2.21875Z" fill="#45C8F1"/>
</svg>
