<svg width="48" height="48" viewBox="0 0 48 48" fill="none" xmlns="http://www.w3.org/2000/svg">
<circle cx="24" cy="24" r="24" fill="#F9FAFC"/>
<g clip-path="url(#clip0_1_1620)">
<path fill-rule="evenodd" clip-rule="evenodd" d="M34.612 10.0001C30.551 10.0002 26.6563 11.6136 23.7847 14.4853L22.9815 15.2868C22.432 15.8363 21.9035 16.4086 21.3995 17.0001H15.7925C15.2696 17.0002 14.7554 17.1343 14.2989 17.3894C13.8425 17.6446 13.459 18.0124 13.185 18.4578L10.1925 23.3123C10.0875 23.4829 10.0229 23.6753 10.0037 23.8748C9.98451 24.0742 10.0113 24.2754 10.0819 24.463C10.1525 24.6505 10.2651 24.8193 10.4111 24.9566C10.557 25.0938 10.7325 25.1959 10.924 25.2548L16.3525 26.9243C16.4172 27.0136 16.4907 27.0993 16.5695 27.1781L20.8202 31.4271C20.9007 31.5076 20.9847 31.5811 21.074 31.6458L22.7435 37.0743C22.8025 37.2658 22.9045 37.4413 23.0417 37.5872C23.179 37.7332 23.3478 37.8459 23.5354 37.9164C23.7229 37.9871 23.9241 38.0137 24.1235 37.9946C24.323 37.9754 24.5154 37.9108 24.686 37.8058L29.5405 34.8186C29.9859 34.5445 30.3537 34.1611 30.6089 33.7047C30.864 33.2481 30.9981 32.734 30.9983 32.2111V26.5988C31.5898 26.0948 32.162 25.5663 32.7115 25.0168L33.513 24.2136C36.3849 21.3428 37.999 17.4488 38 13.3881V13.0626C38 12.2503 37.6773 11.4714 37.103 10.897C36.5286 10.3227 35.7497 10.0001 34.9375 10.0001H34.612ZM28.375 28.5938C28.221 28.6988 28.0653 28.8003 27.9095 28.9001L23.797 31.5618L24.756 34.6821L28.1668 32.5821C28.2305 32.5429 28.283 32.4881 28.3194 32.4228C28.3559 32.3575 28.375 32.284 28.375 32.2093V28.5938ZM16.4365 24.2031L19.1 20.0906C19.2015 19.9331 19.3047 19.7791 19.408 19.6251H15.7907C15.716 19.625 15.6425 19.6442 15.5772 19.6806C15.512 19.7171 15.4572 19.7696 15.418 19.8333L13.318 23.2458L16.4365 24.2031ZM25.6415 16.3403C28.0203 13.9619 31.2464 12.6256 34.6103 12.6251H34.9358C35.0518 12.6251 35.1631 12.6712 35.2452 12.7532C35.3272 12.8353 35.3733 12.9465 35.3733 13.0626V13.3881C35.3734 15.0543 35.0455 16.7042 34.408 18.2437C33.7706 19.7832 32.8361 21.182 31.658 22.3603L30.8548 23.1618C29.5248 24.4918 28.06 25.6766 26.4815 26.6968L22.4267 29.3218L18.6765 25.5716L21.3015 21.5168C22.3224 19.938 23.5073 18.4715 24.8365 17.1418L25.638 16.3403H25.6415ZM31 18.7501C31 19.2142 30.8156 19.6593 30.4874 19.9875C30.1593 20.3157 29.7141 20.5001 29.25 20.5001C28.7859 20.5001 28.3407 20.3157 28.0126 19.9875C27.6843 19.6593 27.5 19.2142 27.5 18.7501C27.5 18.2859 27.6843 17.8408 28.0126 17.5126C28.3407 17.1844 28.7859 17.0001 29.25 17.0001C29.7141 17.0001 30.1593 17.1844 30.4874 17.5126C30.8156 17.8408 31 18.2859 31 18.7501ZM16.23 35.4801C16.4879 35.2398 16.6948 34.95 16.8382 34.628C16.9817 34.306 17.0589 33.9584 17.0651 33.6058C17.0713 33.2534 17.0065 32.9034 16.8744 32.5765C16.7424 32.2496 16.5459 31.9528 16.2966 31.7034C16.0474 31.4542 15.7504 31.2577 15.4236 31.1257C15.0967 30.9936 14.7466 30.9288 14.3942 30.935C14.0417 30.9413 13.6941 31.0184 13.3721 31.1618C13.0501 31.3053 12.7603 31.5121 12.52 31.7701C11.2355 33.0476 10.6877 35.8511 10.5075 37.0253C10.4968 37.0887 10.5015 37.1536 10.521 37.2147C10.5405 37.2757 10.5744 37.3314 10.6198 37.3767C10.6652 37.4222 10.7208 37.456 10.7819 37.4756C10.843 37.495 10.908 37.4997 10.9712 37.4891C12.1455 37.3088 14.949 36.7611 16.23 35.4801Z" fill="#45C8F1"/>
</g>
<defs>
<clipPath id="clip0_1_1620">
<rect width="28" height="28" fill="white" transform="translate(10 10.0001)"/>
</clipPath>
</defs>
</svg>
