<svg width="48" height="48" viewBox="0 0 48 48" fill="none" xmlns="http://www.w3.org/2000/svg">
<circle cx="24" cy="24" r="24" fill="#F9FAFC"/>
<path fill-rule="evenodd" clip-rule="evenodd" d="M30.125 22.25C30.125 23.2841 29.9213 24.3081 29.5255 25.2636C29.1298 26.219 28.5497 27.0871 27.8185 27.8185C27.0872 28.5496 26.2191 29.1297 25.2636 29.5256C24.3082 29.9213 23.2842 30.125 22.25 30.125C21.2158 30.125 20.1918 29.9213 19.2364 29.5256C18.2809 29.1297 17.4128 28.5496 16.6815 27.8185C15.9503 27.0871 15.3702 26.219 14.9744 25.2636C14.5787 24.3081 14.375 23.2841 14.375 22.25C14.375 20.1614 15.2047 18.1583 16.6815 16.6815C18.1584 15.2046 20.1614 14.375 22.25 14.375C24.3386 14.375 26.3416 15.2046 27.8185 16.6815C29.2953 18.1583 30.125 20.1614 30.125 22.25ZM28.69 30.545C26.5802 32.1829 23.9254 32.9552 21.2661 32.7046C18.6069 32.4542 16.1431 31.1996 14.3763 29.1964C12.6095 27.1932 11.6726 24.592 11.7562 21.9223C11.8398 19.2526 12.9377 16.7151 14.8264 14.8264C16.7151 12.9377 19.2526 11.8398 21.9223 11.7561C24.592 11.6725 27.1932 12.6095 29.1965 14.3763C31.1997 16.143 32.4543 18.6069 32.7047 21.2661C32.9553 23.9253 32.183 26.5801 30.545 28.69L35.865 34.01C35.994 34.1302 36.0974 34.2751 36.1692 34.4361C36.2409 34.5971 36.2794 34.7708 36.2826 34.9471C36.2857 35.1233 36.2532 35.2983 36.1872 35.4618C36.1212 35.6252 36.0229 35.7736 35.8983 35.8982C35.7737 36.023 35.6253 36.1211 35.4618 36.1871C35.2984 36.2531 35.1234 36.2857 34.9471 36.2825C34.7709 36.2794 34.597 36.2409 34.4361 36.1691C34.2751 36.0974 34.1302 35.9939 34.01 35.865L28.69 30.545Z" fill="#45C8F1"/>
</svg>
