<svg height="28" viewBox="0 0 47 28" width="47" xmlns="http://www.w3.org/2000/svg"><g fill="none" fill-rule="evenodd"><rect fill="#272822" height="28" rx="2" width="46.667"/><path d="m15.3148973 9.92840325-1.4361088 5.15111305h2.8722175zm-.82256-1.20012842h1.6518622l3.0812286 10.06624567h-1.4091396l-.7416524-2.6227525h-3.52622l-.7281678 2.6227525h-1.4091396zm7.6727312 1.11922089v3.78242718h1.5776969c.629284 0 1.1203429-.1663082 1.4731914-.4989297.3528485-.3326216.5292701-.7978352.5292701-1.395655s-.1752979-1.0619098-.525899-1.3922838c-.3506011-.3303741-.8427836-.49555868-1.4765625-.49555868zm-1.3619435-1.11922089h2.9396404c1.1237214 0 1.9754894.25508092 2.5553296.76525043.5798403.51016954.869756 1.25743304.869756 2.24181294 0 .9933697-.288792 1.7440043-.8663848 2.2519264-.5775928.507922-1.4304845.7618792-2.5587008.7618792h-1.5776969v4.0453767h-1.3619435zm8.3402183 0h5.5893622v1.14619007h-2.1103382v7.7738656h2.1103382v1.14619h-5.5893622v-1.14619h2.1103382v-7.7738656h-2.1103382z" fill="#fff"/></g></svg>