<svg xmlns="http://www.w3.org/2000/svg" xmlns:xlink="http://www.w3.org/1999/xlink" width="47" height="28" version="1.1" viewBox="0 0 47 28"><title>api</title><desc>Created with Sketch.</desc><g id="icons" fill="none" fill-rule="evenodd" stroke="none" stroke-width="1" transform="translate(-170.000000, -1565.000000)"><g id="api" transform="translate(170.000000, 1565.000000)"><rect id="Rectangle-7" width="46.667" height="28" x="0" y="0" fill="#272822" rx="2"/><path id="API" fill="#FFF" d="M15.3148973,9.92840325 L13.8787885,15.0795163 L16.751006,15.0795163 L15.3148973,9.92840325 Z M14.4923373,8.72827483 L16.1441995,8.72827483 L19.2254281,18.7945205 L17.8162885,18.7945205 L17.0746361,16.171768 L13.5484161,16.171768 L12.8202483,18.7945205 L11.4111087,18.7945205 L14.4923373,8.72827483 Z M22.1650685,9.84749572 L22.1650685,13.6299229 L23.7427654,13.6299229 C24.3720494,13.6299229 24.8631083,13.4636147 25.2159568,13.1309932 C25.5688053,12.7983716 25.7452269,12.333158 25.7452269,11.7353382 C25.7452269,11.1375184 25.569929,10.6734284 25.2193279,10.3430544 C24.8687268,10.0126803 24.3765443,9.84749572 23.7427654,9.84749572 L22.1650685,9.84749572 Z M20.803125,8.72827483 L23.7427654,8.72827483 C24.8664868,8.72827483 25.7182548,8.98335575 26.298095,9.49352526 C26.8779353,10.0036948 27.167851,10.7509583 27.167851,11.7353382 C27.167851,12.7287079 26.879059,13.4793425 26.3014662,13.9872646 C25.7238734,14.4951866 24.8709817,14.7491438 23.7427654,14.7491438 L22.1650685,14.7491438 L22.1650685,18.7945205 L20.803125,18.7945205 L20.803125,8.72827483 Z M29.1433433,8.72827483 L34.7327055,8.72827483 L34.7327055,9.8744649 L32.6223673,9.8744649 L32.6223673,17.6483305 L34.7327055,17.6483305 L34.7327055,18.7945205 L29.1433433,18.7945205 L29.1433433,17.6483305 L31.2536815,17.6483305 L31.2536815,9.8744649 L29.1433433,9.8744649 L29.1433433,8.72827483 Z"/></g></g></svg>