<svg height="30" viewBox="0 0 30 30" width="30" xmlns="http://www.w3.org/2000/svg"><g fill="none" fill-rule="evenodd" transform="translate(-1)"><path d="m16.1736328 29.601227c8.1883769 0 14.8263672-6.5806813 14.8263672-14.698364 0-3.5302101-1.2553753-6.7697429-3.3476999-9.3037847-2.718955-3.29296159-6.851244-5.39457932-11.4786673-5.39457932-8.18837695 0-14.82636726 6.58068131-14.82636726 14.69836402 0 8.1176827 6.63799031 14.698364 14.82636726 14.698364z" fill="#ffe36a"/><path d="m2.31946206 20.9045373c-.34580686-.71917-.41970982-1.074906-.64390329-1.5822661-.16860667-.3815646-.30630888-1.0460853-.39243552-1.5554983-.06952558-.4112229-.09799176-.6818551-.13979945-.9276668-.12783748-.751631-.07919256-2.5695358-.07919256-2.5695358s.06211444-1.080885.25462332-2.1976054c.10894267-.6319635.30839588-1.2682216.4412984-1.7443354.38883068-1.39295866 1.65873587-3.5751696 1.65873587-3.5751696s2.23987364 2.25402903 4.28805506 4.6344338c1.18088348 1.3724276.60113639.8005942 1.59471327 1.6924484.99357684.8918543.06323154-.115847.92750424.8821559 2.0410371 2.3568498.570324 3.4902744 1.0317195 4.0288785s2.6320001 2.0784871 3.6550673 2.2129895c2.2301819.2932016 6.8373536-2.6377147 6.8373536-2.6377147l-5.3963207 12.1171011s-.0451772.0746608-1.1946095-.0256197c-1.6719025-.1458624-4.8416654-.635267-8.09064747-2.9784731-.34181281-.2465196-1.09116761-.8746205-1.69392261-1.4814154-.98794872-.9945702-1.876703-2.2457501-1.876703-2.2457501s-.06219077.0502963-.74426367-1.2816362c-.16094228-.3142835-.33047626-.5432173-.43727279-.7653206z" fill="#71de85"/><path d="m18.3767944.23784223c-1.4704113-.25489695-1.4678136-.17478205-1.4678136-.17478205s-.6554743-.0679638-1.4922273-.02841859c-.4632278.02189229-.9820129.11218967-1.4759011.1810661-.8456242.11792866-1.7448594.34053446-2.1467436.46613756-6.44619857 2.01466539-8.6815789 6.80273781-8.6815789 6.80273781s7.1630969 9.93488394 7.6013334 10.37432824c.4382366.4394442-1.06177325-4.7205871-.3231181-3.9583733.4538356.4635449 1.835522 1.9810838 1.835522 1.9810838.7443419-1.431545-.9811645-4.012413-.0000002-5.0157177.722732-.7390407.2000621-.8612957.9063489-.90696329.7062869-.04566753-2.2956316.21749959.8082368 0 3.1038683-.21749956-1.6510118-.79599252 1.4759009-1.00504246.9122015-.06098529-3.2432222.06250545-1.4759009 0 1.1917308-.04214834-1.5866461.05786791.2803731 0 .9974311-.03091519 1.4524285-.27362176 2.7750369-.31482077 5.1154525-.15934543 12.4630996-.15894085 12.4630996-.15894085s-.2034286-.45093541-.4785277-.95127955c-.2391914-.435036-.5715506-.88247375-.9782668-1.41730428-.1309095-.17214568-.2865834-.37902694-.45073-.59177846-.2444202-.31679474-.5076261-.59548046-.7358299-.84300684-.2437813-.2644228-.4719418-.53429524-.6875412-.72726732-.303366-.27152749-.5818625-.49202237-.8440131-.7169217-.8788963-.75400582-1.4689529-1.08190646-2.1440228-1.43178782-.4942621-.25617058-1.5642289-.84592302-2.2963682-1.01669605-.7050311-.16445-.9968569-.39360499-2.4672682-.54625248z" fill="#f6524f"/><path d="m16.2509877 20.8588957c3.3038321 0 5.9821169-2.6551618 5.9821169-5.9304703s-2.6782848-5.93047039-5.9821169-5.93047039c-3.303832 0-5.9821168 2.65516189-5.9821168 5.93047039s2.6782848 5.9304703 5.9821168 5.9304703z" fill="#66b7f9" stroke="#fff" stroke-width=".716"/></g></svg>