<svg height="140" viewBox="0 0 140 140" width="140" xmlns="http://www.w3.org/2000/svg"><g fill="none" fill-rule="evenodd" transform="translate(-120 -1142)"><circle cx="190" cy="1212" fill="#8492a6" r="70"/><path d="m218.258929 1199.21429c.44643 0 .848212.15624 1.205357.46875.357144.3125.535714.69196.535714 1.13839v24.50893c0 1.16072-.624994 2.14285-1.875 2.94643v.13392l-23.4375 12.32143v.13393c-.178572.08929-.446427.13393-.803571.13393-.446431 0-.848213-.15625-1.205358-.46875-.357144-.3125-.535714-.69196-.535714-1.13839v-24.77679c0-1.25.580351-2.23214 1.741072-2.94643l.401785-.26785 23.035715-11.91965.267857-.13393c.178572-.08928.401784-.13392.669643-.13392zm-1.741072-6.5625c.714289.26785 1.071429.66964 1.071429 1.20535 0 .26786-.089285.53572-.267857.80357-.178573.26786-.357142.44643-.535715.53572l-.267857.13393-24.508928 12.99107-.267858.13393c-.535717.26786-1.116068.40178-1.741071.40178s-1.205354-.13392-1.741071-.40178l-.267858-.13393-24.508928-12.85714c-.714289-.44644-1.071429-.98214-1.071429-1.60715 0-.26786.089285-.49107.267857-.66964.178573-.17857.357142-.3125.535715-.40179l.267857-.13392 24.241071-10.98215c.982148-.44643 1.741069-.66964 2.276786-.66964l2.276786.66964zm-30.401786 19.01785c1.160721.71429 1.741072 1.69643 1.741072 2.94643v24.77679c0 .44643-.17857.82589-.535714 1.13839-.357145.3125-.758927.46875-1.205358.46875-.178572 0-.446426-.08928-.803571-.26786l-23.4375-12.32143v-.13392c-1.250006-.80358-1.875-1.78571-1.875-2.94643v-24.50893c0-.44643.17857-.82589.535714-1.13839.357145-.31251.758927-.46875 1.205357-.46875.357145 0 .580357.04464.669643.13392l.267857.13393 22.901786 11.91965z" fill="#fff"/></g></svg>