<svg xmlns="http://www.w3.org/2000/svg" width="30" height="30" viewBox="0 0 30 30"><g fill="none" fill-rule="evenodd"><circle cx="15" cy="15" r="15" fill="#45c8f1"/><path fill="#fff" d="m14.8429803 9.93618267c-.2980311 0-.5249376-.07069601-.6807266-.21209016s-.2336823-.36021515-.2336823-.65646956v-.48477752c0-.29625441.0778933-.5150754.2336823-.65646955s.3826955-.21209017.6807266-.21209017h.5486453c.2980311 0 .521551.07069602.6705665.21209017s.2235222.36021514.2235222.65646955v.48477752c0 .29625441-.0745067.51507541-.2235222.65646956s-.3725354.21209016-.6705665.21209016zm-.8331281 11.67505853v-8.0796253c0-.2962544.0778933-.5184419.2336823-.6665691.1557889-.1481272.3826955-.2221897.6807266-.2221897h.3860837c.2980311 0 .521551.0740625.6705665.2221897.1490156.1481272.2235222.3703147.2235222.6665691v8.0796253c0 .2962544-.0745066.5184419-.2235222.6665691-.1490155.1481272-.3725354.2221897-.6705665.2221897h-.3860837c-.2980311 0-.5249377-.0740625-.6807266-.2221897-.155789-.1481272-.2336823-.3703147-.2336823-.6665691z"/></g></svg>