<svg height="16" viewBox="0 0 16 16" width="16" xmlns="http://www.w3.org/2000/svg"><g fill="#0075ff" fill-rule="evenodd"><path d="m3.25 9a.75.75 0 0 1 .75.75c0 2.142.456 3.828.733 4.653a.121.121 0 0 0 .05.064.207.207 0 0 0 .117.033h1.31c.085 0 .18-.042.258-.152a.448.448 0 0 0 .075-.366 16.74 16.74 0 0 1 -.543-4.232.75.75 0 0 1 1.5 0c0 1.588.25 2.926.494 3.85.293 1.113-.504 2.4-1.783 2.4h-1.311c-.686 0-1.35-.41-1.589-1.12a16.42 16.42 0 0 1 -.811-5.13.75.75 0 0 1 .75-.75z"/><path d="m0 6a4 4 0 0 1 4-4h2.75a.75.75 0 0 1 .75.75v6.5a.75.75 0 0 1 -.75.75h-2.75a4 4 0 0 1 -4-4zm4-2.5a2.5 2.5 0 0 0 0 5h2v-5z"/><path d="m15.59.082a.75.75 0 0 1 .41.668v10.5a.75.75 0 0 1 -1.189.608l-.002-.001h.001l-.014-.01a5.829 5.829 0 0 0 -.422-.25 10.58 10.58 0 0 0 -1.469-.64c-1.329-.473-3.369-.957-6.155-.957a.75.75 0 1 1 0-1.5c2.964 0 5.174.516 6.658 1.043.423.151.787.302 1.092.443v-7.972c-.305.14-.669.292-1.092.443-1.484.527-3.695 1.043-6.658 1.043a.75.75 0 1 1 0-1.5c2.786 0 4.826-.484 6.155-.957.665-.236 1.154-.47 1.47-.64a5.82 5.82 0 0 0 .421-.25l.014-.01a.75.75 0 0 1 .78-.061zm-.34 11.168-.44.607z"/></g></svg>