<svg fill="none" height="363" viewBox="0 0 854 363" width="854" xmlns="http://www.w3.org/2000/svg" xmlns:xlink="http://www.w3.org/1999/xlink"><clipPath id="a"><path d="m329 171h14v14h-14z"/></clipPath><rect fill="#fff" height="362" rx="2.5" width="853" x=".5" y=".5"/><g opacity=".4"><rect fill="#0075ff" height="27" rx="2.5" width="401" x="233.5" y="233.5"/><rect height="27" rx="2.5" stroke="#0075ff" width="401" x="233.5" y="233.5"/></g><g opacity=".4"><rect fill="#0075ff" height="27" rx="2.5" width="401" x="229.5" y="229.5"/><rect height="27" rx="2.5" stroke="#0075ff" width="401" x="229.5" y="229.5"/></g><rect fill="#0075ff" height="27" rx="2.5" width="401" x="225.5" y="225.5"/><path clip-rule="evenodd" d="m401.5 234.188c1.44 0 2.732.631 3.615 1.635l-1.054 1.054c-.138.137-.04.373.155.373h3.19c.121 0 .219-.098.219-.219v-3.19c0-.195-.236-.293-.373-.155l-1.208 1.207c-1.12-1.239-2.741-2.018-4.544-2.018-3.134 0-5.718 2.354-6.081 5.391-.043.36.213.686.573.729s.687-.213.73-.573c.285-2.385 2.316-4.234 4.778-4.234zm5.508 4.817c-.36-.043-.687.213-.73.573-.285 2.385-2.316 4.234-4.778 4.234-1.44 0-2.732-.632-3.615-1.635l1.054-1.054c.138-.137.04-.373-.155-.373h-3.19c-.121 0-.219.098-.219.219v3.19c0 .195.236.293.373.155l1.208-1.207c1.12 1.239 2.741 2.018 4.544 2.018 3.135 0 5.718-2.354 6.081-5.391.043-.36-.213-.686-.573-.729z" fill="#ebf4ff" fill-rule="evenodd"/><path d="m417.361 243v-8.727h3.273c.67 0 1.232.116 1.687.349.457.233.803.56 1.036.98.235.418.353.905.353 1.462 0 .56-.119 1.045-.358 1.457-.236.409-.584.726-1.044.951-.46.221-1.025.332-1.696.332h-2.331v-1.313h2.118c.392 0 .713-.054.963-.161.25-.111.435-.272.554-.482.122-.213.183-.474.183-.784s-.061-.574-.183-.793c-.122-.221-.308-.389-.558-.503-.25-.116-.572-.174-.967-.174h-1.449v7.406zm4.508-3.955 2.161 3.955h-1.764l-2.123-3.955zm6.032 4.083c-.656 0-1.223-.137-1.7-.409-.474-.276-.839-.665-1.095-1.168-.256-.506-.384-1.101-.384-1.785 0-.674.128-1.265.384-1.773.258-.511.619-.909 1.082-1.193.463-.287 1.007-.431 1.632-.431.404 0 .784.066 1.142.196.361.128.679.327.955.597.278.27.497.614.656 1.031.159.415.239.909.239 1.483v.473h-5.365v-1.04h3.886c-.003-.295-.067-.558-.192-.788-.125-.233-.299-.416-.524-.55-.221-.133-.48-.2-.775-.2-.316 0-.593.077-.831.23-.239.151-.425.35-.559.597-.13.244-.197.513-.2.805v.908c0 .38.07.707.209.98.139.27.334.477.584.622.25.142.542.213.878.213.224 0 .427-.031.609-.094.182-.065.339-.16.473-.285.133-.125.234-.28.303-.465l1.44.162c-.091.381-.264.713-.52.997-.253.282-.577.5-.972.657-.394.153-.846.23-1.355.23zm7.484-6.673v1.193h-3.762v-1.193zm-2.834-1.569h1.543v6.145c0 .208.031.367.094.478.065.107.15.181.256.221.105.04.221.06.349.06.097 0 .185-.007.264-.022.083-.014.145-.027.188-.038l.26 1.206c-.083.028-.201.06-.354.094-.151.034-.335.054-.554.059-.386.012-.734-.046-1.044-.174-.31-.131-.555-.333-.737-.605-.179-.273-.267-.614-.265-1.023zm4.124 8.114v-6.545h1.496v1.09h.068c.12-.377.324-.669.614-.873.293-.208.626-.311 1.001-.311.086 0 .181.004.286.013.108.005.197.015.268.029v1.419c-.065-.022-.169-.042-.311-.059-.139-.02-.274-.03-.405-.03-.281 0-.534.061-.758.183-.222.12-.396.286-.524.499s-.192.459-.192.737v3.848zm4.758 0v-6.545h1.543v6.545zm.776-7.474c-.245 0-.455-.081-.631-.243-.176-.165-.264-.363-.264-.593 0-.233.088-.43.264-.592.176-.165.386-.247.631-.247.247 0 .457.082.63.247.177.162.265.359.265.592 0 .23-.088.428-.265.593-.173.162-.383.243-.63.243zm5.251 7.602c-.656 0-1.223-.137-1.7-.409-.475-.276-.84-.665-1.096-1.168-.255-.506-.383-1.101-.383-1.785 0-.674.128-1.265.383-1.773.259-.511.62-.909 1.083-1.193.463-.287 1.007-.431 1.632-.431.403 0 .784.066 1.142.196.361.128.679.327.954.597.279.27.498.614.657 1.031.159.415.238.909.238 1.483v.473h-5.365v-1.04h3.887c-.003-.295-.067-.558-.192-.788-.125-.233-.3-.416-.524-.55-.222-.133-.48-.2-.776-.2-.315 0-.592.077-.831.23-.238.151-.424.35-.558.597-.131.244-.197.513-.2.805v.908c0 .38.069.707.209.98.139.27.333.477.583.622.25.142.543.213.878.213.225 0 .428-.031.61-.094.181-.065.339-.16.473-.285.133-.125.234-.28.302-.465l1.44.162c-.09.381-.264.713-.519.997-.253.282-.577.5-.972.657-.395.153-.847.23-1.355.23zm9.389-4.943-1.407.153c-.039-.142-.109-.276-.208-.4-.097-.126-.228-.226-.392-.303-.165-.077-.367-.115-.605-.115-.322 0-.591.069-.81.209-.216.139-.323.319-.32.541-.003.19.067.345.209.464.145.12.384.218.716.294l1.116.239c.62.134 1.08.345 1.381.635.304.29.458.669.46 1.138-.002.412-.123.775-.362 1.091-.236.312-.564.556-.984.733-.421.176-.904.264-1.449.264-.801 0-1.446-.168-1.935-.503-.488-.338-.78-.808-.873-1.411l1.504-.144c.068.295.213.518.435.669.221.15.51.225.865.225.366 0 .66-.075.882-.225.224-.151.336-.337.336-.559 0-.187-.072-.342-.217-.464-.142-.122-.364-.216-.665-.281l-1.116-.235c-.628-.13-1.093-.351-1.394-.66-.301-.313-.45-.708-.447-1.185-.003-.403.106-.753.328-1.048.224-.298.536-.529.933-.691.401-.164.862-.247 1.385-.247.767 0 1.371.164 1.811.49.443.327.718.769.823 1.326z" fill="#ebf4ff"/><rect height="27" rx="2.5" stroke="#0075ff" width="401" x="225.5" y="225.5"/><rect fill="#2a394c" height="28" rx="3" width="76" x="50" y="164"/><path d="m63.6037 175.672c-.0398-.372-.2074-.662-.5028-.869-.2927-.208-.6733-.312-1.1421-.312-.3295 0-.6122.05-.848.15-.2358.099-.4162.234-.5412.404-.125.171-.1889.366-.1918.584 0 .182.0412.34.1236.473.0852.134.2003.247.3452.341.1449.091.3054.168.4815.23.1762.063.3537.115.5327.158l.8182.205c.3295.076.6463.18.9503.311.3068.13.5809.295.8224.494.2443.199.4375.439.5795.72.1421.281.2131.611.2131.989 0 .511-.1307.961-.392 1.351-.2614.386-.6392.688-1.1335.907-.4915.216-1.0867.324-1.7856.324-.6789 0-1.2684-.105-1.7684-.315-.4972-.21-.8864-.517-1.1676-.921-.2784-.403-.429-.895-.4517-1.474h1.5554c.0227.304.1164.557.2812.758.1648.202.3793.353.6435.452.267.1.5653.149.8949.149.3437 0 .6448-.051.9034-.153.2613-.105.4659-.25.6136-.435.1477-.187.223-.406.2259-.656-.0029-.227-.0696-.415-.2003-.563-.1307-.15-.314-.275-.5497-.375-.233-.102-.5057-.193-.8182-.272l-.9929-.256c-.7188-.185-1.287-.464-1.7046-.839-.4147-.378-.6221-.88-.6221-1.505 0-.514.1392-.964.4176-1.351.2812-.386.6633-.686 1.1463-.899.4829-.216 1.0298-.324 1.6406-.324.6193 0 1.1619.108 1.6279.324.4687.213.8366.51 1.1036.891.2671.378.4049.812.4134 1.304zm5.837 6.456c-.6534 0-1.2145-.144-1.6832-.431-.466-.286-.8253-.683-1.0782-1.188-.25-.509-.375-1.094-.375-1.756 0-.665.1279-1.252.3836-1.76.2556-.511.6164-.909 1.0823-1.193.4688-.287 1.0228-.431 1.662-.431.5312 0 1.0014.098 1.4105.294.4119.194.74.468.9844.823.2443.352.3835.764.4176 1.236h-1.4745c-.0596-.316-.2017-.579-.4261-.789-.2216-.213-.5185-.319-.8906-.319-.3154 0-.5923.085-.831.255-.2386.168-.4247.409-.5582.725-.1307.315-.196.693-.196 1.133 0 .446.0653.83.196 1.151.1307.318.3139.564.5497.737.2386.171.5185.256.8395.256.2273 0 .4304-.043.6094-.128.1818-.088.3338-.215.4559-.379.1222-.165.206-.365.2514-.601h1.4745c-.037.463-.1733.873-.4091 1.231-.2358.355-.5568.634-.9631.836-.4062.198-.8835.298-1.4318.298zm5.6133-3.963v3.835h-1.5426v-8.727h1.5085v3.294h.0767c.1534-.37.3906-.661.7116-.874.3239-.216.7358-.324 1.2358-.324.4546 0 .8509.095 1.189.286.338.19.5994.469.784.835.1875.367.2813.814.2813 1.342v4.168h-1.5426v-3.929c0-.44-.1137-.783-.3409-1.027-.2245-.247-.5398-.371-.946-.371-.2728 0-.5171.06-.733.179-.2131.117-.3807.286-.5028.507-.1194.222-.179.49-.179.806zm8.7145 3.963c-.6563 0-1.223-.137-1.7003-.409-.4744-.276-.8395-.665-1.0952-1.168-.2557-.506-.3835-1.101-.3835-1.785 0-.674.1278-1.265.3835-1.773.2585-.511.6193-.909 1.0824-1.193.4631-.287 1.0071-.431 1.6321-.431.4034 0 .7841.066 1.142.196.3608.128.679.327.9546.597.2784.27.4972.614.6562 1.031.1591.415.2387.909.2387 1.483v.473h-5.3651v-1.04h3.8864c-.0029-.295-.0668-.558-.1918-.788-.125-.233-.2997-.416-.5241-.55-.2216-.133-.4801-.2-.7756-.2-.3153 0-.5923.077-.831.23-.2386.151-.4247.35-.5582.597-.1307.244-.1974.513-.2003.805v.908c0 .38.0696.707.2088.98.1392.27.3338.477.5838.622.25.142.5426.213.8779.213.2244 0 .4275-.031.6093-.094.1819-.065.3395-.16.4731-.285.1335-.125.2343-.28.3025-.465l1.4404.162c-.091.381-.2642.713-.5199.997-.2529.282-.5767.5-.9716.657-.3949.153-.8466.23-1.3551.23zm6.6445-.013c-.5142 0-.9744-.132-1.3807-.396-.4062-.264-.7273-.648-.9631-1.151-.2357-.503-.3536-1.113-.3536-1.832 0-.727.1193-1.341.3579-1.841.2415-.503.5668-.882.9759-1.138.4091-.258.865-.388 1.3679-.388.3835 0 .6988.066.946.196.2471.128.4432.283.588.465.1449.179.2572.348.3367.507h.0639v-3.264h1.5469v8.727h-1.5171v-1.031h-.0937c-.0795.159-.1946.328-.3452.507-.1505.176-.3494.327-.5966.452-.2471.125-.5582.187-.9332.187zm.4304-1.266c.3267 0 .6051-.088.8352-.264.2301-.179.4049-.427.5242-.746.1193-.318.1789-.688.1789-1.112 0-.423-.0596-.791-.1789-1.103-.1165-.313-.2898-.556-.5199-.729-.2273-.173-.5071-.26-.8395-.26-.3438 0-.6307.089-.8608.268s-.4034.427-.5199.742-.1747.676-.1747 1.082c0 .409.0582.774.1747 1.095.1193.319.294.57.5242.755.2329.182.5184.272.8565.272zm8.8711-1.602v-3.792h1.5425v6.545h-1.4956v-1.163h-.0682c-.1477.366-.3906.666-.7287.899-.3352.233-.7486.349-1.2401.349-.4289 0-.8082-.095-1.1378-.285-.3267-.193-.5823-.473-.767-.84-.1847-.369-.277-.815-.277-1.338v-4.167h1.5426v3.929c0 .414.1137.744.3409.988.2273.244.5256.367.8949.367.2273 0 .4475-.056.6605-.167.2131-.11.3878-.275.5242-.494.1392-.221.2088-.498.2088-.831zm4.6715-5.974v8.727h-1.543v-8.727zm4.484 8.855c-.656 0-1.223-.137-1.7-.409-.475-.276-.84-.665-1.095-1.168-.256-.506-.384-1.101-.384-1.785 0-.674.128-1.265.384-1.773.258-.511.619-.909 1.082-1.193.463-.287 1.007-.431 1.632-.431.403 0 .784.066 1.142.196.361.128.679.327.955.597.278.27.497.614.656 1.031.159.415.239.909.239 1.483v.473h-5.366v-1.04h3.887c-.003-.295-.067-.558-.192-.788-.125-.233-.3-.416-.524-.55-.222-.133-.48-.2-.776-.2-.315 0-.592.077-.831.23-.238.151-.424.35-.558.597-.131.244-.197.513-.2.805v.908c0 .38.069.707.209.98.139.27.333.477.583.622.25.142.543.213.878.213.225 0 .428-.031.61-.094.182-.065.339-.16.473-.285.133-.125.234-.28.302-.465l1.441.162c-.091.381-.265.713-.52.997-.253.282-.577.5-.972.657-.395.153-.846.23-1.355.23zm4.216-.128v-6.545h1.495v1.09h.069c.119-.377.323-.669.613-.873.293-.208.627-.311 1.002-.311.085 0 .18.004.285.013.108.005.198.015.269.029v1.419c-.066-.022-.169-.042-.312-.059-.139-.02-.274-.03-.404-.03-.282 0-.534.061-.759.183-.221.12-.396.286-.524.499s-.192.459-.192.737v3.848z" fill="#fff"/><rect fill="#2a394c" height="28" rx="3" width="76" x="174" y="164"/><path d="m203.104 175.672c-.04-.372-.208-.662-.503-.869-.293-.208-.673-.312-1.142-.312-.33 0-.612.05-.848.15-.236.099-.416.234-.541.404-.125.171-.189.366-.192.584 0 .182.041.34.123.473.086.134.201.247.346.341.144.091.305.168.481.23.176.063.354.115.533.158l.818.205c.33.076.646.18.95.311.307.13.581.295.823.494.244.199.437.439.579.72s.213.611.213.989c0 .511-.13.961-.392 1.351-.261.386-.639.688-1.133.907-.492.216-1.087.324-1.786.324-.679 0-1.268-.105-1.768-.315-.497-.21-.887-.517-1.168-.921-.278-.403-.429-.895-.452-1.474h1.556c.023.304.116.557.281.758.165.202.379.353.644.452.267.1.565.149.894.149.344 0 .645-.051.904-.153.261-.105.466-.25.614-.435.147-.187.223-.406.225-.656-.002-.227-.069-.415-.2-.563-.131-.15-.314-.275-.55-.375-.233-.102-.505-.193-.818-.272l-.993-.256c-.718-.185-1.287-.464-1.704-.839-.415-.378-.622-.88-.622-1.505 0-.514.139-.964.417-1.351.281-.386.664-.686 1.146-.899.483-.216 1.03-.324 1.641-.324.619 0 1.162.108 1.628.324.469.213.837.51 1.104.891.267.378.404.812.413 1.304zm6.25-.217v1.193h-3.763v-1.193zm-2.834-1.569h1.543v6.145c0 .208.031.367.094.478.065.107.15.181.255.221s.222.06.35.06c.096 0 .184-.007.264-.022.082-.014.145-.027.187-.038l.26 1.206c-.082.028-.2.06-.353.094-.151.034-.336.054-.554.059-.387.012-.735-.046-1.044-.174-.31-.131-.556-.333-.738-.605-.179-.273-.267-.614-.264-1.023zm6.008 8.246c-.415 0-.789-.074-1.121-.221-.33-.151-.591-.373-.784-.665-.19-.293-.286-.654-.286-1.083 0-.369.069-.674.205-.916.136-.241.322-.435.558-.579.236-.145.502-.255.797-.329.298-.076.607-.132.925-.166.383-.039.694-.075.933-.106.239-.034.412-.085.52-.154.111-.071.166-.18.166-.328v-.025c0-.321-.095-.57-.285-.746-.191-.176-.465-.264-.823-.264-.378 0-.677.082-.899.247-.219.165-.367.359-.443.584l-1.441-.205c.114-.398.302-.73.563-.997.261-.27.581-.472.959-.605.378-.136.795-.205 1.253-.205.315 0 .629.037.941.111.313.074.598.196.857.367.258.167.466.396.622.686.159.289.239.652.239 1.086v4.381h-1.483v-.899h-.051c-.094.182-.226.352-.397.511-.167.156-.379.283-.635.379-.253.094-.549.141-.89.141zm.4-1.133c.31 0 .578-.062.806-.184.227-.125.402-.289.524-.494.125-.205.187-.428.187-.669v-.771c-.048.039-.13.076-.247.11-.113.035-.241.064-.383.09s-.283.048-.422.068-.26.037-.362.051c-.231.032-.437.083-.618.154-.182.071-.326.17-.431.298-.105.125-.157.287-.157.486 0 .284.103.498.311.643.207.145.471.218.792.218zm4.607 1.001v-6.545h1.496v1.09h.068c.119-.377.324-.669.613-.873.293-.208.627-.311 1.002-.311.085 0 .18.004.285.013.108.005.198.015.269.029v1.419c-.066-.022-.169-.042-.311-.059-.14-.02-.274-.03-.405-.03-.281 0-.534.061-.759.183-.221.12-.396.286-.524.499s-.192.459-.192.737v3.848zm8.378-6.545v1.193h-3.763v-1.193zm-2.834-1.569h1.542v6.145c0 .208.032.367.094.478.066.107.151.181.256.221s.221.06.349.06c.097 0 .185-.007.265-.022.082-.014.144-.027.187-.038l.26 1.206c-.082.028-.2.06-.354.094-.15.034-.335.054-.554.059-.386.012-.734-.046-1.044-.174-.309-.131-.555-.333-.737-.605-.179-.273-.267-.614-.264-1.023z" fill="#fff"/><path clip-rule="evenodd" d="m275.22 185.03c.293.293.767.293 1.06 0l6.25-6.25c.293-.293.293-.767 0-1.06l-6.25-6.25c-.293-.293-.767-.293-1.06 0s-.293.767 0 1.06l4.969 4.97h-14.439c-.414 0-.75.336-.75.75s.336.75.75.75h14.439l-4.969 4.97c-.293.293-.293.767 0 1.06z" fill="#18202b" fill-rule="evenodd"/><path clip-rule="evenodd" d="m151.22 185.03c.293.293.767.293 1.06 0l6.25-6.25c.293-.293.293-.767 0-1.06l-6.25-6.25c-.293-.293-.767-.293-1.06 0s-.293.767 0 1.06l4.969 4.97h-14.439c-.414 0-.75.336-.75.75s.336.75.75.75h14.439l-4.969 4.97c-.293.293-.293.767 0 1.06z" fill="#18202b" fill-rule="evenodd"/><rect fill="#2a394c" height="28" rx="3" width="131" x="298" y="164"/><g clip-path="url(#a)"><path clip-rule="evenodd" d="m338.241 172.312c-.003.001-.006.002-.009.004l-6.357 6.184c-.031.03-.052.069-.061.112s-.005.087.012.127c.016.041.044.075.081.099.036.024.079.037.122.037h2.877c.108 0 .214.027.309.077.095.051.176.124.236.214.06.089.097.192.108.299s-.005.215-.045.315l-1.499 3.664 6.109-5.944c.031-.03.052-.069.061-.112.009-.042.005-.087-.011-.127-.017-.04-.045-.075-.081-.099s-.079-.037-.122-.037h-2.877c-.11 0-.218-.028-.314-.08-.097-.053-.178-.129-.238-.221-.059-.092-.095-.198-.103-.307-.008-.11.012-.22.057-.32l1.757-3.865.003-.006c-.001-.002-.002-.005-.004-.007-.001-.002-.003-.004-.005-.006l-.007-.001zm-.925-.936c.222-.215.511-.346.819-.37.308-.025.615.059.868.237.253.177.435.438.517.736.081.298.056.615-.072.896l-1.335 2.937h1.858c1.374 0 2.053 1.671 1.067 2.629l-6.422 6.249c-.204.199-.478.31-.762.31h-.265c-.179 0-.356-.044-.514-.129-.158-.084-.294-.206-.394-.355s-.161-.32-.18-.499c-.018-.178.008-.359.076-.525l1.352-3.305h-1.9c-1.373 0-2.052-1.67-1.067-2.628l6.353-6.184z" fill="#fff" fill-rule="evenodd"/></g><path d="m351.861 182v-8.727h5.676v1.325h-4.095v2.369h3.801v1.326h-3.801v2.382h4.129v1.325zm8.482-6.545 1.321 2.416 1.342-2.416h1.632l-1.973 3.272 2.008 3.273h-1.624l-1.385-2.357-1.372 2.357h-1.636l1.994-3.273-1.943-3.272zm8.14 6.673c-.656 0-1.223-.137-1.7-.409-.474-.276-.839-.665-1.095-1.168-.256-.506-.384-1.101-.384-1.785 0-.674.128-1.265.384-1.773.258-.511.619-.909 1.082-1.193.463-.287 1.007-.431 1.632-.431.404 0 .784.066 1.142.196.361.128.679.327.955.597.278.27.497.614.656 1.031.159.415.239.909.239 1.483v.473h-5.365v-1.04h3.886c-.003-.295-.067-.558-.192-.788-.125-.233-.299-.416-.524-.55-.221-.133-.48-.2-.775-.2-.316 0-.593.077-.831.23-.239.151-.425.35-.559.597-.13.244-.197.513-.2.805v.908c0 .38.07.707.209.98.139.27.334.477.584.622.25.142.542.213.878.213.224 0 .427-.031.609-.094.182-.065.339-.16.473-.285s.234-.28.303-.465l1.44.162c-.091.381-.264.713-.52.997-.253.282-.577.5-.972.657-.394.153-.846.23-1.355.23zm7.071 0c-.653 0-1.215-.144-1.683-.431-.466-.286-.826-.683-1.078-1.188-.25-.509-.375-1.094-.375-1.756 0-.665.127-1.252.383-1.76.256-.511.617-.909 1.083-1.193.468-.287 1.022-.431 1.661-.431.532 0 1.002.098 1.411.294.412.194.74.468.984.823.245.352.384.764.418 1.236h-1.474c-.06-.316-.202-.579-.427-.789-.221-.213-.518-.319-.89-.319-.316 0-.593.085-.831.255-.239.168-.425.409-.558.725-.131.315-.196.693-.196 1.133 0 .446.065.83.196 1.151.13.318.313.564.549.737.239.171.519.256.84.256.227 0 .43-.043.609-.128.182-.088.334-.215.456-.379.122-.165.206-.365.252-.601h1.474c-.037.463-.173.873-.409 1.231-.236.355-.557.634-.963.836-.406.198-.884.298-1.432.298zm8.243-2.881v-3.792h1.542v6.545h-1.496v-1.163h-.068c-.148.366-.39.666-.728.899-.336.233-.749.349-1.241.349-.429 0-.808-.095-1.137-.285-.327-.193-.583-.473-.767-.84-.185-.369-.277-.815-.277-1.338v-4.167h1.542v3.929c0 .414.114.744.341.988s.526.367.895.367c.227 0 .447-.056.661-.167.213-.11.387-.275.524-.494.139-.221.209-.498.209-.831zm6.397-3.792v1.193h-3.763v-1.193zm-2.834-1.569h1.543v6.145c0 .208.031.367.093.478.066.107.151.181.256.221s.222.06.35.06c.096 0 .184-.007.264-.022.082-.014.145-.027.187-.038l.26 1.206c-.082.028-.2.06-.353.094-.151.034-.336.054-.554.059-.387.012-.735-.046-1.044-.174-.31-.131-.556-.333-.738-.605-.179-.273-.267-.614-.264-1.023zm6.951 8.242c-.656 0-1.223-.137-1.7-.409-.474-.276-.839-.665-1.095-1.168-.256-.506-.384-1.101-.384-1.785 0-.674.128-1.265.384-1.773.259-.511.619-.909 1.082-1.193.463-.287 1.007-.431 1.632-.431.404 0 .785.066 1.143.196.36.128.678.327.954.597.278.27.497.614.656 1.031.159.415.239.909.239 1.483v.473h-5.365v-1.04h3.886c-.003-.295-.067-.558-.192-.788-.125-.233-.299-.416-.524-.55-.221-.133-.48-.2-.775-.2-.316 0-.593.077-.831.23-.239.151-.425.35-.558.597-.131.244-.198.513-.201.805v.908c0 .38.07.707.209.98.139.27.334.477.584.622.25.142.543.213.878.213.224 0 .427-.031.609-.094.182-.065.34-.16.473-.285.134-.125.235-.28.303-.465l1.44.162c-.091.381-.264.713-.52.997-.253.282-.577.5-.971.657-.395.153-.847.23-1.356.23z" fill="#fff"/><path clip-rule="evenodd" d="m454.22 185.03c.293.293.767.293 1.06 0l6.25-6.25c.293-.293.293-.767 0-1.06l-6.25-6.25c-.293-.293-.767-.293-1.06 0s-.293.767 0 1.06l4.969 4.97h-14.439c-.414 0-.75.336-.75.75s.336.75.75.75h14.439l-4.969 4.97c-.293.293-.293.767 0 1.06z" fill="#18202b" fill-rule="evenodd"/><path clip-rule="evenodd" d="m578.22 185.03c.293.293.767.293 1.06 0l6.25-6.25c.293-.293.293-.767 0-1.06l-6.25-6.25c-.293-.293-.767-.293-1.06 0s-.293.767 0 1.06l4.969 4.97h-14.439c-.414 0-.75.336-.75.75s.336.75.75.75h14.439l-4.969 4.97c-.293.293-.293.767 0 1.06z" fill="#18202b" fill-rule="evenodd"/><path clip-rule="evenodd" d="m702.22 185.03c.293.293.767.293 1.06 0l6.25-6.25c.293-.293.293-.767 0-1.06l-6.25-6.25c-.293-.293-.767-.293-1.06 0s-.293.767 0 1.06l4.969 4.97h-14.439c-.414 0-.75.336-.75.75s.336.75.75.75h14.439l-4.969 4.97c-.293.293-.293.767 0 1.06z" fill="#18202b" fill-rule="evenodd"/><rect fill="#2a394c" height="28" rx="3" width="76" x="477" y="164"/><path d="m498.361 182v-8.727h5.591v1.325h-4.01v2.369h3.626v1.326h-3.626v3.707zm6.963 0v-6.545h1.542v6.545zm.775-7.474c-.244 0-.454-.081-.63-.243-.176-.165-.264-.363-.264-.593 0-.233.088-.43.264-.592.176-.165.386-.247.63-.247.248 0 .458.082.631.247.176.162.264.359.264.592 0 .23-.088.428-.264.593-.173.162-.383.243-.631.243zm3.896 3.639v3.835h-1.542v-6.545h1.474v1.112h.077c.15-.367.391-.658.72-.874.332-.216.743-.324 1.232-.324.451 0 .845.097 1.18.29.338.193.599.473.784.84.188.366.28.811.277 1.333v4.168h-1.543v-3.929c0-.437-.113-.78-.34-1.027-.225-.247-.536-.371-.934-.371-.27 0-.51.06-.72.179-.207.117-.371.286-.49.507-.116.222-.175.49-.175.806zm5.77 3.835v-6.545h1.543v6.545zm.776-7.474c-.244 0-.455-.081-.631-.243-.176-.165-.264-.363-.264-.593 0-.233.088-.43.264-.592.176-.165.387-.247.631-.247.247 0 .457.082.631.247.176.162.264.359.264.592 0 .23-.088.428-.264.593-.174.162-.384.243-.631.243zm7.526 2.659-1.406.153c-.04-.142-.109-.276-.209-.4-.096-.126-.227-.226-.392-.303-.164-.077-.366-.115-.605-.115-.321 0-.591.069-.809.209-.216.139-.323.319-.32.541-.003.19.067.345.209.464.145.12.383.218.716.294l1.116.239c.62.134 1.08.345 1.381.635.304.29.457.669.46 1.138-.003.412-.123.775-.362 1.091-.236.312-.564.556-.984.733-.421.176-.904.264-1.449.264-.801 0-1.446-.168-1.935-.503-.489-.338-.78-.808-.874-1.411l1.505-.144c.068.295.213.518.434.669.222.15.51.225.865.225.367 0 .661-.075.882-.225.225-.151.337-.337.337-.559 0-.187-.072-.342-.217-.464-.142-.122-.364-.216-.665-.281l-1.116-.235c-.628-.13-1.093-.351-1.394-.66-.301-.313-.45-.708-.447-1.185-.003-.403.106-.753.328-1.048.224-.298.535-.529.933-.691.401-.164.862-.247 1.385-.247.767 0 1.371.164 1.811.49.443.327.717.769.822 1.326zm2.956.98v3.835h-1.543v-8.727h1.509v3.294h.076c.154-.37.391-.661.712-.874.324-.216.736-.324 1.236-.324.454 0 .851.095 1.189.286.338.19.599.469.784.835.187.367.281.814.281 1.342v4.168h-1.543v-3.929c0-.44-.113-.783-.34-1.027-.225-.247-.54-.371-.946-.371-.273 0-.518.06-.733.179-.214.117-.381.286-.503.507-.12.222-.179.49-.179.806z" fill="#fff"/><rect fill="#2a394c" height="28" rx="3" width="76" x="601" y="164"/><path d="m628.604 175.672c-.04-.372-.208-.662-.503-.869-.293-.208-.673-.312-1.142-.312-.33 0-.612.05-.848.15-.236.099-.416.234-.541.404-.125.171-.189.366-.192.584 0 .182.041.34.123.473.086.134.201.247.346.341.144.091.305.168.481.23.176.063.354.115.533.158l.818.205c.33.076.646.18.95.311.307.13.581.295.823.494.244.199.437.439.579.72s.213.611.213.989c0 .511-.13.961-.392 1.351-.261.386-.639.688-1.133.907-.492.216-1.087.324-1.786.324-.679 0-1.268-.105-1.768-.315-.497-.21-.887-.517-1.168-.921-.278-.403-.429-.895-.452-1.474h1.556c.023.304.116.557.281.758.165.202.379.353.644.452.267.1.565.149.894.149.344 0 .645-.051.904-.153.261-.105.466-.25.614-.435.147-.187.223-.406.225-.656-.002-.227-.069-.415-.2-.563-.131-.15-.314-.275-.55-.375-.233-.102-.505-.193-.818-.272l-.993-.256c-.718-.185-1.287-.464-1.704-.839-.415-.378-.622-.88-.622-1.505 0-.514.139-.964.417-1.351.281-.386.664-.686 1.146-.899.483-.216 1.03-.324 1.641-.324.619 0 1.162.108 1.628.324.469.213.837.51 1.104.891.267.378.404.812.413 1.304zm6.25-.217v1.193h-3.763v-1.193zm-2.834-1.569h1.543v6.145c0 .208.031.367.094.478.065.107.15.181.255.221s.222.06.35.06c.096 0 .184-.007.264-.022.082-.014.145-.027.187-.038l.26 1.206c-.082.028-.2.06-.353.094-.151.034-.336.054-.554.059-.387.012-.735-.046-1.044-.174-.31-.131-.556-.333-.738-.605-.179-.273-.267-.614-.264-1.023zm6.909 8.242c-.639 0-1.193-.141-1.662-.422s-.832-.675-1.091-1.18c-.256-.506-.383-1.097-.383-1.773s.127-1.269.383-1.777c.259-.509.622-.904 1.091-1.185s1.023-.422 1.662-.422 1.193.141 1.662.422.831.676 1.087 1.185c.258.508.387 1.101.387 1.777s-.129 1.267-.387 1.773c-.256.505-.618.899-1.087 1.18s-1.023.422-1.662.422zm.009-1.236c.346 0 .636-.095.869-.285.233-.194.406-.452.52-.776.116-.324.174-.685.174-1.082 0-.401-.058-.763-.174-1.087-.114-.327-.287-.587-.52-.78s-.523-.29-.869-.29c-.356 0-.651.097-.887.29-.233.193-.408.453-.524.78-.114.324-.17.686-.17 1.087 0 .397.056.758.17 1.082.116.324.291.582.524.776.236.19.531.285.887.285zm4.437 1.108v-6.545h1.495v1.09h.069c.119-.377.323-.669.613-.873.293-.208.627-.311 1.002-.311.085 0 .18.004.285.013.108.005.198.015.269.029v1.419c-.066-.022-.169-.042-.311-.059-.14-.02-.275-.03-.405-.03-.282 0-.534.061-.759.183-.221.12-.396.286-.524.499s-.192.459-.192.737v3.848zm7.386.128c-.657 0-1.223-.137-1.701-.409-.474-.276-.839-.665-1.095-1.168-.255-.506-.383-1.101-.383-1.785 0-.674.128-1.265.383-1.773.259-.511.62-.909 1.083-1.193.463-.287 1.007-.431 1.632-.431.403 0 .784.066 1.142.196.361.128.679.327.954.597.279.27.497.614.657 1.031.159.415.238.909.238 1.483v.473h-5.365v-1.04h3.886c-.002-.295-.066-.558-.191-.788-.125-.233-.3-.416-.524-.55-.222-.133-.481-.2-.776-.2-.315 0-.592.077-.831.23-.239.151-.425.35-.558.597-.131.244-.198.513-.2.805v.908c0 .38.069.707.208.98.14.27.334.477.584.622.25.142.543.213.878.213.224 0 .428-.031.609-.094.182-.065.34-.16.473-.285.134-.125.235-.28.303-.465l1.44.162c-.091.381-.264.713-.52.997-.252.282-.576.5-.971.657-.395.153-.847.23-1.355.23z" fill="#fff"/><rect fill="#2a394c" height="28" rx="3" width="76" x="725" y="164"/><path clip-rule="evenodd" d="m744.5 171c-2.416 0-4.375 1.959-4.375 4.375v2.579c0 .043-.013.085-.037.121l-1.49 2.236c-.145.218-.223.474-.223.736 0 .734.595 1.328 1.328 1.328h9.594c.734 0 1.328-.594 1.328-1.328 0-.262-.078-.518-.223-.736l-1.49-2.236c-.024-.036-.037-.078-.037-.121v-2.579c0-2.416-1.959-4.375-4.375-4.375zm-3.062 4.375c0-1.691 1.371-3.063 3.062-3.063s3.062 1.372 3.062 3.063v2.579c0 .302.09.598.258.849l1.49 2.236c.002.002.002.005.002.008v.004.002s-.002.003-.004.005-.005.004-.005.004-.003 0-.006 0h-9.594c-.003 0-.006 0-.006 0s-.003-.002-.005-.004-.004-.005-.004-.005 0-.003 0-.006 0-.006.002-.008l1.49-2.236c.168-.251.258-.547.258-.849z" fill="#fff" fill-rule="evenodd"/><path d="m746.237 183.468c-.108.864-.844 1.532-1.737 1.532s-1.629-.668-1.737-1.532c-.014-.12.085-.218.206-.218h3.062c.121 0 .22.098.206.218z" fill="#fff"/><path d="m761.482 182h-1.688l3.072-8.727h1.952l3.077 8.727h-1.688l-2.331-6.938h-.068zm.055-3.422h4.602v1.27h-4.602zm8.982-5.305v8.727h-1.543v-8.727zm4.484 8.855c-.656 0-1.223-.137-1.7-.409-.475-.276-.84-.665-1.096-1.168-.255-.506-.383-1.101-.383-1.785 0-.674.128-1.265.383-1.773.259-.511.62-.909 1.083-1.193.463-.287 1.007-.431 1.632-.431.403 0 .784.066 1.142.196.361.128.679.327.954.597.279.27.498.614.657 1.031.159.415.238.909.238 1.483v.473h-5.365v-1.04h3.887c-.003-.295-.067-.558-.192-.788-.125-.233-.3-.416-.524-.55-.222-.133-.48-.2-.776-.2-.315 0-.592.077-.831.23-.238.151-.424.35-.558.597-.131.244-.197.513-.2.805v.908c0 .38.069.707.208.98.14.27.334.477.584.622.25.142.543.213.878.213.225 0 .428-.031.61-.094.181-.065.339-.16.473-.285.133-.125.234-.28.302-.465l1.44.162c-.09.381-.264.713-.519.997-.253.282-.577.5-.972.657-.395.153-.847.23-1.355.23zm4.215-.128v-6.545h1.496v1.09h.068c.12-.377.324-.669.614-.873.293-.208.626-.311 1.001-.311.086 0 .181.004.286.013.108.005.197.015.268.029v1.419c-.065-.022-.169-.042-.311-.059-.139-.02-.274-.03-.405-.03-.281 0-.534.061-.758.183-.222.12-.396.286-.524.499s-.192.459-.192.737v3.848zm8.378-6.545v1.193h-3.763v-1.193zm-2.834-1.569h1.543v6.145c0 .208.031.367.094.478.065.107.15.181.255.221.106.04.222.06.35.06.096 0 .185-.007.264-.022.082-.014.145-.027.188-.038l.26 1.206c-.083.028-.201.06-.354.094-.151.034-.335.054-.554.059-.386.012-.734-.046-1.044-.174-.31-.131-.556-.333-.737-.605-.179-.273-.267-.614-.265-1.023z" fill="#fff"/><rect fill="#9aaec6" height="28" rx="3" width="100" x="230" y="103"/><path clip-rule="evenodd" d="m255.464 114.156c0-.362.294-.656.656-.656h5.259c.363 0 .657.294.657.656v5.259c0 .363-.294.657-.657.657-.362 0-.656-.294-.656-.657v-3.674l-4.603 4.602c-.256.257-.672.257-.928 0-.256-.256-.256-.671 0-.928l4.603-4.603h-3.675c-.362 0-.656-.293-.656-.656z" fill="#18202b" fill-rule="evenodd"/><path d="m279.104 114.672c-.04-.372-.208-.662-.503-.869-.293-.208-.673-.312-1.142-.312-.33 0-.612.05-.848.15-.236.099-.416.234-.541.404-.125.171-.189.366-.192.584 0 .182.041.34.123.473.086.134.201.247.346.341.144.091.305.168.481.23.176.063.354.115.533.158l.818.205c.33.076.646.18.95.311.307.13.581.295.823.494.244.199.437.439.579.72s.213.611.213.989c0 .511-.13.961-.392 1.351-.261.386-.639.688-1.133.907-.492.216-1.087.324-1.786.324-.679 0-1.268-.105-1.768-.315-.497-.21-.887-.517-1.168-.921-.278-.403-.429-.895-.452-1.474h1.556c.023.304.116.557.281.758.165.202.379.353.644.452.267.1.565.149.894.149.344 0 .645-.051.904-.153.261-.105.466-.25.614-.435.147-.187.223-.406.225-.656-.002-.227-.069-.415-.2-.563-.131-.15-.314-.275-.55-.375-.233-.102-.505-.193-.818-.272l-.993-.256c-.718-.185-1.287-.464-1.704-.839-.415-.378-.622-.88-.622-1.505 0-.514.139-.964.417-1.351.281-.386.664-.686 1.146-.899.483-.216 1.03-.324 1.641-.324.619 0 1.162.108 1.628.324.469.213.837.51 1.104.891.267.378.404.812.413 1.304zm5.879 6.456c-.656 0-1.223-.137-1.7-.409-.474-.276-.839-.665-1.095-1.168-.256-.506-.384-1.101-.384-1.785 0-.674.128-1.265.384-1.773.258-.511.619-.909 1.082-1.193.463-.287 1.007-.431 1.632-.431.404 0 .784.066 1.142.196.361.128.679.327.955.597.278.27.497.614.656 1.031.159.415.239.909.239 1.483v.473h-5.365v-1.04h3.886c-.003-.295-.067-.558-.192-.788-.125-.233-.299-.416-.524-.55-.221-.133-.48-.2-.775-.2-.316 0-.593.077-.831.23-.239.151-.425.35-.559.597-.13.244-.197.513-.2.805v.908c0 .38.07.707.209.98.139.27.334.477.584.622.25.142.542.213.878.213.224 0 .427-.031.609-.094.182-.065.339-.16.473-.285s.234-.28.303-.465l1.44.162c-.091.381-.264.713-.52.997-.253.282-.577.5-.972.657-.394.153-.846.23-1.355.23zm7.484-6.673v1.193h-3.762v-1.193zm-2.833-1.569h1.542v6.145c0 .208.031.367.094.478.065.107.15.181.256.221.105.04.221.06.349.06.097 0 .185-.007.264-.022.083-.014.145-.027.188-.038l.26 1.206c-.083.028-.201.06-.354.094-.151.034-.335.054-.554.059-.386.012-.734-.046-1.044-.174-.31-.131-.555-.333-.737-.605-.179-.273-.267-.614-.264-1.023zm8.295 5.361v-3.792h1.543v6.545h-1.496v-1.163h-.068c-.148.366-.391.666-.729.899-.335.233-.748.349-1.24.349-.429 0-.808-.095-1.138-.285-.326-.193-.582-.473-.767-.84-.184-.369-.277-.815-.277-1.338v-4.167h1.543v3.929c0 .414.114.744.341.988s.526.367.895.367c.227 0 .447-.056.66-.167.213-.11.388-.275.525-.494.139-.221.208-.498.208-.831zm3.129 5.208v-9h1.517v1.082h.09c.079-.159.192-.328.336-.507.145-.182.341-.337.588-.465.248-.13.563-.196.947-.196.505 0 .961.13 1.367.388.41.256.733.635.972 1.138.241.5.362 1.114.362 1.841 0 .719-.118 1.329-.353 1.832-.236.503-.557.887-.964 1.151-.406.264-.866.396-1.38.396-.375 0-.686-.062-.933-.187-.248-.125-.446-.276-.597-.452-.148-.179-.263-.348-.345-.507h-.064v3.486zm1.513-5.728c0 .424.06.794.179 1.112.122.319.297.567.524.746.23.176.509.264.835.264.341 0 .627-.09.857-.272.23-.185.403-.436.52-.755.119-.321.179-.686.179-1.095 0-.406-.058-.767-.175-1.082-.116-.315-.29-.563-.52-.742s-.517-.268-.861-.268c-.329 0-.609.087-.839.26s-.405.416-.524.729c-.117.312-.175.68-.175 1.103z" fill="#18202b"/><rect fill="#9aaec6" height="28" rx="3" width="100" x="397" y="103"/><path clip-rule="evenodd" d="m410.692 113.657c.256-.257.672-.257.928 0l4.603 4.602v-3.674c0-.363.294-.657.656-.657.363 0 .657.294.657.657v5.259c0 .362-.294.656-.657.656h-5.259c-.362 0-.656-.294-.656-.656 0-.363.294-.657.656-.657h3.675l-4.603-4.602c-.256-.257-.256-.672 0-.928z" fill="#18202b" fill-rule="evenodd"/><path d="m429.477 113.598v-1.325h6.963v1.325h-2.697v7.402h-1.568v-7.402zm10.186 7.53c-.656 0-1.223-.137-1.7-.409-.475-.276-.84-.665-1.095-1.168-.256-.506-.384-1.101-.384-1.785 0-.674.128-1.265.384-1.773.258-.511.619-.909 1.082-1.193.463-.287 1.007-.431 1.632-.431.403 0 .784.066 1.142.196.361.128.679.327.955.597.278.27.497.614.656 1.031.159.415.239.909.239 1.483v.473h-5.366v-1.04h3.887c-.003-.295-.067-.558-.192-.788-.125-.233-.3-.416-.524-.55-.222-.133-.48-.2-.776-.2-.315 0-.592.077-.831.23-.238.151-.424.35-.558.597-.131.244-.197.513-.2.805v.908c0 .38.069.707.209.98.139.27.333.477.583.622.25.142.543.213.878.213.225 0 .428-.031.61-.094.181-.065.339-.16.473-.285.133-.125.234-.28.302-.465l1.441.162c-.091.381-.265.713-.52.997-.253.282-.577.5-.972.657-.395.153-.846.23-1.355.23zm6.099.004c-.415 0-.788-.074-1.121-.221-.329-.151-.591-.373-.784-.665-.19-.293-.285-.654-.285-1.083 0-.369.068-.674.204-.916.137-.241.323-.435.559-.579.235-.145.501-.255.796-.329.299-.076.607-.132.925-.166.384-.039.695-.075.933-.106.239-.034.412-.085.52-.154.111-.071.166-.18.166-.328v-.025c0-.321-.095-.57-.285-.746s-.465-.264-.823-.264c-.377 0-.677.082-.899.247-.218.165-.366.359-.443.584l-1.44-.205c.113-.398.301-.73.562-.997.262-.27.581-.472.959-.605.378-.136.796-.205 1.253-.205.315 0 .629.037.942.111.312.074.598.196.856.367.259.167.466.396.622.686.159.289.239.652.239 1.086v4.381h-1.483v-.899h-.051c-.094.182-.226.352-.396.511-.168.156-.38.283-.635.379-.253.094-.55.141-.891.141zm.401-1.133c.309 0 .578-.062.805-.184.227-.125.402-.289.524-.494.125-.205.188-.428.188-.669v-.771c-.049.039-.131.076-.247.11-.114.035-.242.064-.384.09s-.283.048-.422.068-.26.037-.362.051c-.23.032-.436.083-.618.154s-.325.17-.43.298c-.105.125-.158.287-.158.486 0 .284.104.498.311.643s.472.218.793.218zm4.606 1.001v-6.545h1.496v1.09h.068c.119-.377.324-.669.614-.873.292-.208.626-.311 1.001-.311.085 0 .181.004.286.013.108.005.197.015.268.029v1.419c-.065-.022-.169-.042-.311-.059-.139-.02-.274-.03-.405-.03-.281 0-.534.061-.758.183-.222.12-.397.286-.524.499-.128.213-.192.459-.192.737v3.848zm6.917.115c-.514 0-.974-.132-1.38-.396s-.728-.648-.963-1.151c-.236-.503-.354-1.113-.354-1.832 0-.727.119-1.341.358-1.841.241-.503.567-.882.976-1.138.409-.258.865-.388 1.368-.388.383 0 .699.066.946.196.247.128.443.283.588.465.145.179.257.348.336.507h.064v-3.264h1.547v8.727h-1.517v-1.031h-.094c-.079.159-.194.328-.345.507-.15.176-.349.327-.596.452s-.559.187-.934.187zm.431-1.266c.327 0 .605-.088.835-.264.23-.179.405-.427.524-.746.12-.318.179-.688.179-1.112 0-.423-.059-.791-.179-1.103-.116-.313-.29-.556-.52-.729-.227-.173-.507-.26-.839-.26-.344 0-.631.089-.861.268s-.403.427-.52.742c-.116.315-.175.676-.175 1.082 0 .409.059.774.175 1.095.119.319.294.57.524.755.233.182.519.272.857.272zm7.554 1.279c-.639 0-1.193-.141-1.662-.422s-.832-.675-1.091-1.18c-.255-.506-.383-1.097-.383-1.773s.128-1.269.383-1.777c.259-.509.622-.904 1.091-1.185s1.023-.422 1.662-.422 1.193.141 1.662.422.831.676 1.087 1.185c.258.508.388 1.101.388 1.777s-.13 1.267-.388 1.773c-.256.505-.618.899-1.087 1.18s-1.023.422-1.662.422zm.009-1.236c.346 0 .636-.095.869-.285.233-.194.406-.452.52-.776.116-.324.175-.685.175-1.082 0-.401-.059-.763-.175-1.087-.114-.327-.287-.587-.52-.78s-.523-.29-.869-.29c-.355 0-.651.097-.887.29-.233.193-.407.453-.524.78-.113.324-.17.686-.17 1.087 0 .397.057.758.17 1.082.117.324.291.582.524.776.236.19.532.285.887.285zm5.6 1.108-1.849-6.545h1.572l1.151 4.602h.059l1.177-4.602h1.555l1.176 4.576h.064l1.134-4.576h1.576l-1.853 6.545h-1.607l-1.227-4.423h-.09l-1.227 4.423zm10.235-3.835v3.835h-1.543v-6.545h1.475v1.112h.076c.151-.367.391-.658.721-.874.332-.216.743-.324 1.231-.324.452 0 .845.097 1.181.29.338.193.599.473.784.84.187.366.279.811.277 1.333v4.168h-1.543v-3.929c0-.437-.114-.78-.341-1.027-.224-.247-.535-.371-.933-.371-.27 0-.51.06-.72.179-.208.117-.371.286-.49.507-.117.222-.175.49-.175.806z" fill="#18202b"/><g clip-rule="evenodd" fill-rule="evenodd"><path d="m224.25 151.5c.414 0 .75-.336.75-.75v-9c0-.414-.336-.75-.75-.75h-9c-.414 0-.75.336-.75.75s.336.75.75.75h7.189l-10.219 10.22c-.293.293-.293.767 0 1.06s.767.293 1.06 0l10.22-10.219v7.189c0 .414.336.75.75.75z" fill="#9aaec6"/><path d="m391.25 151.5c.414 0 .75-.336.75-.75v-9c0-.414-.336-.75-.75-.75h-9c-.414 0-.75.336-.75.75s.336.75.75.75h7.189l-10.219 10.22c-.293.293-.293.767 0 1.06s.767.293 1.06 0l10.22-10.219v7.189c0 .414.336.75.75.75z" fill="#9aaec6"/><path d="m515.25 143.5c.414 0 .75.336.75.75v9c0 .414-.336.75-.75.75h-9c-.414 0-.75-.336-.75-.75s.336-.75.75-.75h7.189l-10.219-10.22c-.293-.293-.293-.767 0-1.06s.767-.293 1.06 0l10.22 10.219v-7.189c0-.414.336-.75.75-.75z" fill="#9aaec6"/><path d="m348.25 143.5c.414 0 .75.336.75.75v9c0 .414-.336.75-.75.75h-9c-.414 0-.75-.336-.75-.75s.336-.75.75-.75h7.189l-10.219-10.22c-.293-.293-.293-.767 0-1.06s.767-.293 1.06 0l10.22 10.219v-7.189c0-.414.336-.75.75-.75z" fill="#9aaec6"/><path d="m627.75 204.5c-.414 0-.75.336-.75.75v9c0 .414.336.75.75.75h9c.414 0 .75-.336.75-.75s-.336-.75-.75-.75h-7.189l10.219-10.22c.293-.293.293-.767 0-1.06s-.767-.293-1.06 0l-10.22 10.219v-7.189c0-.414-.336-.75-.75-.75z" fill="#0075ff"/><path d="m212.75 212.5c-.414 0-.75-.336-.75-.75v-9c0-.414.336-.75.75-.75h9c.414 0 .75.336.75.75s-.336.75-.75.75h-7.189l10.219 10.22c.293.293.293.767 0 1.06s-.767.293-1.06 0l-10.22-10.219v7.189c0 .414-.336.75-.75.75z" fill="#0075ff"/></g><rect fill="#ffbd00" height="16" rx="8" width="16" x="728" y="155"/><path d="m733.978 166.5 3.093-6.122v-.05h-3.59v-1.101h4.954v1.126l-3.09 6.147z" fill="#18202b"/><rect fill="#ffbd00" height="16" rx="8" width="16" x="604" y="155"/><path d="m612.011 166.599c-.474 0-.898-.088-1.272-.266-.374-.18-.671-.426-.891-.739-.218-.312-.334-.67-.348-1.072h1.278c.024.298.153.542.387.732.235.187.517.28.846.28.258 0 .487-.059.689-.177.201-.119.359-.283.475-.494s.173-.451.171-.721c.002-.275-.056-.518-.174-.731-.118-.214-.281-.38-.487-.501-.206-.123-.442-.185-.71-.185-.218-.002-.432.038-.643.121-.21.083-.377.192-.5.327l-1.19-.196.38-3.75h4.219v1.101h-3.129l-.209 1.928h.042c.135-.158.326-.29.572-.394.246-.106.516-.16.81-.16.44 0 .833.105 1.179.313.345.206.618.49.816.852.199.362.299.777.299 1.243 0 .481-.112.909-.334 1.286-.22.374-.527.668-.92.884-.39.213-.843.319-1.356.319z" fill="#18202b"/><rect fill="#ffbd00" height="16" rx="8" width="16" x="400" y="94"/><path d="m405.185 104.151v-1.048l3.086-4.8757h.873v1.4915h-.532l-2.078 3.2922v.056h4.308v1.084zm3.469 1.349v-1.669l.015-.469v-5.1347h1.242v7.2727z" fill="#18202b"/><rect fill="#ffbd00" height="16" rx="8" width="16" x="233" y="94"/><path d="m238.541 105.5v-.952l2.525-2.475c.241-.244.442-.46.603-.65.161-.189.282-.373.363-.55.08-.178.12-.367.12-.568 0-.23-.052-.4264-.156-.5898-.104-.1657-.247-.2936-.43-.3835-.182-.09-.389-.135-.621-.135-.239 0-.449.0497-.629.1492-.18.097-.319.2355-.419.4155-.097.1799-.145.3946-.145.6426h-1.254c0-.4615.106-.8628.316-1.2037.211-.3409.501-.6049.87-.7919.372-.187.798-.2806 1.279-.2806.487 0 .916.0912 1.285.2735.37.1823.656.432.86.7493.206.3172.309.6794.309 1.0864 0 .272-.053.54-.157.803s-.287.554-.55.873c-.261.32-.626.707-1.097 1.162l-1.254 1.274v.05h3.168v1.101z" fill="#18202b"/><rect fill="#ffbd00" height="16" rx="8" width="16" x="301" y="155"/><path d="m309 166.599c-.512 0-.966-.087-1.364-.262-.395-.176-.708-.419-.938-.732-.229-.312-.351-.673-.365-1.083h1.335c.012.197.077.368.195.515.119.144.276.257.472.337.197.081.417.121.661.121.26 0 .491-.045.692-.135.202-.092.359-.22.473-.383.113-.164.169-.352.167-.565.002-.22-.055-.414-.171-.582-.116-.169-.284-.3-.504-.395-.218-.094-.481-.142-.788-.142h-.643v-1.015h.643c.253 0 .474-.044.664-.132.191-.087.342-.21.451-.369.109-.161.162-.347.159-.558.003-.206-.043-.384-.138-.536-.092-.154-.224-.273-.394-.358-.168-.086-.366-.128-.593-.128-.223 0-.429.04-.618.12-.19.081-.342.196-.458.345-.116.147-.178.322-.185.526h-1.268c.01-.408.127-.765.352-1.073.227-.31.53-.552.909-.724.379-.176.804-.263 1.275-.263.485 0 .907.091 1.264.273.36.18.638.423.835.728.196.306.294.643.294 1.012.003.41-.118.753-.362 1.03-.241.277-.559.458-.952.543v.057c.512.071.904.261 1.176.568.274.306.411.686.408 1.14 0 .408-.116.772-.348 1.094-.229.32-.547.571-.952.753-.402.182-.864.273-1.384.273z" fill="#18202b"/><rect fill="#ffbd00" height="16" rx="8" width="16" x="53" y="155"/><path d="m62.2021 159.227v7.273h-1.3175v-5.991h-.0426l-1.701 1.087v-1.208l1.8075-1.161z" fill="#18202b"/><rect fill="#ffbd00" height="16" rx="8" width="16" x="228" y="216"/><path d="m236.067 227.599c-.348-.002-.687-.062-1.019-.181-.331-.12-.629-.316-.895-.586-.265-.272-.475-.633-.632-1.083-.156-.452-.233-1.012-.231-1.679 0-.623.067-1.178.199-1.666.133-.488.323-.9.572-1.236.249-.338.548-.596.899-.774.352-.177.746-.266 1.182-.266.457 0 .862.09 1.215.27.355.18.641.426.859.738.218.31.353.661.405 1.052h-1.296c-.067-.28-.203-.502-.409-.668-.203-.168-.461-.252-.774-.252-.504 0-.892.219-1.165.657-.27.438-.406 1.039-.408 1.804h.05c.116-.209.266-.387.451-.537.184-.149.393-.263.625-.344.234-.083.481-.124.742-.124.426 0 .808.102 1.147.305.341.204.611.484.809.842.199.355.298.762.295 1.221.003.479-.106.908-.326 1.289-.221.379-.527.677-.92.895s-.851.326-1.375.323zm-.007-1.065c.258 0 .489-.063.693-.188.203-.126.364-.295.483-.508.118-.213.176-.452.174-.717.002-.261-.055-.496-.171-.707-.113-.211-.271-.378-.472-.501s-.431-.184-.689-.184c-.192 0-.37.036-.536.11-.166.073-.31.175-.433.305-.123.128-.221.277-.292.448-.068.168-.104.348-.106.539.002.254.061.487.177.7s.276.383.48.511c.203.128.434.192.692.192z" fill="#18202b"/><rect height="362" rx="2.5" stroke="#edf0f3" width="853" x=".5" y=".5"/></svg>