<svg width="69" height="92" viewBox="0 0 69 92" fill="none" xmlns="http://www.w3.org/2000/svg">
<path d="M42.6432 21.8811C50.6 21.8811 56.982 24.5333 61.7892 29.8378C66.5964 35.0595 69 42.2703 69 51.4703V92H47.8649V54.3297C47.8649 49.6883 46.6631 46.0829 44.2595 43.5135C41.8559 40.9441 38.6234 39.6595 34.5622 39.6595C30.5009 39.6595 27.2685 40.9441 24.8649 43.5135C22.4613 46.0829 21.2595 49.6883 21.2595 54.3297V92H0V0H21.2595V31.9513C23.4144 28.8847 26.3568 26.4396 30.0865 24.6162C33.8162 22.7928 38.0018 21.8811 42.6432 21.8811Z" fill="url(#paint0_linear)"/>
<defs>
<linearGradient id="paint0_linear" x1="76.3598" y1="48.2328" x2="-8.00318" y2="48.2327" gradientUnits="userSpaceOnUse">
<stop stop-color="#FF0000"/>
<stop offset="1" stop-color="#FF619A"/>
</linearGradient>
</defs>
</svg>
