<svg viewBox="0 0 128 128" xmlns="http://www.w3.org/2000/svg" xmlns:xlink="http://www.w3.org/1999/xlink"><linearGradient id="a" gradientTransform="matrix(1 0 0 -1 -47.5 2517)" gradientUnits="userSpaceOnUse" x1="157.08" x2="131.682" y1="2382.05" y2="2426.892"><stop offset="0" stop-color="#fb7655"/><stop offset=".41" stop-color="#e42b1e"/><stop offset=".99" stop-color="#900"/><stop offset="1" stop-color="#900"/></linearGradient><linearGradient id="b"><stop offset="0" stop-color="#871101"/><stop offset=".99" stop-color="#911209"/><stop offset="1" stop-color="#911209"/></linearGradient><linearGradient id="c" gradientTransform="matrix(1 0 0 -1 -47.5 2517)" gradientUnits="userSpaceOnUse" x1="169.731" x2="136.998" xlink:href="#b" y1="2419.72" y2="2441.685"/><linearGradient id="d" gradientTransform="matrix(1 0 0 -1 -47.5 2517)" gradientUnits="userSpaceOnUse" x1="143.542" x2="110.81" xlink:href="#b" y1="2380.69" y2="2402.655"/><linearGradient id="e" gradientTransform="matrix(1 0 0 -1 -47.5 2517)" gradientUnits="userSpaceOnUse" x1="74.817" x2="79.891" y1="2435.622" y2="2402.644"><stop offset="0" stop-color="#fff"/><stop offset=".23" stop-color="#e57252"/><stop offset=".46" stop-color="#de3b20"/><stop offset=".99" stop-color="#a60003"/><stop offset="1" stop-color="#a60003"/></linearGradient><linearGradient id="f" gradientTransform="matrix(1 0 0 -1 -47.5 2517)" gradientUnits="userSpaceOnUse" x1="109.719" x2="111.589" y1="2466.413" y2="2432.757"><stop offset="0" stop-color="#fff"/><stop offset=".23" stop-color="#e4714e"/><stop offset=".56" stop-color="#be1a0d"/><stop offset=".99" stop-color="#a80d00"/><stop offset="1" stop-color="#a80d00"/></linearGradient><linearGradient id="g" gradientTransform="matrix(1 0 0 -1 -47.5 2517)" gradientUnits="userSpaceOnUse" x1="140.691" x2="146.289" y1="2497.523" y2="2473.401"><stop offset="0" stop-color="#fff"/><stop offset=".18" stop-color="#e46342"/><stop offset=".4" stop-color="#c82410"/><stop offset=".99" stop-color="#a80d00"/><stop offset="1" stop-color="#a80d00"/></linearGradient><linearGradient id="h" gradientTransform="matrix(1 0 0 -1 -47.5 2517)" gradientUnits="userSpaceOnUse" x1="123.6" x2="147.719" y1="2506.018" y2="2518.077"><stop offset="0" stop-color="#fff"/><stop offset=".54" stop-color="#c81f11"/><stop offset=".99" stop-color="#bf0905"/><stop offset="1" stop-color="#bf0905"/></linearGradient><linearGradient id="i" gradientTransform="matrix(1 0 0 -1 -47.5 2517)" gradientUnits="userSpaceOnUse" x1="53.674" x2="55.66" y1="2444.028" y2="2424.153"><stop offset="0" stop-color="#fff"/><stop offset=".31" stop-color="#de4024"/><stop offset=".99" stop-color="#bf190b"/><stop offset="1" stop-color="#bf190b"/></linearGradient><linearGradient id="j" gradientTransform="matrix(1 0 0 -1 -47.5 2517)" gradientUnits="userSpaceOnUse" x1="40.026" x2="133.345" y1="2418.781" y2="2514.739"><stop offset="0" stop-color="#bd0012"/><stop offset=".07" stop-color="#fff"/><stop offset=".17" stop-color="#fff"/><stop offset=".27" stop-color="#c82f1c"/><stop offset=".33" stop-color="#820c01"/><stop offset=".46" stop-color="#a31601"/><stop offset=".72" stop-color="#b31301"/><stop offset=".99" stop-color="#e82609"/><stop offset="1" stop-color="#e82609"/></linearGradient><linearGradient id="k" gradientTransform="matrix(1 0 0 -1 -47.5 2517)" gradientUnits="userSpaceOnUse" x1="111.507" x2="83.398" y1="2409.102" y2="2416.039"><stop offset="0" stop-color="#8c0c01"/><stop offset=".54" stop-color="#990c00"/><stop offset=".99" stop-color="#a80d0e"/><stop offset="1" stop-color="#a80d0e"/></linearGradient><linearGradient id="l" gradientTransform="matrix(1 0 0 -1 -47.5 2517)" gradientUnits="userSpaceOnUse" x1="159.785" x2="134.814" y1="2442.837" y2="2465.217"><stop offset="0" stop-color="#7e110b"/><stop offset=".99" stop-color="#9e0c00"/><stop offset="1" stop-color="#9e0c00"/></linearGradient><linearGradient id="m" gradientTransform="matrix(1 0 0 -1 -47.5 2517)" gradientUnits="userSpaceOnUse" x1="168.959" x2="156.521" y1="2483.901" y2="2497.199"><stop offset="0" stop-color="#79130d"/><stop offset=".99" stop-color="#9e120b"/><stop offset="1" stop-color="#9e120b"/></linearGradient><radialGradient id="n" cx="138.703" cy="2464.789" gradientTransform="matrix(1 0 0 -1 -47.5 2517)" gradientUnits="userSpaceOnUse" r="30.601"><stop offset="0" stop-color="#a80d00"/><stop offset=".99" stop-color="#7e0e08"/><stop offset="1" stop-color="#7e0e08"/></radialGradient><radialGradient id="o" cx="96.325" cy="2424.465" gradientTransform="matrix(1 0 0 -1 -47.5 2517)" gradientUnits="userSpaceOnUse" r="40.679"><stop offset="0" stop-color="#a30c00"/><stop offset=".99" stop-color="#800e08"/><stop offset="1" stop-color="#800e08"/></radialGradient><linearGradient id="p" gradientTransform="matrix(1 0 0 -1 -47.5 2517)" gradientUnits="userSpaceOnUse" x1="67.509" x2="57.373" y1="2393.115" y2="2427.506"><stop offset="0" stop-color="#8b2114"/><stop offset=".43" stop-color="#9e100a"/><stop offset=".99" stop-color="#b3100c"/><stop offset="1" stop-color="#b3100c"/></linearGradient><linearGradient id="q" gradientTransform="matrix(1 0 0 -1 -47.5 2517)" gradientUnits="userSpaceOnUse" x1="145.272" x2="167.996" y1="2507.076" y2="2497.045"><stop offset="0" stop-color="#b31000"/><stop offset=".44" stop-color="#910f08"/><stop offset=".99" stop-color="#791c12"/><stop offset="1" stop-color="#791c12"/></linearGradient><path d="m97.078 83.214-68.738 40.817 89.003-6.04 6.855-89.745z" fill="url(#a)"/><path d="m117.488 117.93-7.649-52.799-20.837 27.514z" fill="url(#c)"/><path d="m117.592 117.93-56.044-4.399-32.91 10.385z" fill="url(#d)"/><path d="m28.717 123.928 14.001-45.867-30.81 6.588z" fill="url(#e)"/><path d="m88.996 92.797-12.882-50.46-36.866 34.558z" fill="url(#f)"/><path d="m121.275 43.047-34.849-28.462-9.704 31.373z" fill="url(#g)"/><path d="m104.978 4.437-20.497 11.327-12.93-11.479z" fill="url(#h)"/><path d="m3.802 100.034 8.586-15.659-6.946-18.655z" fill="url(#i)"/><path d="m4.981 65.131 6.987 19.821 30.365-6.812 34.667-32.218 9.783-31.075-15.403-10.878-26.19 9.802c-8.252 7.675-24.263 22.86-24.84 23.146-.573.291-10.575 19.195-15.369 28.214z" fill="#fff"/><path d="m29.519 29.521c17.882-17.73 40.937-28.207 49.785-19.28 8.843 8.926-.534 30.62-18.418 48.345s-40.653 28.779-49.493 19.852c-8.849-8.92.242-31.191 18.126-48.917z" fill="url(#j)"/><path d="m28.717 123.909 13.89-46.012 46.135 14.82c-16.68 15.642-35.233 28.865-60.025 31.192z" fill="url(#k)"/><path d="m77.062 45.831 11.844 46.911c13.934-14.65 26.439-30.401 32.563-49.883z" fill="url(#l)"/><path d="m121.348 43.097c4.74-14.305 5.833-34.825-16.517-38.635l-18.339 10.13z" fill="url(#m)"/><path d="m3.802 99.828c.656 23.608 17.689 23.959 24.945 24.167l-16.759-39.14z" fill="#9e1209"/><path d="m77.128 45.904c10.708 6.581 32.286 19.798 32.723 20.041.68.383 9.304-14.542 11.261-22.976z" fill="url(#n)"/><path d="m42.589 77.897 18.57 35.828c10.98-5.955 19.579-13.211 27.454-20.983z" fill="url(#o)"/><path d="m11.914 84.904-2.631 31.331c4.964 6.781 11.794 7.371 18.96 6.842-5.184-12.9-15.538-38.696-16.329-38.173z" fill="url(#p)"/><path d="m86.384 14.67 36.891 5.177c-1.969-8.343-8.015-13.727-18.32-15.41z" fill="url(#q)"/></svg>