<svg width="73" height="20" viewBox="0 0 73 20" fill="none" xmlns="http://www.w3.org/2000/svg">
<g clip-path="url(#clip0)">
<path d="M9.26398 4.98069H7.58147V14.9428H9.26398V4.98069ZM34.3718 13.2552H32.6886V14.9414H34.3718V13.2552ZM9.26398 0.00137931H7.58147V1.6869H9.26398V0.00137931ZM1.67058 14.9428H3.35379V6.66621H6.30327V4.98069H3.35379V3.85793C3.35379 2.08276 3.73072 1.68552 5.82386 1.68552H6.30327V0H5.63504C2.66239 0 1.67128 1.33931 1.67128 3.69862V4.97655H0V6.66621H1.67058V14.9421V14.9428ZM12.6487 4.98069H10.9458V14.9428H12.6487V4.98069ZM15.6578 6.3269C17.3951 6.3269 18.4255 7.46276 18.4255 9.36483V14.9414H20.1283V8.98138C20.1283 7.73448 19.7605 6.67931 19.0649 5.93035C18.3686 5.18138 17.3291 4.75517 16.0979 4.75517C14.9847 4.75517 13.976 5.37586 13.2846 6.21448V7.44276C13.8167 6.74552 14.6512 6.3269 15.6578 6.3269ZM23.52 4.98069H21.8172V14.9428H23.52V4.98069ZM26.5327 6.3269C28.2692 6.3269 29.2997 7.46276 29.2997 9.36483V14.9414H31.0025V8.98138C31.0025 7.73448 30.6347 6.67931 29.9391 5.93035C29.2435 5.18138 28.2033 4.75517 26.9728 4.75517C25.8588 4.75517 24.8509 5.37586 24.1588 6.21448V7.44276C24.6908 6.74552 25.5254 6.3269 26.5327 6.3269ZM61.1375 15.1621H61.8099V13.4724H61.3319C59.2374 13.4724 58.8612 13.0759 58.8612 11.3V6.66621H61.8099V4.98069H58.8548V0H57.1737V11.4593C57.1737 13.8228 58.1649 15.1621 61.1382 15.1621H61.1375ZM55.4905 4.98069H53.7877V14.9428H55.4905V4.98069ZM50.3349 15.1621C51.4489 15.1621 52.4568 14.5414 53.1489 13.709V12.4745C52.6155 13.1766 51.7823 13.5966 50.7764 13.5966C49.0392 13.5966 48.0087 12.4593 48.0087 10.5586V4.98069H46.2995V10.9366C46.2995 12.1848 46.6674 13.2386 47.3616 13.9876C48.0761 14.7566 49.1037 15.1621 50.3349 15.1621ZM67.7931 15.1621C68.4784 15.1708 69.1583 15.0425 69.7915 14.7848C70.4276 14.5256 71.004 14.1433 71.4867 13.6607C71.973 13.1744 72.3563 12.5983 72.6146 11.9655C72.8744 11.331 73.0049 10.6503 72.9986 9.96414V9.92759C72.9752 8.57102 72.4171 7.27626 71.4417 6.31586C70.9644 5.84599 70.3973 5.47346 69.7729 5.21971C69.1486 4.96595 68.4793 4.83597 67.8037 4.83724C67.128 4.84071 66.4596 4.97539 65.8371 5.23352C65.2145 5.49166 64.6501 5.86816 64.1761 6.34138C63.2073 7.30854 62.658 8.60719 62.6438 9.96414V10.0014C62.6368 10.6814 62.7653 11.3552 63.0215 11.9848C63.2764 12.6121 63.6552 13.1835 64.1361 13.6662C64.6134 14.1454 65.1839 14.5253 65.8137 14.7834C66.4406 15.0403 67.114 15.1691 67.7931 15.1621ZM64.367 9.92759C64.367 7.85172 65.839 6.28828 67.7931 6.28828C69.748 6.28828 71.274 7.90207 71.274 9.96414V10.0014C71.274 12.0655 69.7936 13.6221 67.8317 13.6221C65.8902 13.6221 64.3692 12.0152 64.3692 9.96414L64.367 9.92759ZM39.479 15.1614C41.1748 15.1614 42.2621 14.4034 42.9163 13.68V14.9421H44.6184V8.89379C44.6184 7.59448 44.2696 6.61172 43.5487 5.89103C42.8278 5.16966 41.676 4.75517 40.2644 4.75517C38.6998 4.75517 37.5852 5.16552 36.6144 5.61034L36.5091 5.65862L37.037 7.1L37.1598 7.04483C38.2253 6.55517 39.1083 6.34621 40.1142 6.34621C41.949 6.34621 42.9184 7.2331 42.9184 8.90897L42.9387 11.1662C42.9387 12.6193 41.5756 13.7103 39.7752 13.7103C38.1502 13.7103 37.4027 12.7497 37.4027 11.8607V11.8228C37.4027 10.6683 38.464 9.95103 40.1711 9.95103C40.88 9.95035 41.5868 10.0269 42.2796 10.1786V9.17931C41.8093 8.83448 41.1397 8.53379 40.0166 8.53379C37.2897 8.53379 35.6612 9.79241 35.6612 11.9007V11.9386C35.6598 14.049 37.581 15.1614 39.479 15.1614Z" fill="#272B3E"/>
<path d="M72.7796 18.3145H0V20.0014H72.7796V18.3145Z" fill="#2856C1"/>
</g>
<defs>
<clipPath id="clip0">
<rect width="73" height="20" fill="white"/>
</clipPath>
</defs>
</svg>
