<?xml version="1.0" encoding="utf-8"?>
<!-- Generator: Adobe Illustrator 26.0.3, SVG Export Plug-In . SVG Version: 6.00 Build 0)  -->
<svg version="1.1" id="Ebene_1" xmlns="http://www.w3.org/2000/svg" xmlns:xlink="http://www.w3.org/1999/xlink" x="0px" y="0px"
	 viewBox="0 0 52.7 52.7" style="enable-background:new 0 0 52.7 52.7;" xml:space="preserve">
<style type="text/css">
	.st0{fill-rule:evenodd;clip-rule:evenodd;fill:#1D8BE2;}
</style>
<path id="_100862776" class="st0" d="M11.3,35.3c3.4,0,6.1,2.7,6.1,6.1c0,3.4-2.7,6.1-6.1,6.1s-6.1-2.7-6.1-6.1
	C5.2,38.1,7.9,35.3,11.3,35.3z M38.2,38.2c6.5-6.5,6.5-17.1,0-23.6C31.6,8,21.1,8,14.6,14.6c-3.3,3.3-4.9,7.5-4.9,11.8H0
	c0-6.7,2.6-13.5,7.7-18.6C18-2.6,34.7-2.6,45,7.7s10.3,27,0,37.3c-5.1,5.1-11.9,7.7-18.6,7.7V43C30.6,43,34.9,41.4,38.2,38.2
	L38.2,38.2z"/>
</svg>
