<svg fill="none" height="26" viewBox="0 0 26 26" width="26" xmlns="http://www.w3.org/2000/svg"><g fill="#0075ff"><circle cx="13" cy="13" opacity=".15" r="13"/><path clip-rule="evenodd" d="m13 5c-2.7614 0-5 2.23858-5 5v2.9472c0 .0494-.01461.0976-.04199.1387l-1.70313 2.5547c-.1662.2493-.25488.5422-.25488.8418 0 .8382.67945 1.5176 1.51759 1.5176h10.96481c.8382 0 1.5176-.6794 1.5176-1.5176 0-.2996-.0887-.5925-.2549-.8418l-1.7031-2.5547c-.0274-.0411-.042-.0893-.042-.1387v-2.9472c0-2.76142-2.2386-5-5-5zm-3.5 5c0-1.933 1.567-3.5 3.5-3.5s3.5 1.567 3.5 3.5v2.9472c0 .3455.1023.6833.2939.9707l1.7031 2.5547c.002.0029.003.0063.003.0098 0 .0023-.0005.0049-.0005.0049l-.0006.0017s-.0019.0037-.0041.0058c-.0021.0022-.0058.0041-.0058.0041s-.0028.0011-.0066.0011h-10.96481c-.00381 0-.00662-.0011-.00662-.0011s-.00368-.0019-.00582-.0041c-.00213-.0021-.00408-.0058-.00408-.0058s-.00107-.0028-.00107-.0066c0-.0035.00103-.0069.00295-.0098l1.70314-2.5547c.19164-.2874.29391-.6252.29391-.9707z" fill-rule="evenodd"/><path d="m14.9846 19.2495c-.1228.9868-.9645 1.7505-1.9846 1.7505s-1.8618-.7637-1.9846-1.7505c-.017-.137.0965-.2495.2346-.2495h3.5c.1381 0 .2516.1125.2346.2495z"/></g></svg>