<svg fill="none" height="26" viewBox="0 0 26 26" width="26" xmlns="http://www.w3.org/2000/svg"><g fill="#0075ff"><path d="m26 13c0 7.1797-5.8203 13-13 13s-13-5.8203-13-13 5.8203-13 13-13 13 5.8203 13 13z" opacity=".15"/><path d="m6.35 13.22-.15.6h1.37l-.15-.6c-.08667-.3267-.17667-.67-.27-1.03-.09333-.3667-.17667-.7233-.25-1.07h-.04c-.08.3467-.16333.7033-.25 1.07-.08667.36-.17333.7033-.26 1.03zm-2.35 3.3 2.03-6.52h1.76l2.03 6.52h-1.56l-.39-1.55h-1.97l-.4 1.55z"/><path d="m10.6561 16.52v-6.52h2.31c.3533 0 .6833.0367.99.11.3133.0667.5833.1833.81.35.2333.16.4167.3767.55.65.1333.2667.2.5967.2.99 0 .38-.07.71-.21.99-.1333.28-.3167.51-.55.69s-.5033.3133-.81.4-.6333.13-.98.13h-.84v2.21zm1.47-3.38h.75c.8 0 1.2-.3467 1.2-1.04 0-.34-.1033-.58-.31-.72-.2-.14-.4967-.21-.89-.21h-.75z"/><path d="m16.6422 16.52v-1.24h1.52v-4.04h-1.52v-1.24h4.52v1.24h-1.52v4.04h1.52v1.24z"/></g></svg>