<svg fill="none" height="26" viewBox="0 0 26 26" width="26" xmlns="http://www.w3.org/2000/svg"><g fill="#0075ff"><circle cx="13" cy="13" opacity=".15" r="13"/><path d="m13 5c-4.4 0-8 3.6-8 8s3.6 8 8 8 8-3.6 8-8-3.6-8-8-8zm0 1.6c2.4 0 4.4 1.28 5.52 3.2h-5.52c-1.52 0-2.88 1.12-3.12 2.56l-1.92-3.28c1.2-1.52 2.96-2.48 5.04-2.48zm2.4 6.4c0 1.36-1.04 2.4-2.4 2.4s-2.4-1.04-2.4-2.4 1.04-2.4 2.4-2.4 2.4 1.04 2.4 2.4zm-8.8 0c0-1.2.32-2.24.88-3.2l2.8 4.8c.56.96 1.6 1.6 2.72 1.6.4 0 .72-.08 1.04-.16l-1.92 3.28c-3.12-.4-5.52-3.12-5.52-6.32zm6.4 6.4 2.8-4.8c.24-.48.48-1.04.48-1.6 0-.96-.4-1.84-1.12-2.4h3.84c.32.72.48 1.52.48 2.4-.08 3.52-2.96 6.4-6.48 6.4z"/></g></svg>