<svg fill="none" height="26" viewBox="0 0 26 26" width="26" xmlns="http://www.w3.org/2000/svg"><g fill="#0075ff"><circle cx="13" cy="13" opacity=".15" r="13"/><path clip-rule="evenodd" d="m8.5 11c-1.08579 0-2 .9142-2 2s.91421 2 2 2c.52518 0 1.122-.244 1.8251-.7274.5093-.3502 1.0248-.79 1.5611-1.2726-.5363-.4826-1.0518-.9224-1.5611-1.2726-.7031-.4834-1.29992-.7274-1.8251-.7274zm4.5.9844c-.5896-.5337-1.2039-1.066-1.8251-1.4931-.7969-.54783-1.70008-.9913-2.6749-.9913-1.91421 0-3.5 1.5858-3.5 3.5s1.58579 3.5 3.5 3.5c.97482 0 1.878-.4435 2.6749-.9913.6212-.4271 1.2355-.9594 1.8251-1.4931.5896.5337 1.2039 1.066 1.8251 1.4931.7969.5478 1.7001.9913 2.6749.9913 1.9142 0 3.5-1.5858 3.5-3.5s-1.5858-3.5-3.5-3.5c-.9748 0-1.878.44347-2.6749.9913-.6212.4271-1.2355.9594-1.8251 1.4931zm1.1138 1.0156c.5364.4826 1.0518.9224 1.5611 1.2726.7031.4834 1.2999.7274 1.8251.7274 1.0858 0 2-.9142 2-2s-.9142-2-2-2c-.5252 0-1.122.244-1.8251.7274-.5093.3502-1.0247.79-1.5611 1.2726z" fill-rule="evenodd"/></g></svg>