<svg fill="none" height="26" viewBox="0 0 26 26" width="26" xmlns="http://www.w3.org/2000/svg"><g fill="#0075ff"><circle cx="13" cy="13" opacity=".15" r="13"/><path d="m4 1.75c0-.966.784-1.75 1.75-1.75h5.586c.464 0 .909.184 1.237.513l2.914 2.914c.329.328.513.773.513 1.237v8.586a1.75 1.75 0 0 1 -1.75 1.75h-9a.75.75 0 0 1 0-1.5h9a.25.25 0 0 0 .25-.25v-7.25h-2.75a1.75 1.75 0 0 1 -1.75-1.75v-2.75h-4.25a.25.25 0 0 0 -.25.25v2.5a.75.75 0 0 1 -1.5 0zm7.5-.188v2.688c0 .138.112.25.25.25h2.688a.252.252 0 0 0 -.011-.013l-2.914-2.914a.272.272 0 0 0 -.013-.011zm-5.78 5.158a.75.75 0 0 0 0 1.06l1.47 1.47-1.47 1.47a.75.75 0 1 0 1.06 1.06l2-2a.75.75 0 0 0 0-1.06l-2-2a.75.75 0 0 0 -1.06 0zm-2.44 1.06a.75.75 0 0 0 -1.06-1.06l-2 2a.75.75 0 0 0 0 1.06l2 2a.75.75 0 0 0 1.06-1.06l-1.47-1.47z" fill-rule="evenodd" transform="translate(4 5.5)"/></g></svg>