<svg fill="none" height="26" viewBox="0 0 26 26" width="26" xmlns="http://www.w3.org/2000/svg"><g fill="#0075ff"><circle cx="13" cy="13" opacity=".15" r="13"/><path clip-rule="evenodd" d="m21 15.25v-7.5c0-.9665-.7835-1.75-1.75-1.75h-12.5c-.9665 0-1.75.7835-1.75 1.75v7.5c0 .9665.7835 1.75 1.75 1.75h3.727c-.0991 1.041-.52017 1.8724-1.29207 2.7568-.19339.2216-.23941.5358-.11771.8036.1217.2677.38867.4396.68278.4396h6.5c.2941 0 .5611-.1719.6828-.4396.1217-.2678.0757-.582-.1177-.8036-.7719-.8844-1.193-1.7158-1.2921-2.7568h3.727c.9665 0 1.75-.7835 1.75-1.75zm-1.5-7.5v7.5c0 .1381-.1119.25-.25.25h-12.5c-.13807 0-.25-.1119-.25-.25v-7.5c0-.13807.11193-.25.25-.25h12.5c.1381 0 .25.11193.25.25zm-5.4822 9.25h-2.0356c-.0683.9377-.3312 1.7473-.7649 2.5h3.5654c-.4337-.7527-.6966-1.5623-.7649-2.5z" fill-rule="evenodd"/></g></svg>