<svg fill="none" height="26" viewBox="0 0 26 26" width="26" xmlns="http://www.w3.org/2000/svg"><g fill="#0075ff"><circle cx="13" cy="13" opacity=".1" r="13"/><path clip-rule="evenodd" d="m6.75 6c-.46413 0-.90925.18437-1.23744.51256s-.51256.77331-.51256 1.23744v10.5c0 .966.784 1.75 1.75 1.75h12.5c.4641 0 .9092-.1844 1.2374-.5126s.5126-.7733.5126-1.2374v-8.5c0-.46413-.1844-.90925-.5126-1.23744s-.7733-.51256-1.2374-.51256h-6.5c-.0388 0-.0771-.00904-.1118-.02639-.0347-.01736-.0649-.04256-.0882-.07361l-.9-1.2c-.33-.44-.85-.7-1.4-.7z" fill-rule="evenodd"/></g></svg>