<svg fill="none" height="26" viewBox="0 0 26 26" width="26" xmlns="http://www.w3.org/2000/svg"><g fill="#0075ff"><circle cx="13" cy="13" opacity=".15" r="13"/><path clip-rule="evenodd" d="m21 8.75c0-.2702-.1453-.51952-.3805-.65265-.2351-.13313-.5237-.12949-.7554.00953l-3.8641 2.31852v-.6754c0-.9665-.7835-1.75-1.75-1.75h-7.5c-.9665 0-1.75.7835-1.75 1.75v6.5c0 .9665.7835 1.75 1.75 1.75h7.5c.9665 0 1.75-.7835 1.75-1.75v-.6754l3.8641 2.3185c.2317.139.5203.1427.7554.0095.2352-.1331.3805-.3824.3805-.6526zm-5 5.0754 3.5 2.1v-5.8508l-3.5 2.1zm-1.5-2.0754v-2c0-.13807-.1119-.25-.25-.25h-7.5c-.13807 0-.25.11193-.25.25v6.5c0 .1381.11193.25.25.25h7.5c.1381 0 .25-.1119.25-.25v-2z" fill-rule="evenodd"/></g></svg>