<svg fill="none" height="26" viewBox="0 0 26 26" width="26" xmlns="http://www.w3.org/2000/svg" xmlns:xlink="http://www.w3.org/1999/xlink"><clipPath id="a"><path d="m0 0h26v26h-26z"/></clipPath><g clip-path="url(#a)"><path d="m13 26c7.1797 0 13-5.8203 13-13s-5.8203-13-13-13-13 5.8203-13 13 5.8203 13 13 13z" fill="#0075ff" opacity=".15"/><rect height="13.3333" rx="2" stroke="#0075ff" stroke-width="1.5" width="13.3333" x="6.33337" y="6.33301"/><path clip-rule="evenodd" d="m11.75 9c.1917 0 .364.12989.4352.32797l2.0648 5.74553.8148-2.2673c.0711-.1981.2435-.3279.4352-.3279h2.0312c.2589 0 .4688.2336.4688.5217s-.2099.5217-.4688.5217h-1.7138l-1.1322 3.1503c-.0711.1981-.2435.328-.4352.328s-.364-.1299-.4352-.328l-2.0648-5.7454-.8148 2.2672c-.0712.1981-.2435.3279-.4352.3279h-2.03125c-.25888 0-.46875-.2336-.46875-.5217s.20987-.5217.46875-.5217h1.71385l1.1322-3.15033c.0712-.19808.2435-.32797.4352-.32797z" fill="#0075ff" fill-rule="evenodd"/></g></svg>