<svg fill="none" height="26" viewBox="0 0 26 26" width="26" xmlns="http://www.w3.org/2000/svg" xmlns:xlink="http://www.w3.org/1999/xlink"><clipPath id="a"><path d="m0 0h26v26h-26z"/></clipPath><g clip-path="url(#a)" fill="#0075ff"><path d="m13 26c7.1797 0 13-5.8203 13-13s-5.8203-13-13-13-13 5.8203-13 13 5.8203 13 13 13z" opacity=".15"/><path clip-rule="evenodd" d="m8.33337 6.33301c-1.10457 0-2 .89543-2 2v9.33329c0 1.1046.89543 2 2 2h9.33333c1.1046 0 2-.8954 2-2v-9.33329c0-1.10457-.8954-2-2-2zm3.85183 2.99496c-.0712-.19808-.2435-.32797-.4352-.32797s-.364.12989-.4352.32797l-1.1322 3.15033h-1.71385c-.25888 0-.46875.2336-.46875.5217s.20987.5217.46875.5217h2.03125c.1917 0 .364-.1298.4352-.3279l.8148-2.2672 2.0648 5.7454c.0712.1981.2435.328.4352.328s.3641-.1299.4352-.328l1.1322-3.1503h1.7138c.2589 0 .4688-.2336.4688-.5217s-.2099-.5217-.4688-.5217h-2.0312c-.1917 0-.3641.1298-.4352.3279l-.8148 2.2673z" fill-rule="evenodd"/></g></svg>