<svg width="26" height="26" viewBox="0 0 26 26" fill="none" xmlns="http://www.w3.org/2000/svg">
<g clip-path="url(#clip0_1167_3762)">
<path opacity="0.15" d="M13 26C20.1797 26 26 20.1797 26 13C26 5.8203 20.1797 0 13 0C5.8203 0 0 5.8203 0 13C0 20.1797 5.8203 26 13 26Z" fill="#0075FF"/>
<path d="M19.7092 10.8168V12.7282H20.2373C20.6591 12.7282 20.9544 12.657 21.1232 12.5144C21.2948 12.3718 21.3807 12.1246 21.3807 11.7725C21.3807 11.4205 21.2948 11.1732 21.1232 11.0306C20.9544 10.8881 20.6591 10.8168 20.2373 10.8168H19.7092ZM18.4219 9.73453H20.1893C21.0883 9.73453 21.7341 9.89454 22.1269 10.2146C22.5226 10.5346 22.7204 11.0539 22.7204 11.7725C22.7204 12.4911 22.5226 13.0104 22.1269 13.3305C21.7341 13.6505 21.0883 13.8105 20.1893 13.8105H19.7092V16.25H18.4219V9.73453Z" fill="#0075FF"/>
<path d="M16.1107 16.25H14.8233V10.8604H13.1693V9.73453H17.7646V10.8604H16.1107V16.25Z" fill="#0075FF"/>
<path d="M11.1724 16.25H9.88497V10.8604H8.23101V9.73453H12.8263V10.8604H11.1724V16.25Z" fill="#0075FF"/>
<path d="M3.4978 9.73453H4.78519V12.2177H6.39551V9.73453H7.68289V16.25H6.39551V13.3523H4.78519V16.25H3.4978V9.73453Z" fill="#0075FF"/>
</g>
<defs>
<clipPath id="clip0_1167_3762">
<rect width="26" height="26" fill="white"/>
</clipPath>
</defs>
</svg>
