<svg fill="none" height="26" viewBox="0 0 26 26" width="26" xmlns="http://www.w3.org/2000/svg"><g fill="#0075ff"><circle cx="13" cy="13" opacity=".15" r="13"/><path clip-rule="evenodd" d="m15.2763 8.08995c.0475-.05699.1179-.08995.1921-.08995h.7816c.1381 0 .25.11193.25.25v1.5 5.5 1.5c0 .1381-.1119.25-.25.25h-.7816c-.0742 0-.1446-.033-.1921-.09l-.9501-1.1401c-.1218-.1461-.2945-.2405-.4832-.2641l-3.124-.3905c-.1251-.0157-.219-.122-.219-.2481v-2.6172-2.1172c0-.1261.0939-.23245.219-.24809l3.124-.3905c.1887-.02359.3614-.11798.4832-.26407zm-6.2763 4.91005v1.8672c0 .8826.65719 1.627 1.5329 1.7365l2.8304.3538.7607.9128c.3325.399.825.6297 1.3444.6297h.7816c.9665 0 1.75-.7835 1.75-1.75v-.75h2.25c.4142 0 .75-.3358.75-.75s-.3358-.75-.75-.75h-2.25v-4h2.25c.4142 0 .75-.3358.75-.75 0-.41421-.3358-.75-.75-.75h-2.25v-.75c0-.9665-.7835-1.75-1.75-1.75h-.7816c-.5194 0-1.0119.23069-1.3444.62968l-.7607.91282-2.8304.3538c-.87571.10946-1.5329.85392-1.5329 1.7365v1.3672h-1.5c-1.38071 0-2.5 1.1193-2.5 2.5v5.25c0 .4142.33579.75.75.75s.75-.3358.75-.75v-5.25c0-.5523.44772-1 1-1z" fill-rule="evenodd"/></g></svg>