<svg height="180" width="180" xmlns="http://www.w3.org/2000/svg"><g transform="matrix(1.25 0 0 -1.25 0 180)"><path d="m107.96462 30.661159-12.506325-1.875855-16.882882-1.875855-10.942987-.31233-10.629344.31233-8.129205 2.501453-7.190902 7.815749-5.627564 15.944766-1.250445 3.43938-7.50342 2.500515-4.37712 7.191089-3.126299 10.317202 3.439567 9.066945 8.128079 2.813782 6.565493-3.12705 3.12705-6.877822 3.751709.625598 1.25007 1.562587-1.25007 7.19109-.313267 9.066944 1.875854 12.505383-.07325 7.14326 5.700817 9.11384 10.004685 7.19109 17.508479 7.50342 19.383396-2.81378 16.882691-12.19306 7.81669-12.50539 5.00196-9.06694 1.25026-22.510259-3.75171-19.384147-6.87782-17.195024-6.56549-9.066944" fill="#f0d6b7" fill-rule="evenodd"/><path d="m97.33415-23.425365-44.708563-1.875855v-7.503419l3.75171-26.261969-1.875855-2.189122-31.263748 10.630469-2.189122 3.75171-3.1263 35.327975-7.189777 21.2600013-1.5637124 5.0019667 25.0107734 17.195024 7.816687 3.12705 6.877634-8.441347 5.940082-5.315235 6.87876-2.188184 3.125925-.937928 3.75171-16.2570961 2.813782-3.4391923 7.191277 2.50126486-5.002905-9.69254216 27.200082-12.8177163z" fill="#335061" fill-rule="evenodd"/><path d="m23.237694 85.686548 8.128079 2.813782 6.565493-3.12705 3.12705-6.877822 3.751709.625598.937928 3.75171-1.875855 7.190151 1.875855 17.195963-1.563713 9.37927 5.627565 6.5655 12.193057 9.6916-3.439193 4.68964-17.195211-8.44135-7.190902-5.62756-4.064227-8.75368-6.252975-8.44135-1.875855-10.00487 1.251195-10.629532" fill="#6d6b6d" fill-rule="evenodd"/><path d="m36.055411 115.07463s4.689637 11.56746 23.448186 17.19502c18.758548 5.62757.937927 4.06498.937927 4.06498l-20.321136-7.81669-7.816687-7.81575-3.438442-6.25316z" fill="#dcd9d8" fill-rule="evenodd"/><path d="m26.676136 87.874733s-6.565492 21.885597 18.446032 25.011707l-.937928 3.75171-17.194836-4.06497-5.002905-16.2571 1.251195-10.629532z" fill="#dcd9d8" fill-rule="evenodd"/><path d="m36.680821 58.798982 4.093584 3.966495s1.847623-.214785 2.159765-2.40297c.312143-2.189123 1.25007-21.885599 14.693572-32.516068 1.226246-.969817-10.003934 1.564463-10.003934 1.564463l-10.00506 15.631498" fill="#f7e4cd" fill-rule="evenodd"/><path d="m94.208975 64.738876s.72877 9.476819 3.280871 8.74805c2.552104-.72877 2.552104-3.28087 2.552104-3.28087s-6.197828-4.00964-5.832975-5.46718" fill="#f7e4cd" fill-rule="evenodd"/><path d="m120.15674 99.442192s-5.15298-1.087996-5.62757-5.627565c-.47459-4.540507 5.62757-.937927 6.5655-.625598" fill="#f7e4cd"/><path d="m82.327123 99.128924s-6.87876-.937927-6.87876-5.314297c0-4.377307 7.816875-4.064977 10.00506-2.189123" fill="#f7e4cd"/><path d="m39.80712 78.807788s-11.880914 7.19109-13.130984.31233c-1.250445-6.877822-4.064977-11.880727 1.875855-19.070879l-4.064227 1.250258-3.75171 9.691604-1.25007 9.379274 7.190152 7.504358 8.12883-.625598 4.689637-3.75171z" fill="#f7e4cd" fill-rule="evenodd"/><path d="m45.434685 98.504264s5.315047 27.512226 32.202801 32.827456c22.136213 4.37544 33.764634-.93792 38.141944-5.93989 0 0-19.696476 23.44725-38.455212 16.2571-18.758549-7.19109-32.514193-20.32208-32.20205-28.76249.532367-14.376548.312517-14.382176.312517-14.382176" fill="#f7e4cd" fill-rule="evenodd"/><path d="m117.96855 122.26572s-9.066.31233-9.37927-7.81669c0 0-.00094-1.25026.62466-2.50051 0 0 7.19203 8.12901 11.5684 3.75171" fill="#f7e4cd" fill-rule="evenodd"/><path d="m78.267679 111.10157s-1.560805 12.47725-12.19859 5.22332c-6.87801-4.68964-6.252225-11.25513-5.002155-12.50539 1.250445-1.2512.910446-3.76953 1.862349-2.04093.951433 1.7286.638166 7.35616 4.077733 8.91875 3.439192 1.56353 9.076981 3.30995 11.260663.40425" fill="#f7e4cd" fill-rule="evenodd"/><path d="m48.873877 26.597119-29.387893-13.130984s12.193057-48.459897 5.939707-63.466736l-4.377119 1.562587-.312518 18.446407-8.127704 35.0154571-3.4395674 9.6925419 30.6383374 20.633466z" fill="#49728b" fill-rule="evenodd"/><path d="m51.895786-.20622086 4.169369-5.08713084v-18.7585493h-5.002905s-.62466 13.130985-.62466 14.6946973c0 1.5633374.62466 7.1909021.62466 7.1909021" fill="#49728b" fill-rule="evenodd"/><path d="m52.000177-26.865683-14.068911-.62466 4.064977-2.813782 10.003934-1.563337" fill="#49728b" fill-rule="evenodd"/><path d="m100.14793-23.738633 11.56746.312518 2.81378-28.763609-11.88072-1.562587z" fill="#335061" fill-rule="evenodd"/><path d="m103.27404-23.738633 17.5083.937928s7.19015 18.1331385 7.19015 19.0710659c0 .9379275 6.25316 26.2617811 6.25316 26.2617811l-14.06891 14.693571-2.81378 2.501452-7.50342-7.503419v-29.0757507z" fill="#335061" fill-rule="evenodd"/><path d="m111.08979-21.55026-10.94186-2.188373 1.56259-8.754614c4.06404-1.875855 10.9428 3.12705 10.9428 3.12705" fill="#49728b" fill-rule="evenodd"/><path d="m111.40306 33.161673 21.88466-16.257096.6256 7.50342-16.57036 15.319168z" fill="#49728b" fill-rule="evenodd"/><path d="m62.850122-85.332281-6.472825 26.265673-3.219342 19.380207-.532368 14.385181 29.295976 1.559586 18.226367.003-1.657316-32.830462 2.813786-25.324003-.31233-4.689637-23.760144-1.875855-14.381804 3.126309" fill="#fff" fill-rule="evenodd"/><path d="m96.082954-23.426115s-1.562587-32.515318 3.12705-55.650237c0 0-9.379274-5.940851-23.136231-7.503447l26.262347.937927 3.12611 1.875855-3.75171 51.27277-.93793 10.943737" fill="#dcd9d8" fill-rule="evenodd"/><path d="m115.06192-49.691085 12.19305 3.439192 23.13492 1.250445 3.43938 10.629438-6.25316 18.446313-7.19015.937927-10.00488-3.126299-9.59874-4.686636-5.09576.934926-3.97119-1.560336" fill="#fff" fill-rule="evenodd"/><path d="m114.8415-43.435109s8.12808 3.750959 9.37928 3.438442l-3.43844 17.195962 4.06404 1.562587s2.81378-16.256909 2.81378-18.132764c0 0 17.50735-.937927 19.07088-.937927 0 0 3.75171 7.190902 2.81378 14.694321l3.43938-10.004684.31233-5.627565-5.00197-7.503419-5.62756-1.250445-9.37928.312517-3.12611 4.063852-10.9428-1.562587-3.43938-1.251195" fill="#dcd9d8" fill-rule="evenodd"/><path d="m102.55559-21.241026-6.87782 17.5083856-7.19109 10.3172018s1.562587 4.3773076 3.75171 4.3773076h7.191089l6.877821-2.5014527-.62466-11.5676467z" fill="#fff"/><path d="m103.89964-15.297286s-8.754613 16.8819438-8.754613 19.3832087c0 0 1.562587 3.7517098 3.75171 2.8137823 2.189123-.9379274 6.878763-3.438442 6.878763-3.438442v5.9398945l-10.630473 2.1891225-7.190152-.937927 12.193055-28.763421 2.50052-.313268" fill="#dcd9d8" fill-rule="evenodd"/><path d="m65.664279 25.96777-8.661197.941679-8.129205 2.501453v-2.813783l3.971935-4.380121 12.505575-5.627565" fill="#fff"/><path d="m51.688785 25.03078s9.692542-4.064977 12.818842-3.12705l.311017-3.747958-8.752364 1.872103-5.315422 3.75171z" fill="#dcd9d8" fill-rule="evenodd"/><path d="m115.02815 9.8973211c-5.30492.1556959-10.09773.7859829-14.29401 1.9696479.28513 1.720159-.24855 3.408428.18008 4.64743 1.16959.842259 3.12986.829128 4.89786 1.027031-1.52883.75128-3.67668 1.048603-5.44092.614342-.0413 1.193982-.576827 1.934007-.90135 2.868182 2.98261 1.064548 10.02363 8.043666 13.9845 5.732613 1.88711-1.099251 2.68904-7.377737 2.83535-10.430691.12193-2.532404-.22979-5.087319-1.26151-6.4285549" fill="#d33833" fill-rule="evenodd"/><path d="m115.02815 9.8973211c-5.30492.1556959-10.09773.7859829-14.29401 1.9696479.28513 1.720159-.24855 3.408428.18008 4.64743 1.16959.842259 3.12986.829128 4.89786 1.027031-1.52883.75128-3.67668 1.048603-5.44092.614342-.0413 1.193982-.576827 1.934007-.90135 2.868182 2.98261 1.064548 10.02363 8.043666 13.9845 5.732613 1.88711-1.099251 2.68904-7.377737 2.83535-10.430691.12193-2.532404-.22979-5.087319-1.26151-6.4285549z" fill="none" stroke="#d33833" stroke-width="2"/><path d="m89.660027 18.569398c-.01407-.401433-.03095-.805679-.0469-1.210864-1.65638-1.087996-4.330411-1.074865-6.148114-1.989344 2.679658-.117241 4.789057-.762535 6.614264-1.672325-.04033-1.011086-.07879-2.021233-.118179-3.032319-3.036067-2.0784474-5.809519-5.173608-9.384148-7.122715-1.690145-.9217951-7.621786-3.29371981-9.41998-2.87456003-1.01737.23626392-1.109006 1.49880803-1.515691 2.68885043-.866457 2.5484426-2.861429 6.6049788-3.035414 10.4411016-.221633 4.845334-.710762 12.965909 4.510868 11.967955 4.212607-.803804 9.112152-2.744376 12.373608-4.526438 1.993095-1.089872 3.145808-2.436736 6.169686-2.669342" fill="#d33833" fill-rule="evenodd"/><path d="m89.660027 18.569398c-.01407-.401433-.03095-.805679-.0469-1.210864-1.65638-1.087996-4.330411-1.074865-6.148114-1.989344 2.679658-.117241 4.789057-.762535 6.614264-1.672325-.04033-1.011086-.07879-2.021233-.118179-3.032319-3.036067-2.0784474-5.809519-5.173608-9.384148-7.122715-1.690145-.9217951-7.621786-3.29371981-9.41998-2.87456003-1.01737.23626392-1.109006 1.49880803-1.515691 2.68885043-.866457 2.5484426-2.861429 6.6049788-3.035414 10.4411016-.221633 4.845334-.710762 12.965909 4.510868 11.967955 4.212607-.803804 9.112152-2.744376 12.373608-4.526438 1.993095-1.089872 3.145808-2.436736 6.169686-2.669342z" fill="none" stroke="#d33833" stroke-width="2"/><path d="m92.675464 12.788013c-.463336 2.639328-.998893 3.392484-.791611 5.695096 7.039146 4.693389 8.360687-8.061486.791611-5.695096" fill="#d33833" fill-rule="evenodd"/><path d="m92.675464 12.788013c-.463336 2.639328-.998893 3.392484-.791611 5.695096 7.039146 4.693389 8.360687-8.061486.791611-5.695096z" fill="none" stroke="#d33833" stroke-width="2"/><g fill-rule="evenodd"><path d="m102.86792 10.648601s-2.18912 3.12705-.6256 4.064978c1.56353.937927 3.12705-.000938 4.06498 1.562587s0 2.501452.31233 4.377307 1.87679 2.189123 3.43938 2.501452c1.56259.31233 5.94083.937928 6.56549-.625597l-1.87585 5.627565-3.75171 1.250257-11.880728-6.877822-.625598-3.43938v-6.877822" fill="#ef3d3a"/><path d="m70.040649.33130536c-.375546 4.87919234-.77304 9.75172564-1.215273 14.62613464-.661708 7.278317 1.748297 6.008363 8.05736 6.008363.963626 0 5.933235-1.148961 6.288709-1.875855 1.705152-3.482525-2.851299-2.708734 1.96402-5.334931 4.064978-2.216323 11.24575 1.345926 9.603439 6.272858-.919169 1.0955-4.789057.341406-6.176252 1.060796-2.442363 1.266202-4.884726 2.532404-7.32737 3.798606-3.107542 1.612298-10.289721 3.962744-13.602856 1.709842-8.394826-5.709164.529835-19.9741026 3.524544-25.92984803" fill="#ef3d3a"/><path d="m78.267679 111.10157c-8.521258 1.98465-12.755438-3.566-15.338396-9.323-2.306364.559-1.388602 3.69543-.806055 5.29366 1.525258 4.19441 7.671965 9.7779 12.694285 9.02099 2.161266-.32546 5.086005-2.30168 3.450166-4.99165" fill="#231f20"/><path d="m119.78626 101.39777c.13412-.006.27012-.0103.40424-.0159 1.92557-4.000265 3.59227-8.237821 6.0215-11.769118-1.62731-3.790165-12.32249-7.144193-12.15742-.338592 2.31293 1.011086 6.30569.206344 8.356 1.49787-1.18554 3.253671-2.89632 6.02337-2.62432 10.62578" fill="#231f20"/><path d="m82.630261 101.29366c1.827083-3.349338 2.421729-6.868442 5.01885-9.399908 1.169595-1.139582 3.444069-2.528653 2.316681-5.697909-.263558-.747529-2.189123-2.414226-3.300567-2.741562-4.060288-1.198672-13.52135-.247613-10.317389 4.814381 3.357874-.156634 7.871274-2.180681 10.381168.256992-1.927441 3.081092-5.363632 9.176682-4.098743 12.768006" fill="#231f20"/><path d="m118.26212 67.252522c-6.11341-3.927102-12.93026-8.197486-22.947328-7.207034-2.140351 1.860848-2.956347 6.001797-.876962 8.736794 1.082368-1.860848.402371-5.283346 3.418745-5.798268 5.683845-.972631 12.299045 3.476897 16.387465 5.031981 2.53522 4.274135-.21853 5.846102-2.50239 8.597043-4.67557 5.636006-10.94749 12.621689-10.71957 21.059285 1.88992 1.370312 2.05312-2.091579 2.32418-2.721866 2.44143-5.713854 8.58579-13.021246 13.07002-17.9116 1.10113-1.204299 2.91414-2.359826 3.1158-3.156126.58151-2.315743-1.51288-5.090132-1.26996-6.630209" fill="#231f20"/><path d="m37.66752 71.386906c-1.916185 1.093624-2.3723 5.910819-4.621919 6.047756-3.214933.195089-2.628729-6.24941-2.615879-10.018003-2.212946 2.009041-2.602092 8.194672-.976383 11.371433-1.852781.909789-2.680127-1.003583-3.707814-1.677953 1.320789 9.594998 14.03599 4.450466 11.921995-5.723233" fill="#231f20"/><path d="m122.15452 63.256951c-2.84567-5.416531-6.87125-11.381749-15.22162-11.555266-.16977 1.749235-.30014 4.411073.009 5.464365 6.38353.613405 10.3247 3.862386 15.21224 6.090901" fill="#231f20"/><path d="m82.148729 59.745351c5.325927-2.800652 15.114138-3.101726 22.353061-2.889755.3883-1.586035.37892-3.545365.39393-5.479372-9.305178-.464274-20.307066 1.838338-22.746991 8.369127" fill="#231f20"/><path d="m81.136424 54.522971c3.68296-9.247027 16.341228-8.182479 27.015776-7.927363-.4699-1.200547-1.48849-2.618693-2.75469-3.13174-3.42062-1.391884-12.855232-2.44799-17.603958.0741-3.011685 1.601042-4.94663 5.218628-6.596725 7.339282-.796864 1.024217-4.764766 3.640096-.0604 3.645724" fill="#231f20"/><path d="m117.81755 3.5158504c-4.32197-7.4023109-8.45729-15.0050574-13.58494-21.5342514 2.14973 6.320787 3.06983 16.8999519 3.39436 24.9650024 4.49736 2.1047092 8.34849-.4736534 10.19058-3.430751" fill="#81b0c4"/><path d="m141.0744-23.088743c-4.83877-.968691-8.23876-5.671459-12.95935-5.369634 2.59431 3.65726 7.14044 5.198931 12.95935 5.369634" fill="#231f20"/><path d="m143.20912-30.661381c-3.94399-.416534-8.57641-1.055169-12.57667-.726144 1.89368 2.892568 9.18981 1.89452 12.57667.726144" fill="#231f20"/><path d="m144.57568-37.190201c-4.43265-.09604-9.94203-.0077-14.1552.345814 2.49207 2.676751 11.28045.993266 14.1552-.345814" fill="#231f20"/><path d="m109.4775-55.056968c.63591-5.566787 2.84285-11.207201 2.56617-17.303729-2.45081-.826502-3.85864-1.549363-7.14232-1.544955-.23167 5.181299-.9248 13.102003-.71752 18.041129 1.61511-.106924 3.99651 1.153744 5.29367.807555" fill="#dcd9d8"/><path d="m102.33143 26.985421c-2.2257-1.452849-4.121256-3.266801-6.258793-4.818133-4.740285-.234482-7.327089.328274-10.809614 3.05014.05721.218537.407061.120993.420192.38924 5.074187-2.261343 11.524314.921045 16.648215 1.378753" fill="#f0d6b7"/><path d="m75.693819-7.6033732c1.394135 6.0411906 6.856812 9.1700228 11.817416 12.4968514 5.120146-6.4981489 8.234065-14.8548948 11.663128-22.9191952-8.101817 2.44227-16.379965 6.405013-23.480544 10.4223438" fill="#81b0c4"/><path d="m104.18383-55.864523c-.20728-4.939126.48585-12.85983.71752-18.041129 3.28368-.0044 4.69151.718453 7.14232 1.544955.27668 6.096528-1.93026 11.736942-2.56617 17.303729-1.29716.346189-3.67856-.914479-5.29367-.807555zm-51.130267 28.089801c2.1653-19.905634 5.301448-36.638822 11.053569-54.265659 12.766412-3.876276 28.156582-4.214079 39.440788-.716267-2.07188 9.948653-1.16678 22.060673-2.37765 32.677261-.9126 7.979699-.44739 16.008546-1.698584 24.149756-13.673106 2.844546-32.99957.66499-46.418123-1.845091zm49.651157 1.720159c-.11536-8.549021.38268-16.981927 1.03547-25.54164 3.28275.492787 5.51033.821812 8.56047 1.49046-.99045 8.240537-.86852 17.513169-2.886 24.802647-2.33169-.02232-4.38482.02711-6.70994-.751467zm16.6529 1.378003c-1.55789.357163-3.37185.01388-4.86034-.01501.6997-6.968895 2.39735-14.658868 2.99481-21.973952 2.342-.07288 3.5932 1.031721 5.5197 1.403234.10317 6.421145-.56088 15.267676-3.65417 20.585725zm25.21525-23.038218c4.88191 1.18554 7.95174 7.164828 6.58612 13.305345-.91635 4.126881-2.54835 11.897797-4.29477 14.537875-1.29059 1.952765-4.78999 4.509368-7.58408 2.71999-4.5452-2.910483-12.55228-3.755368-15.86692-7.278411 1.66201-5.533772 2.17787-13.134642 2.86349-20.1464 5.67822-.353974 12.66484 1.562587 17.3873-.471215-3.29681-1.067924-7.5747-1.076365-10.42318-2.632762 2.32793-1.124388 7.77823-.897222 11.33204-.03442zm-45.398507 29.689061c-3.429063 8.0643004-6.542982 16.4210463-11.663128 22.9191952-4.960604-3.3268286-10.423281-6.4556608-11.817416-12.4968514 7.100579-4.0173308 15.378727-7.9800738 23.480544-10.4223438zm8.452607 24.9723184c-.32453-8.0650505-1.24463-18.6442154-3.39436-24.9650024 5.12765 6.529194 9.26297 14.1319405 13.58494 21.5342514-1.84209 2.9570976-5.69322 5.5354602-10.19058 3.430751zm-9.581871 3.4046766c-1.942448.209158-3.591325-2.2332052-6.117163-1.1770989-.578701-.6396666-1.104879-1.3327949-1.694835-1.9574546 5.578792-6.72315769 8.11401-16.261786 12.422849-24.1626995 2.31199 7.5895216 2.04562 15.904436 2.55491 24.1880235-3.17676-.2016544-4.93912 2.8728715-7.165761 3.1092295zm-6.161246 8.131831c-.207282-2.302612.328275-3.055768.791611-5.695096 7.569076-2.36639 6.247535 10.388485-.791611 5.695096zm-8.393512 2.755631c-3.261456 1.782062-8.161001 3.722634-12.373608 4.526438-5.22163.998892-4.732501-7.122621-4.510868-11.967955.173985-3.8361228 2.168957-7.892659 3.035414-10.4411016.406685-1.1900424.498321-2.45258651 1.515691-2.68885043 1.798194-.41915978 7.729835 1.95276493 9.41998 2.87456003 3.574629 1.949107 6.348081 5.0442676 9.384152 7.122715.03939 1.011086.07785 2.021233.118179 3.032319-1.825207.90979-3.934606 1.555084-6.614264 1.672325 1.817703.914479 4.491734.901348 6.148114 1.989344.01595.405185.03283.809431.0469 1.210864-3.023878.232606-4.176591 1.57947-6.169686 2.669342zm-31.151947 5.658516c-2.706859-2.748127 7.592053-6.49421 10.871142-6.695864-.01829 1.738917.991014 3.378415.787671 4.625858-3.894556.683749-9.012826.232606-11.658813 2.070006zm33.344821-1.290588c-.01313-.268247-.362978-.170703-.420192-.38924 3.482525-2.721866 6.069329-3.284622 10.809614-3.05014 2.137537 1.551332 4.033093 3.365284 6.258793 4.818133-5.123901-.457708-11.574028-3.640096-16.648215-1.378753zm30.606445-9.280792c-.14631 3.052954-.94824 9.33144-2.83535 10.430691-3.96087 2.311991-11.00189-4.668065-13.9845-5.732613.324523-.934175.86008-1.6742.90135-2.868182 1.76424.434261 3.91209.136938 5.44092-.614342-1.768-.197903-3.72827-.184772-4.89786-1.027031-.42863-1.239002.10505-2.927271-.18008-4.64743 4.19628-1.183665 8.98909-1.813952 14.29401-1.9696479 1.03172 1.3412359 1.38344 3.8961509 1.26151 6.4285549zm-68.508281 7.913294c-.850043.605901-6.600289 8.087748-7.388054 7.777294-10.405086-4.103433-20.134301-11.198854-28.828419-17.909725 8.289309-17.7869493 11.635459-39.578755 12.226728-60.582421 9.495765-4.441274 17.836379-10.843754 30.721907-11.512309-1.491117 10.549808-2.852237 19.962097-3.698623 29.894561-3.237632 1.364778-7.882623-.0619-10.912504.423193-.0257 3.651258 4.627359 1.598885 5.01491 4.054285.292071 1.85719-2.560166 1.997879-1.631431 4.922337 2.368642-.861017 3.612522-2.762853 6.138642-3.476991 2.308239 5.049802-.03226 13.9846861.300418 18.2053595.06303.7924549.395711 4.3903446 2.170833 3.75902564 1.571028-.55872337-.08976-9.56864194.08244-13.56327514.156821-3.680333-.444484-7.241456 1.045976-9.551853 12.451362 1.694835 25.104191 2.790334 38.576393 3.159972-2.963851 1.271735-6.48483 2.475284-10.345152 4.651182-2.092704 1.179725-8.689335 3.634469-9.293173 5.6221243-.963532 3.1672872 2.527996 4.8544311 3.125175 7.569731-6.285146-3.4278434-7.511392 3.28565365-8.998195 8.0418837-1.347145 4.307901-2.113995 7.52593-2.44452 10.0105-5.41428 2.581176-11.203074 5.19518-15.863355 8.505126zm63.009211 6.872194c8.66927 4.203791 10.23185-15.711223 6.83374-22.1266463.52524-1.913372 2.33169-2.6458933 3.0689-4.3660522-4.83783-8.6663558-10.21121-16.7559795-15.14753-25.3203825 3.67199 2.285822 8.91688.408842 13.23791 2.119809 1.57947.62466 2.72281 4.240464 3.91866 7.133032 3.28931 7.958127 6.74276 17.9912307 8.27909 25.585629.34703 1.730476 1.29246 5.500945 1.08049 7.041021-.37798 2.757507-4.11938 4.802189-6.02243 6.507341-3.50597 3.14956-5.71386 5.921136-9.37083 8.866228-1.48287-2.189123-4.66526-3.659793-5.878-5.439979zm-82.835777 76.880036c-4.130914-4.5452-3.266239-13.061577-2.766136-19.120588 7.466747 4.69714 17.377263-.37142 17.283846-8.360686 3.564874.09473 1.331763 4.452342.686938 7.259559-2.107336 9.169178 3.550243 19.130905.256523 27.515975-6.395165-.48491-11.649059-3.09703-15.461171-7.29426zm29.557564 26.38015c-9.351793-2.65059-21.337193-9.44587-25.180069-17.84689 2.975668.43239 5.04136 1.93307 7.976791 2.11878 1.109381.0722 2.562793-.46521 3.837812-.14819 2.540845.63029 4.685229 6.32726 6.602071 8.44697 1.868539 2.07001 4.114406 2.95448 5.651388 4.84159.98745.47646 2.447428.44364 2.503516 1.9265-.427976.45771-.878651.80662-1.391509.66124zm48.681433-2.49301c-9.706609 5.47655-26.136378 9.59593-36.461646 4.44859-8.331422-4.15408-19.59321-11.02722-23.432804-19.73681 3.586822-8.40477-1.062484-16.10609-1.359244-24.639355-.157572-4.540506 2.137818-8.504188 2.313679-13.447065-1.227372-2.024986-4.977299-2.274474-7.573107-2.135661-.873773 4.372618-2.403439 9.287357-6.906148 9.780707-6.371341.69688-11.029839-4.576148-11.319283-10.086472-.342531-6.48014 4.977206-17.220347 12.517298-16.474695 2.912734.287944 3.628279 3.207712 6.80185 3.177698 1.720065-3.431876-2.653303-4.509555-3.103227-6.964111-.117241-.634039.362697-3.112043.641824-4.274135 1.369562-5.658517 4.422609-12.981854 7.427635-17.289755 3.813988-5.464365 11.307184-6.287865 19.368577-6.823422 1.439812 3.101726 6.743886 2.84661 10.199961 2.035303-4.141888 1.640435-7.992549 5.617247-11.183753 9.137289-3.665608 4.038715-7.378769 8.371002-7.566355 13.649658 6.927063-9.610005 12.649921-18.00258 25.246006-22.229819 9.531031-3.196456 20.662357 1.465043 27.985687 6.607699 3.03889 2.137537 4.85284 5.529082 7.01289 8.633622 8.08212 11.625611 11.85352 28.219423 11.0244 44.303003-.34141 6.633023-.3264 13.243531-2.5521 17.706191-2.32606 4.66619-10.1934 8.84091-14.79862 4.62023-.85352 4.5377 3.82955 7.34398 9.3305 5.71104-3.92241 5.062-8.03898 11.14446-13.61402 14.29027zm18.08418-149.662459c7.58502 3.77075 21.7571 10.1494066 26.5124-.01388 1.75486-3.74627 3.81361-10.079062 4.72246-13.946231 1.28402-5.455736-1.39188-16.923025-6.99975-18.753765-4.9532-1.6168-10.73271-1.518317-16.69886-.319834-.70251.584329-1.48474 1.602918-2.03155 2.664652-4.26007.165263-8.24907-.228667-11.61436-1.979871.3189-3.150498-1.81207-3.656135-3.80986-4.304993-1.48099-5.87227 2.96291-13.540952 1.8993-18.89558-.75878-3.814738-5.45217-4.404601-8.90187-5.11827-.11255-2.119904.15101-3.889482.38643-5.682902-.7888-2.906478-4.32666-4.561038-7.67881-4.966251-11.02909-1.32629-27.775128-1.922021-38.38365 1.892709-2.960287 7.2612-5.29235 16.092819-7.758067 24.384285-10.346465-1.104973-18.71456 4.464347-26.603374 8.113072-2.731339 1.266202-6.509779 1.963739-7.530151 4.137855-.989232 2.104896-.584422 6.139016-.829878 9.949721-.624659 9.732874-1.159559 19.120589-3.729762 29.086068-1.154026 4.4719436-3.165505 8.4178981-4.568738 12.7268306-1.2969664 3.9936012-3.5629991 8.9289754-4.1539872 12.9114154-.8763056 5.902377 4.6815712 6.230652 8.2354722 8.78838 5.493816 3.95524 9.806125 6.142487 15.756055 9.712239 1.762272 1.057044 7.076663 3.732951 7.681157 4.965388 1.201673 2.4433-2.06269 5.888308-2.935432 7.803556-1.380535 3.028568-2.100488 5.601302-2.298297 8.589539-4.991181.788797-8.77478 3.759213-11.060228 7.108552-3.780598 5.543152-6.40248 15.79845-3.131458 23.599193.256523.614342 1.535856 1.822393 1.724567 2.765948.372263 1.858034-.700538 4.328535-.767225 6.304748-.343656 10.138995 1.71547 18.874855 8.541049 21.932495 2.770919 11.03847 12.688376 14.70858 22.032103 20.19452 3.492748 2.05031 7.34294 3.36059 11.319284 4.82376 14.264188 5.24958 36.149505 4.261 47.98803-4.69245 5.01978-3.79673 13.04375-11.8132 15.91381-17.6171 7.58033-15.32292 7.04196-40.931149 1.73986-59.570581-.71283-2.50239-1.74643-6.180942-3.1899-9.186999-1.00639-2.099082-4.13438-6.299121-3.75452-8.152465.39112-1.916186 7.132-7.034456 8.57735-8.428216 2.60275-2.510832 7.5475-5.843288 7.94799-9.011607.43051-3.371849-1.48567-7.984577-2.45643-11.238247-3.24523-10.858292-6.41167-20.8952411-10.09116-30.575684" fill="#231f20"/><path d="m73.673992 57.379898c.411469.547749 2.673844 1.379691 5.839349-.144441 0 0-3.75171-.625598-3.439568-6.880636l-1.563337.313268s-1.615674 5.671647-.836444 6.711809" fill="#f7e4cd"/><path d="m101.08586 3.616959c0-.9492764-.77004-1.7190334-1.72016-1.7190334-.949182 0-1.719221.769757-1.719221 1.7190334 0 .9491825.770039 1.7201589 1.719221 1.7201589.95012 0 1.72016-.7709764 1.72016-1.7201589" fill="#1d1919"/><path d="m102.80508-4.3554243c0-.9492763-.77004-1.7190334-1.72016-1.7190334-.94918 0-1.71922.7697571-1.71922 1.7190334 0 .9492764.77004 1.720159 1.71922 1.720159.95012 0 1.72016-.7708826 1.72016-1.720159" fill="#1d1919"/></g><rect height="4.11985" rx=".98258" transform="matrix(.8 0 0 -.8 0 144)" width="70.411987" x="16.853933" y="177.37828"/><rect height="3.29588" rx=".786064" transform="scale(1 -1)" width="50.037457" x="78.501877" y="-2.097376"/><rect height="3.29588" rx=".786064" transform="scale(1 -1)" width="54.831463" x="13.483147" y="-3.697376"/><rect height="3.29588" rx=".786064" transform="scale(1 -1)" width="45.24345" x="83.295883" y="-3.697376"/></g></svg>