<svg width="26" height="26" xmlns="http://www.w3.org/2000/svg">

 <g>
  <title>Layer 1</title>
  <circle id="svg_1" fill="#0075ff" r="13" cy="13" cx="13" opacity="0.15"/>
  <path id="svg_2" fill="#0075ff" d="m11.50196,10.5a4,4 0 1 1 2.731,3.795a0.75,0.75 0 0 0 -0.768,0.18l-1.023,1.025l-1.19,0a0.75,0.75 0 0 0 -0.75,0.75l0,1.19l-0.06,0.06l-1.19,0a0.75,0.75 0 0 0 -0.75,0.75l0,1.19l-0.06,0.06l-1.69,0a0.25,0.25 0 0 1 -0.25,-0.25l0,-1.69l5.024,-5.023a0.75,0.75 0 0 0 0.181,-0.768a3.995,3.995 0 0 1 -0.205,-1.269zm4,-5.5a5.5,5.5 0 0 0 -5.348,6.788l-4.932,4.932a0.75,0.75 0 0 0 -0.22,0.53l0,2c0,0.966 0.784,1.75 1.75,1.75l2,0a0.75,0.75 0 0 0 0.53,-0.22l0.5,-0.5a0.75,0.75 0 0 0 0.22,-0.53l0,-0.75l0.75,0a0.75,0.75 0 0 0 0.53,-0.22l0.5,-0.5a0.75,0.75 0 0 0 0.22,-0.53l0,-0.75l0.75,0a0.75,0.75 0 0 0 0.53,-0.22l0.932,-0.932a5.5,5.5 0 1 0 1.288,-10.848zm0.5,6a1,1 0 1 0 0,-2a1,1 0 0 0 0,2z" clip-rule="evenodd" fill-rule="evenodd"/>
 </g>
</svg>