<svg height="26" width="26" xmlns="http://www.w3.org/2000/svg"><g fill="#0075ff"><circle cx="13" cy="13" opacity=".15" r="13"/><path clip-rule="evenodd" d="m11.50196 10.5a4 4 0 1 1 2.731 3.795.75.75 0 0 0 -.768.18l-1.023 1.025h-1.19a.75.75 0 0 0 -.75.75v1.19l-.06.06h-1.19a.75.75 0 0 0 -.75.75v1.19l-.06.06h-1.69a.25.25 0 0 1 -.25-.25v-1.69l5.024-5.023a.75.75 0 0 0 .181-.768 3.995 3.995 0 0 1 -.205-1.269zm4-5.5a5.5 5.5 0 0 0 -5.348 6.788l-4.932 4.932a.75.75 0 0 0 -.22.53v2c0 .966.784 1.75 1.75 1.75h2a.75.75 0 0 0 .53-.22l.5-.5a.75.75 0 0 0 .22-.53v-.75h.75a.75.75 0 0 0 .53-.22l.5-.5a.75.75 0 0 0 .22-.53v-.75h.75a.75.75 0 0 0 .53-.22l.932-.932a5.5 5.5 0 1 0 1.288-10.848zm.5 6a1 1 0 1 0 0-2 1 1 0 0 0 0 2z" fill-rule="evenodd"/></g></svg>