<svg fill="none" height="26" viewBox="0 0 26 26" width="26" xmlns="http://www.w3.org/2000/svg"><g fill="#0075ff"><circle cx="13" cy="13" opacity=".15" r="13"/><path clip-rule="evenodd" d="m10.4326 7.30426c-.002.0012-.0042.00267-.0067.00444-1.16586.8147-1.9259 2.16445-1.9259 3.6916 0 1.5978.83215 3.0017 2.0902 3.8012.5176.3289.9284.9233.9014 1.6406l-.0003.0084-.1631 3.3364c-.0203.4137-.372.7327-.7858.7124-.4137-.0202-.73267-.372-.71245-.7857l.1628-3.3305c.00201-.0842-.04942-.2154-.20704-.3156-1.67293-1.0631-2.78571-2.935-2.78571-5.0672 0-2.03768 1.01648-3.83785 2.56666-4.92113.54914-.38376 1.19284-.34681 1.67304-.03928.4619.29578.7603.82708.7603 1.42323v2.81908c0 .0828.041.1603.1095.2068l.75.5093c.0848.0576.1962.0576.2809 0l.75-.5093c.0686-.0465.1096-.124.1096-.2068v-2.81908c0-.59615.2984-1.12745.7603-1.42323.4802-.30753 1.1239-.34448 1.673.03928 1.5502 1.08328 2.5667 2.88345 2.5667 4.92113 0 2.1322-1.1128 4.0041-2.7857 5.0672-.1576.1002-.2091.2314-.207.3156l.1627 3.3305c.0203.4137-.2987.7655-.7124.7857-.4138.0203-.7655-.2987-.7858-.7124l-.1634-3.3448c-.027-.7173.3838-1.3117.9014-1.6406 1.2581-.7995 2.0902-2.2034 2.0902-3.8012 0-1.52715-.76-2.8769-1.9259-3.6916-.0025-.00177-.0047-.00324-.0067-.00444-.024.01648-.0674.06721-.0674.15886v2.81908c0 .5798-.2872 1.1219-.7668 1.4477l-.75.5093c-.5935.4031-1.3729.4031-1.9664 0l-.75-.5093c-.4796-.3258-.7668-.8679-.7668-1.4477v-2.81908c0-.09165-.0434-.14238-.0674-.15886zm.0102-.00528c.0005-.00014 0 .00002 0 0z" fill-rule="evenodd"/></g></svg>