<svg fill="none" height="26" viewBox="0 0 26 26" width="26" xmlns="http://www.w3.org/2000/svg"><g fill="#0075ff"><circle cx="13" cy="13" opacity=".15" r="13"/><path clip-rule="evenodd" d="m6.75 5c-.9665 0-1.75.7835-1.75 1.75v12.5c0 .9665.7835 1.75 1.75 1.75h12.5c.9665 0 1.75-.7835 1.75-1.75v-12.5c0-.9665-.7835-1.75-1.75-1.75zm-.25 1.75c0-.13807.11193-.25.25-.25h12.5c.1381 0 .25.11193.25.25v12.5c0 .1381-.1119.25-.25.25h-12.5c-.13807 0-.25-.1119-.25-.25zm10.25 1.25c-.4142 0-.75.33579-.75.75v7.5c0 .4142.3358.75.75.75s.75-.3358.75-.75v-7.5c0-.41421-.3358-.75-.75-.75zm-8.25.75c0-.41421.33579-.75.75-.75s.75.33579.75.75v5.5c0 .4142-.33579.75-.75.75s-.75-.3358-.75-.75zm4.5-.75c-.4142 0-.75.33579-.75.75v3.5c0 .4142.3358.75.75.75s.75-.3358.75-.75v-3.5c0-.41421-.3358-.75-.75-.75z" fill-rule="evenodd"/></g></svg>