<svg fill="none" height="26" viewBox="0 0 26 26" width="26" xmlns="http://www.w3.org/2000/svg" xmlns:xlink="http://www.w3.org/1999/xlink"><clipPath id="a"><path d="m0 0h26v26h-26z"/></clipPath><g clip-path="url(#a)"><g fill="#0075ff"><path d="m13 26c7.1797 0 13-5.8203 13-13s-5.8203-13-13-13-13 5.8203-13 13 5.8203 13 13 13z" opacity=".15"/><rect height=".666666" rx=".333333" width="10.6667" x="7.66663" y="20.2539"/><rect height=".666667" rx=".333333" width="13.3333" x="6.33337" y="18.9199"/></g><rect height="10.5" rx="1.25" stroke="#0075ff" stroke-width="1.5" width="14.5" x="5.75" y="6.75"/><path clip-rule="evenodd" d="m10.8837 9.1318c.1889-.17573.4953-.17573.6843 0 .1889.17574.1889.46066 0 .6364l-2.39983 2.2318 2.39983 2.2318c.1889.1758.1889.4607 0 .6364-.189.1757-.4954.1757-.6843 0l-2.74198-2.55c-.18896-.1757-.18896-.4607 0-.6364zm4.2326 0c-.1889-.17573-.4953-.17573-.6842 0-.189.17574-.189.46066 0 .6364l2.3997 2.2318-2.3997 2.2318c-.189.1758-.189.4607 0 .6364.1889.1757.4953.1757.6842 0l2.742-2.55c.1889-.1757.1889-.4607 0-.6364z" fill="#0075ff" fill-rule="evenodd"/></g></svg>