<svg fill="none" height="128" viewBox="0 0 128 128" width="128" xmlns="http://www.w3.org/2000/svg" xmlns:xlink="http://www.w3.org/1999/xlink"><clipPath id="a"><path d="m0 0h128v128h-128z"/></clipPath><g clip-path="url(#a)"><path d="m67.7173 69.9573c-1.2968 1.2967-2.3254 2.8362-3.0272 4.5305s-1.063 3.5103-1.063 5.3441c0 1.8339.3612 3.6499 1.063 5.3442s1.7304 3.2338 3.0272 4.5305c1.2968 1.2968 2.8362 2.3254 4.5305 3.0272s3.5103 1.063 5.3442 1.063 3.6498-.3612 5.3441-1.063 3.2338-1.7304 4.5305-3.0272c2.619-2.6189 4.0902-6.1709 4.0902-9.8747 0-3.7037-1.4712-7.2557-4.0902-9.8746-2.6189-2.6189-6.1709-4.0902-9.8746-4.0902-3.7038 0-7.2558 1.4713-9.8747 4.0902zm14.7627 14.7733c-.6371.6618-1.3997 1.1899-2.2433 1.5535-.8435.3636-1.7511.5555-2.6696.5643-.9185.0089-1.8296-.1655-2.68-.5128s-1.623-.8607-2.2727-1.51c-.6497-.6494-1.1635-1.4217-1.5113-2.2719s-.5226-1.7612-.5143-2.6797c.0084-.9186.1997-1.8262.5629-2.67.3632-.8437.8909-1.6066 1.5523-2.2441 1.3038-1.2565 3.0486-1.9513 4.8593-1.9349 1.8107.0165 3.5427.7428 4.8234 2.0229 1.2808 1.28 2.0081 3.0116 2.0255 4.8223.0175 1.8107-.6764 3.5559-1.9322 4.8604zm4.752-83.47733-8.5547 8.56c-.8051.81123-1.2569 1.90773-1.2569 3.05063s.4518 2.2395 1.2569 3.0507l33.4027 33.4027c.811.8051 1.908 1.2569 3.051 1.2569s2.239-.4518 3.05-1.2569l8.555-8.5547c.805-.8112 1.257-1.9078 1.257-3.0507s-.452-2.2394-1.257-3.0506l-33.4134-33.40803c-.8094-.804438-1.9042-1.25595555-3.0453-1.25595555-1.1412 0-2.2359.45151755-3.0453 1.25595555zm-59.9414 109.32773c.7289-.732 1.1381-1.724 1.1381-2.757s-.4092-2.025-1.1381-2.757l-4.3466-4.352c-.7328-.7309-1.7253-1.1411-2.76-1.1411s-2.0272.4102-2.76 1.1411l-8.98137 8.986-.016.011-2.464-2.469c-.6542-.655-1.54149-1.022-2.46667-1.022s-1.81246.367-2.46666 1.022c-.654206.654-1.02173164 1.541-1.02173164 2.466s.36752564 1.813 1.02173164 2.467l14.8 14.8c.3239.324.7085.581 1.1317.756s.8769.266 1.335.266.9117-.091 1.3349-.266.8078-.432 1.1317-.756c.324-.324.5809-.709.7562-1.132s.2656-.877.2656-1.335-.0903-.911-.2656-1.335c-.1753-.423-.4322-.807-.7562-1.131l-2.4693-2.464.016-.011zm45.2587-84.7624-19.008 19.008c-.811.8189-1.2659 1.9248-1.2659 3.0773 0 1.1526.4549 2.2585 1.2659 3.0774l11.7333 11.7333c4.0897-2.9376 9.0905-4.3258 14.1093-3.9164 5.0187.4094 9.7285 2.5895 13.2881 6.1511l9.504-9.504c.811-.8189 1.266-1.9248 1.266-3.0774 0-1.1525-.455-2.2584-1.266-3.0773l-23.472-23.4667c-.4038-.4047-.8834-.7258-1.4115-.945-.5281-.2191-1.0942-.3318-1.6659-.3318s-1.1378.1127-1.6658.3318c-.5281.2192-1.0077.535-1.4115.9397zm-12.2027 41.8453-6.9333-6.9333c-.7854-.7803-1.8475-1.2183-2.9547-1.2183-1.1071 0-2.1693.438-2.9546 1.2183l-24.4427 24.4587c-.7787.7851-1.2157 1.8462-1.2157 2.952s.437 2.1668 1.2157 2.952l13.8507 13.8557c.7853.781 1.8475 1.219 2.9546 1.219 1.1072 0 2.1693-.438 2.9547-1.219l15.7173-15.749c-1.6509-3.4237-2.3539-7.2273-2.036-11.0149.318-3.7876 1.6454-7.4207 3.844-10.5212z" fill="#e0e5eb"/></g></svg>