<svg width="26" height="26" viewBox="0 0 26 26" fill="none" xmlns="http://www.w3.org/2000/svg">
<g clip-path="url(#clip0_1167_3733)">
<path opacity="0.15" d="M13 26C20.1797 26 26 20.1797 26 13C26 5.8203 20.1797 0 13 0C5.8203 0 0 5.8203 0 13C0 20.1797 5.8203 26 13 26Z" fill="#0075FF"/>
<path fill-rule="evenodd" clip-rule="evenodd" d="M18.4681 12.8372C17.989 12.7006 17.5836 12.779 17.2636 12.9309C16.727 13.1857 16.4306 13.6468 16.4306 13.6468L19.8513 14.621C19.8513 14.621 19.8118 14.0642 19.4669 13.5584C19.2612 13.2569 18.9471 12.9735 18.4681 12.8372ZM11.1573 12.0661C11.1573 12.0661 11.4537 11.6051 11.9902 11.3498C12.3106 11.1974 12.7165 11.1183 13.196 11.2546C13.6758 11.3909 13.9901 11.6745 14.1955 11.9762C14.5398 12.4817 14.5788 13.038 14.5788 13.038L11.1573 12.0661ZM12.2287 15.9881C11.7848 15.4044 11.6841 14.8841 11.6841 14.8841L17.7443 16.5783C17.7443 16.5783 17.4023 16.9749 16.7497 17.2521C16.1682 17.4991 15.3402 17.6513 14.288 17.3439C13.2453 17.0384 12.6102 16.4898 12.2287 15.9881Z" fill="#0075FF"/>
<path fill-rule="evenodd" clip-rule="evenodd" d="M8.72438 15.0772C8.75001 15.3316 8.78425 15.5854 8.82814 15.8371C8.85594 15.9965 8.88784 16.1559 8.92411 16.3145L7.4633 16.7288C7.4633 16.7288 7.63833 15.7117 8.72438 15.0772Z" fill="#0075FF"/>
<path d="M7.99198 12.2377L5.35962 12.9311C5.35962 12.9311 5.94134 13.7704 6.92843 13.5105C7.91526 13.2504 7.99198 12.2377 7.99198 12.2377Z" fill="#0075FF"/>
<path fill-rule="evenodd" clip-rule="evenodd" d="M3.51495 10.5891C3.54683 11.0915 3.66654 11.8705 3.94062 12.8991C4.19625 13.8593 4.70581 15.2032 5.4994 16.3415C6.29373 17.4809 7.37159 18.4131 8.76293 18.552C9.08803 18.5845 9.43029 18.5736 9.79007 18.5119C9.62159 18.2333 9.47561 17.9426 9.34992 17.644L10.1948 17.2884C10.3046 17.5493 10.4307 17.7998 10.5745 18.0376L11.2703 19.1882L9.94497 19.4154C9.50647 19.4906 9.08149 19.505 8.67189 19.4641C6.89848 19.2872 5.61273 18.107 4.74743 16.8657C3.87533 15.6147 3.32884 14.1642 3.05486 13.1352C2.76959 12.0646 2.63676 11.2244 2.60012 10.6472C2.58829 10.4624 2.59223 10.1808 2.73096 9.90424C2.8999 9.56747 3.19215 9.3819 3.47995 9.31041C3.71575 9.25183 3.93918 9.27107 4.07135 9.28686C4.20926 9.30333 4.35997 9.33222 4.48655 9.35648L4.50342 9.35972C4.59334 9.37693 4.68143 9.39378 4.77466 9.40987C5.2011 9.48371 6.32934 9.58978 7.74027 9.20935C7.78845 9.19636 7.84306 9.17999 7.9035 9.16024L8.1882 10.0316C8.11558 10.0553 8.04537 10.0765 7.97891 10.0944M8.69432 8.84912C8.41669 8.97093 8.13708 9.08391 7.9035 9.16024L8.1882 10.0316C8.46291 9.94181 8.77358 9.81536 9.06262 9.68854L9.12108 9.66277C9.15351 9.64838 9.18562 9.63404 9.21732 9.61977V9.68854C9.1344 9.99807 9.05305 10.344 8.97937 10.7176C8.69138 12.1776 8.52048 14.0593 8.8303 15.836C8.93739 16.4501 9.10518 17.0623 9.34992 17.644L10.1948 17.2884C9.98088 16.7799 9.83049 16.2356 9.73334 15.6785C9.44957 14.0512 9.6034 12.2907 9.8787 10.895C9.94844 10.5414 10.0252 10.2154 10.1028 9.92576L10.134 9.8092V8.20176L8.84099 8.78391C8.81083 8.79749 8.78035 8.81111 8.74963 8.82473L8.69432 8.84912ZM7.97891 10.0944C6.41303 10.5166 5.14643 10.4046 4.61826 10.3131C4.51576 10.2954 4.41994 10.2771 4.33106 10.26L4.31402 10.2568C4.18108 10.2313 4.06274 10.209 3.96262 10.1971C3.91377 10.1912 3.86709 10.1871 3.81935 10.1874C3.77118 10.1876 3.73167 10.1924 3.70096 10.2C3.66513 10.2089 3.63398 10.2239 3.6102 10.2417C3.5889 10.2576 3.5683 10.2794 3.5503 10.3153C3.51894 10.3778 3.50714 10.4672 3.51495 10.5891" fill="#0075FF"/>
<path fill-rule="evenodd" clip-rule="evenodd" d="M10.2985 6.63614C10.397 6.43813 10.5579 6.17579 10.834 5.99505C11.1655 5.77814 11.5282 5.76238 11.8321 5.84948C12.085 5.92201 12.2907 6.06281 12.4223 6.16089C12.5583 6.26228 12.7021 6.38601 12.8304 6.49645L12.8447 6.50875L12.2468 7.20353C11.688 6.72266 11.4018 6.4764 11.1192 7.04448C10.8298 7.62641 10.4601 8.57094 10.1014 9.89532C9.32533 12.7617 8.74585 18.8097 13.5424 20.0831C18.3389 21.3543 20.8931 15.8294 21.6691 12.9623C22.0271 11.6386 22.1839 10.637 22.2275 9.99102C22.27 9.35858 21.8966 9.43051 21.1688 9.57075C21.0537 9.59292 20.9297 9.6168 20.7972 9.63987C20.1132 9.75873 18.4715 9.90614 16.4429 9.36822C14.4143 8.83029 13.0682 7.89034 12.5347 7.44811C12.4311 7.36221 12.3355 7.27992 12.2468 7.20353L12.8447 6.50875C12.934 6.58561 13.0236 6.66265 13.1197 6.7424M13.1197 6.7424C13.5741 7.11905 14.8039 7.98525 16.6779 8.48217C18.5523 8.97925 20.057 8.8381 20.6402 8.73673C20.7634 8.7153 20.8795 8.69295 20.9953 8.67065L21.0138 8.66708C21.181 8.63485 21.3679 8.59882 21.5368 8.57833C21.6999 8.55853 21.9484 8.53835 22.2036 8.60042C22.5102 8.67498 22.8203 8.8686 23.0006 9.2255C23.1504 9.52224 23.1569 9.83192 23.1422 10.0524C23.0935 10.7725 22.9236 11.8354 22.5541 13.2015C22.1466 14.7068 21.2671 16.9453 19.8138 18.6661C18.3377 20.4137 16.1624 21.7258 13.3075 20.9692C10.4502 20.2106 9.22559 17.9936 8.82941 15.7456C8.43969 13.5346 8.80924 11.1602 9.21654 9.65577C9.58677 8.28905 9.9759 7.28485 10.2985 6.63614" fill="#0075FF"/>
<path d="M9.34992 17.644C9.47561 17.9426 9.62159 18.2333 9.79007 18.5119C9.43029 18.5736 9.08803 18.5845 8.76293 18.552C7.37159 18.4131 6.29373 17.4809 5.4994 16.3415C4.70581 15.2032 4.19625 13.8593 3.94062 12.8991C3.66654 11.8705 3.54683 11.0915 3.51495 10.5891C3.50714 10.4672 3.51894 10.3778 3.5503 10.3153C3.5683 10.2794 3.5889 10.2576 3.6102 10.2417C3.63398 10.2239 3.66513 10.2089 3.70096 10.2C3.73167 10.1924 3.77118 10.1876 3.81935 10.1874C3.86709 10.1871 3.91377 10.1912 3.96262 10.1971C4.06274 10.209 4.18108 10.2313 4.31402 10.2568L4.33106 10.26C4.41994 10.2771 4.51576 10.2954 4.61826 10.3131C5.14643 10.4046 6.41303 10.5166 7.97891 10.0944C8.04537 10.0765 8.11558 10.0553 8.1882 10.0316M9.34992 17.644L10.1948 17.2884M9.34992 17.644C9.10518 17.0623 8.93739 16.4501 8.8303 15.836C8.52048 14.0593 8.69138 12.1776 8.97937 10.7176C9.05305 10.344 9.1344 9.99807 9.21732 9.68854V9.61977C9.18562 9.63404 9.15351 9.64838 9.12108 9.66277L9.06262 9.68854C8.77358 9.81536 8.46291 9.94181 8.1882 10.0316M10.1948 17.2884C10.3046 17.5493 10.4307 17.7998 10.5745 18.0376L11.2703 19.1882L9.94497 19.4154C9.50647 19.4906 9.08149 19.505 8.67189 19.4641C6.89848 19.2872 5.61273 18.107 4.74743 16.8657C3.87533 15.6147 3.32884 14.1642 3.05486 13.1352C2.76959 12.0646 2.63676 11.2244 2.60012 10.6472C2.58829 10.4624 2.59223 10.1808 2.73096 9.90424C2.8999 9.56747 3.19215 9.3819 3.47995 9.31041C3.71575 9.25183 3.93918 9.27107 4.07135 9.28686C4.20926 9.30333 4.35997 9.33222 4.48655 9.35648L4.50342 9.35972C4.59334 9.37693 4.68143 9.39378 4.77466 9.40987C5.2011 9.48371 6.32934 9.58978 7.74027 9.20935C7.78845 9.19636 7.84306 9.17999 7.9035 9.16024M10.1948 17.2884C9.98088 16.7799 9.83049 16.2356 9.73334 15.6785C9.44957 14.0512 9.6034 12.2907 9.8787 10.895C9.94844 10.5414 10.0252 10.2154 10.1028 9.92576L10.134 9.8092V8.20176L8.84099 8.78391C8.81083 8.79749 8.78035 8.81111 8.74963 8.82473L8.69432 8.84912C8.41668 8.97093 8.13708 9.08391 7.9035 9.16024M7.9035 9.16024L8.1882 10.0316M12.8447 6.50875L12.8304 6.49645C12.7021 6.38601 12.5583 6.26228 12.4223 6.16089C12.2907 6.06281 12.085 5.92201 11.8321 5.84948C11.5282 5.76238 11.1655 5.77814 10.834 5.99505C10.5579 6.17579 10.397 6.43813 10.2985 6.63614C9.9759 7.28485 9.58677 8.28905 9.21654 9.65577C8.80924 11.1602 8.43969 13.5346 8.82941 15.7456C9.22559 17.9936 10.4502 20.2106 13.3075 20.9692C16.1624 21.7258 18.3377 20.4137 19.8138 18.6661C21.2671 16.9453 22.1466 14.7068 22.5541 13.2015C22.9236 11.8354 23.0935 10.7725 23.1422 10.0524C23.1569 9.83192 23.1504 9.52224 23.0006 9.2255C22.8203 8.8686 22.5102 8.67498 22.2036 8.60042C21.9484 8.53835 21.6999 8.55853 21.5368 8.57833C21.3679 8.59882 21.181 8.63485 21.0138 8.66708L20.9953 8.67065C20.8795 8.69295 20.7634 8.7153 20.6402 8.73673C20.057 8.8381 18.5523 8.97925 16.6779 8.48217C14.8039 7.98525 13.5741 7.11905 13.1197 6.7424C13.0236 6.66265 12.934 6.58561 12.8447 6.50875ZM12.8447 6.50875L12.2468 7.20353M12.2468 7.20353C11.688 6.72266 11.4018 6.4764 11.1192 7.04448C10.8298 7.62641 10.4601 8.57094 10.1014 9.89532C9.32533 12.7617 8.74585 18.8097 13.5424 20.0831C18.3389 21.3543 20.8931 15.8294 21.6691 12.9623C22.0271 11.6386 22.1839 10.637 22.2275 9.99102C22.27 9.35858 21.8966 9.43051 21.1688 9.57075C21.0537 9.59292 20.9297 9.6168 20.7972 9.63987C20.1132 9.75873 18.4715 9.90614 16.4429 9.36822C14.4143 8.83029 13.0682 7.89034 12.5347 7.44811C12.4311 7.36221 12.3355 7.27992 12.2468 7.20353ZM18.4681 12.8372C17.989 12.7006 17.5836 12.779 17.2636 12.9309C16.727 13.1857 16.4306 13.6468 16.4306 13.6468L19.8513 14.621C19.8513 14.621 19.8117 14.0642 19.4669 13.5584C19.2612 13.2569 18.9471 12.9735 18.4681 12.8372ZM11.1573 12.0661C11.1573 12.0661 11.4537 11.6051 11.9902 11.3498C12.3106 11.1974 12.7165 11.1183 13.196 11.2546C13.6758 11.3909 13.9901 11.6745 14.1955 11.9762C14.5398 12.4817 14.5788 13.038 14.5788 13.038L11.1573 12.0661ZM12.2287 15.9881C11.7848 15.4044 11.6841 14.8841 11.6841 14.8841L17.7443 16.5783C17.7443 16.5783 17.4023 16.9749 16.7497 17.2521C16.1682 17.499 15.3402 17.6513 14.288 17.3439C13.2453 17.0384 12.6102 16.4898 12.2287 15.9881ZM8.72438 15.0772C8.75001 15.3316 8.78425 15.5854 8.82814 15.8371C8.85594 15.9965 8.88784 16.1559 8.92411 16.3145L7.4633 16.7288C7.4633 16.7288 7.63833 15.7117 8.72438 15.0772ZM7.99198 12.2377L5.35962 12.9311C5.35962 12.9311 5.94134 13.7704 6.92843 13.5105C7.91526 13.2504 7.99198 12.2377 7.99198 12.2377Z" stroke="#0075FF" stroke-width="0.25"/>
</g>
<defs>
<clipPath id="clip0_1167_3733">
<rect width="26" height="26" fill="white"/>
</clipPath>
</defs>
</svg>
