<svg fill="none" height="26" viewBox="0 0 26 26" width="26" xmlns="http://www.w3.org/2000/svg"><g fill="#0075ff"><circle cx="13" cy="13" opacity=".15" r="13"/><path clip-rule="evenodd" d="m6.5 6.75c0-.41421-.33579-.75-.75-.75s-.75.33579-.75.75v12.5c0 .4142.33579.75.75.75h14.5c.4142 0 .75-.3358.75-.75s-.3358-.75-.75-.75h-13.75zm14.2803 2.53033c.2929-.29289.2929-.76777 0-1.06066s-.7677-.29289-1.0606 0l-4.7197 4.71963-2.4697-2.4696c-.2929-.2929-.7677-.2929-1.0606 0l-3.25003 3.25c-.29289.2929-.29289.7677 0 1.0606s.76777.2929 1.06066 0l2.71967-2.7196 2.4697 2.4696c.1406.1407.3314.2197.5303.2197s.3897-.079.5303-.2197z" fill-rule="evenodd"/></g></svg>