<svg fill="none" height="26" viewBox="0 0 26 26" width="26" xmlns="http://www.w3.org/2000/svg"><g fill="#0075ff"><circle cx="13" cy="13" opacity=".15" r="13"/><path clip-rule="evenodd" d="m9.71967 8.21967c.29293-.29289.76773-.29289 1.06063 0s.2929.76777 0 1.06066l-3.71964 3.71967 3.71964 3.7197c.2929.2929.2929.7677 0 1.0606s-.7677.2929-1.06063 0l-4.25-4.25c-.29289-.2929-.29289-.7677 0-1.0606zm6.56063 0c-.2929-.29289-.7677-.29289-1.0606 0s-.2929.76777 0 1.06066l3.7196 3.71967-3.7196 3.7197c-.2929.2929-.2929.7677 0 1.0606s.7677.2929 1.0606 0l4.25-4.25c.2929-.2929.2929-.7677 0-1.0606z" fill-rule="evenodd"/></g></svg>