<svg width="26" height="26" viewBox="0 0 26 26" fill="none" xmlns="http://www.w3.org/2000/svg">
<g>
<path opacity="0.15" d="M13 26C20.1797 26 26 20.1797 26 13C26 5.8203 20.1797 0 13 0C5.8203 0 0 5.8203 0 13C0 20.1797 5.8203 26 13 26Z" fill="#0075FF"/>
<path d="M18.2557 11.0043V12.9157H18.7837C19.2056 12.9157 19.5009 12.8445 19.6696 12.7019C19.8413 12.5593 19.9271 12.3121 19.9271 11.96C19.9271 11.608 19.8413 11.3607 19.6696 11.2181C19.5009 11.0756 19.2056 11.0043 18.7837 11.0043H18.2557ZM16.9683 9.92203H18.7357C19.6347 9.92203 20.2806 10.082 20.6734 10.4021C21.069 10.7221 21.2669 11.2414 21.2669 11.96C21.2669 12.6786 21.069 13.1979 20.6734 13.518C20.2806 13.838 19.6347 13.998 18.7357 13.998H18.2557V16.4375H16.9683V9.92203Z" fill="#0075FF"/>
<path d="M14.7812 16.2498C14.5775 16.3546 14.3637 16.4331 14.1396 16.4855C13.9156 16.5379 13.68 16.5641 13.4327 16.5641C12.554 16.5641 11.8834 16.2746 11.4209 15.6956C10.9583 15.1167 10.727 14.2802 10.727 13.1863C10.727 12.0895 10.9583 11.2516 11.4209 10.6726C11.8834 10.0937 12.554 9.8042 13.4327 9.8042C13.68 9.8042 13.9171 9.83038 14.144 9.88275C14.3709 9.93512 14.5833 10.0137 14.7812 10.1184V11.5498C14.56 11.3462 14.3447 11.1978 14.1353 11.1047C13.9287 11.0087 13.7149 10.9607 13.4938 10.9607C13.0225 10.9607 12.6661 11.1483 12.4246 11.5236C12.186 11.896 12.0667 12.4502 12.0667 13.1863C12.0667 13.9195 12.186 14.4737 12.4246 14.849C12.6661 15.2214 13.0225 15.4076 13.4938 15.4076C13.7149 15.4076 13.9287 15.361 14.1353 15.2679C14.3447 15.1719 14.56 15.0221 14.7812 14.8185V16.2498Z" fill="#0075FF"/>
<path d="M7.68757 16.4375H6.40018V11.0479H4.74622V9.92203H9.34153V11.0479H7.68757V16.4375Z" fill="#0075FF"/>
</g>
</svg>
