<svg width="26" height="26" fill="none" xmlns="http://www.w3.org/2000/svg"><g clip-path="url(#a)" fill="#0075FF"><path d="M21.752 11.83c0 .78-.246 1.37-.74 1.77-.486.393-1.153.59-2 .59h-.76v2.31h-1.64V9.57h2.18c.96 0 1.693.19 2.2.57.507.373.76.937.76 1.69Zm-1.68 0c0-.727-.416-1.09-1.25-1.09h-.57v2.27h.65c.373 0 .66-.097.86-.29.207-.193.31-.49.31-.89ZM13.576 9.39c.48 0 .893.063 1.24.19s.673.317.98.57l-.8.97c-.42-.34-.88-.51-1.38-.51-.473 0-.857.2-1.15.6-.287.4-.43 1.003-.43 1.81 0 .807.143 1.407.43 1.8.287.387.68.58 1.18.58.307 0 .57-.053.79-.16.22-.107.457-.26.71-.46l.74.95c-.613.627-1.39.94-2.33.94-.633 0-1.193-.14-1.68-.42-.48-.28-.857-.693-1.13-1.24-.273-.553-.41-1.217-.41-1.99 0-.753.14-1.403.42-1.95a2.97 2.97 0 0 1 1.16-1.25 3.243 3.243 0 0 1 1.66-.43ZM7.81 16.5H6.17v-5.67H4.22V9.57h5.61l-.16 1.26H7.81v5.67Z"/><path opacity=".15" d="M26 13c0 7.18-5.82 13-13 13S0 20.18 0 13 5.82 0 13 0s13 5.82 13 13Z"/></g><defs><clipPath id="a"><path fill="#fff" d="M0 0h26v26H0z"/></clipPath></defs></svg>
