<svg fill="none" height="26" viewBox="0 0 26 26" width="26" xmlns="http://www.w3.org/2000/svg"><g fill="#0075ff"><circle cx="13" cy="13" opacity=".15" r="13"/><path clip-rule="evenodd" d="m10.5 8.5c-.53044 0-1.03915.21071-1.41422.58578-.37507.37508-.58579.88378-.58579 1.41422 0 .5304.21072 1.0391.58579 1.4142s.88378.5858 1.41422.5858c.5304 0 1.0391-.2107 1.4142-.5858s.5858-.8838.5858-1.4142c0-.53044-.2107-1.03914-.5858-1.41422-.3751-.37507-.8838-.58578-1.4142-.58578zm-3.50001 2c-.00007-.58013.14406-1.15118.41943-1.66179.27537-.5106.67334-.94475 1.15812-1.2634s1.04117-.5118 1.61916-.56207c.5779-.05028 1.1593.04389 1.6918.27403.5325.23015.9995.58905 1.3589 1.04444.3594.45538.6.99296.7001 1.56438.1001.57141.0566 1.15881-.1266 1.70921-.1832.5505-.5003 1.0467-.9229 1.4442.7968.3866 1.4887.9597 2.0169 1.6706.5282.711.8771 1.5389 1.0171 2.4134.0312.1965-.017.3974-.134.5584-.1169.161-.293.2689-.4895.3001s-.3974-.017-.5584-.134c-.161-.1169-.2689-.293-.3001-.4895-.1513-.9386-.632-1.7927-1.3558-2.4092-.7238-.6164-1.6435-.955-2.5942-.955-.95076 0-1.87044.3386-2.59425.955-.72381.6165-1.20444 1.4706-1.35576 2.4092-.01549.0973-.05001.1906-.10156.2746-.05156.084-.11915.157-.19891.2148-.07977.0579-.17015.0994-.26598.1223-.09583.023-.19524.0268-.29255.0113s-.19061-.05-.27459-.1016c-.08397-.0515-.15696-.1191-.21481-.1989-.05785-.0797-.09943-.1701-.12235-.266-.02292-.0958-.02674-.1952-.01125-.2925.14034-.8742.48938-1.7016 1.01753-2.4122.52816-.7106 1.21986-1.2834 2.01647-1.6698-.34847-.327-.62609-.722-.81564-1.1606-.18956-.4387-.28703-.9116-.28636-1.3894zm9.00001-1.5c-.1989 0-.3897.07901-.5303.21967-.1407.14065-.2197.33141-.2197.53033 0 .19891.079.3897.2197.5303.1406.1407.3314.2197.5303.2197.3383 0 .6667.1144.9319.3247.2651.2102.4514.5038.5285.8333.0771.3294.0406.6753-.1036.9813-.1442.3061-.3876.5545-.6908.7047-.125.0622-.2302.158-.3037.2768-.0735.1187-.1124.2556-.1123.3952v.352c-.0002.1685.0563.3321.1604.4645.1041.1325.2498.226.4136.2655 1.2.289 2.162 1.2 2.522 2.372.0285.0945.0755.1825.1381.2589.0627.0763.1398.1396.227.1861.0871.0464.1826.0752.2809.0847s.1975-.0006.292-.0295c.0944-.029.1822-.0763.2582-.1393.0761-.063.139-.1404.1851-.2278.0461-.0873.0745-.1829.0835-.2813.0091-.0983-.0014-.1975-.0308-.2918-.2002-.6494-.5304-1.2513-.9705-1.769-.4401-.5178-.9809-.9407-1.5895-1.243.3909-.4301.6486-.9644.7415-1.5381.093-.5738.0173-1.1621-.2178-1.6936-.2352-.5316-.6197-.98332-1.1067-1.30043-.4871-.31711-1.0558-.48591-1.637-.48587z" fill-rule="evenodd"/></g></svg>