<svg fill="none" height="26" viewBox="0 0 26 26" width="26" xmlns="http://www.w3.org/2000/svg"><g fill="#45c8f1"><circle cx="13" cy="13" opacity=".15" r="13"/><path clip-rule="evenodd" d="m5 7.75c0-.9665.7835-1.75 1.75-1.75h12.5c.9665 0 1.75.7835 1.75 1.75v10.5c0 .9665-.7835 1.75-1.75 1.75h-12.5c-.9665 0-1.75-.7835-1.75-1.75zm1.75-.25c-.13807 0-.25.11193-.25.25v10.5c0 .1381.11193.25.25.25h12.5c.1381 0 .25-.1119.25-.25v-10.5c0-.13807-.1119-.25-.25-.25zm5.5 5.5c0 .1989-.079.3897-.2197.5303l-2.24996 2.25c-.29289.2929-.76777.2929-1.06066 0s-.29289-.7677 0-1.0606l1.71962-1.7197-1.71961-1.7196c-.2929-.2929-.29291-.7678-.00002-1.0607.29289-.29286.76776-.29287 1.06066 0l2.24997 2.25c.1407.1406.2197.3314.2197.5303zm1.5 1.5c-.4142 0-.75.3358-.75.75s.3358.75.75.75h3c.4142 0 .75-.3358.75-.75s-.3358-.75-.75-.75z" fill-rule="evenodd"/></g></svg>