<svg xmlns="http://www.w3.org/2000/svg" width="20" height="20" fill="none" viewBox="0 0 32 32"><path fill="currentColor" d="M23.5 28a.5.5 0 0 1 0 1h-15a.5.5 0 0 1 0-1h15ZM15.731 13.313c.437 0 .749.084.935.252.186.169.28.448.28.838 0 .39-.095.672-.285.844-.186.168-.496.252-.93.252h-.746v-2.186h.746Z"/><path fill="currentColor" fill-rule="evenodd" d="M29 5a2 2 0 0 1 2 2v18a2 2 0 0 1-2 2H3a2 2 0 0 1-2-2V7a2 2 0 0 1 2-2h26ZM5.628 17.041c0 1.088.216 1.88.65 2.374.436.494 1.133.741 2.09.741.958 0 1.655-.247 2.088-.741.433-.494.65-1.286.65-2.374v-5.06H9.521v5.458c0 .4-.101.716-.305.945-.204.225-.487.338-.849.338-.361 0-.644-.113-.848-.338-.204-.23-.307-.545-.307-.945V11.98H5.628v5.061ZM13.4 20h1.585v-3.169h.505c.383 0 .716.303 1 .908.046.1.083.18.112.237L17.568 20h1.74l-1.45-2.884c-.168-.336-.311-.562-.43-.677a.773.773 0 0 0-.408-.225c.505-.065.892-.26 1.16-.586.27-.326.404-.764.404-1.316 0-.823-.226-1.417-.677-1.783-.447-.365-1.187-.549-2.219-.549H13.4V20Zm8.123 0h4.973v-1.396h-3.389V11.98h-1.584V20Z" clip-rule="evenodd"/></svg>
