<svg width="26" height="26" viewBox="0 0 26 26" fill="none" xmlns="http://www.w3.org/2000/svg">
<g>
<path opacity="0.15" d="M13 26C20.1797 26 26 20.1797 26 13C26 5.8203 20.1797 0 13 0C5.8203 0 0 5.8203 0 13C0 20.1797 5.8203 26 13 26Z" fill="#0075FF"/>
<path d="M6.35645 14.3525C6.35652 14.678 6.4445 14.9341 6.61914 15.1201C6.79385 15.303 7.03633 15.3945 7.3457 15.3945C7.65493 15.3944 7.89768 15.3031 8.07227 15.1201C8.24669 14.9341 8.33391 14.6778 8.33398 14.3525V9.91992H9.69043V14.0303C9.69032 14.9139 9.5046 15.5568 9.13379 15.958C8.76295 16.359 8.16673 16.5594 7.3457 16.5596C6.5273 16.5596 5.9297 16.3592 5.55566 15.958C5.18494 15.5568 5.00011 14.9138 5 14.0303V9.91992H6.35645V14.3525ZM13.1729 9.91992C14.0555 9.91992 14.69 10.0688 15.0732 10.3652C15.4591 10.6618 15.6522 11.1452 15.6523 11.8135C15.6523 12.2611 15.5365 12.6173 15.3066 12.8818C15.0767 13.1464 14.7457 13.3061 14.3135 13.3584C14.4481 13.3845 14.5651 13.4453 14.6631 13.541C14.7642 13.6341 14.8873 13.8178 15.0312 14.0908L16.2725 16.4326H14.7822L13.9551 14.7891C13.9306 14.7426 13.8981 14.6777 13.8584 14.5967C13.6165 14.1061 13.3314 13.8598 13.0039 13.8594H12.5713V16.4326H11.2139V9.91992H13.1729ZM18.6572 15.2988H21.5586V16.4326H17.2998V9.91992H18.6572V15.2988ZM12.5713 12.9326H13.21C13.5807 12.9326 13.8464 12.8607 14.0059 12.7168C14.1683 12.5696 14.249 12.3283 14.249 11.9941C14.249 11.6601 14.1691 11.4214 14.0098 11.2773C13.8503 11.1334 13.5838 11.0615 13.21 11.0615H12.5713V12.9326Z" fill="#0075FF"/>
</g>
</svg>
