<svg fill="none" height="1024" viewBox="0 0 1024 1024" width="1024" xmlns="http://www.w3.org/2000/svg"><path d="m897.246 286.869h-7.427c-39.084-.061-70.802 31.591-70.802 70.67v158.05c0 31.561-26.087 57.127-57.135 57.127-18.446 0-36.862-9.283-47.789-24.866l-161.42-230.546c-13.393-19.144-35.187-30.557-58.778-30.557-36.801 0-69.919 31.287-69.919 69.91v158.962c0 31.562-25.873 57.127-57.134 57.127-18.507 0-36.893-9.283-47.821-24.865l-180.626-257.999c-4.079-5.844-13.241-2.952-13.241 4.17v137.84c0 6.97 2.131 13.727 6.118 19.448l177.765 253.86c10.502 15.004 25.996 26.144 43.863 30.192 44.716 10.165 85.87-24.257 85.87-68.114v-158.872c0-31.561 25.569-57.127 57.134-57.127h.091c19.025 0 36.862 9.283 47.79 24.866l161.45 230.516c13.424 19.174 34.092 30.557 58.748 30.557 37.623 0 69.858-31.318 69.858-69.91v-158.932c0-31.561 25.569-57.127 57.134-57.127h6.301c3.957 0 7.154-3.196 7.154-7.152v-150.076c0-3.956-3.197-7.152-7.154-7.152z" fill="#0b100f"/></svg>