<svg fill="none" height="32" viewBox="0 0 32 32" width="32" xmlns="http://www.w3.org/2000/svg"><circle cx="16" cy="16" fill="#f9fafc" r="16"/><g fill="#0075ff"><path clip-rule="evenodd" d="m16 7c-3.1066 0-5.625 2.5184-5.625 5.625v3.3156c0 .0556-.0164.1098-.0472.156l-1.91606 2.8741c-.18698.2804-.28674.61-.28674.947 0 .943.76438 1.7073 1.70729 1.7073h12.33541c.943 0 1.7073-.7643 1.7073-1.7073 0-.337-.0998-.6666-.2868-.947l-1.916-2.8741c-.0308-.0462-.0472-.1004-.0472-.156v-3.3156c0-3.1066-2.5184-5.625-5.625-5.625zm-3.9375 5.625c0-2.1746 1.7629-3.9375 3.9375-3.9375s3.9375 1.7629 3.9375 3.9375v3.3156c0 .3887.1151.7687.3306 1.0921l1.916 2.874c.0023.0032.0034.0071.0034.011 0 .0025-.0005.0055-.0005.0055l-.0007.0019s-.0022.0042-.0047.0065c-.0023.0025-.0065.0047-.0065.0047s-.0031.0012-.0074.0012h-12.33541c-.00429 0-.00745-.0012-.00745-.0012s-.00414-.0022-.00655-.0047c-.00239-.0023-.00459-.0065-.00459-.0065s-.0012-.0031-.0012-.0074c0-.0039.00116-.0078.00332-.011l1.91608-2.874c.2155-.3234.3306-.7034.3306-1.0921z" fill-rule="evenodd"/><path d="m18.2327 23.0307c-.1382 1.1101-1.0851 1.9693-2.2327 1.9693s-2.0945-.8592-2.2327-1.9693c-.0192-.1541.1086-.2807.2639-.2807h3.9375c.1554 0 .2831.1266.264.2807z"/></g></svg>