<svg width="32" height="32" viewBox="0 0 32 32" fill="none" xmlns="http://www.w3.org/2000/svg">
<circle cx="16" cy="16" r="16" fill="#F0F8FF"/>
<path d="M8.81814 20.0249L9.41374 18.195H12.3095L12.905 20.0249H14.7232L11.9568 12H9.77032L7 20.0249H8.81814ZM9.84477 16.8706L10.8322 13.8338H10.8949L11.8823 16.8706H9.84477Z" fill="#45C8F1"/>
<path d="M15.6891 20.0249H17.3858V17.4231H18.8121C20.6576 17.4231 21.7313 16.322 21.7313 14.7194C21.7313 13.1246 20.6772 12 18.8552 12H15.6891V20.0249ZM17.3858 16.0634V13.3871H18.5299C19.5095 13.3871 19.9837 13.92 19.9837 14.7194C19.9837 15.5148 19.5095 16.0634 18.5378 16.0634H17.3858Z" fill="#45C8F1"/>
<path d="M24.53 12H22.8333V20.0249H24.53V12Z" fill="#45C8F1"/>
</svg>
