<svg fill="none" height="32" viewBox="0 0 32 32" width="32" xmlns="http://www.w3.org/2000/svg"><circle cx="16" cy="16" fill="#f0f8ff" r="16"/><g fill="#0075ff"><path d="m8.81814 20.0249.5956-1.8299h2.89576l.5955 1.8299h1.8182l-2.7664-8.0249h-2.18648l-2.77032 8.0249zm1.02663-3.1543.98743-3.0368h.0627l.9874 3.0368z"/><path d="m15.6891 20.0249h1.6967v-2.6018h1.4263c1.8455 0 2.9192-1.1011 2.9192-2.7037 0-1.5948-1.0541-2.7194-2.8761-2.7194h-3.1661zm1.6967-3.9615v-2.6763h1.1441c.9796 0 1.4538.5329 1.4538 1.3323 0 .7954-.4742 1.344-1.4459 1.344z"/><path d="m24.53 12h-1.6967v8.0249h1.6967z"/></g></svg>