<svg fill="none" height="32" viewBox="0 0 32 32" width="32" xmlns="http://www.w3.org/2000/svg"><circle cx="16" cy="16" fill="#f0f8ff" r="16"/><path clip-rule="evenodd" d="m19.3892 8.6052c.7688-.76885 2.0153-.76885 2.7842 0l1.2215 1.22151c.7688.76879.7688 2.01539 0 2.78419l-9.6859 9.6859c-.2366.2366-.5295.4089-.8512.5009l-3.65723 1.0449c-.29464.0842-.61174.002-.82842-.2147-.21667-.2167-.29884-.5337-.21467-.8283l1.04492-3.6573c.09192-.3216.2643-.6147.50089-.8513zm1.591 1.19324c-.1099-.10983-.288-.10983-.3978 0l-1.4204 1.42036 1.6193 1.6193 1.4204-1.4204c.1098-.1098.1098-.2879 0-.3977zm-1.3922 4.23286-1.6192-1.6192-7.0723 7.0722c-.0338.0338-.0584.0756-.0715.1216l-.6277 2.1969 2.1969-.6277c.0459-.0131.0878-.0377.1216-.0716z" fill="#0075ff" fill-rule="evenodd"/></svg>