<svg fill="none" height="32" viewBox="0 0 32 32" width="32" xmlns="http://www.w3.org/2000/svg" xmlns:xlink="http://www.w3.org/1999/xlink"><clipPath id="a"><path d="m0 0h32v32h-32z"/></clipPath><g clip-path="url(#a)" clip-rule="evenodd" fill="#ff659d" fill-rule="evenodd"><path d="m16 3c-7.1797 0-13 5.8203-13 13 0 7.1798 5.8203 13 13 13 7.1798 0 13-5.8202 13-13 0-7.1797-5.8202-13-13-13zm-16 13c0-8.83656 7.16344-16 16-16 8.8366 0 16 7.16344 16 16 0 8.8366-7.1634 16-16 16-8.83656 0-16-7.1634-16-16z"/><path d="m16.3529 8.6875c-2.7294 0-4.6203 1.9013-4.6203 4.2187 0 1.1071.4898 1.8282 1.1366 2.592l.2472.2847c.2576.297.5429.6255.7774.954.328.4623.6203 1.008.7173 1.6762.0231.2171-.041.4345-.179.6065-.1379.172-.3389.2852-.5608.3159-.2218.0308-.4473-.0234-.6289-.1512-.1817-.1277-.3055-.319-.3455-.5338-.0462-.3173-.1882-.6154-.4273-.9529-.1955-.265-.4044-.5203-.6261-.765-.097-.1125-.1998-.2306-.3096-.36-.7242-.8539-1.5339-1.9608-1.5339-3.6664 0-3.30745 2.7295-5.9062 6.3529-5.9062 3.6235 0 6.353 2.59875 6.353 5.9062 0 1.7056-.8097 2.8125-1.534 3.6664-.1097.1294-.2125.2475-.3095.3589-.2391.2756-.4424.5096-.6249.7661-.2403.3375-.3812.6356-.4274.9529-.0161.1097-.0542.2152-.1121.3106-.058.0953-.1347.1786-.2257.2451s-.1946.1149-.3048.1424-.2249.0336-.3375.018c-.1126-.0157-.221-.0528-.3189-.1093-.0979-.0564-.1834-.1311-.2517-.2197-.0682-.0887-.1179-.1895-.1462-.2969-.0282-.1073-.0345-.219-.0184-.3287.097-.6671.3893-1.2128.7173-1.6751.2345-.3285.5198-.657.7774-.954.0866-.099.1698-.1947.246-.2847.648-.7638 1.1378-1.4849 1.1378-2.592 0-2.3174-1.8909-4.2187-4.6204-4.2187zm-2.3101 15.4687c0-.2237.0913-.4383.2537-.5966.1625-.1582.3828-.2471.6126-.2471h2.8877c.2298 0 .4501.0889.6126.2471.1624.1583.2537.3729.2537.5966 0 .2238-.0913.4384-.2537.5967-.1625.1582-.3828.2471-.6126.2471h-2.8877c-.2298 0-.4501-.0889-.6126-.2471-.1624-.1583-.2537-.3729-.2537-.5967zm-.2888-3.6562c-.2297 0-.4501.0889-.6126.2471-.1624.1583-.2537.3729-.2537.5967 0 .2237.0913.4383.2537.5966.1625.1582.3829.2471.6126.2471h5.1979c.2297 0 .4501-.0889.6125-.2471.1625-.1583.2538-.3729.2538-.5966 0-.2238-.0913-.4384-.2538-.5967-.1624-.1582-.3828-.2471-.6125-.2471z"/></g></svg>