<svg width="131" height="45" viewBox="0 0 131 45" fill="none" xmlns="http://www.w3.org/2000/svg">
<path d="M1 42C12.1667 45.6667 35 42 42 24" stroke="#FF659D" stroke-width="2" stroke-linecap="round"/>
<path d="M14.3223 4.33789C14.3223 3.92122 14.5469 3.66732 14.9961 3.57617L15.416 3.49805C15.4616 3.48503 15.5007 3.47852 15.5332 3.47852C15.5723 3.47852 15.6081 3.47852 15.6406 3.47852C16.0378 3.47852 16.2721 3.70638 16.3438 4.16211C16.3698 4.38346 16.4023 4.66341 16.4414 5.00195C16.4805 5.34049 16.5293 5.71159 16.5879 6.11523C16.653 6.51888 16.7246 6.94206 16.8027 7.38477C16.8874 7.82747 16.9818 8.26367 17.0859 8.69336C17.1901 9.11654 17.3073 9.52018 17.4375 9.9043C17.5677 10.2884 17.7142 10.627 17.877 10.9199C18.0397 11.2129 18.2155 11.4473 18.4043 11.623C18.5996 11.7923 18.8112 11.877 19.0391 11.877C19.2018 11.877 19.3646 11.8281 19.5273 11.7305C19.6966 11.6328 19.8626 11.5059 20.0254 11.3496C20.1882 11.1868 20.3444 11.0046 20.4941 10.8027C20.6439 10.6009 20.7806 10.3958 20.9043 10.1875C21.028 9.97917 21.1387 9.7806 21.2363 9.5918C21.3405 9.39648 21.4219 9.22721 21.4805 9.08398C21.5195 8.96029 21.5391 8.84635 21.5391 8.74219C21.5391 8.6901 21.5358 8.63802 21.5293 8.58594C21.5228 8.53385 21.513 8.47852 21.5 8.41992C21.3763 8.01628 21.2819 7.61263 21.2168 7.20898C21.1517 6.80534 21.1191 6.36914 21.1191 5.90039C21.1191 5.62695 21.1419 5.35677 21.1875 5.08984C21.2331 4.82292 21.3112 4.57878 21.4219 4.35742C21.4805 4.24023 21.5684 4.13932 21.6855 4.05469C21.8027 3.97005 21.9297 3.90169 22.0664 3.84961C22.2096 3.79753 22.3561 3.76172 22.5059 3.74219C22.6621 3.71615 22.8053 3.70312 22.9355 3.70312C23.0788 3.70312 23.209 3.73242 23.3262 3.79102C23.4434 3.8431 23.5475 3.93424 23.6387 4.06445C23.821 4.31185 23.9479 4.59505 24.0195 4.91406C24.0977 5.23307 24.1367 5.55534 24.1367 5.88086C24.1367 6.23242 24.1042 6.59375 24.0391 6.96484C23.974 7.32943 23.8958 7.69401 23.8047 8.05859C23.7591 8.14974 23.7363 8.25065 23.7363 8.36133C23.7363 8.41341 23.7428 8.46875 23.7559 8.52734C23.7754 8.58594 23.7982 8.65104 23.8242 8.72266C23.9414 9.02865 24.0781 9.34115 24.2344 9.66016C24.3971 9.97266 24.5827 10.2559 24.791 10.5098C24.9993 10.7637 25.2337 10.972 25.4941 11.1348C25.7546 11.2975 26.0508 11.3789 26.3828 11.3789C26.6758 11.3789 26.9395 11.2552 27.1738 11.0078C27.4082 10.7604 27.6035 10.4479 27.7598 10.0703C27.9225 9.69271 28.0462 9.28255 28.1309 8.83984C28.2155 8.39062 28.2578 7.96419 28.2578 7.56055C28.2578 7.13086 28.2415 6.70768 28.209 6.29102C28.1764 5.87435 28.1341 5.49023 28.082 5.13867C28.069 5.10612 28.0625 5.07357 28.0625 5.04102C28.0625 5.00846 28.0625 4.97591 28.0625 4.94336C28.0625 4.57227 28.2611 4.31836 28.6582 4.18164L29.0977 4.03516C29.2214 3.99609 29.3353 3.97656 29.4395 3.97656C29.7845 3.97656 29.9928 4.19141 30.0645 4.62109C30.1361 5.02474 30.1914 5.42839 30.2305 5.83203C30.276 6.23568 30.2988 6.63932 30.2988 7.04297C30.2988 7.90234 30.1979 8.70964 29.9961 9.46484C29.7943 10.2201 29.5111 10.8809 29.1465 11.4473C28.7884 12.0072 28.362 12.4499 27.8672 12.7754C27.3724 13.1009 26.8288 13.2637 26.2363 13.2637C25.6569 13.2637 25.0742 13.0911 24.4883 12.7461C23.9023 12.3945 23.3717 11.8379 22.8965 11.0762C22.8053 10.9069 22.7012 10.8223 22.584 10.8223C22.4733 10.8223 22.3724 10.9069 22.2812 11.0762C22.0534 11.4798 21.8027 11.8542 21.5293 12.1992C21.2559 12.5378 20.9661 12.8307 20.6602 13.0781C20.3542 13.3255 20.0352 13.5176 19.7031 13.6543C19.3711 13.791 19.0358 13.8594 18.6973 13.8594C18.1504 13.8594 17.6686 13.7096 17.252 13.4102C16.8418 13.1172 16.4837 12.7233 16.1777 12.2285C15.8783 11.7337 15.6243 11.1673 15.416 10.5293C15.2077 9.88477 15.0319 9.21745 14.8887 8.52734C14.752 7.83073 14.638 7.13411 14.5469 6.4375C14.4622 5.74089 14.3874 5.08984 14.3223 4.48438V4.33789Z" fill="#FF659D"/>
<path d="M40.1328 10.8613C40.3216 10.6986 40.5072 10.6172 40.6895 10.6172C40.7936 10.6172 40.888 10.6432 40.9727 10.6953C41.0573 10.7474 41.1517 10.8288 41.2559 10.9395C41.3535 11.0892 41.4219 11.2129 41.4609 11.3105C41.5065 11.4017 41.5293 11.4928 41.5293 11.584C41.5293 11.7793 41.4316 11.9648 41.2363 12.1406C40.9238 12.401 40.5853 12.6354 40.2207 12.8438C39.8561 13.0456 39.4753 13.2181 39.0781 13.3613C38.681 13.5046 38.2708 13.612 37.8477 13.6836C37.4245 13.7617 37.0046 13.8008 36.5879 13.8008C36.0605 13.8008 35.5658 13.7324 35.1035 13.5957C34.6413 13.4655 34.2279 13.2767 33.8633 13.0293C33.5052 12.7819 33.2025 12.4857 32.9551 12.1406C32.7077 11.7891 32.5319 11.3952 32.4277 10.959C32.3691 10.7767 32.3138 10.6595 32.2617 10.6074C32.2161 10.5488 32.138 10.5195 32.0273 10.5195C31.7865 10.5195 31.6009 10.4609 31.4707 10.3438C31.3405 10.2266 31.2754 10.0573 31.2754 9.83594C31.2754 9.74479 31.2819 9.6862 31.2949 9.66016L31.3145 9.46484C31.347 9.23047 31.4089 9.0612 31.5 8.95703C31.5977 8.85286 31.7474 8.80078 31.9492 8.80078H32.0957C32.3691 8.80078 32.5612 8.67383 32.6719 8.41992C32.8737 7.9707 33.1309 7.56055 33.4434 7.18945C33.7559 6.81836 34.1074 6.5026 34.498 6.24219C34.8887 5.97526 35.3053 5.77018 35.748 5.62695C36.1973 5.47721 36.653 5.40234 37.1152 5.40234C37.597 5.40234 38.0462 5.47396 38.4629 5.61719C38.8861 5.75391 39.2539 5.94596 39.5664 6.19336C39.8789 6.44076 40.123 6.73047 40.2988 7.0625C40.4811 7.39453 40.5723 7.7526 40.5723 8.13672C40.5723 8.40365 40.5202 8.64779 40.416 8.86914C40.3118 9.0905 40.1621 9.28581 39.9668 9.45508C39.7715 9.61784 39.5339 9.7513 39.2539 9.85547C38.9805 9.95964 38.668 10.028 38.3164 10.0605L34.9277 10.4023C34.7975 10.4023 34.6901 10.4349 34.6055 10.5C34.5273 10.5651 34.4883 10.653 34.4883 10.7637C34.4883 10.9329 34.5501 11.0957 34.6738 11.252C34.804 11.4082 34.9733 11.5482 35.1816 11.6719C35.3965 11.7891 35.6406 11.8835 35.9141 11.9551C36.194 12.0267 36.4805 12.0625 36.7734 12.0625C37.0534 12.0625 37.3398 12.0365 37.6328 11.9844C37.9323 11.9258 38.2253 11.8444 38.5117 11.7402C38.8047 11.6361 39.0879 11.5124 39.3613 11.3691C39.6348 11.2194 39.8919 11.0501 40.1328 10.8613ZM37.9551 8.3418C38.0527 8.32227 38.1374 8.27669 38.209 8.20508C38.2806 8.12695 38.3164 8.03255 38.3164 7.92188C38.3164 7.82422 38.2806 7.73307 38.209 7.64844C38.1374 7.5638 38.0397 7.48893 37.916 7.42383C37.7923 7.35221 37.6491 7.29688 37.4863 7.25781C37.3236 7.21875 37.151 7.19922 36.9688 7.19922C36.7018 7.19922 36.4284 7.23828 36.1484 7.31641C35.8685 7.39453 35.6146 7.4987 35.3867 7.62891C35.1589 7.7526 34.9733 7.89258 34.8301 8.04883C34.6868 8.19857 34.6152 8.34831 34.6152 8.49805C34.6152 8.64779 34.7064 8.72266 34.8887 8.72266C34.9993 8.72266 35.1784 8.70964 35.4258 8.68359C35.6732 8.65755 35.9466 8.62826 36.2461 8.5957C36.5456 8.55664 36.8483 8.51432 37.1543 8.46875C37.4603 8.42318 37.7272 8.38086 37.9551 8.3418Z" fill="#FF659D"/>
<path d="M53.0332 4.46484C53.3913 4.46484 53.7363 4.52018 54.0684 4.63086C54.4004 4.74154 54.6934 4.89453 54.9473 5.08984C55.2012 5.28516 55.403 5.51953 55.5527 5.79297C55.709 6.06641 55.7871 6.36914 55.7871 6.70117C55.7871 6.83789 55.7546 6.97135 55.6895 7.10156C55.6309 7.22526 55.5495 7.33594 55.4453 7.43359C55.3411 7.52474 55.2207 7.59961 55.084 7.6582C54.9538 7.71029 54.8171 7.73633 54.6738 7.73633C54.6608 7.73633 54.6478 7.73958 54.6348 7.74609C54.6283 7.74609 54.6185 7.74609 54.6055 7.74609C54.5924 7.7526 54.5794 7.75586 54.5664 7.75586L54.6055 8.53711C54.6315 9.4681 54.7617 10.1484 54.9961 10.5781C55.237 11.0078 55.5495 11.2227 55.9336 11.2227C56.0703 11.2227 56.1908 11.2096 56.2949 11.1836C56.4056 11.1576 56.5065 11.1283 56.5977 11.0957C56.6953 11.0566 56.7865 11.0241 56.8711 10.998C56.9557 10.972 57.0404 10.959 57.125 10.959C57.2747 10.959 57.4049 11.0241 57.5156 11.1543C57.6328 11.2845 57.6914 11.4408 57.6914 11.623C57.6914 11.8053 57.6198 11.9876 57.4766 12.1699C57.3398 12.3522 57.1576 12.5182 56.9297 12.668C56.7018 12.8112 56.4447 12.9284 56.1582 13.0195C55.8717 13.1107 55.582 13.1562 55.2891 13.1562C54.7812 13.1562 54.3353 12.9479 53.9512 12.5312C53.5671 12.1081 53.2936 11.4896 53.1309 10.6758C53.0918 10.5456 53.0397 10.4805 52.9746 10.4805C52.8965 10.4805 52.8281 10.5195 52.7695 10.5977C52.125 11.4115 51.4382 12.0234 50.709 12.4336C49.9798 12.8372 49.2604 13.0391 48.5508 13.0391C48.2188 13.0391 47.9193 12.9902 47.6523 12.8926C47.3854 12.7949 47.1576 12.6582 46.9688 12.4824C46.7865 12.3001 46.6432 12.082 46.5391 11.8281C46.4414 11.5677 46.3926 11.278 46.3926 10.959C46.3926 10.5098 46.4902 10.0378 46.6855 9.54297C46.8874 9.04818 47.1576 8.5599 47.4961 8.07812C47.8346 7.59635 48.2253 7.13737 48.668 6.70117C49.1172 6.26497 49.5859 5.88086 50.0742 5.54883C50.569 5.2168 51.0703 4.95312 51.5781 4.75781C52.0859 4.5625 52.571 4.46484 53.0332 4.46484ZM52.7109 7.84375C52.8281 7.6224 52.9355 7.46289 53.0332 7.36523C53.1309 7.26107 53.2708 7.19271 53.4531 7.16016C53.5964 7.14062 53.668 7.09505 53.668 7.02344C53.668 6.97135 53.6484 6.91602 53.6094 6.85742C53.4857 6.68815 53.3555 6.54167 53.2188 6.41797C53.082 6.28776 52.8997 6.22266 52.6719 6.22266C52.4245 6.22266 52.1478 6.29427 51.8418 6.4375C51.5358 6.58073 51.2233 6.77279 50.9043 7.01367C50.5918 7.24805 50.2826 7.51823 49.9766 7.82422C49.6771 8.1237 49.4102 8.43294 49.1758 8.75195C48.9414 9.07096 48.7526 9.38672 48.6094 9.69922C48.4661 10.0117 48.3945 10.2917 48.3945 10.5391C48.3945 10.7604 48.4531 10.9329 48.5703 11.0566C48.694 11.1803 48.86 11.2422 49.0684 11.2422C49.6022 11.2422 50.1849 10.959 50.8164 10.3926C51.4479 9.82617 52.0794 8.97656 52.7109 7.84375Z" fill="#FF659D"/>
<path d="M63.3066 5.69531C63.0658 5.69531 62.8542 5.76042 62.6719 5.89062C62.4896 6.01432 62.3333 6.1901 62.2031 6.41797C62.0729 6.63932 61.9655 6.90299 61.8809 7.20898C61.7962 7.50846 61.7279 7.83724 61.6758 8.19531C61.6237 8.55339 61.5879 8.92773 61.5684 9.31836C61.5488 9.70898 61.5391 10.1029 61.5391 10.5C61.5391 11.0208 61.5586 11.5352 61.5977 12.043C61.6432 12.5443 61.666 13.0098 61.666 13.4395C61.666 13.7194 61.5618 13.9375 61.3535 14.0938C61.1452 14.2565 60.849 14.3379 60.4648 14.3379C60.3932 14.3379 60.3118 14.3314 60.2207 14.3184C60.1296 14.3053 60.0417 14.2793 59.957 14.2402C59.8789 14.2012 59.8073 14.1458 59.7422 14.0742C59.6836 14.0091 59.651 13.918 59.6445 13.8008C59.5859 13.2279 59.5013 12.6419 59.3906 12.043C59.2799 11.444 59.14 10.8483 58.9707 10.2559C58.8079 9.6569 58.6094 9.06445 58.375 8.47852C58.1471 7.89258 57.8835 7.31966 57.584 6.75977C57.5319 6.66211 57.4863 6.57096 57.4473 6.48633C57.4147 6.40169 57.3984 6.32031 57.3984 6.24219C57.3984 6.14453 57.4408 6.04036 57.5254 5.92969C57.6165 5.8125 57.7272 5.70508 57.8574 5.60742C57.9941 5.50977 58.1406 5.43164 58.2969 5.37305C58.4596 5.30794 58.6159 5.27539 58.7656 5.27539C59.013 5.27539 59.2311 5.44792 59.4199 5.79297C59.6087 6.13151 59.7845 6.67513 59.9473 7.42383C59.9798 7.55404 60.0059 7.64518 60.0254 7.69727C60.0449 7.74935 60.071 7.77539 60.1035 7.77539C60.1751 7.77539 60.2207 7.66471 60.2402 7.44336C60.3184 6.82487 60.4518 6.29427 60.6406 5.85156C60.8294 5.40234 61.0638 5.03451 61.3438 4.74805C61.6302 4.45508 61.9557 4.24023 62.3203 4.10352C62.6914 3.9668 63.0983 3.89844 63.541 3.89844C63.7949 3.89844 64.0521 3.92122 64.3125 3.9668C64.5729 4.01237 64.8073 4.08073 65.0156 4.17188C65.224 4.26302 65.3932 4.3737 65.5234 4.50391C65.6536 4.63411 65.7188 4.7806 65.7188 4.94336C65.7188 5.06055 65.6927 5.20052 65.6406 5.36328C65.5951 5.51953 65.5332 5.67253 65.4551 5.82227C65.377 5.96549 65.2858 6.08919 65.1816 6.19336C65.084 6.29102 64.9831 6.33984 64.8789 6.33984C64.7617 6.33984 64.6478 6.30729 64.5371 6.24219C64.4264 6.17057 64.306 6.0957 64.1758 6.01758C64.0521 5.93945 63.9186 5.86784 63.7754 5.80273C63.6387 5.73112 63.4824 5.69531 63.3066 5.69531Z" fill="#FF659D"/>
<path d="M73.4141 10.8613C73.6029 10.6986 73.7884 10.6172 73.9707 10.6172C74.0749 10.6172 74.1693 10.6432 74.2539 10.6953C74.3385 10.7474 74.4329 10.8288 74.5371 10.9395C74.6348 11.0892 74.7031 11.2129 74.7422 11.3105C74.7878 11.4017 74.8105 11.4928 74.8105 11.584C74.8105 11.7793 74.7129 11.9648 74.5176 12.1406C74.2051 12.401 73.8665 12.6354 73.502 12.8438C73.1374 13.0456 72.7565 13.2181 72.3594 13.3613C71.9622 13.5046 71.5521 13.612 71.1289 13.6836C70.7057 13.7617 70.2858 13.8008 69.8691 13.8008C69.3418 13.8008 68.847 13.7324 68.3848 13.5957C67.9225 13.4655 67.5091 13.2767 67.1445 13.0293C66.7865 12.7819 66.4837 12.4857 66.2363 12.1406C65.9889 11.7891 65.8132 11.3952 65.709 10.959C65.6504 10.7767 65.5951 10.6595 65.543 10.6074C65.4974 10.5488 65.4193 10.5195 65.3086 10.5195C65.0677 10.5195 64.8822 10.4609 64.752 10.3438C64.6217 10.2266 64.5566 10.0573 64.5566 9.83594C64.5566 9.74479 64.5632 9.6862 64.5762 9.66016L64.5957 9.46484C64.6283 9.23047 64.6901 9.0612 64.7812 8.95703C64.8789 8.85286 65.0286 8.80078 65.2305 8.80078H65.377C65.6504 8.80078 65.8424 8.67383 65.9531 8.41992C66.1549 7.9707 66.4121 7.56055 66.7246 7.18945C67.0371 6.81836 67.3887 6.5026 67.7793 6.24219C68.1699 5.97526 68.5866 5.77018 69.0293 5.62695C69.4785 5.47721 69.9342 5.40234 70.3965 5.40234C70.8783 5.40234 71.3275 5.47396 71.7441 5.61719C72.1673 5.75391 72.5352 5.94596 72.8477 6.19336C73.1602 6.44076 73.4043 6.73047 73.5801 7.0625C73.7624 7.39453 73.8535 7.7526 73.8535 8.13672C73.8535 8.40365 73.8014 8.64779 73.6973 8.86914C73.5931 9.0905 73.4434 9.28581 73.248 9.45508C73.0527 9.61784 72.8151 9.7513 72.5352 9.85547C72.2617 9.95964 71.9492 10.028 71.5977 10.0605L68.209 10.4023C68.0788 10.4023 67.9714 10.4349 67.8867 10.5C67.8086 10.5651 67.7695 10.653 67.7695 10.7637C67.7695 10.9329 67.8314 11.0957 67.9551 11.252C68.0853 11.4082 68.2546 11.5482 68.4629 11.6719C68.6777 11.7891 68.9219 11.8835 69.1953 11.9551C69.4753 12.0267 69.7617 12.0625 70.0547 12.0625C70.3346 12.0625 70.6211 12.0365 70.9141 11.9844C71.2135 11.9258 71.5065 11.8444 71.793 11.7402C72.0859 11.6361 72.3691 11.5124 72.6426 11.3691C72.916 11.2194 73.1732 11.0501 73.4141 10.8613ZM71.2363 8.3418C71.334 8.32227 71.4186 8.27669 71.4902 8.20508C71.5618 8.12695 71.5977 8.03255 71.5977 7.92188C71.5977 7.82422 71.5618 7.73307 71.4902 7.64844C71.4186 7.5638 71.321 7.48893 71.1973 7.42383C71.0736 7.35221 70.9303 7.29688 70.7676 7.25781C70.6048 7.21875 70.4323 7.19922 70.25 7.19922C69.9831 7.19922 69.7096 7.23828 69.4297 7.31641C69.1497 7.39453 68.8958 7.4987 68.668 7.62891C68.4401 7.7526 68.2546 7.89258 68.1113 8.04883C67.9681 8.19857 67.8965 8.34831 67.8965 8.49805C67.8965 8.64779 67.9876 8.72266 68.1699 8.72266C68.2806 8.72266 68.4596 8.70964 68.707 8.68359C68.9544 8.65755 69.2279 8.62826 69.5273 8.5957C69.8268 8.55664 70.1296 8.51432 70.4355 8.46875C70.7415 8.42318 71.0085 8.38086 71.2363 8.3418Z" fill="#FF659D"/>
<path d="M79.9082 3.5957C79.9082 2.89258 80.3639 2.54102 81.2754 2.54102C81.4316 2.54102 81.5684 2.58333 81.6855 2.66797C81.8027 2.7526 81.8711 2.86979 81.8906 3.01953C81.9492 3.41667 82.0013 3.81055 82.0469 4.20117C82.0924 4.5918 82.1348 5.03125 82.1738 5.51953C82.2194 6.0013 82.2617 6.5612 82.3008 7.19922C82.3464 7.83073 82.3952 8.58594 82.4473 9.46484C82.4473 9.55599 82.4603 9.62109 82.4863 9.66016C82.5189 9.69922 82.5547 9.71875 82.5938 9.71875C82.6523 9.71875 82.7109 9.66016 82.7695 9.54297C82.9909 9.05469 83.2383 8.61849 83.5117 8.23438C83.7852 7.84375 84.0781 7.51497 84.3906 7.24805C84.7031 6.97461 85.0319 6.76953 85.377 6.63281C85.7285 6.48958 86.0866 6.41797 86.4512 6.41797C86.9329 6.41797 87.3691 6.55469 87.7598 6.82812C88.1504 7.10156 88.4824 7.48893 88.7559 7.99023C89.0293 8.49154 89.2409 9.10026 89.3906 9.81641C89.5404 10.526 89.6152 11.3203 89.6152 12.1992C89.6152 12.4401 89.5957 12.6387 89.5566 12.7949C89.5241 12.9447 89.4655 13.0651 89.3809 13.1562C89.2962 13.2474 89.179 13.3092 89.0293 13.3418C88.8796 13.3809 88.694 13.4004 88.4727 13.4004C88.1667 13.4004 87.9453 13.3418 87.8086 13.2246C87.6784 13.1074 87.6133 12.9251 87.6133 12.6777C87.6133 12.0658 87.571 11.4896 87.4863 10.9492C87.4082 10.4023 87.2975 9.92383 87.1543 9.51367C87.0111 9.10352 86.8418 8.778 86.6465 8.53711C86.4577 8.29622 86.2526 8.17578 86.0312 8.17578C85.5299 8.17578 85.0286 8.58268 84.5273 9.39648C84.0326 10.2103 83.515 11.4375 82.9746 13.0781C82.9225 13.2279 82.8639 13.3516 82.7988 13.4492C82.7337 13.5469 82.6556 13.625 82.5645 13.6836C82.4798 13.7422 82.3756 13.7812 82.252 13.8008C82.1283 13.8268 81.9818 13.8398 81.8125 13.8398C81.4674 13.8398 81.2201 13.7747 81.0703 13.6445C80.9271 13.5143 80.849 13.2995 80.8359 13C80.7969 11.8672 80.7253 10.7865 80.6211 9.75781C80.5234 8.72266 80.4193 7.78841 80.3086 6.95508C80.2044 6.11523 80.11 5.4056 80.0254 4.82617C79.9473 4.24023 79.9082 3.83008 79.9082 3.5957Z" fill="#FF659D"/>
<path d="M92.3887 3.03906C92.1999 3.03906 92.0208 3.01302 91.8516 2.96094C91.6888 2.90234 91.5456 2.82422 91.4219 2.72656C91.3047 2.6224 91.2103 2.50195 91.1387 2.36523C91.0671 2.22852 91.0312 2.07878 91.0312 1.91602C91.0312 1.64258 91.1387 1.42122 91.3535 1.25195C91.5749 1.08268 91.8678 0.998047 92.2324 0.998047C92.4017 0.998047 92.5645 1.0306 92.7207 1.0957C92.877 1.1543 93.0137 1.23568 93.1309 1.33984C93.2546 1.44401 93.3522 1.56771 93.4238 1.71094C93.4954 1.84766 93.5312 1.99089 93.5312 2.14062C93.5312 2.42057 93.4271 2.64193 93.2188 2.80469C93.0169 2.96094 92.7402 3.03906 92.3887 3.03906ZM91.0508 6.01758C91.0508 5.78971 91.1484 5.60417 91.3438 5.46094C91.5456 5.3112 91.8092 5.23633 92.1348 5.23633C92.7207 5.23633 93.0332 5.43815 93.0723 5.8418C93.0983 6.12174 93.1244 6.4375 93.1504 6.78906C93.1829 7.14062 93.2122 7.51497 93.2383 7.91211C93.2708 8.30273 93.2969 8.70964 93.3164 9.13281C93.3424 9.54948 93.3652 9.96289 93.3848 10.373C93.4043 10.7767 93.4206 11.1673 93.4336 11.5449C93.4466 11.9225 93.4531 12.2676 93.4531 12.5801C93.4531 12.9056 93.3359 13.1497 93.1016 13.3125C92.8737 13.4753 92.5384 13.5566 92.0957 13.5566C91.8939 13.5566 91.7344 13.5078 91.6172 13.4102C91.5065 13.319 91.4512 13.1823 91.4512 13C91.4512 12.1016 91.4284 11.2617 91.3828 10.4805C91.3438 9.69271 91.2982 8.99284 91.2461 8.38086C91.2005 7.76888 91.1549 7.26107 91.1094 6.85742C91.0703 6.44727 91.0508 6.16732 91.0508 6.01758Z" fill="#FF659D"/>
<path d="M100.553 5.69531C100.312 5.69531 100.1 5.76042 99.918 5.89062C99.7357 6.01432 99.5794 6.1901 99.4492 6.41797C99.319 6.63932 99.2116 6.90299 99.127 7.20898C99.0423 7.50846 98.974 7.83724 98.9219 8.19531C98.8698 8.55339 98.834 8.92773 98.8145 9.31836C98.7949 9.70898 98.7852 10.1029 98.7852 10.5C98.7852 11.0208 98.8047 11.5352 98.8438 12.043C98.8893 12.5443 98.9121 13.0098 98.9121 13.4395C98.9121 13.7194 98.8079 13.9375 98.5996 14.0938C98.3913 14.2565 98.0951 14.3379 97.7109 14.3379C97.6393 14.3379 97.5579 14.3314 97.4668 14.3184C97.3756 14.3053 97.2878 14.2793 97.2031 14.2402C97.125 14.2012 97.0534 14.1458 96.9883 14.0742C96.9297 14.0091 96.8971 13.918 96.8906 13.8008C96.832 13.2279 96.7474 12.6419 96.6367 12.043C96.526 11.444 96.3861 10.8483 96.2168 10.2559C96.054 9.6569 95.8555 9.06445 95.6211 8.47852C95.3932 7.89258 95.1296 7.31966 94.8301 6.75977C94.778 6.66211 94.7324 6.57096 94.6934 6.48633C94.6608 6.40169 94.6445 6.32031 94.6445 6.24219C94.6445 6.14453 94.6869 6.04036 94.7715 5.92969C94.8626 5.8125 94.9733 5.70508 95.1035 5.60742C95.2402 5.50977 95.3867 5.43164 95.543 5.37305C95.7057 5.30794 95.862 5.27539 96.0117 5.27539C96.2591 5.27539 96.4772 5.44792 96.666 5.79297C96.8548 6.13151 97.0306 6.67513 97.1934 7.42383C97.2259 7.55404 97.252 7.64518 97.2715 7.69727C97.291 7.74935 97.3171 7.77539 97.3496 7.77539C97.4212 7.77539 97.4668 7.66471 97.4863 7.44336C97.5645 6.82487 97.6979 6.29427 97.8867 5.85156C98.0755 5.40234 98.3099 5.03451 98.5898 4.74805C98.8763 4.45508 99.2018 4.24023 99.5664 4.10352C99.9375 3.9668 100.344 3.89844 100.787 3.89844C101.041 3.89844 101.298 3.92122 101.559 3.9668C101.819 4.01237 102.053 4.08073 102.262 4.17188C102.47 4.26302 102.639 4.3737 102.77 4.50391C102.9 4.63411 102.965 4.7806 102.965 4.94336C102.965 5.06055 102.939 5.20052 102.887 5.36328C102.841 5.51953 102.779 5.67253 102.701 5.82227C102.623 5.96549 102.532 6.08919 102.428 6.19336C102.33 6.29102 102.229 6.33984 102.125 6.33984C102.008 6.33984 101.894 6.30729 101.783 6.24219C101.673 6.17057 101.552 6.0957 101.422 6.01758C101.298 5.93945 101.165 5.86784 101.021 5.80273C100.885 5.73112 100.729 5.69531 100.553 5.69531Z" fill="#FF659D"/>
<path d="M103.814 3.03906C103.626 3.03906 103.447 3.01302 103.277 2.96094C103.115 2.90234 102.971 2.82422 102.848 2.72656C102.73 2.6224 102.636 2.50195 102.564 2.36523C102.493 2.22852 102.457 2.07878 102.457 1.91602C102.457 1.64258 102.564 1.42122 102.779 1.25195C103.001 1.08268 103.294 0.998047 103.658 0.998047C103.827 0.998047 103.99 1.0306 104.146 1.0957C104.303 1.1543 104.439 1.23568 104.557 1.33984C104.68 1.44401 104.778 1.56771 104.85 1.71094C104.921 1.84766 104.957 1.99089 104.957 2.14062C104.957 2.42057 104.853 2.64193 104.645 2.80469C104.443 2.96094 104.166 3.03906 103.814 3.03906ZM102.477 6.01758C102.477 5.78971 102.574 5.60417 102.77 5.46094C102.971 5.3112 103.235 5.23633 103.561 5.23633C104.146 5.23633 104.459 5.43815 104.498 5.8418C104.524 6.12174 104.55 6.4375 104.576 6.78906C104.609 7.14062 104.638 7.51497 104.664 7.91211C104.697 8.30273 104.723 8.70964 104.742 9.13281C104.768 9.54948 104.791 9.96289 104.811 10.373C104.83 10.7767 104.846 11.1673 104.859 11.5449C104.872 11.9225 104.879 12.2676 104.879 12.5801C104.879 12.9056 104.762 13.1497 104.527 13.3125C104.299 13.4753 103.964 13.5566 103.521 13.5566C103.32 13.5566 103.16 13.5078 103.043 13.4102C102.932 13.319 102.877 13.1823 102.877 13C102.877 12.1016 102.854 11.2617 102.809 10.4805C102.77 9.69271 102.724 8.99284 102.672 8.38086C102.626 7.76888 102.581 7.26107 102.535 6.85742C102.496 6.44727 102.477 6.16732 102.477 6.01758Z" fill="#FF659D"/>
<path d="M106.852 5.11914C106.852 5.02148 106.894 4.92708 106.979 4.83594C107.063 4.73828 107.174 4.65365 107.311 4.58203C107.447 4.50391 107.6 4.44206 107.77 4.39648C107.945 4.3444 108.121 4.31836 108.297 4.31836C108.395 4.31836 108.476 4.3444 108.541 4.39648C108.613 4.44857 108.674 4.54948 108.727 4.69922C108.779 4.84245 108.824 5.04753 108.863 5.31445C108.909 5.57487 108.951 5.91667 108.99 6.33984C109.016 6.47005 109.039 6.57096 109.059 6.64258C109.085 6.70768 109.117 6.74023 109.156 6.74023C109.215 6.74023 109.273 6.63932 109.332 6.4375C109.807 5.0638 110.494 4.37695 111.393 4.37695C111.809 4.37695 112.187 4.50716 112.525 4.76758C112.87 5.02799 113.189 5.45443 113.482 6.04688C113.782 6.63281 114.065 7.40755 114.332 8.37109C114.599 9.32812 114.866 10.5098 115.133 11.916C115.146 11.9876 115.156 12.0527 115.162 12.1113C115.169 12.1699 115.172 12.2253 115.172 12.2773C115.172 12.4271 115.136 12.5573 115.064 12.668C114.999 12.7721 114.911 12.86 114.801 12.9316C114.69 12.9967 114.566 13.0456 114.43 13.0781C114.293 13.1172 114.156 13.1367 114.02 13.1367C113.746 13.1367 113.548 13.1074 113.424 13.0488C113.307 12.9902 113.232 12.8796 113.199 12.7168C113.01 11.7272 112.825 10.8483 112.643 10.0801C112.467 9.31185 112.291 8.66732 112.115 8.14648C111.946 7.61914 111.777 7.21875 111.607 6.94531C111.438 6.67188 111.269 6.53516 111.1 6.53516C110.93 6.53516 110.771 6.64258 110.621 6.85742C110.478 7.06576 110.338 7.39453 110.201 7.84375C110.064 8.29297 109.931 8.86263 109.801 9.55273C109.677 10.2428 109.557 11.0664 109.439 12.0234C109.407 12.2839 109.277 12.4922 109.049 12.6484C108.821 12.8047 108.531 12.8828 108.18 12.8828C107.945 12.8828 107.766 12.834 107.643 12.7363C107.519 12.6387 107.451 12.5052 107.438 12.3359C107.379 10.9818 107.314 9.86849 107.242 8.99609C107.177 8.11719 107.115 7.41406 107.057 6.88672C106.998 6.35286 106.949 5.95573 106.91 5.69531C106.871 5.4349 106.852 5.24284 106.852 5.11914Z" fill="#FF659D"/>
<path d="M121.363 5.38281C121.676 5.38281 121.972 5.40885 122.252 5.46094C122.532 5.50651 122.786 5.55859 123.014 5.61719C123.242 5.66927 123.437 5.72135 123.6 5.77344C123.762 5.81901 123.88 5.8418 123.951 5.8418C124.01 5.8418 124.065 5.8125 124.117 5.75391C124.169 5.6888 124.234 5.62044 124.312 5.54883C124.391 5.47721 124.495 5.41211 124.625 5.35352C124.755 5.28841 124.928 5.25586 125.143 5.25586C125.39 5.25586 125.585 5.32096 125.729 5.45117C125.872 5.57487 125.943 5.73112 125.943 5.91992C125.943 8.30273 125.862 10.3275 125.699 11.9941C125.536 13.6543 125.273 15.0052 124.908 16.0469C124.544 17.0885 124.072 17.8438 123.492 18.3125C122.913 18.7812 122.21 19.0156 121.383 19.0156C121.005 19.0156 120.611 18.931 120.201 18.7617C119.798 18.5924 119.426 18.3743 119.088 18.1074C118.749 17.847 118.469 17.5573 118.248 17.2383C118.033 16.9193 117.926 16.6133 117.926 16.3203C117.926 16.2227 117.978 16.1087 118.082 15.9785C118.186 15.8483 118.313 15.7214 118.463 15.5977C118.613 15.474 118.769 15.3698 118.932 15.2852C119.094 15.2005 119.234 15.1582 119.352 15.1582C119.475 15.1582 119.579 15.207 119.664 15.3047C119.749 15.4089 119.827 15.5358 119.898 15.6855C119.977 15.8353 120.055 15.998 120.133 16.1738C120.211 16.3561 120.309 16.5221 120.426 16.6719C120.543 16.8216 120.686 16.9453 120.855 17.043C121.025 17.1471 121.236 17.1992 121.49 17.1992C122.91 17.1992 123.743 15.0312 123.99 10.6953C123.99 10.5 123.935 10.4023 123.824 10.4023C123.733 10.4023 123.661 10.4479 123.609 10.5391C122.997 11.3659 122.281 11.9876 121.461 12.4043C120.647 12.8145 119.742 13.0195 118.746 13.0195C118.284 13.0195 117.857 12.9512 117.467 12.8145C117.076 12.6712 116.738 12.4759 116.451 12.2285C116.171 11.9746 115.953 11.6751 115.797 11.3301C115.641 10.9785 115.562 10.5944 115.562 10.1777C115.562 9.76758 115.634 9.36393 115.777 8.9668C115.927 8.56315 116.132 8.18555 116.393 7.83398C116.66 7.47591 116.975 7.14714 117.34 6.84766C117.704 6.54818 118.102 6.29102 118.531 6.07617C118.961 5.85482 119.413 5.68555 119.889 5.56836C120.37 5.44466 120.862 5.38281 121.363 5.38281ZM119.049 11.2227C119.941 11.2227 120.758 10.9427 121.5 10.3828C122.242 9.81641 122.877 8.99609 123.404 7.92188C123.417 7.88281 123.427 7.85352 123.434 7.83398C123.44 7.80794 123.443 7.7819 123.443 7.75586C123.443 7.69076 123.375 7.6224 123.238 7.55078C123.102 7.47917 122.923 7.41732 122.701 7.36523C122.48 7.31315 122.226 7.27083 121.939 7.23828C121.66 7.19922 121.376 7.17969 121.09 7.17969C120.628 7.17969 120.182 7.25781 119.752 7.41406C119.322 7.57031 118.941 7.77865 118.609 8.03906C118.277 8.29948 118.01 8.5957 117.809 8.92773C117.607 9.25977 117.506 9.60482 117.506 9.96289C117.506 10.347 117.646 10.653 117.926 10.8809C118.212 11.1087 118.587 11.2227 119.049 11.2227Z" fill="#FF659D"/>
<path d="M127.438 1.79883C127.411 1.70768 127.389 1.6263 127.369 1.55469C127.356 1.48307 127.35 1.41146 127.35 1.33984C127.35 1.15755 127.405 1.00456 127.516 0.880859C127.633 0.757161 127.805 0.695312 128.033 0.695312C129.042 0.695312 129.596 0.936198 129.693 1.41797C129.811 2.02995 129.918 2.64518 130.016 3.26367C130.113 3.88216 130.198 4.51042 130.27 5.14844C130.348 5.77995 130.406 6.42448 130.445 7.08203C130.491 7.73307 130.514 8.40039 130.514 9.08398C130.514 9.21419 130.507 9.34115 130.494 9.46484C130.481 9.58203 130.455 9.68945 130.416 9.78711C130.377 9.87825 130.322 9.95312 130.25 10.0117C130.185 10.0703 130.094 10.0996 129.977 10.0996L129.156 9.98242C128.987 9.96289 128.867 9.91406 128.795 9.83594C128.73 9.7513 128.691 9.63411 128.678 9.48438C128.626 8.29297 128.495 7.04622 128.287 5.74414C128.079 4.44206 127.796 3.12695 127.438 1.79883ZM129.449 13.8203C129.26 13.8203 129.081 13.791 128.912 13.7324C128.749 13.6803 128.606 13.6022 128.482 13.498C128.365 13.4004 128.271 13.2832 128.199 13.1465C128.128 13.0098 128.092 12.86 128.092 12.6973C128.092 12.4238 128.199 12.2025 128.414 12.0332C128.635 11.8639 128.928 11.7793 129.293 11.7793C129.462 11.7793 129.625 11.8118 129.781 11.877C129.938 11.9355 130.074 12.0169 130.191 12.1211C130.315 12.2253 130.413 12.349 130.484 12.4922C130.556 12.6289 130.592 12.7721 130.592 12.9219C130.592 13.2018 130.488 13.4199 130.279 13.5762C130.077 13.7389 129.801 13.8203 129.449 13.8203Z" fill="#FF659D"/>
</svg>
