<svg width="30" height="32" viewBox="0 0 30 32" fill="none" xmlns="http://www.w3.org/2000/svg">
<path d="M3.5 3C3.22386 3 3 3.22386 3 3.5V26.5C3 26.7761 3.22386 27 3.5 27H10.5C11.3284 27 12 27.6716 12 28.5C12 29.3284 11.3284 30 10.5 30H3.5C1.567 30 0 28.433 0 26.5V3.5C0 1.567 1.567 0 3.5 0H19.5C20.7844 0 21.9071 0.691806 22.516 1.72311C22.5874 1.83364 22.73 2.14375 22.73 2.5C22.73 3.32843 22.0584 4 21.23 4C20.6789 4 20.199 3.70184 19.9382 3.25902C19.8531 3.10461 19.6888 3 19.5 3H3.5Z" fill="#FF659D"/>
<path fill-rule="evenodd" clip-rule="evenodd" d="M14 14C14 9.58172 17.5817 6 22 6C26.4183 6 30 9.58172 30 14C30 16.5348 28.8211 18.7943 26.9817 20.26L28.9709 30.2061C29.0772 30.7375 28.8886 31.2849 28.4775 31.6381C28.0664 31.9912 27.4967 32.0951 26.9874 31.9099L22.1709 30.1585C22.0605 30.1183 21.9395 30.1183 21.8292 30.1585L17.0127 31.9099C16.5033 32.0951 15.9337 31.9912 15.5226 31.6381C15.1115 31.2849 14.9229 30.7375 15.0292 30.2061L17.0184 20.2601C15.1789 18.7943 14 16.5348 14 14ZM22 9C19.2386 9 17 11.2386 17 14C17 16.7614 19.2386 19 22 19C24.7614 19 27 16.7614 27 14C27 11.2386 24.7614 9 22 9ZM22 22C22.7661 22 23.507 21.8923 24.2085 21.6913L25.5061 28.1791L23.1961 27.3391C22.4235 27.0581 21.5766 27.0581 20.8039 27.3391L18.494 28.1791L19.7915 21.6913C20.493 21.8923 21.2339 22 22 22Z" fill="#FF659D"/>
</svg>
