<svg fill="none" height="32" viewBox="0 0 32 32" width="32" xmlns="http://www.w3.org/2000/svg"><g fill="#0075ff"><circle cx="16" cy="16" opacity=".15" r="16"/><path d="m16 6c-5.5 0-10 4.5-10 10s4.5 10 10 10 10-4.5 10-10-4.5-10-10-10zm0 2c3 0 5.5 1.6 6.9 4h-6.9c-1.9 0-3.6 1.4-3.9 3.2l-2.4-4.1c1.5-1.9 3.7-3.1 6.3-3.1zm3 8c0 1.7-1.3 3-3 3s-3-1.3-3-3 1.3-3 3-3 3 1.3 3 3zm-11 0c0-1.5.4-2.8 1.1-4l3.5 6c.7 1.2 2 2 3.4 2 .5 0 .9-.1 1.3-.2l-2.4 4.1c-3.9-.5-6.9-3.9-6.9-7.9zm8 8 3.5-6c.3-.6.6-1.3.6-2 0-1.2-.5-2.3-1.4-3h4.8c.4.9.6 1.9.6 3-.1 4.4-3.7 8-8.1 8z"/></g></svg>