<svg fill="none" height="32" viewBox="0 0 32 32" width="32" xmlns="http://www.w3.org/2000/svg"><g fill="#ff659d"><path d="m16.9393 9.93934c-.5857.58576-.5857 1.53556 0 2.12136l2.9394 2.9393-2.9394 2.9393c-.5857.5858-.5857 1.5356 0 2.1214.5858.5857 1.5356.5857 2.1214 0l4-4c.5857-.5858.5857-1.5356 0-2.1214l-4-3.99996c-.5858-.58579-1.5356-.58579-2.1214 0z"/><path d="m13.0607 12.0607c.5857-.5858.5857-1.5356 0-2.12136-.5858-.58579-1.5356-.58579-2.1214 0l-3.99996 3.99996c-.58579.5858-.58579 1.5356 0 2.1214l3.99996 4c.5858.5857 1.5356.5857 2.1214 0 .5857-.5858.5857-1.5356 0-2.1214l-2.9394-2.9393z"/><path clip-rule="evenodd" d="m24.4931 26.6144c-2.5858 2.1161-5.8912 3.3856-9.4931 3.3856-8.28427 0-15-6.7157-15-15 0-8.28427 6.71573-15 15-15 8.2843 0 15 6.71573 15 15 0 3.6019-1.2695 6.9073-3.3856 9.4931l4.9463 4.9462c.5857.5858.5857 1.5356 0 2.1214-.5858.5857-1.5356.5857-2.1214 0zm-21.4931-11.6144c0-6.62742 5.37258-12 12-12 6.6274 0 12 5.37258 12 12 0 3.1648-1.2251 6.0434-3.227 8.1875-.1196.0663-.2321.1503-.3337.2518-.1015.1016-.1855.2141-.2518.3337-2.1441 2.0019-5.0227 3.227-8.1875 3.227-6.62742 0-12-5.3726-12-12z" fill-rule="evenodd"/></g></svg>