<svg width="48" height="48" viewBox="-13 -13 52 52" fill="none" xmlns="http://www.w3.org/2000/svg"><circle cx="13" cy="13" r="26" fill="#DDD" fill-opacity="0.2" /><path fill-rule="evenodd" clip-rule="evenodd" d="m12.56 5.378 4.193-4.194a.438.438 0 0 1 .747.31V9.88c0 .39-.471.585-.747.31l-4.194-4.194a.438.438 0 0 1 0-.619ZM5.686 4.375a1.313 1.313 0 1 0 0 2.625 1.313 1.313 0 0 0 0-2.625ZM1.75 5.688A3.938 3.938 0 1 1 7 9.4v9.198a3.94 3.94 0 0 1-1.313 7.651 3.938 3.938 0 0 1-1.312-7.651V9.401A3.94 3.94 0 0 1 1.75 5.688Zm17.5-1.313H17.5V7h1.75c.966 0 1.75.784 1.75 1.75v9.849a3.94 3.94 0 0 0 1.312 7.651 3.938 3.938 0 0 0 1.313-7.651V8.75a4.375 4.375 0 0 0-4.375-4.375ZM4.375 22.313a1.313 1.313 0 1 1 2.625 0 1.313 1.313 0 0 1-2.625 0Zm16.625 0a1.313 1.313 0 1 1 2.625 0 1.313 1.313 0 0 1-2.625 0Z" fill="#45C8F1"/></svg>