<svg fill="none" height="32" viewBox="0 0 32 32" width="32" xmlns="http://www.w3.org/2000/svg"><circle cx="16" cy="16" fill="#f0f8ff" r="16"/><path clip-rule="evenodd" d="m7 8.96875c0-.46599.37776-.84375.84375-.84375h4.78445c1.3807 0 2.6066.66328 3.3762 1.68869.7696-1.02537 1.9955-1.68869 3.3762-1.68869h4.7756c.466 0 .8438.37776.8438.84375v11.81245c0 .466-.3778.8438-.8438.8438h-5.0708c-.6713 0-1.3151.2667-1.7898.7414l-.699.6989c-.3295.3295-.8637.3295-1.1932 0l-.699-.6989c-.4747-.4747-1.1185-.7414-1.7899-.7414h-5.07075c-.46599 0-.84375-.3778-.84375-.8438zm9.8494 3.37505c0-1.398 1.1333-2.5313 2.5312-2.5313h3.9319v10.125h-4.2271c-.7987 0-1.5741.2266-2.2403.644zm-1.6918 8.2395.0043-5.7075-.0024-2.5345c-.0014-1.397-1.1343-2.5288-2.5313-2.5288h-3.9407v10.125h4.227c.7999 0 1.5764.2271 2.2431.6458z" fill="#0075ff" fill-rule="evenodd"/></svg>