<svg fill="none" height="15" viewBox="0 0 16 15" width="16" xmlns="http://www.w3.org/2000/svg"><path clip-rule="evenodd" d="m16 9.25v-7.5c0-.966498-.7835-1.75-1.75-1.75h-12.5c-.966498 0-1.75.783502-1.75 1.75v7.5c0 .9665.783502 1.75 1.75 1.75h3.72702c-.0991 1.041-.52019 1.8724-1.29209 2.7568-.19339.2216-.23941.5358-.11771.8036.1217.2677.38867.4396.68278.4396h6.5c.2941 0 .5611-.1719.6828-.4396.1217-.2678.0757-.582-.1177-.8036-.7719-.8844-1.193-1.7158-1.2921-2.7568h3.727c.9665 0 1.75-.7835 1.75-1.75zm-1.5-7.5v7.5c0 .13807-.1119.25-.25.25h-12.5c-.13807 0-.25-.11193-.25-.25v-7.5c0-.13807.11193-.25.25-.25h12.5c.1381 0 .25.11193.25.25zm-5.48217 9.25h-2.03566c-.06827.9377-.33119 1.7473-.76485 2.5h3.56536c-.43367-.7527-.69659-1.5623-.76485-2.5z" fill="#697280" fill-rule="evenodd"/></svg>