<svg fill="none" height="32" viewBox="0 0 32 32" width="32" xmlns="http://www.w3.org/2000/svg"><circle cx="16" cy="16" fill="#f0f8ff" r="16"/><path clip-rule="evenodd" d="m18.5608 10.4762c.0535-.0641.1327-.1012.2161-.1012h.8793c.1554 0 .2813.1259.2813.2812v1.6876 6.1874 1.6876c0 .1553-.1259.2812-.2813.2812h-.8793c-.0834 0-.1626-.0371-.2161-.1012l-1.0689-1.2827c-.1369-.1643-.3312-.2705-.5435-.2971l-3.5145-.4393c-.1408-.0176-.2464-.1372-.2464-.2791v-2.9444-2.3818c0-.1419.1056-.2615.2464-.2791l3.5145-.4393c.2123-.0266.4066-.1327.5435-.2971zm-7.0608 5.5238v2.1006c0 .9929.7393 1.8304 1.7246 1.9536l3.1841.398.8558 1.0269c.374.4489.9281.7084 1.5124.7084h.8793c1.0874 0 1.9688-.8814 1.9688-1.9687v-.8438h2.5312c.466 0 .8438-.3778.8438-.8438 0-.4659-.3778-.8437-.8438-.8437h-2.5312v-4.5h2.5312c.466 0 .8438-.3778.8438-.8437 0-.466-.3778-.8438-.8438-.8438h-2.5312v-.8438c0-1.08726-.8814-1.9687-1.9688-1.9687h-.8793c-.5843 0-1.1384.25953-1.5124.70839l-.8558 1.02691-3.1841.398c-.9853.1232-1.7246.9607-1.7246 1.9536v1.5381h-1.6875c-1.5533 0-2.8125 1.2592-2.8125 2.8125v5.9062c0 .466.37776.8438.84375.8438s.84375-.3778.84375-.8438v-5.9062c0-.6213.50368-1.125 1.125-1.125z" fill="#0075ff" fill-rule="evenodd"/></svg>