<svg fill="none" height="32" viewBox="0 0 32 32" width="32" xmlns="http://www.w3.org/2000/svg"><circle cx="16" cy="16" fill="#f0f8ff" r="16"/><path clip-rule="evenodd" d="m15.6549 8.19882c.2195-.09843.4707-.09843.6902 0l8.1563 3.65628c.3034.136.4986.4374.4986.7699s-.1952.6339-.4986.7699l-2.8764 1.2894v3.1438c0 1.1519-.9119 1.9676-1.8668 2.4451-1.0054.5028-2.3353.7893-3.7582.7893-.3127 0-.6196-.0138-.9186-.0404-.4641-.0414-.8069-.4511-.7656-.9153.0414-.4642.4511-.8069.9153-.7655.2488.0221.5058.0337.7689.0337 1.2177 0 2.2785-.2486 3.0035-.6111.7756-.3878.934-.7674.934-.9358v-2.3873l-3.5924 1.6104c-.2195.0984-.4707.0984-.6902 0l-4.1549-1.8625v1.8707c.333.1185.6466.31.913.5764.493.493.7745 1.1911.7745 2.0204v3.375c0 .2239-.0889.4385-.2471.5968-.1583.1581-.3729.2471-.5967.247l-3.37498-.0001c-.46598 0-.84372-.3778-.84372-.8438v-3.375c0-.8292.28155-1.5274.77448-2.0203.26641-.2664.57997-.4579.91302-.5764v-2.6272l-2.31389-1.0373c-.30338-.136-.49861-.4374-.49861-.7699s.19523-.6339.49861-.7699zm-5.74847 4.42618 6.09357 2.7316 6.0936-2.7316-6.0936-2.7316zm-.09393 7.0311c0-.4362.14032-.6872.2802-.8271.1478-.1478.3504-.2274.5635-.2274.2132 0 .4157.0796.5636.2274.1399.14.2802.391.2802.8272v2.5313h-1.6875z" fill="#0075ff" fill-rule="evenodd"/></svg>