<svg fill="none" height="48" viewBox="0 0 48 48" width="48" xmlns="http://www.w3.org/2000/svg" xmlns:xlink="http://www.w3.org/1999/xlink"><clipPath id="a"><path d="m0 0h48v48h-48z"/></clipPath><g clip-path="url(#a)"><path d="m24 48c13.2548 0 24-10.7452 24-24s-10.7452-24-24-24-24 10.7452-24 24 10.7452 24 24 24z" fill="#ddd" fill-opacity=".2"/><path clip-rule="evenodd" d="m15.125 18.25c.4144 0 .8118-.1646 1.1049-.4576.293-.2931.4576-.6905.4576-1.1049s-.1646-.8118-.4576-1.1049c-.2931-.293-.6905-.4576-1.1049-.4576s-.8118.1646-1.1049.4576c-.293.2931-.4576.6905-.4576 1.1049s.1646.8118.4576 1.1049c.2931.293.6905.4576 1.1049.4576zm5.8594-2.3438c-.3108 0-.6089.1235-.8287.3433-.2197.2198-.3432.5178-.3432.8286s.1235.6089.3432.8287c.2198.2197.5179.3432.8287.3432h13.2812c.3108 0 .6089-.1235.8287-.3432.2197-.2198.3432-.5179.3432-.8287s-.1235-.6088-.3432-.8286c-.2198-.2198-.5179-.3433-.8287-.3433zm0 7.8126c-.3108 0-.6089.1234-.8287.3432-.2197.2198-.3432.5178-.3432.8286s.1235.6089.3432.8287c.2198.2197.5179.3432.8287.3432h13.2812c.3108 0 .6089-.1235.8287-.3432.2197-.2198.3432-.5179.3432-.8287s-.1235-.6088-.3432-.8286c-.2198-.2198-.5179-.3432-.8287-.3432zm0 7.8124c-.3108 0-.6089.1235-.8287.3433-.2197.2198-.3432.5178-.3432.8286s.1235.6089.3432.8287c.2198.2197.5179.3432.8287.3432h13.2812c.3108 0 .6089-.1235.8287-.3432.2197-.2198.3432-.5179.3432-.8287s-.1235-.6088-.3432-.8286c-.2198-.2198-.5179-.3433-.8287-.3433zm-4.2969-7.0312c0 .4144-.1646.8118-.4576 1.1049-.2931.293-.6905.4576-1.1049.4576s-.8118-.1646-1.1049-.4576c-.293-.2931-.4576-.6905-.4576-1.1049s.1646-.8118.4576-1.1049c.2931-.293.6905-.4576 1.1049-.4576s.8118.1646 1.1049.4576c.293.2931.4576.6905.4576 1.1049zm-1.5625 9.375c.4144 0 .8118-.1646 1.1049-.4576.293-.2931.4576-.6905.4576-1.1049s-.1646-.8118-.4576-1.1049c-.2931-.293-.6905-.4576-1.1049-.4576s-.8118.1646-1.1049.4576c-.293.2931-.4576.6905-.4576 1.1049s.1646.8118.4576 1.1049c.2931.293.6905.4576 1.1049.4576z" fill="#0075ff" fill-rule="evenodd"/></g></svg>