<svg width="26" height="26" viewBox="0 0 26 26" fill="none" xmlns="http://www.w3.org/2000/svg">
<g clip-path="url(#clip0_1167_3733)">
<path opacity="0.15" d="M13 26C20.1797 26 26 20.1797 26 13C26 5.8203 20.1797 0 13 0C5.8203 0 0 5.8203 0 13C0 20.1797 5.8203 26 13 26Z" fill="#0075FF"/>
<path fill-rule="evenodd" clip-rule="evenodd" d="M18.4681 13.2728C17.989 13.1362 17.5836 13.2147 17.2636 13.3666C16.727 13.6213 16.4306 14.0825 16.4306 14.0825L19.8513 15.0566C19.8513 15.0566 19.8117 14.4998 19.4669 13.994C19.2612 13.6925 18.9471 13.4091 18.4681 13.2728ZM11.1573 12.5018C11.1573 12.5018 11.4537 12.0408 11.9902 11.7855C12.3106 11.633 12.7165 11.5539 13.196 11.6902C13.6758 11.8265 13.9901 12.1101 14.1955 12.4119C14.5398 12.9173 14.5788 13.4736 14.5788 13.4736L11.1573 12.5018ZM12.2287 16.4237C11.7848 15.84 11.6841 15.3197 11.6841 15.3197L17.7443 17.014C17.7443 17.014 17.4023 17.4105 16.7497 17.6877C16.1682 17.9347 15.3402 18.0869 14.288 17.7795C13.2453 17.4741 12.6102 16.9254 12.2287 16.4237Z" fill="#0075FF"/>
<path fill-rule="evenodd" clip-rule="evenodd" d="M8.72438 15.5129C8.75001 15.7672 8.78425 16.0211 8.82814 16.2728C8.85594 16.4322 8.88784 16.5915 8.92411 16.7502L7.4633 17.1644C7.4633 17.1644 7.63833 16.1474 8.72438 15.5129Z" fill="#0075FF"/>
<path d="M7.99198 12.6733L5.35962 13.3668C5.35962 13.3668 5.94134 14.2061 6.92843 13.9462C7.91526 13.686 7.99198 12.6733 7.99198 12.6733Z" fill="#0075FF"/>
<path fill-rule="evenodd" clip-rule="evenodd" d="M3.51495 11.0248C3.54683 11.5271 3.66654 12.3062 3.94062 13.3348C4.19625 14.295 4.70581 15.6388 5.4994 16.7771C6.29373 17.9165 7.37159 18.8488 8.76293 18.9877C9.08803 19.0201 9.43029 19.0092 9.79007 18.9475C9.62159 18.6689 9.47561 18.3783 9.34992 18.0796L10.1948 17.724C10.3046 17.9849 10.4307 18.2354 10.5745 18.4732L11.2703 19.6238L9.94497 19.8511C9.50647 19.9262 9.08149 19.9406 8.67189 19.8997C6.89848 19.7228 5.61273 18.5426 4.74743 17.3014C3.87533 16.0504 3.32884 14.5999 3.05486 13.5708C2.76959 12.5002 2.63676 11.66 2.60012 11.0828C2.58829 10.8981 2.59223 10.6164 2.73096 10.3399C2.8999 10.0031 3.19215 9.81754 3.47995 9.74605C3.71575 9.68746 3.93918 9.7067 4.07135 9.7225C4.20926 9.73897 4.35997 9.76786 4.48655 9.79212L4.50342 9.79536C4.59334 9.81257 4.68143 9.82942 4.77466 9.84551C5.2011 9.91935 6.32934 10.0254 7.74027 9.64499C7.78845 9.632 7.84306 9.61562 7.9035 9.59588L8.1882 10.4672C8.11558 10.4909 8.04537 10.5121 7.97891 10.53M8.69432 9.28475C8.41668 9.40657 8.13708 9.51955 7.9035 9.59588L8.1882 10.4672C8.46291 10.3774 8.77358 10.251 9.06262 10.1242L9.12108 10.0984C9.15351 10.084 9.18562 10.0697 9.21732 10.0554V10.1242C9.1344 10.4337 9.05305 10.7797 8.97937 11.1532C8.69138 12.6133 8.52048 14.495 8.8303 16.2717C8.93739 16.8857 9.10518 17.498 9.34992 18.0796L10.1948 17.724C9.98088 17.2156 9.83049 16.6712 9.73334 16.1142C9.44957 14.4868 9.6034 12.7264 9.8787 11.3306C9.94844 10.977 10.0252 10.651 10.1028 10.3614L10.134 10.2448V8.63739L8.84099 9.21955C8.81083 9.23313 8.78035 9.24675 8.74963 9.26037L8.69432 9.28475ZM7.97891 10.53C6.41303 10.9522 5.14643 10.8402 4.61826 10.7487C4.51576 10.731 4.41994 10.7127 4.33106 10.6957L4.31402 10.6924C4.18108 10.6669 4.06274 10.6446 3.96262 10.6327C3.91377 10.6269 3.86709 10.6228 3.81935 10.623C3.77118 10.6233 3.73167 10.628 3.70096 10.6357C3.66513 10.6446 3.63398 10.6595 3.6102 10.6773C3.5889 10.6933 3.5683 10.7151 3.5503 10.7509C3.51894 10.8135 3.50714 10.9028 3.51495 11.0248" fill="#0075FF"/>
<path fill-rule="evenodd" clip-rule="evenodd" d="M10.2985 7.07177C10.397 6.87377 10.5579 6.61142 10.834 6.43069C11.1655 6.21377 11.5282 6.19802 11.8321 6.28512C12.085 6.35765 12.2907 6.49845 12.4223 6.59653C12.5583 6.69792 12.7021 6.82165 12.8304 6.93208L12.8447 6.94439L12.2468 7.63917C11.688 7.1583 11.4018 6.91204 11.1192 7.48012C10.8298 8.06205 10.4601 9.00658 10.1014 10.331C9.32533 13.1974 8.74585 19.2453 13.5424 20.5188C18.3389 21.7899 20.8931 16.2651 21.6691 13.3979C22.0271 12.0743 22.1839 11.0726 22.2275 10.4267C22.27 9.79422 21.8966 9.86615 21.1688 10.0064C21.0537 10.0286 20.9297 10.0524 20.7972 10.0755C20.1132 10.1944 18.4715 10.3418 16.4429 9.80385C14.4143 9.26593 13.0682 8.32598 12.5347 7.88375C12.4311 7.79785 12.3355 7.71556 12.2468 7.63917L12.8447 6.94439C12.934 7.02125 13.0236 7.09828 13.1197 7.17803M13.1197 7.17803C13.5741 7.55469 14.8039 8.42089 16.6779 8.9178C18.5523 9.41489 20.057 9.27374 20.6402 9.17237C20.7634 9.15094 20.8795 9.12859 20.9953 9.10629L21.0138 9.10272C21.181 9.07048 21.3679 9.03446 21.5368 9.01397C21.6999 8.99417 21.9484 8.97399 22.2036 9.03605C22.5102 9.11062 22.8203 9.30424 23.0006 9.66114C23.1504 9.95788 23.1569 10.2676 23.1422 10.488C23.0935 11.2081 22.9236 12.2711 22.5541 13.6372C22.1466 15.1424 21.2671 17.3809 19.8138 19.1017C18.3377 20.8493 16.1624 22.1614 13.3075 21.4048C10.4502 20.6463 9.22559 18.4292 8.82941 16.1813C8.43969 13.9702 8.80924 11.5959 9.21654 10.0914C9.58677 8.72469 9.9759 7.72049 10.2985 7.07177" fill="#0075FF"/>
<path d="M9.34992 18.0796C9.47561 18.3783 9.62159 18.6689 9.79007 18.9475C9.43029 19.0092 9.08803 19.0201 8.76293 18.9877C7.37159 18.8488 6.29373 17.9165 5.4994 16.7771C4.70581 15.6388 4.19625 14.295 3.94062 13.3348C3.66654 12.3062 3.54683 11.5271 3.51495 11.0248C3.50714 10.9028 3.51894 10.8135 3.5503 10.7509C3.5683 10.7151 3.5889 10.6933 3.6102 10.6773C3.63398 10.6595 3.66513 10.6446 3.70096 10.6357C3.73167 10.628 3.77118 10.6233 3.81935 10.623C3.86709 10.6228 3.91377 10.6269 3.96262 10.6327C4.06274 10.6446 4.18108 10.6669 4.31402 10.6924L4.33106 10.6957C4.41994 10.7127 4.51576 10.731 4.61826 10.7487C5.14643 10.8402 6.41303 10.9522 7.97891 10.53C8.04537 10.5121 8.11558 10.4909 8.1882 10.4672M9.34992 18.0796L10.1948 17.724M9.34992 18.0796C9.10518 17.498 8.93739 16.8857 8.8303 16.2717C8.52048 14.495 8.69138 12.6133 8.97937 11.1532C9.05305 10.7797 9.1344 10.4337 9.21732 10.1242V10.0554C9.18562 10.0697 9.15351 10.084 9.12108 10.0984L9.06262 10.1242C8.77358 10.251 8.46291 10.3774 8.1882 10.4672M10.1948 17.724C10.3046 17.9849 10.4307 18.2354 10.5745 18.4732L11.2703 19.6238L9.94497 19.8511C9.50647 19.9262 9.08149 19.9406 8.67189 19.8997C6.89848 19.7228 5.61273 18.5426 4.74743 17.3014C3.87533 16.0504 3.32884 14.5999 3.05486 13.5708C2.76959 12.5002 2.63676 11.66 2.60012 11.0828C2.58829 10.8981 2.59223 10.6164 2.73096 10.3399C2.8999 10.0031 3.19215 9.81754 3.47995 9.74605C3.71575 9.68746 3.93918 9.7067 4.07135 9.7225C4.20926 9.73897 4.35997 9.76786 4.48655 9.79212L4.50342 9.79536C4.59334 9.81257 4.68143 9.82942 4.77466 9.84551C5.2011 9.91935 6.32934 10.0254 7.74027 9.64499C7.78845 9.632 7.84306 9.61562 7.9035 9.59588M10.1948 17.724C9.98088 17.2156 9.83049 16.6712 9.73334 16.1142C9.44957 14.4868 9.6034 12.7264 9.8787 11.3306C9.94844 10.977 10.0252 10.651 10.1028 10.3614L10.134 10.2448V8.63739L8.84099 9.21955C8.81083 9.23313 8.78035 9.24675 8.74963 9.26037L8.69432 9.28475C8.41668 9.40657 8.13708 9.51955 7.9035 9.59588M7.9035 9.59588L8.1882 10.4672M12.8447 6.94439L12.8304 6.93208C12.7021 6.82165 12.5583 6.69792 12.4223 6.59653C12.2907 6.49845 12.085 6.35765 11.8321 6.28512C11.5282 6.19802 11.1655 6.21377 10.834 6.43069C10.5579 6.61142 10.397 6.87377 10.2985 7.07177C9.9759 7.72049 9.58677 8.72469 9.21654 10.0914C8.80924 11.5959 8.43969 13.9702 8.82941 16.1813C9.22559 18.4292 10.4502 20.6463 13.3075 21.4048C16.1624 22.1614 18.3377 20.8493 19.8138 19.1017C21.2671 17.3809 22.1466 15.1424 22.5541 13.6372C22.9236 12.2711 23.0935 11.2081 23.1422 10.488C23.1569 10.2676 23.1504 9.95788 23.0006 9.66114C22.8203 9.30424 22.5102 9.11062 22.2036 9.03605C21.9484 8.97399 21.6999 8.99417 21.5368 9.01397C21.3679 9.03446 21.181 9.07048 21.0138 9.10272L20.9953 9.10629C20.8795 9.12859 20.7634 9.15094 20.6402 9.17237C20.057 9.27374 18.5523 9.41489 16.6779 8.9178C14.8039 8.42089 13.5741 7.55469 13.1197 7.17803C13.0236 7.09828 12.934 7.02125 12.8447 6.94439ZM12.8447 6.94439L12.2468 7.63917M12.2468 7.63917C11.688 7.1583 11.4018 6.91204 11.1192 7.48012C10.8298 8.06205 10.4601 9.00658 10.1014 10.331C9.32533 13.1974 8.74585 19.2453 13.5424 20.5188C18.3389 21.7899 20.8931 16.2651 21.6691 13.3979C22.0271 12.0743 22.1839 11.0726 22.2275 10.4267C22.27 9.79422 21.8966 9.86615 21.1688 10.0064C21.0537 10.0286 20.9297 10.0524 20.7972 10.0755C20.1132 10.1944 18.4715 10.3418 16.4429 9.80385C14.4143 9.26593 13.0682 8.32598 12.5347 7.88375C12.4311 7.79785 12.3355 7.71556 12.2468 7.63917ZM18.4681 13.2728C17.989 13.1362 17.5836 13.2147 17.2636 13.3666C16.727 13.6213 16.4306 14.0825 16.4306 14.0825L19.8513 15.0566C19.8513 15.0566 19.8117 14.4998 19.4669 13.994C19.2612 13.6925 18.9471 13.4091 18.4681 13.2728ZM11.1573 12.5018C11.1573 12.5018 11.4537 12.0408 11.9902 11.7855C12.3106 11.633 12.7165 11.5539 13.196 11.6902C13.6758 11.8265 13.9901 12.1101 14.1955 12.4119C14.5398 12.9173 14.5788 13.4736 14.5788 13.4736L11.1573 12.5018ZM12.2287 16.4237C11.7848 15.84 11.6841 15.3197 11.6841 15.3197L17.7443 17.014C17.7443 17.014 17.4023 17.4105 16.7497 17.6877C16.1682 17.9347 15.3402 18.0869 14.288 17.7795C13.2453 17.4741 12.6102 16.9254 12.2287 16.4237ZM8.72438 15.5129C8.75001 15.7672 8.78425 16.0211 8.82814 16.2728C8.85594 16.4322 8.88784 16.5915 8.92411 16.7502L7.4633 17.1644C7.4633 17.1644 7.63833 16.1474 8.72438 15.5129ZM7.99198 12.6733L5.35962 13.3668C5.35962 13.3668 5.94134 14.2061 6.92843 13.9462C7.91526 13.686 7.99198 12.6733 7.99198 12.6733Z" stroke="#0075FF" stroke-width="0.25"/>
</g>
<defs>
<clipPath id="clip0_1167_3733">
<rect width="26" height="26" fill="white"/>
</clipPath>
</defs>
</svg>
