<svg fill="none" viewBox="69.62 62 160.35 169.55" xmlns="http://www.w3.org/2000/svg"><path d="m97.0239 205.745c6.2691-3.62 6.2801-15.339.0232-26.176-6.2566-10.836-16.411-16.687-22.6805-13.067s-6.2799 15.339-.0233 26.176c6.2566 10.836 16.4111 16.686 22.6806 13.067z" fill="#f26e7e"/><path d="m225.253 192.693c6.256-10.836 6.246-22.555-.024-26.175-6.269-3.62-16.423 2.23-22.68 13.067-6.257 10.836-6.246 22.555.023 26.175 6.27 3.62 16.424-2.23 22.681-13.067z" fill="#8a3391"/><path d="m139.748 230.446c6.27-3.62 6.28-15.339.024-26.176-6.257-10.836-16.411-16.686-22.681-13.067-6.269 3.62-6.28 15.339-.023 26.176 6.257 10.836 16.411 16.687 22.68 13.067z" fill="#f26e7e"/><path d="m182.536 217.354c6.257-10.837 6.247-22.556-.023-26.176-6.269-3.619-16.424 2.231-22.68 13.067-6.257 10.837-6.247 22.556.023 26.176 6.269 3.62 16.424-2.231 22.68-13.067z" fill="#8a3391"/><path d="m149.771 88.2169c12.513 0 22.657-5.8688 22.657-13.1084s-10.144-13.1085-22.657-13.1085c-12.514 0-22.658 5.8689-22.658 13.1085s10.144 13.1084 22.658 13.1084z" fill="#f7bf2a"/><path d="m97.0092 156.365c6.2698-3.619 6.2798-15.338.0233-26.175-6.2566-10.836-16.4111-16.687-22.6806-13.067s-6.2799 15.339-.0233 26.175c6.2567 10.837 16.4111 16.687 22.6806 13.067z" fill="#f26e7e"/><path d="m107.055 112.852c12.514 0 22.658-5.869 22.658-13.1082 0-7.2396-10.144-13.1085-22.658-13.1085-12.513 0-22.6571 5.8689-22.6571 13.1085 0 7.2392 10.1441 13.1082 22.6571 13.1082z" fill="#f7bf2a"/><path d="m225.228 143.326c6.256-10.837 6.246-22.556-.023-26.176-6.27-3.619-16.424 2.231-22.681 13.067-6.257 10.837-6.246 22.556.023 26.176 6.27 3.62 16.424-2.231 22.681-13.067z" fill="#8a3391"/><path d="m192.543 112.852c12.513 0 22.657-5.869 22.657-13.1082 0-7.2396-10.144-13.1085-22.657-13.1085s-22.657 5.8689-22.657 13.1085c0 7.2392 10.144 13.1082 22.657 13.1082z" fill="#f7bf2a"/><path d="m139.735 181.067c6.269-3.62 6.28-15.339.023-26.175-6.257-10.837-16.411-16.687-22.68-13.067-6.27 3.619-6.28 15.339-.024 26.175 6.257 10.837 16.411 16.687 22.681 13.067z" fill="#f26e7e"/><path d="m182.512 167.986c6.257-10.836 6.246-22.556-.023-26.175-6.27-3.62-16.424 2.23-22.681 13.067-6.257 10.836-6.246 22.555.023 26.175 6.27 3.62 16.424-2.23 22.681-13.067z" fill="#8a3391"/><path d="m149.771 137.543c12.513 0 22.657-5.869 22.657-13.109 0-7.239-10.144-13.108-22.657-13.108-12.514 0-22.658 5.869-22.658 13.108 0 7.24 10.144 13.109 22.658 13.109z" fill="#f7bf2a"/></svg>