<svg fill="none" height="32" viewBox="0 0 32 32" width="32" xmlns="http://www.w3.org/2000/svg"><path clip-rule="evenodd" d="m16 3c-7.1797 0-13 5.8203-13 13 0 7.1798 5.8203 13 13 13 7.1798 0 13-5.8202 13-13 0-7.1797-5.8202-13-13-13zm-16 13c0-8.83656 7.16344-16 16-16 8.8366 0 16 7.16344 16 16 0 8.8366-7.1634 16-16 16-8.83656 0-16-7.1634-16-16zm18 6c0 1.1046-.8954 2-2 2s-2-.8954-2-2 .8954-2 2-2 2 .8954 2 2zm-4.1584-9.8292c.1611-.322.379-.5985.6779-.7977.2896-.193.743-.3731 1.4805-.3731.5595 0 1.1058.1731 1.475.45.3291.2468.525.5702.525 1.05 0 .3532-.0816.5276-.1543.6367-.0907.1361-.2472.2865-.5528.4903-.1528.1018-.3171.2008-.5178.3212l-.0123.0074c-.1874.1124-.4087.2452-.6262.3902-.4444.2963-.9755.7084-1.3847 1.3224-.4595.6894-.2732 1.6206.4161 2.0801s1.6206.2732 2.0801-.4161c.0907-.1361.2472-.2866.5528-.4903.1527-.1019.3171-.2009.5178-.3213l.0124-.0074.0001-.0001c.1873-.1124.4085-.2451.6259-.39.4444-.2963.9754-.7084 1.3847-1.3223.4274-.6409.6582-1.404.6582-2.3008 0-1.5202-.7208-2.69684-1.725-3.45-.9642-.72312-2.1678-1.05-3.275-1.05-1.2625 0-2.3091.31992-3.1446.87692-.8261.55074-1.3581 1.27428-1.697 1.95228-.3705.7409-.0702 1.642.6708 2.0124.7409.3705 1.642.0702 2.0124-.6708z" fill="#8492a6" fill-rule="evenodd"/></svg>