<svg fill="none" height="48" viewBox="-13 -13 52 52" width="48" xmlns="http://www.w3.org/2000/svg"><circle cx="13" cy="13" fill="#ddd" fill-opacity=".2" r="26"/><path clip-rule="evenodd" d="m24.6119 0c-4.061.00017111-7.9557 1.61356-10.8273 4.48525l-.8032.8015c-.5495.5495-1.078 1.12175-1.582 1.71325h-5.60701c-.52293.00016-1.0371.13421-1.49355.38937-.45644.25519-.83993.62299-1.11395 1.06838l-2.992499 4.85455c-.1050459.1706-.1696321.363-.18880786.5624-.01917574.1995.00756806.4007.07818136.5882.0706135.1875.1832215.3564.3291945.4936.145971.1373.321431.2393.512932.2983l5.428499 1.6694c.06475.0893.13825.1751.217.2538l4.25071 4.249c.0805.0805.1645.154.2538.2188l1.6695 5.4284c.0589.1915.161.367.2982.513.1373.1459.3061.2586.4936.3291.1876.0707.3888.0973.5882.0783.1995-.0193.3919-.0839.5625-.1889l4.8545-2.9872c.4454-.274.8132-.6575 1.0684-1.1139.2551-.4566.3892-.9707.3894-1.4936v-5.6123c.5915-.504 1.1637-1.0324 1.7132-1.5819l.8015-.8033c2.8719-2.8708 4.486-6.7648 4.487-10.8255v-.3255c0-.81223-.3227-1.59118-.897-2.165515-.5744-.57433-1.3533-.896985-2.1655-.896985zm-6.237 18.5938c-.154.1049-.3097.2065-.4655.3062l-4.1125 2.6618.959 3.1202 3.4108-2.1c.0637-.0392.1162-.094.1526-.1593.0365-.0652.0556-.1387.0556-.2135zm-11.93851-4.3908 2.6635-4.1125c.1015-.1575.20475-.3115.308-.4655h-3.61725c-.07474-.00002-.14826.01911-.2135.05556-.06526.03646-.12008.08902-.15925.15269l-2.1 3.41245zm9.20501-7.86275c2.3788-2.37841 5.6049-3.71476 8.9688-3.71525h.3255c.116 0 .2273.0461.3094.12813.082.08206.1281.19335.1281.30937v.3255c.0001 1.66623-.3278 3.31618-.9653 4.85566-.6374 1.53945-1.5719 2.93824-2.75 4.11664l-.8032.8014c-1.33 1.33-2.7948 2.5148-4.3733 3.5351l-4.0548 2.625-3.75021-3.7503 2.62501-4.0548c1.0209-1.57873 2.2058-3.04521 3.535-4.37495l.8015-.8015zm5.3585 2.40975c0 .46414-.1844.90925-.5126 1.23744-.3281.32816-.7733.51256-1.2374.51256s-.9093-.1844-1.2374-.51256c-.3283-.32819-.5126-.7733-.5126-1.23744s.1843-.90925.5126-1.23744c.3281-.32818.7733-.51256 1.2374-.51256s.9093.18438 1.2374.51256c.3282.32819.5126.7733.5126 1.23744zm-14.77001 16.73c.2579-.2403.46477-.5301.60823-.8521.14348-.322.22062-.6695.22684-1.0221.00623-.3525-.05861-.7025-.19063-1.0294-.13204-.3269-.32855-.6237-.5778-.8731-.24927-.2492-.54619-.4457-.87304-.5776-.32686-.1322-.67697-.1969-1.02942-.1908-.35247.0063-.70007.0835-1.02207.2268-.32198.1435-.6118.3503-.85211.6083-1.2845 1.2775-1.832249 4.081-2.012499 5.2552-.010658.0634-.006025.1283.01351.1894s.053408.1167.098791.162c.045384.0455.100963.0793.162099.0989.061138.0195.126059.0242.18935.0135 1.174249-.1802 3.977749-.728 5.258749-2.009z" fill="#0075ff" fill-rule="evenodd"/></svg>