<svg fill="none" height="48" viewBox="-13 -13 52 52" width="48" xmlns="http://www.w3.org/2000/svg"><circle cx="13" cy="13" fill="#ddd" fill-opacity=".2" r="26"/><path clip-rule="evenodd" d="m19.1248 11.25c0 1.0341-.2037 2.0581-.5995 3.0136-.3957.9554-.9758 1.8235-1.707 2.5549-.7313.7311-1.5994 1.3112-2.5548 1.7071-.9555.3957-1.9795.5994-3.0137.5994-1.0341 0-2.05816-.2037-3.01361-.5994-.95543-.3959-1.82357-.976-2.55483-1.7071-.73127-.7314-1.31132-1.5995-1.70709-2.5549-.39576-.9555-.59944-1.9795-.59944-3.0136 0-2.08864.82967-4.09167 2.30653-5.56851 1.47685-1.47686 3.47988-2.30654 5.56844-2.30654 2.0886 0 4.0916.82968 5.5685 2.30654 1.4769 1.47684 2.3065 3.47987 2.3065 5.56851zm-1.435 8.295c-2.1098 1.6379-4.7646 2.4102-7.4238 2.1596-2.65927-.2504-5.12308-1.505-6.88986-3.5082-1.7668-2.0032-2.703749-4.6044-2.620134-7.2741.083632-2.66975 1.181544-5.20725 3.070234-7.09594 1.88871-1.88868 4.42619-2.986599 7.09586-3.070232 2.6698-.08362 5.271.853332 7.2742 2.620132 2.0032 1.76679 3.2578 4.23059 3.5082 6.88984.2506 2.6592-.5217 5.314-2.1597 7.4239l5.32 5.32c.129.1202.2324.2651.3042.4261.0717.161.1102.3347.1134.511.0031.1762-.0294.3512-.0954.5147-.066.1634-.1643.3118-.2889.4364-.1246.1248-.273.2229-.4365.2889-.1634.066-.3384.0986-.5146.0954-.1763-.0031-.3502-.0416-.511-.1134-.161-.0717-.3059-.1752-.4262-.3041z" fill="#0075ff" fill-rule="evenodd"/></svg>