<svg fill="none" height="32" viewBox="0 0 32 32" width="32" xmlns="http://www.w3.org/2000/svg" xmlns:xlink="http://www.w3.org/1999/xlink"><clipPath id="a"><path d="m0 0h32v32h-32z"/></clipPath><g clip-path="url(#a)" clip-rule="evenodd" fill="#ff659d" fill-rule="evenodd"><path d="m16 3c-7.1797 0-13 5.8203-13 13 0 7.1798 5.8203 13 13 13 7.1798 0 13-5.8202 13-13 0-7.1797-5.8202-13-13-13zm-16 13c0-8.83656 7.16344-16 16-16 8.8366 0 16 7.16344 16 16 0 8.8366-7.1634 16-16 16-8.83656 0-16-7.1634-16-16z"/><path d="m16.0012 7c.17-.00011.3368.0474.4813.13714.1445.08975.261.21815.3363.37068l2.2864 4.63478 5.1146.7435c.1682.0244.3262.0954.4562.205.13.1095.2267.2532.2793.4149.0526.1616.0589.3347.0182.4998-.0406.165-.1267.3154-.2483.4341l-3.7005 3.6082.8735 5.0928c.0288.1675.0101.3398-.0539.4973-.064.1576-.1708.294-.3083.394s-.3003.1595-.4699.1718-.3392-.0231-.4897-.1022l-4.5752-2.4054-4.5753 2.4054c-.1504.079-.3199.1144-.4893.1021-.1695-.0123-.3321-.0717-.4696-.1715s-.2443-.2361-.3084-.3934-.083-.3294-.0545-.4969l.8747-5.0952-3.7029-3.607c-.12202-.1187-.20835-.2691-.24923-.4343-.04088-.1653-.03466-.3386.01795-.5005.0526-.1619.1495-.3058.2797-.4154s.2885-.1806.45697-.2048l5.11461-.7423 2.2876-4.63478c.0753-.15253.1918-.28093.3363-.37068.1445-.08974.3113-.13725.4814-.13714zm0 2.97038-1.6827 3.40772c-.0653.1323-.1618.2468-.2811.3335-.1194.0868-.258.1433-.404.1646l-3.76252.5467 2.72132 2.6533c.1059.1031.1851.2304.2308.3709.0457.1406.0566.2901.0316.4358l-.6414 3.7467 3.364-1.7689c.1307-.0687.2762-.1047.424-.1047.1477 0 .2932.036.4239.1047l3.3653 1.7689-.6439-3.7467c-.025-.1457-.0141-.2952.0316-.4358.0457-.1405.1249-.2678.2308-.3709l2.7213-2.6521-3.7613-.5467c-.146-.0213-.2846-.0778-.404-.1646-.1193-.0867-.2158-.2012-.2811-.3335l-1.6826-3.41014z"/></g></svg>