<svg height="16" viewBox="0 0 16 16" width="16" xmlns="http://www.w3.org/2000/svg"><path d="m0 2.75c0-.966.784-1.75 1.75-1.75h12.5c.966 0 1.75.784 1.75 1.75v10.5a1.75 1.75 0 0 1 -1.75 1.75h-12.5a1.75 1.75 0 0 1 -1.75-1.75zm1.75-.25a.25.25 0 0 0 -.25.25v10.5c0 .138.112.25.25.25h12.5a.25.25 0 0 0 .25-.25v-10.5a.25.25 0 0 0 -.25-.25zm5.5 5.5a.749.749 0 0 1 -.22.53l-2.25 2.25a.749.749 0 0 1 -1.275-.326.749.749 0 0 1 .215-.734l1.72-1.72-1.72-1.72a.749.749 0 0 1 .326-1.275.749.749 0 0 1 .734.215l2.25 2.25c.141.14.22.331.22.53zm1.5 1.5h3a.75.75 0 0 1 0 1.5h-3a.75.75 0 0 1 0-1.5z" fill="#3c4858"/></svg>