<svg fill="none" height="12" viewBox="0 0 14 12" width="14" xmlns="http://www.w3.org/2000/svg"><path clip-rule="evenodd" d="m1 2c.55228 0 1-.44772 1-1s-.44772-1-1-1-1 .44772-1 1 .44772 1 1 1zm3.75-1.5c-.41421 0-.75.33579-.75.75s.33579.75.75.75h8.5c.4142 0 .75-.33579.75-.75s-.3358-.75-.75-.75zm0 5c-.41421 0-.75.33579-.75.75s.33579.75.75.75h8.5c.4142 0 .75-.33579.75-.75s-.3358-.75-.75-.75zm0 5c-.41421 0-.75.3358-.75.75s.33579.75.75.75h8.5c.4142 0 .75-.3358.75-.75s-.3358-.75-.75-.75zm-2.75-4.5c0 .55228-.44772 1-1 1s-1-.44772-1-1 .44772-1 1-1 1 .44772 1 1zm-1 6c.55228 0 1-.4477 1-1s-.44772-1-1-1-1 .4477-1 1 .44772 1 1 1z" fill="#697280" fill-rule="evenodd"/></svg>