<svg width="14" height="12" viewBox="0 0 14 12" fill="none" xmlns="http://www.w3.org/2000/svg">
<path fill-rule="evenodd" clip-rule="evenodd" d="M1 2C1.55228 2 2 1.55228 2 1C2 0.44772 1.55228 0 1 0C0.44772 0 0 0.44772 0 1C0 1.55228 0.44772 2 1 2ZM4.75 0.5C4.33579 0.5 4 0.83579 4 1.25C4 1.66421 4.33579 2 4.75 2H13.25C13.6642 2 14 1.66421 14 1.25C14 0.83579 13.6642 0.5 13.25 0.5H4.75ZM4.75 5.5C4.33579 5.5 4 5.83579 4 6.25C4 6.66421 4.33579 7 4.75 7H13.25C13.6642 7 14 6.66421 14 6.25C14 5.83579 13.6642 5.5 13.25 5.5H4.75ZM4.75 10.5C4.33579 10.5 4 10.8358 4 11.25C4 11.6642 4.33579 12 4.75 12H13.25C13.6642 12 14 11.6642 14 11.25C14 10.8358 13.6642 10.5 13.25 10.5H4.75ZM2 6C2 6.55228 1.55228 7 1 7C0.44772 7 0 6.55228 0 6C0 5.44772 0.44772 5 1 5C1.55228 5 2 5.44772 2 6ZM1 12C1.55228 12 2 11.5523 2 11C2 10.4477 1.55228 10 1 10C0.44772 10 0 10.4477 0 11C0 11.5523 0.44772 12 1 12Z" fill="#697280"/>
</svg>
