<svg height="32" viewBox="0 0 32 32" width="32" xmlns="http://www.w3.org/2000/svg"><path d="m12.401384 27.948047c-.3851361 0-.7445966-.1027031-1.0783813-.2824333l-3.41487372-2.0283837c-.513515-.2824332-.25675738-.3851362-.10270309-.4364878.69324513-.2310814.82162383-.2824331 1.54054479-.6932451.07702704-.0513514.17973013-.0256756.25675738.0256758l2.61892574 1.5662204c.1027032.0513515.2310818.0513515.3081091 0l10.2446215-5.9310966c.1027031-.0513517.1540546-.1540545.1540546-.2824333v-11.8365177c0-.12837891-.0513515-.23108178-.1540546-.28243322l-10.2446215-5.90542107c-.1027031-.05135143-.2310818-.05135143-.3081091 0l-10.24462172 5.90542107c-.10270287.05135144-.1540543.17973013-.1540543.28243322v11.8365177c0 .102703.05135143.2310816.1540543.2824333l2.79865613 1.6175718c1.51486895.7702722 2.46487147-.1283787 2.46487147-1.0270298v-11.68246343c0-.15405431.1283787-.30810883.30810883-.30810883h1.30946299c.15405452 0 .30810883.1283787.30810883.30810883v11.68246343c0 2.0283838-1.10405682 3.2094678-3.02973769 3.2094678-.59054204 0-1.05270539 0-2.36216839-.6418935l-2.69595303-1.5405445c-.66756931-.3851363-1.07838122-1.104057-1.07838122-1.8743295v-11.83651769c0-.77027217.41081191-1.48919313 1.07838122-1.87432921l10.24462148-5.93109691c.6418937-.35946025 1.514869-.35946025 2.1567627 0l10.2446215 5.93109691c.6675693.38513608 1.0783813 1.10405704 1.0783813 1.87432921v11.83651769c0 .7702725-.410812 1.4891932-1.0783813 1.8743295l-10.2446215 5.9310966c-.3337849.1540546-.7189209.2310819-1.0783814.2310819zm3.1581166-8.1392108c-4.4932552 0-5.4175819-2.0540596-5.4175819-3.8000101 0-.1540545.1283787-.3081088.3081088-.3081088h1.3351388c.1540543 0 .282433.1027028.282433.2567574.2054059 1.3608144.7959482 2.0283837 3.5175769 2.0283837 2.1567626 0 3.0810893-.4878391 3.0810893-1.6432476 0-.6675693-.2567574-1.1554085-3.62028-1.4891932-2.7986559-.2824332-4.5446063-.8986511-4.5446063-3.1324407 0-2.07973521 1.7459504-3.31217094 4.6729853-3.31217094 3.286495 0 4.9040668 1.12973287 5.1094728 3.59460414 0 .0770272-.0256758.1540545-.0770272.2310818-.0513514.0513514-.1283788.1027028-.205406.1027028h-1.3351386c-.1283786 0-.2567574-.1027028-.2824332-.2310816-.3081088-1.4121658-1.104057-1.8743294-3.2094678-1.8743294-2.3621686 0-2.6446016.8216239-2.6446016 1.4378417 0 .7445966.3337846.9756784 3.5175769 1.3864903 3.1581164.4108119 4.6473094 1.001354 4.6473094 3.2094678-.0256758 2.2594655-1.8743292 3.5432527-5.1351486 3.5432527z" fill="#539e43" transform="translate(4 2)"/></svg>