<svg height="32" viewBox="0 0 32 32" width="32" xmlns="http://www.w3.org/2000/svg" xmlns:xlink="http://www.w3.org/1999/xlink"><radialGradient id="a" cx="30.020204%" cy="82.421541%" gradientTransform="matrix(.526037 0 0 1 .142285 0)" r="124.814489%"><stop offset="0" stop-color="#aeb2d5"/><stop offset=".3" stop-color="#aeb2d5"/><stop offset=".75" stop-color="#484c89"/><stop offset="1" stop-color="#484c89"/></radialGradient><mask id="b" fill="#fff"><path d="m.02524272 7.08737864c0-3.89917476 6.00907767-7.06014563 13.42135918-7.06014563 7.4122816 0 13.4214078 3.16097087 13.4214078 7.06014563 0 3.89912626-6.0091262 7.06014566-13.4214078 7.06014566-7.41228151 0-13.42135918-3.1610194-13.42135918-7.06014566" fill="#fff" fill-rule="evenodd"/></mask><mask id="c" fill="#fff"><path d="m0 15.7281553h27.961165v-15.7281553h-27.961165z" fill="#fff" fill-rule="evenodd"/></mask><mask id="d" fill="#fff"><path d="m0 15.7281553h27.961165v-15.7281553h-27.961165z" fill="#fff" fill-rule="evenodd"/></mask><g fill="none" fill-rule="evenodd" transform="matrix(1 0 0 -1 2.023301 23.739758)"><g fill="url(#a)" mask="url(#b)" transform="translate(.533981 .776699)"><path d="m.02524272 7.08737864c0-3.89917476 6.00907767-7.06014563 13.42135918-7.06014563 7.4122816 0 13.4214078 3.16097087 13.4214078 7.06014563 0 3.89912626-6.0091262 7.06014566-13.4214078 7.06014566-7.41228151 0-13.42135918-3.1610194-13.42135918-7.06014566"/></g><g mask="url(#c)"><path d="m12.9126214 0c7.1227669 0 12.8970873 2.92626214 12.8970873 6.53597087 0 3.60966023-5.7743204 6.53597083-12.8970873 6.53597083-7.12276703 0-12.89708742-2.9263106-12.89708742-6.53597083 0-3.60970873 5.77432039-6.53597087 12.89708742-6.53597087" fill="#777bb3" transform="translate(1.067961 1.328127)"/></g><g mask="url(#d)"><path d="m3.25242718 3.30097087c.58567962 0 1.02291263.10800971 1.29956311.32092233.27368932.21072816.46271845.57582525.56179612 1.08509709.09237864.47601942.05718446.80839806-.10456311.98776699-.16538835.18320389-.52296116.27611651-1.06276699.27611651h-.93597087l-.5188835-2.66990292zm-3.06131067-3.28883495c-.04344661 0-.08470874.01941748-.1123301.05300971-.02766991.03354369-.0388835.07771845-.03058253.12038835l1.37514563 7.07529126c.01330098.06839806.07325243.11781554.14296117.11781554h2.96378641c.93145631 0 1.62475728-.25291262 2.06053398-.75179612.43810679-.50150485.57339806-1.20252427.40208738-2.08354369-.06970874-.35893204-.18961165-.69228155-.35635923-.99072815-.16694174-.29878641-.38757281-.57524272-.65587378-.82184466-.32116505-.30058253-.6846602-.51854369-1.07941748-.64679612-.38849514-.1265534-.88742718-.19072816-1.48291262-.19072816h-1.20009709l-.34271844-1.76320388c-.01330098-.0684466-.07320389-.11786408-.14291263-.11786408z" fill="#000" fill-rule="nonzero" transform="translate(4.598757 3.752748)"/><path d="m3.25242718 5.97087379h.81592233c.65150486 0 .87781554-.14296117.95470874-.22815534.12757282-.14145631.15165049-.43970874.0696602-.86247573-.09213593-.47330097-.26291262-.8088835-.50766991-.9973301-.25058252-.19291262-.65796116-.29067961-1.21072815-.29067961h-.58417476zm1.39956311 1.69902912h-2.96383495c-.13941748 0-.25927184-.09883495-.28587379-.23567961l-1.37514563-7.07529126c-.01660194-.08538835.00582525-.17368932.06111651-.24082524.0553398-.06713593.13776699-.10597088.22475728-.10597088h1.54126213c.13946602 0 .25932039.09883495.28592233.23567961l.31980583 1.64538835h1.08004854c.6107767 0 1.12495146.06660195 1.5281068.19791262.41461165.13470874.79606796.3631068 1.13368932.67883496.2792233.2568932.5092233.54524271.68349515.85713592.17432038.31199029.2995631.65990291.37223301 1.03407767.1803398.92737864.03383495 1.67-.43538835 2.20708738-.4646602.53194174-1.19485437.80165048-2.17019418.80165048zm-2.21519417-4.36893204h.93752427c.62140777 0 1.08427184.11703884 1.38839806.35116505.30417475.23417476.50932038.625.61592233 1.17266991.10199029.52582524.05553398.8968932-.13936894 1.11305825-.19514563.21616505-.58538834.32427184-1.17092233.32427184h-1.05601941zm2.21519417 4.07766991c.89160194 0 1.54203884-.23398059 1.95087379-.70199029.40878641-.46800971.5318932-1.12126214.36878641-1.95995146-.06713593-.34548544-.18067962-.66135922-.34053399-.94752427-.16004854-.28635923-.36902912-.54820389-.62728155-.78563107-.30776699-.28800971-.64966019-.49325243-1.02587378-.61548544-.3762136-.12257281-.85538835-.18359223-1.43791263-.18359223h-1.32019417l-.36558253-1.88106796h-1.54126213l1.37514563 7.07524272z" fill="#fff" fill-rule="nonzero" transform="translate(4.476873 3.607141)"/><path d="m3.93203883 0c-.04349514 0-.08470873.01941748-.11233009.05300971-.02771845.03354369-.03893204.0776699-.03063107.12038835l.60830097 3.13053398c.05786408.29771845.04359223.51140777-.04014563.60169903-.05126214.05519417-.20524272.14776699-.66053398.14776699h-1.10203884l-.76480582-3.93553398c-.01330097-.0684466-.07325243-.11786408-.14296117-.11786408h-1.52912621c-.04349514 0-.08470874.01941748-.11237864.05300971-.0276699.03354369-.0388835.07771845-.03058252.12038835l1.37514563 7.07529126c.01330097.06839806.07325242.11781553.14296116.11781553h1.52912621c.04349515 0 .08470874-.01941747.11237865-.05296116.0276699-.03359223.03888349-.07771845.03058252-.12043689l-.33184466-1.70766991h1.18553398c.90315534 0 1.51558252-.1592233 1.87228155-.48679611.36359224-.33417476.47703884-.86849515.33723301-1.58830097l-.63980582-3.29247573c-.01330097-.0684466-.07320389-.11786408-.14296117-.11786408z" fill="#000" transform="translate(11.193349 5.645951)"/><g fill-rule="nonzero"><path d="m3.2038835 7.66990291h-1.52912622c-.13946602 0-.25932039-.09883495-.28592233-.23567961l-1.37514563-7.07529126c-.01660194-.08538835.00582524-.17368932.06116505-.24082524.05533981-.06713593.13776699-.10597088.22475728-.10597088h1.52912621c.13941748 0 .25932039.09883495.28592233.23567961l.74189321 3.81771845h.98199029c.45451456 0 .54990291-.09708738.55373786-.10126214.02757282-.02966019.06383495-.16703883.00398059-.47480582l-.60830097-3.13053398c-.01660195-.08538835.00582524-.17368932.06116504-.24082524.05533981-.06713593.13776699-.10597088.22475729-.10597088h1.55339805c.13941748 0 .25932039.09883495.28592233.23567961l.63975729 3.29247573c.15014563.77286408.02169902 1.35262136-.38160195 1.72330097-.38485437.3534466-1.02951456.52524272-1.97082524.52524272h-1.00893204l.29820389 1.5342233c.01655339.08538835-.00582525.17373787-.06116505.24082525-.05533981.06713592-.13776699.10601941-.22475728.10601941m0-.29126213-.36558253-1.88106796h1.36223301c.85713592 0 1.44834952-.14961165 1.77373786-.44844661.32538835-.29902912.42286408-.78354369.29281554-1.45330097l-.63980583-3.29242718h-1.55339805l.60830097 3.13048544c.0692233.3561165.0437864.59902912-.07640777.72854368-.12024272.12951457-.37601942.19436894-.76723301.19436894h-1.22213592l-.78766991-4.05339806h-1.52912621l1.37514563 7.07524272z" fill="#fff" transform="translate(11.051509 5.488209)"/><path d="m3.25242718 3.30097087c.58567962 0 1.02291263.10800971 1.29956311.32092233.27368932.21067962.46271845.5757767.56184466 1.08509709.09237864.47601942.05718447.80839806-.10461165.98776699-.16538835.18320389-.52296116.27611651-1.06276699.27611651h-.93597087l-.5188835-2.66990292zm-3.06126213-3.28883495c-.0434466 0-.08470874.01941748-.1123301.05300971-.0276699.03354369-.03893204.07771845-.03063107.12038835l1.37514563 7.07529126c.01334952.06839806.07325243.11781554.14300971.11781554h2.96373787c.93150485 0 1.62475728-.25291262 2.06058252-.75179612.4381068-.50145631.57334952-1.20247573.40208738-2.08354369-.06980582-.35893204-.18966019-.69228155-.35640777-.99072815-.16694174-.29878641-.38757281-.57524272-.65587378-.82184466-.32116505-.30058253-.6846602-.51854369-1.07941748-.64679612-.38849514-.1265534-.88742718-.19072816-1.48291262-.19072816h-1.20014563l-.34257282-1.76320388c-.01334951-.0684466-.07325242-.11786408-.14300971-.11786408z" fill="#000" transform="translate(16.628631 3.752748)"/><path d="m3.25242718 5.97087379h.81592233c.65150486 0 .87781554-.14296117.95470874-.22815534.12762136-.14145631.15169903-.43970874.0696602-.86242719-.09213593-.47334951-.26296117-.80893204-.50766991-.99737864-.25058252-.19291262-.65796116-.29067961-1.21072815-.29067961h-.58412622zm1.39956311 1.69902912h-2.96378641c-.13941747 0-.25927184-.09883495-.28587378-.23567961l-1.37514563-7.07529126c-.01660195-.08538835.00582524-.17368932.0611165-.24082524.05533981-.06713593.13776699-.10597088.22475728-.10597088h1.54126214c.13941747 0 .25932039.09883495.28592233.23567961l.31975728 1.64538835h1.08004854c.6107767 0 1.12495146.06660195 1.5281068.19791262.41461165.13470874.79616505.36315534 1.13378641.67893204.2792233.25684466.50912621.54514563.68339806.85703884.17432038.31199029.2995631.65990291.37223301 1.03407767.1803398.92742718.03383495 1.67004854-.43538835 2.20713592-.4646602.5318932-1.19480583.80160194-2.17019418.80160194zm-2.21514563-4.36893204h.93747573c.62140777 0 1.08427184.11703884 1.38839806.35116505.3042233.23417476.50932038.625.61592233 1.17266991.10203883.52582524.05558252.8968932-.13936894 1.11305825-.19514563.21616505-.58538834.32427184-1.17092233.32427184h-1.05601941zm2.21514563 4.07766991c.89160194 0 1.54203884-.23398059 1.95087379-.70199029.40883495-.46800971.5318932-1.12126214.36878641-1.95995146-.06713593-.34548544-.18067962-.66135922-.34053399-.94752427-.16004854-.28635923-.36902912-.54820389-.62728155-.78563107-.30776699-.28800971-.64966019-.49325243-1.02587378-.61548544-.3762136-.12257281-.85538835-.18359223-1.43791263-.18359223h-1.32019417l-.36553398-1.88106796h-1.54126214l1.37514563 7.07524272z" fill="#fff" transform="translate(16.506752 3.607141)"/></g></g></g></svg>