<svg width="102" height="91" viewBox="0 0 102 91" fill="none" xmlns="http://www.w3.org/2000/svg">
<path fill-rule="evenodd" clip-rule="evenodd" d="M97.5726 20.2487C97.2755 19.642 96.8427 19.0877 96.1973 18.7339C95.4869 18.3467 94.7106 18.2812 93.9836 18.4101L93.9319 18.3825C83.002 20.2621 71.9741 28.5494 65.3218 41.2519C58.1549 54.9396 58.0514 69.9691 63.8894 80.2542C75.6175 79.3044 87.8624 70.7374 95.0293 57.0497C101.709 44.3062 102.245 30.4101 97.5726 20.2487Z" fill="#828D8C"/>
<path fill-rule="evenodd" clip-rule="evenodd" d="M93.9101 19.8122C83.1409 21.769 72.6794 30.2124 66.5552 41.9078C60.0718 54.2895 59.3638 68.6356 64.6682 78.7667C75.9604 77.4606 87.3152 68.7754 93.796 56.3941C99.9933 44.5698 100.955 30.9479 96.3065 20.8385C96.1103 20.4406 95.8518 20.1443 95.5305 19.9686C95.1599 19.763 94.6807 19.7079 94.226 19.7933C94.1173 19.8095 94.0082 19.8233 93.9101 19.8122ZM63.8895 81.6591C63.3914 81.6591 62.9282 81.3903 62.6804 80.9511C56.3524 69.8045 56.8912 54.3415 64.0884 40.5963C70.7569 27.8608 81.8255 19.0385 93.6979 16.997C93.8096 16.9749 93.9266 16.9722 94.0411 16.9832C95.0239 16.865 96.0125 17.038 96.8592 17.4989C97.6978 17.9571 98.3569 18.6733 98.8225 19.6283C103.844 30.5445 102.858 45.1241 96.2627 57.7059C89.0662 71.4481 76.7039 80.627 64.0013 81.6536C63.963 81.6563 63.9275 81.6591 63.8895 81.6591Z" fill="#121716"/>
<path fill-rule="evenodd" clip-rule="evenodd" d="M92.456 26.2116C95.5005 27.8663 98.2042 29.8668 100.478 32.0565C100.157 27.8087 99.2034 23.794 97.5725 20.2487C97.2754 19.642 96.8426 19.0877 96.1972 18.7339C95.4868 18.3467 94.7105 18.2812 93.9834 18.4101L93.9318 18.3825C90.1633 19.0329 86.3948 20.4929 82.7839 22.5782C85.9835 23.2865 89.2728 24.4826 92.456 26.2116Z" fill="#121716"/>
<path fill-rule="evenodd" clip-rule="evenodd" d="M75.3644 29.307C72.4563 32.1884 69.6816 35.4481 67.13 39.0815C72.5162 38.7081 78.466 40.0227 83.8573 43.2084C89.2188 46.3698 93.2461 50.9361 95.555 55.826C97.4368 51.7537 98.8664 47.6706 99.9012 43.6696C97.0991 40.0007 93.4773 36.7434 89.1125 34.1641C84.6685 31.5352 79.9907 29.9544 75.3644 29.307Z" fill="#121716"/>
<path fill-rule="evenodd" clip-rule="evenodd" d="M61.474 46.5621C59.6334 50.1511 58.0839 53.7408 56.8235 57.2971C61.8418 57.1762 67.1325 58.4795 71.8842 61.4074C76.6875 64.3494 78.8333 68.8251 81.0225 73.4297C85.3492 71.3248 87.4649 67.2966 89.7683 63.9704C86.9993 59.1109 83.0103 54.8108 77.804 51.6166C72.611 48.4224 67.0101 46.8284 61.474 46.5621Z" fill="#121716"/>
<path fill-rule="evenodd" clip-rule="evenodd" d="M21.9663 7.25221C26.5272 11.8458 27.7497 18.0668 24.6946 21.1428C21.6422 24.2189 15.4692 22.9897 10.911 18.3933C6.35279 13.7998 5.13002 7.57879 8.18239 4.50274C11.2351 1.42668 17.4078 2.65863 21.9663 7.25221Z" fill="#828D8C"/>
<path fill-rule="evenodd" clip-rule="evenodd" d="M18.9439 10.3012C21.234 12.6008 21.9635 15.6055 20.5831 16.9942C19.1945 18.3908 16.2181 17.6553 13.9311 15.3502C11.6465 13.0452 10.9167 10.0487 12.2998 8.65453C13.686 7.25791 16.6566 7.99617 18.9439 10.3012Z" fill="#121716"/>
<path fill-rule="evenodd" clip-rule="evenodd" d="M12.6431 4.21621C11.6381 4.21621 10.2194 4.43842 9.16854 5.49744C6.70691 7.97818 7.9567 13.4309 11.8968 17.4016C14.4019 19.9261 17.5171 21.4326 20.2321 21.4326C21.2368 21.4326 22.6582 21.2104 23.7093 20.1511C24.8473 19.0042 25.2422 17.1901 24.8203 15.0415C24.3571 12.6871 22.9932 10.275 20.9807 8.24691C18.4757 5.7224 15.3604 4.21621 12.6431 4.21621ZM20.2321 24.2424C16.7928 24.2424 12.9398 22.4286 9.9254 19.3881C4.74368 14.1661 3.54551 7.19065 7.19711 3.5107C8.56414 2.13306 10.4457 1.40613 12.6431 1.40613C16.0821 1.40613 19.935 3.21993 22.9521 6.26048C25.3512 8.67511 26.9849 11.6006 27.5541 14.4954C28.1639 17.5935 27.497 20.3075 25.6807 22.1378C24.3137 23.5155 22.4295 24.2424 20.2321 24.2424Z" fill="#121716"/>
<path fill-rule="evenodd" clip-rule="evenodd" d="M63.8894 7.25245C59.3284 11.846 58.1057 18.067 61.1611 21.1431C64.2134 24.2191 70.3865 22.9899 74.9447 18.3936C79.5029 13.8 80.7253 7.57904 77.673 4.50298C74.6206 1.42692 68.4476 2.65888 63.8894 7.25245Z" fill="#828D8C"/>
<path fill-rule="evenodd" clip-rule="evenodd" d="M66.9122 10.3012C64.6221 12.6008 63.8923 15.6055 65.2727 16.9942C66.6613 18.3908 69.6377 17.6553 71.925 15.3502C74.2096 13.0452 74.9394 10.0487 73.5563 8.65453C72.1701 7.25791 69.1995 7.99617 66.9122 10.3012Z" fill="#121716"/>
<path fill-rule="evenodd" clip-rule="evenodd" d="M64.8752 8.247C62.8628 10.2751 61.4985 12.6872 61.0356 15.0416C60.6135 17.1902 61.0083 19.0043 62.1466 20.1512C63.1978 21.2105 64.6192 21.4327 65.6239 21.4327C68.3388 21.4327 71.4537 19.9262 73.9591 17.4017C77.8989 13.431 79.149 7.97827 76.6874 5.49753C75.6362 4.43851 74.2176 4.2163 73.2129 4.2163C70.4952 4.2163 67.3803 5.72249 64.8752 8.247ZM60.1752 22.1379C58.359 20.3076 57.6917 17.5936 58.3019 14.4955C58.871 11.6007 60.5047 8.6752 62.9035 6.26057C65.9206 3.22002 69.7736 1.40622 73.2129 1.40622C75.4103 1.40622 77.2918 2.13315 78.6585 3.51079C82.3104 7.19074 81.112 14.1662 75.9302 19.3881C72.9158 22.4287 69.0632 24.2425 65.6239 24.2425C63.4265 24.2425 61.5422 23.5156 60.1752 22.1379Z" fill="#121716"/>
<path fill-rule="evenodd" clip-rule="evenodd" d="M73.7137 18.6777C66.525 8.68614 55.4536 1.40613 42.928 1.40613C30.4024 1.40613 19.3307 8.68614 12.142 18.6777C3.39584 30.8283 -1.67138 48.0533 3.53191 62.6244C7.93793 74.9675 18.5164 84.3469 30.9548 87.9197C34.8433 89.0393 38.8843 89.5964 42.928 89.5964C46.9714 89.5964 51.0123 89.0393 54.9008 87.9197C67.3392 84.3469 77.918 74.9675 82.3241 62.6244C87.5276 48.0533 82.4601 30.8283 73.7137 18.6777Z" fill="#828D8C"/>
<path fill-rule="evenodd" clip-rule="evenodd" d="M76.6843 24.2057C76.1862 22.2107 74.92 20.3173 73.741 18.6764C72.2379 16.5853 70.5553 14.6258 68.7336 12.8147C62.2338 9.67013 54.8055 9.67564 49.1417 13.5255C46.1899 15.5342 44.1207 18.3388 42.928 21.5354C41.7353 18.3388 39.6658 15.5342 36.7142 13.5255C31.0502 9.67564 23.6219 9.67013 17.1223 12.8147C15.3007 14.6258 13.6178 16.5853 12.115 18.6764C10.9356 20.3173 9.66943 22.2107 9.17134 24.2057C8.65107 26.283 7.90241 29.071 8.00051 31.1729C8.16117 34.592 10.2605 37.1113 13.0325 38.9196C13.7104 39.364 20.9619 44.9567 20.2865 45.3546C20.7985 45.0525 21.4439 44.6849 22.1625 44.3035V44.9429C24.793 43.3978 28.6159 41.5044 31.1756 41.8007L31.2081 41.8062C31.2819 41.8145 31.3418 41.8475 31.4125 41.8613C32.1178 42.0477 32.7358 42.3936 33.2096 42.9754C34.3042 44.3173 34.4023 45.8675 34.0212 47.374C34.3042 47.1656 34.5575 46.9021 34.8327 46.6799C34.8026 47.7171 34.5685 48.5047 34.5685 48.5047L34.0919 49.1796C36.8992 49.7149 39.8483 50.0084 42.9007 50.0084H42.9171C42.9386 50.0084 42.9444 50.0084 42.9444 50.0084C46.0074 50.0084 48.9565 49.7149 51.764 49.1796L51.2875 48.5047C51.2875 48.5047 51.0533 47.7171 51.0233 46.6799C51.2981 46.9021 51.5514 47.1656 51.8348 47.374C51.4536 45.8675 51.5514 44.3173 52.6463 42.9754C53.1198 42.3936 53.7382 42.0477 54.4434 41.8613C54.5142 41.8475 54.5743 41.8145 54.6478 41.8062L54.6803 41.8007C57.2398 41.5044 61.0629 43.3978 63.6934 44.9429V44.3035C64.412 44.6849 65.0574 45.0525 65.5695 45.3546C64.894 44.9567 72.1453 39.364 72.8232 38.9196C75.5952 37.1113 77.6948 34.592 77.8555 31.1729C77.9536 29.071 77.2046 26.283 76.6843 24.2057Z" fill="#EDEDEA"/>
<path fill-rule="evenodd" clip-rule="evenodd" d="M42.9281 55.7354C32.3712 55.7354 23.8182 66.3498 23.8182 79.4447C23.8182 82.0598 24.1723 84.5653 24.8013 86.9169C25.9558 87.2652 27.0996 87.6411 28.2841 87.9184C33.0409 89.038 37.9833 89.595 42.9281 89.595C47.8729 89.595 52.8153 89.038 57.5724 87.9184C58.7566 87.6411 59.9004 87.2652 61.0549 86.9169C61.6839 84.5653 62.038 82.0598 62.038 79.4447C62.038 66.3498 53.485 55.7354 42.9281 55.7354Z" fill="#EDEDEA"/>
<path fill-rule="evenodd" clip-rule="evenodd" d="M45.0846 34.2462C44.6138 34.4002 44.1209 34.477 43.6279 34.518C43.6662 34.4329 43.7367 34.3671 43.7367 34.271V32.3666C43.8241 32.298 43.9195 32.2515 43.9954 32.1582L45.4767 30.3526C46.0622 29.6392 45.7874 29.0546 44.8668 29.0546H40.9895C40.069 29.0546 39.7941 29.6392 40.3794 30.3526L41.8606 32.1582C41.9915 32.3201 42.1494 32.4324 42.3101 32.5202V34.271C42.3101 34.3671 42.3781 34.4329 42.4137 34.518C41.9204 34.4739 41.4305 34.3971 40.9622 34.2462C40.3575 34.0515 39.1077 33.3215 38.9361 34.4549C38.9361 34.5235 38.9361 34.5921 38.9361 34.6606C38.9361 36.9302 40.7554 38.7688 43.0181 38.7743H43.0287C45.2917 38.7688 47.1104 36.9302 47.1104 34.6606C47.1104 34.5921 47.1104 34.5235 47.1104 34.4549C46.9391 33.3215 45.6893 34.0515 45.0846 34.2462Z" fill="#121716"/>
<path fill-rule="evenodd" clip-rule="evenodd" d="M42.9282 2.80978C31.7122 2.80978 20.902 8.89364 13.2723 19.5022C3.66569 32.8468 0.357295 49.5858 4.84472 62.1484C8.96708 73.7012 19.1185 83.0589 31.3365 86.5686C38.8192 88.7197 47.0399 88.7197 54.5171 86.5686C66.7378 83.0589 76.8889 73.7012 81.0113 62.1484C85.499 49.5858 82.1906 32.8468 72.5868 19.5022C64.9541 8.89364 54.1441 2.80978 42.9282 2.80978ZM42.9282 91C38.7183 91 34.5604 90.4185 30.5711 89.2685C17.3078 85.4597 6.70985 75.6772 2.21969 63.0981C-3.59377 46.8198 2.95226 29.0518 11.015 17.8503C19.1756 6.50595 30.8083 0 42.9282 0C55.048 0 66.6807 6.50595 74.844 17.8503C82.9041 29.0518 89.4501 46.8198 83.6366 63.0981C79.1465 75.6772 68.5486 85.4597 55.2825 89.2685C51.2959 90.4185 47.1377 91 42.9282 91Z" fill="#121716"/>
<path fill-rule="evenodd" clip-rule="evenodd" d="M31.7261 17.9737C30.5498 17.3343 29.2374 17.0105 27.8239 17.0105C23.8811 17.0105 19.9546 20.3476 18.0293 22.592C14.792 26.3653 11.7967 33.9554 17.9886 36.5595C20.227 37.501 22.6938 37.7862 25.1011 37.83C28.1753 37.8903 31.4618 37.8193 33.8882 35.6348C36.3496 33.4176 36.7471 29.7955 36.5184 26.6506C36.2217 22.5673 34.5197 19.4829 31.7261 17.9737Z" fill="#121716"/>
<path fill-rule="evenodd" clip-rule="evenodd" d="M31.8722 24.5321C31.8285 23.9944 31.2433 23.4016 30.9001 23.0943C30.1351 22.4219 29.1575 22.0488 28.1419 22.0488C27.8209 22.0488 27.4914 22.0843 27.1565 22.1559C25.8606 22.4302 24.7713 23.2176 24.1697 24.3179C23.941 24.735 23.5516 25.5666 23.6522 26.0412C23.7366 26.4363 24.1071 26.7078 24.4855 26.7764C24.989 26.8697 25.1852 26.631 25.4248 26.2197C25.471 26.1398 25.5199 26.0575 25.5745 25.9699C26.304 24.8311 27.3335 24.2055 28.4742 24.2055C29.1141 24.2055 29.5034 24.3919 30.0835 24.7791C30.4646 25.0343 30.8813 25.5473 31.3984 25.2727C31.7714 25.0726 31.8941 24.8118 31.8722 24.5321Z" fill="#FFFFFE"/>
<path fill-rule="evenodd" clip-rule="evenodd" d="M54.1306 17.9737C55.3069 17.3343 56.6192 17.0105 58.0324 17.0105C61.9756 17.0105 65.9017 20.3476 67.827 22.592C71.0646 26.3653 74.0599 33.9554 67.868 36.5595C65.6296 37.501 63.1625 37.7862 60.7556 37.83C57.6813 37.8903 54.3948 37.8193 51.9684 35.6348C49.5068 33.4176 49.1092 29.7955 49.3379 26.6506C49.6349 22.5673 51.3367 19.4829 54.1306 17.9737Z" fill="#121716"/>
<path fill-rule="evenodd" clip-rule="evenodd" d="M53.9834 24.5321C54.0271 23.9944 54.6126 23.4016 54.9555 23.0943C55.7208 22.4219 56.6981 22.0488 57.7136 22.0488C58.0349 22.0488 58.3645 22.0843 58.6994 22.1559C59.9953 22.4302 61.0846 23.2176 61.6862 24.3179C61.9149 24.735 62.3043 25.5666 62.2037 26.0412C62.119 26.4363 61.7491 26.7078 61.3701 26.7764C60.8666 26.8697 60.6707 26.631 60.4311 26.2197C60.3846 26.1398 60.3357 26.0575 60.2814 25.9699C59.5516 24.8311 58.5227 24.2055 57.3817 24.2055C56.7415 24.2055 56.3525 24.3919 55.7724 24.7791C55.3913 25.0343 54.9746 25.5473 54.4575 25.2727C54.0842 25.0726 53.9618 24.8118 53.9834 24.5321Z" fill="#FFFFFE"/>
<path fill-rule="evenodd" clip-rule="evenodd" d="M15.2574 50.1151C14.8872 50.1151 14.5167 49.967 14.2419 49.6735C13.7135 49.1082 13.7408 48.2191 14.3017 47.6866C14.6203 47.3848 17.4792 44.7014 19.5076 43.7162C20.1964 43.3845 21.0324 43.6725 21.3671 44.3721C21.7021 45.069 21.4108 45.9088 20.7163 46.246C19.3278 46.9212 16.9946 48.9928 16.2132 49.7338C15.9435 49.989 15.6003 50.1151 15.2574 50.1151Z" fill="#121716"/>
<path fill-rule="evenodd" clip-rule="evenodd" d="M31.9138 41.1971C28.066 38.8648 22.0727 42.1135 19.998 43.3895C18.2878 42.5445 16.7795 41.3094 15.3988 40.0007C13.7351 38.4256 12.6894 37.4348 11.5787 35.3658C11.3172 34.9816 10.9087 34.6964 10.4103 34.6964C8.77933 34.6964 8.80666 36.4361 9.45449 37.4624C11.4533 40.6235 13.7351 42.6709 16.8202 44.7617C17.6889 45.349 18.6064 45.8923 19.5841 46.2819C20.0087 46.4521 20.5016 46.4084 20.8855 46.1503C22.5848 45.0114 27.9737 42.0973 30.4815 43.6065C31.7012 44.3445 32.352 45.36 32.4146 46.6251C32.5264 48.9053 30.7129 51.6768 27.5624 54.0422C24.3275 56.4709 18.6173 57.1541 13.6807 55.7078C10.1652 54.6788 5.4846 52.1488 3.14264 45.9554C2.8705 45.2254 2.05624 44.8633 1.34554 45.143C0.623907 45.4176 0.264609 46.2299 0.539474 46.9544C2.68524 52.6321 7.07486 56.6986 12.902 58.4056C14.9004 58.9927 16.9891 59.2779 19.0313 59.2779C22.9195 59.2779 26.6364 58.2437 29.2286 56.298C33.1851 53.326 35.361 49.7507 35.1976 46.4852C35.0885 44.2897 33.9232 42.4128 31.9138 41.1971Z" fill="#121716"/>
<path fill-rule="evenodd" clip-rule="evenodd" d="M70.5983 50.1151C70.9685 50.1151 71.3391 49.967 71.6139 49.6735C72.142 49.1082 72.1147 48.2191 71.5541 47.6866C71.2355 47.3848 68.3765 44.7014 66.3482 43.7162C65.6594 43.3845 64.8236 43.6725 64.4884 44.3721C64.1537 45.069 64.4449 45.9088 65.1392 46.246C66.528 46.9212 68.8612 48.9928 69.6426 49.7338C69.912 49.989 70.2552 50.1151 70.5983 50.1151Z" fill="#121716"/>
<path fill-rule="evenodd" clip-rule="evenodd" d="M53.9423 41.1971C57.7898 38.8648 63.7834 42.1135 65.8581 43.3895C67.5683 42.5445 69.0769 41.3094 70.457 40.0007C72.1211 38.4256 73.1665 37.4348 74.2778 35.3658C74.5389 34.9816 74.9475 34.6964 75.4456 34.6964C77.0765 34.6964 77.0498 36.4361 76.4017 37.4624C74.4029 40.6235 72.1211 42.6709 69.0359 44.7617C68.167 45.349 67.2497 45.8923 66.2721 46.2819C65.8472 46.4521 65.3545 46.4084 64.9703 46.1503C63.2713 45.0114 57.8825 42.0973 55.3747 43.6065C54.1549 44.3445 53.5041 45.36 53.4412 46.6251C53.3297 48.9053 55.1432 51.6768 58.2937 54.0422C61.5286 56.4709 67.2388 57.1541 72.1754 55.7078C75.691 54.6788 80.3716 52.1488 82.7132 45.9554C82.9853 45.2254 83.7996 44.8633 84.5106 45.143C85.2319 45.4176 85.5915 46.2299 85.3164 46.9544C83.1709 52.6321 78.7816 56.6986 72.9542 58.4056C70.9554 58.9927 68.867 59.2779 66.8248 59.2779C62.9363 59.2779 59.2194 58.2437 56.6272 56.298C52.6707 53.326 50.4951 49.7507 50.6585 46.4852C50.7673 44.2897 51.9326 42.4128 53.9423 41.1971Z" fill="#121716"/>
<path fill-rule="evenodd" clip-rule="evenodd" d="M22.0453 69.8127C26.6147 74.4173 27.6276 80.8716 24.3001 84.2222C20.9725 87.5755 14.568 86.5627 9.9989 81.9554C5.42978 77.3453 4.41688 70.8965 7.74987 67.5432C11.0719 64.1874 17.4764 65.2054 22.0453 69.8127Z" fill="#828D8C"/>
<path fill-rule="evenodd" clip-rule="evenodd" d="M20.5073 75.1528C23.0178 77.6883 23.4318 81.3817 21.4251 83.4067C19.4154 85.4324 15.7447 85.0207 13.2314 82.4851C10.7154 79.9469 10.3017 76.2504 12.3111 74.2251C14.3205 72.2001 17.9913 72.617 20.5073 75.1528Z" fill="#EDEDEA"/>
<path fill-rule="evenodd" clip-rule="evenodd" d="M12.8693 66.9696C11.1782 66.9696 9.75136 67.5104 8.73572 68.5367C7.44796 69.832 6.93316 71.7939 7.29003 74.0604C7.66846 76.4891 8.98082 78.9396 10.9851 80.9621C14.8298 84.8423 20.6487 85.9206 23.3148 83.2286C24.5998 81.9333 25.1119 79.9741 24.7577 77.7073C24.3766 75.2762 23.0642 72.8257 21.06 70.8062C18.6773 68.4051 15.6167 66.9696 12.8693 66.9696ZM19.1757 87.6055C15.6523 87.6055 11.9491 85.9068 9.01363 82.9486C6.59543 80.5119 5.00546 77.5071 4.5344 74.4969C4.036 71.3192 4.8284 68.4957 6.7646 66.5499C8.31113 64.9859 10.4214 64.1598 12.8693 64.1598C16.39 64.1598 20.0963 65.8582 23.0314 68.8192C25.4496 71.2562 27.0396 74.2554 27.5106 77.2684C28.009 80.4464 27.2194 83.2696 25.2859 85.2157C23.7339 86.7794 21.6209 87.6055 19.1757 87.6055Z" fill="#121716"/>
<path fill-rule="evenodd" clip-rule="evenodd" d="M63.8108 69.8127C59.2416 74.4173 58.2287 80.8716 61.5563 84.2222C64.8838 87.5755 71.288 86.5627 75.8574 81.9554C80.4266 77.3453 81.4395 70.8965 78.1065 67.5432C74.7844 64.1874 68.3799 65.2054 63.8108 69.8127Z" fill="#828D8C"/>
<path fill-rule="evenodd" clip-rule="evenodd" d="M65.3486 75.1528C62.8384 77.6883 62.4242 81.3817 64.4314 83.4067C66.4408 85.4324 70.1112 85.0207 72.6245 82.4851C75.1405 79.9469 75.5545 76.2504 73.5448 74.2251C71.5354 72.2001 67.8646 72.617 65.3486 75.1528Z" fill="#EDEDEA"/>
<path fill-rule="evenodd" clip-rule="evenodd" d="M64.7965 70.8062C62.7923 72.8257 61.4799 75.2762 61.0985 77.7073C60.7446 79.9741 61.2567 81.9333 62.5417 83.2286C65.2075 85.9206 71.0264 84.8423 74.8714 80.9621C76.8754 78.9396 78.188 76.4891 78.5665 74.0604C78.923 71.7939 78.4085 69.832 77.1205 68.5367C76.1048 67.5104 74.678 66.9696 72.9872 66.9696C70.2397 66.9696 67.1792 68.4051 64.7965 70.8062ZM60.5703 85.2157C58.6371 83.2696 57.8475 80.4464 58.3459 77.2684C58.8166 74.2554 60.4072 71.2562 62.8251 68.8192C65.7605 65.8582 69.4665 64.1598 72.9872 64.1598C75.4348 64.1598 77.5454 64.9859 79.0919 66.5499C81.0281 68.4957 81.8205 71.3192 81.3221 74.4969C80.851 77.5071 79.2608 80.5119 76.8429 82.9486C73.9074 85.9068 70.2039 87.6055 66.6808 87.6055C64.2356 87.6055 62.1223 86.7794 60.5703 85.2157Z" fill="#121716"/>
<path fill-rule="evenodd" clip-rule="evenodd" d="M51.6767 3.02505C51.742 2.81662 51.8101 2.61369 51.8699 2.39393C48.9727 1.75484 45.9857 1.40622 42.9278 1.40622C39.8697 1.40622 36.883 1.75484 33.9855 2.39393C34.0456 2.61369 34.1137 2.81662 34.179 3.02505L32.6567 3.29409L32.869 3.94726L32.9371 4.45749C33.3811 4.30108 33.8522 4.19947 34.356 4.19947C35.1645 4.19947 36.0195 4.53462 36.6868 4.97904C39.1973 6.68021 41.0354 8.97425 42.277 11.5731C42.4158 11.7733 42.6174 11.9325 42.9032 11.9325C43.2191 11.9325 43.4451 11.7461 43.5814 11.5156H43.603C44.8476 8.9415 46.6748 6.6695 49.1689 4.97904C49.8359 4.53462 50.6909 4.19947 51.4997 4.19947C52.0035 4.19947 52.4743 4.30108 52.9183 4.45749L52.9864 3.94726L53.1987 3.29409L51.6767 3.02505Z" fill="#121716"/>
</svg>
