<svg width="200" height="36" viewBox="0 0 200 36" fill="none" xmlns="http://www.w3.org/2000/svg">
<g clip-path="url(#clip0)">
<path d="M13.198 10.222H10.801V24.667H13.198V10.222ZM48.968 22.22H46.57V24.665H48.968V22.22ZM13.198 3.002H10.801V5.446H13.198V3.002ZM2.38 24.667H4.778V12.666H8.98V10.222H4.778V8.594C4.778 6.02 5.315 5.444 8.297 5.444H8.98V3H8.028C3.793 3 2.381 4.942 2.381 8.363V10.216H0V12.666H2.38V24.666V24.667ZM18.02 10.222H15.594V24.667H18.02V10.222ZM22.307 12.174C24.782 12.174 26.25 13.821 26.25 16.579V24.665H28.676V16.023C28.676 14.215 28.152 12.685 27.161 11.599C26.169 10.513 24.688 9.895 22.934 9.895C21.348 9.895 19.911 10.795 18.926 12.011V13.792C19.684 12.781 20.873 12.174 22.307 12.174ZM33.508 10.222H31.082V24.667H33.508V10.222ZM37.8 12.174C40.274 12.174 41.742 13.821 41.742 16.579V24.665H44.168V16.023C44.168 14.215 43.644 12.685 42.653 11.599C41.662 10.513 40.18 9.895 38.427 9.895C36.84 9.895 35.404 10.795 34.418 12.011V13.792C35.176 12.781 36.365 12.174 37.8 12.174ZM87.1 24.985H88.058V22.535H87.377C84.393 22.535 83.857 21.96 83.857 19.385V12.666H88.058V10.222H83.848V3H81.453V19.616C81.453 23.043 82.865 24.985 87.101 24.985H87.1ZM79.055 10.222H76.629V24.667H79.055V10.222ZM71.71 24.985C73.297 24.985 74.733 24.085 75.719 22.878V21.088C74.959 22.106 73.772 22.715 72.339 22.715C69.864 22.715 68.396 21.066 68.396 18.31V10.222H65.961V18.858C65.961 20.668 66.485 22.196 67.474 23.282C68.492 24.397 69.956 24.985 71.71 24.985ZM96.582 24.985C97.5583 24.9977 98.5269 24.8116 99.429 24.438C100.335 24.0621 101.156 23.5078 101.844 22.808C102.537 22.1029 103.083 21.2675 103.451 20.35C103.821 19.43 104.007 18.443 103.998 17.448V17.395C103.965 15.428 103.17 13.5506 101.78 12.158C101.1 11.4767 100.292 10.9365 99.4025 10.5686C98.513 10.2006 97.5596 10.0122 96.597 10.014C95.6344 10.019 94.6822 10.2143 93.7953 10.5886C92.9084 10.9629 92.1042 11.5088 91.429 12.195C90.0488 13.5974 89.2662 15.4804 89.246 17.448V17.502C89.236 18.488 89.419 19.465 89.784 20.378C90.1472 21.2875 90.6869 22.1161 91.372 22.816C92.052 23.5108 92.8648 24.0618 93.762 24.436C94.655 24.8084 95.6145 24.9952 96.582 24.985ZM91.701 17.395C91.701 14.385 93.798 12.118 96.582 12.118C99.367 12.118 101.541 14.458 101.541 17.448V17.502C101.541 20.495 99.432 22.752 96.637 22.752C93.871 22.752 91.704 20.422 91.704 17.448L91.701 17.395ZM56.244 24.984C58.66 24.984 60.209 23.885 61.141 22.836V24.666H63.566V15.896C63.566 14.012 63.069 12.587 62.042 11.542C61.015 10.496 59.374 9.895 57.363 9.895C55.134 9.895 53.546 10.49 52.163 11.135L52.013 11.205L52.765 13.295L52.94 13.215C54.458 12.505 55.716 12.202 57.149 12.202C59.763 12.202 61.144 13.488 61.144 15.918L61.173 19.191C61.173 21.298 59.231 22.88 56.666 22.88C54.351 22.88 53.286 21.487 53.286 20.198V20.143C53.286 18.469 54.798 17.429 57.23 17.429C58.24 17.428 59.247 17.539 60.234 17.759V16.31C59.564 15.81 58.61 15.374 57.01 15.374C53.125 15.374 50.805 17.199 50.805 20.256V20.311C50.803 23.371 53.54 24.984 56.244 24.984Z" fill="#272B3E"/>
<path d="M103.686 29.556H0V32.002H103.686V29.556Z" fill="#2856C1"/>
</g>
<g opacity="0.4">
<path fill-rule="evenodd" clip-rule="evenodd" d="M125.72 11.7197C126.013 11.4268 126.487 11.4268 126.78 11.7197L132 16.9393L137.22 11.7197C137.513 11.4268 137.987 11.4268 138.28 11.7197C138.573 12.0126 138.573 12.4874 138.28 12.7803L133.061 18L138.28 23.2197C138.573 23.5126 138.573 23.9874 138.28 24.2803C137.987 24.5732 137.513 24.5732 137.22 24.2803L132 19.0607L126.78 24.2803C126.487 24.5732 126.013 24.5732 125.72 24.2803C125.427 23.9874 125.427 23.5126 125.72 23.2197L130.939 18L125.72 12.7803C125.427 12.4874 125.427 12.0126 125.72 11.7197Z" fill="#161616"/>
</g>
<path fill-rule="evenodd" clip-rule="evenodd" d="M198.264 8.01046C198.147 7.77046 197.978 7.55118 197.724 7.41121C197.446 7.25803 197.141 7.23212 196.856 7.2831L196.836 7.2722C192.55 8.01578 188.225 11.2943 185.616 16.3194C182.806 21.7343 182.765 27.6801 185.055 31.7489C189.654 31.3732 194.456 27.984 197.266 22.5691C199.886 17.5277 200.096 12.0304 198.264 8.01046Z" fill="#828D8C"/>
<path fill-rule="evenodd" clip-rule="evenodd" d="M196.827 7.83783C192.604 8.61193 188.502 11.9522 186.1 16.5789C183.558 21.4772 183.28 27.1526 185.36 31.1605C189.788 30.6438 194.241 27.2079 196.783 22.3098C199.213 17.632 199.59 12.2431 197.767 8.24383C197.69 8.08642 197.589 7.96921 197.463 7.89971C197.318 7.81834 197.13 7.79654 196.951 7.83032C196.909 7.83674 196.866 7.84219 196.827 7.83783ZM185.055 32.3047C184.859 32.3047 184.678 32.1984 184.581 32.0246C182.099 27.615 182.31 21.4978 185.133 16.0601C187.748 11.0219 192.088 7.53173 196.744 6.72409C196.788 6.71538 196.834 6.71429 196.879 6.71864C197.264 6.67191 197.652 6.74032 197.984 6.92267C198.313 7.10394 198.571 7.38728 198.754 7.76506C200.723 12.0835 200.336 17.8513 197.75 22.8287C194.928 28.2652 190.08 31.8964 185.099 32.3025C185.084 32.3036 185.07 32.3047 185.055 32.3047Z" fill="#121716"/>
<path fill-rule="evenodd" clip-rule="evenodd" d="M196.257 10.3694C197.451 11.024 198.511 11.8154 199.403 12.6817C199.277 11.0013 198.903 9.41298 198.264 8.01046C198.147 7.77047 197.978 7.55118 197.724 7.41121C197.446 7.25803 197.141 7.23212 196.856 7.2831L196.836 7.2722C195.358 7.52951 193.88 8.10708 192.464 8.93203C193.719 9.21222 195.009 9.68542 196.257 10.3694Z" fill="#121716"/>
<path fill-rule="evenodd" clip-rule="evenodd" d="M189.555 11.594C188.414 12.7339 187.326 14.0234 186.326 15.4608C188.438 15.3131 190.771 15.8332 192.885 17.0934C194.988 18.3441 196.567 20.1506 197.473 22.085C198.211 20.474 198.771 18.8587 199.177 17.2759C198.078 15.8245 196.658 14.5359 194.946 13.5155C193.203 12.4755 191.369 11.8501 189.555 11.594Z" fill="#121716"/>
<path fill-rule="evenodd" clip-rule="evenodd" d="M184.107 18.4202C183.386 19.84 182.778 21.2601 182.284 22.667C184.252 22.6191 186.327 23.1347 188.19 24.293C190.074 25.4569 190.915 27.2275 191.774 29.0491C193.47 28.2164 194.3 26.6228 195.203 25.307C194.117 23.3845 192.553 21.6834 190.511 20.4198C188.475 19.1561 186.279 18.5255 184.107 18.4202Z" fill="#121716"/>
<path fill-rule="evenodd" clip-rule="evenodd" d="M168.614 2.86902C170.403 4.68626 170.882 7.14731 169.684 8.36421C168.487 9.58111 166.066 9.09483 164.279 7.2765C162.491 5.45927 162.012 2.99822 163.209 1.78132C164.406 0.564415 166.827 1.05178 168.614 2.86902Z" fill="#828D8C"/>
<path fill-rule="evenodd" clip-rule="evenodd" d="M167.429 4.07524C168.327 4.98495 168.613 6.17364 168.072 6.723C167.527 7.27551 166.36 6.98454 165.463 6.07265C164.567 5.16076 164.281 3.97534 164.823 3.4238C165.367 2.87129 166.532 3.16335 167.429 4.07524Z" fill="#121716"/>
<path fill-rule="evenodd" clip-rule="evenodd" d="M164.958 1.66795C164.564 1.66795 164.008 1.75586 163.596 2.17481C162.63 3.15621 163.12 5.31333 164.665 6.88416C165.648 7.88287 166.869 8.47885 167.934 8.47885C168.328 8.47885 168.886 8.39094 169.298 7.97187C169.744 7.51816 169.899 6.80049 169.733 5.95048C169.552 5.01909 169.017 4.06483 168.228 3.26252C167.245 2.26381 166.024 1.66795 164.958 1.66795ZM167.934 9.59041C166.585 9.59041 165.074 8.87286 163.892 7.67C161.86 5.60418 161.39 2.84466 162.822 1.38885C163.358 0.843851 164.096 0.556274 164.958 0.556274C166.307 0.556274 167.818 1.27382 169.001 2.47668C169.942 3.43192 170.582 4.58924 170.806 5.73446C171.045 6.96008 170.783 8.03374 170.071 8.75783C169.535 9.30283 168.796 9.59041 167.934 9.59041Z" fill="#121716"/>
<path fill-rule="evenodd" clip-rule="evenodd" d="M185.055 2.86908C183.266 4.68632 182.787 7.14737 183.985 8.36427C185.182 9.58117 187.603 9.09489 189.39 7.27656C191.178 5.45933 191.657 2.99828 190.46 1.78138C189.263 0.564477 186.842 1.05184 185.055 2.86908Z" fill="#828D8C"/>
<path fill-rule="evenodd" clip-rule="evenodd" d="M186.24 4.07524C185.342 4.98495 185.056 6.17364 185.597 6.723C186.142 7.27551 187.309 6.98454 188.206 6.07265C189.102 5.16076 189.388 3.97534 188.846 3.4238C188.302 2.87129 187.137 3.16335 186.24 4.07524Z" fill="#121716"/>
<path fill-rule="evenodd" clip-rule="evenodd" d="M185.441 3.26258C184.652 4.06489 184.117 5.01916 183.936 5.95054C183.77 6.80055 183.925 7.51822 184.371 7.97193C184.783 8.391 185.341 8.47891 185.735 8.47891C186.8 8.47891 188.021 7.88293 189.004 6.88422C190.549 5.31339 191.039 3.15627 190.073 2.17488C189.661 1.75592 189.105 1.66801 188.711 1.66801C187.645 1.66801 186.424 2.26387 185.441 3.26258ZM183.598 8.75789C182.886 8.0338 182.624 6.96014 182.863 5.73452C183.087 4.5893 183.727 3.43198 184.668 2.47674C185.851 1.27388 187.362 0.556335 188.711 0.556335C189.573 0.556335 190.31 0.843912 190.846 1.38891C192.279 2.84472 191.809 5.60424 189.777 7.67006C188.594 8.87292 187.084 9.59047 185.735 9.59047C184.873 9.59047 184.134 9.30289 183.598 8.75789Z" fill="#121716"/>
<path fill-rule="evenodd" clip-rule="evenodd" d="M188.907 7.38898C186.088 3.43628 181.746 0.556274 176.834 0.556274C171.922 0.556274 167.581 3.43628 164.762 7.38898C161.332 12.1958 159.345 19.0101 161.385 24.7745C163.113 29.6575 167.261 33.368 172.139 34.7814C173.664 35.2243 175.249 35.4447 176.834 35.4447C178.42 35.4447 180.005 35.2243 181.53 34.7814C186.408 33.368 190.556 29.6575 192.284 24.7745C194.325 19.0101 192.337 12.1958 188.907 7.38898Z" fill="#828D8C"/>
<path fill-rule="evenodd" clip-rule="evenodd" d="M190.072 9.57587C189.877 8.78664 189.38 8.03761 188.918 7.38848C188.329 6.56122 187.669 5.78604 186.954 5.06958C184.405 3.82556 181.492 3.82774 179.271 5.35074C178.114 6.14542 177.302 7.25492 176.835 8.51953C176.367 7.25492 175.555 6.14542 174.398 5.35074C172.177 3.82774 169.263 3.82556 166.715 5.06958C166 5.78604 165.34 6.56122 164.751 7.38848C164.288 8.03761 163.792 8.78664 163.597 9.57587C163.393 10.3977 163.099 11.5006 163.137 12.3321C163.2 13.6848 164.024 14.6814 165.111 15.3968C165.377 15.5726 168.22 17.7851 167.955 17.9425C168.156 17.823 168.409 17.6775 168.691 17.5267V17.7796C169.723 17.1684 171.222 16.4193 172.226 16.5366L172.238 16.5387C172.267 16.542 172.291 16.5551 172.319 16.5605C172.595 16.6343 172.838 16.7711 173.023 17.0013C173.453 17.5321 173.491 18.1454 173.342 18.7414C173.453 18.6589 173.552 18.5547 173.66 18.4668C173.648 18.8771 173.556 19.1887 173.556 19.1887L173.369 19.4557C174.47 19.6674 175.627 19.7836 176.824 19.7836H176.83C176.839 19.7836 176.841 19.7836 176.841 19.7836C178.042 19.7836 179.199 19.6674 180.3 19.4557L180.113 19.1887C180.113 19.1887 180.021 18.8771 180.009 18.4668C180.117 18.5547 180.216 18.6589 180.327 18.7414C180.178 18.1454 180.216 17.5321 180.646 17.0013C180.831 16.7711 181.074 16.6343 181.35 16.5605C181.378 16.5551 181.402 16.542 181.431 16.5387L181.443 16.5366C182.447 16.4193 183.946 17.1684 184.978 17.7796V17.5267C185.26 17.6775 185.513 17.823 185.714 17.9425C185.449 17.7851 188.292 15.5726 188.558 15.3968C189.645 14.6814 190.469 13.6848 190.532 12.3321C190.57 11.5006 190.276 10.3977 190.072 9.57587Z" fill="#EDEDEA"/>
<path fill-rule="evenodd" clip-rule="evenodd" d="M176.835 22.0492C172.695 22.0492 169.34 26.2483 169.34 31.4287C169.34 32.4632 169.479 33.4544 169.726 34.3847C170.179 34.5225 170.627 34.6712 171.092 34.7809C172.957 35.2238 174.895 35.4442 176.835 35.4442C178.774 35.4442 180.712 35.2238 182.577 34.7809C183.042 34.6712 183.49 34.5225 183.943 34.3847C184.19 33.4544 184.329 32.4632 184.329 31.4287C184.329 26.2483 180.975 22.0492 176.835 22.0492Z" fill="#EDEDEA"/>
<path fill-rule="evenodd" clip-rule="evenodd" d="M177.68 13.5479C177.496 13.6088 177.302 13.6392 177.109 13.6554C177.124 13.6218 177.152 13.5957 177.152 13.5577V12.8043C177.186 12.7772 177.223 12.7588 177.253 12.7219L177.834 12.0076C178.064 11.7254 177.956 11.4941 177.595 11.4941H176.074C175.713 11.4941 175.606 11.7254 175.835 12.0076L176.416 12.7219C176.467 12.7859 176.529 12.8304 176.592 12.8651V13.5577C176.592 13.5957 176.619 13.6218 176.633 13.6554C176.439 13.638 176.247 13.6076 176.064 13.5479C175.826 13.4709 175.336 13.1821 175.269 13.6305C175.269 13.6576 175.269 13.6847 175.269 13.7119C175.269 14.6097 175.983 15.3371 176.87 15.3392H176.874C177.761 15.3371 178.475 14.6097 178.475 13.7119C178.475 13.6847 178.475 13.6576 178.475 13.6305C178.407 13.1821 177.917 13.4709 177.68 13.5479Z" fill="#121716"/>
<path fill-rule="evenodd" clip-rule="evenodd" d="M176.835 1.11156C172.436 1.11156 168.197 3.51836 165.205 7.71517C161.438 12.9943 160.14 19.6164 161.9 24.5862C163.517 29.1565 167.497 32.8585 172.289 34.2469C175.223 35.0979 178.447 35.0979 181.379 34.2469C186.172 32.8585 190.153 29.1565 191.769 24.5862C193.529 19.6164 192.232 12.9943 188.465 7.71517C185.472 3.51836 181.233 1.11156 176.835 1.11156ZM176.835 36C175.184 36 173.553 35.7699 171.989 35.315C166.787 33.8082 162.631 29.9382 160.87 24.9619C158.591 18.5221 161.158 11.493 164.32 7.06167C167.52 2.57378 172.082 0 176.835 0C181.587 0 186.149 2.57378 189.351 7.06167C192.511 11.493 195.078 18.5221 192.799 24.9619C191.038 29.9382 186.882 33.8082 181.679 35.315C180.116 35.7699 178.485 36 176.835 36Z" fill="#121716"/>
<path fill-rule="evenodd" clip-rule="evenodd" d="M172.442 7.11049C171.98 6.85754 171.466 6.72943 170.911 6.72943C169.365 6.72943 167.825 8.04962 167.07 8.93753C165.801 10.4303 164.626 13.4329 167.054 14.4631C167.932 14.8356 168.9 14.9484 169.844 14.9657C171.049 14.9896 172.338 14.9615 173.29 14.0973C174.255 13.2202 174.411 11.7873 174.321 10.5431C174.205 8.92773 173.537 7.70755 172.442 7.11049Z" fill="#121716"/>
<path fill-rule="evenodd" clip-rule="evenodd" d="M172.499 9.705C172.482 9.49227 172.252 9.25775 172.118 9.13619C171.818 8.87018 171.434 8.7226 171.036 8.7226C170.91 8.7226 170.781 8.73664 170.65 8.76497C170.141 8.87345 169.714 9.18498 169.478 9.62024C169.389 9.78527 169.236 10.1142 169.275 10.302C169.308 10.4583 169.454 10.5657 169.602 10.5928C169.8 10.6298 169.877 10.5353 169.971 10.3726C169.989 10.341 170.008 10.3084 170.029 10.2738C170.315 9.82329 170.719 9.57581 171.166 9.57581C171.417 9.57581 171.57 9.64954 171.797 9.8027C171.947 9.90368 172.11 10.1066 172.313 9.998C172.459 9.91881 172.507 9.81566 172.499 9.705Z" fill="#FFFFFE"/>
<path fill-rule="evenodd" clip-rule="evenodd" d="M181.228 7.11049C181.689 6.85754 182.204 6.72943 182.758 6.72943C184.304 6.72943 185.844 8.04962 186.599 8.93753C187.868 10.4303 189.043 13.4329 186.615 14.4631C185.737 14.8356 184.77 14.9484 183.826 14.9657C182.62 14.9896 181.331 14.9615 180.38 14.0973C179.414 13.2202 179.259 11.7873 179.348 10.5431C179.465 8.92773 180.132 7.70755 181.228 7.11049Z" fill="#121716"/>
<path fill-rule="evenodd" clip-rule="evenodd" d="M181.17 9.705C181.187 9.49227 181.417 9.25775 181.551 9.13619C181.851 8.87018 182.235 8.7226 182.633 8.7226C182.759 8.7226 182.888 8.73664 183.019 8.76497C183.528 8.87345 183.955 9.18498 184.191 9.62024C184.28 9.78527 184.433 10.1142 184.394 10.302C184.36 10.4583 184.215 10.5657 184.067 10.5928C183.869 10.6298 183.792 10.5353 183.698 10.3726C183.68 10.341 183.661 10.3084 183.64 10.2738C183.354 9.82329 182.95 9.57581 182.503 9.57581C182.252 9.57581 182.099 9.64954 181.872 9.8027C181.722 9.90368 181.559 10.1066 181.356 9.998C181.21 9.91881 181.162 9.81566 181.17 9.705Z" fill="#FFFFFE"/>
<path fill-rule="evenodd" clip-rule="evenodd" d="M165.983 19.8257C165.838 19.8257 165.693 19.7671 165.585 19.651C165.378 19.4274 165.389 19.0757 165.609 18.865C165.733 18.7456 166.855 17.6841 167.65 17.2943C167.92 17.1631 168.248 17.277 168.379 17.5538C168.511 17.8295 168.396 18.1617 168.124 18.2951C167.58 18.5622 166.665 19.3818 166.358 19.6749C166.252 19.7759 166.118 19.8257 165.983 19.8257Z" fill="#121716"/>
<path fill-rule="evenodd" clip-rule="evenodd" d="M172.515 16.2977C171.006 15.3751 168.656 16.6603 167.842 17.1651C167.172 16.8308 166.58 16.3422 166.039 15.8244C165.386 15.2013 164.976 14.8094 164.541 13.9908C164.438 13.8389 164.278 13.726 164.082 13.726C163.443 13.726 163.454 14.4143 163.708 14.8203C164.491 16.0708 165.386 16.8808 166.596 17.7079C166.937 17.9403 167.297 18.1552 167.68 18.3093C167.847 18.3766 168.04 18.3593 168.19 18.2573C168.857 17.8067 170.97 16.6538 171.954 17.2509C172.432 17.5429 172.687 17.9446 172.712 18.4451C172.755 19.3471 172.044 20.4436 170.809 21.3793C169.54 22.3401 167.301 22.6104 165.365 22.0382C163.986 21.6312 162.151 20.6303 161.232 18.1801C161.126 17.8913 160.806 17.7481 160.528 17.8588C160.245 17.9674 160.104 18.2887 160.212 18.5753C161.053 20.8215 162.774 22.4302 165.06 23.1055C165.843 23.3377 166.662 23.4506 167.463 23.4506C168.988 23.4506 170.446 23.0414 171.462 22.2717C173.014 21.096 173.867 19.6816 173.803 18.3897C173.76 17.5212 173.303 16.7787 172.515 16.2977Z" fill="#121716"/>
<path fill-rule="evenodd" clip-rule="evenodd" d="M187.686 19.8257C187.831 19.8257 187.976 19.7671 188.084 19.651C188.291 19.4274 188.28 19.0757 188.06 18.865C187.935 18.7456 186.814 17.6841 186.019 17.2943C185.749 17.1631 185.421 17.277 185.29 17.5538C185.158 17.8295 185.273 18.1617 185.545 18.2951C186.089 18.5622 187.004 19.3818 187.311 19.6749C187.416 19.7759 187.551 19.8257 187.686 19.8257Z" fill="#121716"/>
<path fill-rule="evenodd" clip-rule="evenodd" d="M181.154 16.2977C182.663 15.3751 185.013 16.6603 185.827 17.1651C186.497 16.8308 187.089 16.3422 187.63 15.8244C188.283 15.2013 188.693 14.8094 189.129 13.9908C189.231 13.8389 189.391 13.726 189.586 13.726C190.226 13.726 190.216 14.4143 189.961 14.8203C189.178 16.0708 188.283 16.8808 187.073 17.7079C186.732 17.9403 186.372 18.1552 185.989 18.3093C185.822 18.3766 185.629 18.3593 185.479 18.2573C184.812 17.8067 182.699 16.6538 181.716 17.2509C181.237 17.5429 180.982 17.9446 180.957 18.4451C180.914 19.3471 181.625 20.4436 182.86 21.3793C184.129 22.3401 186.368 22.6104 188.304 22.0382C189.683 21.6312 191.518 20.6303 192.437 18.1801C192.543 17.8913 192.863 17.7481 193.141 17.8588C193.424 17.9674 193.565 18.2887 193.457 18.5753C192.616 20.8215 190.895 22.4302 188.609 23.1055C187.826 23.3377 187.007 23.4506 186.206 23.4506C184.681 23.4506 183.223 23.0414 182.207 22.2717C180.655 21.096 179.802 19.6816 179.866 18.3897C179.909 17.5212 180.366 16.7787 181.154 16.2977Z" fill="#121716"/>
<path fill-rule="evenodd" clip-rule="evenodd" d="M168.645 27.6182C170.437 29.4398 170.834 31.9931 169.529 33.3186C168.225 34.6452 165.713 34.2446 163.921 32.4219C162.129 30.5981 161.732 28.047 163.039 26.7204C164.342 25.3928 166.854 25.7955 168.645 27.6182Z" fill="#828D8C"/>
<path fill-rule="evenodd" clip-rule="evenodd" d="M168.042 29.7308C169.027 30.7338 169.189 32.195 168.402 32.9961C167.614 33.7974 166.174 33.6346 165.189 32.6315C164.202 31.6273 164.04 30.165 164.828 29.3638C165.616 28.5627 167.055 28.7276 168.042 29.7308Z" fill="#EDEDEA"/>
<path fill-rule="evenodd" clip-rule="evenodd" d="M165.047 26.4935C164.384 26.4935 163.824 26.7074 163.426 27.1134C162.921 27.6258 162.719 28.402 162.859 29.2986C163.007 30.2594 163.522 31.2288 164.308 32.029C165.816 33.564 168.098 33.9906 169.143 32.9256C169.647 32.4132 169.848 31.6381 169.709 30.7414C169.559 29.7796 169.045 28.8102 168.259 28.0113C167.324 27.0613 166.124 26.4935 165.047 26.4935ZM167.52 34.6571C166.138 34.6571 164.686 33.9851 163.535 32.8148C162.586 31.8509 161.963 30.6622 161.778 29.4713C161.583 28.2142 161.893 27.0972 162.653 26.3274C163.259 25.7087 164.087 25.3819 165.047 25.3819C166.427 25.3819 167.881 26.0538 169.032 27.2252C169.98 28.1893 170.604 29.3758 170.788 30.5677C170.984 31.8249 170.674 32.9418 169.916 33.7117C169.307 34.3303 168.479 34.6571 167.52 34.6571Z" fill="#121716"/>
<path fill-rule="evenodd" clip-rule="evenodd" d="M185.024 27.6182C183.232 29.4398 182.835 31.9931 184.14 33.3186C185.445 34.6452 187.956 34.2446 189.748 32.4219C191.54 30.5981 191.937 28.047 190.63 26.7204C189.327 25.3928 186.816 25.7955 185.024 27.6182Z" fill="#828D8C"/>
<path fill-rule="evenodd" clip-rule="evenodd" d="M185.627 29.7308C184.643 30.7338 184.48 32.195 185.267 32.9961C186.055 33.7974 187.495 33.6346 188.48 32.6315C189.467 31.6273 189.629 30.165 188.841 29.3638C188.053 28.5627 186.614 28.7276 185.627 29.7308Z" fill="#EDEDEA"/>
<path fill-rule="evenodd" clip-rule="evenodd" d="M185.41 28.0113C184.624 28.8102 184.11 29.7796 183.96 30.7414C183.821 31.6381 184.022 32.4132 184.526 32.9256C185.572 33.9906 187.853 33.564 189.361 32.029C190.147 31.2288 190.662 30.2594 190.81 29.2986C190.95 28.402 190.748 27.6258 190.243 27.1134C189.845 26.7074 189.285 26.4935 188.622 26.4935C187.545 26.4935 186.345 27.0613 185.41 28.0113ZM183.753 33.7117C182.995 32.9418 182.685 31.8249 182.881 30.5677C183.065 29.3758 183.689 28.1893 184.637 27.2252C185.788 26.0538 187.242 25.3819 188.622 25.3819C189.582 25.3819 190.41 25.7087 191.016 26.3274C191.776 27.0972 192.086 28.2142 191.891 29.4713C191.706 30.6622 191.083 31.8509 190.134 32.8148C188.983 33.9851 187.531 34.6571 186.149 34.6571C185.19 34.6571 184.362 34.3303 183.753 33.7117Z" fill="#121716"/>
<path fill-rule="evenodd" clip-rule="evenodd" d="M180.265 1.19675C180.291 1.11429 180.318 1.03402 180.341 0.947076C179.205 0.694251 178.034 0.556335 176.834 0.556335C175.635 0.556335 174.464 0.694251 173.328 0.947076C173.351 1.03402 173.378 1.11429 173.404 1.19675L172.807 1.30319L172.89 1.56158L172.916 1.76343C173.091 1.70156 173.275 1.66136 173.473 1.66136C173.79 1.66136 174.125 1.79394 174.387 1.96976C175.371 2.64275 176.092 3.55028 176.579 4.57841C176.634 4.6576 176.713 4.72057 176.825 4.72057C176.949 4.72057 177.037 4.64683 177.091 4.55565H177.099C177.587 3.53732 178.304 2.63851 179.282 1.96976C179.543 1.79394 179.879 1.66136 180.196 1.66136C180.394 1.66136 180.578 1.70156 180.752 1.76343L180.779 1.56158L180.862 1.30319L180.265 1.19675Z" fill="#121716"/>
<defs>
<clipPath id="clip0">
<rect width="104" height="29" fill="white" transform="translate(0 3)"/>
</clipPath>
</defs>
</svg>
