<svg width="228" height="72" viewBox="0 0 228 72" fill="none" xmlns="http://www.w3.org/2000/svg">
<g clip-path="url(#clip0)">
<path d="M176.097 59.5345C174.607 57.7954 173.473 55.7767 172.758 53.5944L172.565 53.0456L172.371 52.3747L172.25 51.96L172.057 51.1916L171.96 50.7403C171.863 50.3134 171.779 49.8621 171.706 49.4108C171.691 49.2469 171.667 49.084 171.634 48.9229L171.537 48.1301C171.556 47.9558 171.556 47.7799 171.537 47.6056L171.476 46.9348L205.345 38.7017C205.146 36.9335 204.625 35.2175 203.809 33.6398C202.553 30.8814 200.51 28.5629 197.942 26.9802C195.097 25.1659 191.901 23.9849 188.568 23.5162L187.999 23.4308C185.989 23.2068 183.961 23.2068 181.951 23.4308C176.618 24.0124 171.611 26.3039 167.666 29.9685C163.77 33.5428 161.166 38.3235 160.263 43.5562V43.7635C160.203 44.105 160.155 44.4343 160.118 44.8125C160.082 45.1906 160.118 45.2394 160.046 45.4833C160.061 45.67 160.061 45.8577 160.046 46.0444C160.07 46.3692 160.07 46.6953 160.046 47.0201V48.5936C160.124 51.418 160.715 54.2042 161.787 56.8145C163.7 61.2884 166.861 65.1054 170.885 67.8013C174.909 70.4973 179.624 71.956 184.455 72C188.541 72.0832 192.587 71.1711 196.249 69.341C199.871 67.5374 202.995 64.8602 205.345 61.547L204.764 60.0711C202.369 64.6817 185.846 70.4143 176.097 59.5345ZM191.507 39.2749L171.367 44.1538C171.367 43.5439 171.367 42.9341 171.452 42.3608V42.1779C171.442 41.9828 171.442 41.7874 171.452 41.5924L171.549 40.7996C171.731 39.5306 172.015 38.2784 172.396 37.055C173.079 34.7851 174.125 32.6428 175.492 30.7125C176.739 28.9336 178.342 27.4378 180.197 26.3215C181.973 25.2511 184.007 24.694 186.076 24.7115C188.963 24.7115 191.076 25.5246 192.414 27.1509C192.902 27.7176 193.309 28.3498 193.624 29.0293C194.966 32.4811 194.87 38.226 191.507 39.2749Z" fill="#270157"/>
<path d="M115.653 60.0346C113.234 64.6939 96.7348 70.4144 86.9856 59.5467C85.3868 57.668 84.1923 55.475 83.4778 53.1066C82.6367 50.4209 82.2283 47.6165 82.2682 44.8003C82.2501 42.171 82.6336 39.5545 83.4052 37.0429C84.0884 34.773 85.1343 32.6306 86.5017 30.7004C87.7269 28.9359 89.2999 27.4452 91.1224 26.3216C92.8985 25.2517 94.9321 24.6947 97.0009 24.7115C99.8878 24.7115 102.001 25.5247 103.339 27.151C104.719 28.9094 105.431 31.1066 105.347 33.3471C105.377 34.5107 105.205 35.6705 104.839 36.7746L115.121 34.3351C111.383 24.5774 98.9968 23.2235 96.7106 23.2235C77.0911 22.9064 66.3258 41.5193 72.664 56.6804C74.579 61.157 77.7412 64.977 81.7671 67.6769C85.7929 70.3767 90.5092 71.8404 95.3438 71.8903C99.4299 71.9735 103.476 71.0614 107.137 69.2313C110.759 67.4281 113.884 64.7509 116.233 61.4373L115.653 60.0346Z" fill="#270157"/>
<path d="M160.264 60.0346C157.844 64.6939 141.346 70.4144 131.596 59.5467C130.014 57.6805 128.832 55.5045 128.125 53.1554C127.284 50.4696 126.876 47.6653 126.915 44.8491C126.897 42.2198 127.281 39.6033 128.052 37.0917C128.732 34.8225 129.773 32.6801 131.137 30.7492C132.359 28.9691 133.932 27.4619 135.757 26.3216C137.533 25.2511 139.567 24.6941 141.636 24.7115C144.515 24.7115 146.627 25.5247 147.974 27.151C149.367 28.9044 150.092 31.102 150.018 33.3472C150.049 34.5118 149.873 35.6726 149.498 36.7746L159.719 34.3351C156.006 24.5774 143.62 23.2357 141.358 23.2357C121.738 22.9186 110.973 41.5315 117.311 56.6926C119.214 61.1806 122.369 65.0138 126.394 67.7252C130.419 70.4366 135.139 71.9091 139.979 71.9634C144.073 72.0507 148.127 71.1384 151.796 69.3045C155.418 67.5009 158.543 64.8237 160.893 61.5105L160.264 60.0346Z" fill="#270157"/>
<path d="M220.174 62.2057V0L205.659 3.56158H205.562V4.93986C206.07 4.93986 210.461 6.15958 210.461 9.20888V61.9861C210.461 68.6458 205.792 69.6094 202.635 69.8167V70.9267H228V69.8167C224.855 69.6094 220.283 68.6336 220.174 62.2057Z" fill="#270157"/>
<path d="M44.7232 0L30.3533 3.54938H30.2444V4.62273C30.7524 4.62273 35.0223 6.14738 33.8732 8.89175C28.4179 21.0645 10.7217 61.6934 9.79029 63.523C6.73003 69.6216 2.3876 69.6216 0.597412 69.8167V70.9267H23.0958V69.7923C23.0958 69.7923 14.5561 69.8899 14.5561 65.3891C14.5561 62.657 18.9711 51.9112 20.1685 48.9717L49.4769 41.7632C49.5495 41.9461 57.436 61.2055 57.436 65.2672C57.436 69.6581 50.4325 69.7923 50.1784 69.7923V70.9023H79.5352V69.7923C77.4512 69.828 75.4028 69.246 73.6439 68.1185C71.885 66.9911 70.4931 65.3677 69.6407 63.4498C68.7577 61.6934 44.7232 0 44.7232 0ZM48.4608 39.275L21.4023 45.9346C21.5475 45.5809 36.2682 10.7945 36.6794 9.91632C37.2963 11.3678 48.4487 39.275 48.4487 39.275H48.4608Z" fill="#270157"/>
</g>
<defs>
<clipPath id="clip0">
<rect width="72" height="227.415" fill="white" transform="translate(228) rotate(90)"/>
</clipPath>
</defs>
</svg>
