<svg width="100" height="125" viewBox="0 0 100 125" fill="none" xmlns="http://www.w3.org/2000/svg">
<path d="M95.2523 54.2787L93.59 37.5816L87.9135 33.4278L90.2533 25.4797L87.8645 15.8023L80.341 13.0989L74.1104 8.06287L70.3176 7.77296L59.9864 17.16L54.3839 16.3129L55.9722 12.7042L45.4686 6.8446L44.4467 2.85325L32.0334 0.961426L33.4002 14.9321L36.7931 17.7831L30.691 17.7633L29.9645 21.6388L30.3706 23.2283L24.3002 19.7821L16.8752 20.397L14.6217 23.797L15.89 31.6989L13.6737 43.3835L6.50686 49.6956L1.65533 49.7653L4.21655 56.6927L1.05176 66.335L4.95533 73.9816L2.36961 75.6061L3.92114 86.8383L9.05584 92.2105L15.065 93.1734L25.2487 96.0508L19.6584 102.27L15.7181 117.424L25.3227 119.188L31.763 118.19L39.9023 119.431L47.9921 124.038L50.5533 120.383L59.1114 122.402L63.2859 119.292L76.5109 117.76L76.0798 110.427L86.9405 103.547L87.8762 99.5432L76.0303 90.8869L68.5579 77.0672L73.7482 77.1032L92.0017 65.1398L96.7058 65.9869L98.9472 58.9903L95.2523 54.2787Z" fill="#E0E6ED"/>
</svg>
