<svg width="297" height="221" viewBox="0 0 297 221" fill="none" xmlns="http://www.w3.org/2000/svg">
<path d="M13.447 68.8632C13.2589 68.2959 13.3016 67.862 13.575 67.5614C13.8415 67.2399 14.2199 66.9745 14.7103 66.7653C15.2146 66.5281 15.7609 66.3119 16.3492 66.1169C16.9306 65.9008 17.442 65.6146 17.8836 65.2583C18.3461 64.8951 18.6723 64.4371 18.8622 63.8844C19.0521 63.3317 18.9938 62.5931 18.6872 61.6687C17.8164 59.0424 16.9378 56.885 16.0515 55.1966C15.1862 53.5013 14.1487 52.2712 12.9389 51.5063C11.7502 50.7344 10.3367 50.4102 8.69858 50.5336C7.08143 50.6501 5.0961 51.2034 2.74259 52.1937C2.67259 52.1935 2.54315 52.1548 2.35428 52.0775C2.18642 51.9933 2.00456 51.902 1.80872 51.8037C1.61288 51.7054 1.43103 51.6141 1.26317 51.5298C1.10935 51.4176 1.00098 51.3369 0.938061 51.2878C0.903117 51.2528 0.878678 51.2142 0.864745 51.1722C0.822835 51.1161 0.787947 51.0461 0.76008 50.962C0.746147 50.92 0.739236 50.864 0.739347 50.794C0.725414 50.752 0.721986 50.7065 0.729063 50.6575C0.771195 50.5736 0.830854 50.4722 0.90804 50.3533C1.00624 50.2274 1.11842 50.1086 1.2446 49.9968C1.38481 49.8571 1.50048 49.7487 1.5916 49.6719C1.69677 49.5671 1.78086 49.5042 1.8439 49.4833C2.23613 49.3299 2.82448 49.0999 3.60895 48.7931C4.41443 48.4794 5.32496 48.1308 6.34054 47.7474C7.34916 47.3431 8.43131 46.9143 9.587 46.4611C10.7637 46.001 11.9334 45.5548 13.096 45.1227C14.2727 44.6626 15.3934 44.2444 16.458 43.868C17.5435 43.4848 18.517 43.1503 19.3785 42.8647C19.5944 43.516 19.6356 44.0621 19.5019 44.5029C19.3612 44.9226 19.1331 45.2897 18.8177 45.6042C18.5162 45.8908 18.1588 46.1492 17.7454 46.3795C17.3531 46.6029 16.9922 46.8508 16.6628 47.1233C16.3474 47.3678 16.1124 47.6789 15.9578 48.0567C15.7963 48.4134 15.8061 48.8649 15.9872 49.4112C16.3495 50.5037 16.8063 51.5299 17.3578 52.4898C17.9303 53.4427 18.5238 54.3886 19.1383 55.3275C19.7458 56.2455 20.3253 57.1844 20.8768 58.1442C21.4492 59.0971 21.9096 60.0988 22.258 61.1493C22.5715 62.0948 22.647 63.0259 22.4845 63.9426C22.3221 64.8594 21.9883 65.7163 21.483 66.5135C20.9988 67.3037 20.3817 68.0097 19.6317 68.6315C18.8958 69.2253 18.1076 69.6616 17.2672 69.9402C16.931 70.0517 16.5634 70.1386 16.1643 70.201C15.7862 70.2564 15.4117 70.2523 15.0408 70.1887C14.684 70.0971 14.3587 69.9601 14.065 69.7777C13.7853 69.5672 13.5793 69.2624 13.447 68.8632Z" fill="#1F2D3D"/>
<path d="M26.8803 59.5817C26.4484 58.279 26.3525 56.9699 26.5926 55.6543C26.8257 54.3177 27.3036 53.0865 28.0264 51.9607C28.7632 50.8069 29.6748 49.7933 30.7611 48.9201C31.8685 48.0398 33.063 47.3872 34.3447 46.9623C35.059 46.7254 35.766 46.7475 36.4655 47.0286C37.186 47.3028 37.8469 47.7133 38.448 48.2603C39.0422 48.7862 39.5557 49.3855 39.9886 50.0581C40.4426 50.7239 40.7601 51.3298 40.9412 51.8761C41.3314 53.0527 41.4274 54.2918 41.2293 55.5935C41.0243 56.8741 40.6129 58.095 39.9951 59.256C39.3703 60.3959 38.5777 61.4167 37.6173 62.3181C36.6569 63.2196 35.6094 63.8584 34.4748 64.2346C33.4663 64.569 32.5596 64.6831 31.7548 64.5768C30.9431 64.4495 30.233 64.1719 29.6247 63.7439C29.0094 63.295 28.4679 62.7166 28 62.0089C27.5462 61.2732 27.1729 60.4641 26.8803 59.5817ZM29.6637 59.0086C29.8448 59.5549 30.0471 60.0242 30.2705 60.4165C30.5079 60.7809 30.7909 61.0718 31.1196 61.2894C31.4692 61.4999 31.8715 61.623 32.3264 61.6588C32.7744 61.6735 33.2925 61.5833 33.8808 61.3882C34.6582 61.1305 35.3659 60.6626 36.004 59.9846C36.6351 59.2856 37.1473 58.5095 37.5407 57.6561C37.948 56.7748 38.2085 55.8722 38.3219 54.9484C38.4354 54.0246 38.3667 53.1845 38.1159 52.4281C38.0045 52.092 37.851 51.7347 37.6556 51.3564C37.4602 50.9781 37.2333 50.6453 36.9747 50.3579C36.7162 50.0705 36.412 49.8565 36.0623 49.7159C35.7125 49.5754 35.3275 49.5748 34.9073 49.7141C34.5291 49.8395 34.1192 50.1154 33.6775 50.5416C33.2568 50.961 32.8291 51.4643 32.3941 52.0516C31.9802 52.6319 31.5837 53.2648 31.2047 53.9502C30.8466 54.6286 30.5306 55.2931 30.2565 55.9436C29.9825 56.5942 29.7856 57.1958 29.6657 57.7486C29.5668 58.2945 29.5662 58.7145 29.6637 59.0086Z" fill="#1F2D3D"/>
<path d="M42.6058 48.3508C42.564 48.2248 42.4978 48.0252 42.4072 47.752C42.3307 47.4509 42.2402 47.1428 42.1357 46.8276C42.0522 46.5055 41.9617 46.1974 41.8642 45.9032C41.7876 45.6021 41.7285 45.3885 41.6867 45.2624C41.8063 44.8496 42.0099 44.479 42.2974 44.1504C42.6059 43.8149 42.9284 43.5214 43.2648 43.27C43.704 44.3837 44.2832 45.5325 45.0023 46.7167C45.7214 47.9008 46.465 49.0884 47.2331 50.2796C47.9942 51.4498 48.7099 52.6234 49.38 53.8004C50.0711 54.9705 50.5978 56.1018 50.9601 57.1944C51.2736 58.1398 50.9471 58.7728 49.9806 59.0933C49.3923 59.2883 48.8184 59.2104 48.259 58.8595C47.6996 58.5087 47.1719 58.0073 46.6759 57.3556C46.194 56.6758 45.7297 55.9086 45.2831 55.0539C44.8295 54.1782 44.4249 53.3096 44.0693 52.4481C43.7346 51.5795 43.4349 50.7811 43.1701 50.0527C42.9262 49.3173 42.7381 48.75 42.6058 48.3508ZM39.1283 36.3861C39.5832 36.4218 40.0099 36.5835 40.4085 36.8711C40.807 37.1587 41.0375 37.4671 41.1 37.7962C41.1765 38.0973 41.0151 38.384 40.6157 38.6564C40.2093 38.9077 39.4321 39.0255 38.2842 39.0097C38.0961 38.4424 38.0374 37.9138 38.1082 37.424C38.1999 36.9271 38.54 36.5812 39.1283 36.3861Z" fill="#1F2D3D"/>
<path d="M49.1169 47.5212C48.9358 46.9749 48.9435 46.5409 49.14 46.2192C49.3295 45.8765 49.729 45.6042 50.3383 45.4021L50.6534 45.2976C50.8279 45.6129 51.0303 45.9772 51.2607 46.3906C51.491 46.8039 51.7669 47.2139 52.0882 47.6204C52.4096 48.0269 52.752 48.3914 53.1155 48.714C53.472 49.0155 53.8566 49.2261 54.2694 49.3458C54.0466 48.6034 53.9918 47.8404 54.1051 47.0566C54.2323 46.2448 54.461 45.4927 54.7911 44.8002C55.1352 44.0798 55.5528 43.4399 56.0436 42.8807C56.5485 42.2935 57.0848 41.8359 57.6523 41.5078L58.3456 41.2779C59.3541 40.9435 60.2922 40.889 61.1598 41.1144C62.0205 41.3187 62.8038 41.7119 63.5099 42.2941C64.23 42.8482 64.8694 43.5457 65.428 44.3865C65.9867 45.2274 66.4893 46.1102 66.9358 47.0349C67.3964 47.9316 67.7869 48.8282 68.1075 49.7247C68.4421 50.5932 68.7139 51.3426 68.9229 51.9729L66.6223 52.7357C66.0782 51.5169 65.5201 50.361 64.9478 49.2682C64.7315 48.8268 64.4872 48.3715 64.215 47.902C63.9358 47.4116 63.66 46.9667 63.3876 46.5673C63.1083 46.1468 62.8324 45.7719 62.5599 45.4425C62.2805 45.092 62.0009 44.8116 61.7213 44.6012C61.6094 44.545 61.4555 44.4677 61.2596 44.3694C61.0848 44.2642 60.8995 44.1624 60.7036 44.0641C60.5078 43.9658 60.3294 43.885 60.1685 43.8217C60.0076 43.7585 59.9167 43.7303 59.8957 43.7373C59.2096 43.7782 58.7052 44.0854 58.3823 44.6589C58.0524 45.2113 57.8238 45.8935 57.6965 46.7052C57.5693 47.517 57.5363 48.4025 57.5978 49.3615C57.6803 50.3136 57.7839 51.2238 57.9085 52.092C58.0262 52.9391 58.1545 53.6778 58.2935 54.308C58.4255 54.9172 58.5019 55.2883 58.5227 55.4214C58.1229 55.9737 57.6674 56.253 57.1564 56.2592C56.6385 56.2444 56.0858 56.0545 55.4984 55.6896C54.932 55.3177 54.3553 54.8093 53.7683 54.1644C53.2024 53.5125 52.6435 52.8116 52.0917 52.0618C51.5329 51.2909 50.9952 50.5131 50.4784 49.7283C49.9827 48.9365 49.5288 48.2008 49.1169 47.5212Z" fill="#1F2D3D"/>
<path d="M81.1515 34.4156C81.1097 34.2896 81.0365 34.069 80.932 33.7538C80.8415 33.4107 80.7371 33.0605 80.6187 32.7033C80.5002 32.3462 80.3923 32.0205 80.2947 31.7264C80.2112 31.4042 80.1486 31.1801 80.1068 31.0541C80.1703 30.7532 80.2582 30.4558 80.3707 30.162C80.4972 29.8402 80.6516 29.6025 80.8338 29.4488C81.0301 29.2671 81.2648 29.1659 81.5378 29.1454C81.8318 29.1178 82.1746 29.2374 82.5662 29.504L82.6498 29.7561L82.7856 30.1658C82.7995 30.2778 82.841 30.5439 82.9104 30.964C82.9727 31.3631 83.0385 31.8077 83.1078 32.2978C83.177 32.7879 83.2358 33.2465 83.2841 33.6735C83.3464 34.0726 83.395 34.3247 83.4299 34.4298C83.5622 34.829 83.7715 35.3193 84.0575 35.9007C84.3366 36.4611 84.6577 37.0426 85.0208 37.6452C85.4048 38.2408 85.8204 38.8259 86.2674 39.4006C86.7355 39.9684 87.2248 40.4591 87.7351 40.8729C88.2384 41.2657 88.7455 41.564 89.2561 41.7678C89.7878 41.9646 90.3268 41.9725 90.8731 41.7914C91.5454 41.5684 92.0745 41.1948 92.4603 40.6704C92.8671 40.1391 93.1656 39.527 93.3557 38.8344C93.5458 38.1417 93.6379 37.3998 93.6322 36.6089C93.6475 35.8109 93.6102 35.0304 93.5204 34.2672C93.4237 33.4831 93.2953 32.7444 93.1354 32.0512C92.9755 31.3579 92.812 30.7592 92.6448 30.2549C92.4776 29.7507 92.2788 29.2919 92.0485 28.8785C91.8322 28.4372 91.5984 28.0133 91.347 27.6069C91.0956 27.2006 90.8583 26.8012 90.6349 26.4088C90.4256 25.9885 90.2478 25.5577 90.1015 25.1165C89.9691 24.7173 90.0116 24.3884 90.229 24.1297C90.4674 23.8641 90.7652 23.6721 91.1224 23.5537C91.5636 23.4074 91.9661 23.4255 92.3298 23.6081C92.6865 23.7696 93.0046 24.0256 93.2841 24.3761C93.5845 24.7195 93.8428 25.1469 94.059 25.6583C94.2893 26.1416 94.488 26.6354 94.6552 27.1397C94.8224 27.6439 94.9721 28.1307 95.1043 28.5999C95.2296 29.048 95.3376 29.4087 95.4281 29.6819C95.665 30.3962 95.8807 31.2225 96.0752 32.1608C96.2697 33.0991 96.3906 34.0968 96.4379 35.1538C96.4993 36.1829 96.4837 37.2258 96.391 38.2827C96.3193 39.3325 96.1218 40.3192 95.7983 41.2427C95.4889 42.1382 95.0397 42.9284 94.4506 43.6135C93.8825 44.2916 93.1468 44.7804 92.2433 45.08C91.2979 45.3935 90.3948 45.448 89.5341 45.2437C88.6665 45.0183 87.8587 44.6215 87.1106 44.0534C86.3765 43.4572 85.6847 42.7421 85.035 41.9081C84.3853 41.0741 83.8092 40.2157 83.3066 39.3329C82.825 38.4432 82.3959 37.571 82.0193 36.7165C81.6567 35.8339 81.3674 35.067 81.1515 34.4156Z" fill="#1F2D3D"/>
<path d="M107.195 38.4783C107.454 38.1357 107.756 37.7092 108.1 37.1987C108.458 36.6603 108.809 36.1009 109.153 35.5204C109.496 34.94 109.802 34.349 110.069 33.7474C110.336 33.1459 110.515 32.5967 110.607 32.0998C110.713 31.575 110.703 31.1235 110.578 30.7453C110.452 30.3671 110.159 30.1147 109.697 29.9879C109.024 30.2109 108.3 30.4862 107.522 30.814C106.738 31.1207 105.946 31.4065 105.148 31.6712C104.342 31.9149 103.541 32.0991 102.742 32.2239C101.965 32.3416 101.227 32.33 100.527 32.1889C99.8273 32.0478 99.1978 31.7318 98.6386 31.2409C98.0934 30.722 97.6606 29.9794 97.3401 29.0129C96.9639 27.8783 96.8362 26.7896 96.9568 25.7469C97.0915 24.6761 97.4011 23.6756 97.8855 22.7454C98.363 21.7942 98.9559 20.9096 99.6642 20.0918C100.387 19.2459 101.137 18.4841 101.915 17.8064C102.51 17.7723 103.101 17.8678 103.689 18.0927C104.276 18.3176 104.815 18.6055 105.304 18.9562C105.311 19.4672 105.135 19.9219 104.777 20.3204C104.441 20.7118 104.02 21.0961 103.515 21.4733C103.032 21.8436 102.52 22.2347 101.981 22.6469C101.441 23.059 100.978 23.5273 100.592 24.0517C100.221 24.5481 99.9607 25.1356 99.8126 25.8144C99.6576 26.4721 99.7299 27.2527 100.029 28.1562C100.252 28.8285 100.584 29.2665 101.025 29.4702C101.465 29.6739 101.98 29.7482 102.568 29.6931C103.149 29.6171 103.783 29.4536 104.469 29.2027C105.149 28.9308 105.835 28.6448 106.528 28.3449C107.243 28.0381 107.947 27.7697 108.64 27.5398C109.327 27.2889 109.974 27.1674 110.583 27.1754C111.185 27.1623 111.71 27.3032 112.158 27.5979C112.626 27.8856 112.989 28.4182 113.247 29.1956C113.358 29.5317 113.386 30.0008 113.329 30.6027C113.293 31.1976 113.187 31.8624 113.011 32.5971C112.848 33.3038 112.613 34.0349 112.304 34.7904C112.015 35.539 111.678 36.2454 111.292 36.9098C110.92 37.5462 110.513 38.1125 110.072 38.6088C109.644 39.0771 109.199 39.3879 108.737 39.5412C108.295 39.6875 107.949 39.6274 107.698 39.361C107.467 39.0877 107.299 38.7934 107.195 38.4783Z" fill="#1F2D3D"/>
<path d="M118.669 33.2046C118.942 33.114 119.233 33.1109 119.541 33.1954C119.869 33.273 120.107 33.4273 120.254 33.6585C120.414 33.8618 120.438 34.1453 120.326 34.5091C120.213 34.873 119.852 35.2959 119.242 35.7779C118.647 35.882 118.192 35.8812 117.877 35.7757C117.577 35.6423 117.37 35.4774 117.259 35.2813C117.161 35.0571 117.141 34.8191 117.197 34.5672C117.267 34.2873 117.373 34.0425 117.513 33.8327C117.667 33.595 117.853 33.4168 118.07 33.2981C118.281 33.1584 118.48 33.1273 118.669 33.2046ZM109.367 13.0618C109.76 12.3484 110.163 12.0866 110.575 12.2762C110.988 12.4659 111.404 12.946 111.823 13.7167C112.262 14.4803 112.684 15.4365 113.088 16.5851C113.486 17.7127 113.883 18.8753 114.28 20.0729C114.698 21.2635 115.095 22.3911 115.472 23.4557C115.869 24.5133 116.246 25.3329 116.602 25.9144C116.706 26.2296 116.776 26.5097 116.81 26.7548C116.845 26.9998 116.834 27.2133 116.778 27.3952C116.721 27.5771 116.592 27.7484 116.388 27.9091C116.178 28.0487 115.884 28.1813 115.506 28.3067C115.443 28.3276 115.369 28.3169 115.285 28.2748C115.201 28.2327 115.079 28.075 114.919 27.8017C114.751 27.5075 114.531 27.0556 114.259 26.4462C113.98 25.8158 113.618 24.9332 113.172 23.7986C112.746 22.6569 112.213 21.2246 111.572 19.5016C110.952 17.7717 110.217 15.6251 109.367 13.0618Z" fill="#1F2D3D"/>
<path d="M92.8252 65.2213C99.2936 75.7791 117.186 96.1324 137.006 93.0826" stroke="black" stroke-width="2"/>
<path fill-rule="evenodd" clip-rule="evenodd" d="M289.795 120.167C289.375 119.303 288.763 118.513 287.851 118.009C286.847 117.457 285.749 117.363 284.721 117.547L284.648 117.508C269.198 120.187 253.609 131.997 244.206 150.1C234.075 169.608 233.928 191.027 242.181 205.685C258.759 204.332 276.069 192.122 286.2 172.615C295.641 154.453 296.4 134.649 289.795 120.167Z" fill="#828D8C"/>
<path fill-rule="evenodd" clip-rule="evenodd" d="M284.618 119.545C269.395 122.334 254.607 134.367 245.95 151.035C236.785 168.681 235.784 189.127 243.282 203.565C259.245 201.704 275.296 189.326 284.457 171.681C293.217 154.829 294.576 135.416 288.005 121.008C287.728 120.441 287.363 120.019 286.909 119.768C286.385 119.475 285.707 119.397 285.065 119.518C284.911 119.541 284.757 119.561 284.618 119.545ZM242.181 207.688C241.477 207.688 240.823 207.305 240.472 206.679C231.527 190.793 232.289 168.755 242.463 149.166C251.889 131.016 267.535 118.443 284.318 115.533C284.476 115.502 284.641 115.498 284.803 115.513C286.192 115.345 287.59 115.592 288.787 116.248C289.972 116.901 290.904 117.922 291.562 119.283C298.66 134.841 297.267 155.619 287.944 173.55C277.771 193.135 260.296 206.217 242.339 207.68C242.285 207.684 242.235 207.688 242.181 207.688Z" fill="#121716"/>
<path fill-rule="evenodd" clip-rule="evenodd" d="M282.562 128.666C286.866 131.024 290.688 133.875 293.902 136.995C293.448 130.942 292.1 125.22 289.795 120.167C289.375 119.303 288.763 118.513 287.851 118.009C286.846 117.457 285.749 117.363 284.721 117.547L284.648 117.508C279.321 118.435 273.994 120.515 268.89 123.487C273.413 124.497 278.062 126.201 282.562 128.666Z" fill="#121716"/>
<path fill-rule="evenodd" clip-rule="evenodd" d="M258.402 133.077C254.291 137.184 250.369 141.829 246.762 147.007C254.375 146.475 262.786 148.349 270.407 152.889C277.986 157.395 283.679 163.902 286.943 170.871C289.603 165.067 291.624 159.248 293.086 153.546C289.125 148.317 284.006 143.675 277.836 139.999C271.554 136.253 264.941 134 258.402 133.077Z" fill="#121716"/>
<path fill-rule="evenodd" clip-rule="evenodd" d="M238.766 157.668C236.165 162.783 233.974 167.899 232.192 172.968C239.286 172.795 246.765 174.653 253.482 178.825C260.272 183.018 263.305 189.397 266.4 195.959C272.516 192.96 275.507 187.219 278.763 182.478C274.848 175.553 269.21 169.424 261.85 164.872C254.509 160.32 246.592 158.048 238.766 157.668Z" fill="#121716"/>
<path fill-rule="evenodd" clip-rule="evenodd" d="M182.919 101.645C189.366 108.192 191.094 117.058 186.776 121.442C182.461 125.826 173.735 124.074 167.291 117.523C160.848 110.977 159.12 102.111 163.434 97.7267C167.75 93.3428 176.475 95.0985 182.919 101.645Z" fill="#828D8C"/>
<path fill-rule="evenodd" clip-rule="evenodd" d="M178.647 105.99C181.884 109.268 182.916 113.55 180.964 115.529C179.001 117.52 174.794 116.471 171.561 113.186C168.332 109.901 167.3 105.631 169.255 103.644C171.215 101.653 175.414 102.705 178.647 105.99Z" fill="#121716"/>
<path fill-rule="evenodd" clip-rule="evenodd" d="M169.74 97.3183C168.319 97.3183 166.314 97.635 164.828 99.1443C161.348 102.68 163.115 110.451 168.685 116.11C172.226 119.708 176.63 121.855 180.467 121.855C181.888 121.855 183.897 121.538 185.383 120.028C186.991 118.394 187.55 115.808 186.953 112.746C186.299 109.391 184.37 105.953 181.526 103.063C177.985 99.4649 173.581 97.3183 169.74 97.3183ZM180.467 125.859C175.606 125.859 170.159 123.274 165.898 118.941C158.573 111.499 156.88 101.557 162.041 96.3129C163.974 94.3495 166.634 93.3135 169.74 93.3135C174.601 93.3135 180.047 95.8985 184.312 100.232C187.704 103.673 190.013 107.842 190.818 111.968C191.68 116.383 190.737 120.251 188.17 122.86C186.237 124.823 183.574 125.859 180.467 125.859Z" fill="#121716"/>
<path fill-rule="evenodd" clip-rule="evenodd" d="M242.181 101.646C235.734 108.192 234.005 117.058 238.324 121.442C242.639 125.826 251.365 124.074 257.808 117.524C264.252 110.977 265.98 102.111 261.665 97.7272C257.35 93.3433 248.624 95.099 242.181 101.646Z" fill="#828D8C"/>
<path fill-rule="evenodd" clip-rule="evenodd" d="M246.454 105.99C243.217 109.268 242.186 113.55 244.137 115.529C246.1 117.52 250.307 116.471 253.54 113.186C256.77 109.901 257.802 105.631 255.846 103.644C253.887 101.653 249.688 102.705 246.454 105.99Z" fill="#121716"/>
<path fill-rule="evenodd" clip-rule="evenodd" d="M243.574 103.063C240.729 105.953 238.801 109.391 238.147 112.746C237.55 115.809 238.108 118.394 239.717 120.028C241.203 121.538 243.212 121.855 244.632 121.855C248.47 121.855 252.873 119.708 256.415 116.11C261.984 110.451 263.751 102.68 260.272 99.1445C258.786 97.6352 256.78 97.3186 255.36 97.3186C251.518 97.3186 247.115 99.4651 243.574 103.063ZM236.93 122.86C234.363 120.251 233.42 116.384 234.282 111.968C235.087 107.843 237.396 103.673 240.787 100.232C245.052 95.8987 250.498 93.3137 255.36 93.3137C258.466 93.3137 261.126 94.3497 263.058 96.3131C268.22 101.558 266.526 111.499 259.201 118.941C254.94 123.274 249.494 125.859 244.632 125.859C241.526 125.859 238.863 124.823 236.93 122.86Z" fill="#121716"/>
<path fill-rule="evenodd" clip-rule="evenodd" d="M256.069 117.928C245.907 103.689 230.256 93.3135 212.551 93.3135C194.845 93.3135 179.194 103.689 169.032 117.928C156.669 135.245 149.506 159.794 156.861 180.56C163.089 198.151 178.043 211.518 195.626 216.61C201.122 218.206 206.834 219 212.551 219C218.266 219 223.978 218.206 229.475 216.61C247.058 211.518 262.012 198.151 268.24 180.56C275.596 159.794 268.432 135.245 256.069 117.928Z" fill="#828D8C"/>
<path fill-rule="evenodd" clip-rule="evenodd" d="M260.268 125.807C259.563 122.964 257.774 120.265 256.107 117.927C253.982 114.946 251.604 112.154 249.029 109.573C239.841 105.091 229.34 105.099 221.334 110.586C217.161 113.448 214.236 117.445 212.55 122.001C210.864 117.445 207.939 113.448 203.767 110.586C195.76 105.099 185.26 105.091 176.072 109.573C173.497 112.154 171.118 114.946 168.994 117.927C167.326 120.265 165.537 122.964 164.832 125.807C164.097 128.767 163.039 132.741 163.177 135.736C163.405 140.609 166.372 144.2 170.291 146.777C171.249 147.41 181.499 155.38 180.545 155.948C181.268 155.517 182.181 154.993 183.197 154.45V155.361C186.915 153.159 192.319 150.46 195.937 150.883L195.983 150.891C196.088 150.902 196.172 150.949 196.272 150.969C197.269 151.235 198.143 151.728 198.813 152.557C200.36 154.469 200.499 156.679 199.96 158.826C200.36 158.529 200.718 158.153 201.107 157.836C201.064 159.315 200.733 160.437 200.733 160.437L200.06 161.399C204.028 162.162 208.197 162.58 212.512 162.58H212.535C212.565 162.58 212.573 162.58 212.573 162.58C216.903 162.58 221.072 162.162 225.041 161.399L224.367 160.437C224.367 160.437 224.036 159.315 223.994 157.836C224.382 158.153 224.74 158.529 225.141 158.826C224.602 156.679 224.74 154.469 226.288 152.557C226.957 151.728 227.831 151.235 228.828 150.969C228.928 150.949 229.013 150.902 229.117 150.891L229.163 150.883C232.781 150.46 238.185 153.159 241.904 155.361V154.45C242.92 154.993 243.832 155.517 244.556 155.948C243.601 155.38 253.851 147.41 254.81 146.777C258.728 144.2 261.696 140.609 261.923 135.736C262.062 132.741 261.003 128.767 260.268 125.807Z" fill="#EDEDEA"/>
<path fill-rule="evenodd" clip-rule="evenodd" d="M212.551 170.742C197.627 170.742 185.537 185.869 185.537 204.532C185.537 208.259 186.038 211.829 186.927 215.181C188.559 215.677 190.176 216.213 191.85 216.608C198.574 218.204 205.561 218.998 212.551 218.998C219.54 218.998 226.527 218.204 233.251 216.608C234.925 216.213 236.542 215.677 238.174 215.181C239.063 211.829 239.564 208.259 239.564 204.532C239.564 185.869 227.474 170.742 212.551 170.742Z" fill="#EDEDEA"/>
<path fill-rule="evenodd" clip-rule="evenodd" d="M215.599 140.116C214.933 140.336 214.236 140.445 213.539 140.504C213.594 140.382 213.693 140.289 213.693 140.152V137.438C213.817 137.34 213.952 137.273 214.059 137.14L216.153 134.567C216.981 133.55 216.592 132.717 215.291 132.717H209.81C208.509 132.717 208.12 133.55 208.947 134.567L211.041 137.14C211.226 137.371 211.45 137.531 211.677 137.656V140.152C211.677 140.289 211.773 140.382 211.823 140.504C211.126 140.441 210.433 140.331 209.771 140.116C208.916 139.839 207.15 138.798 206.907 140.414C206.907 140.511 206.907 140.609 206.907 140.707C206.907 143.941 209.479 146.562 212.677 146.57H212.692C215.891 146.562 218.462 143.941 218.462 140.707C218.462 140.609 218.462 140.511 218.462 140.414C218.22 138.798 216.453 139.839 215.599 140.116Z" fill="#121716"/>
<path fill-rule="evenodd" clip-rule="evenodd" d="M212.551 95.314C196.696 95.314 181.415 103.985 170.63 119.104C157.05 138.122 152.373 161.978 158.717 179.882C164.544 196.346 178.894 209.683 196.165 214.685C206.742 217.75 218.363 217.75 228.933 214.685C246.207 209.683 260.557 196.346 266.384 179.882C272.728 161.978 268.051 138.122 254.475 119.104C243.686 103.985 228.405 95.314 212.551 95.314ZM212.551 221C206.6 221 200.722 220.171 195.083 218.532C176.334 213.104 161.353 199.162 155.006 181.235C146.788 158.036 156.041 132.713 167.439 116.749C178.974 100.582 195.418 91.3096 212.551 91.3096C229.683 91.3096 246.127 100.582 257.666 116.749C269.06 132.713 278.313 158.036 270.095 181.235C263.748 199.162 248.767 213.104 230.014 218.532C224.379 220.171 218.501 221 212.551 221Z" fill="#121716"/>
<path fill-rule="evenodd" clip-rule="evenodd" d="M196.715 116.925C195.053 116.014 193.197 115.552 191.199 115.552C185.626 115.552 180.075 120.308 177.354 123.507C172.778 128.885 168.544 139.702 177.296 143.413C180.46 144.755 183.947 145.161 187.35 145.224C191.696 145.31 196.342 145.208 199.772 142.095C203.251 138.935 203.813 133.773 203.49 129.291C203.07 123.472 200.664 119.076 196.715 116.925Z" fill="#121716"/>
<path fill-rule="evenodd" clip-rule="evenodd" d="M196.922 126.272C196.86 125.506 196.033 124.661 195.548 124.223C194.466 123.265 193.085 122.733 191.649 122.733C191.195 122.733 190.729 122.784 190.256 122.886C188.424 123.276 186.884 124.399 186.034 125.967C185.711 126.561 185.16 127.746 185.302 128.423C185.422 128.986 185.945 129.373 186.48 129.47C187.192 129.604 187.469 129.263 187.808 128.677C187.873 128.563 187.942 128.446 188.02 128.321C189.051 126.698 190.506 125.807 192.119 125.807C193.023 125.807 193.573 126.072 194.393 126.624C194.932 126.988 195.521 127.719 196.252 127.328C196.779 127.042 196.953 126.671 196.922 126.272Z" fill="#FFFFFE"/>
<path fill-rule="evenodd" clip-rule="evenodd" d="M228.386 116.925C230.049 116.014 231.904 115.552 233.902 115.552C239.476 115.552 245.026 120.308 247.747 123.507C252.324 128.885 256.558 139.702 247.805 143.413C244.641 144.755 241.153 145.161 237.751 145.224C233.405 145.31 228.76 145.208 225.33 142.095C221.85 138.935 221.288 133.773 221.611 129.291C222.031 123.472 224.437 119.076 228.386 116.925Z" fill="#121716"/>
<path fill-rule="evenodd" clip-rule="evenodd" d="M228.178 126.272C228.24 125.506 229.068 124.661 229.552 124.223C230.634 123.265 232.016 122.733 233.451 122.733C233.905 122.733 234.371 122.784 234.845 122.886C236.676 123.276 238.216 124.399 239.067 125.967C239.39 126.561 239.94 127.746 239.798 128.423C239.679 128.986 239.156 129.373 238.62 129.47C237.908 129.604 237.631 129.263 237.292 128.677C237.227 128.563 237.158 128.446 237.081 128.321C236.049 126.698 234.595 125.807 232.982 125.807C232.077 125.807 231.527 126.072 230.707 126.624C230.168 126.988 229.579 127.719 228.848 127.328C228.321 127.042 228.148 126.671 228.178 126.272Z" fill="#FFFFFE"/>
<path fill-rule="evenodd" clip-rule="evenodd" d="M173.436 162.732C172.912 162.732 172.388 162.521 172 162.103C171.253 161.297 171.292 160.03 172.085 159.271C172.535 158.841 176.576 155.017 179.443 153.613C180.417 153.14 181.599 153.55 182.072 154.547C182.546 155.541 182.134 156.737 181.152 157.218C179.189 158.18 175.891 161.133 174.787 162.189C174.405 162.552 173.92 162.732 173.436 162.732Z" fill="#121716"/>
<path fill-rule="evenodd" clip-rule="evenodd" d="M196.981 150.022C191.541 146.699 183.07 151.328 180.137 153.147C177.719 151.943 175.587 150.183 173.635 148.317C171.284 146.073 169.805 144.661 168.235 141.712C167.866 141.164 167.288 140.758 166.584 140.758C164.278 140.758 164.317 143.237 165.233 144.7C168.058 149.205 171.284 152.123 175.645 155.103C176.873 155.94 178.17 156.714 179.552 157.269C180.152 157.512 180.849 157.449 181.391 157.082C183.793 155.459 191.411 151.305 194.956 153.456C196.68 154.508 197.6 155.955 197.689 157.758C197.847 161.008 195.283 164.958 190.83 168.329C186.257 171.79 178.185 172.764 171.207 170.703C166.237 169.236 159.621 165.631 156.31 156.804C155.926 155.763 154.775 155.247 153.77 155.646C152.75 156.037 152.242 157.195 152.631 158.228C155.664 166.319 161.869 172.115 170.106 174.548C172.931 175.384 175.883 175.791 178.77 175.791C184.266 175.791 189.521 174.317 193.185 171.544C198.778 167.308 201.854 162.213 201.623 157.559C201.468 154.43 199.821 151.755 196.981 150.022Z" fill="#121716"/>
<path fill-rule="evenodd" clip-rule="evenodd" d="M251.664 162.732C252.188 162.732 252.711 162.521 253.1 162.103C253.846 161.297 253.808 160.03 253.015 159.271C252.565 158.841 248.524 155.017 245.656 153.613C244.683 153.14 243.501 153.55 243.027 154.547C242.554 155.541 242.966 156.737 243.947 157.218C245.91 158.18 249.209 161.133 250.313 162.189C250.694 162.552 251.179 162.732 251.664 162.732Z" fill="#121716"/>
<path fill-rule="evenodd" clip-rule="evenodd" d="M228.12 150.022C233.559 146.699 242.031 151.328 244.964 153.147C247.381 151.943 249.514 150.183 251.465 148.317C253.817 146.073 255.295 144.661 256.866 141.712C257.235 141.164 257.812 140.758 258.516 140.758C260.822 140.758 260.784 143.237 259.868 144.7C257.043 149.205 253.817 152.123 249.456 155.103C248.228 155.94 246.931 156.714 245.549 157.269C244.948 157.512 244.252 157.449 243.709 157.082C241.307 155.459 233.69 151.305 230.145 153.456C228.42 154.508 227.5 155.955 227.411 157.758C227.254 161.008 229.817 164.958 234.271 168.329C238.844 171.79 246.915 172.764 253.894 170.703C258.863 169.236 265.48 165.631 268.79 156.804C269.175 155.763 270.326 155.247 271.331 155.646C272.35 156.037 272.859 157.195 272.47 158.228C269.437 166.319 263.232 172.115 254.995 174.548C252.169 175.384 249.217 175.791 246.33 175.791C240.834 175.791 235.579 174.317 231.915 171.544C226.322 167.308 223.247 162.213 223.478 157.559C223.632 154.43 225.279 151.755 228.12 150.022Z" fill="#121716"/>
<path fill-rule="evenodd" clip-rule="evenodd" d="M183.031 190.805C189.49 197.367 190.922 206.565 186.218 211.341C181.515 216.12 172.461 214.676 166.003 208.11C159.544 201.54 158.112 192.349 162.823 187.57C167.519 182.788 176.573 184.238 183.031 190.805Z" fill="#828D8C"/>
<path fill-rule="evenodd" clip-rule="evenodd" d="M180.857 198.415C184.406 202.029 184.991 207.292 182.154 210.178C179.314 213.065 174.125 212.478 170.572 208.865C167.015 205.247 166.431 199.979 169.271 197.093C172.112 194.207 177.3 194.801 180.857 198.415Z" fill="#EDEDEA"/>
<path fill-rule="evenodd" clip-rule="evenodd" d="M170.06 186.752C167.669 186.752 165.652 187.523 164.217 188.986C162.396 190.832 161.669 193.628 162.173 196.858C162.708 200.319 164.563 203.812 167.396 206.694C172.831 212.224 181.057 213.761 184.825 209.924C186.642 208.078 187.366 205.286 186.865 202.056C186.326 198.591 184.471 195.098 181.638 192.22C178.27 188.798 173.944 186.752 170.06 186.752ZM178.974 216.162C173.994 216.162 168.759 213.741 164.61 209.525C161.191 206.053 158.944 201.77 158.278 197.48C157.573 192.951 158.693 188.927 161.43 186.154C163.617 183.925 166.599 182.748 170.06 182.748C175.037 182.748 180.276 185.169 184.425 189.388C187.843 192.862 190.091 197.136 190.757 201.43C191.461 205.959 190.345 209.983 187.612 212.756C185.418 214.985 182.431 216.162 178.974 216.162Z" fill="#121716"/>
<path fill-rule="evenodd" clip-rule="evenodd" d="M242.07 190.805C235.611 197.367 234.179 206.565 238.883 211.341C243.587 216.12 252.639 214.676 259.099 208.11C265.557 201.54 266.989 192.349 262.278 187.57C257.582 182.788 248.529 184.238 242.07 190.805Z" fill="#828D8C"/>
<path fill-rule="evenodd" clip-rule="evenodd" d="M244.244 198.415C240.696 202.029 240.11 207.292 242.948 210.178C245.788 213.065 250.977 212.478 254.529 208.865C258.086 205.247 258.671 199.979 255.83 197.093C252.99 194.207 247.801 194.801 244.244 198.415Z" fill="#EDEDEA"/>
<path fill-rule="evenodd" clip-rule="evenodd" d="M243.463 192.22C240.63 195.098 238.775 198.591 238.236 202.056C237.735 205.286 238.459 208.078 240.276 209.924C244.044 213.761 252.27 212.224 257.705 206.694C260.538 203.812 262.393 200.319 262.928 196.858C263.432 193.628 262.705 190.832 260.884 188.986C259.448 187.523 257.431 186.752 255.041 186.752C251.158 186.752 246.831 188.798 243.463 192.22ZM237.489 212.756C234.756 209.983 233.64 205.959 234.345 201.43C235.01 197.136 237.258 192.862 240.676 189.388C244.826 185.169 250.065 182.748 255.041 182.748C258.501 182.748 261.485 183.925 263.671 186.154C266.408 188.927 267.528 192.951 266.823 197.48C266.158 201.77 263.91 206.053 260.492 209.525C256.342 213.741 251.107 216.162 246.127 216.162C242.67 216.162 239.683 214.985 237.489 212.756Z" fill="#121716"/>
<path fill-rule="evenodd" clip-rule="evenodd" d="M224.918 95.6208C225.01 95.3238 225.106 95.0346 225.191 94.7214C221.095 93.8106 216.873 93.3137 212.55 93.3137C208.227 93.3137 204.005 93.8106 199.91 94.7214C199.995 95.0346 200.091 95.3238 200.183 95.6208L198.031 96.0043L198.331 96.9351L198.428 97.6623C199.055 97.4394 199.721 97.2946 200.433 97.2946C201.576 97.2946 202.785 97.7722 203.728 98.4056C207.277 100.83 209.875 104.099 211.63 107.803C211.826 108.089 212.112 108.315 212.516 108.315C212.962 108.315 213.281 108.05 213.474 107.721H213.505C215.264 104.053 217.847 100.815 221.373 98.4056C222.315 97.7722 223.524 97.2946 224.667 97.2946C225.38 97.2946 226.045 97.4394 226.673 97.6623L226.769 96.9351L227.069 96.0043L224.918 95.6208Z" fill="#121716"/>
<path d="M244.37 15.2603L242.112 20.6272L236.745 18.3687L239.003 13.0017L244.37 15.2603Z" fill="#45C8F1"/>
<path d="M250.426 58.3236C252.139 57.6262 252.963 55.6721 252.265 53.959C251.568 52.2459 249.614 51.4225 247.901 52.12C246.188 52.8174 245.364 54.7716 246.062 56.4847C246.759 58.1978 248.713 59.0211 250.426 58.3236Z" fill="#FFC82C"/>
<path d="M186.312 34.0229L188.571 39.3899L183.204 41.6484L180.946 36.2815L186.312 34.0229Z" fill="#45C8F1"/>
<path d="M179.236 77.4385C179.934 75.7254 179.11 73.7713 177.397 73.0738C175.684 72.3764 173.73 73.1997 173.032 74.9128C172.335 76.6259 173.158 78.58 174.871 79.2775C176.584 79.9749 178.539 79.1516 179.236 77.4385Z" fill="#FFC82C"/>
<path d="M213.182 17.2566C213.182 17.2566 182.075 98.6119 182.075 99.3262C182.075 104.481 196.002 108.658 213.182 108.658C230.361 108.658 244.289 104.481 244.289 99.3262C244.288 98.6119 213.182 17.2566 213.182 17.2566Z" fill="#FF659D"/>
<path d="M213.182 96.1249C225.499 96.1249 236.143 93.9764 241.181 90.8614C240.243 88.3636 239.133 85.4192 237.901 82.1639C232.216 84.3949 223.265 85.8318 213.182 85.8318C203.098 85.8318 194.146 84.3949 188.461 82.1611C187.229 85.4164 186.119 88.3608 185.181 90.8587C190.22 93.9764 200.864 96.1249 213.182 96.1249Z" fill="#45C8F1"/>
<path d="M210.859 61.3972L206.531 52.6282L202.204 61.3972L196.001 62.2986L194.921 65.1413L199.529 69.6345L197.878 79.2719L206.534 74.7218L215.189 79.2719L213.538 69.6345L220.54 62.8094L210.859 61.3972Z" fill="#FFC82C"/>
<path d="M220.509 36.4453L219.232 39.033L210.551 40.2948L216.832 46.4175L215.349 55.0636L223.114 50.984L226.79 52.9097C224.581 47.1199 222.428 41.474 220.509 36.4453Z" fill="#FFC82C"/>
<path d="M213.182 29.7192C217.025 29.7192 220.141 26.6035 220.141 22.7602C220.141 18.9169 217.025 15.8013 213.182 15.8013C209.338 15.8013 206.223 18.9169 206.223 22.7602C206.223 26.6035 209.338 29.7192 213.182 29.7192Z" fill="#08B3E9"/>
<path d="M246.726 39.8307C246.922 40.203 247.257 40.4834 247.658 40.6114C248.059 40.7395 248.494 40.705 248.869 40.5154C249.245 40.3257 249.531 39.9962 249.666 39.5977C249.801 39.1991 249.774 38.7635 249.591 38.3847C248.637 36.3469 248.416 34.0424 248.965 31.8604C249.514 29.6785 250.799 27.7529 252.603 26.4089C254.247 25.161 255.555 23.525 256.412 21.6474C257.268 19.7698 257.645 17.7092 257.51 15.65C257.267 11.7162 255.281 8.42422 253.535 7.32201C253.175 7.1025 252.743 7.03333 252.333 7.12946C251.923 7.2256 251.567 7.47931 251.342 7.83578C251.117 8.19226 251.041 8.62288 251.131 9.03462C251.221 9.44635 251.47 9.80615 251.823 10.0363C252.569 10.5076 254.115 12.7652 254.307 15.8472C254.401 17.3979 254.108 18.9476 253.455 20.3572C252.802 21.7669 251.809 22.9924 250.566 23.9239C248.206 25.7385 246.538 28.3061 245.84 31.1999C245.141 34.0937 245.454 37.1394 246.726 39.8307Z" fill="#2A1624"/>
<path d="M236.137 19.792L241.503 22.0496C241.697 22.1316 241.905 22.1745 242.116 22.1758C242.327 22.1771 242.536 22.1369 242.731 22.0573C242.926 21.9777 243.103 21.8604 243.253 21.7122C243.403 21.5639 243.522 21.3875 243.603 21.1931L245.861 15.8279C245.943 15.6337 245.986 15.4253 245.987 15.2147C245.988 15.004 245.948 14.7951 245.868 14.6C245.789 14.4049 245.671 14.2274 245.523 14.0777C245.375 13.9279 245.199 13.8087 245.005 13.7271L239.639 11.4695C239.445 11.3876 239.237 11.3448 239.026 11.3435C238.815 11.3423 238.607 11.3826 238.411 11.4621C238.216 11.5417 238.039 11.6589 237.889 11.8071C237.739 11.9553 237.62 12.1316 237.539 12.3259L235.281 17.6912C235.199 17.8853 235.157 18.0937 235.155 18.3044C235.154 18.5151 235.194 18.7239 235.274 18.919C235.353 19.1141 235.471 19.2916 235.619 19.4414C235.767 19.5912 235.943 19.7103 236.137 19.792ZM239.874 15.0503L242.281 16.059L241.273 18.466L238.865 17.4573L239.874 15.0503Z" fill="#2A1624"/>
<path d="M247.322 50.5595C246.416 50.9296 245.639 51.5601 245.091 52.3713C244.543 53.1826 244.247 54.1382 244.242 55.1172C244.237 56.0963 244.522 57.055 245.062 57.8721C245.601 58.6891 246.371 59.3279 247.273 59.7077C248.176 60.0875 249.17 60.1912 250.132 60.0058C251.093 59.8203 251.978 59.354 252.674 58.6658C253.371 57.9776 253.848 57.0984 254.044 56.1393C254.241 55.1802 254.149 54.1843 253.78 53.2774C253.283 52.0616 252.324 51.0928 251.113 50.5832C249.902 50.0737 248.539 50.0652 247.322 50.5595ZM250.801 55.8247C250.645 56.1961 250.364 56.5016 250.008 56.6894C249.651 56.8772 249.24 56.9356 248.846 56.8546C248.451 56.7737 248.096 56.5584 247.843 56.2455C247.589 55.9325 247.451 55.5413 247.453 55.1383C247.456 54.7354 247.597 54.3456 247.855 54.0355C248.112 53.7254 248.469 53.514 248.864 53.4374C249.26 53.3608 249.67 53.4237 250.024 53.6154C250.379 53.8071 250.656 54.1157 250.808 54.4887C250.895 54.7009 250.94 54.9282 250.938 55.1575C250.937 55.3869 250.89 55.6137 250.8 55.8247H250.801Z" fill="#2A1624"/>
<path d="M172.736 47.4397C174.528 48.7947 175.803 50.7211 176.35 52.8999C176.898 55.0787 176.684 57.3792 175.745 59.4201C175.558 59.7999 175.528 60.2384 175.663 60.6399C175.797 61.0415 176.085 61.3736 176.464 61.5638C176.842 61.754 177.28 61.787 177.683 61.6554C178.086 61.5239 178.42 61.2385 178.613 60.8616C179.885 58.17 180.197 55.1242 179.498 52.2305C178.799 49.3368 177.13 46.7696 174.77 44.9557C173.526 44.0241 172.534 42.7986 171.881 41.3889C171.228 39.9793 170.935 38.4296 171.028 36.8789C171.218 33.7969 172.766 31.5393 173.513 31.068C173.866 30.8379 174.114 30.4781 174.204 30.0664C174.294 29.6546 174.219 29.224 173.994 28.8675C173.769 28.511 173.413 28.2573 173.002 28.1612C172.592 28.0651 172.16 28.1342 171.801 28.3537C170.058 29.4541 168.068 32.7479 167.825 36.6818C167.691 38.7411 168.069 40.8018 168.926 42.6792C169.783 44.5567 171.092 46.1923 172.736 47.4397Z" fill="#2A1624"/>
<path d="M181.735 42.225C181.816 42.4194 181.935 42.5959 182.085 42.7443C182.235 42.8927 182.412 43.01 182.608 43.0896C182.803 43.1691 183.012 43.2094 183.223 43.208C183.434 43.2066 183.642 43.1636 183.836 43.0814L189.202 40.8238C189.396 40.7422 189.572 40.623 189.72 40.4731C189.869 40.3233 189.986 40.1457 190.066 39.9505C190.145 39.7553 190.185 39.5463 190.184 39.3356C190.183 39.1248 190.14 38.9163 190.058 38.7221L187.8 33.3569C187.635 32.9648 187.321 32.6543 186.927 32.4937C186.533 32.3331 186.092 32.3355 185.7 32.5004L180.334 34.758C180.14 34.8394 179.963 34.9585 179.814 35.1084C179.665 35.2584 179.547 35.4362 179.468 35.6317C179.388 35.8273 179.347 36.0367 179.349 36.2479C179.35 36.4591 179.393 36.6679 179.475 36.8625L181.735 42.225ZM185.464 36.0812L186.473 38.4883L184.066 39.497L183.057 37.0899L185.464 36.0812Z" fill="#2A1624"/>
<path d="M178.016 71.5913C177.109 71.2222 176.113 71.1303 175.154 71.3272C174.195 71.5241 173.316 72.0008 172.628 72.6973C171.94 73.3937 171.473 74.2785 171.288 75.2399C171.102 76.2013 171.206 77.1961 171.586 78.0985C171.966 79.0009 172.605 79.7705 173.422 80.31C174.239 80.8495 175.197 81.1346 176.176 81.1294C177.156 81.1242 178.111 80.8288 178.922 80.2806C179.734 79.7324 180.364 78.956 180.734 78.0496C181.228 76.8325 181.219 75.4694 180.71 74.2588C180.2 73.0482 179.232 72.089 178.016 71.5913ZM177.762 76.8428C177.632 77.1614 177.41 77.4342 177.124 77.6268C176.839 77.8193 176.503 77.9229 176.158 77.9245C175.814 77.9262 175.477 77.8257 175.19 77.6359C174.902 77.4461 174.678 77.1754 174.544 76.858C174.411 76.5407 174.374 76.1908 174.439 75.8527C174.504 75.5146 174.668 75.2034 174.91 74.9583C175.152 74.7133 175.461 74.5454 175.798 74.4759C176.136 74.4064 176.486 74.4384 176.805 74.5678C177.017 74.654 177.211 74.7813 177.374 74.9424C177.537 75.1035 177.667 75.2952 177.756 75.5065C177.845 75.7179 177.891 75.9447 177.892 76.1741C177.893 76.4034 177.849 76.6306 177.762 76.8428Z" fill="#2A1624"/>
<path d="M231.939 92.5588C231.463 92.6701 230.974 92.7777 230.472 92.8816C230.083 92.9618 229.738 93.1835 229.502 93.5038C229.267 93.8241 229.159 94.2202 229.2 94.6155C229.24 95.0108 229.425 95.3772 229.72 95.6436C230.015 95.9101 230.398 96.0578 230.795 96.058C230.905 96.0577 231.014 96.0463 231.122 96.0241C231.648 95.9147 232.164 95.8013 232.668 95.6839C233.082 95.5866 233.441 95.3287 233.665 94.9669C233.889 94.6051 233.961 94.169 233.863 93.7546C233.766 93.3402 233.508 92.9814 233.146 92.7571C232.784 92.5329 232.348 92.4616 231.934 92.5588H231.939Z" fill="#2A1624"/>
<path d="M221.748 22.7292C221.749 20.8842 221.156 19.0879 220.056 17.607C218.955 16.1261 217.407 15.0397 215.64 14.5093C213.873 13.9788 211.982 14.0325 210.248 14.6624C208.514 15.2923 207.029 16.4649 206.014 18.0058C205 19.5468 204.51 21.3739 204.616 23.2158C204.723 25.0576 205.421 26.8159 206.607 28.2294C207.792 29.6429 209.402 30.6362 211.197 31.0618C212.993 31.4873 214.877 31.3223 216.571 30.5914L218.762 36.3316L218.171 37.5347L210.326 38.6745C210.029 38.7176 209.751 38.8426 209.522 39.0356C209.293 39.2286 209.123 39.4819 209.03 39.7666C208.938 40.0514 208.927 40.3564 208.998 40.6471C209.07 40.9378 209.222 41.2027 209.436 41.4117L215.109 46.9493L213.77 54.7602C213.719 55.0553 213.752 55.3587 213.865 55.636C213.978 55.9134 214.166 56.1537 214.408 56.3297C214.65 56.5057 214.937 56.6104 215.236 56.6321C215.534 56.6537 215.833 56.5913 216.098 56.452L223.116 52.7621L225.507 54.0192C229.634 64.8579 233.104 73.9883 235.825 81.1737C230.125 83.0783 221.83 84.1998 213.184 84.1998C204.538 84.1998 196.235 83.0774 190.534 81.1737C192.283 76.554 194.459 70.8219 197.161 63.7227L202.436 62.9561C202.694 62.9187 202.938 62.8192 203.149 62.6661C203.359 62.5131 203.529 62.3111 203.645 62.0776L206.533 56.2246L209.421 62.0776C209.537 62.3111 209.707 62.5131 209.917 62.6661C210.128 62.8192 210.372 62.9187 210.63 62.9561L217.089 63.8942L212.413 68.4506C212.227 68.6325 212.088 68.8568 212.008 69.1043C211.928 69.3517 211.91 69.6149 211.954 69.871L213.055 76.3036L207.278 73.2666C207.047 73.1453 206.791 73.082 206.531 73.082C206.27 73.082 206.014 73.1453 205.784 73.2666L200.007 76.3036L201.107 69.871C201.147 69.6616 201.145 69.4464 201.1 69.2379C201.056 69.0294 200.971 68.8318 200.849 68.6567C200.728 68.4815 200.573 68.3323 200.393 68.2178C200.213 68.1033 200.012 68.0257 199.802 67.9897C199.592 67.9536 199.377 67.9598 199.169 68.0078C198.962 68.0558 198.766 68.1447 198.593 68.2693C198.42 68.3939 198.273 68.5517 198.162 68.7335C198.051 68.9153 197.977 69.1175 197.945 69.3282L196.294 78.9656C196.243 79.2608 196.276 79.5644 196.388 79.842C196.501 80.1196 196.689 80.36 196.932 80.5361C197.174 80.7122 197.461 80.8169 197.76 80.8384C198.058 80.8598 198.357 80.7971 198.622 80.6575L206.531 76.4999L214.44 80.6575C214.705 80.7971 215.004 80.8598 215.303 80.8384C215.602 80.8169 215.888 80.7122 216.131 80.5361C216.373 80.36 216.561 80.1196 216.674 79.842C216.787 79.5644 216.819 79.2608 216.768 78.9656L215.258 70.1626L221.657 63.9272C221.871 63.7182 222.023 63.4533 222.095 63.1626C222.166 62.8719 222.155 62.5669 222.063 62.2821C221.97 61.9973 221.8 61.7441 221.571 61.5511C221.342 61.3581 221.064 61.233 220.767 61.19L211.925 59.9062L207.971 51.8937C207.838 51.6251 207.633 51.3989 207.379 51.2407C207.125 51.0826 206.831 50.9988 206.532 50.9988C206.232 50.9988 205.939 51.0826 205.684 51.2407C205.43 51.3989 205.225 51.6251 205.092 51.8937L201.138 59.9062L198.467 60.2941C201.135 53.2893 204.269 45.0723 207.952 35.4266C208.103 35.0289 208.091 34.5873 207.917 34.1987C207.744 33.8102 207.423 33.5065 207.025 33.3547C206.627 33.2028 206.186 33.2151 205.797 33.3889C205.409 33.5626 205.105 33.8836 204.953 34.2813C180.47 98.3955 180.47 98.8366 180.47 99.3061C180.47 104.741 191.706 110.243 213.181 110.243C234.656 110.243 245.892 104.741 245.892 99.3061C245.892 98.8393 245.892 98.3891 219.29 28.7271C220.867 27.1292 221.75 24.974 221.748 22.7292ZM207.829 22.7292C207.829 21.6702 208.143 20.635 208.731 19.7545C209.319 18.874 210.156 18.1878 211.134 17.7825C212.112 17.3773 213.189 17.2712 214.227 17.4778C215.266 17.6844 216.22 18.1944 216.969 18.9432C217.718 19.692 218.228 20.646 218.434 21.6846C218.641 22.7232 218.535 23.7998 218.13 24.7782C217.724 25.7565 217.038 26.5927 216.158 27.1811C215.277 27.7694 214.242 28.0834 213.183 28.0834C211.763 28.0822 210.402 27.5178 209.398 26.514C208.393 25.5102 207.829 24.149 207.827 22.7292H207.829ZM222.368 49.5297L217.482 52.0972L218.414 46.6568C218.459 46.4006 218.44 46.1375 218.36 45.89C218.28 45.6426 218.142 45.4183 217.956 45.2364L214.003 41.3851L219.465 40.591C219.755 40.5464 220.027 40.4226 220.251 40.2334C221.474 43.4391 222.652 46.5284 223.785 49.5013C223.563 49.3966 223.319 49.3448 223.073 49.3497C222.828 49.3546 222.586 49.4162 222.368 49.5297ZM213.182 107.024C195.518 107.024 184.123 102.623 183.693 99.4803C183.876 98.9145 184.495 97.219 186.034 93.1064C191.92 95.96 202.031 97.6968 213.182 97.6968C216.063 97.6968 218.92 97.5803 221.677 97.3501C222.101 97.3148 222.494 97.1123 222.769 96.7874C223.044 96.4625 223.178 96.0416 223.143 95.6175C223.107 95.1934 222.905 94.8007 222.58 94.5258C222.255 94.2509 221.834 94.1163 221.41 94.1517C218.742 94.3745 215.973 94.4873 213.182 94.4873C202.439 94.4873 192.481 92.7827 187.165 90.0932C187.795 88.4142 188.535 86.4546 189.397 84.175C195.474 86.2373 204.014 87.4083 213.182 87.4083C222.35 87.4083 230.88 86.2382 236.959 84.1777C240.298 93.0101 242.278 98.3166 242.67 99.4839C242.232 102.626 230.839 107.026 213.182 107.026V107.024Z" fill="#2A1624"/>
</svg>
