<svg width="275" height="86" viewBox="0 0 275 86" fill="none" xmlns="http://www.w3.org/2000/svg">
<path fill-rule="evenodd" clip-rule="evenodd" d="M57.138 0H59.253V85.6565H57.138V0ZM42.0683 41.3741V40.581C41.5396 32.782 37.9705 26.5692 30.3038 24.8508C30.3038 22.6037 30.1716 14.0116 28.9819 13.8794C27.3957 13.7472 24.8841 13.8794 25.8094 15.8622C27.2635 19.0347 27.9244 22.075 28.321 24.7187C21.3151 24.1899 13.3839 27.3624 10.2115 33.3108C8.2058 36.9574 7.64629 40.4784 7.05852 44.1771L7.05852 44.1771C6.79407 45.8413 6.52389 47.5414 6.11371 49.3052C5.50118 52.1229 4.321 54.2593 2.99401 56.6615C2.88916 56.8513 2.78339 57.0428 2.6769 57.2364C0.429743 61.4663 -1.94961 66.2251 2.54471 69.9263C5.32062 72.1734 9.94713 72.3056 13.2518 71.6447C19.068 70.5872 24.7519 67.1503 29.3784 63.8457C36.3843 58.4261 42.2005 50.4949 42.0683 41.3741ZM30.0394 49.9662C29.3784 49.5696 29.1141 48.7765 29.5106 48.1156C30.7003 46.265 31.6256 44.2822 31.89 42.1672C32.1543 40.1844 31.6256 38.3339 30.7003 36.4833C30.3037 35.8223 30.5681 35.0292 31.229 34.6326C31.89 34.2361 32.6831 34.5005 33.0797 35.1614C34.2693 37.5407 34.9302 39.9201 34.5337 42.5638C34.2693 45.0753 33.2118 47.3225 31.89 49.4375C31.4934 50.0984 30.7003 50.3627 30.0394 49.9662ZM39.5568 22.075C41.8039 19.8278 42.9936 16.7875 42.7292 13.8794C39.8211 13.3507 36.7809 14.1438 34.4015 16.391C32.2866 18.2416 31.2291 20.8852 31.0969 23.529C32.6831 21.2818 34.7981 19.4312 37.7062 18.5059C35.3268 20.0921 33.4762 22.075 32.1544 24.7187C34.7981 24.8509 37.4418 24.0577 39.5568 22.075ZM13.2518 32.9142C15.8955 28.2877 22.637 26.0405 27.7922 26.4371C35.7234 27.2302 39.4246 35.1613 38.6315 42.2994C37.3096 54.4605 23.5623 65.1676 12.1943 67.2826C5.05623 68.6044 1.61941 64.5067 5.18843 57.633C5.28208 57.4457 5.35915 57.275 5.43138 57.115C5.56304 56.8233 5.67864 56.5672 5.84936 56.3111C7.43559 53.4031 8.75743 50.8915 9.55055 47.7191C9.92925 46.1201 10.1874 44.4943 10.4444 42.8759C10.9947 39.4101 11.5397 35.9779 13.2518 32.9142ZM274.98 71.7769H265.463V58.294H267.842V69.6619H274.98V71.7769ZM237.175 60.9377L234.796 66.3573H239.554L237.175 60.9377ZM232.681 71.7769H230.169L236.25 58.0296H238.497L244.445 71.7769H241.934L240.612 68.4722H234.135L232.681 71.7769ZM207.301 71.7769H205.054V60.4089H200.692V58.1617H211.663V60.4089H207.301V71.7769ZM179.145 71.7769H176.766V58.1617H179.145V71.7769ZM147.288 60.2768V65.0354H150.064C151.783 65.0354 152.972 64.1101 152.972 62.6561C152.972 61.0699 151.915 60.2768 150.064 60.2768H147.288ZM147.288 71.7769H144.909H144.777V58.294H150.197C153.369 58.294 155.352 60.0123 155.352 62.7883C155.352 65.8285 152.972 67.4148 149.932 67.4148H147.288V71.7769ZM116.753 60.9377L114.374 66.3573H119.133L116.753 60.9377ZM112.127 71.7769H109.615L115.696 58.0296H117.943L123.892 71.7769H121.38L120.058 68.4722H113.581L112.127 71.7769ZM89.5232 69.5298C88.0691 70.9838 86.4829 71.9091 83.9714 71.9091C80.0058 71.9091 77.0977 68.8689 77.0977 64.9033C77.0977 61.0699 80.0058 57.8974 84.1035 57.8974C86.6151 57.8974 88.0691 58.8227 89.391 60.0124L87.8048 61.7308C86.7473 60.6733 85.5576 60.0124 83.9714 60.0124C81.3277 60.0124 79.477 62.1273 79.477 64.771C79.477 67.547 81.3277 69.6619 83.9714 69.6619C85.6898 69.6619 86.7473 69.001 87.937 67.9435L89.5232 69.5298ZM83.1783 49.5697H77.0977V14.4083H83.707L94.4141 31.0637L105.121 14.4083H111.73V49.5697H105.518V24.3222L94.4141 40.9776H94.1497L83.1783 24.4544V49.5697ZM124.024 49.5697H117.679L133.145 14.1439H138.829L154.294 49.5697H147.817L144.248 41.1099H127.593L124.024 49.5697ZM135.92 21.4141L129.972 35.558H142.001L135.92 21.4141ZM166.588 49.5697H160.507V14.276H166.191L185.094 38.5983V14.4083H191.174V49.5697H186.019L166.588 24.4544V49.5697ZM231.623 44.6788C228.186 47.5869 223.163 50.0985 216.95 50.0985C205.979 50.0985 198.709 42.2995 198.841 32.2534V32.1211C198.841 22.2072 206.376 13.8795 216.95 13.8795C223.031 13.8795 226.864 15.598 230.433 18.6382L226.468 23.2648C223.692 20.8854 221.048 19.4313 216.554 19.4313C210.077 19.4313 205.186 25.1154 205.186 31.8568V31.989C205.186 39.2592 210.077 44.5467 217.215 44.5467C220.519 44.5467 223.56 43.4892 225.675 41.9029V35.2936H216.686V29.8741H231.623V44.6788ZM274.98 31.8568C274.98 41.7708 267.313 50.0985 256.474 50.0985C245.635 50.0985 238.1 41.9029 238.1 31.989V31.8568C238.1 21.9429 245.767 13.6151 256.606 13.6151C267.445 13.6151 274.98 21.8107 274.98 31.7246V31.8568ZM244.577 31.8568C244.577 38.7305 249.6 44.4145 256.606 44.4145C263.612 44.4145 268.503 38.8627 268.503 31.989V31.8568C268.503 24.9832 263.48 19.2992 256.474 19.2992C249.468 19.2992 244.577 24.8509 244.577 31.7246V31.8568Z" fill="#F59B44"/>
</svg>
