<svg width="34" height="34" viewBox="0 0 34 34" fill="none" xmlns="http://www.w3.org/2000/svg">
<path d="M7.54311 29.8829L7.55186 29.8348C7.55186 29.8348 7.54749 29.8611 7.54311 29.8829Z" fill="#002652"/>
<path d="M7.53438 29.9354L7.5475 29.8786C7.5475 29.8786 7.53875 29.9136 7.53438 29.9354Z" fill="#002652"/>
<path d="M7.50813 30.0579L7.51687 30.0054C7.51687 30.0054 7.50813 30.0404 7.50813 30.0579Z" fill="#002652"/>
<path d="M7.45126 30.351L7.4775 30.2197C7.46875 30.2679 7.46 30.316 7.45126 30.351Z" fill="#002652"/>
<path d="M26.5078 30.0579C26.5078 30.0579 26.4991 30.0229 26.4991 30.0054L26.5078 30.0579Z" fill="#002652"/>
<path d="M26.4816 29.9354C26.4816 29.9354 26.4728 29.8961 26.4685 29.8786L26.4816 29.9354Z" fill="#002652"/>
<path d="M26.5647 30.351C26.5559 30.316 26.5472 30.2679 26.5384 30.2197L26.5647 30.351Z" fill="#002652"/>
<path d="M26.4728 29.8829C26.4728 29.8829 26.4641 29.848 26.4641 29.8348L26.4728 29.8829Z" fill="#002652"/>
<path d="M7.01827 15.7338C6.8958 15.76 6.77334 15.795 6.66399 15.865C6.32284 16.0837 6.40157 16.591 6.43218 16.9366C6.48467 17.597 6.63338 18.2575 6.80395 18.9004C6.92642 19.3509 7.07076 19.7927 7.2632 20.2169C7.47752 19.8845 7.7137 19.5827 7.95863 19.3028C8.15983 19.0754 8.36539 18.8654 8.57533 18.673C9.70814 17.6276 10.8322 17.1072 10.8322 17.1072C9.74751 16.3242 8.42225 15.4276 7.01827 15.7294V15.7338Z" fill="#002652"/>
<path d="M26.9977 15.7338C27.1201 15.76 27.2426 15.795 27.352 15.865C27.6931 16.0837 27.6144 16.591 27.5838 16.9366C27.5313 17.597 27.3826 18.2575 27.212 18.9004C27.0895 19.3509 26.9452 19.7927 26.7528 20.2169C26.5384 19.8845 26.3023 19.5827 26.0573 19.3028C25.8561 19.0754 25.6506 18.8654 25.4406 18.673C24.3078 17.6276 23.1837 17.1072 23.1837 17.1072C24.2684 16.3242 25.5937 15.4276 26.9977 15.7294V15.7338Z" fill="#002652"/>
<path d="M31.0872 2.32379C28.9878 0.220001 25.6024 0.220001 18.8362 0.220001H15.1797C8.4135 0.220001 5.0282 0.220001 2.92879 2.32379C0.824997 4.4232 0.824997 7.8085 0.824997 14.5747V16.9584C0.824997 23.7247 0.824997 27.11 2.92879 29.2094C3.29181 29.5724 3.70732 29.8873 4.15782 30.1366C4.64331 30.4078 5.17253 30.609 5.70614 30.7577C5.98168 30.8364 6.2616 30.8977 6.5459 30.9502C6.59401 30.9589 7.04014 31.0376 7.23696 31.0726L7.32881 31.0901C7.32881 31.0901 7.32881 31.0857 7.32881 31.0814C7.32881 31.0595 7.33755 31.0158 7.33755 31.007C7.33755 30.9939 7.33755 30.9851 7.34193 30.972C7.35068 30.902 7.3638 30.8321 7.36817 30.8058C7.38129 30.7315 7.39441 30.6571 7.40753 30.5828C7.40753 30.5609 7.41628 30.539 7.42066 30.5172L7.40753 30.5084C5.0282 28.5664 3.93476 25.1943 3.93476 25.1943C4.8445 25.1593 5.83297 24.7132 5.83297 24.7132C6.39719 24.5163 7.06638 24.0964 7.18447 23.4623C7.25008 23.1123 7.10137 22.7931 6.93517 22.4913C6.41031 21.5553 6.04729 20.5318 5.76737 19.4996C5.48745 18.463 5.25564 17.3914 5.16816 16.3286C5.12005 15.7688 4.99321 14.9509 5.54431 14.5966C5.71488 14.4873 5.91608 14.4304 6.1129 14.3867C8.37414 13.9012 10.5129 15.3489 12.2668 16.6085C12.2887 16.5998 12.3062 16.591 12.328 16.5823C12.4505 16.5211 12.5773 16.4686 12.7042 16.4205C12.9141 16.3461 13.1284 16.2893 13.3428 16.2411C14.3487 15.9787 15.5996 15.8256 16.9511 15.8256C16.9686 15.8256 16.9905 15.8256 17.008 15.8256C17.0255 15.8256 17.043 15.8256 17.0648 15.8256C18.4163 15.8256 19.6629 15.9787 20.6732 16.2411C20.8875 16.2893 21.1018 16.3461 21.3118 16.4205C21.4386 16.4642 21.5655 16.5211 21.6879 16.5823C21.7098 16.591 21.7273 16.5998 21.7492 16.6085C23.503 15.3489 25.6418 13.8968 27.9031 14.3867C28.0999 14.4304 28.3011 14.4873 28.4716 14.5966C29.0227 14.9553 28.8959 15.7732 28.8478 16.3286C28.7603 17.3914 28.5241 18.463 28.2486 19.4996C27.973 20.5362 27.6056 21.5553 27.0808 22.4913C26.9146 22.7887 26.7702 23.108 26.8315 23.4623C26.9452 24.1008 27.6144 24.5163 28.183 24.7132C28.183 24.7132 29.1715 25.1593 30.0812 25.1943C30.0812 25.1943 28.9878 28.5664 26.6084 30.5084L26.5953 30.5172C26.5953 30.5172 26.604 30.5609 26.6084 30.5828C26.6215 30.6571 26.6347 30.7315 26.6478 30.8058C26.6478 30.8321 26.6609 30.902 26.674 30.972C26.674 30.9851 26.674 30.9939 26.6784 31.007C26.6784 31.007 26.6871 31.0595 26.6871 31.0814V31.0901L26.779 31.0726C26.9714 31.0376 27.4219 30.9589 27.4701 30.9502C27.75 30.8977 28.0299 30.8321 28.3098 30.7577C28.8478 30.609 29.3726 30.4078 29.8581 30.1366C30.3086 29.8873 30.7241 29.5724 31.0872 29.2094C33.191 27.1056 33.191 23.7247 33.191 16.9584V14.5747C33.191 7.8085 33.191 4.4232 31.0872 2.32379Z" fill="#0075FF"/>
<path d="M12.8398 31.7418C12.8441 31.7112 12.8529 31.6893 12.8573 31.6631L12.9622 31.1907C13.006 31.007 13.0585 30.8233 13.1109 30.6396C13.2465 30.1847 13.4171 29.7211 13.7408 29.38C14.1082 28.9907 14.6286 28.7983 15.1185 28.5839C15.6084 28.3696 16.1157 28.1028 16.3781 27.6392C16.6362 27.1843 16.61 26.6026 16.3956 26.1303C16.2557 25.8241 16.0457 25.5573 15.7964 25.3299C15.6608 25.203 15.5078 25.0893 15.3547 24.9843C14.1125 24.1489 12.433 24.0046 11.064 24.6126C9.88746 25.1374 8.98209 26.1609 8.40038 27.3112C8.19919 27.7048 8.03736 28.116 7.8974 28.5358C7.75744 28.9557 7.64809 29.3843 7.55187 29.8173C7.55187 29.8173 7.55187 29.8261 7.55187 29.8392L7.54312 29.8873L7.53 29.9442C7.53 29.9442 7.52125 29.9879 7.51688 30.0098L7.50813 30.0623V30.071C7.49938 30.1235 7.48626 30.176 7.47751 30.2241L7.45127 30.3553C7.45127 30.3553 7.4469 30.3859 7.44252 30.3991C7.44252 30.4078 7.44252 30.4122 7.44252 30.4166V30.4297C7.44252 30.4428 7.43815 30.4515 7.43378 30.4647C7.43378 30.4778 7.4294 30.4953 7.42503 30.5084C7.42503 30.5303 7.41628 30.5521 7.41191 30.574C7.39879 30.6484 7.38566 30.7227 7.37254 30.7971C7.37254 30.8233 7.35942 30.8933 7.3463 30.9633C7.3463 30.9764 7.3463 30.9852 7.34193 30.9983C7.34193 30.9983 7.33318 31.0508 7.33318 31.0726V31.0814C7.37692 31.0901 7.42503 31.0945 7.46877 31.0989C7.5125 31.1032 7.55624 31.1076 7.59998 31.112C7.65684 31.1207 7.7137 31.1251 7.77493 31.1339C7.84491 31.1426 7.91489 31.1514 7.98487 31.1601C8.06797 31.1688 8.1467 31.182 8.2298 31.1907C8.32165 31.2038 8.4135 31.2126 8.50535 31.2257C8.60595 31.2388 8.70654 31.2519 8.80714 31.2651C8.91649 31.2782 9.02583 31.2913 9.13517 31.3088C9.24889 31.3219 9.36699 31.3394 9.4807 31.3525C9.60317 31.37 9.72126 31.3832 9.84373 31.4007C9.96619 31.4182 10.093 31.4356 10.2155 31.4531C10.3423 31.4706 10.4692 31.4881 10.596 31.51C10.7229 31.5275 10.8541 31.5494 10.9809 31.5669C11.1077 31.5844 11.239 31.6062 11.3658 31.6281C11.4926 31.65 11.6195 31.6675 11.7463 31.6893C11.8732 31.7112 11.9956 31.7331 12.1181 31.7506C12.2406 31.7724 12.3586 31.7943 12.4811 31.8162C12.5555 31.8293 12.6342 31.8424 12.7086 31.8599L12.8091 31.873L12.8398 31.7331V31.7418ZM12.7086 27.04C12.7086 26.6114 13.0541 26.2658 13.4827 26.2658C13.9113 26.2658 14.2569 26.6114 14.2569 27.04C14.2569 27.4686 13.9113 27.8142 13.4827 27.8142C13.0541 27.8142 12.7086 27.4686 12.7086 27.04Z" fill="#002652"/>
<path d="M26.6784 31.007C26.6784 30.9939 26.6784 30.9852 26.674 30.972C26.6653 30.9021 26.6522 30.8321 26.6478 30.8058C26.6347 30.7315 26.6215 30.6571 26.6084 30.5828C26.6084 30.5609 26.5997 30.539 26.5953 30.5172C26.5953 30.504 26.5909 30.4865 26.5866 30.4734C26.5866 30.4603 26.5822 30.4516 26.5778 30.4384V30.4253C26.5778 30.4253 26.5734 30.4166 26.5734 30.4078C26.5734 30.3947 26.5691 30.3816 26.5647 30.3641L26.5384 30.2329C26.5297 30.1848 26.5166 30.1323 26.5078 30.0798V30.071L26.4991 30.0186C26.4947 29.9967 26.4903 29.9748 26.486 29.9529L26.4728 29.8961L26.4641 29.848V29.8261C26.3679 29.3931 26.2585 28.9645 26.1186 28.5446C25.9786 28.1247 25.8168 27.7136 25.6156 27.3199C25.0339 26.1696 24.1285 25.1462 22.9519 24.6213C21.583 24.0134 19.9078 24.1577 18.6613 24.9931C18.5082 25.0981 18.3551 25.2118 18.2195 25.3386C17.9702 25.566 17.7603 25.8328 17.6203 26.139C17.4016 26.6158 17.3798 27.1931 17.6378 27.648C17.9002 28.1116 18.4076 28.3828 18.8975 28.5927C19.3873 28.807 19.9078 28.9995 20.2752 29.3887C20.6032 29.7343 20.7694 30.1935 20.905 30.6484C20.9575 30.8321 21.01 31.0158 21.0537 31.1995L21.1587 31.6718C21.1631 31.6981 21.1718 31.72 21.1762 31.7462L21.2068 31.8905L21.3074 31.8774C21.3818 31.8643 21.4605 31.8468 21.5348 31.8337C21.6573 31.8118 21.7754 31.7899 21.8979 31.7681C22.0203 31.7462 22.1472 31.7243 22.2696 31.7068C22.3965 31.685 22.5233 31.6675 22.6502 31.6456C22.777 31.6237 22.9082 31.6062 23.035 31.5844C23.1619 31.5669 23.2931 31.545 23.4199 31.5275C23.5468 31.51 23.6736 31.4925 23.8005 31.4706C23.9229 31.4532 24.0498 31.4357 24.1722 31.4182C24.2947 31.4007 24.4128 31.3832 24.5353 31.3701C24.649 31.3526 24.7671 31.3394 24.8808 31.3263C24.9901 31.3132 25.0995 31.3001 25.2088 31.2826C25.3094 31.2695 25.41 31.2563 25.5106 31.2432C25.6025 31.2301 25.6943 31.2213 25.7862 31.2082C25.8693 31.1995 25.948 31.1864 26.0311 31.1776C26.1011 31.1689 26.171 31.1601 26.241 31.1514C26.2979 31.1426 26.3547 31.1382 26.416 31.1295C26.4597 31.1251 26.5035 31.1207 26.5472 31.1164C26.5909 31.112 26.639 31.1076 26.6828 31.0989C26.6828 31.0989 26.6828 31.0945 26.6828 31.0901C26.6828 31.0683 26.674 31.0245 26.674 31.0158L26.6784 31.007ZM20.5376 27.8098C20.109 27.8098 19.7635 27.4643 19.7635 27.0356C19.7635 26.607 20.109 26.2615 20.5376 26.2615C20.9662 26.2615 21.3118 26.607 21.3118 27.0356C21.3118 27.4643 20.9662 27.8098 20.5376 27.8098Z" fill="#002652"/>
<path d="M19.0024 32.3367C18.9718 32.2842 18.9412 32.2361 18.9062 32.1836C18.8712 32.1355 18.8362 32.0917 18.8012 32.048C18.7662 32.0042 18.7312 31.9649 18.6919 31.9255C18.6569 31.8905 18.6175 31.8512 18.5782 31.8206C18.5388 31.7856 18.4994 31.7549 18.4601 31.7287C18.4207 31.6981 18.3813 31.6718 18.3376 31.6456C18.2982 31.6194 18.2545 31.5975 18.2151 31.5756C18.1758 31.5538 18.132 31.5363 18.0927 31.5144C18.0533 31.4969 18.0139 31.4794 17.9702 31.4663C17.9308 31.4532 17.8915 31.4357 17.8521 31.4269C17.8127 31.4138 17.7734 31.405 17.7384 31.3919C17.7034 31.3832 17.664 31.3744 17.629 31.3657C17.5941 31.3569 17.5591 31.3526 17.5241 31.3438C17.4935 31.3394 17.4585 31.3351 17.4279 31.3307C17.3972 31.3307 17.371 31.3219 17.3404 31.3219C17.2442 31.3132 17.1479 31.3088 17.0517 31.3088H16.9817C16.8855 31.3088 16.7893 31.3088 16.6931 31.3219C16.6624 31.3219 16.6318 31.3263 16.6056 31.3307C16.575 31.3307 16.54 31.3394 16.5094 31.3438C16.4744 31.3482 16.4394 31.3569 16.4044 31.3657C16.3694 31.3744 16.33 31.3832 16.295 31.3919C16.2557 31.4007 16.2163 31.4138 16.1813 31.4269C16.142 31.44 16.1026 31.4532 16.0632 31.4663C16.0239 31.4838 15.9801 31.4969 15.9408 31.5144C15.897 31.5319 15.8577 31.5538 15.8183 31.5756C15.7746 31.5975 15.7352 31.6194 15.6958 31.6456C15.6565 31.6718 15.6127 31.6981 15.5734 31.7287C15.534 31.7593 15.4946 31.7899 15.4553 31.8206C15.4159 31.8555 15.3765 31.8905 15.3416 31.9255C15.3022 31.9649 15.2672 32.0042 15.2322 32.048C15.1972 32.0917 15.1622 32.1355 15.1272 32.1836C15.0923 32.2317 15.0616 32.2842 15.031 32.3367C15.0004 32.3891 14.9698 32.446 14.9435 32.5029C14.9435 32.5029 14.9435 32.5116 14.9479 32.5116C15.031 32.6559 15.136 32.7915 15.2497 32.914C15.464 33.1546 15.7133 33.3689 15.9976 33.522C16.3125 33.6925 16.6668 33.7756 17.0255 33.78C17.3841 33.7756 17.7384 33.6925 18.0533 33.522C18.3376 33.3689 18.5869 33.1546 18.8012 32.914C18.9106 32.7872 19.0155 32.6559 19.103 32.5116L19.1074 32.5029C19.0811 32.446 19.0505 32.3891 19.0199 32.3367H19.0024Z" fill="#002652"/>
</svg>
