<svg width="32" height="32" viewBox="0 0 32 32" fill="none" xmlns="http://www.w3.org/2000/svg">
<path d="M6.9725 28.2835L6.98074 28.2382C6.98074 28.2382 6.97663 28.263 6.9725 28.2835Z" fill="#002652"/>
<path d="M12.6318 26.3115C13.0406 26.3115 13.37 25.982 13.37 25.5733C13.37 25.1646 13.0406 24.8351 12.6318 24.8351C12.2231 24.8351 11.8937 25.1646 11.8937 25.5733C11.8937 25.982 12.2231 26.3115 12.6318 26.3115Z" fill="white"/>
<path d="M19.3629 24.8351C18.9543 24.8351 18.6248 25.1646 18.6248 25.5733C18.6248 25.982 18.9543 26.3115 19.3629 26.3115C19.7716 26.3115 20.1011 25.982 20.1011 25.5733C20.1011 25.1646 19.7716 24.8351 19.3629 24.8351Z" fill="white"/>
<path d="M6.96414 28.3334L6.9765 28.28C6.9765 28.28 6.96826 28.3129 6.96414 28.3334Z" fill="#002652"/>
<path d="M6.93912 28.4503L6.94735 28.4009C6.94735 28.4009 6.93912 28.4338 6.93912 28.4503Z" fill="#002652"/>
<path d="M6.88492 28.7304L6.90995 28.6052C6.90161 28.6511 6.89326 28.697 6.88492 28.7304Z" fill="#002652"/>
<path d="M25.0555 28.4503C25.0555 28.4503 25.0473 28.4173 25.0473 28.4009L25.0555 28.4503Z" fill="#002652"/>
<path d="M25.0305 28.3334C25.0305 28.3334 25.0222 28.2964 25.0181 28.28L25.0305 28.3334Z" fill="#002652"/>
<path d="M25.1099 28.7304C25.1015 28.697 25.0932 28.6511 25.0848 28.6052L25.1099 28.7304Z" fill="#002652"/>
<path d="M25.0221 28.2835C25.0221 28.2835 25.0139 28.2506 25.0139 28.2382L25.0221 28.2835Z" fill="#002652"/>
<path d="M6.47205 14.7927C6.35527 14.8176 6.2385 14.851 6.13424 14.9178C5.80894 15.1263 5.88401 15.61 5.9132 15.9395C5.96325 16.5692 6.10505 17.199 6.26769 17.8121C6.38447 18.2416 6.52209 18.6629 6.70559 19.0674C6.90995 18.7504 7.13515 18.4626 7.3687 18.1958C7.56053 17.9789 7.75655 17.7787 7.95673 17.5952C9.03688 16.5984 10.1087 16.1022 10.1087 16.1022C9.07441 15.3556 7.81076 14.5007 6.47205 14.7885V14.7927Z" fill="#002652"/>
<path d="M25.5228 14.7927C25.6395 14.8176 25.7563 14.851 25.8606 14.9178C26.1858 15.1263 26.1108 15.61 26.0816 15.9395C26.0316 16.5692 25.8898 17.199 25.7271 17.8121C25.6103 18.2416 25.4727 18.6629 25.2891 19.0674C25.0848 18.7504 24.8597 18.4626 24.6261 18.1958C24.4342 17.9789 24.2383 17.7787 24.038 17.5952C22.9579 16.5984 21.886 16.1022 21.886 16.1022C22.9203 15.3556 24.184 14.5007 25.5228 14.7885V14.7927Z" fill="#002652"/>
<path d="M29.4222 2.006C27.4203 0 24.1923 0 17.7406 0H14.2541C7.80242 0 4.57448 0 2.57266 2.006C0.566666 4.00782 0.566666 7.23576 0.566666 13.6874V15.9603C0.566666 22.4121 0.566666 25.64 2.57266 27.6419C2.91881 27.988 3.315 28.2882 3.74456 28.526C4.20749 28.7845 4.71211 28.9764 5.22091 29.1182C5.48364 29.1932 5.75055 29.2517 6.02164 29.3017C6.06751 29.31 6.4929 29.3851 6.68057 29.4184L6.76815 29.4351C6.76815 29.4351 6.76815 29.4309 6.76815 29.4268C6.76815 29.406 6.77649 29.3643 6.77649 29.3559C6.77649 29.3434 6.77649 29.335 6.78066 29.3225C6.78901 29.2558 6.80152 29.1891 6.80568 29.164C6.81819 29.0932 6.8307 29.0223 6.84321 28.9514C6.84321 28.9305 6.85156 28.9096 6.85573 28.8889L6.84321 28.8805C4.57448 27.0287 3.53187 23.8134 3.53187 23.8134C4.39932 23.78 5.34184 23.3547 5.34184 23.3547C5.87984 23.1669 6.51792 22.7665 6.63052 22.1619C6.69308 21.8282 6.55128 21.5238 6.39281 21.236C5.89235 20.3435 5.5462 19.3676 5.27929 18.3834C5.01239 17.395 4.79135 16.3732 4.70794 15.3598C4.66206 14.826 4.54112 14.0461 5.0666 13.7083C5.22924 13.6041 5.42109 13.5498 5.60876 13.5082C7.76489 13.0452 9.80425 14.4256 11.4766 15.6267C11.4975 15.6184 11.5142 15.61 11.535 15.6017C11.6518 15.5434 11.7727 15.4933 11.8937 15.4474C12.0938 15.3765 12.2982 15.3223 12.5026 15.2764C13.4617 15.0262 14.6545 14.8802 15.9432 14.8802C15.9598 14.8802 15.9807 14.8802 15.9974 14.8802C16.0141 14.8802 16.0308 14.8802 16.0516 14.8802C17.3403 14.8802 18.5289 15.0262 19.4922 15.2764C19.6966 15.3223 19.9009 15.3765 20.1012 15.4474C20.2221 15.4891 20.3431 15.5434 20.4598 15.6017C20.4807 15.61 20.4973 15.6184 20.5182 15.6267C22.1905 14.4256 24.2299 13.041 26.3861 13.5082C26.5737 13.5498 26.7656 13.6041 26.9281 13.7083C27.4536 14.0503 27.3327 14.8302 27.2869 15.3598C27.2034 16.3732 26.9782 17.395 26.7155 18.3834C26.4527 19.3718 26.1024 20.3435 25.602 21.236C25.4435 21.5196 25.3058 21.8241 25.3643 22.1619C25.4727 22.7707 26.1108 23.1669 26.653 23.3547C26.653 23.3547 27.5955 23.78 28.4629 23.8134C28.4629 23.8134 27.4203 27.0287 25.1515 28.8805L25.1391 28.8889C25.1391 28.8889 25.1474 28.9305 25.1515 28.9514C25.164 29.0223 25.1766 29.0932 25.1891 29.164C25.1891 29.1891 25.2016 29.2558 25.2141 29.3225C25.2141 29.335 25.2141 29.3434 25.2183 29.3559C25.2183 29.3559 25.2266 29.406 25.2266 29.4268V29.4351L25.3142 29.4184C25.4977 29.3851 25.9272 29.31 25.9732 29.3017C26.2401 29.2517 26.507 29.1891 26.7739 29.1182C27.2869 28.9764 27.7873 28.7845 28.2502 28.526C28.6797 28.2882 29.0759 27.988 29.4222 27.6419C31.4282 25.6358 31.4282 22.4121 31.4282 15.9603V13.6874C31.4282 7.23576 31.4282 4.00782 29.4222 2.006Z" fill="#0075FF"/>
<path d="M12.023 30.0565C12.0271 30.0274 12.0354 30.0065 12.0396 29.9815L12.1397 29.5311C12.1814 29.3559 12.2315 29.1807 12.2815 29.0056C12.4108 28.5718 12.5734 28.1298 12.8821 27.8045C13.2324 27.4333 13.7286 27.2499 14.1957 27.0454C14.6629 26.8411 15.1466 26.5867 15.3969 26.1446C15.6429 25.7109 15.6179 25.1562 15.4135 24.7059C15.2801 24.4139 15.0798 24.1595 14.8421 23.9427C14.7129 23.8217 14.5669 23.7133 14.421 23.6132C13.2365 22.8166 11.6351 22.679 10.3297 23.2587C9.20786 23.7591 8.34457 24.7351 7.7899 25.8319C7.59806 26.2072 7.44376 26.5993 7.3103 26.9996C7.17685 27.3999 7.07258 27.8086 6.98083 28.2215C6.98083 28.2215 6.98083 28.2299 6.98083 28.2424L6.97249 28.2882L6.95998 28.3425C6.95998 28.3425 6.95164 28.3842 6.94747 28.4051L6.93913 28.4551V28.4634C6.93078 28.5135 6.91827 28.5635 6.90994 28.6094L6.88491 28.7345C6.88491 28.7345 6.88074 28.7637 6.87658 28.7763C6.87658 28.7845 6.87658 28.7887 6.87658 28.7929V28.8054C6.87658 28.8179 6.8724 28.8262 6.86823 28.8388C6.86823 28.8513 6.86406 28.868 6.85989 28.8805C6.85989 28.9014 6.85155 28.9221 6.84738 28.943C6.83487 29.014 6.82236 29.0848 6.80984 29.1558C6.80984 29.1807 6.79733 29.2475 6.78482 29.3142C6.78482 29.3267 6.78482 29.3351 6.78065 29.3476C6.78065 29.3476 6.77231 29.3977 6.77231 29.4184V29.4268C6.81402 29.4351 6.85989 29.4393 6.9016 29.4435C6.9433 29.4476 6.985 29.4518 7.02671 29.456C7.08092 29.4643 7.13514 29.4685 7.19352 29.4769C7.26025 29.4852 7.32698 29.4936 7.39371 29.5019C7.47295 29.5102 7.54801 29.5228 7.62725 29.5311C7.71483 29.5435 7.80241 29.5519 7.88999 29.5644C7.98591 29.5769 8.08184 29.5894 8.17775 29.602C8.28202 29.6145 8.38628 29.627 8.49054 29.6437C8.59897 29.6562 8.71158 29.6728 8.82001 29.6853C8.93678 29.702 9.04938 29.7146 9.16616 29.7313C9.28293 29.748 9.40387 29.7646 9.52065 29.7813C9.64159 29.7979 9.76253 29.8146 9.88348 29.8355C10.0044 29.8522 10.1296 29.8731 10.2505 29.8898C10.3714 29.9065 10.4966 29.9272 10.6175 29.9481C10.7384 29.969 10.8594 29.9857 10.9803 30.0065C11.1013 30.0274 11.218 30.0482 11.3348 30.0649C11.4516 30.0857 11.5641 30.1066 11.6809 30.1275C11.7519 30.14 11.8269 30.1525 11.8979 30.1692L11.9937 30.1816L12.023 30.0482V30.0565ZM11.8979 25.5733C11.8979 25.1646 12.2273 24.8351 12.636 24.8351C13.0447 24.8351 13.3742 25.1646 13.3742 25.5733C13.3742 25.982 13.0447 26.3115 12.636 26.3115C12.2273 26.3115 11.8979 25.982 11.8979 25.5733Z" fill="#002652"/>
<path d="M25.2183 29.3559C25.2183 29.3434 25.2183 29.3351 25.2141 29.3225C25.2058 29.2559 25.1933 29.1891 25.1891 29.1641C25.1766 29.0932 25.164 29.0223 25.1515 28.9514C25.1515 28.9305 25.1432 28.9097 25.1391 28.8889C25.1391 28.8763 25.1349 28.8596 25.1307 28.8471C25.1307 28.8346 25.1266 28.8263 25.1224 28.8137V28.8012C25.1224 28.8012 25.1182 28.7929 25.1182 28.7846C25.1182 28.7721 25.1141 28.7596 25.1099 28.7429L25.0848 28.6178C25.0765 28.5719 25.064 28.5219 25.0556 28.4718V28.4634L25.0473 28.4134C25.0431 28.3926 25.0389 28.3717 25.0348 28.3508L25.0222 28.2966L25.014 28.2508V28.2299C24.9222 27.817 24.8179 27.4083 24.6845 27.008C24.551 26.6076 24.3967 26.2156 24.2049 25.8402C23.6502 24.7434 22.7869 23.7675 21.665 23.267C20.3596 22.6874 18.7624 22.825 17.5739 23.6216C17.4279 23.7217 17.2819 23.8301 17.1526 23.951C16.9149 24.1678 16.7147 24.4222 16.5812 24.7142C16.3727 25.1688 16.3518 25.7193 16.5979 26.153C16.8481 26.5951 17.3319 26.8537 17.799 27.0538C18.2661 27.2582 18.7624 27.4417 19.1127 27.8128C19.4255 28.1424 19.584 28.5802 19.7133 29.014C19.7633 29.1891 19.8134 29.3643 19.855 29.5395L19.9552 29.9898C19.9594 30.0149 19.9677 30.0358 19.9719 30.0607L20.001 30.1983L20.097 30.1858C20.1679 30.1734 20.2429 30.1567 20.3138 30.1442C20.4306 30.1233 20.5432 30.1024 20.66 30.0816C20.7767 30.0607 20.8977 30.0399 21.0144 30.0232C21.1354 30.0024 21.2563 29.9857 21.3772 29.9648C21.4982 29.9439 21.6233 29.9272 21.7442 29.9065C21.8653 29.8898 21.9904 29.8689 22.1113 29.8522C22.2323 29.8355 22.3532 29.8188 22.4742 29.798C22.5909 29.7814 22.7119 29.7647 22.8286 29.748C22.9454 29.7313 23.058 29.7146 23.1747 29.7021C23.2832 29.6854 23.3958 29.6729 23.5042 29.6604C23.6085 29.6479 23.7128 29.6354 23.817 29.6187C23.9129 29.6062 24.0089 29.5936 24.1048 29.5811C24.1923 29.5686 24.2799 29.5602 24.3675 29.5477C24.4467 29.5395 24.5218 29.527 24.6011 29.5186C24.6678 29.5103 24.7345 29.5019 24.8012 29.4936C24.8555 29.4852 24.9096 29.481 24.9681 29.4727C25.0098 29.4685 25.0514 29.4643 25.0932 29.4602C25.1349 29.456 25.1807 29.4518 25.2225 29.4435C25.2225 29.4435 25.2225 29.4393 25.2225 29.4351C25.2225 29.4144 25.2141 29.3726 25.2141 29.3643L25.2183 29.3559ZM19.3629 26.3073C18.9543 26.3073 18.6248 25.9779 18.6248 25.5691C18.6248 25.1604 18.9543 24.831 19.3629 24.831C19.7716 24.831 20.1012 25.1604 20.1012 25.5691C20.1012 25.9779 19.7716 26.3073 19.3629 26.3073Z" fill="#002652"/>
<path d="M17.8991 30.6238C17.8699 30.5737 17.8407 30.5279 17.8074 30.4778C17.774 30.4319 17.7406 30.3902 17.7072 30.3485C17.6739 30.3068 17.6405 30.2693 17.603 30.2317C17.5697 30.1983 17.5321 30.1609 17.4946 30.1317C17.457 30.0983 17.4195 30.069 17.382 30.0441C17.3444 30.0149 17.3069 29.9898 17.2652 29.9648C17.2276 29.9398 17.186 29.919 17.1484 29.8981C17.1109 29.8773 17.0692 29.8606 17.0317 29.8397C16.9941 29.823 16.9565 29.8063 16.9149 29.7939C16.8773 29.7814 16.8398 29.7647 16.8023 29.7563C16.7648 29.7438 16.7272 29.7354 16.6938 29.7229C16.6605 29.7146 16.6229 29.7062 16.5896 29.6979C16.5563 29.6895 16.5229 29.6854 16.4895 29.677C16.4603 29.6729 16.427 29.6688 16.3978 29.6646C16.3685 29.6646 16.3435 29.6562 16.3143 29.6562C16.2226 29.6479 16.1308 29.6437 16.0391 29.6437H15.9723C15.8806 29.6437 15.7889 29.6437 15.6971 29.6562C15.6679 29.6562 15.6387 29.6604 15.6137 29.6646C15.5845 29.6646 15.5512 29.6729 15.522 29.677C15.4886 29.6812 15.4552 29.6895 15.4219 29.6979C15.3885 29.7062 15.3509 29.7146 15.3175 29.7229C15.2801 29.7313 15.2425 29.7438 15.2091 29.7563C15.1717 29.7688 15.1341 29.7814 15.0965 29.7939C15.059 29.8105 15.0173 29.823 14.9798 29.8397C14.938 29.8564 14.9006 29.8773 14.863 29.8981C14.8213 29.919 14.7838 29.9398 14.7462 29.9648C14.7087 29.9898 14.667 30.0149 14.6295 30.0441C14.5919 30.0732 14.5543 30.1024 14.5169 30.1317C14.4793 30.165 14.4418 30.1983 14.4085 30.2317C14.3709 30.2693 14.3375 30.3068 14.3041 30.3485C14.2708 30.3902 14.2374 30.4319 14.2041 30.4778C14.1707 30.5237 14.1415 30.5737 14.1123 30.6238C14.0831 30.6738 14.0539 30.728 14.029 30.7823C14.029 30.7823 14.029 30.7906 14.0331 30.7906C14.1123 30.9282 14.2124 31.0575 14.3208 31.1743C14.5252 31.4037 14.7629 31.608 15.034 31.754C15.3342 31.9166 15.6721 31.9958 16.0141 32C16.356 31.9958 16.6938 31.9166 16.9941 31.754C17.2652 31.608 17.5029 31.4037 17.7072 31.1743C17.8116 31.0534 17.9116 30.9282 17.995 30.7906L17.9992 30.7823C17.9741 30.728 17.945 30.6738 17.9158 30.6238H17.8991Z" fill="#002652"/>
<path d="M26.653 23.3463C26.115 23.1586 25.4769 22.7582 25.3643 22.1535C25.3017 21.8199 25.4435 21.5154 25.602 21.2277C26.1024 20.3352 26.4486 19.3593 26.7155 18.3751C26.9824 17.3867 27.2034 16.3649 27.2869 15.3515C27.3327 14.8176 27.4536 14.0378 26.9281 13.7C26.7656 13.5957 26.5737 13.5415 26.3861 13.4998C24.2299 13.0369 22.1905 14.4174 20.5181 15.6184C20.4973 15.6101 20.4807 15.6017 20.4598 15.5934C20.3431 15.535 20.2221 15.4849 20.1012 15.439C19.9009 15.3682 19.6966 15.3139 19.4922 15.2681C18.533 15.0179 17.3403 14.8719 16.0516 14.8719C16.0516 14.8719 16.0516 14.8719 16.0475 14.8719C16.0475 14.8719 16.0141 14.8719 15.9974 14.8719C15.9807 14.8719 15.964 14.8719 15.9474 14.8719C15.9474 14.8719 15.9474 14.8719 15.9432 14.8719C14.6545 14.8719 13.4659 15.0179 12.5026 15.2681C12.2982 15.3139 12.0938 15.3682 11.8937 15.439C11.7727 15.4808 11.6518 15.535 11.535 15.5934C11.5142 15.6017 11.4975 15.6101 11.4766 15.6184C9.80426 14.4174 7.7649 13.0328 5.60877 13.4998C5.4211 13.5415 5.22925 13.5957 5.06661 13.7C4.54112 14.042 4.66207 14.8218 4.70794 15.3515C4.79136 16.3649 5.01656 17.3867 5.2793 18.3751C5.54204 19.3635 5.89235 20.3352 6.39281 21.2277C6.55129 21.5112 6.68892 21.8157 6.63053 22.1535C6.52209 22.7624 5.88402 23.1586 5.34185 23.3463C5.34185 23.3463 4.39933 23.7716 3.53188 23.805C3.53188 23.805 4.57449 27.0205 6.84322 28.8722L6.85574 28.8805C6.85574 28.8805 6.8599 28.8513 6.86407 28.8388C6.86407 28.8263 6.86825 28.8179 6.87241 28.8054C6.87241 28.8054 6.87241 28.797 6.87241 28.7887C6.87241 28.7846 6.87241 28.7804 6.87241 28.7721L6.88076 28.7304C6.88492 28.7053 6.89327 28.6761 6.89743 28.6428C6.89743 28.6303 6.90161 28.6178 6.90578 28.6052L6.93497 28.4593V28.4509C6.93497 28.4342 6.94332 28.4175 6.94332 28.4009L6.95583 28.3383C6.95583 28.3383 6.96416 28.3008 6.96834 28.2841C6.96834 28.2633 6.97668 28.2508 6.97668 28.2382V28.2174C7.06843 27.8045 7.17686 27.3958 7.31032 26.9955C7.44377 26.5951 7.59808 26.203 7.78992 25.8277C8.34459 24.7309 9.20788 23.7549 10.3297 23.2545C11.6351 22.6748 13.2324 22.8125 14.421 23.6091C14.567 23.7091 14.7129 23.8175 14.8421 23.9385C15.0799 24.1553 15.2801 24.4097 15.4135 24.7017C15.622 25.1562 15.6429 25.7068 15.3969 26.1405C15.1466 26.5826 14.6629 26.8411 14.1957 27.0413C13.7286 27.2457 13.2324 27.4291 12.8821 27.8003C12.5692 28.1298 12.4108 28.5677 12.2815 29.0014C12.2315 29.1765 12.1814 29.3517 12.1397 29.5269L12.0397 29.9773C12.0355 30.0024 12.0271 30.0232 12.023 30.0482L11.9937 30.1858L14.0123 30.7781C14.0373 30.7238 14.0665 30.6697 14.0956 30.6196C14.1248 30.5695 14.1541 30.5237 14.1875 30.4736C14.2207 30.4277 14.2541 30.386 14.2875 30.3443C14.3209 30.3026 14.3542 30.2651 14.3918 30.2275C14.4252 30.1942 14.4626 30.1567 14.5002 30.1275C14.5378 30.0941 14.5752 30.0649 14.6128 30.0399C14.6503 30.0107 14.6879 29.9857 14.7295 29.9606C14.7671 29.9356 14.8089 29.9148 14.8463 29.8939C14.8839 29.8731 14.9256 29.8564 14.9631 29.8355C15.0006 29.8188 15.0382 29.8021 15.0799 29.7897C15.1174 29.7772 15.155 29.7605 15.1925 29.7521C15.23 29.7396 15.2676 29.7313 15.301 29.7187C15.3342 29.7104 15.3718 29.702 15.4052 29.6937C15.4386 29.6853 15.4719 29.6812 15.5053 29.6728C15.5345 29.6687 15.5679 29.6646 15.597 29.6604C15.6262 29.6604 15.6513 29.6521 15.6805 29.6521C15.7722 29.6437 15.8639 29.6395 15.9557 29.6395H16.0224C16.1141 29.6395 16.206 29.6395 16.2977 29.6521C16.3269 29.6521 16.356 29.6562 16.3811 29.6604C16.4103 29.6604 16.4437 29.6687 16.4728 29.6728C16.5062 29.677 16.5396 29.6853 16.573 29.6937C16.6062 29.702 16.6438 29.7104 16.6772 29.7187C16.7147 29.7271 16.7522 29.7396 16.7856 29.7521C16.8232 29.7646 16.8606 29.7772 16.8982 29.7897C16.9358 29.8063 16.9774 29.8188 17.015 29.8355C17.0567 29.8522 17.0942 29.8731 17.1317 29.8939C17.1735 29.9148 17.211 29.9356 17.2485 29.9606C17.2861 29.9857 17.3278 30.0107 17.3653 30.0399C17.4028 30.069 17.4404 30.0983 17.4779 30.1275C17.5154 30.1609 17.553 30.1942 17.5864 30.2275C17.6238 30.2651 17.6572 30.3026 17.6906 30.3443C17.7239 30.386 17.7573 30.4277 17.7907 30.4736C17.8241 30.5195 17.8532 30.5695 17.8824 30.6196C17.9116 30.6697 17.9409 30.7238 17.9659 30.7781L19.9844 30.1858L19.9552 30.0523C19.951 30.0232 19.9427 30.0024 19.9385 29.9773L19.8384 29.5269C19.7967 29.3517 19.7466 29.1765 19.6966 29.0014C19.5673 28.5677 19.4047 28.1257 19.0961 27.8003C18.7457 27.4291 18.2494 27.2457 17.7824 27.0413C17.3153 26.837 16.8315 26.5826 16.5813 26.1405C16.3352 25.7068 16.3602 25.1521 16.5646 24.7017C16.6981 24.4097 16.8982 24.1553 17.1359 23.9385C17.2652 23.8175 17.4112 23.7091 17.5572 23.6091C18.7415 22.8125 20.3431 22.6748 21.6483 23.2545C22.7702 23.7549 23.6336 24.7309 24.1882 25.8277C24.3801 26.203 24.5343 26.5951 24.6678 26.9955C24.8012 27.3958 24.9055 27.8045 24.9973 28.2174V28.2382C24.9973 28.2382 25.0056 28.2633 25.0098 28.2841C25.0098 28.3008 25.0182 28.3174 25.0223 28.3383L25.0348 28.4009C25.0348 28.4009 25.0431 28.4342 25.0431 28.4509V28.4593L25.0723 28.6052C25.0807 28.6511 25.089 28.697 25.0974 28.7304L25.1057 28.7721C25.1057 28.7721 25.1057 28.7846 25.1057 28.7887C25.1057 28.7929 25.1057 28.797 25.1057 28.8012C25.1057 28.8137 25.1099 28.8221 25.1141 28.8346C25.1141 28.8471 25.1182 28.8638 25.1224 28.8763L25.1349 28.868C27.4037 27.0163 28.4462 23.8008 28.4462 23.8008C27.5788 23.7675 26.6363 23.3421 26.6363 23.3421L26.653 23.3463ZM7.95673 17.5993C7.76073 17.7829 7.56054 17.983 7.3687 18.2C7.13515 18.4668 6.90995 18.7546 6.7056 19.0716C6.52627 18.667 6.38447 18.2416 6.26769 17.8163C6.10505 17.2031 5.96326 16.5692 5.91321 15.9437C5.88402 15.6142 5.80895 15.1305 6.13424 14.922C6.23433 14.8552 6.35111 14.8218 6.47205 14.7969C7.8066 14.5091 9.07025 15.364 10.1087 16.1105C10.1087 16.1105 9.03689 16.6068 7.95673 17.6035V17.5993ZM24.6303 18.2C24.4384 17.983 24.2424 17.7829 24.0422 17.5993C22.9621 16.6026 21.8902 16.1063 21.8902 16.1063C22.9245 15.3598 24.1882 14.5049 25.527 14.7927C25.6437 14.8176 25.7605 14.851 25.8647 14.9178C26.19 15.1263 26.115 15.6101 26.0857 15.9395C26.0357 16.5692 25.8939 17.199 25.7313 17.8121C25.6145 18.2416 25.4769 18.6629 25.2933 19.0674C25.089 18.7504 24.8638 18.4626 24.6303 18.1958V18.2Z" fill="white"/>
</svg>
