<svg height="26" viewBox="0 0 26 26" width="26" xmlns="http://www.w3.org/2000/svg"><g fill="#ff4949"><circle cx="13" cy="13" fill-opacity=".1" r="13"/><path d="m6.122.392a1.75 1.75 0 0 1 1.756 0l5.25 3.045c.54.313.872.89.872 1.514v2.299a.75.75 0 0 1 -1.5 0v-1.573l-4.75 2.755v6.384a1 1 0 0 1 -1.502.865l-5.376-3.118a1.75 1.75 0 0 1 -.872-1.514v-6.098c0-.624.332-1.2.872-1.514zm1.003 1.298 4.63 2.685-4.755 2.758-4.755-2.758 4.63-2.685a.25.25 0 0 1 .25 0zm-5.625 9.359v-5.372l4.75 2.755v5.516l-4.625-2.683a.25.25 0 0 1 -.125-.216zm10.828 3.684a.75.75 0 1 0 1.087 1.034l2.378-2.5a.75.75 0 0 0 0-1.034l-2.378-2.5a.75.75 0 0 0 -1.087 1.034l1.173 1.233h-3.251a.75.75 0 0 0 0 1.5h3.251z" fill-rule="evenodd" transform="translate(5 5)"/></g></svg>