<svg viewBox="0 0 121.85 99.17" xmlns="http://www.w3.org/2000/svg" xmlns:xlink="http://www.w3.org/1999/xlink"><linearGradient id="a" gradientUnits="userSpaceOnUse" x1="168.55" x2="27.2" y1="13.4" y2="57"><stop offset="0" stop-color="#fff100"/><stop offset="1" stop-color="#f05a28"/></linearGradient><path d="m4.66 25h-2.29a2.37 2.37 0 0 0 0 4.74h2.29a2.37 2.37 0 1 0 0-4.74zm43.82 34.57h-2.29a2.37 2.37 0 1 0 0 4.74h2.29a2.37 2.37 0 1 0 0-4.74zm-1.92-22.57a2.37 2.37 0 0 0 -2.37-2.37h-7.92a2.37 2.37 0 0 0 0 4.74h7.92a2.37 2.37 0 0 0 2.37-2.37zm75.17-14.9-2.41-13.54a9.88 9.88 0 0 0 -10.25-8.56h-92.83a6.28 6.28 0 0 0 -6.34 7.7l2.54 14.4a3.38 3.38 0 0 0 .08.34c.3 1.76-.59 2.47-1.39 2.73a2.37 2.37 0 0 0 .79 4.6h103.47a6.28 6.28 0 0 0 6.34-7.67zm-31.58 54.32c-1-5.25-4-7.2-7.39-7.2h-24.52a2.39 2.39 0 0 0 -2.37 2.4 2.37 2.37 0 0 0 2.13 2.38c.78.14 1.62 1.16 2.15 3.68l2.52 14a9.59 9.59 0 0 0 9.19 7.54l14.63-.07a6.28 6.28 0 0 0 6.44-7.61zm-32.42-11.94h26.61a2.27 2.27 0 0 0 .59-.09c2.46-.52 2.58-2.52 2.26-4.51l-3.39-18.61c-.93-4.84-3.74-6.75-7.43-6.75h-24.37a2.37 2.37 0 0 0 -.28 4.72c.81.15 1.7 1.24 2.22 4l2.57 14.24a1.92 1.92 0 0 1 -1.51 2.39 2.36 2.36 0 0 0 .79 4.59h1.9z" fill="url(#a)"/></svg>