<svg height="32" viewBox="0 0 32 32" width="32" xmlns="http://www.w3.org/2000/svg"><g fill="#00acd7" transform="translate(1 10)"><path d="m2.34782609 3.49275362c-.05797102 0-.07246377-.0289855-.04347826-.07246376l.30434782-.39130435c.02898551-.04347826.10144928-.07246377.15942029-.07246377h5.17391305c.05797101 0 .07246376.04347826.04347826.08695652l-.24637682.3768116c-.0289855.04347826-.10144927.08695652-.14492753.08695652z"/><path d="m.15942029 4.82608696c-.05797101 0-.07246377-.02898551-.04347826-.07246377l.30434783-.39130435c.0289855-.04347826.10144927-.07246377.15942028-.07246377h6.60869566c.05797101 0 .08695652.04347826.07246377.08695652l-.11594203.34782609c-.01449276.05797102-.07246377.08695652-.13043479.08695652z"/><path d="m3.66666667 6.15942029c-.05797102 0-.07246377-.04347826-.04347826-.08695652l.20289855-.36231884c.0289855-.04347826.08695652-.08695652.14492753-.08695652h2.89855073c.05797101 0 .08695652.04347826.08695652.10144927l-.02898551.34782609c0 .05797101-.05797101.10144927-.10144927.10144927z"/><g transform="translate(7.971014)"><path d="m10.7391304 3.23188406c-.91304344.23188406-1.53623185.4057971-2.43478257.63768116-.21739131.05797101-.23188406.07246377-.42028986-.14492754-.2173913-.24637681-.37681159-.4057971-.68115942-.55072464-.91304348-.44927536-1.79710145-.31884058-2.62318841.21739131-.98550724.63768116-1.49275362 1.57971014-1.47826086 2.75362319.01449275 1.15942029.8115942 2.11594203 1.95652173 2.27536232.98550725.13043478 1.81159421-.21739131 2.46376812-.95652174.13043478-.15942029.24637681-.33333334.39130435-.53623189-.52173913 0-1.17391305 0-2.79710145 0-.30434783 0-.3768116-.1884058-.27536232-.43478261.1884058-.44927536.53623188-1.20289855.73913043-1.57971014.04347827-.08695652.14492754-.23188406.36231885-.23188406h5.27536231c-.0289855.39130435-.0289855.7826087-.0869565 1.17391304-.1594203 1.04347826-.5507247 2-1.18840581 2.84057971-1.04347827 1.37681163-2.40579711 2.23188403-4.13043479 2.46376813-1.42028985.1884058-2.73913043-.0869565-3.89855072-.9565217-1.07246377-.81159425-1.68115942-1.88405802-1.84057971-3.21739135-.1884058-1.57971015.27536232-3 1.23188406-4.24637682 1.0289855-1.34782608 2.39130434-2.20289855 4.05797101-2.50724637 1.36231884-.24637681 2.66666667-.08695652 3.84057971.71014493.76811594.50724637 1.31884055 1.20289855 1.68115945 2.04347826.0869565.13043478.0289855.20289855-.1449276.24637681z"/><path d="m15.5362319 11.2463768c-1.3188406-.0289855-2.5217391-.4057971-3.5362319-1.27536231-.8550725-.73913043-1.3913043-1.68115942-1.5652174-2.79710145-.2608696-1.63768116.1884058-3.08695652 1.1739131-4.37681159 1.057971-1.39130435 2.3333333-2.11594203 4.057971-2.42028986 1.4782608-.26086956 2.8695652-.11594202 4.1304347.73913044 1.1449276.78260869 1.8550725 1.84057971 2.0434783 3.23188406.2463768 1.95652174-.3188406 3.55072463-1.6666667 4.91304348-.9565217.97101453-2.1304347 1.57971013-3.4782608 1.85507243-.3913044.0724638-.7826087.0869566-1.1594203.1304348zm3.4492753-5.85507245c-.0144927-.1884058-.0144927-.33333334-.0434782-.47826087-.2608696-1.43478261-1.5797102-2.24637681-2.9565218-1.92753623-1.347826.30434782-2.2173913 1.15942029-2.5362318 2.52173913-.2608696 1.13043478.289855 2.27536232 1.3333333 2.73913043.7971014.34782609 1.5942029.30434783 2.3623188-.08695652 1.1449276-.5942029 1.768116-1.52173913 1.8405797-2.76811594z"/></g></g></svg>