<svg height="133" viewBox="0 0 128 128" width="128" xmlns="http://www.w3.org/2000/svg"><path d="m26.027344.136719c-.203125.078125-5.941406 3.347656-12.746094 7.257812-8.246094 4.742188-12.480469 7.238281-12.707031 7.472657-.179688.203124-.382813.554687-.445313.777343-.1718748.574219-.1835935 84.703125-.011718 85.308594.0625.234375.265624.578125.449218.769531.445313.46875 49.671875 28.773438 50.269532 28.910156.277343.066407.589843.054688.898437-.03125.671875-.167968 49.769531-28.410156 50.207031-28.871093.179688-.199219.382813-.542969.449219-.777344.085937-.277344.117187-4.675781.117187-13.9375v-13.535156l11.96875-6.875c11.285157-6.488281 11.976563-6.894531 12.265626-7.339844l.296874-.480469v-14.578125c0-15.871093.03125-14.976562-.597656-15.550781-.167968-.148438-5.917968-3.503906-12.789062-7.460938l-12.480469-7.179687h-1.386719l-12.210937 7.011719c-6.722657 3.867187-12.4375 7.171875-12.714844 7.351562-.277344.183594-.609375.523438-.746094.769532l-.246093.425781-.054688 13.734375-.050781 13.738281-10.082031 5.808594c-5.546876 3.1875-10.164063 5.828125-10.261719 5.851562-.179688.050781-.191407-1.257812-.191407-26.503906v-26.570313l-.265624-.457031c-.332032-.554687 1.160156.332031-13.824219-8.28125-12.566407-7.226562-12.265625-7.074219-13.109375-6.757812zm11.550781 10.519531c5.257813 3.015625 9.558594 5.511719 9.558594 5.542969s-4.609375 2.695312-10.242188 5.933593l-10.25 5.882813-10.230469-5.882813c-5.621093-3.238281-10.226562-5.902343-10.226562-5.933593s4.597656-2.695313 10.21875-5.925781l10.207031-5.871094.703125.382812c.394532.214844 5.015625 2.855469 10.261719 5.871094zm73.152344 13.535156c5.535156 3.1875 10.113281 5.820313 10.15625 5.863282.117187.105468-20.183594 11.773437-20.460938 11.761718-.277343-.007812-20.328125-11.570312-20.320312-11.710937.011719-.160157 20.183593-11.765625 20.386719-11.734375.09375.023437 4.703124 2.644531 10.238281 5.820312zm-95.902344 1.683594 9.757813 5.617188.054687 27.8125.050781 27.816406.238282.375c.125.199218.359374.46875.53125.59375.160156.117187 5.589843 3.210937 12.0625 6.863281l11.757812 6.640625v11.765625c0 6.457031-.042969 11.753906-.097656 11.753906-.042969 0-10.207032-5.816406-22.582032-12.9375l-22.496093-12.9375-.03125-39.773437-.019531-39.761719.5.277344c.289062.152343 4.90625 2.804687 10.273437 5.894531zm34.453125 19.578125v25.628906l-.394531.257813c-.535157.339844-20.074219 11.570312-20.140625 11.570312-.03125 0-.054688-11.570312-.054688-25.714844l.011719-25.703124 10.207031-5.871094c5.613282-3.230469 10.242188-5.851563 10.296875-5.832032.039063.023438.074219 11.574219.074219 25.664063zm38.941406-5.894531 10.230469 5.882812v11.660156c0 11.0625-.011719 11.65625-.179687 11.59375-.109376-.042968-4.738282-2.695312-10.292969-5.894531l-10.113281-5.808593v-11.65625c0-6.417969.03125-11.660157.0625-11.660157.042968 0 4.671874 2.644531 10.292968 5.882813zm34.871094 5.703125c0 6.382812-.042969 11.648437-.085938 11.699219-.074218.117187-20.308593 11.777343-20.4375 11.777343-.03125 0-.0625-5.242187-.0625-11.660156v-11.65625l10.207032-5.875c5.621094-3.226563 10.25-5.871094 10.292968-5.871094.054688 0 .085938 5.210938.085938 11.585938zm-36.863281 21.207031c8.605469 4.953125 10.089843 5.839844 9.941406 5.957031-.097656.0625-3.359375 1.9375-7.242187 4.15625-3.882813 2.214844-13.941407 7.949219-22.359376 12.746094l-15.296874 8.726563-.488282-.265626c-2.921875-1.597656-19.875-11.242187-19.875-11.316406-.007812-.160156 44.855469-25.941406 45.035156-25.875.085938.03125 4.714844 2.671875 10.285157 5.871094zm12.203125 21.089844-.035156 11.679687-22.484376 12.9375c-12.371093 7.121094-22.539062 12.9375-22.589843 12.9375-.054688 0-.097657-4.753906-.097657-11.753906v-11.765625l22.539063-12.851562c12.382813-7.066407 22.558594-12.851563 22.613281-12.863282.042969 0 .0625 5.253906.054688 11.679688zm0 0" fill="#f05340"/></svg>