<svg height="32" viewBox="0 0 32 32" width="32" xmlns="http://www.w3.org/2000/svg"><g fill="none" fill-rule="evenodd" transform="translate(2 2)"><path d="m7.31689755 6.33256547s0-2.27472794.00062673-3.45959837c0-3.51488701 12.82285152-4.25301969 13.43078082.48435015v6.64836485c0 2.234626-1.918034 3.5548544-3.5376314 3.5548544-1.6195973 0-2.0664935 0-3.5508474 0-5.95337786 0-7.60460902-.1769841-7.26429593 7.2996626-1.22606594 0-1.0246457 0-2.1564039 0-5.42210275 0-5.81643476-13.34772897 0-13.57696308h9.84179843v-.95067055zm2.91600515-4.12409136c-.59097315.01453111-1.24979993.46263988-1.24979993 1.24470751 0 .78206764.59240077 1.20513601 1.18480153 1.19056981.5924008-.01456621 1.2442385-.43861513 1.2442385-1.25029609s-.5882669-1.19951233-1.1792401-1.18498123z" fill="#347ab4"/><path d="m14.5671209 13.4514018s0-2.274728.0006267-3.45959839c0-3.514887 12.8228515-4.25301969 13.4307808.48435019v6.6483648c0 2.6145675-1.6855534 3.5548545-3.5376313 3.5548545-1.852078 0-2.0664936 0-3.5508475 0-5.3718333 0-7.5630817 0-7.2642959 7.2996625-1.2553616 0-1.0246457 0-2.1564039 0-5.38098494 0-5.81643478-13.3477289 0-13.5769631h9.8417984v-.9506705zm2.9160051-4.12409137c-.5909731.01453111-1.2497999.46263988-1.2497999 1.24470747 0 .7820677.5924007 1.2051361 1.1848015 1.1905698.5924008-.0145662 1.2442385-.4386151 1.2442385-1.250296 0-.811681-.5882669-1.19951237-1.1792401-1.18498127z" fill="#ffca1d" transform="matrix(-1 -0 0 -1 35.28726 35.117688)"/></g></svg>