<svg xmlns="http://www.w3.org/2000/svg" data-name="Layer 1" viewBox="0 0 524.36 131.02"><path fill="#279e92" d="M65.33 0s-2.14 4.64-17.71 32.48c-10.28 18.35-8.85 33.63 2.93 50.05 12.71 17.78 13.35 18.78 13.35 18.78H39.63C4.43 101.24 0 131.01 0 131.01h46.19l17.71-29.77h62.66Z"/><path d="m149.29 101.16 7.5-7.42 20.56-47.77-2.85-6.71h11.78l25.91 62h-24.06l9.21-7.35-5.57-13.25h-25.91l-5.3 12.58 11.43 8h-22.7Zm17.78-23.42h23.42l-11.57-28.08Zm70.04 24.42a19.28 19.28 0 0 1-10.92-3.07 20.82 20.82 0 0 1-7.29-8.21 24.51 24.51 0 0 1-2.49-11.13 25.84 25.84 0 0 1 2.57-11.36 20 20 0 0 1 7.64-8.56 21.27 21.27 0 0 1 12.06-3.29 28.18 28.18 0 0 1 8.78 1.43 33.56 33.56 0 0 1 8.21 4.28l-7.06 8-10.71-11.59a12.83 12.83 0 0 0-6.93 3.07 17.12 17.12 0 0 0-4.57 6.36 19.89 19.89 0 0 0-1.57 7.92 17.11 17.11 0 0 0 2.29 8.93 14.7 14.7 0 0 0 6.06 5.78 17.11 17.11 0 0 0 8.29 2 19.9 19.9 0 0 0 8.21-1.78 21.32 21.32 0 0 0 7.21-5.5 26.85 26.85 0 0 1-3.36 8 19.85 19.85 0 0 1-6.49 6.36 21.22 21.22 0 0 1-9.93 2.36Zm44.06 0a19.29 19.29 0 0 1-10.93-3.07 20.72 20.72 0 0 1-7.28-8.21 24.52 24.52 0 0 1-2.5-11.13 26 26 0 0 1 2.57-11.36 20 20 0 0 1 7.64-8.56 21.3 21.3 0 0 1 12.07-3.29 28.23 28.23 0 0 1 8.78 1.43 33.74 33.74 0 0 1 8.21 4.28l-7.07 8-10.71-11.59a12.8 12.8 0 0 0-6.92 3.07 17.12 17.12 0 0 0-4.57 6.36 19.89 19.89 0 0 0-1.57 7.92 17.1 17.1 0 0 0 2.28 8.93 14.72 14.72 0 0 0 6.07 5.78 17.07 17.07 0 0 0 8.28 2 19.83 19.83 0 0 0 8.21-1.78 21.23 21.23 0 0 0 7.21-5.5 26.82 26.82 0 0 1-3.35 8 19.88 19.88 0 0 1-6.5 6.36 21.21 21.21 0 0 1-9.92 2.36Zm45.48 0a22.21 22.21 0 0 1-11.78-3 20.37 20.37 0 0 1-7.64-8.14 24.87 24.87 0 0 1-2.67-11.63 24.07 24.07 0 0 1 2.86-11.86 20 20 0 0 1 8-8.14 23.68 23.68 0 0 1 11.78-2.92 22.15 22.15 0 0 1 11.71 3 20.17 20.17 0 0 1 7.71 8.13 25.06 25.06 0 0 1 2.71 11.64 24.17 24.17 0 0 1-2.85 11.86 20.39 20.39 0 0 1-8 8.13 24 24 0 0 1-11.83 2.93Zm1.28-2.57a8 8 0 0 0 7.5-4.71c1.64-3.14 2.5-7.43 2.5-12.85a43.38 43.38 0 0 0-1.37-11.21 20.14 20.14 0 0 0-4.14-8.43 8.71 8.71 0 0 0-6.85-3.21 8 8 0 0 0-7.5 4.71c-1.64 3.14-2.43 7.43-2.43 12.85A43.38 43.38 0 0 0 317 87.95a20.2 20.2 0 0 0 4.07 8.43 8.83 8.83 0 0 0 6.86 3.21Zm26.42 1.57 7.78-6.14v-47.9l-8.78-4.86 18.85-5.93V95.1l7.78 6.14h-25.63Zm57.05-8.14a24.71 24.71 0 0 1-6.93 6.72 15.06 15.06 0 0 1-8 2.35 12.19 12.19 0 0 1-8.64-3.28 11.22 11.22 0 0 1-3.65-8.78 10.45 10.45 0 0 1 2.93-7.72 20.3 20.3 0 0 1 8.57-4.78 105.46 105.46 0 0 1 15.28-3.28v-4.43q0-5.25-2.36-8.14a8.37 8.37 0 0 0-5.85-3.21l-10.78 13-7.5-8.14c2.21-1.5 4.36-2.78 6.21-3.78a28.68 28.68 0 0 1 6.14-2.29 27.13 27.13 0 0 1 6.93-.85c5.14 0 9.28 1.28 12.49 3.78s4.86 6 4.86 10.57v21.13l8.78 4.86-18.42 5.78v-9.5Zm-9.57 2.15c3.28 0 6.35-1.57 9.14-4.72v-14c-5.64 1.14-9.64 2.64-12.14 4.57a8.83 8.83 0 0 0-3.71 7.35c0 2.29.64 4 1.93 5.07a7.14 7.14 0 0 0 4.78 1.73Zm62.26-1.79a19.54 19.54 0 0 1-6 6.5 13.87 13.87 0 0 1-7.85 2.28 15.84 15.84 0 0 1-9.93-3.07 19.8 19.8 0 0 1-6.21-8 27.77 27.77 0 0 1-2.07-10.71 29.42 29.42 0 0 1 2.36-11.57 21 21 0 0 1 6.92-8.92 18.11 18.11 0 0 1 11.14-3.43 15 15 0 0 1 11.11 4.44V47.12l-8.64-4.86 18.78-5.93v55.69l8.85 4.86-18.46 5.78Zm-8.85.36a13.83 13.83 0 0 0 4.49-.79 8.5 8.5 0 0 0 3.79-2.57V76.75c0-5.79-.79-10.14-2.43-13.14a8.06 8.06 0 0 0-7.57-4.5 8.63 8.63 0 0 0-6 2.36 14.63 14.63 0 0 0-3.85 6.14 24.71 24.71 0 0 0-1.29 8.06 27.63 27.63 0 0 0 1.43 8.79 16 16 0 0 0 4.36 6.71 10.53 10.53 0 0 0 7.07 2.57Zm50.12 8.42a19.39 19.39 0 0 1-11-3.07 20.92 20.92 0 0 1-7.28-8.28 25 25 0 0 1-2.52-11.35 26.27 26.27 0 0 1 2.5-11.21 20.07 20.07 0 0 1 18.78-11.71 18.76 18.76 0 0 1 9.14 2.14 15.28 15.28 0 0 1 6.14 6.43 25.7 25.7 0 0 1 2.5 10.64h-34.06v-2.93h23.56a15.75 15.75 0 0 0-.29-6.64 10.66 10.66 0 0 0-2.85-5.14 6.88 6.88 0 0 0-5.07-2 9.54 9.54 0 0 0-6.14 2.21 14.15 14.15 0 0 0-4.29 5.93 22.89 22.89 0 0 0 .22 17.21 14.3 14.3 0 0 0 5.42 6.35 16.76 16.76 0 0 0 8.93 2.29 19.4 19.4 0 0 0 15.35-7.64 25.66 25.66 0 0 1-6.21 11.85c-3.12 3.28-7.41 4.92-12.83 4.92Z"/></svg>