<?xml version="1.0" encoding="utf-8"?>
<!-- Generator: Adobe Illustrator 14.0.0, SVG Export Plug-In . SVG Version: 6.00 Build 43363)  -->
<!DOCTYPE svg PUBLIC "-//W3C//DTD SVG 1.1//EN" "http://www.w3.org/Graphics/SVG/1.1/DTD/svg11.dtd">
<svg version="1.1" id="Warstwa_1" xmlns="http://www.w3.org/2000/svg" xmlns:xlink="http://www.w3.org/1999/xlink" x="0px" y="0px"
	 width="799.938px" height="120.764px" viewBox="0 239.625 799.938 120.764" enable-background="new 0 239.625 799.938 120.764"
	 xml:space="preserve">
<g>
	<g>
		<path fill="#261F3B" d="M799.938,313.5v-5.938c0-10.563-3.688-20.625-10.5-28.25c-3.375-3.875-7.438-6.875-11.938-9
			c-4.75-2.25-9.813-3.375-15.063-3.375s-10.313,1.125-15.063,3.375c-4.5,2.125-8.5,5.188-11.938,9
			C728.75,286.937,725,297,725,307.562c0,10.625,3.75,20.625,10.5,28.25c3.438,3.813,7.438,6.875,11.938,9
			c4.75,2.25,9.813,3.375,15.063,3.375l0,0l0,0c10.875,0,21.063-4.25,28.75-11.938c1.063-1.063,2.063-2.25,3-3.375l-9.375-7.5
			c-5.25,6.563-13.313,10.813-22.438,10.813c-12.25,0-22.5-9.75-24.938-22.75h55.313h7.125V313.5z M762.5,278.875
			c12.25,0,22.5,9.75,24.938,22.75h-49.813C740,288.625,750.25,278.875,762.5,278.875z"/>
		<polygon fill="#261F3B" points="568.063,328 549.75,268.625 548.75,268.625 537.188,268.625 536.188,268.625 517.875,328 
			499.563,268.625 487,268.625 511.25,347.187 511.938,347.187 523.813,347.187 524.5,347.187 543,288.937 561.438,347.187 
			562.125,347.187 574,347.187 574.688,347.187 598.938,268.625 586.375,268.625 		"/>
		<path fill="#261F3B" d="M454,270.312c-4.75-2.25-9.813-3.375-15.063-3.375s-10.313,1.125-15.063,3.375
			c-4.5,2.125-8.5,5.188-11.938,9c-6.75,7.625-10.5,17.625-10.5,28.25s3.75,20.625,10.5,28.25c3.438,3.813,7.438,6.875,11.938,9
			c4.75,2.25,9.813,3.375,15.063,3.375l0,0l0,0c10.875,0,21.063-4.25,28.75-11.938c1.063-1.063,2.125-2.25,3.063-3.375l-9.375-7.5
			c-5.25,6.563-13.313,10.813-22.375,10.813c-12.25,0-22.5-9.75-24.938-22.75h55.313h7.063v-5.875c0-10.563-3.75-20.625-10.5-28.25
			C462.5,275.5,458.5,272.437,454,270.312z M438.938,278.875c12.249,0,22.5,9.75,24.938,22.75h-49.813
			C416.438,288.625,426.688,278.875,438.938,278.875z"/>
		<path fill="#261F3B" d="M168.125,336.25c-15.813,0-28.688-12.813-28.688-28.688c0-15.813,12.813-28.688,28.688-28.688
			c9.063,0,17.188,4.25,22.438,10.813l9.375-7.5C199,281,198,279.875,196.875,278.812c-7.688-7.688-17.875-11.875-28.75-11.875
			s-21.063,4.25-28.75,11.875c-7.688,7.688-11.875,17.875-11.875,28.75s4.25,21.063,11.875,28.75
			c7.688,7.688,17.875,11.938,28.75,11.938s21.063-4.25,28.75-11.938c1.063-1.063,2.125-2.25,3.063-3.375l-9.375-7.5
			C185.25,332,177.188,336.25,168.125,336.25z"/>
		<path fill="#261F3B" d="M252.125,267.25c-10.875,0-21.063,4.25-28.75,11.875c-7.688,7.688-11.938,17.875-11.938,28.75
			s4.25,21.063,11.938,28.75s17.875,11.938,28.75,11.938s21.063-4.25,28.75-11.938s11.875-17.875,11.875-28.75
			s-4.25-21.063-11.875-28.75C273.188,271.5,262.938,267.25,252.125,267.25z M252.125,336.562
			c-15.813,0-28.688-12.813-28.688-28.688c0-15.813,12.813-28.688,28.688-28.688c15.813,0,28.688,12.813,28.688,28.688
			C280.75,323.75,267.938,336.562,252.125,336.562z"/>
		<path fill="#261F3B" d="M370.5,277.625c-3.063-3.063-6.563-5.563-10.375-7.438c-4.75-2.25-9.813-3.438-15.063-3.438
			s-10.313,1.125-15.063,3.438c-4.5,2.125-8.5,5.188-11.875,9c-6.75,7.625-10.5,17.625-10.5,28.25s3.688,20.625,10.5,28.25
			c3.438,3.813,7.438,6.875,11.875,9c4.75,2.25,9.813,3.438,15.063,3.438s10.313-1.125,15.063-3.438
			c3.813-1.813,7.313-4.313,10.375-7.375v9.813h12v-107.5h-12V277.625z M345.063,336.125c-14.063,0-25.5-12.813-25.5-28.688
			c0-15.813,11.438-28.688,25.5-28.688s25.438,12.813,25.438,28.688S359.125,336.125,345.063,336.125z"/>
		<g>
			<rect x="617.938" y="268.562" fill="#261F3B" width="12" height="78.563"/>
			<rect x="617.125" y="245.562" fill="#261F3B" width="13.625" height="12.625"/>
		</g>
		<path fill="#261F3B" d="M679.125,278.875c9.063,0,17.188,4.25,22.438,10.813l9.375-7.5C710,281,709,279.875,707.875,278.812
			c-7.688-7.688-17.875-11.875-28.75-11.875c-6.688,0-13.188,1.75-18.313,4.938c-6.687,4.25-10.5,10.625-10.5,17.625
			c0,15.625,14.938,20.25,27.375,22.938c13.376,2.875,20.438,4.563,21.063,11.75v0.313c0,6.563-6.875,11.688-15.313,11.688h-4.313
			c-9.063,0-17.188-4.188-22.438-10.813l-9.375,7.5c0.938,1.188,1.938,2.313,3.063,3.375c7.688,7.688,17.875,11.938,28.75,11.938
			h4.313c6.75,0,13.188-2.125,18.188-6.063c5.813-4.5,9.125-11.063,9.125-17.875c0-2.938-0.625-5.75-1.75-8.438
			c-0.125-0.375-1.375-3.313-3.938-5.875c-5.813-5.5-16.625-8.188-21.688-9.125c-3.688-0.688-8.25-1.688-11.375-2.375
			c-4.875-1.313-9.5-3.688-9.625-9.125C662.438,283.562,669.938,278.875,679.125,278.875z"/>
	</g>
	<g>
		<path fill="#DD788A" d="M19.813,307.187H0c0,5.563,0.875,11.125,2.625,16.438L21.5,317.5
			C20.375,314.25,19.813,310.75,19.813,307.187z"/>
		<path fill="#C27184" d="M21.438,317.5l-18.875,6.125c1.75,5.313,3.813,9.5,7,14.063l16.25-11.375
			C24,323.625,22.5,320.687,21.438,317.5z"/>
		<path fill="#A86F8D" d="M25.875,326.312l-16.25,11.375c3.188,4.563,6.438,7.938,10.813,11.375l12.188-15.625
			C30.063,331.375,27.75,329,25.875,326.312z"/>
		<path fill="#996D8E" d="M32.625,333.437l-12.188,15.625c4.375,3.438,8.438,5.75,13.688,7.75l7.125-18.5
			C38.125,337.062,35.188,335.437,32.625,333.437z"/>
		<path fill="#816C98" d="M41.188,338.312l-7.125,18.5c5.188,2,9.75,3,15.313,3.375l1.375-19.813
			C47.438,340.187,44.25,339.437,41.188,338.312z"/>
		<path fill="#686BA2" d="M50.813,340.437l-1.375,19.813c5.563,0.375,10.25,0,15.688-1.25l-4.5-19.313
			c-2.438,0.563-4.875,0.875-7.5,0.875C52.375,340.562,51.625,340.5,50.813,340.437z"/>
		<path fill="#5C73AB" d="M60.625,339.687l3.75,16.25c5.125-1.188,9.188-2.813,13.75-5.438l-8.313-14.438
			C67,337.687,63.938,338.937,60.625,339.687z"/>
		<path fill="#5788BB" d="M69.813,336.062l8.313,14.438c4.563-2.624,8.625-5.938,12.188-9.875l-12.375-11.188
			C75.563,332.062,72.875,334.312,69.813,336.062z"/>
		<path fill="#559FCE" d="M77.938,329.5l12.375,11.188c3.5-3.875,5.938-7.563,8.188-12.313l-15.125-7.063
			C81.938,324.312,80.125,327.062,77.938,329.5z"/>
		<path fill="#4FB6DF" d="M83.375,321.25l15.125,7.063c2.188-4.75,3.438-9,4.188-14.188l-16.5-2.313
			C85.688,315.187,84.75,318.312,83.375,321.25z"/>
		<path fill="#5ECBEE" d="M102.563,299.375l-3.313,0.5l0,0l-13.188,2.063c0.25,1.688,0.438,3.438,0.438,5.188
			c0,1.563-0.125,3.125-0.375,4.625l16.5,2.313C103.375,308.937,103.375,304.562,102.563,299.375z"/>
		<path fill="#72A964" d="M53.188,273.812c2.375,0,4.688,0.25,6.938,0.75l2.063-9.75c-4.5-1-8.313-1.188-12.813-0.813l0.875,10
			C51.188,273.875,52.188,273.812,53.188,273.812z"/>
		<path fill="#A3B061" d="M50.25,274l-0.875-10c-4.5,0.375-8.25,1.313-12.438,3l3.75,9.25C43.688,275.062,46.875,274.25,50.25,274z"
			/>
		<path fill="#EBB159" d="M32.188,281.25c2.563-2.063,5.375-3.75,8.5-5l-3.75-9.25c-4.188,1.688-7.5,3.625-11.063,6.5L28,276.062
			l0,0L32.188,281.25z"/>
		<path fill="#EB9641" d="M32.188,281.25L28,276.062c-3.25,2.625-5.625,5.25-8,8.75l5.5,3.75
			C27.375,285.812,29.625,283.375,32.188,281.25z"/>
		<path fill="#F58357" d="M21.25,297.437c1-3.188,2.438-6.188,4.25-8.875l-5.5-3.75c-2.375,3.5-3.875,6.688-5.063,10.688l3.188,1
			l0,0L21.25,297.437z"/>
		<path fill="#F37B7D" d="M21.25,297.437l-3.188-1c-1.125,3.688-1.625,6.875-1.625,10.75h3.313l0,0
			C19.813,303.812,20.313,300.5,21.25,297.437z"/>
		<path fill="#58C3BD" d="M86.063,302l13.188-2.063c-0.75-4.813-2-8.75-4.125-13.188l-12,5.813
			C84.563,295.5,85.563,298.625,86.063,302z"/>
		<path fill="#52B79D" d="M83.125,292.562l12-5.875c-2.125-4.375-4.5-7.813-7.813-11.375l-9.813,9.125
			C79.75,286.875,81.625,289.562,83.125,292.562z"/>
		<path fill="#4CB289" d="M77.5,284.437l9.75-9.125c-3.313-3.563-6.563-6.125-10.813-8.563l-6.688,11.563
			C72.688,280,75.25,282.062,77.5,284.437z"/>
		<path fill="#57AD78" d="M60.063,274.562c3.5,0.75,6.75,2,9.75,3.75L76.5,266.75c-4.25-2.438-8.813-4.188-13.625-5.25l-0.688,3.25
			l0,0L60.063,274.562z"/>
	</g>
</g>
</svg>
