<svg width="702" height="138" viewBox="0 0 702 138" fill="none" xmlns="http://www.w3.org/2000/svg">
<path fill-rule="evenodd" clip-rule="evenodd" d="M415.681 10.2793C420.78 8.56488 423.046 9.70588 423.046 14.0819V117.84C423.046 125.827 430.598 127.729 430.598 132.293V132.865C430.598 134.957 429.087 136.098 426.82 136.098H403.408C400.765 136.098 399.066 134.387 399.066 131.913L398.688 127.729C393.024 134.387 383.774 138 374.144 138C351.109 138 329.774 120.881 329.774 90.2603C329.774 62.1112 350.165 42.9022 374.332 42.9022C383.585 42.9022 390.759 45.5639 396.423 50.3196V36.9057C396.423 28.1555 386.981 27.5841 386.981 22.8321V22.2607C386.981 20.3584 388.494 18.6459 390.948 17.8865L415.681 10.2793ZM564.149 42.8577C588.591 42.8577 605.132 57.7616 607.767 81.5345L611.904 116.435C613.407 129.453 621.677 125.866 621.677 130.963C621.677 135.301 612.655 136.432 603.63 136.432C592.912 136.432 588.026 134.357 586.898 126.246C582.761 132.47 574.865 137.187 561.891 137.187C541.588 137.187 526.546 127.565 526.546 108.699C526.359 89.834 542.15 80.0229 560.576 80.0229C569.225 80.0229 576.18 82.2875 581.067 85.6833L580.879 83.4207C578.627 61.3467 575.618 50.7807 564.149 50.7807C549.105 50.7807 553.43 74.9301 539.332 74.9301C532.56 74.9301 528.052 70.7775 528.052 64.3642C528.052 50.7807 544.593 42.8577 564.149 42.8577ZM478.134 42.0445C494.49 42.0445 508.661 52.2422 515.808 67.1888C517.211 70.1182 518.02 77.2415 511.617 77.2415H466.797C465.509 77.2415 464.439 78.3019 464.485 79.5683C465.345 103.292 475.523 117.605 490.981 117.605C504.504 117.605 507.4 110.819 511.266 108.88C513.997 107.508 516.096 109.849 515.497 111.891C512.351 122.632 499.673 136.374 478.134 136.374C454.574 136.374 435.477 115.257 435.477 89.2091C435.477 63.1608 454.574 42.0445 478.134 42.0445ZM169.968 42.0445C186.326 42.0445 200.496 52.2422 207.643 67.1888C209.045 70.1182 209.856 77.2415 203.453 77.2415H158.632C157.344 77.2415 156.274 78.3019 156.32 79.5683C157.18 103.292 167.358 117.605 182.816 117.605C196.34 117.605 199.235 110.819 203.102 108.88C205.831 107.508 207.931 109.849 207.332 111.891C204.187 122.632 191.508 136.374 169.968 136.374C146.409 136.374 127.312 115.257 127.312 89.2091C127.312 63.1608 146.409 42.0445 169.968 42.0445ZM652.329 43.6513C656.668 41.571 658.363 43.8419 658.363 47.4323V61.6182C662.514 49.5144 671.377 42.8962 684.011 42.8962C695.137 42.8962 701.361 50.4601 701.361 60.1062C701.361 68.0476 698.345 75.0453 689.292 75.0453C674.583 75.0453 681.184 58.781 671.001 58.781C663.644 58.781 661.005 69.1821 661.005 79.5832V117.407C661.005 125.348 670.434 126.862 670.434 131.589V132.346C670.434 134.426 668.737 135.56 666.286 135.56H631.4C628.758 135.56 627.062 134.426 627.062 132.346V131.589C627.062 126.862 634.416 125.348 634.416 117.407V73.1538C634.416 64.831 625.743 64.2647 625.743 59.5361V58.781C625.743 56.8896 627.25 55.3775 629.703 54.243L652.329 43.6513ZM243.801 42.8922C248.146 40.6092 250.221 43.274 250.221 46.8885V57.5439C255.318 47.842 265.321 42.1325 278.158 42.1325C295.334 42.1325 311.942 52.4061 314.209 82.6612L316.475 116.914C317.039 125.285 323.269 126.808 323.269 131.564V132.326C323.269 134.229 321.571 135.56 318.928 135.56H286.272C283.632 135.56 281.929 134.229 281.929 132.326V131.564C281.929 126.808 289.105 125.285 288.727 116.914L286.839 81.7096C285.896 61.3503 280.42 52.9759 270.419 52.9759C260.224 52.9759 254.374 61.5402 254.374 73.9089V117.104C254.374 125.285 262.49 126.808 262.49 131.564V132.326C262.49 134.229 260.791 135.56 258.149 135.56H223.04C220.396 135.56 218.699 134.229 218.699 132.326V131.564C218.699 126.808 226.815 125.285 226.815 117.104V72.7674C226.815 64.2031 217.566 63.4434 217.566 58.6854V57.9238C217.566 56.0225 219.075 55.071 221.341 53.9294L243.801 42.8922ZM568.097 88.5135C560.201 88.5135 554.37 94.7396 554.37 104.361C554.37 117.381 560.576 128.887 570.166 128.887C578.811 128.887 584.076 120.397 583.512 111.906L582.95 105.306C581.822 94.172 575.805 88.5135 568.097 88.5135ZM400.194 78.0372C391.955 59.6279 376.055 49.194 364.679 54.7321C353.301 60.2722 350.753 79.6864 358.994 98.0939C367.23 116.503 383.132 126.937 394.507 121.399C405.885 115.861 408.43 96.4466 400.194 78.0372ZM478.615 49.9364C471.394 49.8468 464.704 55.534 464.346 68.0394C464.313 69.1455 465.259 70.061 466.427 70.061H479.71C484.77 70.061 486.718 67.9192 486.718 58.8792C486.718 53.9167 483.836 50.0013 478.615 49.9364ZM170.45 49.9364C163.229 49.8468 156.539 55.534 156.181 68.0394C156.148 69.1455 157.094 70.061 158.262 70.061H171.545C176.606 70.061 178.553 67.9192 178.553 58.8792C178.553 53.9167 175.671 50.0013 170.45 49.9364Z" fill="black"/>
<path fill-rule="evenodd" clip-rule="evenodd" d="M58.3017 0.594833C26.1017 0.594833 0 26.397 0 58.2255C0 90.054 26.1017 115.856 58.3017 115.856C90.5008 115.856 116.603 90.054 116.603 58.2255C116.603 26.397 90.5008 0.594833 58.3017 0.594833Z" fill="#FF8955"/>
<path fill-rule="evenodd" clip-rule="evenodd" d="M90.3587 42.3342L58.8624 57.9011V73.468L90.3587 57.9011V73.468L58.8624 89.0349V73.468L27.3661 89.0349V73.468L58.8624 57.9011V42.3342L27.3661 57.9011V42.3342L58.8624 26.7672V42.3342L90.3587 26.7672V42.3342Z" fill="black"/>
</svg>
