<?xml version="1.0" encoding="utf-8"?>
<!DOCTYPE svg PUBLIC "-//W3C//DTD SVG 1.0//EN" "http://www.w3.org/TR/2001/REC-SVG-20010904/DTD/svg10.dtd">
<svg xmlns="http://www.w3.org/2000/svg" xmlns:sketch="http://www.bohemiancoding.com/sketch/ns" id="logo" x="0px" y="0px" width="441px" height="90px" viewBox="-29 206 441 90">
<g>
    <path id="path-1" fill="#FFFFFF" d="M2.9,213.2L2.9,213.2l-24.4,0v53.4l24.9,19.1L25,270.3v9.6L3.3,295.8L-29,271.9V206H2.9V213.2
        l9.8-7.2h19.7v58.7l-7.5,5.4v-56.8L2.9,213.2L2.9,213.2z"/>
</g>
<title>logo-group</title>
<desc>Created with Sketch.</desc>
<path id="path-1_1_" d="M2.9,213.2L2.9,213.2l-24.4,0v53.4l24.9,19.1L25,270.3v9.6L3.3,295.8L-29,271.9V206H2.9V213.2l9.8-7.2h19.7
    v58.7l-7.5,5.4v-56.8L2.9,213.2L2.9,213.2z"/>
<path id="LEGAL-ONE" sketch:type="MSShapeGroup" d="M83.3,252.2v-17.4H79v21.4h14.9v-4H83.3z M103.8,252.2V247h8.6v-3.7h-8.6v-4.6
    h10.9v-4H99.5v21.4h15.4v-4H103.8z M140,251.9c0.6-0.8,0.9-1.2,1.2-2.4c0.6-2.4,0.6-5.5,0.6-5.5h-10.4v3.7h6.1l-0.3,1.2
    c-0.7,1.7-2.6,3.7-6.3,3.7c-4,0-6.9-2.7-6.9-7c0-4.1,2.7-6.9,6.7-6.9c2.1,0,4.2,1,5.4,2.6l4.4-1.1c-1.9-3.4-5.5-5.6-9.8-5.7
    c-6.2,0-11.1,4.7-11.1,11.1s5,11.1,11.1,11.1c2.8,0,5.6-1,7.1-2.7C137.8,253.9,139.4,252.7,140,251.9z M162.5,256.2h4.6l-8.8-21.4
    h-4l-8.8,21.4h4.6l1.6-4.1h9.3L162.5,256.2z M153.1,248.3l2.1-5.4c0.5-1.2,1-3,1-3h0c0,0,0.6,1.8,1,3l2.1,5.4H153.1z M176,252.2
    v-17.4h-4.3v21.4h14.9v-4H176z M201,245.5c0,6.5,5,11.1,11.1,11.1c6.2,0,11.2-4.7,11.2-11.1s-5-11.1-11.2-11.1
    C206,234.3,201,239,201,245.5L201,245.5z M205.4,245.5c0-4.1,2.8-6.9,6.7-6.9c4,0,6.7,2.8,6.7,6.9c0,4.1-2.8,6.9-6.7,6.9
    C208.2,252.4,205.4,249.6,205.4,245.5L205.4,245.5z M243.7,234.8v7c0,3.6,0.1,7.1,0,7.1h0c0,0-2.7-3.8-4.2-5.8l-6.2-8.4h-4v21.4h4.3
    v-6.9c0-4.3-0.1-7.3,0-7.3h0c0,0,2.4,3.4,4.3,6l6.1,8.3h4v-21.4H243.7z M259.7,252.2V247h8.6v-3.7h-8.6v-4.6h10.9v-4h-15.2v21.4
    h15.4v-4H259.7z"/>
<g enable-background="new    ">
    <path d="M309.7,245.3v8c-2.2,1.7-5.5,2.8-8.4,2.8c-6.4,0-11.4-4.8-11.4-11s5.1-10.9,11.6-10.9c3.1,0,6.2,1.2,8.3,3l-2.1,2.7
        c-1.7-1.6-4-2.5-6.3-2.5c-4.4,0-7.9,3.4-7.9,7.7c0,4.3,3.5,7.7,7.9,7.7c1.6,0,3.4-0.6,5-1.5v-6H309.7z"/>
    <path d="M326.7,249.4c-0.3,0-0.7,0-1,0h-5.1v6.5h-3.7v-21.7h8.8c5.5,0,8.7,2.7,8.7,7.4c0,3.5-1.6,5.9-4.5,7l4.9,7.3h-4.2
        L326.7,249.4z M325.7,246.2c3.3,0,5.3-1.4,5.3-4.4c0-2.9-1.9-4.2-5.3-4.2h-5.1v8.6H325.7z"/>
    <path d="M362.6,245.1c0,6.2-5,11-11.5,11c-6.5,0-11.5-4.8-11.5-11c0-6.2,5-10.9,11.5-10.9C357.5,234.2,362.6,238.9,362.6,245.1z
         M343.3,245.1c0,4.3,3.6,7.7,7.8,7.7s7.7-3.4,7.7-7.7c0-4.3-3.5-7.7-7.7-7.7C346.8,237.5,343.3,240.8,343.3,245.1z"/>
    <path d="M386.9,247c0,5.7-3.6,9.1-9.4,9.1s-9.5-3.5-9.5-9.1v-12.7h3.7V247c0,3.7,2.3,5.9,5.8,5.9c3.5,0,5.7-2.2,5.7-5.9v-12.7h3.7
        V247z"/>
    <path d="M402.8,234.3c5.5,0,8.6,2.7,8.6,7.4c0,4.9-3.1,7.8-8.6,7.8h-5v6.5h-3.7v-21.7H402.8z M397.8,246.2h4.8
        c3.3,0,5.2-1.4,5.2-4.4c0-2.9-1.9-4.2-5.2-4.2h-4.8V246.2z"/>
</g>
</svg>
