<?xml version="1.0" encoding="utf-8"?>
<!-- Generator: Adobe Illustrator 15.0.0, SVG Export Plug-In . SVG Version: 6.00 Build 0)  -->
<!DOCTYPE svg PUBLIC "-//W3C//DTD SVG 1.1//EN" "http://www.w3.org/Graphics/SVG/1.1/DTD/svg11.dtd">
<svg version="1.1" id="Layer_1" xmlns="http://www.w3.org/2000/svg" xmlns:xlink="http://www.w3.org/1999/xlink" x="0px" y="0px"
	 width="651px" height="97px" viewBox="0 0 651 97" enable-background="new 0 0 651 97" xml:space="preserve">
<rect x="442.891" y="30.632" fill="#231F20" width="16.754" height="63.25"/>
<path fill="#231F20" d="M604.523,78.557c3.896,2.468,11.559,5.066,17.924,5.066c7.662,0,10.909-2.988,10.909-7.014
	c0-4.415-2.859-6.494-11.3-8.962c-13.377-3.768-19.092-10.649-19.092-18.572c0-11.171,9.741-20.001,25.586-20.001
	c7.663,0,14.414,1.818,18.313,4.025l-3.248,11.431c-2.727-1.429-8.57-3.897-14.933-3.897c-5.978,0-9.482,2.729-9.482,6.753
	c0,4.155,3.505,6.106,12.208,8.703c12.598,3.767,18.052,9.482,18.184,19.353c0,11.039-8.963,20.001-27.276,20.001
	c-8.57,0-15.975-1.948-21.171-4.677L604.523,78.557z"/>
<path fill="#231F20" d="M1.111,49.724c0-7.272-0.13-13.638-0.519-19.092h14.676l0.779,10.13h0.39
	c2.728-4.803,10.13-11.688,21.95-11.688c11.168,0,24.546,6.754,24.546,28.443v36.365H46.179V59.596c0-10-4.027-17.144-13.638-17.144
	c-7.273,0-12.079,5.064-13.898,9.87c-0.519,1.302-0.779,3.247-0.779,4.936v36.625H1.111V49.724z"/>
<path fill="#231F20" d="M83.229,66.868c0.52,10.648,10.13,16.104,21.3,16.104c8.313,0,14.028-1.17,19.482-3.117l2.597,11.3
	c-5.974,2.338-13.896,4.286-24.286,4.286c-21.819,0-34.938-12.858-34.938-32.34c0-16.234,10.78-34.028,33.378-34.028
	c22.859,0,29.613,18.572,29.613,31.299c0,2.729-0.261,5.197-0.648,6.495H83.229z M114.529,55.31
	c0.13-4.418-2.207-15.066-14.806-15.066c-11.039,0-15.584,8.962-16.494,15.066H114.529z"/>
<path fill="#231F20" d="M150.888,14.268v16.364h16.234v12.469h-16.234v26.364c0,7.795,1.688,12.338,8.701,12.338
	c3.377,0,4.937-0.259,6.885-0.778l0.388,12.596c-2.596,0.913-7.143,1.821-12.598,1.821c-6.234,0-11.429-2.338-14.546-5.586
	c-3.506-3.896-5.065-10-5.065-18.053V43.101V30.632V18.553L150.888,14.268z"/>
<path fill="#231F20" d="M198.476,78.557c3.896,2.468,11.558,5.066,17.923,5.066c7.662,0,10.91-2.988,10.91-7.014
	c0-4.415-2.857-6.494-11.299-8.962c-13.377-3.768-19.092-10.649-19.092-18.572c0-11.171,9.742-20.001,25.586-20.001
	c7.663,0,14.416,1.818,18.313,4.025l-3.247,11.431c-2.728-1.429-8.573-3.897-14.936-3.897c-5.975,0-9.481,2.729-9.481,6.753
	c0,4.155,3.506,6.106,12.208,8.703c12.599,3.767,18.053,9.482,18.183,19.353c0,11.039-8.961,20.001-27.275,20.001
	c-8.571,0-15.975-1.948-21.17-4.677L198.476,78.557z"/>
<path fill="#231F20" d="M318.792,0.89h16.755v92.992h-16.755V0.89z"/>
<path fill="#231F20" d="M401.26,74.79c0,7.664,0.128,14.028,0.52,19.092h-14.677l-0.779-10.52h-0.39
	c-2.728,4.679-9.351,12.079-22.21,12.079c-11.559,0-24.025-6.362-24.025-28.442V30.632h16.753V64.01
	c0,11.041,3.896,17.925,13.248,17.925c7.145,0,11.948-4.675,13.896-9.354c0.649-1.296,0.911-2.985,0.911-4.673V30.632h16.753V74.79z
	"/>
<path fill="#231F20" d="M422.335,14.268v16.364h16.234v12.469h-16.234v26.364c0,7.795,1.688,12.338,8.7,12.338
	c3.379,0,4.936-0.259,6.884-0.778l0.391,12.596c-2.599,0.913-7.144,1.821-12.599,1.821c-6.234,0-11.43-2.338-14.545-5.586
	c-3.506-3.896-5.067-10-5.067-18.053V43.101V30.632V18.553L422.335,14.268z"/>
<path fill="#231F20" d="M536.144,49.724c0-7.272-0.131-13.638-0.519-19.092H550.3l0.779,10.13h0.39
	c2.729-4.803,10.13-11.688,21.95-11.688c11.17,0,24.546,6.754,24.546,28.443v36.365h-16.754V59.596c0-10-4.025-17.144-13.638-17.144
	c-7.272,0-12.079,5.064-13.897,9.87c-0.52,1.302-0.778,3.247-0.778,4.936v36.625h-16.754V49.724z"/>
<path fill="#231F20" d="M497.824,26.523c-18.904,0-34.23,15.326-34.23,34.232c0,18.904,15.326,34.23,34.23,34.23
	s34.23-15.326,34.23-34.23C532.055,41.849,516.729,26.523,497.824,26.523z M497.824,81.213c-11.3,0-20.46-9.159-20.46-20.458
	s9.16-20.459,20.46-20.459c11.299,0,20.458,9.16,20.458,20.459S509.123,81.213,497.824,81.213z"/>
<g>
	<linearGradient id="SVGID_1_" gradientUnits="userSpaceOnUse" x1="255.5396" y1="41.0308" x2="282.3265" y2="84.9315">
		<stop  offset="0" style="stop-color:#DEB772"/>
		<stop  offset="0.3152" style="stop-color:#E9242C"/>
		<stop  offset="1" style="stop-color:#9F3988"/>
	</linearGradient>
	<path fill="url(#SVGID_1_)" d="M274.519,89.351c12.54-0.742,22.604-9.707,25.147-21.261c-2.671,8.19-10.361,14.115-19.443,14.115
		c-1.772,0-3.481-0.249-5.121-0.673c-11.914-1.886-21.54-11.736-22.767-24.449c-1.068-11.083,4.55-21.245,13.518-26.405
		c-11.724,5.432-19.861,17.297-19.861,31.069c0,4.561,0.899,8.91,2.519,12.89C253.291,83.919,263.312,90.014,274.519,89.351z"/>
	<linearGradient id="SVGID_2_" gradientUnits="userSpaceOnUse" x1="301.3774" y1="34.7104" x2="256.4849" y2="65.7136">
		<stop  offset="0" style="stop-color:#82D1E0"/>
		<stop  offset="0.3152" style="stop-color:#3D9FC7"/>
		<stop  offset="1" style="stop-color:#691D59"/>
	</linearGradient>
	<path fill="url(#SVGID_2_)" d="M280.223,27.515c-5.133,0-9.999,1.137-14.37,3.163c-8.968,5.16-14.586,15.321-13.518,26.405
		c1.228,12.713,10.853,22.563,22.767,24.449c-8.817-2.275-15.34-10.258-15.34-19.785c0-1.214,0.126-2.396,0.328-3.553
		c1.102-12.336,10.723-22.738,23.669-24.475c11.412-1.528,22.105,4.125,27.432,13.441C305.715,35.552,293.909,27.515,280.223,27.515
		z"/>
	<linearGradient id="SVGID_3_" gradientUnits="userSpaceOnUse" x1="248.5107" y1="69.1172" x2="307.5928" y2="69.1172">
		<stop  offset="0" style="stop-color:#82D1E0"/>
		<stop  offset="0.3152" style="stop-color:#3D9FC7"/>
		<stop  offset="1" style="stop-color:#691D59"/>
	</linearGradient>
	<path fill="url(#SVGID_3_)" d="M307.586,68.379c-0.285-12.862-9.281-23.451-21.147-26.122c8.258,2.632,14.242,10.359,14.242,19.49
		c0,2.216-0.363,4.344-1.015,6.343c-2.543,11.554-12.608,20.519-25.147,21.261c-11.207,0.663-21.228-5.432-26.008-14.714
		c5.094,12.515,17.369,21.341,31.712,21.341c3.743,0,7.343-0.609,10.715-1.722C300.92,90.058,307.842,79.986,307.586,68.379z"/>
	<linearGradient id="SVGID_4_" gradientUnits="userSpaceOnUse" x1="309.1143" y1="79.5801" x2="272.9021" y2="37.9113">
		<stop  offset="0" style="stop-color:#BFC231"/>
		<stop  offset="0.3152" style="stop-color:#9CBA3D"/>
		<stop  offset="1" style="stop-color:#2A6875"/>
	</linearGradient>
	<path fill="url(#SVGID_4_)" d="M283.76,33.72c-12.947,1.736-22.568,12.139-23.669,24.475c1.685-9.602,10.046-16.905,20.132-16.905
		c2.168,0,4.255,0.343,6.216,0.968c11.867,2.671,20.863,13.26,21.147,26.122c0.256,11.607-6.666,21.679-16.648,25.877
		c13.654-4.498,23.515-17.349,23.515-32.509c0-5.219-1.172-10.161-3.261-14.586C305.865,37.845,295.172,32.191,283.76,33.72z"/>
</g>
</svg>
