<?xml version="1.0" encoding="UTF-8"?>
<svg xmlns="http://www.w3.org/2000/svg" xmlns:xlink="http://www.w3.org/1999/xlink" width="2884.58pt" height="637.37pt" viewBox="0 0 2884.58 637.37" version="1.1">
<defs>
<clipPath id="clip1">
  <path d="M 0 0 L 2884.578125 0 L 2884.578125 637.371094 L 0 637.371094 Z M 0 0 "/>
</clipPath>
</defs>
<g id="surface1">
<g clip-path="url(#clip1)" clip-rule="nonzero">
<path style=" stroke:none;fill-rule:nonzero;fill:rgb(19.599915%,20.799255%,21.598816%);fill-opacity:1;" d="M 415.007813 33.042969 C 396.738281 1.433594 356.304688 -9.382813 324.695313 8.882813 C 314.664063 14.679688 306.332031 23.011719 300.535156 33.042969 L 206.304688 196.265625 L 230.34375 210.0625 C 364.554688 287.683594 450.90625 427.421875 460.296875 582.179688 L 394.140625 582.179688 C 384.84375 450.929688 310.980469 332.859375 197.027344 267.082031 L 172.988281 253.332031 L 85.199219 405.976563 L 109.238281 419.773438 C 168.269531 454.445313 208.082031 514.328125 217.21875 582.179688 L 66.113281 582.179688 C 60.085938 582.277344 55.121094 577.472656 55.023438 571.445313 C 54.988281 569.457031 55.5 567.5 56.496094 565.78125 L 98.613281 492.851563 C 84.386719 480.855469 68.09375 471.554688 50.535156 465.398438 L 8.855469 538.1875 C -9.386719 569.8125 1.460938 610.238281 33.089844 628.480469 C 43.128906 634.273438 54.519531 637.320313 66.113281 637.320313 L 274.046875 637.320313 L 274.046875 609.773438 C 274.074219 521.402344 231.601563 438.414063 159.910156 386.746094 L 192.988281 329.4375 C 284.917969 393.070313 339.816406 497.726563 339.910156 609.53125 L 339.910156 637.128906 L 516.113281 637.128906 L 516.113281 609.582031 C 515.949219 434.886719 427.644531 272.066406 281.304688 176.648438 L 348.179688 60.640625 C 351.199219 55.421875 357.875 53.640625 363.09375 56.65625 C 364.746094 57.613281 366.117188 58.984375 367.074219 60.640625 L 658.710938 565.78125 C 661.738281 570.996094 659.96875 577.675781 654.753906 580.703125 C 653.035156 581.699219 651.078125 582.210938 649.09375 582.179688 L 580.871094 582.179688 C 581.738281 600.589844 581.835938 619.003906 580.871094 637.371094 L 649.335938 637.371094 C 685.84375 637.367188 715.4375 607.769531 715.4375 571.261719 C 715.4375 559.667969 712.386719 548.277344 706.59375 538.234375 Z M 2282.800781 323.089844 L 2282.800781 182.5625 L 2386.640625 182.5625 C 2440.828125 182.5625 2471.929688 208.089844 2471.929688 252.5625 C 2471.929688 295.398438 2438.660156 323.089844 2387.21875 323.089844 Z M 2441.449219 359.246094 C 2497.410156 343.8125 2527.988281 304.582031 2527.988281 248.667969 C 2527.988281 177.609375 2475.871094 133.28125 2392.03125 133.28125 L 2227.988281 133.28125 L 2227.988281 503.476563 L 2283.039063 503.476563 L 2283.039063 370.496094 L 2376.398438 370.496094 L 2470.339844 503.765625 L 2534.621094 503.765625 L 2433.179688 361.554688 Z M 1886.019531 183.667969 L 2007.320313 183.667969 L 2007.320313 503.765625 L 2062.941406 503.765625 L 2062.941406 183.667969 L 2184.238281 183.667969 L 2184.238281 133.523438 L 1886.160156 133.523438 Z M 2822.320313 133.570313 L 2710.828125 308.140625 L 2600.25 133.570313 L 2535.679688 133.570313 L 2682.359375 357.320313 L 2682.359375 503.8125 L 2737.941406 503.8125 L 2737.941406 355.640625 L 2884.578125 133.570313 Z M 1024.71875 294.003906 C 949.863281 276.121094 929.382813 261.839844 929.382813 227.464844 C 929.382813 196.40625 956.835938 175.496094 997.746094 175.496094 C 1031.828125 175.496094 1065.390625 187.5625 1100.148438 212.371094 L 1129.289063 171.3125 C 1090.828125 141.839844 1049.238281 128.042969 998.855469 128.042969 C 925.535156 128.042969 874.382813 171.3125 874.382813 233.429688 C 874.382813 299.964844 917.652344 322.996094 996.980469 342.226563 C 1066.738281 358.332031 1087.988281 373.476563 1087.988281 407.128906 C 1087.988281 440.78125 1059.140625 461.839844 1014.191406 461.839844 C 970.585938 461.839844 933.371094 447.417969 893.996094 414.628906 L 861.355469 453.476563 C 903.324219 489.65625 956.949219 509.460938 1012.359375 509.246094 C 1091.640625 509.246094 1142.839844 466.601563 1142.839844 400.589844 C 1142.75 344.582031 1109.621094 314.628906 1024.53125 294.003906 Z M 1249.910156 341.023438 L 1441.449219 341.023438 L 1441.449219 292.945313 L 1249.71875 292.945313 L 1249.71875 181.503906 L 1466.070313 181.503906 L 1466.070313 133.429688 L 1194.671875 133.429688 L 1194.671875 503.621094 L 1468.710938 503.621094 L 1468.710938 455.542969 L 1249.71875 455.542969 Z M 1788.371094 409.628906 L 1574.480469 133.523438 L 1521.261719 133.523438 L 1521.261719 503.714844 L 1575.199219 503.714844 L 1575.199219 220.0625 L 1795.101563 503.714844 L 1842.320313 503.714844 L 1842.320313 133.523438 L 1788.371094 133.523438 L 1788.371094 409.628906 "/>
</g>
</g>
</svg>
