<svg xmlns="http://www.w3.org/2000/svg" width="2500" height="674" viewBox="7 0.1 370 99.7"><path fill="#231F20" d="M127.7 22c-3.9-1.6-8-2.7-11.7-2.7-5.4 0-8.101 1.2-8.101 3.2 0 6 24.101 1.2 24.101 13.9 0 5.3-4.9 9.3-14.9 9.3-5.899 0-10.5-1.2-15.8-4.1l2.2-4.7c4.6 2.6 8.899 3.7 13.6 3.7 5.9 0 9-1.7 9-4.2 0-6.5-24.1-1.7-24.1-13.6 0-5.1 4.899-8.7 13.8-8.7 5.3 0 9.8 1.2 14 3.3l-2.1 4.6zM154.5 45.9c-9.601 0-17.601-6.4-17.601-16 0-9.5 8-16 17.601-16 9.7 0 17.5 6.5 17.5 16 .1 9.6-7.8 16-17.5 16m0-26.8c-7 0-11.8 4.7-11.8 10.8 0 6.2 4.6 10.9 11.8 10.9s11.7-4.7 11.7-10.9c.1-6.1-4.5-10.8-11.7-10.8M195 45.9c-10.101 0-17.7-6.4-17.7-16 0-9.4 7.7-16 17.7-16 6 0 10.2 1.7 14.1 4.5l-3 4.4c-2.8-2.1-6.3-3.7-10.899-3.7-7.4 0-12 4.7-12 10.7 0 6.2 4.6 10.8 12 10.8 4.6 0 8.3-1.5 11.1-3.6l3 4.4C205.5 44.3 201 45.9 195 45.9M215 15h6v30h-6zM229 45V15h28v5h-22v7h17v5h-17v8h23v5zM279 20v25h-6V20h-12v-5h30v5zM296 45V15h27v5h-22v7h17v5h-17v8h23v5zM118.5 80.8c3.1 0 6.5-.7 8.5-1.8v-9h6v11.9c-4 2.6-9.3 4.1-14.5 4.1-10.101 0-17.8-6.4-17.8-16 0-9.4 7.699-15.9 17.699-15.9 5.801 0 10.2 1.601 14 4.5l-3 4.4c-2.8-2.1-6.3-3.6-10.899-3.6-7.4-.2-12 4.6-12 10.6 0 6.4 4.6 10.8 12 10.8M140 85V55h28v5h-22v7h17v5h-17v8h23v5zM179 85h-5V55h5.7l19.7 22.8c-.3-5.7-.5-10.3-.5-14.8v-8h6v30h-6l-19.6-22.6-.3.1c.2 4.5 0 12.4 0 14.9V85zM213 85V55h27v5h-22v7h17v5h-17v8h23v5zM261.6 74H253v11h-6V55h19.4c6.4 0 10.4 4 10.4 9.7 0 5.399-3.9 8.5-8.7 9.2l9 11.199h-7L261.6 74zm4.2-5c3.5 0 5.5-1.8 5.5-4.4 0-2.899-1.7-4.6-4.9-4.6H253v9h12.8zM288.6 78l-3.5 7H279l14.7-30h5.899l14.7 30h-6l-3.5-7H288.6zm2.3-5h11.6l-5.8-12.2-5.8 12.2zM319 85V55h5v25h20v5zM348 85V55h28v5h-22v7h17v5h-17v8h23v5z"/><path fill="#E90031" d="M7 14h73v37H7z"/><path fill="#231F20" d="M7 50h73v36H7z"/><path fill="#FFF" d="M20 48h47v4H20z"/></svg>
