<?xml version="1.0" encoding="utf-8"?>
<!-- Generator: Adobe Illustrator 16.0.0, SVG Export Plug-In . SVG Version: 6.00 Build 0)  -->
<!DOCTYPE svg PUBLIC "-//W3C//DTD SVG 1.1//EN" "http://www.w3.org/Graphics/SVG/1.1/DTD/svg11.dtd">
<svg version="1.1" id="Layer_1" xmlns="http://www.w3.org/2000/svg" xmlns:xlink="http://www.w3.org/1999/xlink" x="0px" y="0px"
	 width="1494px" height="169px" viewBox="0 0 1494 169" enable-background="new 0 0 1494 169" xml:space="preserve">
<g>
	<defs>
		<rect id="SVGID_1_" x="-156" y="-486.545" width="1800" height="1079.545"/>
	</defs>
	<clipPath id="SVGID_2_">
		<use xlink:href="#SVGID_1_"  overflow="visible"/>
	</clipPath>
	<path clip-path="url(#SVGID_2_)" fill="#020203" d="M242.793,113.483h-36.52c0,0-2.851,0.768-1.334-3.992l19.021-58.197
		c0,0,1.334-4.19,2.663,0.381l17.687,58.004C244.311,109.679,245.833,113.483,242.793,113.483 M233.293,10.216L184.462,160.1
		h-14.263v3.626h34.146V160.1h-13.847c-1.532,0-0.7-3.805-0.7-3.805l11.342-35.922c0.832-3.491,3.069-3.249,3.069-3.249h39.441
		c4.327,0,3.769,2.65,3.769,2.65l10.636,33.594c2.511,7.39-0.406,6.731-0.406,6.731h-13.578v3.626h52.315V160.1h-14.263
		L233.293,10.216z"/>
	<path clip-path="url(#SVGID_2_)" fill="#020203" d="M400.823,156.488V21.326c0-3.943,2.536-3.903,2.536-3.903h13.65v-3.592h-52.493
		v3.592h12.913c3.166,0,3.693,3.368,3.693,3.368v135.593c0,3.904-2.845,3.716-2.845,3.716h-13.335v3.626h52.386V160.1H403.78
		C401.112,160.1,400.823,156.488,400.823,156.488"/>
	<path clip-path="url(#SVGID_2_)" fill="#020203" d="M92.369,17.423h14.105c0,0,1.542-0.639,0.619,3.343l-33.68,105.304
		c0,0-1.176,3.413-2.074,0.114L38.42,20.345c0,0-1.009-2.922,1.912-2.922h13.183v-3.586H0.911v3.586h13.7
		c0,0,1.086-0.837,2.617,3.913L63.249,165.33c0,0,0.862,1.714,1.466,0.724l47.633-148.631h14.375v-3.586H92.369V17.423z"/>
	<path clip-path="url(#SVGID_2_)" fill="#020203" d="M480.434,157.886l-58.432-83.197l47.633-57.261h13.543v-3.591h-34.192v3.591
		h13.122c1.902,0,0.741,1.357,0.741,1.357l-56.191,67.014l47.608,69.635c3.064,4.438,0.979,4.666,0.979,4.666h-14.841v3.621h54.526
		V160.1h-10.591C481.175,160.1,480.434,157.886,480.434,157.886"/>
	<path clip-path="url(#SVGID_2_)" fill="#020203" d="M812.672,160.214c-22.632,0-40.974-23.178-40.974-51.758V63.167
		c0-28.591,18.342-51.757,40.974-51.757c22.633,0,40.974,23.166,40.974,51.757v45.289
		C853.646,137.036,835.305,160.214,812.672,160.214 M812.672,9.25c-35.217,0-63.768,34.277-63.768,76.559
		c0,42.282,28.551,76.56,63.768,76.56s63.769-34.277,63.769-76.56C876.44,43.527,847.889,9.25,812.672,9.25"/>
	<path clip-path="url(#SVGID_2_)" fill="#020203" d="M598.248,156.488V21.326c0-3.943,2.536-3.903,2.536-3.903h13.65v-3.592H561.94
		v3.592h12.909c3.17,0,3.697,3.368,3.697,3.368v135.593c0,3.904-2.85,3.716-2.85,3.716h-13.33v3.626h52.386V160.1h-13.548
		C598.537,160.1,598.248,156.488,598.248,156.488"/>
	<path clip-path="url(#SVGID_2_)" fill="#020203" d="M677.859,157.886l-58.438-83.197l47.639-57.261h13.543v-3.591h-34.192v3.591
		h13.122c1.897,0,0.741,1.357,0.741,1.357l-56.191,67.014l47.608,69.635c3.064,4.438,0.974,4.666,0.974,4.666h-14.836v3.621h54.527
		V160.1h-10.592C678.601,160.1,677.859,157.886,677.859,157.886"/>
	<rect x="942.339" y="9.25" clip-path="url(#SVGID_2_)" fill="#020203" width="4.479" height="154.634"/>
	<path clip-path="url(#SVGID_2_)" fill="#020203" d="M1487.361,100.838h-32.609v62.877h32.609v-6.587h-25.519v-24.52h24.769v-6.588
		h-24.769v-18.675h25.519V100.838z M1437.74,106.004c-5.839-4.166-12.094-6.251-18.932-6.251c-17.513,0-32.526,14.761-32.526,32.36
		c0,18.679,15.014,32.691,32.526,32.691c6.672,0,13.007-2.007,18.932-6.087v-8.674c-5.839,5.503-12.18,8.258-18.932,8.258
		c-13.511,0-25.436-11.007-25.436-26.188c0-14.014,11.676-25.693,25.436-25.693c6.672,0,13.093,2.753,18.932,8.257V106.004z
		 M1321.895,163.715v-48.453l48.957,51.297v-65.721h-7.004v48.701l-49.039-51.376v65.552H1321.895z M1297.796,100.838h-32.614
		v62.877h32.614v-6.587h-25.524v-24.52h24.77v-6.588h-24.77v-18.675h25.524V100.838z M1209.221,107.346h6.09
		c8.42,0,15.015,2.412,19.682,7.247c4.585,4.671,6.924,10.596,6.924,17.688c0,7.083-2.339,12.929-7.005,17.595
		c-4.753,4.918-11.261,7.252-19.601,7.252h-6.09V107.346z M1202.134,163.715h12.761c5.752,0,10.506-0.663,14.346-2.08
		c3.916-1.416,7.507-3.839,10.84-7.088c5.924-5.925,8.921-13.345,8.921-22.266c0-8.931-2.916-16.351-8.754-22.275
		c-3.17-3.17-6.757-5.503-10.758-7.004c-4.003-1.412-8.843-2.164-14.431-2.164h-12.925V163.715z M1173.775,163.715h7.091v-62.878
		h-7.091V163.715z M1152.761,109.589c-3.754-6.587-9.176-9.836-16.181-9.836c-9.926,0-17.682,6.835-17.682,16.262
		c0,7.088,3.505,11.091,12.762,15.43l5.671,2.665c7.842,3.675,10.591,6.34,10.591,11.759c0,6.929-5.757,12.434-12.594,12.434
		c-6.838,0-11.094-3.924-12.844-11.591l-6.756,1.911c2.252,10.096,9.262,16.183,19.351,16.183c11.174,0,20.015-8.674,20.015-19.353
		c0-8.084-4.169-12.676-14.258-17.263l-5.924-2.664c-5.92-2.675-8.923-5.672-8.923-9.432c0-5.672,4.667-9.674,10.424-9.674
		c4.839,0,7.755,1.669,10.758,6.846L1152.761,109.589z M1102.135,100.838h-32.609v62.877h32.609v-6.587h-25.519v-24.52h24.769
		v-6.588h-24.769v-18.675h25.519V100.838z M1023.403,107.346h4.17c9.343,0,14.015,3.744,14.015,11.17s-4.84,11.428-13.848,11.428
		h-4.337V107.346z M1032.747,135.61c9.343-0.827,15.764-7.673,15.764-17.095c0-10.843-6.508-17.678-22.019-17.678h-10.175v62.877
		h7.086v-27.6h1.755l19.017,27.6h8.506L1032.747,135.61z"/>
	<path clip-path="url(#SVGID_2_)" fill="#020203" d="M1320.729,51.764c0-7.276,4.18-9.025,9.719-12.621
		c5.147,7.088,10.2,14.375,15.733,21.27c-3.2,4.374-5.727,7.97-11.554,7.97C1327.531,68.383,1320.729,58.185,1320.729,51.764
		 M1376.108,59.838c-0.872,2.031-3.886,7.376-7.675,7.376c-5.346,0-10.788-6.504-15.643-12.729c3.109-5.142,7.289-9.521,8.161-9.521
		c0.68,0,0.969,0.684,0.969,2.437c0,2.333,1.558,4.661,4.57,4.661c3.302,0,5.437-2.134,5.437-5.349c0-4.171-2.814-6.306-6.121-6.306
		c-6.021,0-10.586,8.545-13.888,12.726c-4.763-6.222-9.328-12.533-13.797-18.947c5.635-3.403,9.81-7.48,9.81-14.38
		c0-6.508-4.367-10.679-11.072-10.679c-7.674,0-13.989,6.018-13.989,13.795c0,5.052,4.18,10.977,6.797,15.152
		c-7.086,3.978-17.099,10.878-17.099,19.917c0,8.644,7.578,16.223,16.226,16.223c7.578,0,14.284-6.701,18.362-12.433
		c5.828,7.96,12.046,12.433,16.033,12.433c7.578,0,11.463-7.965,14.182-13.894L1376.108,59.838z M1346.38,19.904
		c0,5.736-4.083,10.685-9.135,13.013c-3.008-4.557-6.797-10.298-6.797-14.766c0-4.468,2.813-7.475,7.187-7.475
		C1342.591,10.676,1346.38,13.98,1346.38,19.904 M1262.596,10.156v62.888h24.353v-6.583h-17.261V10.156H1262.596z M1243.92,10.156
		h-32.613v62.888h32.613v-6.583h-25.523V41.937h24.769v-6.588h-24.769V16.665h25.523V10.156z M1196.044,16.665v-6.509h-37.53v6.509
		h15.263v56.379h7.005V16.665H1196.044z M1088.375,41.273c0-14.018,11.758-25.52,25.687-25.52c14.095,0,25.523,11.502,25.523,25.936
		c0,14.088-11.429,25.931-25.772,25.931C1100.385,67.62,1088.375,56.118,1088.375,41.273 M1081.284,41.273
		c0,18.758,15.511,32.851,32.442,32.851c17.849,0,32.949-14.593,32.949-32.435c0-17.762-15.014-32.618-32.614-32.618
		C1096.547,9.071,1081.284,23.758,1081.284,41.273 M1023.405,10.156h-7.091v62.888h7.091V42.269h32.106v30.775h7.011V10.156h-7.011
		v25.609h-32.106V10.156z"/>
</g>
</svg>
