<svg width="92" height="92" viewBox="0 0 92 92" fill="none" xmlns="http://www.w3.org/2000/svg">
<path fill-rule="evenodd" clip-rule="evenodd" d="M92 21.5625C92 20.0089 91.1645 18.5753 89.8121 17.8098C88.4603 17.0443 86.8008 17.0652 85.4686 17.8646L63.25 31.1958V27.3125C63.25 21.7551 58.7449 17.25 53.1875 17.25H10.0625C4.50514 17.25 0 21.7551 0 27.3125V64.6875C0 70.2449 4.50514 74.75 10.0625 74.75H53.1875C58.7449 74.75 63.25 70.2449 63.25 64.6875V60.804L85.4686 74.1353C86.8008 74.9346 88.4603 74.9559 89.8121 74.19C91.1645 73.4246 92 71.9912 92 70.4375V21.5625ZM63.25 50.7458L83.375 62.8211V29.1792L63.25 41.2542V50.7458ZM54.625 38.8125V27.3125C54.625 26.5186 53.9814 25.875 53.1875 25.875H10.0625C9.2686 25.875 8.625 26.5186 8.625 27.3125V64.6875C8.625 65.4816 9.2686 66.125 10.0625 66.125H53.1875C53.9814 66.125 54.625 65.4816 54.625 64.6875V53.1875V38.8125Z" fill="url(#paint0_linear)"/>
<defs>
<linearGradient id="paint0_linear" x1="0" y1="17.25" x2="92" y2="74.75" gradientUnits="userSpaceOnUse">
<stop stop-color="#FF619A"/>
<stop offset="1" stop-color="#FF101A"/>
</linearGradient>
</defs>
</svg>
