<svg height="469pt" viewBox="-64 0 469 469.33334" width="469pt" xmlns="http://www.w3.org/2000/svg"><path d="m277.5 64v-42.667969h-213.332031v42.667969c0 42.667969-64 42.667969-64 128v234.667969c0 23.5625 19.101562 42.664062 42.664062 42.664062h256c23.566407 0 42.667969-19.101562 42.667969-42.664062v-234.667969c0-85.332031-64-85.332031-64-128zm0 0" fill="#c5c0c0"/><path d="m298.832031 469.332031h-42.664062v-21.332031h42.664062c11.777344-.015625 21.320313-9.558594 21.335938-21.332031v-234.667969c0-40.792969-17.011719-56.824219-33.449219-72.324219-13.613281-12.820312-30.550781-28.78125-30.550781-55.675781h21.332031c0 17.675781 11.050781 28.09375 23.84375 40.15625 17.894531 16.863281 40.15625 37.84375 40.15625 87.84375v234.667969c-.023438 23.554687-19.113281 42.640625-42.667969 42.664062zm0 0" fill="#afa8a8"/><path d="m234.832031 426.667969v-234.667969c0-85.332031-64-85.332031-64-128v-42.667969h-106.664062v42.667969c0 42.667969-64 42.667969-64 128v234.667969c0 23.5625 19.101562 42.664062 42.664062 42.664062h149.335938c23.5625 0 42.664062-19.101562 42.664062-42.664062zm0 0" fill="#d5d1d1"/><path d="m21.5 192h21.332031v149.332031h-21.332031zm0 0" fill="#edebeb"/><path d="m298.832031 85.332031c0-21.332031-21.332031-21.332031-21.332031-21.332031v-21.332031c11.78125 0 21.332031-9.550781 21.332031-21.335938 0-11.78125-9.550781-21.332031-21.332031-21.332031h-213.332031c-11.777344.0078125-21.320313 9.558594-21.320313 21.332031 0 11.777344 9.542969 21.328125 21.320313 21.335938v21.332031s-21.335938 0-21.335938 21.332031c0 42.667969-42.664062 42.667969-42.664062 42.667969s0 21.332031 42.664062 21.332031c42.667969 0 42.667969-21.332031 64-21.332031 21.335938 0 42.667969 21.332031 64 21.332031 21.335938 0 42.667969-21.332031 64-21.332031 21.335938 0 21.335938 21.332031 64 21.332031 42.667969 0 42.667969-21.332031 42.667969-21.332031s-42.667969 0-42.667969-42.667969zm0 0" fill="#c11107"/><path d="m298.832031 149.332031c-25 0-35.488281-7.414062-43.914062-13.382812-6.042969-4.273438-11.25-7.949219-20.085938-7.949219v-21.332031c15.617188 0 25.3125 6.851562 32.386719 11.851562 7.199219 5.09375 13.394531 9.480469 31.613281 9.480469 10.324219 0 16.273438-1.46875 19.4375-2.707031l7.75 19.875c-7.09375 2.757812-16.238281 4.164062-27.1875 4.164062zm0 0" fill="#af0a00"/><path d="m64.167969 42.667969h213.332031v21.332031h-213.332031zm0 0" fill="#ef7f00"/><path d="m42.832031 149.332031c42.667969 0 42.667969-21.332031 64-21.332031 21.335938 0 42.667969 21.332031 64 21.332031 21.335938 0 42.667969-21.332031 64-21.332031 0 0-42.664062 0-42.664062-42.667969 0-21.332031-21.335938-21.332031-21.335938-21.332031v-21.332031c11.785157 0 21.335938-9.550781 21.335938-21.335938 0-11.78125-9.550781-21.332031-21.335938-21.332031h-106.664062c-11.777344.0078125-21.320313 9.558594-21.320313 21.332031 0 11.777344 9.542969 21.328125 21.320313 21.335938v21.332031s-21.335938 0-21.335938 21.332031c0 42.667969-42.664062 42.667969-42.664062 42.667969s0 21.332031 42.664062 21.332031zm0 0" fill="#cd3e36"/><path d="m170.832031 149.332031c-10.664062 0-21.03125-5.175781-32-10.664062-11-5.5-21.351562-10.667969-32-10.667969-8.832031 0-14.039062 3.675781-20.070312 7.949219-8.4375 5.96875-18.929688 13.382812-43.929688 13.382812v-21.332031c18.21875 0 24.417969-4.386719 31.605469-9.46875 7.082031-5.011719 16.78125-11.863281 32.394531-11.863281 15.6875 0 29.386719 6.84375 41.480469 12.882812 8.332031 4.167969 16.894531 8.449219 22.519531 8.449219s14.1875-4.28125 22.460938-8.417969l9.539062 19.085938c-10.96875 5.488281-21.332031 10.664062-32 10.664062zm0 0" fill="#c11107"/><path d="m64.167969 42.667969h106.664062v21.332031h-106.664062zm0 0" fill="#fdab00"/><path d="m256.167969 42.667969h-21.335938l21.335938 149.332031h21.332031zm0 0" fill="#fdbc34"/><path d="m256.167969 42.667969c0 11.78125-9.550781 21.332031-21.335938 21.332031-11.78125 0-21.332031-9.550781-21.332031-21.332031 0-11.785157 9.550781-21.335938 21.332031-21.335938 11.785157 0 21.335938 9.550781 21.335938 21.335938zm0 0" fill="#fdab00"/><path d="m234.832031 42.667969h-21.332031l-21.332031 149.332031h21.332031zm0 0" fill="#fdcf6d"/><path d="m320.167969 281.238281c0-20.414062-22.339844-32.140625-39.675781-21.359375-15.9375 9.910156-37.691407 17.453125-66.992188 17.453125-44.148438 0-71.164062-17.128906-98.777344-33.664062-41.042968-24.578125-93.222656 5.121093-93.222656 52.960937v77.925782c0 40.5625 32.882812 73.445312 73.445312 73.445312h151.773438c40.566406 0 73.449219-32.882812 73.449219-73.445312zm0 0" fill="#c11107"/><path d="m213.5 374.554688v-93.316407c-.078125-1.324219-.257812-2.636719-.539062-3.929687-43.816407-.148438-70.746094-17.175782-98.238282-33.640625-41.042968-24.578125-93.222656 5.121093-93.222656 52.960937v77.925782c0 40.5625 32.882812 73.445312 73.445312 73.445312h45.109376c40.5625 0 73.445312-32.882812 73.445312-73.445312zm0 0" fill="#cd3e36"/><path d="m94.949219 448c-40.546875-.046875-73.402344-32.902344-73.449219-73.449219v-77.925781c0-38.15625 32.0625-61.78125 61.761719-61.78125v21.332031c-19.4375 0-40.429688 15.46875-40.429688 40.449219v77.925781c.03125 28.769531 23.347657 52.085938 52.117188 52.117188zm0 0" fill="#de807a"/><path d="m64.167969 0h106.664062v21.332031h-106.664062zm0 0" fill="#d2514a"/><path d="m298.832031 21.332031h-85.332031v-21.332031h64c21.332031 0 21.332031 21.332031 21.332031 21.332031zm0 0" fill="#cd3e36"/><path d="m21.5 298.667969h21.332031v85.332031h-21.332031zm0 0" fill="#ecb8b5"/></svg>