<svg width="101" height="92" viewBox="0 0 101 92" fill="none" xmlns="http://www.w3.org/2000/svg">
<path d="M34.3145 13.6516H23.5935V0H7.79032V13.6516H0V25.5226H7.79032V55.2C7.71613 66.3661 15.321 71.8936 26.7839 71.4113C30.8645 71.2629 33.7581 70.4468 35.3532 69.9274L32.8677 58.1677C32.0887 58.3161 30.4194 58.6871 28.9355 58.6871C25.7823 58.6871 23.5935 57.5 23.5935 53.1226V25.5226H34.3145V13.6516Z" fill="url(#paint0_linear)"/>
<path d="M44.9691 92H60.7723V61.5065H61.2546C63.4433 66.2548 68.2288 71.5597 77.4288 71.5597C90.4126 71.5597 100.54 61.2839 100.54 42.2161C100.54 22.629 89.9675 12.9097 77.4659 12.9097C67.932 12.9097 63.3691 18.5855 61.2546 23.2226H60.5497V13.6516H44.9691V92ZM60.4384 42.1419C60.4384 31.9774 64.7417 25.4855 72.4207 25.4855C80.2481 25.4855 84.403 32.2742 84.403 42.1419C84.403 52.0839 80.1739 58.9839 72.4207 58.9839C64.8159 58.9839 60.4384 52.3065 60.4384 42.1419Z" fill="url(#paint1_linear)"/>
<defs>
<linearGradient id="paint0_linear" x1="104.866" y1="45.4167" x2="4.9038" y2="45.4167" gradientUnits="userSpaceOnUse">
<stop stop-color="#45C8F1"/>
<stop offset="1" stop-color="#0083FC"/>
</linearGradient>
<linearGradient id="paint1_linear" x1="104.866" y1="45.4167" x2="4.9038" y2="45.4167" gradientUnits="userSpaceOnUse">
<stop stop-color="#45C8F1"/>
<stop offset="1" stop-color="#0083FC"/>
</linearGradient>
</defs>
</svg>
