<svg width="137" height="137" viewBox="0 0 137 137" fill="none" xmlns="http://www.w3.org/2000/svg">
<g clip-path="url(#clip0)">
<path d="M68.2176 0C69.9158 0.0142708 71.5313 0.0271146 73.1467 0.0542292C73.7518 0.0685 74.3455 0.148417 74.9106 0.37675C75.206 0.496625 75.5428 0.510896 75.8525 0.550854C76.9842 0.685 78.1144 0.793458 79.2461 0.954719C79.9325 1.04748 80.5933 1.1959 81.2797 1.30293C81.548 1.35716 81.832 1.37 82.1145 1.42423C83.1649 1.66683 84.2009 1.92228 85.2513 2.19057C85.7094 2.31188 86.1532 2.44602 86.5842 2.66151C86.921 2.82134 87.3262 2.84846 87.7158 2.9298C87.8643 2.95692 88.0112 2.96976 88.1597 3.00972C89.3185 3.38647 90.4901 3.76322 91.6474 4.17993C92.6435 4.52814 93.614 4.91773 94.5958 5.30732C94.8926 5.42863 95.188 5.57704 95.4849 5.69692C97.2512 6.43841 98.9852 7.25448 100.682 8.14294C101.289 8.46546 101.921 8.72091 102.528 9.05627C102.784 9.20469 103.013 9.40591 103.255 9.58144C103.564 9.7955 103.888 10.0238 104.211 10.2265C104.965 10.6831 105.733 11.1127 106.486 11.5694C106.957 11.8648 107.388 12.2415 107.846 12.5369C108.478 12.9408 109.004 13.5045 109.677 13.8413C109.856 13.9184 110.012 14.0379 110.134 14.1895C110.351 14.512 110.673 14.6747 110.983 14.8616C111.24 15.0229 111.468 15.2113 111.697 15.3997C111.979 15.628 112.29 15.8292 112.573 16.0575C112.774 16.2188 112.977 16.3801 113.138 16.5684C113.395 16.891 113.663 17.1735 114.054 17.3619C114.31 17.496 114.552 17.7101 114.713 17.9527C114.875 18.1668 115.063 18.3152 115.251 18.4907C115.67 18.8932 116.168 19.2028 116.45 19.7266C116.504 19.8208 116.586 19.8878 116.666 19.9549C117.122 20.2774 117.5 20.6799 117.837 21.138C117.919 21.2578 118.026 21.3791 118.133 21.4733C118.469 21.7816 118.753 22.1312 119.063 22.4537C119.804 23.2072 120.396 24.0806 121.122 24.8327C121.593 25.3293 121.984 25.9073 122.403 26.4453C122.888 27.0761 123.372 27.6954 123.857 28.3262C124.261 28.8499 124.677 29.3751 125.055 29.9117C125.298 30.2613 125.418 30.6909 125.715 31.0134C125.876 31.1889 126.01 31.3901 126.146 31.5785C126.253 31.7126 126.36 31.8468 126.441 31.9952C127.14 33.2439 127.815 34.5211 128.556 35.757C129.284 36.9529 129.795 38.2573 130.414 39.506C130.71 40.0982 130.979 40.7161 131.249 41.3198C131.586 42.0861 131.895 42.8653 132.218 43.6316C132.555 44.4651 132.904 45.2985 133.214 46.1433C133.471 46.8711 133.672 47.6232 133.901 48.361C133.995 48.685 134.103 49.0203 134.185 49.3428C134.521 50.6058 134.87 51.8688 135.166 53.146C135.423 54.2477 135.612 55.3765 135.827 56.4911L136.15 58.265C136.204 58.5332 136.244 58.8158 136.285 59.0984C136.432 60.5226 136.608 61.9611 136.716 63.3982C136.823 64.7025 136.93 66.0055 136.972 67.3227C137.037 68.9535 137 70.5869 136.863 72.2133C136.756 73.3421 136.716 74.4838 136.581 75.6126C136.367 77.5078 136.137 79.4158 135.746 81.2838C135.427 82.8168 135.082 84.344 134.71 85.8648C134.359 87.2633 133.968 88.6476 133.482 90.0047C133.363 90.3401 133.323 90.7168 133.187 91.0522C132.876 91.8769 132.553 92.697 132.218 93.5125C131.868 94.3859 131.504 95.2592 131.155 96.1326C131.141 96.1469 131.141 96.1726 131.126 96.1854C130.442 97.5974 129.746 99.0041 129.04 100.405C128.666 101.153 128.276 101.892 127.87 102.623C127.506 103.254 127.102 103.872 126.724 104.49C126.59 104.705 126.455 104.933 126.307 105.136C125.768 105.928 125.217 106.734 124.664 107.528L123.009 109.905C122.55 110.55 122.039 111.168 121.499 111.746C121.162 112.109 120.867 112.5 120.557 112.888C119.978 113.641 119.319 114.314 118.685 115.026C118.044 115.751 117.375 116.45 116.678 117.122C116.329 117.472 115.939 117.767 115.575 118.103C115.184 118.465 114.768 118.816 114.417 119.219C113.973 119.728 113.435 120.118 112.922 120.549C112.666 120.777 112.41 121.005 112.142 121.234C112.06 121.301 111.993 121.408 111.913 121.448C111.213 121.839 110.646 122.417 110.027 122.9C109.435 123.357 108.802 123.774 108.223 124.243C108.022 124.405 107.792 124.512 107.577 124.66C106.957 125.09 106.351 125.521 105.731 125.95C105.557 126.071 105.355 126.151 105.18 126.273C104.735 126.568 104.304 126.905 103.848 127.172C103.295 127.508 102.729 127.805 102.164 128.114C102.109 128.141 102.042 128.168 101.988 128.193L99.8075 129.444C99.6591 129.525 99.5249 129.658 99.3623 129.7C98.7172 129.873 98.1507 130.237 97.5313 130.493C97.1146 130.667 96.7236 130.882 96.3069 131.083C96.0785 131.19 95.8359 131.312 95.6062 131.406C95.2116 131.57 94.8253 131.754 94.4488 131.957C93.9493 132.239 93.3714 132.386 92.8319 132.589L92.2268 132.789C91.8629 132.911 91.4848 133.017 91.1223 133.14L89.7751 133.582C89.6552 133.624 89.5468 133.703 89.4255 133.731C88.1868 134.08 86.9352 134.43 85.6965 134.765C84.3087 135.144 82.9073 135.471 81.4952 135.746C79.9468 136.042 78.4112 136.338 76.8486 136.512C76.3106 136.566 75.7726 136.606 75.2474 136.66C72.1763 136.941 69.1067 137.077 66.0227 136.956C63.317 136.849 60.6098 136.619 57.9312 136.177C56.6382 135.961 55.3453 135.733 54.0524 135.504C52.8408 135.29 51.6691 134.954 50.4704 134.644C49.029 134.269 47.6162 133.825 46.2434 133.26C45.9465 133.14 45.624 133.098 45.3143 132.991C44.4652 132.687 43.6212 132.369 42.7827 132.037C41.9292 131.681 41.0804 131.313 40.2368 130.935C39.6317 130.654 39.038 130.344 38.4472 130.049C38.1903 129.927 37.922 129.847 37.6794 129.726C36.8845 129.309 36.0897 128.88 35.2962 128.449C34.6355 128.086 33.9762 127.724 33.3168 127.374C33.2626 127.347 33.1955 127.322 33.1413 127.28C31.9283 126.394 30.5554 125.749 29.3981 124.768C29.0613 124.472 28.6574 124.27 28.2807 124.015C27.8497 123.72 27.4315 123.424 27.0148 123.129C26.8393 123.007 26.678 122.859 26.4897 122.765C25.4522 122.174 24.5774 121.395 23.7554 120.521C23.5413 120.293 23.313 120.051 23.0704 119.836C22.6251 119.433 22.167 119.043 21.7232 118.641C21.4949 118.438 21.2922 118.224 21.0767 118.021C21.0097 117.968 20.9683 117.887 20.9012 117.834C20.2547 117.336 19.7438 116.693 19.1516 116.14C18.5775 115.624 18.0459 115.062 17.5618 114.461C17.1052 113.883 16.5914 113.373 16.1348 112.808C15.5967 112.137 15.0445 111.478 14.5193 110.806C13.9941 110.135 13.4818 109.436 12.9709 108.751C12.9138 108.685 12.864 108.612 12.8225 108.535C12.4186 107.782 11.8392 107.124 11.354 106.425C11.14 106.104 10.9644 105.754 10.7618 105.431C10.6669 105.262 10.5591 105.099 10.4393 104.946C10.1824 104.625 9.93978 104.303 9.79279 103.913C9.72572 103.738 9.5773 103.591 9.48312 103.428C8.97079 102.529 8.4599 101.641 7.96184 100.741C7.44952 99.8131 7.01997 98.8598 6.54761 97.9193C6.1837 97.1944 5.80695 96.468 5.51012 95.7016C4.94499 94.2374 4.25856 92.8261 3.84043 91.3076C3.43656 90.4742 3.26246 89.5609 2.9799 88.6747C2.81721 88.2037 2.69591 87.7328 2.56176 87.2633C2.33343 86.457 2.10509 85.6507 1.91529 84.8444C1.68696 83.9039 1.47147 82.9635 1.26882 82.023C0.886034 80.1252 0.589845 78.2109 0.381177 76.2862C-0.118302 71.6353 -0.0769163 66.973 0.21849 62.3093C0.28699 61.3289 0.446823 60.3485 0.569553 59.3667C0.676584 58.5604 0.783615 57.7541 0.919188 56.9478C1.13468 55.6577 1.35017 54.3676 1.68696 53.0918C1.99664 51.9087 2.25208 50.7128 2.58888 49.5312C2.92567 48.3353 3.26246 47.1394 3.74624 45.9835C4.0973 45.1372 4.36559 44.2496 4.73093 43.3905C5.44447 41.6694 6.19797 39.9626 6.97858 38.2573C7.44952 37.2355 7.97469 36.2551 8.56693 35.3132C8.83665 34.8708 9.05214 34.3998 9.32186 33.9575C9.87414 33.0441 10.4521 32.1422 11.0187 31.2289C11.14 31.0276 11.207 30.7993 11.3283 30.5967C11.785 29.8974 12.2303 29.1867 12.7825 28.5559C13.0922 28.2049 13.3334 27.7882 13.5903 27.3857C13.7991 27.0363 14.0524 26.7153 14.3438 26.431C14.6135 26.1898 14.8689 25.9215 15.0716 25.6247C15.367 25.168 15.7437 24.7784 16.0948 24.3889C16.1348 24.3346 16.189 24.3089 16.2289 24.2419C16.6328 23.5426 17.2793 23.0588 17.8187 22.468C18.1955 22.0513 18.5323 21.6075 18.8819 21.1779C19.3799 20.56 19.9051 19.9678 20.5516 19.4982C20.9012 19.2414 21.1709 18.906 21.4935 18.6249C21.8031 18.3551 22.1271 18.114 22.4353 17.8457C22.7322 17.5888 23.0019 17.3205 23.2987 17.0793C23.8096 16.6484 24.3219 16.2331 24.8328 15.8021C25.6149 15.1571 26.3684 14.4849 27.1633 13.8812C28.0652 13.1962 28.9271 12.4299 29.9775 11.9461C30.0574 11.9062 30.1387 11.8648 30.1915 11.812C30.5026 11.3553 31.0007 11.194 31.4445 10.9243C31.5116 10.8844 31.62 10.8715 31.6728 10.8173C32.3607 10.1722 33.2226 9.82261 34.0432 9.39306C35.202 8.77514 36.3323 8.13009 37.5039 7.53785C38.5271 7.02839 39.4975 6.4233 40.5607 6.01944C40.9246 5.88529 41.2471 5.67123 41.5968 5.4957C41.7181 5.4429 41.8251 5.3744 41.9478 5.33444C42.5672 5.09183 43.1865 4.85066 43.8187 4.62232C43.9943 4.55525 44.1827 4.50102 44.371 4.44822C44.4795 4.41968 44.5865 4.39399 44.6807 4.35403C45.6226 3.84314 46.633 3.58769 47.6704 3.34651C48.1072 3.24216 48.5348 3.10281 48.9491 2.9298C49.6355 2.64724 50.3362 2.48598 51.0498 2.32472C51.8175 2.15061 52.5853 1.92228 53.3531 1.71964C54.3092 1.46419 55.2782 1.23585 56.2743 1.1959C56.4499 1.18163 56.624 1.18163 56.7867 1.14167C57.9982 0.819146 59.2498 0.739229 60.4885 0.645042C61.0067 0.613102 61.5186 0.513798 62.0112 0.349635C62.4821 0.174104 62.9674 0.121302 63.4654 0.107031C65.0488 0.0446612 66.633 0.00897901 68.2176 0V0ZM95.943 71.4341C95.5933 71.26 95.4306 70.9375 95.2694 70.6406C95.0682 70.2653 94.8798 69.8757 94.5558 69.5803C94.4345 69.4718 94.3675 69.2977 94.2861 69.1365C94.0721 68.7469 93.8694 68.3302 93.6396 67.9534C93.0888 67.0544 92.5222 66.1667 91.97 65.2791C91.8087 65.0251 91.7017 64.7282 91.5133 64.5142C91.285 64.2573 91.1622 63.9762 91.0281 63.6807C90.8397 63.304 90.8668 62.8873 90.9339 62.4848C90.9537 62.3557 91.006 62.2338 91.0859 62.1304C91.1658 62.0271 91.2706 61.9457 91.3906 61.894C91.7816 61.7313 92.1469 61.503 92.6036 61.5173C93.0075 61.5316 93.4256 61.4773 93.8295 61.4231C94.2062 61.3689 94.3275 61.2618 94.3404 60.8851C94.3675 60.2672 94.3675 59.6364 94.3404 59.017C94.3261 58.7088 94.2062 58.6017 93.8965 58.5746C93.7081 58.5604 93.5055 58.5604 93.3171 58.5604C88.7519 58.5604 84.1881 58.5461 79.6228 58.5461H79.1662C78.7609 58.5746 78.6667 58.6546 78.6524 59.0456C78.6396 59.6221 78.6524 60.2015 78.6524 60.7781V60.8451C78.6952 61.2476 78.8023 61.3689 79.2061 61.4359C79.4616 61.4773 79.717 61.503 79.9725 61.5173C80.8487 61.5316 81.6165 61.8798 82.2487 62.4449C82.6668 62.8074 83.0164 63.2512 83.3532 63.6936C83.7971 64.2987 84.2009 64.9309 84.5919 65.5759C85.1571 66.5435 85.7764 67.4697 86.3687 68.4101C86.881 69.2307 87.379 70.0641 87.9042 70.8704C88.4422 71.7024 88.8461 72.6029 89.5197 73.3421C89.5496 73.3725 89.5724 73.409 89.5867 73.4491C89.8293 74.0942 90.2603 74.645 90.61 75.2373C91.2293 76.2448 91.8501 77.2395 92.4694 78.247C92.542 78.3658 92.6378 78.4688 92.7511 78.5497C92.8644 78.6306 92.9928 78.6878 93.1288 78.7179C93.5326 78.825 93.9094 78.9463 94.3132 78.7179C94.3803 78.6765 94.4888 78.6894 94.5701 78.6894C94.8384 78.7036 95.0125 78.5567 95.1481 78.3412C95.405 77.9245 95.6875 77.5078 95.943 77.091C96.4681 76.2305 96.9805 75.3714 97.5042 74.498C98.1107 73.4905 98.7029 72.4687 99.3494 71.474C100.211 70.144 101.005 68.7597 101.854 67.4154C102.54 66.3009 103.134 65.1321 103.9 64.0703C104.157 63.7207 104.371 63.3568 104.668 63.0357C105.22 62.4178 105.827 61.9069 106.675 61.6914C107.131 61.5715 107.591 61.4359 108.062 61.4231C108.547 61.4088 108.748 61.1277 108.897 60.7524C108.937 60.6567 108.937 60.5369 108.937 60.4284C108.937 60.0659 108.951 59.7035 108.937 59.3267C108.909 58.7487 108.68 58.5076 108.102 58.4933C107.604 58.479 107.106 58.5218 106.62 58.5218C103.82 58.5218 101.019 58.5076 98.232 58.5076C98.0836 58.5076 97.9352 58.5076 97.7882 58.5347C97.6255 58.5604 97.5042 58.6417 97.4785 58.8158C97.3972 59.5422 97.3572 60.2672 97.45 61.0064C97.4914 61.289 97.5855 61.356 97.8824 61.396C98.2862 61.4359 98.7029 61.503 99.1068 61.4773C99.632 61.4488 100.077 61.6643 100.507 61.8798C100.965 62.1081 101.153 62.6461 100.992 63.1427C100.858 63.5994 100.628 64.0161 100.373 64.42C99.9959 65.0108 99.6191 65.6159 99.2552 66.2209C98.8913 66.8246 98.5274 67.4425 98.1649 68.0476C97.5984 68.9895 97.0204 69.9157 96.441 70.8433C96.2926 71.0573 96.2127 71.2999 95.9415 71.4341H95.943ZM63.3712 62.3778C63.3427 62.3236 63.3027 62.2694 63.2899 62.2023C63.1979 61.4127 63.1797 60.6163 63.2356 59.8233C63.2605 59.5691 63.2653 59.3134 63.2499 59.0584C63.2356 58.6945 63.1415 58.5875 62.8047 58.5604C62.5093 58.5461 62.1996 58.5461 61.9027 58.5461C59.3397 58.5308 56.7767 58.5222 54.2136 58.5204C54.0666 58.5204 53.9182 58.5204 53.7712 58.5347C53.473 58.5746 53.3388 58.6945 53.3388 58.9913C53.3245 59.6621 53.3245 60.3214 53.3388 60.9935C53.3388 61.2618 53.4601 61.3689 53.7427 61.4088C54.0395 61.4502 54.3492 61.4773 54.6446 61.4773C55.1569 61.4631 55.615 61.6243 56.086 61.7998C56.4499 61.934 56.7196 62.1752 56.9208 62.4848C57.1363 62.8202 57.3518 63.1841 57.3917 63.5994C57.446 64.0703 57.5402 64.5413 57.5402 65.0122C57.5544 67.3755 57.5402 69.7416 57.5544 72.1048C57.5544 72.6971 57.4731 73.2607 57.3261 73.8259C57.0692 74.8063 56.4499 75.4242 55.4138 75.5726C54.9814 75.6269 54.5504 75.6668 54.1337 75.7068C53.6628 75.7482 53.5814 75.8152 53.5686 76.299C53.5543 76.8085 53.5543 77.3336 53.5543 77.8431V77.9787C53.5957 78.4882 53.6756 78.5823 54.1608 78.5966H54.6175C58.5634 78.5966 62.495 78.6109 66.4409 78.6109C66.6977 78.6109 66.9518 78.6109 67.2086 78.5823C67.6396 78.5424 67.7738 78.3954 67.7866 77.9644C67.8009 77.4678 67.8009 76.9697 67.7866 76.486C67.7738 75.7482 67.7195 75.7068 66.9518 75.6797C66.5222 75.654 66.0912 75.6668 65.6731 75.5726C64.9995 75.4242 64.4215 75.0489 64.1518 74.3896C63.9363 73.853 63.7608 73.275 63.7209 72.7099C63.6267 71.1258 63.5453 69.5389 63.855 67.9534C63.9363 67.5367 63.9363 67.0943 64.0576 66.6905C64.3259 65.8299 64.7569 65.0379 65.3092 64.3115L65.4705 64.1117C66.037 63.5737 66.6292 63.1028 67.3299 62.7403C68.0435 62.3764 68.7841 62.3764 69.5248 62.2965C69.7531 62.2694 69.8744 62.4306 69.8744 62.659C69.8744 62.9957 69.8744 63.344 69.8602 63.6807C69.8473 64.6083 70.8577 65.643 71.7725 65.75C72.2719 65.8171 72.7571 65.8442 73.2538 65.7771C73.8874 65.6958 74.4668 65.4674 74.8835 64.9566C74.9492 64.8707 75.026 64.794 75.1118 64.7282C75.6641 64.3258 75.8539 63.7335 75.8939 63.1028C75.9196 62.5248 75.8939 61.9468 75.8653 61.3689C75.8462 61.1758 75.8011 60.9862 75.7312 60.8052C75.4684 60.0746 75.0068 59.4321 74.3983 58.95C73.7247 58.4262 73.0112 58.0366 72.1364 57.9567C72.1093 57.9567 72.0964 57.9567 72.0693 57.9424C71.4151 57.7905 70.737 57.7725 70.0757 57.8896C69.4035 57.9967 68.7299 58.0637 68.0834 58.3606C66.965 58.8647 65.9546 59.5805 65.108 60.4684C64.637 60.9664 64.1918 61.4902 63.815 62.0667C63.7209 62.2294 63.6124 62.4035 63.3712 62.3778ZM42.8897 61.6243C42.6343 62.0952 42.3917 62.4706 42.2176 62.8873C41.9464 63.4924 41.8665 64.1246 42.2176 64.7425C42.2846 64.8766 42.3374 65.0251 42.3788 65.1592C42.513 65.6159 42.7955 65.9241 43.1723 66.2209C43.6175 66.5692 44.1142 66.7447 44.6536 66.8118C45.4214 66.906 46.1749 66.8118 46.8228 66.3551C47.308 66.0183 47.7247 65.6159 48.0072 65.0379C48.4111 64.2173 48.4924 63.411 48.2755 62.5376C48.0669 61.7674 47.6846 61.0552 47.1581 60.4555C46.8627 60.1059 46.5388 59.8105 46.1221 59.6093C45.9069 59.5089 45.6998 59.392 45.5027 59.2596C44.8034 58.763 44.0214 58.4933 43.1865 58.332C43.0381 58.3049 42.8769 58.2921 42.7556 58.2122C42.5272 58.0509 42.2704 58.0366 42.0149 58.0366C41.7723 58.0224 41.544 58.0224 41.3014 57.9824C40.3852 57.8483 39.4562 57.7826 38.5271 57.8882C37.5995 57.9967 36.6291 57.9567 35.74 58.3449C35.7258 58.3591 35.7001 58.3591 35.673 58.3591C35.1478 58.5347 34.5827 58.6688 34.0846 58.91C33.3968 59.2468 32.6704 59.5422 32.091 60.0802C32.0605 60.1096 32.024 60.132 31.9839 60.1459C31.553 60.3214 31.2419 60.671 30.9336 60.9935C30.6368 61.3018 30.3542 61.6243 30.0717 61.9468C29.9361 62.1081 29.7748 62.2694 29.6806 62.4577C29.1555 63.4124 28.5632 64.3386 28.3206 65.4275C28.1465 66.2209 27.9168 67.013 27.9439 67.8321C27.9581 68.3031 27.9581 68.774 27.9439 69.2449C27.9039 70.3581 28.2264 71.407 28.6175 72.4416C29.0884 73.7188 29.8419 74.8477 30.798 75.8281C31.1891 76.2305 31.62 76.5801 32.051 76.9298C32.4549 77.2666 32.9387 77.4535 33.3696 77.7361C34.3001 78.354 35.3761 78.5695 36.3993 78.9591C37.0601 79.039 37.7194 79.1732 38.3787 79.2017C39.5232 79.2417 40.6677 79.2545 41.7866 79.039C42.042 78.9862 42.3117 79.0133 42.5529 78.9191C43.3749 78.5966 44.2369 78.3683 44.9775 77.8973C45.1916 77.7632 45.3942 77.6019 45.624 77.4678C46.1349 77.1852 46.593 76.8228 46.9697 76.3789C47.7247 75.5056 48.3026 74.538 48.6394 73.4363C48.6808 73.315 48.7208 73.1808 48.7878 73.0866C48.9491 72.8583 48.9363 72.6029 48.922 72.3474C48.9077 72.092 48.815 72.0121 48.5595 71.9849C48.384 71.9707 48.2085 71.9578 48.0472 71.9578L46.6058 71.9978C46.4988 72.2261 46.4046 72.4416 46.2833 72.6428C46.0136 73.1138 45.7724 73.5975 45.4485 74.0128C44.9362 74.6864 44.2911 75.2101 43.5219 75.5997C42.9582 75.8823 42.4059 76.0964 41.7595 76.1235C40.7748 76.1634 39.8329 76.0022 38.891 75.7467C38.7264 75.6999 38.5682 75.6327 38.4201 75.5469C37.531 74.9947 36.7647 74.3097 36.211 73.422C35.6694 72.5661 35.2866 71.6195 35.0807 70.6278C34.929 69.8923 34.8298 69.1469 34.7839 68.3973C34.7168 66.9331 34.8781 65.4946 35.4303 64.1103C35.74 63.3454 36.1582 62.659 36.6962 62.0268C36.8988 61.7856 37.1528 61.5701 37.424 61.396C38.002 61.0192 38.6627 60.818 39.2949 60.5626C39.3772 60.5336 39.4652 60.5243 39.5518 60.5354C40.1968 60.6168 40.8304 60.6168 41.4769 60.7509C42.0963 60.8323 42.5258 61.1676 42.8897 61.6243Z" fill="#EE5235"/>
</g>
<defs>
<clipPath id="clip0">
<rect width="137" height="137" fill="white"/>
</clipPath>
</defs>
</svg>
