<svg width="100" height="117" viewBox="0 0 100 117" fill="none" xmlns="http://www.w3.org/2000/svg">
<path d="M36.4134 22.8683V20.0379L39.9643 14.4799L41.0965 16.3326V19.5232L36.4134 22.8683ZM47.8898 7.89193V6.75979L57.4621 3.05443V3.98077L47.8898 7.89193ZM59.2121 3.05443V4.2897H60.9621L67.6523 3.05443L66.9831 2.38523L59.2121 3.05443ZM71.4607 3.05443L72.0782 1.40755L76.9161 0.892822L76.5045 1.97363L71.4607 3.05443ZM95.0313 36.8151V28.5808L98.9424 23.4343V12.5236L95.8545 11.4942V9.22541H92.9724L90.7099 6.96291V3.05443H85.9732L77.5331 5.31872H69.0929L54.0652 13.3473V28.375L58.8 28.5808L58.5942 38.2562L46.2429 48.7549L43.9786 37.4326H47.8898L51.3893 33.1093H46.8603L46.4487 28.3745L43.9786 24.4634L41.4054 27.0366H39.2438V23.8459H37.3911L35.1268 31.8745L32.8625 44.0201L27.7161 56.3714L18.4527 65.6348V70.4209L13.9237 71.1928V72.6339L16.7331 75.0607L11.7965 74.2808L9.46342 74.8299V77.1625L12.3456 76.3392L19.1389 83.1326L13.4438 80.0446H6.30672L2.73887 82.5147L5.62101 86.3576L7.67949 86.9062L9.12056 85.4651L12.071 88.8276H14.404L15.3648 86.3576H16.7375L26.7558 90.612L28.2657 90.0634L27.4424 86.7696L31.1478 85.2598V87.0437L34.4415 87.5928L37.0491 84.9852L41.0974 89.0339L44.0482 85.8084L46.9304 92.1218L49.4005 94.4544H55.7134L64.9085 99.1209L59.9679 111.609L61.4773 115.178H69.7116L71.7701 108.864L66.8295 106.394L66.0063 103.65L73.2799 98.983L70.9469 97.8852V95.9638L74.6523 90.6116V83.4754L68.2023 74.5549L67.9277 71.1241L74.7898 69.3397L79.3188 70.575L86.4549 66.8696L87.9648 68.3794L90.2974 64.2625L87.0036 60.9687L95.9241 53.283L94.1402 44.0884L87.0036 43.8138V36.8151H95.0313ZM14.0264 90.9558H12.6884L5.17458 88.2794L1.05762 89V93.3232L2.73887 95.0732L4.76297 94.3526V93.1174L6.92458 92.3968L11.9679 94.3526V95.6906L14.5411 96.5138L21.1286 93.3232L22.8786 90.9558L16.4969 88.2794L14.0264 90.9558Z" fill="#E0E6ED"/>
</svg>
