<svg width="100" height="64" viewBox="0 0 100 64" fill="none" xmlns="http://www.w3.org/2000/svg">
<path d="M99.2301 9.14014L97.2236 7.70553L96.2155 4.63668L93.6643 4.41861L93.0286 8.84976L92.2205 10.1301L91.7213 10.9836L88.7339 11.8005L86.2551 12.3909L84.2574 14.9786L84.8205 16.1771L80.6347 18.8286L79.3543 20.4536L78.1559 21.3436L74.9143 23.2686L73.1255 22.7236L74.5059 19.464L72.4628 16.6221L71.8636 14.2432L70.3382 13.4259L67.7232 15.814L67.1874 17.8571L67.9774 20.4355L67.1966 23.3682L66.007 23.559L65.3443 21.8155L65.0082 20.009L65.6528 16.2951L65.1355 15.6325L65.9436 13.6348L70.8286 12.9355L69.067 11.1925L65.2351 12.2548L63.3559 10.9651L60.2139 12.4725L57.4086 12.1909L58.3709 9.12207L56.3824 8.01438L54.6209 8.11438L52.3509 7.01553L49.1278 7.00668L38.3862 6.46168L25.1205 4.65476L19.7089 3.54707L18.1928 3.20207L9.49432 0.859375L8.87702 2.80245L5.89855 1.78553L5.82586 6.59784L6.87009 7.07014L5.29932 8.12322L2.27586 13.8982L2.22125 15.9775L0.768555 19.364L0.859324 23.1594L3.80125 34.9994L7.20625 36.9063L8.78586 39.0128L9.09471 41.0378L13.8797 41.664L13.5801 42.1182L20.6443 46.2675L24.5851 46.8851L26.4009 46.0586L29.8332 46.5128L32.5932 49.4182L33.347 51.8971L36.0801 53.7675L37.1878 52.0425L39.8389 52.1332L43.5709 57.5901L44.3789 60.414L48.2105 61.1948L47.7205 59.0521L48.8824 56.6005L51.897 54.8844L55.6105 51.9151L58.8066 52.8867L59.6693 52.1425L61.7578 53.704L64.082 52.9413L64.4182 51.0075L66.6882 50.3625L68.6855 49.9632L71.5093 50.0901L73.952 51.4705L75.7497 50.054L79.0274 52.5598L78.9912 55.1478L81.0251 58.1986L84.902 60.4321L85.1201 56.1828L83.5582 52.8052L80.6801 47.8748L81.3974 44.5878L84.2939 41.3101L85.1655 39.4578L89.6416 33.8282L88.6974 32.3028L88.7247 32.2936L88.8155 32.2755L88.9789 32.2394L89.0243 32.2301L87.4897 30.8501L87.6078 29.2794L87.087 28.7586L88.6701 28.889L89.1332 28.6617L89.4239 27.5359L89.4786 27.5271L89.4966 27.5178L88.0982 24.5759L88.6974 23.9313L90.4682 24.1948L90.1047 21.2255L90.5589 21.0894L93.4643 19.5728L94.2636 18.3836L94.3543 18.4378L94.5812 18.774L95.3893 17.8025L94.227 15.5232L94.2089 15.024L95.7436 12.7267L99.2301 9.14014ZM13.807 51.0982L12.7086 51.4886L10.0301 52.7598L8.65894 54.8117L9.01317 57.5628L7.85971 59.7059L10.9289 62.6021L18.7647 61.6217L18.4743 53.0682L13.807 51.0982Z" fill="#E0E6ED"/>
</svg>
