<svg width="26" height="26" viewBox="0 0 26 26" fill="none" xmlns="http://www.w3.org/2000/svg">
<circle opacity="0.15" cx="13" cy="13" r="13" fill="#45C8F1"/>
<path d="M13 5C8.6 5 5 8.6 5 13C5 17.4 8.6 21 13 21C17.4 21 21 17.4 21 13C21 8.6 17.4 5 13 5ZM13 6.6C15.4 6.6 17.4 7.88 18.52 9.8H13C11.48 9.8 10.12 10.92 9.88 12.36L7.96 9.08C9.16 7.56 10.92 6.6 13 6.6ZM15.4 13C15.4 14.36 14.36 15.4 13 15.4C11.64 15.4 10.6 14.36 10.6 13C10.6 11.64 11.64 10.6 13 10.6C14.36 10.6 15.4 11.64 15.4 13ZM6.6 13C6.6 11.8 6.92 10.76 7.48 9.8L10.28 14.6C10.84 15.56 11.88 16.2 13 16.2C13.4 16.2 13.72 16.12 14.04 16.04L12.12 19.32C9 18.92 6.6 16.2 6.6 13ZM13 19.4L15.8 14.6C16.04 14.12 16.28 13.56 16.28 13C16.28 12.04 15.88 11.16 15.16 10.6H19C19.32 11.32 19.48 12.12 19.48 13C19.4 16.52 16.52 19.4 13 19.4Z" fill="#45C8F1"/>
</svg>
