<svg width="26" height="26" viewBox="0 0 26 26" fill="none" xmlns="http://www.w3.org/2000/svg">
<circle opacity="0.1" cx="13" cy="13" r="13" fill="#45C8F1"/>
<path fill-rule="evenodd" clip-rule="evenodd" d="M6.75 6C6.28587 6 5.84075 6.18437 5.51256 6.51256C5.18437 6.84075 5 7.28587 5 7.75V18.25C5 19.216 5.784 20 6.75 20H19.25C19.7141 20 20.1592 19.8156 20.4874 19.4874C20.8156 19.1592 21 18.7141 21 18.25V9.75C21 9.28587 20.8156 8.84075 20.4874 8.51256C20.1592 8.18437 19.7141 8 19.25 8H12.75C12.7112 8 12.6729 7.99096 12.6382 7.97361C12.6035 7.95625 12.5733 7.93105 12.55 7.9L11.65 6.7C11.32 6.26 10.8 6 10.25 6H6.75Z" fill="#45C8F1"/>
</svg>
