<svg fill="none" height="26" viewBox="0 0 26 26" width="26" xmlns="http://www.w3.org/2000/svg"><g fill="#45c8f1"><circle cx="13" cy="13" opacity=".15" r="13"/><path clip-rule="evenodd" d="m11.5 5.75c0-.41421-.3358-.75-.75-.75s-.75.33579-.75.75v1.25h-1.25c-.9665 0-1.75.7835-1.75 1.75v1.25h-1.25c-.41421 0-.75.3358-.75.75s.33579.75.75.75h1.25v3h-1.25c-.41421 0-.75.3358-.75.75s.33579.75.75.75h1.25v1.25c0 .9665.7835 1.75 1.75 1.75h1.25v1.25c0 .4142.3358.75.75.75s.75-.3358.75-.75v-1.25h3v1.25c0 .4142.3358.75.75.75s.75-.3358.75-.75v-1.25h1.25c.9665 0 1.75-.7835 1.75-1.75v-1.25h1.25c.4142 0 .75-.3358.75-.75s-.3358-.75-.75-.75h-1.25v-3h1.25c.4142 0 .75-.3358.75-.75s-.3358-.75-.75-.75h-1.25v-1.25c0-.9665-.7835-1.75-1.75-1.75h-1.25v-1.25c0-.41421-.3358-.75-.75-.75s-.75.33579-.75.75v1.25h-3zm5.75 11.75h-2-4.5-2c-.13807 0-.25-.1119-.25-.25v-2-4.5-2c0-.13807.11193-.25.25-.25h2 4.5 2c.1381 0 .25.11193.25.25v2 4.5 2c0 .1381-.1119.25-.25.25zm-6.5-7.5c-.4142 0-.75.3358-.75.75v4.5c0 .4142.3358.75.75.75h4.5c.4142 0 .75-.3358.75-.75v-4.5c0-.4142-.3358-.75-.75-.75zm.75 4.5v-3h3v3z" fill-rule="evenodd"/></g></svg>